0
SECTION
2
HEADER
9
$INSUNITS
70
4
9
$ACADVER
1
AC1014
9
$HANDSEED
5
FFFF
0
ENDSEC
0
SECTION
2
TABLES
0
TABLE
2
VPORT
5
8
100
AcDbSymbolTable
0
ENDTAB
0
TABLE
2
LTYPE
5
5
100
AcDbSymbolTable
0
LTYPE
5
14
100
AcDbSymbolTableRecord
100
AcDbLinetypeTableRecord
2
BYBLOCK
70
0
0
LTYPE
5
15
100
AcDbSymbolTableRecord
100
AcDbLinetypeTableRecord
2
BYLAYER
70
0
0
ENDTAB
0
TABLE
2
LAYER
5
2
100
AcDbSymbolTable
70
2
0
LAYER
5
50
100
AcDbSymbolTableRecord
100
AcDbLayerTableRecord
2
0
70
0
6
CONTINUOUS
0
ENDTAB
0
TABLE
2
STYLE
5
3
100
AcDbSymbolTable
70
1
0
STYLE
5
11
100
AcDbSymbolTableRecord
100
AcDbTextStyleTableRecord
2
STANDARD
70
0
0
ENDTAB
0
TABLE
2
VIEW
5
6
100
AcDbSymbolTable
70
0
0
ENDTAB
0
TABLE
2
UCS
5
7
100
AcDbSymbolTable
70
0
0
ENDTAB
0
TABLE
2
APPID
5
9
100
AcDbSymbolTable
70
2
0
APPID
5
12
100
AcDbSymbolTableRecord
100
AcDbRegAppTableRecord
2
ACAD
70
0
0
ENDTAB
0
TABLE
2
DIMSTYLE
5
A
100
AcDbSymbolTable
70
1
0
ENDTAB
0
TABLE
2
BLOCK_RECORD
5
1
100
AcDbSymbolTable
70
1
0
BLOCK_RECORD
5
1F
100
AcDbSymbolTableRecord
100
AcDbBlockTableRecord
2
*MODEL_SPACE
0
BLOCK_RECORD
5
1B
100
AcDbSymbolTableRecord
100
AcDbBlockTableRecord
2
*PAPER_SPACE
0
ENDTAB
0
ENDSEC
0
SECTION
2
BLOCKS
0
BLOCK
5
20
100
AcDbEntity
100
AcDbBlockBegin
2
*MODEL_SPACE
0
ENDBLK
5
21
100
AcDbEntity
100
AcDbBlockEnd
0
BLOCK
5
1C
100
AcDbEntity
100
AcDbBlockBegin
2
*PAPER_SPACE
0
ENDBLK
5
1D
100
AcDbEntity
100
AcDbBlockEnd
0
ENDSEC
0
SECTION
2
ENTITIES
0
LWPOLYLINE
5
100
100
AcDbEntity
8
0
100
AcDbPolyline
90
8
70
1
43
0.0
10
-7.0912547358069098
20
-8.0155486949308301
42
0.45861202855152
10
-14.664806964496396
20
-8.2845694080185126
42
-0.56502397880837807
10
-18.060822820097421
20
-7.8298086861077367
42
-1.5234526665911512
10
18.060822820097421
20
-7.8298086861077394
42
-0.5650239788083784
10
14.664806964496393
20
-8.2845694080185126
42
0.45861202855152039
10
7.0912547358069054
20
-8.0155486949308354
42
-0.39342646008747967
10
4.3733405668804375
20
-8.2192985209961602
42
0.35082988103369184
10
-4.3733405668804366
20
-8.2192985209961567
42
-0.39342646008748089
0
CIRCLE
5
101
100
AcDbEntity
8
0
100
AcDbCircle
10
-7.6245580763737788
20
-16.799570721358347
30
0
40
1.2361663706911485
210
0
220
0
230
1
0
CIRCLE
5
102
100
AcDbEntity
8
0
100
AcDbCircle
10
-10.762225485084318
20
-11.410246605932821
30
0
40
4
210
0
220
0
230
1
0
CIRCLE
5
103
100
AcDbEntity
8
0
100
AcDbCircle
10
10.762225485084315
20
-11.410246605932821
30
0
40
3.9999999999999991
210
0
220
0
230
1
0
CIRCLE
5
104
100
AcDbEntity
8
0
100
AcDbCircle
10
1.2490009027033011e-15
20
-13.684999985098843
30
0
40
6.0000000000000009
210
0
220
0
230
1
0
CIRCLE
5
105
100
AcDbEntity
8
0
100
AcDbCircle
10
7.6245580763737788
20
-16.799570721358347
30
0
40
1.2361663706911474
210
0
220
0
230
1
0
CIRCLE
5
106
100
AcDbEntity
8
0
100
AcDbCircle
10
0
20
-1.1102230246251565e-15
30
0
40
20.284999999999997
210
0
220
0
230
1
0
SPLINE
5
107
100
AcDbEntity
8
0
100
AcDbSpline
70
4
71
3
72
8
73
4
74
0
42
0.000000001
43
0.0000000001
44
0.0000000001
40
-1
40
-1
40
-1
40
-1
40
0
40
0
40
0
40
0
41
1
41
1
41
1
41
1
10
-11.889496517736067
20
-13.119750233620646
30
0
10
-11.489019312978268
20
-13.151896517029771
30
0
10
-11.118195562223985
20
-13.31410318979405
30
0
10
-10.8392989660965
20
-13.579128221420621
30
0
0
SPLINE
5
108
100
AcDbEntity
8
0
100
AcDbSpline
70
4
71
3
72
8
73
4
74
0
42
0.000000001
43
0.0000000001
44
0.0000000001
40
-1
40
-1
40
-1
40
-1
40
0
40
0
40
0
40
0
41
1
41
1
41
1
41
1
10
-10.8392989660965
20
-13.579128221420621
30
0
10
-10.644489232401391
20
-13.764247035575913
30
0
10
-10.609419572853307
20
-13.892485741903883
30
0
10
-10.722638891561456
20
-14.005704156102086
30
0
0
SPLINE
5
109
100
AcDbEntity
8
0
100
AcDbSpline
70
4
71
3
72
8
73
4
74
0
42
0.000000001
43
0.0000000001
44
0.0000000001
40
-1
40
-1
40
-1
40
-1
40
0
40
0
40
0
40
0
41
1
41
1
41
1
41
1
10
-10.722638891561456
20
-14.005704156102086
30
0
10
-10.858879797363832
20
-14.141943252884577
30
0
10
-11.50659936824951
20
-14.056450781999263
30
0
10
-11.906302312495267
20
-13.849471771517807
30
0
0
SPLINE
5
110
100
AcDbEntity
8
0
100
AcDbSpline
70
4
71
3
72
8
73
4
74
0
42
0.000000001
43
0.0000000001
44
0.0000000001
40
-1
40
-1
40
-1
40
-1
40
0
40
0
40
0
40
0
41
1
41
1
41
1
41
1
10
-11.906302312495267
20
-13.849471771517807
30
0
10
-12.122841993084608
20
-13.73734148278222
30
0
10
-12.418464787096211
20
-13.437502767921714
30
0
10
-12.418464787096211
20
-13.330008092649033
30
0
0
SPLINE
5
111
100
AcDbEntity
8
0
100
AcDbSpline
70
4
71
3
72
8
73
4
74
0
42
0.000000001
43
0.0000000001
44
0.0000000001
40
-1
40
-1
40
-1
40
-1
40
0
40
0
40
0
40
0
41
1
41
1
41
1
41
1
10
-12.418464787096211
20
-13.330008092649033
30
0
10
-12.418464787096211
20
-13.150068502432983
30
0
10
-12.266130840370497
20
-13.089516988743037
30
0
10
-11.889496517736067
20
-13.119750233620646
30
0
0
SPLINE
5
112
100
AcDbEntity
8
0
100
AcDbSpline
70
4
71
3
72
8
73
4
74
0
42
0.000000001
43
0.0000000001
44
0.0000000001
40
-1
40
-1
40
-1
40
-1
40
0
40
0
40
0
40
0
41
1
41
1
41
1
41
1
10
-12.34273197850646
20
-9.7587161041549244
30
0
10
-12.756302869213352
20
-10.007700104179943
30
0
10
-13.307648714587614
20
-10.601195660688806
30
0
10
-13.493500181797531
20
-10.997464632932225
30
0
0
SPLINE
5
113
100
AcDbEntity
8
0
100
AcDbSpline
70
4
71
3
72
8
73
4
74
0
42
0.000000001
43
0.0000000001
44
0.0000000001
40
-1
40
-1
40
-1
40
-1
40
0
40
0
40
0
40
0
41
1
41
1
41
1
41
1
10
-13.493500181797531
20
-10.997464632932225
30
0
10
-13.625384967709691
20
-11.278674965496416
30
0
10
-13.64195920792322
20
-11.384037258576157
30
0
10
-13.64195920792322
20
-11.941335231636794
30
0
0
SPLINE
5
114
100
AcDbEntity
8
0
100
AcDbSpline
70
4
71
3
72
8
73
4
74
0
42
0.000000001
43
0.0000000001
44
0.0000000001
40
-1
40
-1
40
-1
40
-1
40
0
40
0
40
0
40
0
41
1
41
1
41
1
41
1
10
-13.64195920792322
20
-11.941335231636794
30
0
10
-13.64195920792322
20
-12.535555300610781
30
0
10
-13.632089195414485
20
-12.588701139134372
30
0
10
-13.454921023666806
20
-12.948436050230407
30
0
0
SPLINE
5
115
100
AcDbEntity
8
0
100
AcDbSpline
70
4
71
3
72
8
73
4
74
0
42
0.000000001
43
0.0000000001
44
0.0000000001
40
-1
40
-1
40
-1
40
-1
40
0
40
0
40
0
40
0
41
1
41
1
41
1
41
1
10
-13.454921023666806
20
-12.948436050230407
30
0
10
-13.077479878162341
20
-13.714816471647229
30
0
10
-12.141872882305993
20
-14.280004032694249
30
0
10
-11.034597135161377
20
-14.410520295061167
30
0
0
SPLINE
5
116
100
AcDbEntity
8
0
100
AcDbSpline
70
4
71
3
72
8
73
4
74
0
42
0.000000001
43
0.0000000001
44
0.0000000001
40
-1
40
-1
40
-1
40
-1
40
0
40
0
40
0
40
0
41
1
41
1
41
1
41
1
10
-11.034593517121598
20
-14.410520295061167
30
0
10
-10.249728530489559
20
-14.503032667621722
30
0
10
-9.5552240872613403
20
-14.378175019464363
30
0
10
-9.0863188962213925
20
-14.060260577883316
30
0
0
SPLINE
5
117
100
AcDbEntity
8
0
100
AcDbSpline
70
4
71
3
72
8
73
4
74
0
42
0.000000001
43
0.0000000001
44
0.0000000001
40
-1
40
-1
40
-1
40
-1
40
0
40
0
40
0
40
0
41
1
41
1
41
1
41
1
10
-9.0863188962213925
20
-14.060260577883316
30
0
10
-8.7199200081130712
20
-13.81184506235809
30
0
10
-8.5772064291515537
20
-13.52809667489109
30
0
10
-8.5773547687823637
20
-13.04825414960851
30
0
0
SPLINE
5
118
100
AcDbEntity
8
0
100
AcDbSpline
70
4
71
3
72
8
73
4
74
0
42
0.000000001
43
0.0000000001
44
0.0000000001
40
-1
40
-1
40
-1
40
-1
40
0
40
0
40
0
40
0
41
1
41
1
41
1
41
1
10
-8.5773547687823637
20
-13.04825414960851
30
0
10
-8.5774958723336248
20
-12.564459820380677
30
0
10
-8.7949472989465072
20
-12.119051084155563
30
0
10
-9.354118964356104
20
-11.457202163434935
30
0
0
SPLINE
5
119
100
AcDbEntity
8
0
100
AcDbSpline
70
4
71
3
72
8
73
4
74
0
42
0.000000001
43
0.0000000001
44
0.0000000001
40
-1
40
-1
40
-1
40
-1
40
0
40
0
40
0
40
0
41
1
41
1
41
1
41
1
10
-9.354118964356104
20
-11.457202163434935
30
0
10
-9.8279302173322058
20
-10.896387907967071
30
0
10
-9.9925401730176411
20
-10.568160244004744
30
0
10
-9.987970588780648
20
-10.193307805959959
30
0
0
SPLINE
5
120
100
AcDbEntity
8
0
100
AcDbSpline
70
4
71
3
72
8
73
4
74
0
42
0.000000001
43
0.0000000001
44
0.0000000001
40
-1
40
-1
40
-1
40
-1
40
0
40
0
40
0
40
0
41
1
41
1
41
1
41
1
10
-9.987970588780648
20
-10.193307805959959
30
0
10
-9.9841680289761481
20
-9.8815318211137502
30
0
10
-9.8451086701883206
20
-9.6261809755930408
30
0
10
-9.5183671160639527
20
-9.3309887283147752
30
0
0
SPLINE
5
121
100
AcDbEntity
8
0
100
AcDbSpline
70
4
71
3
72
8
73
4
74
0
42
0.000000001
43
0.0000000001
44
0.0000000001
40
-1
40
-1
40
-1
40
-1
40
0
40
0
40
0
40
0
41
1
41
1
41
1
41
1
10
-9.5183671160639527
20
-9.3309887283147752
30
0
10
-9.2542610665404634
20
-9.092383979896951
30
0
10
-9.0508476342581901
20
-8.9819017082792953
30
0
10
-8.5503533379346131
20
-8.8052269467060498
30
0
0
LINE
5
122
100
AcDbEntity
8
0
100
AcDbLine
10
-8.5503533379346148
20
-8.8052269467060515
30
0
11
-8.1789000482593188
21
-8.6741035320392399
31
0
0
LINE
5
123
100
AcDbEntity
8
0
100
AcDbLine
10
-8.1789000482593188
20
-8.6741035320392399
30
0
11
-8.5203416979932811
21
-8.7030078256816488
31
0
0
SPLINE
5
124
100
AcDbEntity
8
0
100
AcDbSpline
70
4
71
3
72
8
73
4
74
0
42
0.000000001
43
0.0000000001
44
0.0000000001
40
-1
40
-1
40
-1
40
-1
40
0
40
0
40
0
40
0
41
1
41
1
41
1
41
1
10
-8.5203416979932811
20
-8.7030078256816488
30
0
10
-10.127981492029541
20
-8.8391008441081844
30
0
10
-11.397728933352038
20
-9.1897938215492037
30
0
10
-12.34273197850646
20
-9.7587161041549244
30
0
0
SPLINE
5
125
100
AcDbEntity
8
0
100
AcDbSpline
70
4
71
3
72
8
73
4
74
0
42
0.000000001
43
0.0000000001
44
0.0000000001
40
-1
40
-1
40
-1
40
-1
40
0
40
0
40
0
40
0
41
1
41
1
41
1
41
1
10
-1.3033662463137241
20
-15.996462147489774
30
0
10
-1.3305943754269856
20
-15.52861348620689
30
0
10
-1.4794075703973952
20
-15.273137017800476
30
0
10
-1.909516147026018
20
-14.955809728979073
30
0
0
SPLINE
5
126
100
AcDbEntity
8
0
100
AcDbSpline
70
4
71
3
72
8
73
4
74
0
42
0.000000001
43
0.0000000001
44
0.0000000001
40
-1
40
-1
40
-1
40
-1
40
0
40
0
40
0
40
0
41
1
41
1
41
1
41
1
10
-1.909516147026018
20
-14.955809728979073
30
0
10
-2.1532242873989036
20
-14.776010903513818
30
0
10
-2.3424468236184213
20
-14.701698457543873
30
0
10
-2.9668694547721062
20
-14.540564864291387
30
0
0
SPLINE
5
127
100
AcDbEntity
8
0
100
AcDbSpline
70
4
71
3
72
8
73
4
74
0
42
0.000000001
43
0.0000000001
44
0.0000000001
40
-1
40
-1
40
-1
40
-1
40
0
40
0
40
0
40
0
41
1
41
1
41
1
41
1
10
-2.9668694547721062
20
-14.540564864291387
30
0
10
-3.4178674403180578
20
-14.424183198085835
30
0
10
-3.250121231552531
20
-14.314737563961968
30
0
10
-2.6183132088125314
20
-14.313152883912981
30
0
0
SPLINE
5
128
100
AcDbEntity
8
0
100
AcDbSpline
70
4
71
3
72
8
73
4
74
0
42
0.000000001
43
0.0000000001
44
0.0000000001
40
-1
40
-1
40
-1
40
-1
40
0
40
0
40
0
40
0
41
1
41
1
41
1
41
1
10
-2.6183132088125314
20
-14.313152883912981
30
0
10
-2.2526531784970958
20
-14.312236435072926
30
0
10
-2.051560214873601
20
-14.360795996126443
30
0
10
-1.7122577178420517
20
-14.531944498284178
30
0
0
SPLINE
5
129
100
AcDbEntity
8
0
100
AcDbSpline
70
4
71
3
72
8
73
4
74
0
42
0.000000001
43
0.0000000001
44
0.0000000001
40
-1
40
-1
40
-1
40
-1
40
0
40
0
40
0
40
0
41
1
41
1
41
1
41
1
10
-1.7122577178420517
20
-14.531944498284178
30
0
10
-1.4724036758599013
20
-14.652927361267764
30
0
10
-1.2595967964422283
20
-14.725107947927986
30
0
10
-1.2393481069274181
20
-14.692345666112788
30
0
0
SPLINE
5
130
100
AcDbEntity
8
0
100
AcDbSpline
70
4
71
3
72
8
73
4
74
0
42
0.000000001
43
0.0000000001
44
0.0000000001
40
-1
40
-1
40
-1
40
-1
40
0
40
0
40
0
40
0
41
1
41
1
41
1
41
1
10
-1.2393481069274181
20
-14.692345666112788
30
0
10
-1.2190994174126168
20
-14.659583384297587
30
0
10
-1.1813605555053042
20
-14.430226624893015
30
0
10
-1.1554872300141672
20
-14.182664386129387
30
0
0
SPLINE
5
131
100
AcDbEntity
8
0
100
AcDbSpline
70
4
71
3
72
8
73
4
74
0
42
0.000000001
43
0.0000000001
44
0.0000000001
40
-1
40
-1
40
-1
40
-1
40
0
40
0
40
0
40
0
41
1
41
1
41
1
41
1
10
-1.1554872300141672
20
-14.182664386129387
30
0
10
-1.1101917919473547
20
-13.749311861838763
30
0
10
-1.1177826050215001
20
-13.723419583769873
30
0
10
-1.3592604549550757
20
-13.487329156904069
30
0
0
SPLINE
5
132
100
AcDbEntity
8
0
100
AcDbSpline
70
4
71
3
72
8
73
4
74
0
42
0.000000001
43
0.0000000001
44
0.0000000001
40
-1
40
-1
40
-1
40
-1
40
0
40
0
40
0
40
0
41
1
41
1
41
1
41
1
10
-1.3592604549550757
20
-13.487329156904069
30
0
10
-1.6625310448234387
20
-13.19082524866462
30
0
10
-2.045568754811856
20
-13.000424595757455
30
0
10
-2.4471579815465647
20
-12.946560758428859
30
0
0
SPLINE
5
133
100
AcDbEntity
8
0
100
AcDbSpline
70
4
71
3
72
8
73
4
74
0
42
0.000000001
43
0.0000000001
44
0.0000000001
40
-1
40
-1
40
-1
40
-1
40
0
40
0
40
0
40
0
41
1
41
1
41
1
41
1
10
-2.4471579815465647
20
-12.946560758428859
30
0
10
-2.843239956012261
20
-12.8934354602589
30
0
10
-2.8892054594084291
20
-12.793541313945717
30
0
10
-2.5471053173521261
20
-12.729362383335307
30
0
0
SPLINE
5
134
100
AcDbEntity
8
0
100
AcDbSpline
70
4
71
3
72
8
73
4
74
0
42
0.000000001
43
0.0000000001
44
0.0000000001
40
-1
40
-1
40
-1
40
-1
40
0
40
0
40
0
40
0
41
1
41
1
41
1
41
1
10
-2.5471053173521261
20
-12.729362383335307
30
0
10
-2.1286030547859722
20
-12.65085102433433
30
0
10
-1.6225423285256035
20
-12.733725755831294
30
0
10
-1.2083930451063574
20
-12.948594186608997
30
0
0
LINE
5
135
100
AcDbEntity
8
0
100
AcDbLine
10
-1.2083930451063571
20
-12.948594186608997
30
0
11
-0.83586606791198115
21
-13.141867683478432
31
0
0
LINE
5
136
100
AcDbEntity
8
0
100
AcDbLine
10
-0.83586606791198115
20
-13.141867683478432
30
0
11
-0.71205560260333201
21
-12.82668020182194
31
0
0
SPLINE
5
137
100
AcDbEntity
8
0
100
AcDbSpline
70
4
71
3
72
8
73
4
74
0
42
0.000000001
43
0.0000000001
44
0.0000000001
40
-1
40
-1
40
-1
40
-1
40
0
40
0
40
0
40
0
41
1
41
1
41
1
41
1
10
-0.71205560260333423
20
-12.82668020182194
30
0
10
-0.59118951195360814
20
-12.518992438591718
30
0
10
-0.59286222978309211
20
-12.504517560181316
30
0
10
-0.78224616860019025
20
-12.2183385271993
30
0
0
SPLINE
5
138
100
AcDbEntity
8
0
100
AcDbSpline
70
4
71
3
72
8
73
4
74
0
42
0.000000001
43
0.0000000001
44
0.0000000001
40
-1
40
-1
40
-1
40
-1
40
0
40
0
40
0
40
0
41
1
41
1
41
1
41
1
10
-0.78224616860019025
20
-12.2183385271993
30
0
10
-0.88979899044332789
20
-12.055817116156998
30
0
10
-1.1463704287446974
20
-11.831359903786595
30
0
10
-1.3580279260280859
20
-11.714632200193801
30
0
0
SPLINE
5
139
100
AcDbEntity
8
0
100
AcDbSpline
70
4
71
3
72
8
73
4
74
0
42
0.000000001
43
0.0000000001
44
0.0000000001
40
-1
40
-1
40
-1
40
-1
40
0
40
0
40
0
40
0
41
1
41
1
41
1
41
1
10
-1.3580279260280859
20
-11.714632200193801
30
0
10
-1.5680029235063764
20
-11.59882889329625
30
0
10
-1.7402928599432255
20
-11.478117480135865
30
0
10
-1.7409140153945224
20
-11.446384139880251
30
0
0
SPLINE
5
140
100
AcDbEntity
8
0
100
AcDbSpline
70
4
71
3
72
8
73
4
74
0
42
0.000000001
43
0.0000000001
44
0.0000000001
40
-1
40
-1
40
-1
40
-1
40
0
40
0
40
0
40
0
41
1
41
1
41
1
41
1
10
-1.7409140153945224
20
-11.446384139880251
30
0
10
-1.7435111299192496
20
-11.31103461159146
30
0
10
-1.241368084891098
20
-11.406201618190618
30
0
10
-0.81362674636033083
20
-11.622124056840409
30
0
0
SPLINE
5
141
100
AcDbEntity
8
0
100
AcDbSpline
70
4
71
3
72
8
73
4
74
0
42
0.000000001
43
0.0000000001
44
0.0000000001
40
-1
40
-1
40
-1
40
-1
40
0
40
0
40
0
40
0
41
1
41
1
41
1
41
1
10
-0.81362674636033083
20
-11.622124056840409
30
0
10
-0.55929048948608062
20
-11.750514320855441
30
0
10
-0.3245817666753259
20
-11.839113342205279
30
0
10
-0.29205669776870002
20
-11.819011382324639
30
0
0
SPLINE
5
142
100
AcDbEntity
8
0
100
AcDbSpline
70
4
71
3
72
8
73
4
74
0
42
0.000000001
43
0.0000000001
44
0.0000000001
40
-1
40
-1
40
-1
40
-1
40
0
40
0
40
0
40
0
41
1
41
1
41
1
41
1
10
-0.29205669776870002
20
-11.819011382324639
30
0
10
-0.25952673787425495
20
-11.798909422443998
30
0
10
-0.014938219696384314
20
-11.434229423810084
30
0
10
0.25147388606966969
20
-11.008610773986916
30
0
0
SPLINE
5
143
100
AcDbEntity
8
0
100
AcDbSpline
70
4
71
3
72
8
73
4
74
0
42
0.000000001
43
0.0000000001
44
0.0000000001
40
-1
40
-1
40
-1
40
-1
40
0
40
0
40
0
40
0
41
1
41
1
41
1
41
1
10
0.25147388606966969
20
-11.008610773986916
30
0
10
0.51789088282353624
20
-10.582992124163745
30
0
10
0.76425482957480861
20
-10.234758683399345
30
0
10
0.79895638805489222
20
-10.234758683399345
30
0
0
SPLINE
5
144
100
AcDbEntity
8
0
100
AcDbSpline
70
4
71
3
72
8
73
4
74
0
42
0.000000001
43
0.0000000001
44
0.0000000001
40
-1
40
-1
40
-1
40
-1
40
0
40
0
40
0
40
0
41
1
41
1
41
1
41
1
10
0.79895638805489222
20
-10.234758683399345
30
0
10
0.83365305554717439
20
-10.234758683399345
30
0
10
0.73096676657051995
20
-10.537665200362936
30
0
10
0.57075757001327831
20
-10.907883936999848
30
0
0
SPLINE
5
145
100
AcDbEntity
8
0
100
AcDbSpline
70
4
71
3
72
8
73
4
74
0
42
0.000000001
43
0.0000000001
44
0.0000000001
40
-1
40
-1
40
-1
40
-1
40
0
40
0
40
0
40
0
41
1
41
1
41
1
41
1
10
0.57075757001327831
20
-10.907883936999848
30
0
10
0.11283394573472827
20
-11.966073603660675
30
0
10
0.11573919249120324
20
-11.93174192613338
30
0
10
0.49521137236938961
20
-11.801003376598231
30
0
0
SPLINE
5
146
100
AcDbEntity
8
0
100
AcDbSpline
70
4
71
3
72
8
73
4
74
0
42
0.000000001
43
0.0000000001
44
0.0000000001
40
-1
40
-1
40
-1
40
-1
40
0
40
0
40
0
40
0
41
1
41
1
41
1
41
1
10
0.49521137236938961
20
-11.801003376598231
30
0
10
1.0077673304354762
20
-11.624412427759911
30
0
10
1.4280596945384461
20
-11.595509746696738
30
0
10
1.9168014329795113
20
-11.703242312341725
30
0
0
LINE
5
147
100
AcDbEntity
8
0
100
AcDbLine
10
1.9168014329795113
20
-11.703242312341725
30
0
11
2.3736539309286608
21
-11.803945917136719
31
0
0
LINE
5
148
100
AcDbEntity
8
0
100
AcDbLine
10
2.3736539309286608
20
-11.803945917136719
30
0
11
1.8351561735421584
21
-11.858942018142287
31
0
0
SPLINE
5
149
100
AcDbEntity
8
0
100
AcDbSpline
70
4
71
3
72
8
73
4
74
0
42
0.000000001
43
0.0000000001
44
0.0000000001
40
-1
40
-1
40
-1
40
-1
40
0
40
0
40
0
40
0
41
1
41
1
41
1
41
1
10
1.8351561735421584
20
-11.858942018142287
30
0
10
0.83038587569309152
20
-11.961557387795757
30
0
10
-0.065452341751676135
20
-12.424567028018568
30
0
10
-0.19966104713482702
20
-12.910627893768735
30
0
0
SPLINE
5
150
100
AcDbEntity
8
0
100
AcDbSpline
70
4
71
3
72
8
73
4
74
0
42
0.000000001
43
0.0000000001
44
0.0000000001
40
-1
40
-1
40
-1
40
-1
40
0
40
0
40
0
40
0
41
1
41
1
41
1
41
1
10
-0.19966104713482702
20
-12.910627893768735
30
0
10
-0.24176267016464914
20
-13.063104438605466
30
0
10
-0.2681691133265951
20
-13.195898425765884
30
0
10
-0.25834311882532157
20
-13.205725643014102
30
0
0
SPLINE
5
151
100
AcDbEntity
8
0
100
AcDbSpline
70
4
71
3
72
8
73
4
74
0
42
0.000000001
43
0.0000000001
44
0.0000000001
40
-1
40
-1
40
-1
40
-1
40
0
40
0
40
0
40
0
41
1
41
1
41
1
41
1
10
-0.25834311882532157
20
-13.205725643014102
30
0
10
-0.24851712432405693
20
-13.215552860262322
30
0
10
-0.03308867544262073
20
-13.153291808245148
30
0
10
0.22037698560225305
20
-13.067367545851447
30
0
0
SPLINE
5
152
100
AcDbEntity
8
0
100
AcDbSpline
70
4
71
3
72
8
73
4
74
0
42
0.000000001
43
0.0000000001
44
0.0000000001
40
-1
40
-1
40
-1
40
-1
40
0
40
0
40
0
40
0
41
1
41
1
41
1
41
1
10
0.22037698560225305
20
-13.067367545851447
30
0
10
0.90970302493503019
20
-12.833689598720708
30
0
10
1.7506154493239412
20
-12.892627224524038
30
0
10
2.4144398782387908
20
-13.221144482070965
30
0
0
SPLINE
5
153
100
AcDbEntity
8
0
100
AcDbSpline
70
4
71
3
72
8
73
4
74
0
42
0.000000001
43
0.0000000001
44
0.0000000001
40
-1
40
-1
40
-1
40
-1
40
0
40
0
40
0
40
0
41
1
41
1
41
1
41
1
10
2.4144398782387908
20
-13.221144482070965
30
0
10
2.793364267482775
20
-13.408666177281122
30
0
10
2.8478938905263904
20
-13.453564833962217
30
0
10
2.6429028096219129
20
-13.409251261697356
30
0
0
SPLINE
5
154
100
AcDbEntity
8
0
100
AcDbSpline
70
4
71
3
72
8
73
4
74
0
42
0.000000001
43
0.0000000001
44
0.0000000001
40
-1
40
-1
40
-1
40
-1
40
0
40
0
40
0
40
0
41
1
41
1
41
1
41
1
10
2.6429028096219129
20
-13.409251261697356
30
0
10
2.4948134808467168
20
-13.377237912389875
30
0
10
2.0101654991988669
20
-13.350886492840745
30
0
10
1.5659024038611002
20
-13.350706137665417
30
0
0
SPLINE
5
155
100
AcDbEntity
8
0
100
AcDbSpline
70
4
71
3
72
8
73
4
74
0
42
0.000000001
43
0.0000000001
44
0.0000000001
40
-1
40
-1
40
-1
40
-1
40
0
40
0
40
0
40
0
41
1
41
1
41
1
41
1
10
1.5659024038611002
20
-13.350706137665417
30
0
10
0.79432462260308312
20
-13.350381498349828
30
0
10
0.73173954264379559
20
-13.362980071563342
30
0
10
0.16830752942481153
20
-13.632041258599557
30
0
0
SPLINE
5
156
100
AcDbEntity
8
0
100
AcDbSpline
70
4
71
3
72
8
73
4
74
0
42
0.000000001
43
0.0000000001
44
0.0000000001
40
-1
40
-1
40
-1
40
-1
40
0
40
0
40
0
40
0
41
1
41
1
41
1
41
1
10
0.16830752942481153
20
-13.632041258599557
30
0
10
-0.15611169171458217
20
-13.786962074592088
30
0
10
-0.45502930243604967
20
-13.977360282005355
30
0
10
-0.49596197938035269
20
-14.055148386184591
30
0
0
SPLINE
5
157
100
AcDbEntity
8
0
100
AcDbSpline
70
4
71
3
72
8
73
4
74
0
42
0.000000001
43
0.0000000001
44
0.0000000001
40
-1
40
-1
40
-1
40
-1
40
0
40
0
40
0
40
0
41
1
41
1
41
1
41
1
10
-0.49596197938035269
20
-14.055148386184591
30
0
10
-0.53689465632465572
20
-14.13293649036383
30
0
10
-0.5956452018444236
20
-14.383550705518095
30
0
10
-0.62652200786059931
20
-14.612069883260974
30
0
0
SPLINE
5
158
100
AcDbEntity
8
0
100
AcDbSpline
70
4
71
3
72
8
73
4
74
0
42
0.000000001
43
0.0000000001
44
0.0000000001
40
-1
40
-1
40
-1
40
-1
40
0
40
0
40
0
40
0
41
1
41
1
41
1
41
1
10
-0.62652200786059931
20
-14.612069883260974
30
0
10
-0.67867950181854875
20
-14.99811310525587
30
0
10
-0.67249240224457774
20
-15.023354270573146
30
0
10
-0.53921787553227185
20
-14.968233449378541
30
0
0
SPLINE
5
159
100
AcDbEntity
8
0
100
AcDbSpline
70
4
71
3
72
8
73
4
74
0
42
0.000000001
43
0.0000000001
44
0.0000000001
40
-1
40
-1
40
-1
40
-1
40
0
40
0
40
0
40
0
41
1
41
1
41
1
41
1
10
-0.53921787553227185
20
-14.968233449378541
30
0
10
0.44176265763079758
20
-14.562516228935987
30
0
10
1.631045470442668
20
-14.528125859555027
30
0
10
2.4505793871336943
20
-14.881777292060992
30
0
0
SPLINE
5
160
100
AcDbEntity
8
0
100
AcDbSpline
70
4
71
3
72
8
73
4
74
0
42
0.000000001
43
0.0000000001
44
0.0000000001
40
-1
40
-1
40
-1
40
-1
40
0
40
0
40
0
40
0
41
1
41
1
41
1
41
1
10
2.4505793871336943
20
-14.881777292060992
30
0
10
2.6543819580014381
20
-14.969723977912269
30
0
10
2.5946483239327653
20
-14.977039061548883
30
0
10
1.9397059288727114
20
-14.944342808069056
30
0
0
SPLINE
5
161
100
AcDbEntity
8
0
100
AcDbSpline
70
4
71
3
72
8
73
4
74
0
42
0.000000001
43
0.0000000001
44
0.0000000001
40
-1
40
-1
40
-1
40
-1
40
0
40
0
40
0
40
0
41
1
41
1
41
1
41
1
10
1.9397059288727114
20
-14.944342808069056
30
0
10
1.0391283442444033
20
-14.899383625413869
30
0
10
0.38653362333099128
20
-15.068090913283186
30
0
10
-0.3297270858467205
20
-15.531032691050191
30
0
0
SPLINE
5
162
100
AcDbEntity
8
0
100
AcDbSpline
70
4
71
3
72
8
73
4
74
0
42
0.000000001
43
0.0000000001
44
0.0000000001
40
-1
40
-1
40
-1
40
-1
40
0
40
0
40
0
40
0
41
1
41
1
41
1
41
1
10
-0.3297270858467205
20
-15.531032691050191
30
0
10
-0.83748498487560719
20
-15.859215527305917
30
0
10
-0.89308084326082282
20
-15.983346963689302
30
0
10
-0.89496387356594598
20
-16.792921606461363
30
0
0
SPLINE
5
163
100
AcDbEntity
8
0
100
AcDbSpline
70
4
71
3
72
8
73
4
74
0
42
0.000000001
43
0.0000000001
44
0.0000000001
40
-1
40
-1
40
-1
40
-1
40
0
40
0
40
0
40
0
41
1
41
1
41
1
41
1
10
-0.89496387356594598
20
-16.792921606461363
30
0
10
-0.89543340839527419
20
-16.993898409124476
30
0
10
-0.92764545408235088
20
-17.15833341914567
30
0
10
-0.96655815306297521
20
-17.15833341914567
30
0
0
SPLINE
5
164
100
AcDbEntity
8
0
100
AcDbSpline
70
4
71
3
72
8
73
4
74
0
42
0.000000001
43
0.0000000001
44
0.0000000001
40
-1
40
-1
40
-1
40
-1
40
0
40
0
40
0
40
0
41
1
41
1
41
1
41
1
10
-0.96655815306297521
20
-17.15833341914567
30
0
10
-1.0769917667235629
20
-17.15833341914567
30
0
10
-1.2756245634808772
20
-16.473107250340863
30
0
10
-1.3033662463137241
20
-15.996462147489774
30
0
0
SPLINE
5
165
100
AcDbEntity
8
0
100
AcDbSpline
70
4
71
3
72
8
73
4
74
0
42
0.000000001
43
0.0000000001
44
0.0000000001
40
-1
40
-1
40
-1
40
-1
40
0
40
0
40
0
40
0
41
1
41
1
41
1
41
1
10
4.0262844734953944
20
-15.09069767029372
30
0
10
4.2423829877061863
20
-14.312717585998291
30
0
10
4.0173095108722894
20
-13.204354943681606
30
0
10
3.3688232197155092
20
-11.853070387281772
30
0
0
SPLINE
5
166
100
AcDbEntity
8
0
100
AcDbSpline
70
4
71
3
72
8
73
4
74
0
42
0.000000001
43
0.0000000001
44
0.0000000001
40
-1
40
-1
40
-1
40
-1
40
0
40
0
40
0
40
0
41
1
41
1
41
1
41
1
10
3.3688232197155092
20
-11.853070387281772
30
0
10
2.9025995891310075
20
-10.881580204581823
30
0
10
1.6888814012428122
20
-9.0039027799273796
30
0
10
1.5271364345146332
20
-9.0039027799273796
30
0
0
SPLINE
5
167
100
AcDbEntity
8
0
100
AcDbSpline
70
4
71
3
72
8
73
4
74
0
42
0.000000001
43
0.0000000001
44
0.0000000001
40
-1
40
-1
40
-1
40
-1
40
0
40
0
40
0
40
0
41
1
41
1
41
1
41
1
10
1.5271364345146332
20
-9.0039027799273796
30
0
10
1.3918712757654927
20
-9.0039027799273796
30
0
10
0.37626743992722367
20
-9.4418873753565649
30
0
10
-0.43362633979914356
20
-9.84949068297162
30
0
0
SPLINE
5
168
100
AcDbEntity
8
0
100
AcDbSpline
70
4
71
3
72
8
73
4
74
0
42
0.000000001
43
0.0000000001
44
0.0000000001
40
-1
40
-1
40
-1
40
-1
40
0
40
0
40
0
40
0
41
1
41
1
41
1
41
1
10
-0.43362633979914356
20
-9.84949068297162
30
0
10
-2.0114052049903739
20
-10.643553863605245
30
0
10
-3.2679244271645826
20
-11.750030724436172
30
0
10
-3.7836986552066856
20
-12.799519935164474
30
0
0
SPLINE
5
169
100
AcDbEntity
8
0
100
AcDbSpline
70
4
71
3
72
8
73
4
74
0
42
0.000000001
43
0.0000000001
44
0.0000000001
40
-1
40
-1
40
-1
40
-1
40
0
40
0
40
0
40
0
41
1
41
1
41
1
41
1
10
-3.7836986552066856
20
-12.799519935164474
30
0
10
-4.0431068664352567
20
-13.327364509737105
30
0
10
-4.0840786712820067
20
-13.48621767992527
30
0
10
-4.1121284863465926
20
-14.072861098522242
30
0
0
SPLINE
5
170
100
AcDbEntity
8
0
100
AcDbSpline
70
4
71
3
72
8
73
4
74
0
42
0.000000001
43
0.0000000001
44
0.0000000001
40
-1
40
-1
40
-1
40
-1
40
0
40
0
40
0
40
0
41
1
41
1
41
1
41
1
10
-4.1121284863465926
20
-14.072861098522242
30
0
10
-4.139253904715944
20
-14.640239527526798
30
0
10
-4.1180123446766261
20
-14.80392927328114
30
0
10
-3.9737575503409497
20
-15.139268847443276
30
0
0
SPLINE
5
171
100
AcDbEntity
8
0
100
AcDbSpline
70
4
71
3
72
8
73
4
74
0
42
0.000000001
43
0.0000000001
44
0.0000000001
40
-1
40
-1
40
-1
40
-1
40
0
40
0
40
0
40
0
41
1
41
1
41
1
41
1
10
-3.9737575503409497
20
-15.139268847443276
30
0
10
-3.6864511446697614
20
-15.807129564044633
30
0
10
-2.8571205794042962
20
-16.476658107487662
30
0
10
-1.955740872775884
20
-16.768438544253939
30
0
0
SPLINE
5
172
100
AcDbEntity
8
0
100
AcDbSpline
70
4
71
3
72
8
73
4
74
0
42
0.000000001
43
0.0000000001
44
0.0000000001
40
-1
40
-1
40
-1
40
-1
40
0
40
0
40
0
40
0
41
1
41
1
41
1
41
1
10
-1.955740872775884
20
-16.768438544253939
30
0
10
-1.7213989740505475
20
-16.844296542370426
30
0
10
-1.6551505442249326
20
-16.912531935992032
30
0
10
-1.590760689765407
20
-17.144351307756672
30
0
0
SPLINE
5
173
100
AcDbEntity
8
0
100
AcDbSpline
70
4
71
3
72
8
73
4
74
0
42
0.000000001
43
0.0000000001
44
0.0000000001
40
-1
40
-1
40
-1
40
-1
40
0
40
0
40
0
40
0
41
1
41
1
41
1
41
1
10
-1.590760689765407
20
-17.144351307756672
30
0
10
-1.5474950116378761
20
-17.300129269362124
30
0
10
-1.511697871889357
20
-17.462200709526311
30
0
10
-1.5112381190356405
20
-17.504511422284818
30
0
0
SPLINE
5
174
100
AcDbEntity
8
0
100
AcDbSpline
70
4
71
3
72
8
73
4
74
0
42
0.000000001
43
0.0000000001
44
0.0000000001
40
-1
40
-1
40
-1
40
-1
40
0
40
0
40
0
40
0
41
1
41
1
41
1
41
1
10
-1.5112381190356405
20
-17.504511422284818
30
0
10
-1.5107685842063123
20
-17.546822135043321
30
0
10
-1.4753284865675997
20
-17.70762680936588
30
0
10
-1.4324932153669523
20
-17.861854327836987
30
0
0
SPLINE
5
175
100
AcDbEntity
8
0
100
AcDbSpline
70
4
71
3
72
8
73
4
74
0
42
0.000000001
43
0.0000000001
44
0.0000000001
40
-1
40
-1
40
-1
40
-1
40
0
40
0
40
0
40
0
41
1
41
1
41
1
41
1
10
-1.4324932153669523
20
-17.861854327836987
30
0
10
-1.3617988776261325
20
-18.116365437525289
30
0
10
-1.3209786934013601
20
-18.149278117215509
30
0
10
-0.99058268516363457
20
-18.21817012595
30
0
0
SPLINE
5
176
100
AcDbEntity
8
0
100
AcDbSpline
70
4
71
3
72
8
73
4
74
0
42
0.000000001
43
0.0000000001
44
0.0000000001
40
-1
40
-1
40
-1
40
-1
40
0
40
0
40
0
40
0
41
1
41
1
41
1
41
1
10
-0.99057290318802282
20
-18.218171348696952
30
0
10
-0.79036031736953172
20
-18.259918375110871
30
0
10
-0.5262225209330329
20
-18.298168345243852
30
0
10
-0.40359567467332491
20
-18.303168157528034
30
0
0
LINE
5
177
100
AcDbEntity
8
0
100
AcDbLine
10
-0.40359567467332491
20
-18.303168157528034
30
0
11
-0.1806399955592064
21
-18.312262949352377
31
0
0
LINE
5
178
100
AcDbEntity
8
0
100
AcDbLine
10
-0.1806399955592064
20
-18.312262949352377
30
0
11
-0.22770108022380997
21
-17.70201929184687
31
0
0
LINE
5
179
100
AcDbEntity
8
0
100
AcDbLine
10
-0.22770108022380997
20
-17.70201929184687
30
0
11
-0.27476216488841354
21
-17.091774411594407
31
0
0
LINE
5
180
100
AcDbEntity
8
0
100
AcDbLine
10
-0.27476216488841354
20
-17.091774411594407
30
0
11
0.16477134524142789
21
-17.041260289539114
31
0
0
SPLINE
5
181
100
AcDbEntity
8
0
100
AcDbSpline
70
4
71
3
72
8
73
4
74
0
42
0.000000001
43
0.0000000001
44
0.0000000001
40
-1
40
-1
40
-1
40
-1
40
0
40
0
40
0
40
0
41
1
41
1
41
1
41
1
10
0.16477134524142789
20
-17.041260289539114
30
0
10
2.2937302991988426
20
-16.796588624568546
30
0
10
3.757871953716883
20
-16.057007685534163
30
0
10
4.0262844734953944
20
-15.09069767029372
30
0
0
LINE
5
182
100
AcDbEntity
8
0
100
AcDbLine
10
9.9883631434587716
20
-13.277845889336817
30
0
11
10.027595357769057
21
-13.401454409261543
31
0
0
LINE
5
183
100
AcDbEntity
8
0
100
AcDbLine
10
10.027595357769057
20
-13.401454409261543
30
0
11
10.133994671499575
21
-13.270057154209187
31
0
0
SPLINE
5
184
100
AcDbEntity
8
0
100
AcDbSpline
70
4
71
3
72
8
73
4
74
0
42
0.000000001
43
0.0000000001
44
0.0000000001
40
-1
40
-1
40
-1
40
-1
40
0
40
0
40
0
40
0
41
1
41
1
41
1
41
1
10
10.133994671499575
20
-13.270057154209187
30
0
10
10.290080525472929
20
-13.07729930132199
30
0
10
10.265040072183723
20
-12.907001787108792
30
0
10
10.041219086545317
20
-12.639106745429967
30
0
0
SPLINE
5
185
100
AcDbEntity
8
0
100
AcDbSpline
70
4
71
3
72
8
73
4
74
0
42
0.000000001
43
0.0000000001
44
0.0000000001
40
-1
40
-1
40
-1
40
-1
40
0
40
0
40
0
40
0
41
1
41
1
41
1
41
1
10
10.041219086545317
20
-12.639106745429967
30
0
10
9.9316738872296284
20
-12.507989436205271
30
0
10
9.842045996880433
20
-12.376253894433864
30
0
10
9.842045996880433
20
-12.346362554315089
30
0
0
SPLINE
5
186
100
AcDbEntity
8
0
100
AcDbSpline
70
4
71
3
72
8
73
4
74
0
42
0.000000001
43
0.0000000001
44
0.0000000001
40
-1
40
-1
40
-1
40
-1
40
0
40
0
40
0
40
0
41
1
41
1
41
1
41
1
10
9.842045996880433
20
-12.346362554315089
30
0
10
9.842045996880433
20
-12.104265945258522
30
0
10
10.339591590786625
20
-11.664533461186863
30
0
10
10.704101862131914
20
-11.584488853694159
30
0
0
SPLINE
5
187
100
AcDbEntity
8
0
100
AcDbSpline
70
4
71
3
72
8
73
4
74
0
42
0.000000001
43
0.0000000001
44
0.0000000001
40
-1
40
-1
40
-1
40
-1
40
0
40
0
40
0
40
0
41
1
41
1
41
1
41
1
10
10.704101862131914
20
-11.584488853694159
30
0
10
10.930900494505913
20
-11.534675229804193
30
0
10
10.955796226204075
20
-11.574090155123162
30
0
10
10.819276731338947
20
-11.76681906369215
30
0
0
SPLINE
5
188
100
AcDbEntity
8
0
100
AcDbSpline
70
4
71
3
72
8
73
4
74
0
42
0.000000001
43
0.0000000001
44
0.0000000001
40
-1
40
-1
40
-1
40
-1
40
0
40
0
40
0
40
0
41
1
41
1
41
1
41
1
10
10.819276731338947
20
-11.76681906369215
30
0
10
10.622610943238779
20
-12.044455225212696
30
0
10
10.61753845147293
20
-12.155870046582598
30
0
10
10.794760893817257
20
-12.305368354633925
30
0
0
SPLINE
5
189
100
AcDbEntity
8
0
100
AcDbSpline
70
4
71
3
72
8
73
4
74
0
42
0.000000001
43
0.0000000001
44
0.0000000001
40
-1
40
-1
40
-1
40
-1
40
0
40
0
40
0
40
0
41
1
41
1
41
1
41
1
10
10.794760893817257
20
-12.305368354633925
30
0
10
11.040979354688547
20
-12.51306961630565
30
0
10
11.150792288947656
20
-12.702544550351158
30
0
10
11.152170762102287
20
-12.922091726504249
30
0
0
SPLINE
5
190
100
AcDbEntity
8
0
100
AcDbSpline
70
4
71
3
72
8
73
4
74
0
42
0.000000001
43
0.0000000001
44
0.0000000001
40
-1
40
-1
40
-1
40
-1
40
0
40
0
40
0
40
0
41
1
41
1
41
1
41
1
10
11.152170762102287
20
-12.922091726504249
30
0
10
11.15342803092442
20
-13.121743754184472
30
0
10
11.153967118851034
20
-13.122166160328312
30
0
10
11.251757306934728
20
-13.000118824566904
30
0
0
SPLINE
5
191
100
AcDbEntity
8
0
100
AcDbSpline
70
4
71
3
72
8
73
4
74
0
42
0.000000001
43
0.0000000001
44
0.0000000001
40
-1
40
-1
40
-1
40
-1
40
0
40
0
40
0
40
0
41
1
41
1
41
1
41
1
10
11.251757306934728
20
-13.000118824566904
30
0
10
11.396258197545549
20
-12.819772657131034
30
0
10
11.725009572765446
20
-12.639562618441733
30
0
10
11.909978238270039
20
-12.639334229680879
30
0
0
LINE
5
192
100
AcDbEntity
8
0
100
AcDbLine
10
11.909978238270039
20
-12.639334229680879
30
0
11
12.071530950344815
21
-12.639105840920021
31
0
0
LINE
5
193
100
AcDbEntity
8
0
100
AcDbLine
10
12.071530950344815
20
-12.639105840920021
30
0
11
11.924204370668988
21
-12.814192735286607
31
0
0
SPLINE
5
194
100
AcDbEntity
8
0
100
AcDbSpline
70
4
71
3
72
8
73
4
74
0
42
0.000000001
43
0.0000000001
44
0.0000000001
40
-1
40
-1
40
-1
40
-1
40
0
40
0
40
0
40
0
41
1
41
1
41
1
41
1
10
11.924204370668988
20
-12.814192735286607
30
0
10
11.715608096407696
20
-13.062097202693481
30
0
10
11.705918985887758
20
-13.358145568633727
30
0
10
11.894315744080043
20
-13.72743617503296
30
0
0
SPLINE
5
195
100
AcDbEntity
8
0
100
AcDbSpline
70
4
71
3
72
8
73
4
74
0
42
0.000000001
43
0.0000000001
44
0.0000000001
40
-1
40
-1
40
-1
40
-1
40
0
40
0
40
0
40
0
41
1
41
1
41
1
41
1
10
11.894315744080043
20
-13.72743617503296
30
0
10
12.110108299455661
20
-14.150423014256699
30
0
10
12.002124284303285
20
-14.404191419630411
30
0
10
11.520022293180642
20
-14.607056718886632
30
0
0
SPLINE
5
196
100
AcDbEntity
8
0
100
AcDbSpline
70
4
71
3
72
8
73
4
74
0
42
0.000000001
43
0.0000000001
44
0.0000000001
40
-1
40
-1
40
-1
40
-1
40
0
40
0
40
0
40
0
41
1
41
1
41
1
41
1
10
11.520020484160751
20
-14.607058527906528
30
0
10
11.192761550348429
20
-14.744766548838047
30
0
10
10.404151892548303
20
-14.766811265192779
30
0
10
10.019523511028963
20
-14.649003367538814
30
0
0
SPLINE
5
197
100
AcDbEntity
8
0
100
AcDbSpline
70
4
71
3
72
8
73
4
74
0
42
0.000000001
43
0.0000000001
44
0.0000000001
40
-1
40
-1
40
-1
40
-1
40
0
40
0
40
0
40
0
41
1
41
1
41
1
41
1
10
10.019523511028963
20
-14.649003367538814
30
0
10
9.6460567822183574
20
-14.534615421983045
30
0
10
9.3298835222794807
20
-14.243503419062083
30
0
10
9.3298835222794807
20
-14.014031055293671
30
0
0
SPLINE
5
198
100
AcDbEntity
8
0
100
AcDbSpline
70
4
71
3
72
8
73
4
74
0
42
0.000000001
43
0.0000000001
44
0.0000000001
40
-1
40
-1
40
-1
40
-1
40
0
40
0
40
0
40
0
41
1
41
1
41
1
41
1
10
9.3298835222794807
20
-14.014031055293671
30
0
10
9.3298835222794807
20
-13.92725779832768
30
0
10
9.3939029270946541
20
-13.769488651348581
30
0
10
9.4721502733286691
20
-13.663430337866945
30
0
0
SPLINE
5
199
100
AcDbEntity
8
0
100
AcDbSpline
70
4
71
3
72
8
73
4
74
0
42
0.000000001
43
0.0000000001
44
0.0000000001
40
-1
40
-1
40
-1
40
-1
40
0
40
0
40
0
40
0
41
1
41
1
41
1
41
1
10
9.4721502733286691
20
-13.663430337866945
30
0
10
9.5503976195626841
20
-13.557372928895255
30
0
10
9.6144170243778593
20
-13.423193401255213
30
0
10
9.6144170243778593
20
-13.365254112283482
30
0
0
SPLINE
5
200
100
AcDbEntity
8
0
100
AcDbSpline
70
4
71
3
72
8
73
4
74
0
42
0.000000001
43
0.0000000001
44
0.0000000001
40
-1
40
-1
40
-1
40
-1
40
0
40
0
40
0
40
0
41
1
41
1
41
1
41
1
10
9.6144170243778593
20
-13.365254112283482
30
0
10
9.6144170243778593
20
-13.307313918801814
30
0
10
9.5503976195626841
20
-13.19588914782253
30
0
10
9.4721502733286691
20
-13.117641801588515
30
0
0
SPLINE
5
201
100
AcDbEntity
8
0
100
AcDbSpline
70
4
71
3
72
8
73
4
74
0
42
0.000000001
43
0.0000000001
44
0.0000000001
40
-1
40
-1
40
-1
40
-1
40
0
40
0
40
0
40
0
41
1
41
1
41
1
41
1
10
9.4721502733286691
20
-13.117641801588515
30
0
10
9.2924549007974946
20
-12.937946429057341
30
0
10
9.2939871406426011
20
-12.923641152038288
30
0
10
9.4929286757618314
20
-12.923641152038288
30
0
0
SPLINE
5
202
100
AcDbEntity
8
0
100
AcDbSpline
70
4
71
3
72
8
73
4
74
0
42
0.000000001
43
0.0000000001
44
0.0000000001
40
-1
40
-1
40
-1
40
-1
40
0
40
0
40
0
40
0
41
1
41
1
41
1
41
1
10
9.4929286757618314
20
-12.923641152038288
30
0
10
9.6836952500073448
20
-12.923641152038288
30
0
10
9.932368550866606
20
-13.10142846084263
30
0
10
9.9883631434587716
20
-13.277845889336817
30
0
0
SPLINE
5
203
100
AcDbEntity
8
0
100
AcDbSpline
70
4
71
3
72
8
73
4
74
0
42
0.000000001
43
0.0000000001
44
0.0000000001
40
-1
40
-1
40
-1
40
-1
40
0
40
0
40
0
40
0
41
1
41
1
41
1
41
1
10
8.6100853629777454
20
-10.903860949771547
30
0
10
8.4261026133121
20
-10.508768744965247
30
0
10
8.4330944751790824
20
-10.388034305387524
30
0
10
8.6760313739736006
20
-9.7653095100388789
30
0
0
SPLINE
5
204
100
AcDbEntity
8
0
100
AcDbSpline
70
4
71
3
72
8
73
4
74
0
42
0.000000001
43
0.0000000001
44
0.0000000001
40
-1
40
-1
40
-1
40
-1
40
0
40
0
40
0
40
0
41
1
41
1
41
1
41
1
10
8.6760313739736006
20
-9.7653095100388789
30
0
10
8.7557349812174259
20
-9.5610051354617767
30
0
10
8.2097492617712078
20
-10.135360357046036
30
0
10
8.0563697015502544
20
-10.417171284213026
30
0
0
SPLINE
5
205
100
AcDbEntity
8
0
100
AcDbSpline
70
4
71
3
72
8
73
4
74
0
42
0.000000001
43
0.0000000001
44
0.0000000001
40
-1
40
-1
40
-1
40
-1
40
0
40
0
40
0
40
0
41
1
41
1
41
1
41
1
10
8.0563697015502544
20
-10.417171284213026
30
0
10
7.9757814835812146
20
-10.565235039493196
30
0
10
7.8820652082852138
20
-10.815929920077259
30
0
10
7.8481062869483464
20
-10.974272074105876
30
0
0
SPLINE
5
206
100
AcDbEntity
8
0
100
AcDbSpline
70
4
71
3
72
8
73
4
74
0
42
0.000000001
43
0.0000000001
44
0.0000000001
40
-1
40
-1
40
-1
40
-1
40
0
40
0
40
0
40
0
41
1
41
1
41
1
41
1
10
7.8481062869483464
20
-10.974272074105876
30
0
10
7.7393244940253769
20
-11.481509039806861
30
0
10
7.943351184049674
20
-12.206605366105476
30
0
10
8.342088111675249
20
-12.729837233400879
30
0
0
SPLINE
5
207
100
AcDbEntity
8
0
100
AcDbSpline
70
4
71
3
72
8
73
4
74
0
42
0.000000001
43
0.0000000001
44
0.0000000001
40
-1
40
-1
40
-1
40
-1
40
0
40
0
40
0
40
0
41
1
41
1
41
1
41
1
10
8.342088111675249
20
-12.729837233400879
30
0
10
8.4158925050644271
20
-12.826688087907749
30
0
10
8.4762812069644546
20
-12.933462321010047
30
0
10
8.4762812069644546
20
-12.967113708965963
30
0
0
SPLINE
5
208
100
AcDbEntity
8
0
100
AcDbSpline
70
4
71
3
72
8
73
4
74
0
42
0.000000001
43
0.0000000001
44
0.0000000001
40
-1
40
-1
40
-1
40
-1
40
0
40
0
40
0
40
0
41
1
41
1
41
1
41
1
10
8.4762812069644546
20
-12.967113708965963
30
0
10
8.4762812069644546
20
-13.066264280005409
30
0
10
8.0679456198133401
20
-12.879448152940235
30
0
10
7.736744831665141
20
-12.628771814810023
30
0
0
LINE
5
209
100
AcDbEntity
8
0
100
AcDbLine
10
7.7367448316651419
20
-12.628771814810024
30
0
11
7.4372688252921693
21
-12.402106597652764
31
0
0
LINE
5
210
100
AcDbEntity
8
0
100
AcDbLine
10
7.4372688252921693
20
-12.402106597652764
30
0
11
7.4752039723427854
21
-12.563286199375652
31
0
0
SPLINE
5
211
100
AcDbEntity
8
0
100
AcDbSpline
70
4
71
3
72
8
73
4
74
0
42
0.000000001
43
0.0000000001
44
0.0000000001
40
-1
40
-1
40
-1
40
-1
40
0
40
0
40
0
40
0
41
1
41
1
41
1
41
1
10
7.4752039723427854
20
-12.563286199375652
30
0
10
7.6231329556413074
20
-13.191817948564664
30
0
10
8.3209949397815883
20
-14.075412004602249
30
0
10
8.9161317295837961
20
-14.387704916881447
30
0
0
SPLINE
5
212
100
AcDbEntity
8
0
100
AcDbSpline
70
4
71
3
72
8
73
4
74
0
42
0.000000001
43
0.0000000001
44
0.0000000001
40
-1
40
-1
40
-1
40
-1
40
0
40
0
40
0
40
0
41
1
41
1
41
1
41
1
10
8.9161317295837961
20
-14.387704916881447
30
0
10
9.2404618601975095
20
-14.557894794411311
30
0
10
9.6791781273471003
20
-14.715936198883558
30
0
10
9.9558604831317155
20
-14.762251630565167
30
0
0
SPLINE
5
213
100
AcDbEntity
8
0
100
AcDbSpline
70
4
71
3
72
8
73
4
74
0
42
0.000000001
43
0.0000000001
44
0.0000000001
40
-1
40
-1
40
-1
40
-1
40
0
40
0
40
0
40
0
41
1
41
1
41
1
41
1
10
9.9558604831317155
20
-14.762251630565167
30
0
10
10.309165685290953
20
-14.821393013252443
30
0
10
11.26364075857877
20
-14.793430088334233
30
0
10
11.6002921236494
20
-14.714074717418839
30
0
0
SPLINE
5
214
100
AcDbEntity
8
0
100
AcDbSpline
70
4
71
3
72
8
73
4
74
0
42
0.000000001
43
0.0000000001
44
0.0000000001
40
-1
40
-1
40
-1
40
-1
40
0
40
0
40
0
40
0
41
1
41
1
41
1
41
1
10
11.6002921236494
20
-14.714074717418839
30
0
10
12.771093413179786
20
-14.438092452330862
30
0
10
13.783525865638211
20
-13.386257737692691
30
0
10
14.196416564867205
20
-12.016912445163456
30
0
0
SPLINE
5
215
100
AcDbEntity
8
0
100
AcDbSpline
70
4
71
3
72
8
73
4
74
0
42
0.000000001
43
0.0000000001
44
0.0000000001
40
-1
40
-1
40
-1
40
-1
40
0
40
0
40
0
40
0
41
1
41
1
41
1
41
1
10
14.196416564867205
20
-12.016912445163456
30
0
10
14.237126748425961
20
-11.88189805484512
30
0
10
14.232501084572435
20
-11.882920603336791
30
0
10
14.011795231181106
20
-12.057722577071019
30
0
0
SPLINE
5
216
100
AcDbEntity
8
0
100
AcDbSpline
70
4
71
3
72
8
73
4
74
0
42
0.000000001
43
0.0000000001
44
0.0000000001
40
-1
40
-1
40
-1
40
-1
40
0
40
0
40
0
40
0
41
1
41
1
41
1
41
1
10
14.011795231181106
20
-12.057722577071019
30
0
10
13.702990109245912
20
-12.302301161413872
30
0
10
13.287948485370107
20
-12.500520897597806
30
0
10
12.926442996058727
20
-12.576077779003448
30
0
0
SPLINE
5
217
100
AcDbEntity
8
0
100
AcDbSpline
70
4
71
3
72
8
73
4
74
0
42
0.000000001
43
0.0000000001
44
0.0000000001
40
-1
40
-1
40
-1
40
-1
40
0
40
0
40
0
40
0
41
1
41
1
41
1
41
1
10
12.926442996058727
20
-12.576077779003448
30
0
10
12.399162542254064
20
-12.686281913813332
30
0
10
12.381157367309154
20
-12.637540586461959
30
0
10
12.833947809187105
20
-12.325692693075197
30
0
0
SPLINE
5
218
100
AcDbEntity
8
0
100
AcDbSpline
70
4
71
3
72
8
73
4
74
0
42
0.000000001
43
0.0000000001
44
0.0000000001
40
-1
40
-1
40
-1
40
-1
40
0
40
0
40
0
40
0
41
1
41
1
41
1
41
1
10
12.833947809187105
20
-12.325692693075197
30
0
10
13.332927955864458
20
-11.9820313759387
30
0
10
13.672319986065355
20
-11.511279175593145
30
0
10
13.7439191842111
20
-11.063523236063402
30
0
0
SPLINE
5
219
100
AcDbEntity
8
0
100
AcDbSpline
70
4
71
3
72
8
73
4
74
0
42
0.000000001
43
0.0000000001
44
0.0000000001
40
-1
40
-1
40
-1
40
-1
40
0
40
0
40
0
40
0
41
1
41
1
41
1
41
1
10
13.7439191842111
20
-11.063523236063402
30
0
10
13.779312658319132
20
-10.842186034731167
30
0
10
13.706588249803069
20
-10.467496408476302
30
0
10
13.5968748116378
20
-10.30592424943773
30
0
0
SPLINE
5
220
100
AcDbEntity
8
0
100
AcDbSpline
70
4
71
3
72
8
73
4
74
0
42
0.000000001
43
0.0000000001
44
0.0000000001
40
-1
40
-1
40
-1
40
-1
40
0
40
0
40
0
40
0
41
1
41
1
41
1
41
1
10
13.5968748116378
20
-10.30592424943773
30
0
10
13.547014605485721
20
-10.232501106989943
30
0
10
13.52996278402177
20
-10.23648004623352
30
0
10
13.474921544910563
20
-10.334377871000552
30
0
0
SPLINE
5
221
100
AcDbEntity
8
0
100
AcDbSpline
70
4
71
3
72
8
73
4
74
0
42
0.000000001
43
0.0000000001
44
0.0000000001
40
-1
40
-1
40
-1
40
-1
40
0
40
0
40
0
40
0
41
1
41
1
41
1
41
1
10
13.474921544910563
20
-10.334377871000552
30
0
10
13.43972706299021
20
-10.396975386183787
30
0
10
13.292071241694776
20
-10.56458650586336
30
0
10
13.146797899591789
20
-10.70684737759791
30
0
0
SPLINE
5
222
100
AcDbEntity
8
0
100
AcDbSpline
70
4
71
3
72
8
73
4
74
0
42
0.000000001
43
0.0000000001
44
0.0000000001
40
-1
40
-1
40
-1
40
-1
40
0
40
0
40
0
40
0
41
1
41
1
41
1
41
1
10
13.146797899591789
20
-10.70684737759791
30
0
10
12.858239328242691
20
-10.989422163412597
30
0
10
12.38496173613354
20
-11.181687510635294
30
0
10
12.057838478812815
20
-11.149230075805434
30
0
0
LINE
5
223
100
AcDbEntity
8
0
100
AcDbLine
10
12.057838478812812
20
-11.149230075805432
30
0
11
11.874848881065656
21
-11.131073847699881
31
0
0
LINE
5
224
100
AcDbEntity
8
0
100
AcDbLine
10
11.874848881065656
20
-11.131073847699881
30
0
11
11.885816968646385
21
-10.558740658095406
31
0
0
SPLINE
5
225
100
AcDbEntity
8
0
100
AcDbSpline
70
4
71
3
72
8
73
4
74
0
42
0.000000001
43
0.0000000001
44
0.0000000001
40
-1
40
-1
40
-1
40
-1
40
0
40
0
40
0
40
0
41
1
41
1
41
1
41
1
10
11.885816968646385
20
-10.558740658095406
30
0
10
11.905683625056005
20
-9.5219384464712462
30
0
10
11.646469165309576
20
-8.7511046703452244
30
0
10
11.108839308725869
20
-8.2482143271800403
30
0
0
SPLINE
5
226
100
AcDbEntity
8
0
100
AcDbSpline
70
4
71
3
72
8
73
4
74
0
42
0.000000001
43
0.0000000001
44
0.0000000001
40
-1
40
-1
40
-1
40
-1
40
0
40
0
40
0
40
0
41
1
41
1
41
1
41
1
10
11.108839308725869
20
-8.2482143271800403
30
0
10
10.836144032774326
20
-7.9931407139571631
30
0
10
10.482847875714526
20
-7.768228437071345
30
0
10
10.433065457417637
20
-7.8180104031132647
30
0
0
SPLINE
5
227
100
AcDbEntity
8
0
100
AcDbSpline
70
4
71
3
72
8
73
4
74
0
42
0.000000001
43
0.0000000001
44
0.0000000001
40
-1
40
-1
40
-1
40
-1
40
0
40
0
40
0
40
0
41
1
41
1
41
1
41
1
10
10.433065457417637
20
-7.8180104031132647
30
0
10
10.419658811027933
20
-7.8314186323953727
30
0
10
10.473003189484228
20
-7.9805535535767058
30
0
10
10.551612339695836
20
-8.149420811440983
30
0
0
SPLINE
5
228
100
AcDbEntity
8
0
100
AcDbSpline
70
4
71
3
72
8
73
4
74
0
42
0.000000001
43
0.0000000001
44
0.0000000001
40
-1
40
-1
40
-1
40
-1
40
0
40
0
40
0
40
0
41
1
41
1
41
1
41
1
10
10.551612339695836
20
-8.149420811440983
30
0
10
10.630221489907443
20
-8.318288069305261
30
0
10
10.694810735987325
20
-8.4952640326898532
30
0
10
10.695092943089847
20
-8.5427003783195445
30
0
0
SPLINE
5
229
100
AcDbEntity
8
0
100
AcDbSpline
70
4
71
3
72
8
73
4
74
0
42
0.000000001
43
0.0000000001
44
0.0000000001
40
-1
40
-1
40
-1
40
-1
40
0
40
0
40
0
40
0
41
1
41
1
41
1
41
1
10
10.695092943089847
20
-8.5427003783195445
30
0
10
10.696308604454558
20
-8.7313551479733462
30
0
10
10.474797737213088
20
-9.0052685726919446
30
0
10
10.036828595277228
20
-9.3566894545103807
30
0
0
SPLINE
5
230
100
AcDbEntity
8
0
100
AcDbSpline
70
4
71
3
72
8
73
4
74
0
42
0.000000001
43
0.0000000001
44
0.0000000001
40
-1
40
-1
40
-1
40
-1
40
0
40
0
40
0
40
0
41
1
41
1
41
1
41
1
10
10.036828595277228
20
-9.3566894545103807
30
0
10
9.5087774990002814
20
-9.7803885953150083
30
0
10
9.2980610534302954
20
-10.013119456156613
30
0
10
9.1516136574200235
20
-10.334378323255526
30
0
0
SPLINE
5
231
100
AcDbEntity
8
0
100
AcDbSpline
70
4
71
3
72
8
73
4
74
0
42
0.000000001
43
0.0000000001
44
0.0000000001
40
-1
40
-1
40
-1
40
-1
40
0
40
0
40
0
40
0
41
1
41
1
41
1
41
1
10
9.1516136574200235
20
-10.334378323255526
30
0
10
9.0247163393389762
20
-10.612749399105557
30
0
10
9.0159932454392155
20
-11.036017993176849
30
0
10
9.1314557488084347
20
-11.312360253222522
30
0
0
SPLINE
5
232
100
AcDbEntity
8
0
100
AcDbSpline
70
4
71
3
72
8
73
4
74
0
42
0.000000001
43
0.0000000001
44
0.0000000001
40
-1
40
-1
40
-1
40
-1
40
0
40
0
40
0
40
0
41
1
41
1
41
1
41
1
10
9.1314557488084347
20
-11.312360253222522
30
0
10
9.178814080455453
20
-11.425706203322825
30
0
10
9.2071125785628816
20
-11.528894506752202
30
0
10
9.1943390891339671
20
-11.541667996181122
30
0
0
SPLINE
5
233
100
AcDbEntity
8
0
100
AcDbSpline
70
4
71
3
72
8
73
4
74
0
42
0.000000001
43
0.0000000001
44
0.0000000001
40
-1
40
-1
40
-1
40
-1
40
0
40
0
40
0
40
0
41
1
41
1
41
1
41
1
10
9.1943390891339671
20
-11.541667996181122
30
0
10
9.134569072035621
20
-11.601438013279468
30
0
10
8.7285019958240149
20
-11.158151257382931
30
0
10
8.6100853629777454
20
-10.903860949771547
30
0
0
LINE
5
234
100
AcDbEntity
8
0
100
AcDbLine
10
-0.73522749808967902
20
2.0413177474078767
30
0
11
-2.3300252601280991
21
2.2758465018674068
31
0
0
SPLINE
5
235
100
AcDbEntity
8
0
100
AcDbSpline
70
4
71
3
72
8
73
4
74
0
42
0.000000001
43
0.0000000001
44
0.0000000001
40
0
40
0
40
0
40
0
40
1
40
1
40
1
40
1
41
1
41
1
41
1
41
1
10
-2.3300252601280991
20
2.2758465018674068
30
0
10
-2.1709679878872667
20
3.4339516744102472
30
0
10
-1.8025222150051845
20
4.606786156780041
30
0
10
-0.96975726696448605
20
5.4654440547748013
30
0
0
SPLINE
5
236
100
AcDbEntity
8
0
100
AcDbSpline
70
4
71
3
72
8
73
4
74
0
42
0.000000001
43
0.0000000001
44
0.0000000001
40
0
40
0
40
0
40
0
40
1
40
1
40
1
40
1
41
1
41
1
41
1
41
1
10
-0.96975726696448605
20
5.4654440547748013
30
0
10
-1.1234208931757084
20
4.3102461964168137
30
0
10
-1.0224328090708368
20
3.1598343493373071
30
0
10
-0.73522749808967891
20
2.0413177474078759
30
0
0
SPLINE
5
237
100
AcDbEntity
8
0
100
AcDbSpline
70
4
71
3
72
8
73
4
74
0
42
0.000000001
43
0.0000000001
44
0.0000000001
40
0
40
0
40
0
40
0
40
1
40
1
40
1
40
1
41
1
41
1
41
1
41
1
10
-0.53859831280678838
20
3.3546832358084688
30
0
10
-0.73827683041335801
20
4.4522805658886266
30
0
10
-0.76252642761813094
20
5.8599237813344978
30
0
10
0.24979509658785037
20
6.5059105308505387
30
0
0
SPLINE
5
238
100
AcDbEntity
8
0
100
AcDbSpline
70
4
71
3
72
8
73
4
74
0
42
0.000000001
43
0.0000000001
44
0.0000000001
40
0
40
0
40
0
40
0
40
1
40
1
40
1
40
1
41
1
41
1
41
1
41
1
10
0.24979509658785037
20
6.5059105308505387
30
0
10
0.40838370897055221
20
6.6071339592997518
30
0
10
0.6075925523037129
20
6.7866428579470028
30
0
10
0.80272040297614256
20
6.7993078326845708
30
0
0
SPLINE
5
239
100
AcDbEntity
8
0
100
AcDbSpline
70
4
71
3
72
8
73
4
74
0
42
0.000000001
43
0.0000000001
44
0.0000000001
40
0
40
0
40
0
40
0
40
1
40
1
40
1
40
1
41
1
41
1
41
1
41
1
10
0.80272040297614256
20
6.7993078326845708
30
0
10
1.1021200000061881
20
6.8187267843386623
30
0
10
1.4366995188543297
20
6.2797314285387795
30
0
10
1.5909261455444734
20
6.0752222653815258
30
0
0
SPLINE
5
240
100
AcDbEntity
8
0
100
AcDbSpline
70
4
71
3
72
8
73
4
74
0
42
0.000000001
43
0.0000000001
44
0.0000000001
40
0
40
0
40
0
40
0
40
1
40
1
40
1
40
1
41
1
41
1
41
1
41
1
10
1.5909261455444734
20
6.0752222653815258
30
0
10
2.1164125330960393
20
5.378295638298658
30
0
10
2.4397807342990374
20
4.5452943314983418
30
0
10
2.5610327779840203
20
3.6830230862857016
30
0
0
SPLINE
5
241
100
AcDbEntity
8
0
100
AcDbSpline
70
4
71
3
72
8
73
4
74
0
42
0.000000001
43
0.0000000001
44
0.0000000001
40
0
40
0
40
0
40
0
40
1
40
1
40
1
40
1
41
1
41
1
41
1
41
1
10
2.5610327779840203
20
3.6830230862857016
30
0
10
2.5948046913971723
20
3.4428663558674977
30
0
10
2.6912897860859375
20
3.0918218626528748
30
0
10
2.6098149942559479
20
2.8569177745407304
30
0
0
SPLINE
5
242
100
AcDbEntity
8
0
100
AcDbSpline
70
4
71
3
72
8
73
4
74
0
42
0.000000001
43
0.0000000001
44
0.0000000001
40
0
40
0
40
0
40
0
40
1
40
1
40
1
40
1
41
1
41
1
41
1
41
1
10
2.6098149942559479
20
2.8569177745407304
30
0
10
2.5377205004955061
20
2.6490782860279727
30
0
10
2.2636031754225683
20
2.5617391594796901
30
0
10
2.0791216130858015
20
2.4869240039454277
30
0
0
SPLINE
5
243
100
AcDbEntity
8
0
100
AcDbSpline
70
4
71
3
72
8
73
4
74
0
42
0.000000001
43
0.0000000001
44
0.0000000001
40
0
40
0
40
0
40
0
40
1
40
1
40
1
40
1
41
1
41
1
41
1
41
1
10
2.0791216130858015
20
2.4869240039454277
30
0
10
1.5393299412932104
20
2.2679665239930413
30
0
10
0.92749043884293503
20
2.1199795656738041
30
0
10
0.34379385943186014
20
2.0936656333796466
30
0
0
SPLINE
5
244
100
AcDbEntity
8
0
100
AcDbSpline
70
4
71
3
72
8
73
4
74
0
42
0.000000001
43
0.0000000001
44
0.0000000001
40
0
40
0
40
0
40
0
40
1
40
1
40
1
40
1
41
1
41
1
41
1
41
1
10
0.34379385943186014
20
2.0936656333796466
30
0
10
-0.32892881913371141
20
2.0634117121483064
30
0
10
-0.44253521487339409
20
2.8267571795149049
30
0
10
-0.53859831280678838
20
3.3546832358084688
30
0
0
SPLINE
5
245
100
AcDbEntity
8
0
100
AcDbSpline
70
4
71
3
72
8
73
4
74
0
42
0.000000001
43
0.0000000001
44
0.0000000001
40
0
40
0
40
0
40
0
40
1
40
1
40
1
40
1
41
1
41
1
41
1
41
1
10
3.0668212496802294
20
3.7299316775403835
30
0
10
2.8839830400927546
20
5.1658608485795572
30
0
10
2.1556764908206993
20
6.1327771449718753
30
0
10
1.3755353497072087
20
7.2947756433491406
30
0
0
LINE
5
246
100
AcDbEntity
8
0
100
AcDbLine
10
1.3755353497072085
20
7.2947756433491406
30
0
11
1.4693464457249106
21
7.7169286186746273
31
0
0
SPLINE
5
247
100
AcDbEntity
8
0
100
AcDbSpline
70
4
71
3
72
8
73
4
74
0
42
0.000000001
43
0.0000000001
44
0.0000000001
40
0
40
0
40
0
40
0
40
1
40
1
40
1
40
1
41
1
41
1
41
1
41
1
10
1.4693464457249106
20
7.7169286186746273
30
0
10
0.86824858664637183
20
7.7129926873985539
30
0
10
0.43943597502515752
20
7.3526105015560344
30
0
10
-0.031640220295807708
20
7.012966007228143
30
0
0
SPLINE
5
248
100
AcDbEntity
8
0
100
AcDbSpline
70
4
71
3
72
8
73
4
74
0
42
0.000000001
43
0.0000000001
44
0.0000000001
40
0
40
0
40
0
40
0
40
1
40
1
40
1
40
1
41
1
41
1
41
1
41
1
10
-0.031640220295807708
20
7.012966007228143
30
0
10
-1.1737511071608542
20
6.1894870166362015
30
0
10
-2.1204044583883341
20
5.1331216099187387
30
0
10
-2.5638987023184678
20
3.7768382399645128
30
0
0
SPLINE
5
249
100
AcDbEntity
8
0
100
AcDbSpline
70
4
71
3
72
8
73
4
74
0
42
0.000000001
43
0.0000000001
44
0.0000000001
40
0
40
0
40
0
40
0
40
1
40
1
40
1
40
1
41
1
41
1
41
1
41
1
10
-2.5638987023184678
20
3.7768382399645128
30
0
10
-2.710526344166071
20
3.3284179954476234
30
0
10
-2.8252100489302889
20
2.842661182233015
30
0
10
-2.8428476873573705
20
2.369661655546218
30
0
0
SPLINE
5
250
100
AcDbEntity
8
0
100
AcDbSpline
70
4
71
3
72
8
73
4
74
0
42
0.000000001
43
0.0000000001
44
0.0000000001
40
0
40
0
40
0
40
0
40
1
40
1
40
1
40
1
41
1
41
1
41
1
41
1
10
-2.8428476873573705
20
2.369661655546218
30
0
10
-2.8486186958701487
20
2.2149207203104604
30
0
10
-2.8754935998126752
20
1.9852226114016158
30
0
10
-2.7517562386982131
20
1.8668788963167615
30
0
0
SPLINE
5
251
100
AcDbEntity
8
0
100
AcDbSpline
70
4
71
3
72
8
73
4
74
0
42
0.000000001
43
0.0000000001
44
0.0000000001
40
0
40
0
40
0
40
0
40
1
40
1
40
1
40
1
41
1
41
1
41
1
41
1
10
-2.7517562386982131
20
1.8668788963167615
30
0
10
-2.4929778870339092
20
1.6193108478823226
30
0
10
-1.777288634981391
20
1.6453894358321386
30
0
10
-1.4388147758835479
20
1.6191688297434959
30
0
0
SPLINE
5
252
100
AcDbEntity
8
0
100
AcDbSpline
70
4
71
3
72
8
73
4
74
0
42
0.000000001
43
0.0000000001
44
0.0000000001
40
0
40
0
40
0
40
0
40
1
40
1
40
1
40
1
41
1
41
1
41
1
41
1
10
-1.4388147758835479
20
1.6191688297434959
30
0
10
-0.30111456664436931
20
1.530985709684467
30
0
10
0.88368088626052277
20
1.5471209990858137
30
0
10
1.985311531483378
20
1.882310181515634
30
0
0
SPLINE
5
253
100
AcDbEntity
8
0
100
AcDbSpline
70
4
71
3
72
8
73
4
74
0
42
0.000000001
43
0.0000000001
44
0.0000000001
40
0
40
0
40
0
40
0
40
1
40
1
40
1
40
1
41
1
41
1
41
1
41
1
10
1.985311531483378
20
1.882310181515634
30
0
10
2.3190927055082566
20
1.983861266099427
30
0
10
2.906494943927449
20
2.1228909375197658
30
0
10
3.0637232254232383
20
2.4736980575594902
30
0
0
SPLINE
5
254
100
AcDbEntity
8
0
100
AcDbSpline
70
4
71
3
72
8
73
4
74
0
42
0.000000001
43
0.0000000001
44
0.0000000001
40
0
40
0
40
0
40
0
40
1
40
1
40
1
40
1
41
1
41
1
41
1
41
1
10
3.0637232254232383
20
2.4736980575594902
30
0
10
3.2146195267578803
20
2.8103419114970141
30
0
10
3.1119434556315184
20
3.3754158552467106
30
0
10
3.0668212496802294
20
3.7299316775403835
30
0
0
ARC
5
255
100
AcDbEntity
8
0
100
AcDbCircle
10
-10.762225485084274
20
-11.410246605932555
30
0
40
6.0000000149008761
210
0
220
-0
230
1
100
AcDbArc
50
80.654508769841996
51
87.163029237574932
0
SPLINE
5
256
100
AcDbEntity
8
0
100
AcDbSpline
70
4
71
3
72
8
73
4
74
0
42
0.000000001
43
0.0000000001
44
0.0000000001
40
0.94880448574899845
40
0.94880448574899845
40
0.94880448574899845
40
0.94880448574899845
40
1
40
1
40
1
40
1
41
1
41
1
41
1
41
1
10
-9.7879016488157706
20
-5.4898840122319363
30
0
10
-9.7806398036600335
20
-5.464580103497684
30
0
10
-9.7712467596872656
20
-5.4401377611892912
30
0
10
-9.7595809414261474
20
-5.4167100346868713
30
0
0
SPLINE
5
257
100
AcDbEntity
8
0
100
AcDbSpline
70
4
71
3
72
8
73
4
74
0
42
0.000000001
43
0.0000000001
44
0.0000000001
40
0
40
0
40
0
40
0
40
1
40
1
40
1
40
1
41
1
41
1
41
1
41
1
10
-9.7595809414261474
20
-5.4167100346868713
30
0
10
-9.4589138325070685
20
-4.8129381769372648
30
0
10
-8.7701496979533058
20
-4.3891905407958021
30
0
10
-8.1463477033450165
20
-4.1971576711345326
30
0
0
SPLINE
5
258
100
AcDbEntity
8
0
100
AcDbSpline
70
4
71
3
72
8
73
4
74
0
42
0.000000001
43
0.0000000001
44
0.0000000001
40
0
40
0
40
0
40
0
40
0.85103315100810095
40
0.85103315100810095
40
0.85103315100810095
40
0.85103315100810095
41
1
41
1
41
1
41
1
10
-8.1463477033450165
20
-4.1971576711345326
30
0
10
-7.7589797830713998
20
-4.87146138636788
30
0
10
-7.5439168633455331
20
-5.4984740738845321
30
0
10
-7.9356087000864548
20
-6.1177766976969528
30
0
0
ARC
5
259
100
AcDbEntity
8
0
100
AcDbCircle
10
-10.762225485084274
20
-11.410246605932555
30
0
40
6.000000014900909
210
0
220
-0
230
1
100
AcDbArc
50
56.649553514253
51
61.894094732109089
0
SPLINE
5
260
100
AcDbEntity
8
0
100
AcDbSpline
70
4
71
3
72
8
73
4
74
0
42
0.000000001
43
0.0000000001
44
0.0000000001
40
0.59597540523738124
40
0.59597540523738124
40
0.59597540523738124
40
0.59597540523738124
40
1
40
1
40
1
40
1
41
1
41
1
41
1
41
1
10
-7.4636744902720995
20
-6.398304715463901
30
0
10
-7.236536302119454
20
-6.0091154492038434
30
0
10
-7.1247820281290997
20
-5.5462233179817408
30
0
10
-7.1712689144235977
20
-5.0883640977179745
30
0
0
SPLINE
5
261
100
AcDbEntity
8
0
100
AcDbSpline
70
4
71
3
72
8
73
4
74
0
42
0.000000001
43
0.0000000001
44
0.0000000001
40
0
40
0
40
0
40
0
40
1
40
1
40
1
40
1
41
1
41
1
41
1
41
1
10
-7.1712689144235977
20
-5.0883640977179745
30
0
10
-7.2122168015086396
20
-4.6850224392954498
30
0
10
-7.5858229049065438
20
-3.6742468839721276
30
0
10
-8.0561007554042448
20
-3.6172103705884995
30
0
0
SPLINE
5
262
100
AcDbEntity
8
0
100
AcDbSpline
70
4
71
3
72
8
73
4
74
0
42
0.000000001
43
0.0000000001
44
0.0000000001
40
0
40
0
40
0
40
0
40
1
40
1
40
1
40
1
41
1
41
1
41
1
41
1
10
-8.0561007554042448
20
-3.6172103705884995
30
0
10
-8.7515742326023229
20
-3.5328739132611364
30
0
10
-9.5930180105482901
20
-4.4114671002861527
30
0
10
-10.069486583879765
20
-4.8069308096648689
30
0
0
SPLINE
5
263
100
AcDbEntity
8
0
100
AcDbSpline
70
4
71
3
72
8
73
4
74
0
42
0.000000001
43
0.0000000001
44
0.0000000001
40
0
40
0
40
0
40
0
40
1
40
1
40
1
40
1
41
1
41
1
41
1
41
1
10
-10.069486583879765
20
-4.8069308096648689
30
0
10
-10.204341429226218
20
-3.9776341474573895
30
0
10
-10.633060968245738
20
-2.8230936301991161
30
0
10
-10.397828209583736
20
-1.9925796696588316
30
0
0
SPLINE
5
264
100
AcDbEntity
8
0
100
AcDbSpline
70
4
71
3
72
8
73
4
74
0
42
0.000000001
43
0.0000000001
44
0.0000000001
40
0
40
0
40
0
40
0
40
1
40
1
40
1
40
1
41
1
41
1
41
1
41
1
10
-10.397828209583736
20
-1.9925796696588316
30
0
10
-9.3844268403150242
20
-2.6485573952413777
30
0
10
-8.320696778684086
20
-3.2312679630028818
30
0
10
-7.1613251086674881
20
-3.5845644581331948
30
0
0
SPLINE
5
265
100
AcDbEntity
8
0
100
AcDbSpline
70
4
71
3
72
8
73
4
74
0
42
0.000000001
43
0.0000000001
44
0.0000000001
40
0
40
0
40
0
40
0
40
1
40
1
40
1
40
1
41
1
41
1
41
1
41
1
10
-7.1613251086674881
20
-3.5845644581331948
30
0
10
-4.2209856200465783
20
-4.4804655986201558
30
0
10
-1.2960784310398155
20
-3.7488266951620464
30
0
10
1.5162550369795946
20
-2.8368856203098103
30
0
0
SPLINE
5
266
100
AcDbEntity
8
0
100
AcDbSpline
70
4
71
3
72
8
73
4
74
0
42
0.000000001
43
0.0000000001
44
0.0000000001
40
0
40
0
40
0
40
0
40
0.87891002834916132
40
0.87891002834916132
40
0.87891002834916132
40
0.87891002834916132
41
1
41
1
41
1
41
1
10
1.5162550369795946
20
-2.8368856203098103
30
0
10
1.0333745472953773
20
-3.7674809107778806
30
0
10
0.39943437289442824
20
-4.6567685413152695
30
0
10
0.14455142101610549
20
-5.6863060213882104
30
0
0
ARC
5
267
100
AcDbEntity
8
0
100
AcDbCircle
10
3.4139358007223564e-14
20
-13.68499998509847
30
0
40
8.000000014900797
210
0
220
-0
230
1
100
AcDbArc
50
80.334692875200346
51
88.964670366564377
0
SPLINE
5
268
100
AcDbEntity
8
0
100
AcDbSpline
70
4
71
3
72
8
73
4
74
0
42
0.000000001
43
0.0000000001
44
0.0000000001
40
0.95662354942217731
40
0.95662354942217731
40
0.95662354942217731
40
0.95662354942217731
40
1
40
1
40
1
40
1
41
1
41
1
41
1
41
1
10
1.3431400059785892
20
-5.7985574941680609
30
0
10
1.3695851104784489
20
-5.782067229226592
30
0
10
1.3960408716456234
20
-5.7658320228624742
30
0
10
1.4224419121313381
20
-5.7498358964425833
30
0
0
SPLINE
5
269
100
AcDbEntity
8
0
100
AcDbSpline
70
4
71
3
72
8
73
4
74
0
42
0.000000001
43
0.0000000001
44
0.0000000001
40
0
40
0
40
0
40
0
40
1
40
1
40
1
40
1
41
1
41
1
41
1
41
1
10
1.4224419121313381
20
-5.7498358964425833
30
0
10
1.7460464720939539
20
-5.5537230485358569
30
0
10
2.0888802880537982
20
-5.3775921527621451
30
0
10
2.4543710692329967
20
-5.27599237624504
30
0
0
SPLINE
5
270
100
AcDbEntity
8
0
100
AcDbSpline
70
4
71
3
72
8
73
4
74
0
42
0.000000001
43
0.0000000001
44
0.0000000001
40
0
40
0
40
0
40
0
40
0.72363769209019158
40
0.72363769209019158
40
0.72363769209019158
40
0.72363769209019158
41
1
41
1
41
1
41
1
10
2.4543710692329967
20
-5.27599237624504
30
0
10
2.5159095525487296
20
-5.5631147076596452
30
0
10
2.5295762836499813
20
-5.81641446687052
30
0
10
2.4975215760430922
20
-6.0848429988506041
30
0
0
ARC
5
271
100
AcDbEntity
8
0
100
AcDbCircle
10
3.4139358007223564e-14
20
-13.68499998509847
30
0
40
8.0000000149008113
210
0
220
-0
230
1
100
AcDbArc
50
68.04761584686895
51
71.808728422303744
0
SPLINE
5
272
100
AcDbEntity
8
0
100
AcDbSpline
70
4
71
3
72
8
73
4
74
0
42
0.000000001
43
0.0000000001
44
0.0000000001
40
0.76239699962585306
40
0.76239699962585306
40
0.76239699962585306
40
0.76239699962585306
40
1
40
1
40
1
40
1
41
1
41
1
41
1
41
1
10
2.9906874050739072
20
-6.2650411520896601
30
0
10
3.0123982201479627
20
-6.0471889015534934
30
0
10
3.0199073584677705
20
-5.8382329393333112
30
0
10
3.0154603897733079
20
-5.6512428468075093
30
0
0
SPLINE
5
273
100
AcDbEntity
8
0
100
AcDbSpline
70
4
71
3
72
8
73
4
74
0
42
0.000000001
43
0.0000000001
44
0.0000000001
40
0
40
0
40
0
40
0
40
1
40
1
40
1
40
1
41
1
41
1
41
1
41
1
10
3.0154603897733079
20
-5.6512428468075093
30
0
10
3.0097827074660444
20
-5.414462090432286
30
0
10
3.0208591078793035
20
-4.880626050732948
30
0
10
2.7603390051838073
20
-4.7656603385216334
30
0
0
SPLINE
5
274
100
AcDbEntity
8
0
100
AcDbSpline
70
4
71
3
72
8
73
4
74
0
42
0.000000001
43
0.0000000001
44
0.0000000001
40
0
40
0
40
0
40
0
40
1
40
1
40
1
40
1
41
1
41
1
41
1
41
1
10
2.7603390051838073
20
-4.7656603385216334
30
0
10
2.2114013652507336
20
-4.5234849217015238
30
0
10
1.2157304534069802
20
-5.2627684586896573
30
0
10
0.76576221117687249
20
-5.5105251883656781
30
0
0
SPLINE
5
275
100
AcDbEntity
8
0
100
AcDbSpline
70
4
71
3
72
8
73
4
74
0
42
0.000000001
43
0.0000000001
44
0.0000000001
40
0
40
0
40
0
40
0
40
1
40
1
40
1
40
1
41
1
41
1
41
1
41
1
10
0.76576221117687249
20
-5.5105251883656781
30
0
10
1.1039997115150957
20
-4.4066425412271304
30
0
10
1.7292548560081711
20
-3.3557651211600703
30
0
10
2.5160059270688007
20
-2.5146018290382877
30
0
0
SPLINE
5
276
100
AcDbEntity
8
0
100
AcDbSpline
70
4
71
3
72
8
73
4
74
0
42
0.000000001
43
0.0000000001
44
0.0000000001
40
0
40
0
40
0
40
0
40
1
40
1
40
1
40
1
41
1
41
1
41
1
41
1
10
2.5160059270688007
20
-2.5146018290382877
30
0
10
2.9311695811334282
20
-2.0707322514555404
30
0
10
3.7460189409610534
20
-1.7629830022777204
30
0
10
3.7677355432183135
20
-1.1013752719059466
30
0
0
SPLINE
5
277
100
AcDbEntity
8
0
100
AcDbSpline
70
4
71
3
72
8
73
4
74
0
42
0.000000001
43
0.0000000001
44
0.0000000001
40
0
40
0
40
0
40
0
40
1
40
1
40
1
40
1
41
1
41
1
41
1
41
1
10
3.7677355432183135
20
-1.1013752719059466
30
0
10
3.2199685385152876
20
-1.1182145655097653
30
0
10
2.770048988218492
20
-1.5536888422572614
30
0
10
2.3136544252064439
20
-1.8228821955740004
30
0
0
SPLINE
5
278
100
AcDbEntity
8
0
100
AcDbSpline
70
4
71
3
72
8
73
4
74
0
42
0.000000001
43
0.0000000001
44
0.0000000001
40
0
40
0
40
0
40
0
40
1
40
1
40
1
40
1
41
1
41
1
41
1
41
1
10
2.3136544252064439
20
-1.8228821955740004
30
0
10
1.5461813020763548
20
-2.275522407644619
30
0
10
0.72471896905576205
20
-2.6444368403848317
30
0
10
-0.12544827306767647
20
-2.9134415124599844
30
0
0
SPLINE
5
279
100
AcDbEntity
8
0
100
AcDbSpline
70
4
71
3
72
8
73
4
74
0
42
0.000000001
43
0.0000000001
44
0.0000000001
40
0
40
0
40
0
40
0
40
1
40
1
40
1
40
1
41
1
41
1
41
1
41
1
10
-0.12544827306767647
20
-2.9134415124599844
30
0
10
-3.4719454369210045
20
-3.972247602334722
30
0
10
-6.9859433585760886
20
-3.6574157056905277
30
0
10
-9.9287696862493942
20
-1.6954838097236236
30
0
0
SPLINE
5
280
100
AcDbEntity
8
0
100
AcDbSpline
70
4
71
3
72
8
73
4
74
0
42
0.000000001
43
0.0000000001
44
0.0000000001
40
0
40
0
40
0
40
0
40
1
40
1
40
1
40
1
41
1
41
1
41
1
41
1
10
-9.9287696862493942
20
-1.6954838097236236
30
0
10
-10.586201576132005
20
-1.257195544996792
30
0
10
-11.354749218644615
20
-0.78504204065129368
30
0
10
-11.851909327595603
20
-0.1632582252372683
30
0
0
SPLINE
5
281
100
AcDbEntity
8
0
100
AcDbSpline
70
4
71
3
72
8
73
4
74
0
42
0.000000001
43
0.0000000001
44
0.0000000001
40
0
40
0
40
0
40
0
40
1
40
1
40
1
40
1
41
1
41
1
41
1
41
1
10
-11.851909327595603
20
-0.1632582252372683
30
0
10
-9.460180329980826
20
-1.8286034977381904
30
0
10
-6.6299287377101486
20
-3.4810494655724744
30
0
10
-3.5964811428587318
20
-2.8106711007128293
30
0
0
SPLINE
5
282
100
AcDbEntity
8
0
100
AcDbSpline
70
4
71
3
72
8
73
4
74
0
42
0.000000001
43
0.0000000001
44
0.0000000001
40
0
40
0
40
0
40
0
40
1
40
1
40
1
40
1
41
1
41
1
41
1
41
1
10
-3.5964811428587318
20
-2.8106711007128293
30
0
10
-2.4537139293092469
20
-2.5581303885888795
30
0
10
-1.4073384842430148
20
-2.0193703771333427
30
0
10
-0.40688358995133678
20
-1.4280271353616891
30
0
0
SPLINE
5
283
100
AcDbEntity
8
0
100
AcDbSpline
70
4
71
3
72
8
73
4
74
0
42
0.000000001
43
0.0000000001
44
0.0000000001
40
0
40
0
40
0
40
0
40
1
40
1
40
1
40
1
41
1
41
1
41
1
41
1
10
-0.40688358995133678
20
-1.4280271353616891
30
0
10
0.35327255578331052
20
-0.97876289733405564
30
0
10
1.0852381009607215
20
-0.47128948186218711
30
0
10
1.7507848058544018
20
0.1097817908111387
30
0
0
SPLINE
5
284
100
AcDbEntity
8
0
100
AcDbSpline
70
4
71
3
72
8
73
4
74
0
42
0.000000001
43
0.0000000001
44
0.0000000001
40
0
40
0
40
0
40
0
40
1
40
1
40
1
40
1
41
1
41
1
41
1
41
1
10
1.7507848058544018
20
0.1097817908111387
30
0
10
2.0602697195717457
20
0.38000781888020807
30
0
10
2.3806829290718579
20
0.62161719197556087
30
0
10
2.4074665356394243
20
1.0562961671456228
30
0
0
SPLINE
5
285
100
AcDbEntity
8
0
100
AcDbSpline
70
4
71
3
72
8
73
4
74
0
42
0.000000001
43
0.0000000001
44
0.0000000001
40
0
40
0
40
0
40
0
40
1
40
1
40
1
40
1
41
1
41
1
41
1
41
1
10
2.4074665356394243
20
1.0562961671456228
30
0
10
1.7679517555928004
20
1.0444234507396555
30
0
10
1.3303674950684408
20
0.581935295156637
30
0
10
0.71885666316802155
20
0.50731084969451334
30
0
0
SPLINE
5
286
100
AcDbEntity
8
0
100
AcDbSpline
70
4
71
3
72
8
73
4
74
0
42
0.000000001
43
0.0000000001
44
0.0000000001
40
0
40
0
40
0
40
0
40
1
40
1
40
1
40
1
41
1
41
1
41
1
41
1
10
0.71885666316802155
20
0.50731084969451334
30
0
10
0.02802667190195951
20
0.4230190266393552
30
0
10
-0.69648089215645914
20
0.50994427175448331
30
0
10
-1.3919061846288661
20
0.49169088325405674
30
0
0
SPLINE
5
287
100
AcDbEntity
8
0
100
AcDbSpline
70
4
71
3
72
8
73
4
74
0
42
0.000000001
43
0.0000000001
44
0.0000000001
40
0
40
0
40
0
40
0
40
1
40
1
40
1
40
1
41
1
41
1
41
1
41
1
10
-1.3919061846288661
20
0.49169088325405674
30
0
10
-2.4428322966292382
20
0.46411096069377988
30
0
10
-3.4929600638063474
20
0.36443451554250883
30
0
10
-4.5345986967350482
20
0.21855956983068969
30
0
0
SPLINE
5
288
100
AcDbEntity
8
0
100
AcDbSpline
70
4
71
3
72
8
73
4
74
0
42
0.000000001
43
0.0000000001
44
0.0000000001
40
0
40
0
40
0
40
0
40
1
40
1
40
1
40
1
41
1
41
1
41
1
41
1
10
-4.5345986967350482
20
0.21855956983068969
30
0
10
-5.2241606689044389
20
0.12198114893640977
30
0
10
-5.9191183159339902
20
0.010624726281862618
30
0
10
-6.5984554893154463
20
-0.14317888923763178
30
0
0
SPLINE
5
289
100
AcDbEntity
8
0
100
AcDbSpline
70
4
71
3
72
8
73
4
74
0
42
0.000000001
43
0.0000000001
44
0.0000000001
40
0
40
0
40
0
40
0
40
1
40
1
40
1
40
1
41
1
41
1
41
1
41
1
10
-6.5984554893154463
20
-0.14317888923763178
30
0
10
-6.9816757135043259
20
-0.22990733778895711
30
0
10
-7.4206213193308743
20
-0.41776487416870012
30
0
10
-7.8180070920563258
20
-0.36429301606963893
30
0
0
SPLINE
5
290
100
AcDbEntity
8
0
100
AcDbSpline
70
4
71
3
72
8
73
4
74
0
42
0.000000001
43
0.0000000001
44
0.0000000001
40
0
40
0
40
0
40
0
40
1
40
1
40
1
40
1
41
1
41
1
41
1
41
1
10
-7.8180070920563258
20
-0.36429301606963893
30
0
10
-8.5306472653889838
20
-0.26836990744451894
30
0
10
-9.3047820536453543
20
0.25509880812041974
30
0
10
-9.9756759950697038
20
0.52147614462726644
30
0
0
SPLINE
5
291
100
AcDbEntity
8
0
100
AcDbSpline
70
4
71
3
72
8
73
4
74
0
42
0.000000001
43
0.0000000001
44
0.0000000001
40
0
40
0
40
0
40
0
40
1
40
1
40
1
40
1
41
1
41
1
41
1
41
1
10
-9.9756759950697038
20
0.52147614462726644
30
0
10
-10.64675760332036
20
0.78790217306742738
30
0
10
-11.338614563252818
20
1.0434922175150585
30
0
10
-12.039532787650103
20
1.2196231132887725
30
0
0
SPLINE
5
292
100
AcDbEntity
8
0
100
AcDbSpline
70
4
71
3
72
8
73
4
74
0
42
0.000000001
43
0.0000000001
44
0.0000000001
40
0
40
0
40
0
40
0
40
1
40
1
40
1
40
1
41
1
41
1
41
1
41
1
10
-12.039532787650103
20
1.2196231132887725
30
0
10
-12.386588726796138
20
1.3068202216982261
30
0
10
-12.878907729038891
20
1.3320081530345385
30
0
10
-13.142575625740921
20
1.6018121843482369
30
0
0
SPLINE
5
293
100
AcDbEntity
8
0
100
AcDbSpline
70
4
71
3
72
8
73
4
74
0
42
0.000000001
43
0.0000000001
44
0.0000000001
40
0
40
0
40
0
40
0
40
1
40
1
40
1
40
1
41
1
41
1
41
1
41
1
10
-13.142575625740921
20
1.6018121843482369
30
0
10
-13.306638022960142
20
1.7696877685949697
30
0
10
-13.261964315363347
20
2.0151011989803402
30
0
10
-13.259084390390981
20
2.2289439971043867
30
0
0
SPLINE
5
294
100
AcDbEntity
8
0
100
AcDbSpline
70
4
71
3
72
8
73
4
74
0
42
0.000000001
43
0.0000000001
44
0.0000000001
40
0
40
0
40
0
40
0
40
1
40
1
40
1
40
1
41
1
41
1
41
1
41
1
10
-13.259084390390981
20
2.2289439971043867
30
0
10
-13.531199259706455
20
2.2151073727214921
30
0
10
-13.720548240147707
20
2.1396348760875128
30
0
10
-13.915766373779821
20
1.9475086802207286
30
0
0
LINE
5
295
100
AcDbEntity
8
0
100
AcDbLine
10
-13.915766373779821
20
1.9475086802207289
30
0
11
-13.962672555798219
21
1.9475086802207286
31
0
0
LINE
5
296
100
AcDbEntity
8
0
100
AcDbLine
10
-13.962672555798219
20
1.9475086802207286
30
0
11
-14.194926864404048
21
2.55728384758162
31
0
0
LINE
5
297
100
AcDbEntity
8
0
100
AcDbLine
10
-14.194926864404048
20
2.55728384758162
30
0
11
-13.798840050441228
21
3.3546832358084684
31
0
0
LINE
5
298
100
AcDbEntity
8
0
100
AcDbLine
10
-13.798840050441228
20
3.3546832358084684
30
0
11
-13.446707596841662
21
4.4335179409189767
31
0
0
LINE
5
299
100
AcDbEntity
8
0
100
AcDbLine
10
-13.446707596841662
20
4.4335179409189767
30
0
11
-13.399801414823262
21
4.4335179409189767
31
0
0
SPLINE
5
300
100
AcDbEntity
8
0
100
AcDbSpline
70
4
71
3
72
8
73
4
74
0
42
0.000000001
43
0.0000000001
44
0.0000000001
40
0
40
0
40
0
40
0
40
1
40
1
40
1
40
1
41
1
41
1
41
1
41
1
10
-13.399801414823262
20
4.4335179409189767
30
0
10
-13.467271316136227
20
4.0907774511646489
30
0
10
-13.64336011367593
20
3.5945599876101286
30
0
10
-13.472242838608553
20
3.262795471156601
30
0
0
SPLINE
5
301
100
AcDbEntity
8
0
100
AcDbSpline
70
4
71
3
72
8
73
4
74
0
42
0.000000001
43
0.0000000001
44
0.0000000001
40
0
40
0
40
0
40
0
40
1
40
1
40
1
40
1
41
1
41
1
41
1
41
1
10
-13.472242838608553
20
3.262795471156601
30
0
10
-13.137265161764056
20
2.6133363781462315
30
0
10
-12.064993596696018
20
2.5111746155654791
30
0
10
-11.429756986279662
20
2.4522147708160169
30
0
0
SPLINE
5
302
100
AcDbEntity
8
0
100
AcDbSpline
70
4
71
3
72
8
73
4
74
0
42
0.000000001
43
0.0000000001
44
0.0000000001
40
0
40
0
40
0
40
0
40
1
40
1
40
1
40
1
41
1
41
1
41
1
41
1
10
-11.429756986279662
20
2.4522147708160169
30
0
10
-11.198647381913355
20
2.4307781471753009
30
0
10
-10.824577754134662
20
2.3370137142603564
30
0
10
-10.631513731343977
20
2.5107992819128655
30
0
0
SPLINE
5
303
100
AcDbEntity
8
0
100
AcDbSpline
70
4
71
3
72
8
73
4
74
0
42
0.000000001
43
0.0000000001
44
0.0000000001
40
0
40
0
40
0
40
0
40
1
40
1
40
1
40
1
41
1
41
1
41
1
41
1
10
-10.631513731343977
20
2.5107992819128655
30
0
10
-10.339946561472173
20
2.7732366294825295
30
0
10
-10.295151884853553
20
3.4580622967220265
30
0
10
-10.248715123504741
20
3.8237407447275307
30
0
0
SPLINE
5
304
100
AcDbEntity
8
0
100
AcDbSpline
70
4
71
3
72
8
73
4
74
0
42
0.000000001
43
0.0000000001
44
0.0000000001
40
0
40
0
40
0
40
0
40
1
40
1
40
1
40
1
41
1
41
1
41
1
41
1
10
-10.248715123504741
20
3.8237407447275307
30
0
10
-10.120520294859745
20
4.8335302884012776
30
0
10
-10.178825334547687
20
5.9741388262405852
30
0
10
-10.57864963479795
20
6.9195272016172238
30
0
0
SPLINE
5
305
100
AcDbEntity
8
0
100
AcDbSpline
70
4
71
3
72
8
73
4
74
0
42
0.000000001
43
0.0000000001
44
0.0000000001
40
0
40
0
40
0
40
0
40
1
40
1
40
1
40
1
41
1
41
1
41
1
41
1
10
-10.57864963479795
20
6.9195272016172238
30
0
10
-10.819089133474712
20
7.488024796927939
30
0
10
-11.152420794729817
20
7.9468113511639498
30
0
10
-11.805003525982931
20
7.9514553443036036
30
0
0
SPLINE
5
306
100
AcDbEntity
8
0
100
AcDbSpline
70
4
71
3
72
8
73
4
74
0
42
0.000000001
43
0.0000000001
44
0.0000000001
40
0
40
0
40
0
40
0
40
1
40
1
40
1
40
1
41
1
41
1
41
1
41
1
10
-11.805003525982931
20
7.9514553443036036
30
0
10
-11.795975451917961
20
7.2337960977824967
30
0
10
-12.544338290942569
20
6.6780557889995906
30
0
10
-12.836931858872177
20
6.0283157029573964
30
0
0
LINE
5
307
100
AcDbEntity
8
0
100
AcDbLine
10
-12.836931858872177
20
6.0283157029573973
30
0
11
-12.88383797748962
21
6.0283157029573964
31
0
0
SPLINE
5
308
100
AcDbEntity
8
0
100
AcDbSpline
70
4
71
3
72
8
73
4
74
0
42
0.000000001
43
0.0000000001
44
0.0000000001
40
0
40
0
40
0
40
0
40
1
40
1
40
1
40
1
41
1
41
1
41
1
41
1
10
-12.88383797748962
20
6.0283157029573964
30
0
10
-12.585225186309062
20
7.0031596547421131
30
0
10
-12.134586986189227
20
7.9783322770766851
30
0
10
-11.595784686296815
20
8.8426658285481547
30
0
0
SPLINE
5
309
100
AcDbEntity
8
0
100
AcDbSpline
70
4
71
3
72
8
73
4
74
0
42
0.000000001
43
0.0000000001
44
0.0000000001
40
0
40
0
40
0
40
0
40
1
40
1
40
1
40
1
41
1
41
1
41
1
41
1
10
-11.595784686296815
20
8.8426658285481547
30
0
10
-11.313725630819501
20
9.2951204026230183
30
0
10
-10.759848168891518
20
9.7479026328324636
30
0
10
-10.726169074476244
20
10.296747960975301
30
0
0
LINE
5
310
100
AcDbEntity
8
0
100
AcDbLine
10
-10.726169074476244
20
10.296747960975301
30
0
11
-11.429757113081571
21
10.015312644091644
31
0
0
SPLINE
5
311
100
AcDbEntity
8
0
100
AcDbSpline
70
4
71
3
72
8
73
4
74
0
42
0.000000001
43
0.0000000001
44
0.0000000001
40
0
40
0
40
0
40
0
40
1
40
1
40
1
40
1
41
1
41
1
41
1
41
1
10
-11.429757113081571
20
10.015312644091644
30
0
10
-11.219586308058627
20
10.879692858665868
30
0
10
-11.115558591976168
20
11.762461378972409
30
0
10
-10.78184665179397
20
12.595134015222872
30
0
0
SPLINE
5
312
100
AcDbEntity
8
0
100
AcDbSpline
70
4
71
3
72
8
73
4
74
0
42
0.000000001
43
0.0000000001
44
0.0000000001
40
0
40
0
40
0
40
0
40
1
40
1
40
1
40
1
41
1
41
1
41
1
41
1
10
-10.78184665179397
20
12.595134015222872
30
0
10
-10.659984817725396
20
12.899130942289812
30
0
10
-10.484415908015327
20
13.336715202814172
30
0
10
-10.115454558568537
20
13.396192399355078
30
0
0
SPLINE
5
313
100
AcDbEntity
8
0
100
AcDbSpline
70
4
71
3
72
8
73
4
74
0
42
0.000000001
43
0.0000000001
44
0.0000000001
40
0
40
0
40
0
40
0
40
1
40
1
40
1
40
1
41
1
41
1
41
1
41
1
10
-10.115454558568537
20
13.396192399355078
30
0
10
-9.3033273821376508
20
13.527153411659466
30
0
10
-8.2814840489309312
20
12.57585606729233
30
0
10
-7.583477576785338
20
12.266794164745637
30
0
0
LINE
5
314
100
AcDbEntity
8
0
100
AcDbLine
10
-7.583477576785338
20
12.266794164745638
30
0
11
-7.583477576785338
21
12.219888616736787
31
0
0
SPLINE
5
315
100
AcDbEntity
8
0
100
AcDbSpline
70
4
71
3
72
8
73
4
74
0
42
0.000000001
43
0.0000000001
44
0.0000000001
40
0
40
0
40
0
40
0
40
1
40
1
40
1
40
1
41
1
41
1
41
1
41
1
10
-7.583477576785338
20
12.219888616736787
30
0
10
-8.0570383287243246
20
12.100325574488572
30
0
10
-8.6467861488685429
20
11.997555162741417
30
0
10
-8.7092183371123344
20
11.422489228509939
30
0
0
SPLINE
5
316
100
AcDbEntity
8
0
100
AcDbSpline
70
4
71
3
72
8
73
4
74
0
42
0.000000001
43
0.0000000001
44
0.0000000001
40
0
40
0
40
0
40
0
40
1
40
1
40
1
40
1
41
1
41
1
41
1
41
1
10
-8.7092183371123344
20
11.422489228509939
30
0
10
-7.7710079642381409
20
11.4423301769194
30
0
10
-6.8048408135281404
20
11.91654801635428
30
0
10
-5.8479616490974484
20
12.015801450334905
30
0
0
SPLINE
5
317
100
AcDbEntity
8
0
100
AcDbSpline
70
4
71
3
72
8
73
4
74
0
42
0.000000001
43
0.0000000001
44
0.0000000001
40
0
40
0
40
0
40
0
40
1
40
1
40
1
40
1
41
1
41
1
41
1
41
1
10
-5.8479616490974484
20
12.015801450334905
30
0
10
-3.9921325190637535
20
12.208256316751546
30
0
10
-1.8735373709105363
20
11.963125908228553
30
0
10
-0.07854373947410398
20
11.469394776518786
30
0
0
LINE
5
318
100
AcDbEntity
8
0
100
AcDbLine
10
-0.078543739474104549
20
11.469394776518786
30
0
11
-0.17235483549180586
21
11.000336253184448
31
0
0
SPLINE
5
319
100
AcDbEntity
8
0
100
AcDbSpline
70
4
71
3
72
8
73
4
74
0
42
0.000000001
43
0.0000000001
44
0.0000000001
40
0
40
0
40
0
40
0
40
1
40
1
40
1
40
1
41
1
41
1
41
1
41
1
10
-0.17235483549180586
20
11.000336253184448
30
0
10
0.78067817341485712
20
11.049681469935297
30
0
10
1.6830522977865159
20
11.76419805792721
30
0
10
2.5481831796659749
20
12.123918845008909
30
0
0
SPLINE
5
320
100
AcDbEntity
8
0
100
AcDbSpline
70
4
71
3
72
8
73
4
74
0
42
0.000000001
43
0.0000000001
44
0.0000000001
40
0
40
0
40
0
40
0
40
1
40
1
40
1
40
1
41
1
41
1
41
1
41
1
10
2.5481831796659749
20
12.123918845008909
30
0
10
2.8468797869088247
20
12.248125880396778
30
0
10
3.3598888665491278
20
12.526370861233209
30
0
10
3.6548798147838601
20
12.281991120015443
30
0
0
SPLINE
5
321
100
AcDbEntity
8
0
100
AcDbSpline
70
4
71
3
72
8
73
4
74
0
42
0.000000001
43
0.0000000001
44
0.0000000001
40
0
40
0
40
0
40
0
40
1
40
1
40
1
40
1
41
1
41
1
41
1
41
1
10
3.6548798147838601
20
12.281991120015443
30
0
10
4.050108179818233
20
11.954540911736435
30
0
10
4.1433572897722897
20
11.231534682288478
30
0
10
4.2814009495430554
20
10.765806484309639
30
0
0
SPLINE
5
322
100
AcDbEntity
8
0
100
AcDbSpline
70
4
71
3
72
8
73
4
74
0
42
0.000000001
43
0.0000000001
44
0.0000000001
40
0
40
0
40
0
40
0
40
1
40
1
40
1
40
1
41
1
41
1
41
1
41
1
10
4.2814009495430554
20
10.765806484309639
30
0
10
4.7068375871212869
20
9.3301593207175664
30
0
10
4.8893948036769386
20
7.839725616826998
30
0
10
5.0599443865947364
20
6.3566565678499076
30
0
0
SPLINE
5
323
100
AcDbEntity
8
0
100
AcDbSpline
70
4
71
3
72
8
73
4
74
0
42
0.000000001
43
0.0000000001
44
0.0000000001
40
0
40
0
40
0
40
0
40
1
40
1
40
1
40
1
41
1
41
1
41
1
41
1
10
5.0599443865947364
20
6.3566565678499076
30
0
10
5.1250028959915568
20
5.7905976268659138
30
0
10
4.9888348900685919
20
4.4330959441636031
30
0
10
5.7377807325733698
20
4.3866113784948491
30
0
0
LINE
5
324
100
AcDbEntity
8
0
100
AcDbLine
10
5.7377807325733698
20
4.3866113784948499
30
0
11
5.5501565117074136
21
6.7319029807512676
31
0
0
LINE
5
325
100
AcDbEntity
8
0
100
AcDbLine
10
5.5501565117074136
20
6.7319029807512676
30
0
11
7.8954481139638322
21
5.043293108279868
31
0
0
LINE
5
326
100
AcDbEntity
8
0
100
AcDbLine
10
7.8954481139638322
20
5.043293108279868
30
0
11
7.8954481139638322
21
4.9963865458557404
31
0
0
SPLINE
5
327
100
AcDbEntity
8
0
100
AcDbSpline
70
4
71
3
72
8
73
4
74
0
42
0.000000001
43
0.0000000001
44
0.0000000001
40
0
40
0
40
0
40
0
40
1
40
1
40
1
40
1
41
1
41
1
41
1
41
1
10
7.8954481139638322
20
4.9963865458557404
30
0
10
7.4311725586621424
20
4.9963865458557404
30
0
10
6.7200816510618022
20
5.0803010064277281
30
0
10
6.4060937479283542
20
4.6518627140438511
30
0
0
SPLINE
5
328
100
AcDbEntity
8
0
100
AcDbSpline
70
4
71
3
72
8
73
4
74
0
42
0.000000001
43
0.0000000001
44
0.0000000001
40
0
40
0
40
0
40
0
40
1
40
1
40
1
40
1
41
1
41
1
41
1
41
1
10
6.4060937479283542
20
4.6518627140438511
30
0
10
6.059693247853386
20
4.1792385210096672
30
0
10
6.4635989211701128
20
3.5436180812127471
30
0
10
6.704415021518586
20
3.1201524525183832
30
0
0
SPLINE
5
329
100
AcDbEntity
8
0
100
AcDbSpline
70
4
71
3
72
8
73
4
74
0
42
0.000000001
43
0.0000000001
44
0.0000000001
40
0
40
0
40
0
40
0
40
1
40
1
40
1
40
1
41
1
41
1
41
1
41
1
10
6.704415021518586
20
3.1201524525183832
30
0
10
7.3088442203679049
20
2.0572197212954313
30
0
10
7.5869948605835402
20
0.7738748386123917
30
0
10
8.9273762566502093
20
0.45491427178943056
30
0
0
SPLINE
5
330
100
AcDbEntity
8
0
100
AcDbSpline
70
4
71
3
72
8
73
4
74
0
42
0.000000001
43
0.0000000001
44
0.0000000001
40
0
40
0
40
0
40
0
40
1
40
1
40
1
40
1
41
1
41
1
41
1
41
1
10
8.9273762566502093
20
0.45491427178943056
30
0
10
9.5482694154507328
20
0.30716062898398233
30
0
10
10.8205429697969
20
0.12882439439733329
30
0
10
11.087766328645049
20
0.91576313228426853
30
0
0
SPLINE
5
331
100
AcDbEntity
8
0
100
AcDbSpline
70
4
71
3
72
8
73
4
74
0
42
0.000000001
43
0.0000000001
44
0.0000000001
40
0
40
0
40
0
40
0
40
1
40
1
40
1
40
1
41
1
41
1
41
1
41
1
10
11.087766328645049
20
0.91576313228426853
30
0
10
11.206014688693834
20
1.2640869637250685
30
0
10
11.131950200464802
20
1.7239985045036477
30
0
10
11.131950200464802
20
2.0882222810014484
30
0
0
SPLINE
5
332
100
AcDbEntity
8
0
100
AcDbSpline
70
4
71
3
72
8
73
4
74
0
42
0.000000001
43
0.0000000001
44
0.0000000001
40
0
40
0
40
0
40
0
40
0.94794523231871863
40
0.94794523231871863
40
0.94794523231871863
40
0.94794523231871863
41
1
41
1
41
1
41
1
10
11.131950200464802
20
2.0882222810014484
30
0
10
13.708871092213901
20
0.029397692800817946
30
0
10
15.032431123150683
20
-3.3012904739058477
30
0
10
14.135228946113553
20
-6.4481051497973034
30
0
0
ARC
5
333
100
AcDbEntity
8
0
100
AcDbCircle
10
10.762225485083242
20
-11.410246605934288
30
0
40
6.0000000149029802
210
0
220
-0
230
1
100
AcDbArc
50
50.378279152932421
51
55.794190126473239
0
SPLINE
5
334
100
AcDbEntity
8
0
100
AcDbSpline
70
4
71
3
72
8
73
4
74
0
42
0.000000001
43
0.0000000001
44
0.0000000001
40
0.19947373527622406
40
0.19947373527622406
40
0.19947373527622406
40
0.19947373527622406
40
1
40
1
40
1
40
1
41
1
41
1
41
1
41
1
10
14.588521769009297
20
-6.7886173557185856
30
0
10
14.989505558990686
20
-5.4003361683756479
30
0
10
15.099032188862747
20
-3.9291412756673449
30
0
10
14.746520803168686
20
-2.5085356256798041
30
0
0
SPLINE
5
335
100
AcDbEntity
8
0
100
AcDbSpline
70
4
71
3
72
8
73
4
74
0
42
0.000000001
43
0.0000000001
44
0.0000000001
40
0
40
0
40
0
40
0
40
1
40
1
40
1
40
1
41
1
41
1
41
1
41
1
10
14.746520803168686
20
-2.5085356256798041
30
0
10
14.546794608044081
20
-1.7035382670256904
30
0
10
14.183370190784821
20
-1.0097066209539829
30
0
10
13.852494302114241
20
-0.2570551194410875
30
0
0
SPLINE
5
336
100
AcDbEntity
8
0
100
AcDbSpline
70
4
71
3
72
8
73
4
74
0
42
0.000000001
43
0.0000000001
44
0.0000000001
40
0
40
0
40
0
40
0
40
1
40
1
40
1
40
1
41
1
41
1
41
1
41
1
10
13.852494302114241
20
-0.2570551194410875
30
0
10
14.412644274107741
20
0.058387455200064053
30
0
10
14.907735736704417
20
0.61351607157073662
30
0
10
15.316567410607895
20
1.1032128737225255
30
0
0
SPLINE
5
337
100
AcDbEntity
8
0
100
AcDbSpline
70
4
71
3
72
8
73
4
74
0
42
0.000000001
43
0.0000000001
44
0.0000000001
40
0
40
0
40
0
40
0
40
1
40
1
40
1
40
1
41
1
41
1
41
1
41
1
10
15.316567410607895
20
1.1032128737225255
30
0
10
15.695049808243965
20
1.5565591188261685
30
0
10
16.033616993547323
20
2.0600925453608543
30
0
10
16.266644413396392
20
2.6042005541585223
30
0
0
SPLINE
5
338
100
AcDbEntity
8
0
100
AcDbSpline
70
4
71
3
72
8
73
4
74
0
42
0.000000001
43
0.0000000001
44
0.0000000001
40
0
40
0
40
0
40
0
40
1
40
1
40
1
40
1
41
1
41
1
41
1
41
1
10
16.266644413396392
20
2.6042005541585223
30
0
10
17.656275671177845
20
5.8486779735699246
30
0
10
15.508458262130338
20
8.6696420867689294
30
0
10
14.308512517058398
20
11.563216016689264
30
0
0
SPLINE
5
339
100
AcDbEntity
8
0
100
AcDbSpline
70
4
71
3
72
8
73
4
74
0
42
0.000000001
43
0.0000000001
44
0.0000000001
40
0
40
0
40
0
40
0
40
0.40407574418547215
40
0.40407574418547215
40
0.40407574418547215
40
0.40407574418547215
41
1
41
1
41
1
41
1
10
14.308512517058398
20
11.563216016689264
30
0
10
14.190185688715907
20
11.848560946809661
30
0
10
14.041614990525646
20
12.158337096209708
30
0
10
13.9079638529884
20
12.477891106431699
30
0
0
ARC
5
340
100
AcDbEntity
8
0
100
AcDbCircle
10
4.9960036108132044e-15
20
-1.7763568394002505e-14
30
0
40
18.684999999999988
210
0
220
-0
230
1
100
AcDbArc
50
41.897692167679089
51
45.30982430466311
0
SPLINE
5
341
100
AcDbEntity
8
0
100
AcDbSpline
70
4
71
3
72
8
73
4
74
0
42
0.000000001
43
0.0000000001
44
0.0000000001
40
0.33413405038032257
40
0.33413405038032257
40
0.33413405038032257
40
0.33413405038032257
40
1
40
1
40
1
40
1
41
1
41
1
41
1
41
1
10
13.140652533311755
20
13.283541545791415
30
0
10
13.264119650032944
20
12.589615931560232
30
0
10
13.564760078263733
20
11.906775918630546
30
0
10
13.814967023344389
20
11.281772584483384
30
0
0
SPLINE
5
342
100
AcDbEntity
8
0
100
AcDbSpline
70
4
71
3
72
8
73
4
74
0
42
0.000000001
43
0.0000000001
44
0.0000000001
40
0
40
0
40
0
40
0
40
1
40
1
40
1
40
1
41
1
41
1
41
1
41
1
10
13.814967023344389
20
11.281772584483384
30
0
10
14.82423921522669
20
8.7607244056905902
30
0
10
16.973231317165354
20
6.1599360851920544
30
0
10
15.967055120709489
20
3.307780731045451
30
0
0
SPLINE
5
343
100
AcDbEntity
8
0
100
AcDbSpline
70
4
71
3
72
8
73
4
74
0
42
0.000000001
43
0.0000000001
44
0.0000000001
40
0
40
0
40
0
40
0
40
1
40
1
40
1
40
1
41
1
41
1
41
1
41
1
10
15.967055120709489
20
3.307780731045451
30
0
10
15.756119636770292
20
2.7098721935988634
30
0
10
15.418725115527536
20
2.1591501971929494
30
0
10
15.023214743046065
20
1.6660774209981777
30
0
0
SPLINE
5
344
100
AcDbEntity
8
0
100
AcDbSpline
70
4
71
3
72
8
73
4
74
0
42
0.000000001
43
0.0000000001
44
0.0000000001
40
0
40
0
40
0
40
0
40
1
40
1
40
1
40
1
41
1
41
1
41
1
41
1
10
15.023214743046065
20
1.6660774209981777
30
0
10
14.600875115309545
20
1.1395106811762479
30
0
10
14.051232456758722
20
0.54634149190538661
30
0
10
13.4303392979582
20
0.25890083657988283
30
0
0
LINE
5
345
100
AcDbEntity
8
0
100
AcDbLine
10
13.4303392979582
20
0.25890083657988278
30
0
11
11.647918329469103
21
2.463476809225027
31
0
0
SPLINE
5
346
100
AcDbEntity
8
0
100
AcDbSpline
70
4
71
3
72
8
73
4
74
0
42
0.000000001
43
0.0000000001
44
0.0000000001
40
0
40
0
40
0
40
0
40
1
40
1
40
1
40
1
41
1
41
1
41
1
41
1
10
11.647918329469103
20
2.463476809225027
30
0
10
12.222280259498106
20
2.7492274486984836
30
0
10
12.77272024845692
20
2.9962335110692773
30
0
10
13.239574447393604
20
3.4538463868294067
30
0
0
SPLINE
5
347
100
AcDbEntity
8
0
100
AcDbSpline
70
4
71
3
72
8
73
4
74
0
42
0.000000001
43
0.0000000001
44
0.0000000001
40
0
40
0
40
0
40
0
40
1
40
1
40
1
40
1
41
1
41
1
41
1
41
1
10
13.239574447393604
20
3.4538463868294067
30
0
10
13.557266995119894
20
3.7651602912917914
30
0
10
13.839546305514299
20
4.1332773936240175
30
0
10
14.046870471066164
20
4.5273330945977879
30
0
0
SPLINE
5
348
100
AcDbEntity
8
0
100
AcDbSpline
70
4
71
3
72
8
73
4
74
0
42
0.000000001
43
0.0000000001
44
0.0000000001
40
0
40
0
40
0
40
0
40
1
40
1
40
1
40
1
41
1
41
1
41
1
41
1
10
14.046870471066164
20
4.5273330945977879
30
0
10
15.420086460829726
20
7.1379713874392774
30
0
10
13.13657072013266
20
9.3401543544451808
30
0
10
12.630361266096358
20
11.79773868465713
30
0
0
SPLINE
5
349
100
AcDbEntity
8
0
100
AcDbSpline
70
4
71
3
72
8
73
4
74
0
42
0.000000001
43
0.0000000001
44
0.0000000001
40
0
40
0
40
0
40
0
40
0.52647684272759721
40
0.52647684272759721
40
0.52647684272759721
40
0.52647684272759721
41
1
41
1
41
1
41
1
10
12.630361266096358
20
11.79773868465713
30
0
10
12.514764783667978
20
12.35887932068222
30
0
10
12.580873839153064
20
13.023393098741769
30
0
10
12.747713526108008
20
13.661077002062537
30
0
0
ARC
5
350
100
AcDbEntity
8
0
100
AcDbCircle
10
4.9960036108132044e-15
20
-1.7763568394002505e-14
30
0
40
18.684999999999988
210
0
220
-0
230
1
100
AcDbArc
50
46.980818524385057
51
48.297596152422138
0
SPLINE
5
351
100
AcDbEntity
8
0
100
AcDbSpline
70
4
71
3
72
8
73
4
74
0
42
0.000000001
43
0.0000000001
44
0.0000000001
40
0.42338817507858617
40
0.42338817507858617
40
0.42338817507858617
40
0.42338817507858617
40
1
40
1
40
1
40
1
41
1
41
1
41
1
41
1
10
12.430414477997765
20
13.95041292955813
30
0
10
12.184336549238228
20
13.156949005462543
30
0
10
11.987895603966354
20
12.363388870595074
30
0
10
12.190662964134024
20
11.469394776518786
30
0
0
SPLINE
5
352
100
AcDbEntity
8
0
100
AcDbSpline
70
4
71
3
72
8
73
4
74
0
42
0.000000001
43
0.0000000001
44
0.0000000001
40
0
40
0
40
0
40
0
40
1
40
1
40
1
40
1
41
1
41
1
41
1
41
1
10
12.190662964134024
20
11.469394776518786
30
0
10
12.453242329842515
20
10.31185260445487
30
0
10
13.073711463057109
20
9.224246250441217
30
0
10
13.539253008624916
20
8.1390805795848387
30
0
0
SPLINE
5
353
100
AcDbEntity
8
0
100
AcDbSpline
70
4
71
3
72
8
73
4
74
0
42
0.000000001
43
0.0000000001
44
0.0000000001
40
0
40
0
40
0
40
0
40
1
40
1
40
1
40
1
41
1
41
1
41
1
41
1
10
13.539253008624916
20
8.1390805795848387
30
0
10
13.809479036693988
20
7.5090881157465939
30
0
10
14.112864271348693
20
6.7258083737650187
30
0
10
14.015957179904554
20
6.0283177317879506
30
0
0
SPLINE
5
354
100
AcDbEntity
8
0
100
AcDbSpline
70
4
71
3
72
8
73
4
74
0
42
0.000000001
43
0.0000000001
44
0.0000000001
40
0
40
0
40
0
40
0
40
1
40
1
40
1
40
1
41
1
41
1
41
1
41
1
10
14.015957179904554
20
6.0283177317879506
30
0
10
13.858166912345119
20
4.8926321512895665
30
0
10
13.125684015376265
20
3.9596297864492302
30
0
10
12.163880371981737
20
3.3664119052450547
30
0
0
SPLINE
5
355
100
AcDbEntity
8
0
100
AcDbSpline
70
4
71
3
72
8
73
4
74
0
42
0.000000001
43
0.0000000001
44
0.0000000001
40
0
40
0
40
0
40
0
40
1
40
1
40
1
40
1
41
1
41
1
41
1
41
1
10
12.163880371981737
20
3.3664119052450547
30
0
10
11.920627646137095
20
3.216408289354471
30
0
10
11.484449365187125
20
2.8945404083466575
30
0
10
11.184018107820028
20
2.9440256144057786
30
0
0
SPLINE
5
356
100
AcDbEntity
8
0
100
AcDbSpline
70
4
71
3
72
8
73
4
74
0
42
0.000000001
43
0.0000000001
44
0.0000000001
40
0
40
0
40
0
40
0
40
1
40
1
40
1
40
1
41
1
41
1
41
1
41
1
10
11.184018107820028
20
2.9440256144057786
30
0
10
10.752670472420744
20
3.0150407703111326
30
0
10
10.195898503300782
20
3.7978528668498535
30
0
10
9.8654933033188907
20
4.0842588185924722
30
0
0
SPLINE
5
357
100
AcDbEntity
8
0
100
AcDbSpline
70
4
71
3
72
8
73
4
74
0
42
0.000000001
43
0.0000000001
44
0.0000000001
40
0
40
0
40
0
40
0
40
1
40
1
40
1
40
1
41
1
41
1
41
1
41
1
10
9.8654933033188907
20
4.0842588185924722
30
0
10
8.8631617407641361
20
4.9530486963772891
30
0
10
7.8310469456667242
20
5.7896146584621722
30
0
10
6.7697088752597523
20
6.5853260596675316
30
0
0
SPLINE
5
358
100
AcDbEntity
8
0
100
AcDbSpline
70
4
71
3
72
8
73
4
74
0
42
0.000000001
43
0.0000000001
44
0.0000000001
40
0
40
0
40
0
40
0
40
1
40
1
40
1
40
1
41
1
41
1
41
1
41
1
10
6.7697088752597523
20
6.5853260596675316
30
0
10
6.4013097654804252
20
6.8615533685173347
30
0
10
5.6504882691278446
20
7.2053742105420282
30
0
10
5.4563454156897118
20
7.6329198174818469
30
0
0
SPLINE
5
359
100
AcDbEntity
8
0
100
AcDbSpline
70
4
71
3
72
8
73
4
74
0
42
0.000000001
43
0.0000000001
44
0.0000000001
40
0
40
0
40
0
40
0
40
1
40
1
40
1
40
1
41
1
41
1
41
1
41
1
10
5.4563454156897118
20
7.6329198174818469
30
0
10
5.3231324014696302
20
7.9263161049006037
30
0
10
5.345084348071234
20
8.3382904373332778
30
0
10
5.2903464997060556
20
8.6550446509280299
30
0
0
SPLINE
5
360
100
AcDbEntity
8
0
100
AcDbSpline
70
4
71
3
72
8
73
4
74
0
42
0.000000001
43
0.0000000001
44
0.0000000001
40
0
40
0
40
0
40
0
40
1
40
1
40
1
40
1
41
1
41
1
41
1
41
1
10
5.2903464997060556
20
8.6550446509280299
30
0
10
5.1079302868739518
20
9.7112244196497386
30
0
10
4.9131300923361039
20
10.83522900822957
30
0
10
4.5471706512987753
20
11.844642203835427
30
0
0
SPLINE
5
361
100
AcDbEntity
8
0
100
AcDbSpline
70
4
71
3
72
8
73
4
74
0
42
0.000000001
43
0.0000000001
44
0.0000000001
40
0
40
0
40
0
40
0
40
1
40
1
40
1
40
1
41
1
41
1
41
1
41
1
10
4.5471706512987753
20
11.844642203835427
30
0
10
4.4104396448968863
20
12.221906288723412
30
0
10
4.1691558991055588
20
12.721359737012641
30
0
10
3.7676898945308324
20
12.875257693152928
30
0
0
SPLINE
5
362
100
AcDbEntity
8
0
100
AcDbSpline
70
4
71
3
72
8
73
4
74
0
42
0.000000001
43
0.0000000001
44
0.0000000001
40
0
40
0
40
0
40
0
40
1
40
1
40
1
40
1
41
1
41
1
41
1
41
1
10
3.7676898945308324
20
12.875257693152928
30
0
10
3.5179165072834606
20
12.970945457433707
30
0
10
3.2138719026984819
20
12.849882094990308
30
0
10
2.9703371694067404
20
12.782759250504103
30
0
0
SPLINE
5
363
100
AcDbEntity
8
0
100
AcDbSpline
70
4
71
3
72
8
73
4
74
0
42
0.000000001
43
0.0000000001
44
0.0000000001
40
0
40
0
40
0
40
0
40
1
40
1
40
1
40
1
41
1
41
1
41
1
41
1
10
2.9703371694067404
20
12.782759250504103
30
0
10
4.5440756702876168
20
14.806976244499587
30
0
10
7.3631621008082693
20
13.852446973058852
30
0
10
9.4902489192480832
20
14.625037821263112
30
0
0
SPLINE
5
364
100
AcDbEntity
8
0
100
AcDbSpline
70
4
71
3
72
8
73
4
74
0
42
0.000000001
43
0.0000000001
44
0.0000000001
40
0
40
0
40
0
40
0
40
0.79401004709140999
40
0.79401004709140999
40
0.79401004709140999
40
0.79401004709140999
41
1
41
1
41
1
41
1
10
9.4902489192480832
20
14.625037821263112
30
0
10
9.9345657913961887
20
14.786422191644711
30
0
10
10.368829093256233
20
14.999681577724488
30
0
10
10.750608982691004
20
15.282461565509744
30
0
0
ARC
5
365
100
AcDbEntity
8
0
100
AcDbCircle
10
4.9960036108132044e-15
20
-1.7763568394002505e-14
30
0
40
18.684999999999985
210
0
220
-0
230
1
100
AcDbArc
50
54.875125207440178
51
56.660265860249538
0
SPLINE
5
366
100
AcDbEntity
8
0
100
AcDbSpline
70
4
71
3
72
8
73
4
74
0
42
0.000000001
43
0.0000000001
44
0.0000000001
40
0.65332312002435111
40
0.65332312002435111
40
0.65332312002435111
40
0.65332312002435111
40
1
40
1
40
1
40
1
41
1
41
1
41
1
41
1
10
10.26931918636153
20
15.609942615161208
30
0
10
10.009662728215966
20
15.440786966319955
30
0
10
9.742027660045455
20
15.304057651764932
30
0
10
9.537153452841661
20
15.206955623485374
30
0
0
SPLINE
5
367
100
AcDbEntity
8
0
100
AcDbSpline
70
4
71
3
72
8
73
4
74
0
42
0.000000001
43
0.0000000001
44
0.0000000001
40
0
40
0
40
0
40
0
40
1
40
1
40
1
40
1
41
1
41
1
41
1
41
1
10
9.537153452841661
20
15.206955623485374
30
0
10
7.624755454867187
20
14.300584702921002
30
0
10
5.3160030909004963
20
15.04243826101427
30
0
10
3.4863002263346532
20
13.976934494270905
30
0
0
SPLINE
5
368
100
AcDbEntity
8
0
100
AcDbSpline
70
4
71
3
72
8
73
4
74
0
42
0.000000001
43
0.0000000001
44
0.0000000001
40
0
40
0
40
0
40
0
40
1
40
1
40
1
40
1
41
1
41
1
41
1
41
1
10
3.4863002263346532
20
13.976934494270905
30
0
10
2.5131432471561532
20
13.410217704979559
30
0
10
1.9324970144840314
20
11.988502520806449
30
0
10
0.71885564875274532
20
11.864342148521336
30
0
0
SPLINE
5
369
100
AcDbEntity
8
0
100
AcDbSpline
70
4
71
3
72
8
73
4
74
0
42
0.000000001
43
0.0000000001
44
0.0000000001
40
0
40
0
40
0
40
0
40
1
40
1
40
1
40
1
41
1
41
1
41
1
41
1
10
0.71885564875274532
20
11.864342148521336
30
0
10
0.37025082428012279
20
11.828693566845111
30
0
10
-0.018129223216938328
20
12.004637810207795
30
0
10
-0.35997905635776206
20
12.066646987280937
30
0
0
SPLINE
5
370
100
AcDbEntity
8
0
100
AcDbSpline
70
4
71
3
72
8
73
4
74
0
42
0.000000001
43
0.0000000001
44
0.0000000001
40
0
40
0
40
0
40
0
40
1
40
1
40
1
40
1
41
1
41
1
41
1
41
1
10
-0.35997905635776206
20
12.066646987280937
30
0
10
-1.1488888031285671
20
12.209803300049487
30
0
10
-1.9517295149030578
20
12.350990632764724
30
0
10
-2.75217722103831
20
12.407511823187466
30
0
0
SPLINE
5
371
100
AcDbEntity
8
0
100
AcDbSpline
70
4
71
3
72
8
73
4
74
0
42
0.000000001
43
0.0000000001
44
0.0000000001
40
0
40
0
40
0
40
0
40
1
40
1
40
1
40
1
41
1
41
1
41
1
41
1
10
-2.75217722103831
20
12.407511823187466
30
0
10
-2.517694115266258
20
12.940878188613397
30
0
10
-2.2150118703987465
20
13.439017969118474
30
0
10
-1.8107775265321635
20
13.861592941199333
30
0
0
SPLINE
5
372
100
AcDbEntity
8
0
100
AcDbSpline
70
4
71
3
72
8
73
4
74
0
42
0.000000001
43
0.0000000001
44
0.0000000001
40
0
40
0
40
0
40
0
40
1
40
1
40
1
40
1
41
1
41
1
41
1
41
1
10
-1.8107775265321635
20
13.861592941199333
30
0
10
-1.4593130653927244
20
14.228959376226328
30
0
10
-1.0839256487678139
20
14.5406298476587
30
0
10
-0.64141437324142236
20
14.792261136486518
30
0
0
SPLINE
5
373
100
AcDbEntity
8
0
100
AcDbSpline
70
4
71
3
72
8
73
4
74
0
42
0.000000001
43
0.0000000001
44
0.0000000001
40
0
40
0
40
0
40
0
40
1
40
1
40
1
40
1
41
1
41
1
41
1
41
1
10
-0.64141437324142236
20
14.792261136486518
30
0
10
2.0703996705312466
20
16.334300174365843
30
0
10
4.9643499485194731
20
14.833848105196283
30
0
10
7.8016370179461303
20
15.338470506531189
30
0
0
SPLINE
5
374
100
AcDbEntity
8
0
100
AcDbSpline
70
4
71
3
72
8
73
4
74
0
42
0.000000001
43
0.0000000001
44
0.0000000001
40
0
40
0
40
0
40
0
40
0.57481561140658266
40
0.57481561140658266
40
0.57481561140658266
40
0.57481561140658266
41
1
41
1
41
1
41
1
10
7.8016370179461303
20
15.338470506531189
30
0
10
8.4351677265069682
20
15.451142963787676
30
0
10
8.851536575650556
20
15.82931518746407
30
0
10
9.2604976688330183
20
16.228752506755939
30
0
0
ARC
5
375
100
AcDbEntity
8
0
100
AcDbCircle
10
4.9960036108132044e-15
20
-1.7763568394002505e-14
30
0
40
18.684999999999985
210
0
220
-0
230
1
100
AcDbArc
50
60.289929903442093
51
62.077846587450466
0
SPLINE
5
376
100
AcDbEntity
8
0
100
AcDbSpline
70
4
71
3
72
8
73
4
74
0
42
0.000000001
43
0.0000000001
44
0.0000000001
40
0.54019241930642892
40
0.54019241930642892
40
0.54019241930642892
40
0.54019241930642892
40
1
40
1
40
1
40
1
41
1
41
1
41
1
41
1
10
8.749652739198142
20
16.509778979242611
30
0
10
8.4480322112152777
20
16.238537115486483
30
0
10
8.122403746515662
20
16.000252423988385
30
0
10
7.7078299795895377
20
15.87039995271677
30
0
0
SPLINE
5
377
100
AcDbEntity
8
0
100
AcDbSpline
70
4
71
3
72
8
73
4
74
0
42
0.000000001
43
0.0000000001
44
0.0000000001
40
0
40
0
40
0
40
0
40
1
40
1
40
1
40
1
41
1
41
1
41
1
41
1
10
7.7078299795895377
20
15.87039995271677
30
0
10
6.7182577323931447
20
15.560441307064909
30
0
10
5.5287259745583617
20
15.78000794339134
30
0
10
4.5182344555126974
20
15.866937753375215
30
0
0
SPLINE
5
378
100
AcDbEntity
8
0
100
AcDbSpline
70
4
71
3
72
8
73
4
74
0
42
0.000000001
43
0.0000000001
44
0.0000000001
40
0
40
0
40
0
40
0
40
1
40
1
40
1
40
1
41
1
41
1
41
1
41
1
10
4.5182344555126974
20
15.866937753375215
30
0
10
2.6029271145228194
20
16.031713284534401
30
0
10
0.51383522029571083
20
16.147007667295576
30
0
10
-1.2042768916865221
20
15.124774798622358
30
0
0
SPLINE
5
379
100
AcDbEntity
8
0
100
AcDbSpline
70
4
71
3
72
8
73
4
74
0
42
0.000000001
43
0.0000000001
44
0.0000000001
40
0
40
0
40
0
40
0
40
1
40
1
40
1
40
1
41
1
41
1
41
1
41
1
10
-1.2042768916865221
20
15.124774798622358
30
0
10
-1.8951058685373057
20
14.713743872397609
30
0
10
-2.4556311741834169
20
14.129808398188718
30
0
10
-2.8629615134764363
20
13.439448081196064
30
0
0
SPLINE
5
380
100
AcDbEntity
8
0
100
AcDbSpline
70
4
71
3
72
8
73
4
74
0
42
0.000000001
43
0.0000000001
44
0.0000000001
40
0
40
0
40
0
40
0
40
1
40
1
40
1
40
1
41
1
41
1
41
1
41
1
10
-2.8629615134764363
20
13.439448081196064
30
0
10
-3.0181264742981195
20
13.176446718732199
30
0
10
-3.1589374589454655
20
12.54833092315703
30
0
10
-3.5080104360685782
20
12.505740697737977
30
0
0
SPLINE
5
381
100
AcDbEntity
8
0
100
AcDbSpline
70
4
71
3
72
8
73
4
74
0
42
0.000000001
43
0.0000000001
44
0.0000000001
40
0
40
0
40
0
40
0
40
1
40
1
40
1
40
1
41
1
41
1
41
1
41
1
10
-3.5080104360685782
20
12.505740697737977
30
0
10
-4.1914280949031291
20
12.422385179983802
30
0
10
-4.9175785045031981
20
12.64120165621264
30
0
10
-5.6134257937309764
20
12.583460124211259
30
0
0
SPLINE
5
382
100
AcDbEntity
8
0
100
AcDbSpline
70
4
71
3
72
8
73
4
74
0
42
0.000000001
43
0.0000000001
44
0.0000000001
40
0
40
0
40
0
40
0
40
1
40
1
40
1
40
1
41
1
41
1
41
1
41
1
10
-5.6134257937309764
20
12.583460124211259
30
0
10
-5.99669369543789
20
12.551658205266701
30
0
10
-6.5670689734269585
20
12.351933024557372
30
0
10
-6.9267897605086537
20
12.49893600005759
30
0
0
SPLINE
5
383
100
AcDbEntity
8
0
100
AcDbSpline
70
4
71
3
72
8
73
4
74
0
42
0.000000001
43
0.0000000001
44
0.0000000001
40
0
40
0
40
0
40
0
40
1
40
1
40
1
40
1
41
1
41
1
41
1
41
1
10
-6.9267897605086537
20
12.49893600005759
30
0
10
-7.7503159214109925
20
12.835532176477081
30
0
10
-8.473792078736178
20
13.39807413969454
30
0
10
-9.3189881787930204
20
13.719613350152496
30
0
0
SPLINE
5
384
100
AcDbEntity
8
0
100
AcDbSpline
70
4
71
3
72
8
73
4
74
0
42
0.000000001
43
0.0000000001
44
0.0000000001
40
0
40
0
40
0
40
0
40
1
40
1
40
1
40
1
41
1
41
1
41
1
41
1
10
-9.3189881787930204
20
13.719613350152496
30
0
10
-9.6775824577092315
20
13.856062349107285
30
0
10
-10.168593181248994
20
14.015683129034677
30
0
10
-10.536617084177614
20
13.82543309422333
30
0
0
SPLINE
5
385
100
AcDbEntity
8
0
100
AcDbSpline
70
4
71
3
72
8
73
4
74
0
42
0.000000001
43
0.0000000001
44
0.0000000001
40
0
40
0
40
0
40
0
40
1
40
1
40
1
40
1
41
1
41
1
41
1
41
1
10
-10.536617084177614
20
13.82543309422333
30
0
10
-11.286649936053017
20
13.437756036513465
30
0
10
-11.542756254475858
20
11.982455591338237
30
0
10
-11.696532861188595
20
11.234870079720366
30
0
0
SPLINE
5
386
100
AcDbEntity
8
0
100
AcDbSpline
70
4
71
3
72
8
73
4
74
0
42
0.000000001
43
0.0000000001
44
0.0000000001
40
0
40
0
40
0
40
0
40
1
40
1
40
1
40
1
41
1
41
1
41
1
41
1
10
-11.696532861188595
20
11.234870079720366
30
0
10
-11.82971634641396
20
10.587428658696624
30
0
10
-11.818445194117693
20
9.8387648236389431
30
0
10
-12.036589715326723
20
9.217919342356458
30
0
0
SPLINE
5
387
100
AcDbEntity
8
0
100
AcDbSpline
70
4
71
3
72
8
73
4
74
0
42
0.000000001
43
0.0000000001
44
0.0000000001
40
0
40
0
40
0
40
0
40
1
40
1
40
1
40
1
41
1
41
1
41
1
41
1
10
-12.036589715326723
20
9.217919342356458
30
0
10
-12.21623524303164
20
8.7066449128404031
30
0
10
-12.545664512115779
20
8.2125861249960579
30
0
10
-12.773519174861882
20
7.7169326763357375
30
0
0
SPLINE
5
388
100
AcDbEntity
8
0
100
AcDbSpline
70
4
71
3
72
8
73
4
74
0
42
0.000000001
43
0.0000000001
44
0.0000000001
40
0
40
0
40
0
40
0
40
1
40
1
40
1
40
1
41
1
41
1
41
1
41
1
10
-12.773519174861882
20
7.7169326763357375
30
0
10
-13.270419973907599
20
6.6359879874483667
30
0
10
-13.714759732971395
20
5.4934074263099131
30
0
10
-14.009591164403766
20
4.3397129313929383
30
0
0
SPLINE
5
389
100
AcDbEntity
8
0
100
AcDbSpline
70
4
71
3
72
8
73
4
74
0
42
0.000000001
43
0.0000000001
44
0.0000000001
40
0
40
0
40
0
40
0
40
1
40
1
40
1
40
1
41
1
41
1
41
1
41
1
10
-14.009591164403766
20
4.3397129313929383
30
0
10
-14.195618949227011
20
3.6117807013582248
30
0
10
-14.893747658413524
20
2.9559429650839508
30
0
10
-14.655362350673371
20
2.1820435211719236
30
0
0
SPLINE
5
390
100
AcDbEntity
8
0
100
AcDbSpline
70
4
71
3
72
8
73
4
74
0
42
0.000000001
43
0.0000000001
44
0.0000000001
40
0
40
0
40
0
40
0
40
1
40
1
40
1
40
1
41
1
41
1
41
1
41
1
10
-14.655362350673371
20
2.1820435211719236
30
0
10
-14.283961078880763
20
0.97628314773027913
30
0
10
-12.908339530088904
20
0.0097868192627803552
30
0
10
-11.992620645941949
20
-0.77292992223987333
30
0
0
SPLINE
5
391
100
AcDbEntity
8
0
100
AcDbSpline
70
4
71
3
72
8
73
4
74
0
42
0.000000001
43
0.0000000001
44
0.0000000001
40
0
40
0
40
0
40
0
40
1
40
1
40
1
40
1
41
1
41
1
41
1
41
1
10
-11.992620645941949
20
-0.77292992223987333
30
0
10
-11.682606429353175
20
-1.0379012791723286
30
0
10
-11.181464138129565
20
-1.3146459398135724
30
0
10
-10.98203922434233
20
-1.676335706948584
30
0
0
SPLINE
5
392
100
AcDbEntity
8
0
100
AcDbSpline
70
4
71
3
72
8
73
4
74
0
42
0.000000001
43
0.0000000001
44
0.0000000001
40
0
40
0
40
0
40
0
40
1
40
1
40
1
40
1
41
1
41
1
41
1
41
1
10
-10.98203922434233
20
-1.676335706948584
30
0
10
-10.880511217706097
20
-1.860488598735488
30
0
10
-10.908241654133146
20
-2.1168293104883507
30
0
10
-10.887809428418906
20
-2.3209154624749573
30
0
0
SPLINE
5
393
100
AcDbEntity
8
0
100
AcDbSpline
70
4
71
3
72
8
73
4
74
0
42
0.000000001
43
0.0000000001
44
0.0000000001
40
0
40
0
40
0
40
0
40
1
40
1
40
1
40
1
41
1
41
1
41
1
41
1
10
-10.887809428418906
20
-2.3209154624749573
30
0
10
-10.829871480259452
20
-2.8996880701298311
30
0
10
-10.835640713545496
20
-3.4779412971627099
30
0
10
-10.749428475568426
20
-4.0564318973704827
30
0
0
SPLINE
5
394
100
AcDbEntity
8
0
100
AcDbSpline
70
4
71
3
72
8
73
4
74
0
42
0.000000001
43
0.0000000001
44
0.0000000001
40
0
40
0
40
0
40
0
40
0.33603322264028629
40
0.33603322264028629
40
0.33603322264028629
40
0.33603322264028629
41
1
41
1
41
1
41
1
10
-10.749428475568426
20
-4.0564318973704827
30
0
10
-10.679271892741863
20
-4.5274928750749668
30
0
10
-10.584031179796343
20
-4.9783898488871694
30
0
10
-10.465259979793203
20
-5.4176001398478331
30
0
0
LINE
5
395
100
AcDbEntity
8
0
100
AcDbLine
10
0.67195111515917061
20
0.024372082120351912
30
0
11
-0.12544827306767647
21
-0.58540511407109364
31
0
0
SPLINE
5
396
100
AcDbEntity
8
0
100
AcDbSpline
70
4
71
3
72
8
73
4
74
0
42
0.000000001
43
0.0000000001
44
0.0000000001
40
0
40
0
40
0
40
0
40
1
40
1
40
1
40
1
41
1
41
1
41
1
41
1
10
-0.12544827306767647
20
-0.58540511407109364
30
0
10
0.074416896949922595
20
-0.18436009183646185
30
0
10
0.20401859278267764
20
0.0209007530413019
30
0
10
0.67195111515917061
20
0.024372082120351912
30
0
0
LINE
5
397
100
AcDbEntity
8
0
100
AcDbLine
10
-11.99262800045271
20
3.7299357352014928
30
0
11
-11.711193824786237
21
2.9325363469746435
31
0
0
SPLINE
5
398
100
AcDbEntity
8
0
100
AcDbSpline
70
4
71
3
72
8
73
4
74
0
42
0.000000001
43
0.0000000001
44
0.0000000001
40
0
40
0
40
0
40
0
40
1
40
1
40
1
40
1
41
1
41
1
41
1
41
1
10
-11.711193824786237
20
2.9325363469746435
30
0
10
-12.081176310011578
20
3.0525680490809881
30
0
10
-12.091261436496012
20
3.3883658806772132
30
0
10
-11.99262800045271
20
3.7299357352014928
30
0
0
LINE
5
399
100
AcDbEntity
8
0
100
AcDbLine
10
-11.664289734999347
20
5.5123516316142069
30
0
11
-11.711194553897217
21
5.5123516316142069
31
0
0
SPLINE
5
400
100
AcDbEntity
8
0
100
AcDbSpline
70
4
71
3
72
8
73
4
74
0
42
0.000000001
43
0.0000000001
44
0.0000000001
40
0
40
0
40
0
40
0
40
1
40
1
40
1
40
1
41
1
41
1
41
1
41
1
10
-11.711194553897217
20
5.5123516316142069
30
0
10
-11.573108764191966
20
5.9627428850149649
30
0
10
-11.371039333177663
20
6.425234083843816
30
0
10
-11.054513997029861
20
6.7788085287601181
30
0
0
LINE
5
401
100
AcDbEntity
8
0
100
AcDbLine
10
-11.054513997029865
20
6.7788085287601181
30
0
11
-10.819984608560784
21
6.0752222653815258
31
0
0
SPLINE
5
402
100
AcDbEntity
8
0
100
AcDbSpline
70
4
71
3
72
8
73
4
74
0
42
0.000000001
43
0.0000000001
44
0.0000000001
40
0
40
0
40
0
40
0
40
1
40
1
40
1
40
1
41
1
41
1
41
1
41
1
10
-10.819984608560784
20
6.0752222653815258
30
0
10
-11.240255780145853
20
6.0651308622025635
30
0
10
-11.467359204978131
20
5.8777957496906463
30
0
10
-11.664289734999347
20
5.5123516316142069
30
0
0
LWPOLYLINE
5
403
100
AcDbEntity
8
0
100
AcDbPolyline
90
4
70
1
43
0.0
10
-11.335947348483922
20
0.39961646619115943
10
-11.335947348483922
20
0.49342756220886075
10
-11.24213637926813
20
0.49342756220885908
10
-11.24213637926813
20
0.39961646619115776
0
SPLINE
5
404
100
AcDbEntity
8
0
100
AcDbSpline
70
4
71
3
72
8
73
4
74
0
42
0.000000001
43
0.0000000001
44
0.0000000001
40
0
40
0
40
0
40
0
40
1
40
1
40
1
40
1
41
1
41
1
41
1
41
1
10
-12.508591818192079
20
3.2139716638583038
30
0
10
-13.090904481561045
20
3.466841046532112
30
0
10
-13.009789933956421
20
3.8924653509366536
30
0
10
-12.891817241259256
20
4.4335240274106402
30
0
0
SPLINE
5
405
100
AcDbEntity
8
0
100
AcDbSpline
70
4
71
3
72
8
73
4
74
0
42
0.000000001
43
0.0000000001
44
0.0000000001
40
0
40
0
40
0
40
0
40
1
40
1
40
1
40
1
41
1
41
1
41
1
41
1
10
-12.891817241259256
20
4.4335240274106402
30
0
10
-12.701594595660396
20
5.3059718866855388
30
0
10
-12.303509383601218
20
6.2745771845146248
30
0
10
-11.617380573136071
20
6.8726287545153149
30
0
0
SPLINE
5
406
100
AcDbEntity
8
0
100
AcDbSpline
70
4
71
3
72
8
73
4
74
0
42
0.000000001
43
0.0000000001
44
0.0000000001
40
0
40
0
40
0
40
0
40
1
40
1
40
1
40
1
41
1
41
1
41
1
41
1
10
-11.617380573136071
20
6.8726287545153149
30
0
10
-12.27368753987707
20
5.7301891971004126
30
0
10
-12.508591818192079
20
4.5237724969743294
30
0
10
-12.508591818192079
20
3.2139716638583038
30
0
0
SPLINE
5
407
100
AcDbEntity
8
0
100
AcDbSpline
70
4
71
3
72
8
73
4
74
0
42
0.000000001
43
0.0000000001
44
0.0000000001
40
0
40
0
40
0
40
0
40
1
40
1
40
1
40
1
41
1
41
1
41
1
41
1
10
-11.00760540577518
20
5.3716309299265452
30
0
10
-10.895566788846622
20
4.7168258684046016
30
0
10
-11.168783947162835
20
4.056812798848803
30
0
10
-11.38285181867654
20
3.448492302995616
30
0
0
SPLINE
5
408
100
AcDbEntity
8
0
100
AcDbSpline
70
4
71
3
72
8
73
4
74
0
42
0.000000001
43
0.0000000001
44
0.0000000001
40
0
40
0
40
0
40
0
40
1
40
1
40
1
40
1
41
1
41
1
41
1
41
1
10
-11.38285181867654
20
3.448492302995616
30
0
10
-11.736962699071691
20
3.9560610735035517
30
0
10
-11.384779778312078
20
4.9468526478633041
30
0
10
-11.00760540577518
20
5.3716309299265452
30
0
0
SPLINE
5
409
100
AcDbEntity
8
0
100
AcDbSpline
70
4
71
3
72
8
73
4
74
0
42
0.000000001
43
0.0000000001
44
0.0000000001
40
0
40
0
40
0
40
0
40
1
40
1
40
1
40
1
41
1
41
1
41
1
41
1
10
-7.8649154297071897
20
-0.89259034835471152
30
0
10
-7.0915784790664471
20
-0.92551826825711281
30
0
10
-6.1505997669003962
20
-0.53704388013926074
30
0
10
-5.3789061690089408
20
-0.40955419691392603
30
0
0
SPLINE
5
410
100
AcDbEntity
8
0
100
AcDbSpline
70
4
71
3
72
8
73
4
74
0
42
0.000000001
43
0.0000000001
44
0.0000000001
40
0
40
0
40
0
40
0
40
1
40
1
40
1
40
1
41
1
41
1
41
1
41
1
10
-5.3789061690089408
20
-0.40955419691392603
30
0
10
-4.1258162219725207
20
-0.20251203880915503
30
0
10
-2.8188790831844202
20
-0.21911598806862997
30
0
10
-1.5795334487406554
20
0.024372082120351912
30
0
0
SPLINE
5
411
100
AcDbEntity
8
0
100
AcDbSpline
70
4
71
3
72
8
73
4
74
0
42
0.000000001
43
0.0000000001
44
0.0000000001
40
0
40
0
40
0
40
0
40
1
40
1
40
1
40
1
41
1
41
1
41
1
41
1
10
-1.5795334487406554
20
0.024372082120351912
30
0
10
-1.4446791106018408
20
-0.39900022036849503
30
0
10
-1.216387995682664
20
-0.81130322335102978
30
0
10
-0.87594515653150795
20
-1.1013691854142849
30
0
0
LINE
5
412
100
AcDbEntity
8
0
100
AcDbLine
10
-0.87594515653150806
20
-1.1013691854142851
30
0
11
-0.87594515653150795
21
-1.1482757478384098
31
0
0
SPLINE
5
413
100
AcDbEntity
8
0
100
AcDbSpline
70
4
71
3
72
8
73
4
74
0
42
0.000000001
43
0.0000000001
44
0.0000000001
40
0
40
0
40
0
40
0
40
1
40
1
40
1
40
1
41
1
41
1
41
1
41
1
10
-0.87594515653150795
20
-1.1482757478384098
30
0
10
-2.9307964774873341
20
-2.2522517211824722
30
0
10
-4.9657125094129064
20
-2.9151254418203676
30
0
10
-7.2551397551386598
20
-2.0991967441376547
30
0
0
SPLINE
5
414
100
AcDbEntity
8
0
100
AcDbSpline
70
4
71
3
72
8
73
4
74
0
42
0.000000001
43
0.0000000001
44
0.0000000001
40
0
40
0
40
0
40
0
40
1
40
1
40
1
40
1
41
1
41
1
41
1
41
1
10
-7.2551397551386598
20
-2.0991967441376547
30
0
10
-8.3313932805759805
20
-1.7156483566065583
30
0
10
-9.2868664654322792
20
-1.0919412098267012
30
0
10
-10.30401863518895
20
-0.58540511407109364
30
0
0
SPLINE
5
415
100
AcDbEntity
8
0
100
AcDbSpline
70
4
71
3
72
8
73
4
74
0
42
0.000000001
43
0.0000000001
44
0.0000000001
40
0
40
0
40
0
40
0
40
1
40
1
40
1
40
1
41
1
41
1
41
1
41
1
10
-10.30401863518895
20
-0.58540511407109364
30
0
10
-9.6960257954703408
20
0.44267839471417325
30
0
10
-8.6708506152852021
20
-0.85825442004736185
30
0
10
-7.8649154297071897
20
-0.89259034835471152
30
0
0
SPLINE
5
416
100
AcDbEntity
8
0
100
AcDbSpline
70
4
71
3
72
8
73
4
74
0
42
0.000000001
43
0.0000000001
44
0.0000000001
40
0
40
0
40
0
40
0
40
1
40
1
40
1
40
1
41
1
41
1
41
1
41
1
10
8.3916635486877986
20
1.3388635714787922
30
0
10
8.1158582365933682
20
1.7473199117296567
30
0
10
7.8715708071658419
20
2.1850441615622906
30
0
10
7.6114321246146233
20
2.6041944676668582
30
0
0
SPLINE
5
417
100
AcDbEntity
8
0
100
AcDbSpline
70
4
71
3
72
8
73
4
74
0
42
0.000000001
43
0.0000000001
44
0.0000000001
40
0
40
0
40
0
40
0
40
1
40
1
40
1
40
1
41
1
41
1
41
1
41
1
10
7.6114321246146233
20
2.6041944676668582
30
0
10
7.2823395780016087
20
3.1344658520816271
30
0
10
6.9905389658141059
20
3.6768858738578025
30
0
10
6.8635179424468973
20
4.2928023113077014
30
0
0
SPLINE
5
418
100
AcDbEntity
8
0
100
AcDbSpline
70
4
71
3
72
8
73
4
74
0
42
0.000000001
43
0.0000000001
44
0.0000000001
40
0
40
0
40
0
40
0
40
1
40
1
40
1
40
1
41
1
41
1
41
1
41
1
10
6.8635179424468973
20
4.2928023113077014
30
0
10
7.310765522903182
20
4.5071157981204335
30
0
10
7.9189480582786542
20
4.6232075112895954
30
0
10
8.4114121853070234
20
4.5013944959562435
30
0
0
SPLINE
5
419
100
AcDbEntity
8
0
100
AcDbSpline
70
4
71
3
72
8
73
4
74
0
42
0.000000001
43
0.0000000001
44
0.0000000001
40
0
40
0
40
0
40
0
40
1
40
1
40
1
40
1
41
1
41
1
41
1
41
1
10
8.4114121853070234
20
4.5013944959562435
30
0
10
8.7709939974957241
20
4.4124607085919854
30
0
10
9.0775685537823811
20
4.0575249183734936
30
0
10
9.3495292319756995
20
3.8236981392858826
30
0
0
SPLINE
5
420
100
AcDbEntity
8
0
100
AcDbSpline
70
4
71
3
72
8
73
4
74
0
42
0.000000001
43
0.0000000001
44
0.0000000001
40
0
40
0
40
0
40
0
40
1
40
1
40
1
40
1
41
1
41
1
41
1
41
1
10
9.3495292319756995
20
3.8236981392858826
30
0
10
10.099788742264636
20
3.1785563976958642
30
0
10
10.926878036828622
20
2.3650663543398731
30
0
10
10.591782180604316
20
1.2494124323230915
30
0
0
SPLINE
5
421
100
AcDbEntity
8
0
100
AcDbSpline
70
4
71
3
72
8
73
4
74
0
42
0.000000001
43
0.0000000001
44
0.0000000001
40
0
40
0
40
0
40
0
40
1
40
1
40
1
40
1
41
1
41
1
41
1
41
1
10
10.591782180604316
20
1.2494124323230915
30
0
10
10.507634404518541
20
0.96938512384437736
30
0
10
10.208984460378447
20
0.93730119745271789
30
0
10
9.9593043993365917
20
0.89705731457014881
30
0
0
SPLINE
5
422
100
AcDbEntity
8
0
100
AcDbSpline
70
4
71
3
72
8
73
4
74
0
42
0.000000001
43
0.0000000001
44
0.0000000001
40
0
40
0
40
0
40
0
40
1
40
1
40
1
40
1
41
1
41
1
41
1
41
1
10
9.9593043993365917
20
0.89705731457014881
30
0
10
9.3913677756742473
20
0.80549619163758468
30
0
10
8.7471166906977302
20
0.81253217600120387
30
0
10
8.3916635486877986
20
1.3388635714787922
30
0
0
LINE
5
423
100
AcDbEntity
8
0
100
AcDbLine
10
-10.960700935582562
20
-0.16325416757615896
30
0
11
-10.960700935582562
21
-0.069441042727902413
31
0
0
SPLINE
5
424
100
AcDbEntity
8
0
100
AcDbSpline
70
4
71
3
72
8
73
4
74
0
42
0.000000001
43
0.0000000001
44
0.0000000001
40
0
40
0
40
0
40
0
40
1
40
1
40
1
40
1
41
1
41
1
41
1
41
1
10
-10.960700935582562
20
-0.069441042727902413
30
0
10
-10.766932211178901
20
0.078499252488575255
30
0
10
-10.645446725178221
20
0.19079299485938339
30
0
10
-10.397831252829565
20
0.11818114930749912
30
0
0
LINE
5
425
100
AcDbEntity
8
0
100
AcDbLine
10
-10.397831252829565
20
0.11818114930749911
30
0
11
-10.397831252829565
21
0.07127458688337085
31
0
0
LINE
5
426
100
AcDbEntity
8
0
100
AcDbLine
10
-10.397831252829565
20
0.07127458688337085
30
0
11
-10.960700935582562
21
-0.16325416757615896
31
0
0
LWPOLYLINE
5
427
100
AcDbEntity
8
0
100
AcDbPolyline
90
3
70
1
43
0.0
10
-0.68832195008082575
20
-0.44468745562926459
10
-1.0166618005580608
20
0.024372082120354133
10
-0.40688663319716767
20
0.024372082120351912
0
LWPOLYLINE
5
428
100
AcDbEntity
8
0
100
AcDbPolyline
90
3
70
1
43
0.0
10
-11.00760578618091
20
2.9325363469746453
10
-11.054511904798353
20
2.9325363469746435
10
-10.960699667563464
20
3.0732540054164748
0
LINE
5
429
100
AcDbEntity
8
0
100
AcDbLine
10
-8.5684996642552278
20
7.6231154938263712
30
0
11
-8.6623120282920265
21
6.5911873511399932
31
0
0
SPLINE
5
430
100
AcDbEntity
8
0
100
AcDbSpline
70
4
71
3
72
8
73
4
74
0
42
0.000000001
43
0.0000000001
44
0.0000000001
40
0
40
0
40
0
40
0
40
1
40
1
40
1
40
1
41
1
41
1
41
1
41
1
10
-8.6623120282920265
20
6.5911873511399932
30
0
10
-9.061902379018953
20
6.9134315802156987
30
0
10
-9.072362522151229
20
7.4228760045714353
30
0
10
-8.5684996642552278
20
7.6231154938263712
30
0
0
SPLINE
5
431
100
AcDbEntity
8
0
100
AcDbSpline
70
4
71
3
72
8
73
4
74
0
42
0.000000001
43
0.0000000001
44
0.0000000001
40
0
40
0
40
0
40
0
40
1
40
1
40
1
40
1
41
1
41
1
41
1
41
1
10
-8.1744462457158331
20
6.5911873511399932
30
0
10
-8.0693774225540498
20
7.1457549958622941
30
0
10
-7.9379464823724337
20
8.2573776315669356
30
0
10
-8.7561243923288252
20
8.1117816500563844
30
0
0
SPLINE
5
432
100
AcDbEntity
8
0
100
AcDbSpline
70
4
71
3
72
8
73
4
74
0
42
0.000000001
43
0.0000000001
44
0.0000000001
40
0
40
0
40
0
40
0
40
1
40
1
40
1
40
1
41
1
41
1
41
1
41
1
10
-8.7561243923288252
20
8.1117816500563844
30
0
10
-9.4620113495564198
20
7.9861676206788479
30
0
10
-9.5818548776288193
20
7.2297181483675965
30
0
10
-9.3655731715742316
20
6.6381405766668777
30
0
0
SPLINE
5
433
100
AcDbEntity
8
0
100
AcDbSpline
70
4
71
3
72
8
73
4
74
0
42
0.000000001
43
0.0000000001
44
0.0000000001
40
0
40
0
40
0
40
0
40
1
40
1
40
1
40
1
41
1
41
1
41
1
41
1
10
-9.3655731715742316
20
6.6381405766668777
30
0
10
-9.2483544430319462
20
6.317633026545975
30
0
10
-8.9500341838569888
20
5.9773778542211264
30
0
10
-8.5713161882727587
20
6.0501753377687617
30
0
0
SPLINE
5
434
100
AcDbEntity
8
0
100
AcDbSpline
70
4
71
3
72
8
73
4
74
0
42
0.000000001
43
0.0000000001
44
0.0000000001
40
0
40
0
40
0
40
0
40
1
40
1
40
1
40
1
41
1
41
1
41
1
41
1
10
-8.5713161882727587
20
6.0501753377687617
30
0
10
-8.3172269712279494
20
6.0990052315587251
30
0
10
-8.2174112975798632
20
6.3644919114520686
30
0
10
-8.1744462457158331
20
6.5911873511399932
30
0
0
SPLINE
5
435
100
AcDbEntity
8
0
100
AcDbSpline
70
4
71
3
72
8
73
4
74
0
42
0.000000001
43
0.0000000001
44
0.0000000001
40
0
40
0
40
0
40
0
40
1
40
1
40
1
40
1
41
1
41
1
41
1
41
1
10
-7.2314501151669761
20
9.0780416197642637
30
0
10
-7.2254934686584447
20
9.3096630600389414
30
0
10
-6.9540962981516881
20
9.5044155770587562
30
0
10
-6.7858925505627354
20
9.6254332908146729
30
0
0
SPLINE
5
436
100
AcDbEntity
8
0
100
AcDbSpline
70
4
71
3
72
8
73
4
74
0
42
0.000000001
43
0.0000000001
44
0.0000000001
40
0
40
0
40
0
40
0
40
1
40
1
40
1
40
1
41
1
41
1
41
1
41
1
10
-6.7858925505627354
20
9.6254332908146729
30
0
10
-5.9198694904468594
20
10.248577437115609
30
0
10
-4.7742882889180382
20
10.42044068781756
30
0
10
-3.7371988013005608
20
10.514954773622456
30
0
0
SPLINE
5
437
100
AcDbEntity
8
0
100
AcDbSpline
70
4
71
3
72
8
73
4
74
0
42
0.000000001
43
0.0000000001
44
0.0000000001
40
0
40
0
40
0
40
0
40
1
40
1
40
1
40
1
41
1
41
1
41
1
41
1
10
-3.7371988013005608
20
10.514954773622456
30
0
10
-3.5249496495772137
20
10.534327062173787
30
0
10
-2.6638530972557306
20
10.505151464382259
30
0
10
-2.8579969651091441
20
10.105842106687152
30
0
0
SPLINE
5
438
100
AcDbEntity
8
0
100
AcDbSpline
70
4
71
3
72
8
73
4
74
0
42
0.000000001
43
0.0000000001
44
0.0000000001
40
0
40
0
40
0
40
0
40
1
40
1
40
1
40
1
41
1
41
1
41
1
41
1
10
-2.8579969651091441
20
10.105842106687152
30
0
10
-2.977043669981192
20
9.8609470425085011
30
0
10
-3.2790695881642651
20
9.6926951101938759
30
0
10
-3.5026700468410299
20
9.5572787859914161
30
0
0
SPLINE
5
439
100
AcDbEntity
8
0
100
AcDbSpline
70
4
71
3
72
8
73
4
74
0
42
0.000000001
43
0.0000000001
44
0.0000000001
40
0
40
0
40
0
40
0
40
1
40
1
40
1
40
1
41
1
41
1
41
1
41
1
10
-3.5026700468410299
20
9.5572787859914161
30
0
10
-4.0501560585122327
20
9.2257942481544362
30
0
10
-4.6265813092153474
20
8.9226423290135148
30
0
10
-5.191280426520068
20
8.6209450813802988
30
0
0
SPLINE
5
440
100
AcDbEntity
8
0
100
AcDbSpline
70
4
71
3
72
8
73
4
74
0
42
0.000000001
43
0.0000000001
44
0.0000000001
40
0
40
0
40
0
40
0
40
1
40
1
40
1
40
1
41
1
41
1
41
1
41
1
10
-5.191280426520068
20
8.6209450813802988
30
0
10
-5.4275930302447986
20
8.4947203740058015
30
0
10
-5.7131088325815513
20
8.2839725568929161
30
0
10
-5.9886808291621936
20
8.2732309135211786
30
0
0
SPLINE
5
441
100
AcDbEntity
8
0
100
AcDbSpline
70
4
71
3
72
8
73
4
74
0
42
0.000000001
43
0.0000000001
44
0.0000000001
40
0
40
0
40
0
40
0
40
1
40
1
40
1
40
1
41
1
41
1
41
1
41
1
10
-5.9886808291621936
20
8.2732309135211786
30
0
10
-6.3246663275847261
20
8.2601479996893463
30
0
10
-7.2417225914729428
20
8.6814052463249443
30
0
10
-7.2314501151669761
20
9.0780416197642637
30
0
0
SPLINE
5
442
100
AcDbEntity
8
0
100
AcDbSpline
70
4
71
3
72
8
73
4
74
0
42
0.000000001
43
0.0000000001
44
0.0000000001
40
0
40
0
40
0
40
0
40
1
40
1
40
1
40
1
41
1
41
1
41
1
41
1
10
-2.3205496070224796
20
9.837446083778401
30
0
10
-1.6718411813173417
20
11.079841050545847
30
0
10
-3.7620600909175717
20
11.06417442100263
30
0
10
-4.4407870935097087
20
10.977633639277613
30
0
0
SPLINE
5
443
100
AcDbEntity
8
0
100
AcDbSpline
70
4
71
3
72
8
73
4
74
0
42
0.000000001
43
0.0000000001
44
0.0000000001
40
0
40
0
40
0
40
0
40
1
40
1
40
1
40
1
41
1
41
1
41
1
41
1
10
-4.4407870935097087
20
10.977633639277613
30
0
10
-5.71137164641911
20
10.815668038436655
30
0
10
-7.068875357951975
20
10.490141161523482
30
0
10
-7.8295460658360501
20
9.370310891809897
30
0
0
SPLINE
5
444
100
AcDbEntity
8
0
100
AcDbSpline
70
4
71
3
72
8
73
4
74
0
42
0.000000001
43
0.0000000001
44
0.0000000001
40
0
40
0
40
0
40
0
40
1
40
1
40
1
40
1
41
1
41
1
41
1
41
1
10
-7.8295460658360501
20
9.370310891809897
30
0
10
-8.0525835240338921
20
9.0419710413326637
30
0
10
-7.8832532682794554
20
8.7407881022450589
30
0
10
-7.6216596606167162
20
8.4969246984034577
30
0
0
SPLINE
5
445
100
AcDbEntity
8
0
100
AcDbSpline
70
4
71
3
72
8
73
4
74
0
42
0.000000001
43
0.0000000001
44
0.0000000001
40
0
40
0
40
0
40
0
40
1
40
1
40
1
40
1
41
1
41
1
41
1
41
1
10
-7.6216596606167162
20
8.4969246984034577
30
0
10
-7.1975366908226368
20
8.101507652127502
30
0
10
-6.4988749064078828
20
7.7042626295217804
30
0
10
-5.8948682115215769
20
7.7764981270057714
30
0
0
SPLINE
5
446
100
AcDbEntity
8
0
100
AcDbSpline
70
4
71
3
72
8
73
4
74
0
42
0.000000001
43
0.0000000001
44
0.0000000001
40
0
40
0
40
0
40
0
40
1
40
1
40
1
40
1
41
1
41
1
41
1
41
1
10
-5.8948682115215769
20
7.7764981270057714
30
0
10
-5.5546597022994852
20
7.8171660354742674
30
0
10
-5.2160002052058898
20
8.0283814980300079
30
0
10
-4.9098461240516862
20
8.1725704855508887
30
0
0
SPLINE
5
447
100
AcDbEntity
8
0
100
AcDbSpline
70
4
71
3
72
8
73
4
74
0
42
0.000000001
43
0.0000000001
44
0.0000000001
40
0
40
0
40
0
40
0
40
1
40
1
40
1
40
1
41
1
41
1
41
1
41
1
10
-4.9098461240516862
20
8.1725704855508887
30
0
10
-4.1245482028758467
20
8.5424242668379176
30
0
10
-2.7462205745297785
20
9.02217675602596
30
0
10
-2.3205496070224796
20
9.837446083778401
30
0
0
SPLINE
5
448
100
AcDbEntity
8
0
100
AcDbSpline
70
4
71
3
72
8
73
4
74
0
42
0.000000001
43
0.0000000001
44
0.0000000001
40
0
40
0
40
0
40
0
40
1
40
1
40
1
40
1
41
1
41
1
41
1
41
1
10
-5.4727147289884499
20
6.4035641446893106
30
0
10
-5.6403098274109995
20
5.8579558156964628
30
0
10
-5.9578152155186181
20
5.4734214165157908
30
0
10
-6.5046428716748297
20
5.2778238915699527
30
0
0
SPLINE
5
449
100
AcDbEntity
8
0
100
AcDbSpline
70
4
71
3
72
8
73
4
74
0
42
0.000000001
43
0.0000000001
44
0.0000000001
40
0
40
0
40
0
40
0
40
1
40
1
40
1
40
1
41
1
41
1
41
1
41
1
10
-6.5046428716748297
20
5.2778238915699527
30
0
10
-6.6556324992149882
20
5.8731984196537486
30
0
10
-5.9514355578394369
20
6.2418795368801749
30
0
10
-5.4727147289884499
20
6.4035641446893106
30
0
0
SPLINE
5
450
100
AcDbEntity
8
0
100
AcDbSpline
70
4
71
3
72
8
73
4
74
0
42
0.000000001
43
0.0000000001
44
0.0000000001
40
0
40
0
40
0
40
0
40
1
40
1
40
1
40
1
41
1
41
1
41
1
41
1
10
-5.1183409248336043
20
5.8406945253372715
30
0
10
-4.9331573871249237
20
6.3889768530011848
30
0
10
-4.9335788766726569
20
7.0744588469251202
30
0
10
-5.7072439906556198
20
6.8851933021404292
30
0
0
SPLINE
5
451
100
AcDbEntity
8
0
100
AcDbSpline
70
4
71
3
72
8
73
4
74
0
42
0.000000001
43
0.0000000001
44
0.0000000001
40
0
40
0
40
0
40
0
40
1
40
1
40
1
40
1
41
1
41
1
41
1
41
1
10
-5.7072439906556198
20
6.8851933021404292
30
0
10
-6.1171534807912717
20
6.7848615447199956
30
0
10
-6.9053597305672421
20
6.2987293978527736
30
0
10
-7.0344917521265895
20
5.8758734327400912
30
0
0
SPLINE
5
452
100
AcDbEntity
8
0
100
AcDbSpline
70
4
71
3
72
8
73
4
74
0
42
0.000000001
43
0.0000000001
44
0.0000000001
40
0
40
0
40
0
40
0
40
1
40
1
40
1
40
1
41
1
41
1
41
1
41
1
10
-7.0344917521265895
20
5.8758734327400912
30
0
10
-7.1566821299431096
20
5.4757667446369958
30
0
10
-6.9797995524488883
20
4.6506941076443571
30
0
10
-6.4575496568396717
20
4.7465218612334059
30
0
0
SPLINE
5
453
100
AcDbEntity
8
0
100
AcDbSpline
70
4
71
3
72
8
73
4
74
0
42
0.000000001
43
0.0000000001
44
0.0000000001
40
0
40
0
40
0
40
0
40
1
40
1
40
1
40
1
41
1
41
1
41
1
41
1
10
-6.4575496568396717
20
4.7465218612334059
30
0
10
-5.8570147982400558
20
4.8567035909967959
30
0
10
-5.3163309482110446
20
5.2545592915994739
30
0
10
-5.1183409248336043
20
5.8406945253372715
30
0
0
SPLINE
5
454
100
AcDbEntity
8
0
100
AcDbSpline
70
4
71
3
72
8
73
4
74
0
42
0.000000001
43
0.0000000001
44
0.0000000001
40
0
40
0
40
0
40
0
40
1
40
1
40
1
40
1
41
1
41
1
41
1
41
1
10
-1.6733435303430788
20
7.7638341666834787
30
0
10
-2.672251441336817
20
7.7519604358622329
30
0
10
-3.4832521096022195
20
6.3834878519355076
30
0
10
-3.5026710612563083
20
5.4654481124359116
30
0
0
SPLINE
5
455
100
AcDbEntity
8
0
100
AcDbSpline
70
4
71
3
72
8
73
4
74
0
42
0.000000001
43
0.0000000001
44
0.0000000001
40
0
40
0
40
0
40
0
40
1
40
1
40
1
40
1
41
1
41
1
41
1
41
1
10
-3.5026710612563083
20
5.4654481124359116
30
0
10
-3.3374694756806389
20
5.4681210966916982
30
0
10
-3.1615718954207139
20
5.4619777977721373
30
0
10
-3.0376478818952202
20
5.5905458044372836
30
0
0
SPLINE
5
456
100
AcDbEntity
8
0
100
AcDbSpline
70
4
71
3
72
8
73
4
74
0
42
0.000000001
43
0.0000000001
44
0.0000000001
40
0
40
0
40
0
40
0
40
1
40
1
40
1
40
1
41
1
41
1
41
1
41
1
10
-3.0376478818952202
20
5.5905458044372836
30
0
10
-2.8350143725857646
20
5.8008239472767631
30
0
10
-2.7607155544276663
20
6.1566047454212764
30
0
10
-2.6023612719740319
20
6.4035641446893106
30
0
0
SPLINE
5
457
100
AcDbEntity
8
0
100
AcDbSpline
70
4
71
3
72
8
73
4
74
0
42
0.000000001
43
0.0000000001
44
0.0000000001
40
0
40
0
40
0
40
0
40
1
40
1
40
1
40
1
41
1
41
1
41
1
41
1
10
-2.6023612719740319
20
6.4035641446893106
30
0
10
-2.3164219512589912
20
6.8495447204642019
30
0
10
-1.6917308216601157
20
7.2126901735221942
30
0
10
-1.6733435303430788
20
7.7638341666834787
30
0
0
SPLINE
5
458
100
AcDbEntity
8
0
100
AcDbSpline
70
4
71
3
72
8
73
4
74
0
42
0.000000001
43
0.0000000001
44
0.0000000001
40
0
40
0
40
0
40
0
40
1
40
1
40
1
40
1
41
1
41
1
41
1
41
1
10
1.1656315261050687
20
3.6361144950310176
30
0
10
1.1399749349106258
20
3.4876122137508947
30
0
10
0.99785028247912688
20
2.9625934716421809
30
0
10
0.7522035365799673
20
3.1321590717409609
30
0
0
SPLINE
5
459
100
AcDbEntity
8
0
100
AcDbSpline
70
4
71
3
72
8
73
4
74
0
42
0.000000001
43
0.0000000001
44
0.0000000001
40
0
40
0
40
0
40
0
40
1
40
1
40
1
40
1
41
1
41
1
41
1
41
1
10
0.7522035365799673
20
3.1321590717409609
30
0
10
0.58062229332511706
20
3.2505961130313299
30
0
10
0.59586591169768166
20
3.6005612683908628
30
0
10
0.48432385104738129
20
3.7768341823034035
30
0
0
LINE
5
460
100
AcDbEntity
8
0
100
AcDbLine
10
0.48432385104738129
20
3.7768341823034035
30
0
11
0.55862266920547843
21
5.1344768687292639
31
0
0
LINE
5
461
100
AcDbEntity
8
0
100
AcDbLine
10
0.55862266920547843
20
5.1344768687292639
30
0
11
0.81266573035516876
21
5.7468783572431832
31
0
0
SPLINE
5
462
100
AcDbEntity
8
0
100
AcDbSpline
70
4
71
3
72
8
73
4
74
0
42
0.000000001
43
0.0000000001
44
0.0000000001
40
0
40
0
40
0
40
0
40
1
40
1
40
1
40
1
41
1
41
1
41
1
41
1
10
0.81266573035516876
20
5.7468783572431832
30
0
10
1.4255379075577745
20
5.5520314996025766
30
0
10
1.2517046623872319
20
4.1342552899513718
30
0
10
1.1656315261050687
20
3.6361144950310176
30
0
0
SPLINE
5
463
100
AcDbEntity
8
0
100
AcDbSpline
70
4
71
3
72
8
73
4
74
0
42
0.000000001
43
0.0000000001
44
0.0000000001
40
0
40
0
40
0
40
0
40
1
40
1
40
1
40
1
41
1
41
1
41
1
41
1
10
1.6528886595148595
20
5.6061627276319097
30
0
10
1.546084932625007
20
6.0591316102523844
30
0
10
1.1834091538404246
20
6.4869135759518226
30
0
10
0.6730284241837059
20
6.3123783554093631
30
0
0
SPLINE
5
464
100
AcDbEntity
8
0
100
AcDbSpline
70
4
71
3
72
8
73
4
74
0
42
0.000000001
43
0.0000000001
44
0.0000000001
40
0
40
0
40
0
40
0
40
1
40
1
40
1
40
1
41
1
41
1
41
1
41
1
10
0.6730284241837059
20
6.3123783554093631
30
0
10
0.35378787874419837
20
6.2032293003983057
30
0
10
0.20842622716271242
20
5.8612384635339287
30
0
10
0.12939008965944687
20
5.5592581940383345
30
0
0
SPLINE
5
465
100
AcDbEntity
8
0
100
AcDbSpline
70
4
71
3
72
8
73
4
74
0
42
0.000000001
43
0.0000000001
44
0.0000000001
40
0
40
0
40
0
40
0
40
1
40
1
40
1
40
1
41
1
41
1
41
1
41
1
10
0.12939008965944687
20
5.5592581940383345
30
0
10
-0.057436800798522647
20
4.8457742807987518
30
0
10
-0.063675454754155147
20
3.9285298428765891
30
0
10
0.11963040027617389
20
3.2139655773666398
30
0
0
SPLINE
5
466
100
AcDbEntity
8
0
100
AcDbSpline
70
4
71
3
72
8
73
4
74
0
42
0.000000001
43
0.0000000001
44
0.0000000001
40
0
40
0
40
0
40
0
40
1
40
1
40
1
40
1
41
1
41
1
41
1
41
1
10
0.11963040027617389
20
3.2139655773666398
30
0
10
0.23206210312469944
20
2.7757706388453207
30
0
10
0.52705305135942959
20
2.3330737253231759
30
0
10
1.0462084731651267
20
2.4992146594456588
30
0
0
SPLINE
5
467
100
AcDbEntity
8
0
100
AcDbSpline
70
4
71
3
72
8
73
4
74
0
42
0.000000001
43
0.0000000001
44
0.0000000001
40
0
40
0
40
0
40
0
40
1
40
1
40
1
40
1
41
1
41
1
41
1
41
1
10
1.0462084731651267
20
2.4992146594456588
30
0
10
1.379756331676214
20
2.6059250601299966
30
0
10
1.5472089047522974
20
2.9933667734955183
30
0
10
1.6197730727861459
20
3.3077766733843417
30
0
0
SPLINE
5
468
100
AcDbEntity
8
0
100
AcDbSpline
70
4
71
3
72
8
73
4
74
0
42
0.000000001
43
0.0000000001
44
0.0000000001
40
0
40
0
40
0
40
0
40
1
40
1
40
1
40
1
41
1
41
1
41
1
41
1
10
1.6197730727861459
20
3.3077766733843417
30
0
10
1.7878829869619461
20
4.0358955558300842
30
0
10
1.8249395770431165
20
4.876261517543881
30
0
10
1.6528886595148595
20
5.6061627276319097
30
0
0
SPLINE
5
469
100
AcDbEntity
8
0
100
AcDbSpline
70
4
71
3
72
8
73
4
74
0
42
0.000000001
43
0.0000000001
44
0.0000000001
40
0
40
0
40
0
40
0
40
1
40
1
40
1
40
1
41
1
41
1
41
1
41
1
10
-8.5215963986807512
20
0.63415130714235435
30
0
10
-8.5266621349719589
20
1.1402654061425865
30
0
10
-8.7034503718453884
20
1.3731528366833845
30
0
10
-9.2251831692669821
20
1.3846441329450743
30
0
0
SPLINE
5
470
100
AcDbEntity
8
0
100
AcDbSpline
70
4
71
3
72
8
73
4
74
0
42
0.000000001
43
0.0000000001
44
0.0000000001
40
0
40
0
40
0
40
0
40
1
40
1
40
1
40
1
41
1
41
1
41
1
41
1
10
-9.2251831692669821
20
1.3846441329450743
30
0
10
-9.2246513620578376
20
0.81750483969071697
30
0
10
-9.1050578873513039
20
0.63551062361398625
30
0
10
-8.5215963986807512
20
0.63415130714235435
30
0
0
SPLINE
5
471
100
AcDbEntity
8
0
100
AcDbSpline
70
4
71
3
72
8
73
4
74
0
42
0.000000001
43
0.0000000001
44
0.0000000001
40
0
40
0
40
0
40
0
40
1
40
1
40
1
40
1
41
1
41
1
41
1
41
1
10
-7.5863402566979863
20
0.4353624317340099
30
0
10
-7.0778813367841851
20
0.603426697222329
30
0
10
-7.2697260324115085
20
1.3422862086245324
30
0
10
-7.8133174502291913
20
1.1523186884679215
30
0
0
SPLINE
5
472
100
AcDbEntity
8
0
100
AcDbSpline
70
4
71
3
72
8
73
4
74
0
42
0.000000001
43
0.0000000001
44
0.0000000001
40
0
40
0
40
0
40
0
40
1
40
1
40
1
40
1
41
1
41
1
41
1
41
1
10
-7.8133174502291913
20
1.1523186884679215
30
0
10
-8.2834078875044028
20
0.9880077595057557
30
0
10
-8.1353260813567356
20
0.25393223055148129
30
0
10
-7.5863402566979863
20
0.4353624317340099
30
0
0
ARC
5
473
100
AcDbEntity
8
0
100
AcDbCircle
10
4.4297898682543746e-13
20
-13.684999985099754
30
0
40
8.0000000149021826
210
0
220
0
230
1
100
AcDbArc
50
112.73081134653371
51
118.61086164784598
0
SPLINE
5
474
100
AcDbEntity
8
0
100
AcDbSpline
70
4
71
3
72
8
73
4
74
0
42
0.000000001
43
0.0000000001
44
0.0000000001
40
0.47417402280196885
40
0.47417402280196885
40
0.47417402280196885
40
0.47417402280196885
40
1
40
1
40
1
40
1
41
1
41
1
41
1
41
1
10
-3.0912167263281032
20
-6.3063565197125371
30
0
10
-2.9901209784937475
20
-6.1286587412668929
30
0
10
-2.8552100727761331
20
-5.9903765780122162
30
0
10
-2.6612247472721484
20
-6.0364244429351244
30
0
0
SPLINE
5
475
100
AcDbEntity
8
0
100
AcDbSpline
70
4
71
3
72
8
73
4
74
0
42
0.000000001
43
0.0000000001
44
0.0000000001
40
0
40
0
40
0
40
0
40
0.11351717339968333
40
0.11351717339968333
40
0.11351717339968333
40
0.11351717339968333
41
1
41
1
41
1
41
1
10
-2.6612247472721484
20
-6.0364244429351244
30
0
10
-2.6159922005858194
20
-6.0471641240827605
30
0
10
-2.5724641389468106
20
-6.067567525513482
30
0
10
-2.5305207667684018
20
-6.0957665002617487
30
0
0
ARC
5
476
100
AcDbEntity
8
0
100
AcDbCircle
10
4.4297898682543746e-13
20
-13.684999985099754
30
0
40
8.0000000149021471
210
0
220
0
230
1
100
AcDbArc
50
100.6325374145357
51
108.44022315806468
0
SPLINE
5
477
100
AcDbEntity
8
0
100
AcDbSpline
70
4
71
3
72
8
73
4
74
0
42
0.000000001
43
0.0000000001
44
0.0000000001
40
0.38997167045175612
40
0.38997167045175612
40
0.38997167045175612
40
0.38997167045175612
40
1
40
1
40
1
40
1
41
1
41
1
41
1
41
1
10
-1.4760761241525322
20
-5.8223541508948404
30
0
10
-2.2764096724808534
20
-5.6336734413293268
30
0
10
-3.0690792490862719
20
-5.3960243236075778
30
0
10
-3.8310104045259008
20
-5.1242500525690948
30
0
0
SPLINE
5
478
100
AcDbEntity
8
0
100
AcDbSpline
70
4
71
3
72
8
73
4
74
0
42
0.000000001
43
0.0000000001
44
0.0000000001
40
0
40
0
40
0
40
0
40
1
40
1
40
1
40
1
41
1
41
1
41
1
41
1
10
-3.8310104045259008
20
-5.1242500525690948
30
0
10
-4.4562178715009431
20
-4.9012125943712537
30
0
10
-5.1373378797323213
20
-4.4167217714227647
30
0
10
-5.8010561010885988
20
-4.3847798631699364
30
0
0
SPLINE
5
479
100
AcDbEntity
8
0
100
AcDbSpline
70
4
71
3
72
8
73
4
74
0
42
0.000000001
43
0.0000000001
44
0.0000000001
40
0
40
0
40
0
40
0
40
1
40
1
40
1
40
1
41
1
41
1
41
1
41
1
10
-5.8010561010885988
20
-4.3847798631699364
30
0
10
-5.7480523956400278
20
-5.2415610929016188
30
0
10
-4.144669129901855
20
-5.6150261925759715
30
0
10
-3.4557634844169027
20
-5.7919544187576744
30
0
0
SPLINE
5
480
100
AcDbEntity
8
0
100
AcDbSpline
70
4
71
3
72
8
73
4
74
0
42
0.000000001
43
0.0000000001
44
0.0000000001
40
0
40
0
40
0
40
0
40
0.21548214411651745
40
0.21548214411651745
40
0.21548214411651745
40
0.21548214411651745
41
1
41
1
41
1
41
1
10
-3.4557634844169027
20
-5.7919544187576744
30
0
10
-3.5773550189345809
20
-6.0722922660994598
30
0
10
-3.6993647476055553
20
-6.3671419239346294
30
0
10
-3.8308663263579295
20
-6.6618622655324966
30
0
0
LINE
5
481
100
AcDbEntity
8
0
100
AcDbLine
10
4.0491698456866949
20
-4.0564400126927014
30
0
11
4.1898864897132455
21
-4.8538394009195507
31
0
0
SPLINE
5
482
100
AcDbEntity
8
0
100
AcDbSpline
70
4
71
3
72
8
73
4
74
0
42
0.000000001
43
0.0000000001
44
0.0000000001
40
0
40
0
40
0
40
0
40
1
40
1
40
1
40
1
41
1
41
1
41
1
41
1
10
4.1898864897132455
20
-4.8538394009195507
30
0
10
3.6242962085873853
20
-4.7359176825900695
30
0
10
3.4686159248048143
20
-4.2754908188506047
30
0
10
4.0491698456866949
20
-4.0564400126927014
30
0
0
SPLINE
5
483
100
AcDbEntity
8
0
100
AcDbSpline
70
4
71
3
72
8
73
4
74
0
42
0.000000001
43
0.0000000001
44
0.0000000001
40
0
40
0
40
0
40
0
40
1
40
1
40
1
40
1
41
1
41
1
41
1
41
1
10
4.3276968339702249
20
-5.3971034162064724
30
0
10
5.0320337646540469
20
-5.2317598124919762
30
0
10
4.79863202556764
20
-3.2887792227363066
30
0
10
3.9084532016601425
20
-3.4810920710141202
30
0
0
SPLINE
5
484
100
AcDbEntity
8
0
100
AcDbSpline
70
4
71
3
72
8
73
4
74
0
42
0.000000001
43
0.0000000001
44
0.0000000001
40
0
40
0
40
0
40
0
40
1
40
1
40
1
40
1
41
1
41
1
41
1
41
1
10
3.9084532016601425
20
-3.4810920710141202
30
0
10
3.5409447484943191
20
-3.5604558646519679
30
0
10
3.0354413274910441
20
-3.8874850905908787
30
0
10
2.9876430940381349
20
-4.2909687671522345
30
0
0
SPLINE
5
485
100
AcDbEntity
8
0
100
AcDbSpline
70
4
71
3
72
8
73
4
74
0
42
0.000000001
43
0.0000000001
44
0.0000000001
40
0
40
0
40
0
40
0
40
1
40
1
40
1
40
1
41
1
41
1
41
1
41
1
10
2.9876430940381349
20
-4.2909687671522345
30
0
10
2.909404286942856
20
-4.9517304751827096
30
0
10
3.7252853071075331
20
-5.5385230500202187
30
0
10
4.3276968339702249
20
-5.3971034162064724
30
0
0
ARC
5
486
100
AcDbEntity
8
0
100
AcDbCircle
10
5.6228664404720785
20
-6.6576695345768355
30
0
40
0.99999999999999845
210
-0
220
0
230
1
100
AcDbArc
50
276.79719293384852
51
317.23916642982209
0
ARC
5
487
100
AcDbEntity
8
0
100
AcDbCircle
10
10.762225485084656
20
-11.410246605933176
30
0
40
6.0000000149016515
210
0
220
0
230
1
100
AcDbArc
50
127.83244482825022
51
137.23916642982189
0
SPLINE
5
488
100
AcDbEntity
8
0
100
AcDbSpline
70
4
71
3
72
8
73
4
74
0
42
0.000000001
43
0.0000000001
44
0.0000000001
40
0.97106972464002539
40
0.97106972464002539
40
0.97106972464002539
40
0.97106972464002539
40
1
40
1
40
1
40
1
41
1
41
1
41
1
41
1
10
7.082099101672819
20
-6.6713997017869895
30
0
10
7.1034913772222641
20
-6.6286369570657939
30
0
10
7.1244490035933072
20
-6.5856527623352381
30
0
10
7.1449573169916647
20
-6.5424431868992849
30
0
0
SPLINE
5
489
100
AcDbEntity
8
0
100
AcDbSpline
70
4
71
3
72
8
73
4
74
0
42
0.000000001
43
0.0000000001
44
0.0000000001
40
0
40
0
40
0
40
0
40
0.05451260902802172
40
0.05451260902802172
40
0.05451260902802172
40
0.05451260902802172
41
1
41
1
41
1
41
1
10
7.1449573169916647
20
-6.5424431868992849
30
0
10
7.1531728931601881
20
-6.563397529077216
30
0
10
7.1609089770509247
20
-6.5845083941455052
30
0
10
7.1682141293424113
20
-6.6057609358936062
30
0
0
ARC
5
490
100
AcDbEntity
8
0
100
AcDbCircle
10
10.762225485084656
20
-11.410246605933176
30
0
40
6.0000000149016417
210
0
220
0
230
1
100
AcDbArc
50
120.78715874521257
51
126.79844675921657
0
SPLINE
5
491
100
AcDbEntity
8
0
100
AcDbSpline
70
4
71
3
72
8
73
4
74
0
42
0.000000001
43
0.0000000001
44
0.0000000001
40
0.33269906267725863
40
0.33269906267725863
40
0.33269906267725863
40
0.33269906267725863
40
1
40
1
40
1
40
1
41
1
41
1
41
1
41
1
10
7.6911234371528838
20
-6.2557987800250583
30
0
10
7.7227301142258131
20
-5.0887357291516437
30
0
10
8.3618219485626089
20
-3.9892254573741348
30
0
10
9.1959122688672359
20
-3.0245179564979852
30
0
0
SPLINE
5
492
100
AcDbEntity
8
0
100
AcDbSpline
70
4
71
3
72
8
73
4
74
0
42
0.000000001
43
0.0000000001
44
0.0000000001
40
0
40
0
40
0
40
0
40
1
40
1
40
1
40
1
41
1
41
1
41
1
41
1
10
9.1959122688672359
20
-3.0245179564979852
30
0
10
9.6794170801661537
20
-2.4653539961540627
30
0
10
10.653511379060912
20
-1.9363039677332061
30
0
10
10.662892691545739
20
-1.1482838631606285
30
0
0
SPLINE
5
493
100
AcDbEntity
8
0
100
AcDbSpline
70
4
71
3
72
8
73
4
74
0
42
0.000000001
43
0.0000000001
44
0.0000000001
40
0
40
0
40
0
40
0
40
1
40
1
40
1
40
1
41
1
41
1
41
1
41
1
10
10.662892691545739
20
-1.1482838631606285
30
0
10
10.206405816743453
20
-1.1629198467820689
30
0
10
9.9404951112641839
20
-1.4503584732770181
30
0
10
9.6309645488593567
20
-1.7582477117631079
30
0
0
SPLINE
5
494
100
AcDbEntity
8
0
100
AcDbSpline
70
4
71
3
72
8
73
4
74
0
42
0.000000001
43
0.0000000001
44
0.0000000001
40
0
40
0
40
0
40
0
40
1
40
1
40
1
40
1
41
1
41
1
41
1
41
1
10
9.6309645488593567
20
-1.7582477117631079
30
0
10
9.1290257831406496
20
-2.2575611707440624
30
0
10
8.6322463335224864
20
-2.7722572229905795
30
0
10
8.2237899932716196
20
-3.3528578069752202
30
0
0
LINE
5
495
100
AcDbEntity
8
0
100
AcDbLine
10
8.2237899932716179
20
-3.3528578069752202
30
0
11
8.1768834308474894
21
-3.3528578069752202
31
0
0
SPLINE
5
496
100
AcDbEntity
8
0
100
AcDbSpline
70
4
71
3
72
8
73
4
74
0
42
0.000000001
43
0.0000000001
44
0.0000000001
40
0
40
0
40
0
40
0
40
1
40
1
40
1
40
1
41
1
41
1
41
1
41
1
10
8.1768834308474894
20
-3.3528578069752202
30
0
10
8.1768834308474894
20
-2.6660154821643722
30
0
10
8.234952618983451
20
-0.99002493574306349
30
0
10
7.2856729466029391
20
-0.91375510870109977
30
0
0
SPLINE
5
497
100
AcDbEntity
8
0
100
AcDbSpline
70
4
71
3
72
8
73
4
74
0
42
0.000000001
43
0.0000000001
44
0.0000000001
40
0
40
0
40
0
40
0
40
1
40
1
40
1
40
1
41
1
41
1
41
1
41
1
10
7.2856729466029391
20
-0.91375510870109977
30
0
10
7.3176635467890838
20
-1.7164558311673161
30
0
10
7.7479298155027276
20
-2.412068790466031
30
0
10
7.7026666058278881
20
-3.2590467109575183
30
0
0
SPLINE
5
498
100
AcDbEntity
8
0
100
AcDbSpline
70
4
71
3
72
8
73
4
74
0
42
0.000000001
43
0.0000000001
44
0.0000000001
40
0
40
0
40
0
40
0
40
0.87575124914083979
40
0.87575124914083979
40
0.87575124914083979
40
0.87575124914083979
41
1
41
1
41
1
41
1
10
7.7026666058278881
20
-3.2590467109575183
30
0
10
7.6162792006810518
20
-4.8755009147355759
30
0
10
6.7165219708617743
20
-6.3670898874586159
30
0
10
5.7412217607275089
20
-7.6506408424036163
30
0
0
ARC
5
499
100
AcDbEntity
8
0
100
AcDbCircle
10
10.762225485084237
20
-11.410246605933075
30
0
40
6.0000000149014259
210
0
220
-0
230
1
100
AcDbArc
50
67.881537226386612
51
75.660088707904748
0
SPLINE
5
500
100
AcDbEntity
8
0
100
AcDbSpline
70
4
71
3
72
8
73
4
74
0
42
0.000000001
43
0.0000000001
44
0.0000000001
40
0.79979503016702014
40
0.79979503016702014
40
0.79979503016702014
40
0.79979503016702014
40
1
40
1
40
1
40
1
41
1
41
1
41
1
41
1
10
13.02136231863097
20
-5.851802493941884
30
0
10
13.075445400366412
20
-5.8156790013709934
30
0
10
13.119953099161844
20
-5.7759235436610465
30
0
10
13.148763991766268
20
-5.7365572004622223
30
0
0
SPLINE
5
501
100
AcDbEntity
8
0
100
AcDbSpline
70
4
71
3
72
8
73
4
74
0
42
0.000000001
43
0.0000000001
44
0.0000000001
40
0
40
0
40
0
40
0
40
1
40
1
40
1
40
1
41
1
41
1
41
1
41
1
10
13.148763991766268
20
-5.7365572004622223
30
0
10
13.314154258583525
20
-5.510612428079531
30
0
10
13.289388324002584
20
-5.2126177962085984
30
0
10
13.289621639516373
20
-4.9476484681067001
30
0
0
SPLINE
5
502
100
AcDbEntity
8
0
100
AcDbSpline
70
4
71
3
72
8
73
4
74
0
42
0.000000001
43
0.0000000001
44
0.0000000001
40
0
40
0
40
0
40
0
40
1
40
1
40
1
40
1
41
1
41
1
41
1
41
1
10
13.289621639516373
20
-4.9476484681067001
30
0
10
12.892656595527194
20
-4.8949739404156256
30
0
10
12.503386905831908
20
-4.8643913486344248
30
0
10
12.30460005925412
20
-5.2759883185839307
30
0
0
SPLINE
5
503
100
AcDbEntity
8
0
100
AcDbSpline
70
4
71
3
72
8
73
4
74
0
42
0.000000001
43
0.0000000001
44
0.0000000001
40
0
40
0
40
0
40
0
40
1
40
1
40
1
40
1
41
1
41
1
41
1
41
1
10
12.30460005925412
20
-5.2759883185839307
30
0
10
12.264822807399124
20
-4.5698213827397893
30
0
10
12.23855756703828
20
-3.9137949652239312
30
0
10
12.116929175285405
20
-3.2121320332111702
30
0
0
SPLINE
5
504
100
AcDbEntity
8
0
100
AcDbSpline
70
4
71
3
72
8
73
4
74
0
42
0.000000001
43
0.0000000001
44
0.0000000001
40
0
40
0
40
0
40
0
40
1
40
1
40
1
40
1
41
1
41
1
41
1
41
1
10
12.116929175285405
20
-3.2121320332111702
30
0
10
12.060361321759906
20
-2.8859954927163178
30
0
10
11.981324169841358
20
-2.4396872608068465
30
0
10
11.717620832005577
20
-2.2114904865084606
30
0
0
SPLINE
5
505
100
AcDbEntity
8
0
100
AcDbSpline
70
4
71
3
72
8
73
4
74
0
42
0.000000001
43
0.0000000001
44
0.0000000001
40
0
40
0
40
0
40
0
40
1
40
1
40
1
40
1
41
1
41
1
41
1
41
1
10
11.717620832005577
20
-2.2114904865084606
30
0
10
11.42276885866384
20
-1.9563224388162048
30
0
10
11.032184486769122
20
-2.1780472436451692
30
0
10
10.75670784522455
20
-2.3446101745230274
30
0
0
SPLINE
5
506
100
AcDbEntity
8
0
100
AcDbSpline
70
4
71
3
72
8
73
4
74
0
42
0.000000001
43
0.0000000001
44
0.0000000001
40
0
40
0
40
0
40
0
40
1
40
1
40
1
40
1
41
1
41
1
41
1
41
1
10
10.75670784522455
20
-2.3446101745230274
30
0
10
10.129858039915497
20
-2.7237499132588106
30
0
10
9.183110348067224
20
-3.2390586723328418
30
0
10
9.1212878234051118
20
-4.0564379838621489
30
0
0
SPLINE
5
507
100
AcDbEntity
8
0
100
AcDbSpline
70
4
71
3
72
8
73
4
74
0
42
0.000000001
43
0.0000000001
44
0.0000000001
40
0
40
0
40
0
40
0
40
0.68281546568517382
40
0.68281546568517382
40
0.68281546568517382
40
0.68281546568517382
41
1
41
1
41
1
41
1
10
9.1212878234051118
20
-4.0564379838621489
30
0
10
9.0821166033065719
20
-4.5742029383914096
30
0
10
9.285498056131658
20
-5.0711927444132492
30
0
10
9.5319612921487398
20
-5.5377300930233408
30
0
0
ARC
5
508
100
AcDbEntity
8
0
100
AcDbCircle
10
10.762225485084237
20
-11.410246605933075
30
0
40
6.0000000149014063
210
0
220
0
230
1
100
AcDbArc
50
95.800689277162263
51
101.83207663084487
0
SPLINE
5
509
100
AcDbEntity
8
0
100
AcDbSpline
70
4
71
3
72
8
73
4
74
0
42
0.000000001
43
0.0000000001
44
0.0000000001
40
0.38675758897418444
40
0.38675758897418444
40
0.38675758897418444
40
0.38675758897418444
40
1
40
1
40
1
40
1
41
1
41
1
41
1
41
1
10
10.155815889103959
20
-5.4409696329052775
30
0
10
9.8792161274481032
20
-4.9971832550012785
30
0
10
9.6159953623414829
20
-4.5003441931039889
30
0
10
9.6815777847068816
20
-4.1502511087104033
30
0
0
SPLINE
5
510
100
AcDbEntity
8
0
100
AcDbSpline
70
4
71
3
72
8
73
4
74
0
42
0.000000001
43
0.0000000001
44
0.0000000001
40
0
40
0
40
0
40
0
40
1
40
1
40
1
40
1
41
1
41
1
41
1
41
1
10
9.6815777847068816
20
-4.1502511087104033
30
0
10
9.7545162719780656
20
-3.7606973827374635
30
0
10
10.129622695571157
20
-3.4742914309948469
30
0
10
10.428365965916765
20
-3.2551472986314289
30
0
0
SPLINE
5
511
100
AcDbEntity
8
0
100
AcDbSpline
70
4
71
3
72
8
73
4
74
0
42
0.000000001
43
0.0000000001
44
0.0000000001
40
0
40
0
40
0
40
0
40
1
40
1
40
1
40
1
41
1
41
1
41
1
41
1
10
10.428365965916765
20
-3.2551472986314289
30
0
10
10.621289492191535
20
-3.113632309781611
30
0
10
11.039924475335216
20
-2.7314432387221466
30
0
10
11.301893163046749
20
-2.8309776657345909
30
0
0
SPLINE
5
512
100
AcDbEntity
8
0
100
AcDbSpline
70
4
71
3
72
8
73
4
74
0
42
0.000000001
43
0.0000000001
44
0.0000000001
40
0
40
0
40
0
40
0
40
1
40
1
40
1
40
1
41
1
41
1
41
1
41
1
10
11.301893163046749
20
-2.8309776657345909
30
0
10
11.589611768158242
20
-2.9403154019872346
30
0
10
11.594255761297898
20
-3.4784180723430591
30
0
10
11.643554314945991
20
-3.7280981333849139
30
0
0
SPLINE
5
513
100
AcDbEntity
8
0
100
AcDbSpline
70
4
71
3
72
8
73
4
74
0
42
0.000000001
43
0.0000000001
44
0.0000000001
40
0
40
0
40
0
40
0
40
0.63790863611128401
40
0.63790863611128401
40
0.63790863611128401
40
0.63790863611128401
41
1
41
1
41
1
41
1
10
11.643554314945991
20
-3.7280981333849139
30
0
10
11.776765904939799
20
-4.4033695538935138
30
0
10
11.722769083449434
20
-4.9706261510745131
30
0
10
11.410469402217224
20
-5.4453677301538583
30
0
0
ARC
5
514
100
AcDbEntity
8
0
100
AcDbCircle
10
10.762225485084237
20
-11.410246605933075
30
0
40
6.0000000149014241
210
0
220
-0
230
1
100
AcDbArc
50
77.295041305444315
51
83.797619936586955
0
SPLINE
5
515
100
AcDbEntity
8
0
100
AcDbSpline
70
4
71
3
72
8
73
4
74
0
42
0.000000001
43
0.0000000001
44
0.0000000001
40
0.84457102229186121
40
0.84457102229186121
40
0.84457102229186121
40
0.84457102229186121
40
1
40
1
40
1
40
1
41
1
41
1
41
1
41
1
10
12.081809278559865
20
-5.557153509901406
30
0
10
12.140765577255642
20
-5.4514026039194956
30
0
10
12.18511013618313
20
-5.3550324684832571
30
0
10
12.210786934405862
20
-5.2759883185839307
30
0
0
LINE
5
516
100
AcDbEntity
8
0
100
AcDbLine
10
12.210786934405862
20
-5.2759883185839307
30
0
11
12.25769349682999
21
-5.2759883185839307
31
0
0
SPLINE
5
517
100
AcDbEntity
8
0
100
AcDbSpline
70
4
71
3
72
8
73
4
74
0
42
0.000000001
43
0.0000000001
44
0.0000000001
40
0
40
0
40
0
40
0
40
0.54104820266422782
40
0.54104820266422782
40
0.54104820266422782
40
0.54104820266422782
41
1
41
1
41
1
41
1
10
12.25769349682999
20
-5.2759883185839307
30
0
10
12.25769349682999
20
-5.3691014052672026
30
0
10
12.245404394405256
20
-5.4854611596050784
30
0
10
12.248269207192353
20
-5.5971859461084961
30
0
0
CIRCLE
5
518
100
AcDbEntity
8
0
100
AcDbCircle
10
0
20
0
30
0
40
20.684999999999999
210
0
220
-0
230
1
0
ENDSEC
0
SECTION
2
OBJECTS
0
DICTIONARY
5
C
100
AcDbDictionary
3
ACAD_GROUP
350
D
3
ACAD_MLINESTYLE
350
17
0
DICTIONARY
5
D
100
AcDbDictionary
0
DICTIONARY
5
1A
330
C
100
AcDbDictionary
0
DICTIONARY
5
17
100
AcDbDictionary
0
ENDSEC
0
EOF
