0
SECTION
2
HEADER
9
$INSUNITS
70
4
9
$ACADVER
1
AC1014
9
$HANDSEED
5
FFFF
0
ENDSEC
0
SECTION
2
TABLES
0
TABLE
2
VPORT
5
8
100
AcDbSymbolTable
0
ENDTAB
0
TABLE
2
LTYPE
5
5
100
AcDbSymbolTable
0
LTYPE
5
14
100
AcDbSymbolTableRecord
100
AcDbLinetypeTableRecord
2
BYBLOCK
70
0
0
LTYPE
5
15
100
AcDbSymbolTableRecord
100
AcDbLinetypeTableRecord
2
BYLAYER
70
0
0
ENDTAB
0
TABLE
2
LAYER
5
2
100
AcDbSymbolTable
70
2
0
LAYER
5
50
100
AcDbSymbolTableRecord
100
AcDbLayerTableRecord
2
0
70
0
6
CONTINUOUS
0
ENDTAB
0
TABLE
2
STYLE
5
3
100
AcDbSymbolTable
70
1
0
STYLE
5
11
100
AcDbSymbolTableRecord
100
AcDbTextStyleTableRecord
2
STANDARD
70
0
0
ENDTAB
0
TABLE
2
VIEW
5
6
100
AcDbSymbolTable
70
0
0
ENDTAB
0
TABLE
2
UCS
5
7
100
AcDbSymbolTable
70
0
0
ENDTAB
0
TABLE
2
APPID
5
9
100
AcDbSymbolTable
70
2
0
APPID
5
12
100
AcDbSymbolTableRecord
100
AcDbRegAppTableRecord
2
ACAD
70
0
0
ENDTAB
0
TABLE
2
DIMSTYLE
5
A
100
AcDbSymbolTable
70
1
0
ENDTAB
0
TABLE
2
BLOCK_RECORD
5
1
100
AcDbSymbolTable
70
1
0
BLOCK_RECORD
5
1F
100
AcDbSymbolTableRecord
100
AcDbBlockTableRecord
2
*MODEL_SPACE
0
BLOCK_RECORD
5
1B
100
AcDbSymbolTableRecord
100
AcDbBlockTableRecord
2
*PAPER_SPACE
0
ENDTAB
0
ENDSEC
0
SECTION
2
BLOCKS
0
BLOCK
5
20
100
AcDbEntity
100
AcDbBlockBegin
2
*MODEL_SPACE
0
ENDBLK
5
21
100
AcDbEntity
100
AcDbBlockEnd
0
BLOCK
5
1C
100
AcDbEntity
100
AcDbBlockBegin
2
*PAPER_SPACE
0
ENDBLK
5
1D
100
AcDbEntity
100
AcDbBlockEnd
0
ENDSEC
0
SECTION
2
ENTITIES
0
LWPOLYLINE
5
100
100
AcDbEntity
8
0
100
AcDbPolyline
90
8
70
1
43
0.0
10
-7.0912547358069062
20
-8.0155486949308337
42
0.39342646008748006
10
-4.3733405668804384
20
-8.2192985209961584
42
-0.35082988103369223
10
4.3733405668804375
20
-8.2192985209961602
42
0.39342646008747967
10
7.0912547358069045
20
-8.0155486949308372
42
-0.45861202855152022
10
14.664806964496391
20
-8.2845694080185126
42
0.5650239788083784
10
18.060822820097421
20
-7.8298086861077421
42
1.5234526665911512
10
-18.060822820097421
20
-7.8298086861077376
42
0.56502397880837796
10
-14.664806964496398
20
-8.2845694080185126
42
-0.45861202855152039
0
CIRCLE
5
101
100
AcDbEntity
8
0
100
AcDbCircle
10
-7.6245580763737788
20
-16.799570721358347
30
0
40
1.2361663706911485
210
0
220
0
230
1
0
CIRCLE
5
102
100
AcDbEntity
8
0
100
AcDbCircle
10
-10.762225485084318
20
-11.410246605932821
30
0
40
4
210
0
220
0
230
1
0
CIRCLE
5
103
100
AcDbEntity
8
0
100
AcDbCircle
10
10.762225485084315
20
-11.410246605932821
30
0
40
3.9999999999999991
210
0
220
0
230
1
0
CIRCLE
5
104
100
AcDbEntity
8
0
100
AcDbCircle
10
0
20
-13.684999985098836
30
0
40
6.0000000000000009
210
0
220
0
230
1
0
CIRCLE
5
105
100
AcDbEntity
8
0
100
AcDbCircle
10
7.6245580763737788
20
-16.799570721358347
30
0
40
1.2361663706911474
210
0
220
0
230
1
0
CIRCLE
5
106
100
AcDbEntity
8
0
100
AcDbCircle
10
2.2204460492503131e-15
20
-1.1102230246251565e-15
30
0
40
20.284999999999997
210
0
220
0
230
1
0
ARC
5
107
100
AcDbEntity
8
0
100
AcDbCircle
10
-10.762225485084215
20
-11.4102466059332
30
0
40
6.0000000149015271
210
0
220
0
230
1
100
AcDbArc
50
99.308676703471107
51
104.51545957394585
0
SPLINE
5
108
100
AcDbEntity
8
0
100
AcDbSpline
70
4
71
3
72
8
73
4
74
0
42
0.000000001
43
0.0000000001
44
0.0000000001
40
0.10583472026701553
40
0.10583472026701553
40
0.10583472026701553
40
0.10583472026701553
40
1
40
1
40
1
40
1
41
1
41
1
41
1
41
1
10
-11.732745082067089
20
-5.489259197511311
30
0
10
-11.678103345765315
20
-5.1892188639963619
30
0
10
-11.535098708034695
20
-4.8561071931034867
30
0
10
-11.605642246391785
20
-4.5662303615555588
30
0
0
SPLINE
5
109
100
AcDbEntity
8
0
100
AcDbSpline
70
4
71
3
72
8
73
4
74
0
42
0.000000001
43
0.0000000001
44
0.0000000001
40
0
40
0
40
0
40
0
40
1
40
1
40
1
40
1
41
1
41
1
41
1
41
1
10
-11.605642246391785
20
-4.5662303615555588
30
0
10
-11.726457339847157
20
-4.0699837600703281
30
0
10
-12.40723849368357
20
-3.8230159958079124
30
0
10
-12.776691560492546
20
-3.5367627722933204
30
0
0
LINE
5
110
100
AcDbEntity
8
0
100
AcDbLine
10
-12.776691560492544
20
-3.5367627722933204
30
0
11
-12.776691560492546
21
-3.4724643284372902
31
0
0
SPLINE
5
111
100
AcDbEntity
8
0
100
AcDbSpline
70
4
71
3
72
8
73
4
74
0
42
0.000000001
43
0.0000000001
44
0.0000000001
40
0
40
0
40
0
40
0
40
1
40
1
40
1
40
1
41
1
41
1
41
1
41
1
10
-12.776691560492546
20
-3.4724643284372902
30
0
10
-12.275557220465924
20
-3.1527770265473887
30
0
10
-11.84328645818762
20
-3.1322666016581913
30
0
10
-11.812230893830815
20
-2.44370591318817
30
0
0
SPLINE
5
112
100
AcDbEntity
8
0
100
AcDbSpline
70
4
71
3
72
8
73
4
74
0
42
0.000000001
43
0.0000000001
44
0.0000000001
40
0
40
0
40
0
40
0
40
1
40
1
40
1
40
1
41
1
41
1
41
1
41
1
10
-11.812230893830815
20
-2.44370591318817
30
0
10
-11.403942032762785
20
-2.4913512825714523
30
0
10
-11.001632829635755
20
-2.6205238527176933
30
0
10
-10.590578885185206
20
-2.5180329119120559
30
0
0
SPLINE
5
113
100
AcDbEntity
8
0
100
AcDbSpline
70
4
71
3
72
8
73
4
74
0
42
0.000000001
43
0.0000000001
44
0.0000000001
40
0
40
0
40
0
40
0
40
1
40
1
40
1
40
1
41
1
41
1
41
1
41
1
10
-10.590578885185206
20
-2.5180329119120559
30
0
10
-10.162035110453292
20
-2.4112368676856111
30
0
10
-9.8045422286121173
20
-2.0908403917825913
30
0
10
-9.433224625126984
20
-1.8656067252163178
30
0
0
SPLINE
5
114
100
AcDbEntity
8
0
100
AcDbSpline
70
4
71
3
72
8
73
4
74
0
42
0.000000001
43
0.0000000001
44
0.0000000001
40
0
40
0
40
0
40
0
40
1
40
1
40
1
40
1
41
1
41
1
41
1
41
1
10
-9.433224625126984
20
-1.8656067252163178
30
0
10
-8.6979822096091528
20
-1.419705916513343
30
0
10
-7.9345146683692249
20
-1.0175875646280774
30
0
10
-7.1828138535979331
20
-0.60016774050683175
30
0
0
SPLINE
5
115
100
AcDbEntity
8
0
100
AcDbSpline
70
4
71
3
72
8
73
4
74
0
42
0.000000001
43
0.0000000001
44
0.0000000001
40
0
40
0
40
0
40
0
40
1
40
1
40
1
40
1
41
1
41
1
41
1
41
1
10
-7.1828138535979331
20
-0.60016774050683175
30
0
10
-6.8159963763872176
20
-0.39647349641742213
30
0
10
-6.4332982681631412
20
-0.087587888123401569
30
0
10
-6.0254599411740326
20
0.021844614787105421
30
0
0
SPLINE
5
116
100
AcDbEntity
8
0
100
AcDbSpline
70
4
71
3
72
8
73
4
74
0
42
0.000000001
43
0.0000000001
44
0.0000000001
40
0
40
0
40
0
40
0
40
1
40
1
40
1
40
1
41
1
41
1
41
1
41
1
10
-6.0254599411740326
20
0.021844614787105421
30
0
10
-5.5384708416345543
20
0.15249671659992803
30
0
10
-4.9095113620866186
20
-0.15613025175989392
30
0
10
-4.4180224839070403
20
-0.21952762745808041
30
0
0
SPLINE
5
117
100
AcDbEntity
8
0
100
AcDbSpline
70
4
71
3
72
8
73
4
74
0
42
0.000000001
43
0.0000000001
44
0.0000000001
40
0
40
0
40
0
40
0
40
1
40
1
40
1
40
1
41
1
41
1
41
1
41
1
10
-4.4180224839070403
20
-0.21952762745808041
30
0
10
-3.5360554414182999
20
-0.33326801486396107
30
0
10
-2.5768656063187745
20
-0.28035250918711174
30
0
10
-1.7175302533408199
20
-0.051517351064025441
30
0
0
SPLINE
5
118
100
AcDbEntity
8
0
100
AcDbSpline
70
4
71
3
72
8
73
4
74
0
42
0.000000001
43
0.0000000001
44
0.0000000001
40
0
40
0
40
0
40
0
40
1
40
1
40
1
40
1
41
1
41
1
41
1
41
1
10
-1.7175302533408199
20
-0.051517351064025441
30
0
10
-1.1081189468838892
20
0.1107694738829812
30
0
10
-0.52706069557887147
20
0.35786238650065361
30
0
10
0.018501310563672213
20
0.67375630268901698
30
0
0
SPLINE
5
119
100
AcDbEntity
8
0
100
AcDbSpline
70
4
71
3
72
8
73
4
74
0
42
0.000000001
43
0.0000000001
44
0.0000000001
40
0
40
0
40
0
40
0
40
1
40
1
40
1
40
1
41
1
41
1
41
1
41
1
10
0.018501310563672213
20
0.67375630268901698
30
0
10
0.4161824579864648
20
0.90400702776377795
30
0
10
0.73766911511749633
20
1.1276318426963661
30
0
10
0.79007151253779107
20
1.6070334755641236
30
0
0
SPLINE
5
120
100
AcDbEntity
8
0
100
AcDbSpline
70
4
71
3
72
8
73
4
74
0
42
0.000000001
43
0.0000000001
44
0.0000000001
40
0
40
0
40
0
40
0
40
1
40
1
40
1
40
1
41
1
41
1
41
1
41
1
10
0.79007151253779107
20
1.6070334755641236
30
0
10
0.19011168797725908
20
1.5532169017294306
30
0
10
-0.2888394108115766
20
1.1123929446380121
30
0
10
-0.81736594472920032
20
0.85263223739385996
30
0
0
SPLINE
5
121
100
AcDbEntity
8
0
100
AcDbSpline
70
4
71
3
72
8
73
4
74
0
42
0.000000001
43
0.0000000001
44
0.0000000001
40
0
40
0
40
0
40
0
40
1
40
1
40
1
40
1
41
1
41
1
41
1
41
1
10
-0.81736594472920032
20
0.85263223739385996
30
0
10
-1.5634726280205435
20
0.48587802962941407
30
0
10
-2.3692486565607207
20
0.27839039983845737
30
0
10
-3.196370822895751
20
0.20862992554413928
30
0
0
SPLINE
5
122
100
AcDbEntity
8
0
100
AcDbSpline
70
4
71
3
72
8
73
4
74
0
42
0.000000001
43
0.0000000001
44
0.0000000001
40
0
40
0
40
0
40
0
40
1
40
1
40
1
40
1
41
1
41
1
41
1
41
1
10
-3.196370822895751
20
0.20862992554413928
30
0
10
-5.3233964404405176
20
0.029111562615646847
30
0
10
-7.4488764757978725
20
1.4143995650047891
30
0
10
-9.047439524139925
20
2.6651127599124713
30
0
0
SPLINE
5
123
100
AcDbEntity
8
0
100
AcDbSpline
70
4
71
3
72
8
73
4
74
0
42
0.000000001
43
0.0000000001
44
0.0000000001
40
0
40
0
40
0
40
0
40
1
40
1
40
1
40
1
41
1
41
1
41
1
41
1
10
-9.047439524139925
20
2.6651127599124713
30
0
10
-9.7380592506882273
20
3.2054699850136403
30
0
10
-10.527567731216712
20
3.927015608317328
30
0
10
-10.724189007428233
20
4.8219069995608255
30
0
0
SPLINE
5
124
100
AcDbEntity
8
0
100
AcDbSpline
70
4
71
3
72
8
73
4
74
0
42
0.000000001
43
0.0000000001
44
0.0000000001
40
0
40
0
40
0
40
0
40
1
40
1
40
1
40
1
41
1
41
1
41
1
41
1
10
-10.724189007428233
20
4.8219069995608255
30
0
10
-10.880174960322417
20
5.5317512516480694
30
0
10
-10.54518549092789
20
6.1849464054599927
30
0
10
-10.269091880419856
20
6.8151253862030359
30
0
0
SPLINE
5
125
100
AcDbEntity
8
0
100
AcDbSpline
70
4
71
3
72
8
73
4
74
0
42
0.000000001
43
0.0000000001
44
0.0000000001
40
0
40
0
40
0
40
0
40
1
40
1
40
1
40
1
41
1
41
1
41
1
41
1
10
-10.269091880419856
20
6.8151253862030359
30
0
10
-9.8619602940036231
20
6.6362494514981911
30
0
10
-9.2036823787967013
20
6.2043638680466184
30
0
10
-8.7527005468703276
20
6.4746064453121122
30
0
0
SPLINE
5
126
100
AcDbEntity
8
0
100
AcDbSpline
70
4
71
3
72
8
73
4
74
0
42
0.000000001
43
0.0000000001
44
0.0000000001
40
0
40
0
40
0
40
0
40
1
40
1
40
1
40
1
41
1
41
1
41
1
41
1
10
-8.7527005468703276
20
6.4746064453121122
30
0
10
-8.364986770675042
20
6.7069137750249137
30
0
10
-8.4688258373742418
20
7.5267050288164983
30
0
10
-8.4687625679279748
20
7.9081822453081863
30
0
0
SPLINE
5
127
100
AcDbEntity
8
0
100
AcDbSpline
70
4
71
3
72
8
73
4
74
0
42
0.000000001
43
0.0000000001
44
0.0000000001
40
0
40
0
40
0
40
0
40
1
40
1
40
1
40
1
41
1
41
1
41
1
41
1
10
-8.4687625679279748
20
7.9081822453081863
30
0
10
-8.468580407544211
20
8.8647356217236499
30
0
10
-8.457644527100749
20
9.8340193669432239
30
0
10
-8.8247776562741667
20
10.737270668317828
30
0
0
SPLINE
5
128
100
AcDbEntity
8
0
100
AcDbSpline
70
4
71
3
72
8
73
4
74
0
42
0.000000001
43
0.0000000001
44
0.0000000001
40
0
40
0
40
0
40
0
40
1
40
1
40
1
40
1
41
1
41
1
41
1
41
1
10
-8.8247776562741667
20
10.737270668317828
30
0
10
-9.0329737648095971
20
11.249721200734164
30
0
10
-9.2965939082761224
20
11.665533563759007
30
0
10
-9.8833064317984736
20
11.701732030248198
30
0
0
SPLINE
5
129
100
AcDbEntity
8
0
100
AcDbSpline
70
4
71
3
72
8
73
4
74
0
42
0.000000001
43
0.0000000001
44
0.0000000001
40
0
40
0
40
0
40
0
40
1
40
1
40
1
40
1
41
1
41
1
41
1
41
1
10
-9.8833064317984736
20
11.701732030248198
30
0
10
-9.6284313772897931
20
12.551679866044662
30
0
10
-9.3405731261190397
20
13.306210424182023
30
0
10
-8.7914075426137632
20
14.016440550364639
30
0
0
SPLINE
5
130
100
AcDbEntity
8
0
100
AcDbSpline
70
4
71
3
72
8
73
4
74
0
42
0.000000001
43
0.0000000001
44
0.0000000001
40
0
40
0
40
0
40
0
40
1
40
1
40
1
40
1
41
1
41
1
41
1
41
1
10
-8.7914075426137632
20
14.016440550364639
30
0
10
-8.4117317671691225
20
14.507428835123193
30
0
10
-7.9478255864879932
20
14.942625983108568
30
0
10
-7.4400041526788545
20
15.298242682523862
30
0
0
SPLINE
5
131
100
AcDbEntity
8
0
100
AcDbSpline
70
4
71
3
72
8
73
4
74
0
42
0.000000001
43
0.0000000001
44
0.0000000001
40
0
40
0
40
0
40
0
40
1
40
1
40
1
40
1
41
1
41
1
41
1
41
1
10
-7.4400041526788545
20
15.298242682523862
30
0
10
-5.4974479060502404
20
16.658519786115068
30
0
10
-2.6040645155277686
20
17.660955330641986
30
0
10
-0.49587928759816879
20
16.10261009679877
30
0
0
SPLINE
5
132
100
AcDbEntity
8
0
100
AcDbSpline
70
4
71
3
72
8
73
4
74
0
42
0.000000001
43
0.0000000001
44
0.0000000001
40
0
40
0
40
0
40
0
40
1
40
1
40
1
40
1
41
1
41
1
41
1
41
1
10
-0.49587928759816879
20
16.10261009679877
30
0
10
0.43418296308413762
20
15.415109693005222
30
0
10
1.0962553068955594
20
14.394805744422294
30
0
10
1.6096708721846475
20
13.37346654083394
30
0
0
SPLINE
5
133
100
AcDbEntity
8
0
100
AcDbSpline
70
4
71
3
72
8
73
4
74
0
42
0.000000001
43
0.0000000001
44
0.0000000001
40
0
40
0
40
0
40
0
40
1
40
1
40
1
40
1
41
1
41
1
41
1
41
1
10
1.6096708721846475
20
13.37346654083394
30
0
10
2.4674613382438282
20
11.6670770601405
30
0
10
3.0609927089560407
20
9.7994923262653426
30
0
10
3.3321349638420972
20
7.9081822453081863
30
0
0
SPLINE
5
134
100
AcDbEntity
8
0
100
AcDbSpline
70
4
71
3
72
8
73
4
74
0
42
0.000000001
43
0.0000000001
44
0.0000000001
40
0
40
0
40
0
40
0
40
1
40
1
40
1
40
1
41
1
41
1
41
1
41
1
10
3.3321349638420972
20
7.9081822453081863
30
0
10
3.535829207931509
20
6.4870795647193047
30
0
10
3.4877986597214927
20
4.9715260298813524
30
0
10
3.0395812159089997
20
3.6002546432808957
30
0
0
SPLINE
5
135
100
AcDbEntity
8
0
100
AcDbSpline
70
4
71
3
72
8
73
4
74
0
42
0.000000001
43
0.0000000001
44
0.0000000001
40
0
40
0
40
0
40
0
40
1
40
1
40
1
40
1
41
1
41
1
41
1
41
1
10
3.0395812159089997
20
3.6002546432808957
30
0
10
2.797307905505968
20
2.858970343278755
30
0
10
2.1013537303148722
20
1.6785321214592219
30
0
10
2.5976656870522907
20
0.90837887697405861
30
0
0
SPLINE
5
136
100
AcDbEntity
8
0
100
AcDbSpline
70
4
71
3
72
8
73
4
74
0
42
0.000000001
43
0.0000000001
44
0.0000000001
40
0
40
0
40
0
40
0
40
1
40
1
40
1
40
1
41
1
41
1
41
1
41
1
10
2.5976656870522907
20
0.90837887697405861
30
0
10
2.9524598836660942
20
0.35779842178574217
30
0
10
3.8812358873638253
20
0.14645344157834028
30
0
10
4.455025800303023
20
-0.093375304285356897
30
0
0
SPLINE
5
137
100
AcDbEntity
8
0
100
AcDbSpline
70
4
71
3
72
8
73
4
74
0
42
0.000000001
43
0.0000000001
44
0.0000000001
40
0
40
0
40
0
40
0
40
1
40
1
40
1
40
1
41
1
41
1
41
1
41
1
10
4.455025800303023
20
-0.093375304285356897
30
0
10
5.3042032784460247
20
-0.44823207507678653
30
0
10
6.1664323395049525
20
-0.77139293909368689
30
0
10
7.0269232289631045
20
-1.0977019795139231
30
0
0
SPLINE
5
138
100
AcDbEntity
8
0
100
AcDbSpline
70
4
71
3
72
8
73
4
74
0
42
0.000000001
43
0.0000000001
44
0.0000000001
40
0
40
0
40
0
40
0
40
1
40
1
40
1
40
1
41
1
41
1
41
1
41
1
10
7.0269232289631045
20
-1.0977019795139231
30
0
10
7.5136557743743104
20
-1.2822985845912527
30
0
10
7.9989087881189302
20
-1.5098488862670401
30
0
10
8.5057651890553174
20
-1.6337513201197185
30
0
0
SPLINE
5
139
100
AcDbEntity
8
0
100
AcDbSpline
70
4
71
3
72
8
73
4
74
0
42
0.000000001
43
0.0000000001
44
0.0000000001
40
0
40
0
40
0
40
0
40
1
40
1
40
1
40
1
41
1
41
1
41
1
41
1
10
8.5057651890553174
20
-1.6337513201197185
30
0
10
8.7814725778336609
20
-1.701133975664173
30
0
10
9.058595533563679
20
-1.732254200004526
30
0
10
9.3416310538109073
20
-1.7059563589533733
30
0
0
SPLINE
5
140
100
AcDbEntity
8
0
100
AcDbSpline
70
4
71
3
72
8
73
4
74
0
42
0.000000001
43
0.0000000001
44
0.0000000001
40
0
40
0
40
0
40
0
40
1
40
1
40
1
40
1
41
1
41
1
41
1
41
1
10
9.3416310538109073
20
-1.7059563589533733
30
0
10
9.5678297532499315
20
-1.6849314352703448
30
0
10
9.8584548259747997
20
-1.5928556186965803
30
0
10
10.081374638506118
20
-1.6617205869821783
30
0
0
SPLINE
5
141
100
AcDbEntity
8
0
100
AcDbSpline
70
4
71
3
72
8
73
4
74
0
42
0.000000001
43
0.0000000001
44
0.0000000001
40
0
40
0
40
0
40
0
40
1
40
1
40
1
40
1
41
1
41
1
41
1
41
1
10
10.081374638506118
20
-1.6617205869821783
30
0
10
10.336507637680356
20
-1.7405473643461633
30
0
10
10.304422380467248
20
-2.1022872946766835
30
0
10
10.419514370109892
20
-2.2968484899069619
30
0
0
SPLINE
5
142
100
AcDbEntity
8
0
100
AcDbSpline
70
4
71
3
72
8
73
4
74
0
42
0.000000001
43
0.0000000001
44
0.0000000001
40
0
40
0
40
0
40
0
40
1
40
1
40
1
40
1
41
1
41
1
41
1
41
1
10
10.419514370109892
20
-2.2968484899069619
30
0
10
10.538399745454079
20
-2.4977143811675839
30
0
10
10.751354967832448
20
-2.594932404605097
30
0
10
10.949067120540619
20
-2.7009024696868522
30
0
0
SPLINE
5
143
100
AcDbEntity
8
0
100
AcDbSpline
70
4
71
3
72
8
73
4
74
0
42
0.000000001
43
0.0000000001
44
0.0000000001
40
0
40
0
40
0
40
0
40
1
40
1
40
1
40
1
41
1
41
1
41
1
41
1
10
10.949067120540619
20
-2.7009024696868522
30
0
10
10.846706890239361
20
-3.1347167283466471
30
0
10
10.855000054580998
20
-3.4002648517527545
30
0
10
11.077661227178117
20
-3.7939593287920026
30
0
0
SPLINE
5
144
100
AcDbEntity
8
0
100
AcDbSpline
70
4
71
3
72
8
73
4
74
0
42
0.000000001
43
0.0000000001
44
0.0000000001
40
0
40
0
40
0
40
0
40
1
40
1
40
1
40
1
41
1
41
1
41
1
41
1
10
11.077661227178117
20
-3.7939593287920026
30
0
10
9.7301165781969381
20
-4.5346651652854053
30
0
10
8.0768344973250716
20
-5.2585927789508036
30
0
10
6.5125426308012635
20
-5.2506166571091484
30
0
0
SPLINE
5
145
100
AcDbEntity
8
0
100
AcDbSpline
70
4
71
3
72
8
73
4
74
0
42
0.000000001
43
0.0000000001
44
0.0000000001
40
0
40
0
40
0
40
0
40
1
40
1
40
1
40
1
41
1
41
1
41
1
41
1
10
6.5125426308012635
20
-5.2506166571091484
30
0
10
5.6257525097546823
20
-5.2460612569778231
30
0
10
4.7708543612391985
20
-4.8908735383136026
30
0
10
3.8763467582851519
20
-4.8870134068225912
30
0
0
LINE
5
146
100
AcDbEntity
8
0
100
AcDbLine
10
3.876346758285151
20
-4.8870134068225912
30
0
11
3.8763467582851527
21
-5.337096951665683
31
0
0
SPLINE
5
147
100
AcDbEntity
8
0
100
AcDbSpline
70
4
71
3
72
8
73
4
74
0
42
0.000000001
43
0.0000000001
44
0.0000000001
40
0
40
0
40
0
40
0
40
1
40
1
40
1
40
1
41
1
41
1
41
1
41
1
10
3.8763467582851519
20
-5.337096951665683
30
0
10
4.4198535503269332
20
-5.4184322582839117
30
0
10
5.3321711547712036
20
-5.434378939818103
30
0
10
5.7729297566104343
20
-5.7833843297326704
30
0
0
SPLINE
5
148
100
AcDbEntity
8
0
100
AcDbSpline
70
4
71
3
72
8
73
4
74
0
42
0.000000001
43
0.0000000001
44
0.0000000001
40
0
40
0
40
0
40
0
40
1
40
1
40
1
40
1
41
1
41
1
41
1
41
1
10
5.7729297566104343
20
-5.7833843297326704
30
0
10
6.1198785418869583
20
-6.0580627209233562
30
0
10
6.2720061014617334
20
-6.6235608600581974
30
0
10
6.464320188446524
20
-7.0088286811768619
30
0
0
SPLINE
5
149
100
AcDbEntity
8
0
100
AcDbSpline
70
4
71
3
72
8
73
4
74
0
42
0.000000001
43
0.0000000001
44
0.0000000001
40
0
40
0
40
0
40
0
40
0.047343119910068669
40
0.047343119910068669
40
0.047343119910068669
40
0.047343119910068669
41
1
41
1
41
1
41
1
10
6.464320188446524
20
-7.0088286811768619
30
0
10
6.4879937073521097
20
-7.05625182121147
30
0
10
6.5119037159744568
20
-7.1037220859003591
30
0
10
6.536012661623996
20
-7.1512413993577599
30
0
0
ARC
5
150
100
AcDbEntity
8
0
100
AcDbCircle
10
10.76222548508418
20
-11.410246605932684
30
0
40
6.0000000149009702
210
0
220
0
230
1
100
AcDbArc
50
129.19565394555977
51
134.77857306763951
0
SPLINE
5
151
100
AcDbEntity
8
0
100
AcDbSpline
70
4
71
3
72
8
73
4
74
0
42
0.000000001
43
0.0000000001
44
0.0000000001
40
0.7626059830786992
40
0.7626059830786992
40
0.7626059830786992
40
0.7626059830786992
40
1
40
1
40
1
40
1
41
1
41
1
41
1
41
1
10
6.9704023615845134
20
-6.7602920277776599
30
0
10
6.812363553576164
20
-6.4164264772930188
30
0
10
6.6591768554199664
20
-6.0707526471736788
30
0
10
6.5125523645622296
20
-5.7228903958764299
30
0
0
SPLINE
5
152
100
AcDbEntity
8
0
100
AcDbSpline
70
4
71
3
72
8
73
4
74
0
42
0.000000001
43
0.0000000001
44
0.0000000001
40
0
40
0
40
0
40
0
40
1
40
1
40
1
40
1
41
1
41
1
41
1
41
1
10
6.5125523645622296
20
-5.7228903958764299
30
0
10
7.3543989301617785
20
-5.708929401578966
30
0
10
8.2256303295754662
20
-5.5908227271119326
30
0
10
9.0201555209781183
20
-5.305275896535897
30
0
0
SPLINE
5
153
100
AcDbEntity
8
0
100
AcDbSpline
70
4
71
3
72
8
73
4
74
0
42
0.000000001
43
0.0000000001
44
0.0000000001
40
0
40
0
40
0
40
0
40
1
40
1
40
1
40
1
41
1
41
1
41
1
41
1
10
9.0201555209781183
20
-5.305275896535897
30
0
10
9.6500132876093403
20
-5.0788853029521475
30
0
10
10.2753684945259
20
-4.7851732374642886
30
0
10
10.884715836267924
20
-4.5076664934448196
30
0
0
SPLINE
5
154
100
AcDbEntity
8
0
100
AcDbSpline
70
4
71
3
72
8
73
4
74
0
42
0.000000001
43
0.0000000001
44
0.0000000001
40
0
40
0
40
0
40
0
40
1
40
1
40
1
40
1
41
1
41
1
41
1
41
1
10
10.884715836267924
20
-4.5076664934448196
30
0
10
11.144156719937532
20
-4.3894875110391895
30
0
10
11.464035915972165
20
-4.2571612023404981
30
0
10
11.583886324189102
20
-3.9767621407773301
30
0
0
SPLINE
5
155
100
AcDbEntity
8
0
100
AcDbSpline
70
4
71
3
72
8
73
4
74
0
42
0.000000001
43
0.0000000001
44
0.0000000001
40
0
40
0
40
0
40
0
40
1
40
1
40
1
40
1
41
1
41
1
41
1
41
1
10
11.583886324189102
20
-3.9767621407773301
30
0
10
11.71196871310733
20
-3.6768788708380651
30
0
10
11.524540974126651
20
-3.3872188309859474
30
0
10
11.508338433732828
20
-3.0866931328230374
30
0
0
SPLINE
5
156
100
AcDbEntity
8
0
100
AcDbSpline
70
4
71
3
72
8
73
4
74
0
42
0.000000001
43
0.0000000001
44
0.0000000001
40
0
40
0
40
0
40
0
40
1
40
1
40
1
40
1
41
1
41
1
41
1
41
1
10
11.508338433732828
20
-3.0866931328230374
30
0
10
11.497987274215866
20
-2.8958585775048284
30
0
10
11.54055162037575
20
-2.7005882082614319
30
0
10
11.462236560731034
20
-2.5183026761444971
30
0
0
SPLINE
5
157
100
AcDbEntity
8
0
100
AcDbSpline
70
4
71
3
72
8
73
4
74
0
42
0.000000001
43
0.0000000001
44
0.0000000001
40
0
40
0
40
0
40
0
40
1
40
1
40
1
40
1
41
1
41
1
41
1
41
1
10
11.462236560731034
20
-2.5183026761444971
30
0
10
11.349972923917178
20
-2.2568037972995647
30
0
10
11.059155957047579
20
-2.1788113423039546
30
0
10
10.897703454468948
20
-1.9611644471407663
30
0
0
SPLINE
5
158
100
AcDbEntity
8
0
100
AcDbSpline
70
4
71
3
72
8
73
4
74
0
42
0.000000001
43
0.0000000001
44
0.0000000001
40
0
40
0
40
0
40
0
40
1
40
1
40
1
40
1
41
1
41
1
41
1
41
1
10
10.897703454468948
20
-1.9611644471407663
30
0
10
10.736573556539417
20
-1.7439680860564977
30
0
10
10.775280552282855
20
-1.4105200272375429
30
0
10
10.531530491287802
20
-1.2513229761280842
30
0
0
SPLINE
5
159
100
AcDbEntity
8
0
100
AcDbSpline
70
4
71
3
72
8
73
4
74
0
42
0.000000001
43
0.0000000001
44
0.0000000001
40
0
40
0
40
0
40
0
40
1
40
1
40
1
40
1
41
1
41
1
41
1
41
1
10
10.531530491287802
20
-1.2513229761280842
30
0
10
10.079647591203585
20
-0.95626208947801938
30
0
10
9.3368197948199505
20
-1.2882278355558308
30
0
10
8.8272629704845897
20
-1.1775104761980248
30
0
0
SPLINE
5
160
100
AcDbEntity
8
0
100
AcDbSpline
70
4
71
3
72
8
73
4
74
0
42
0.000000001
43
0.0000000001
44
0.0000000001
40
0
40
0
40
0
40
0
40
1
40
1
40
1
40
1
41
1
41
1
41
1
41
1
10
8.8272629704845897
20
-1.1775104761980248
30
0
10
8.3863736581409842
20
-1.0817080197121909
30
0
10
7.9618189872328582
20
-0.87138925601788486
30
0
10
7.5413149514231925
20
-0.7119307838996658
30
0
0
SPLINE
5
161
100
AcDbEntity
8
0
100
AcDbSpline
70
4
71
3
72
8
73
4
74
0
42
0.000000001
43
0.0000000001
44
0.0000000001
40
0
40
0
40
0
40
0
40
1
40
1
40
1
40
1
41
1
41
1
41
1
41
1
10
7.5413149514231925
20
-0.7119307838996658
30
0
10
6.7681372883526691
20
-0.41873599828020414
30
0
10
5.9943825523106886
20
-0.1275964267615004
30
0
10
5.2266071265753888
20
0.17961775572120864
30
0
0
SPLINE
5
162
100
AcDbEntity
8
0
100
AcDbSpline
70
4
71
3
72
8
73
4
74
0
42
0.000000001
43
0.0000000001
44
0.0000000001
40
0
40
0
40
0
40
0
40
1
40
1
40
1
40
1
41
1
41
1
41
1
41
1
10
5.2266071265753888
20
0.17961775572120864
30
0
10
4.6677960812230683
20
0.40317999647617064
30
0
10
4.0914336743147146
20
0.61684161179309527
30
0
10
3.5551284748492828
20
0.89113343361976405
30
0
0
SPLINE
5
163
100
AcDbEntity
8
0
100
AcDbSpline
70
4
71
3
72
8
73
4
74
0
42
0.000000001
43
0.0000000001
44
0.0000000001
40
0
40
0
40
0
40
0
40
1
40
1
40
1
40
1
41
1
41
1
41
1
41
1
10
3.5551284748492828
20
0.89113343361976405
30
0
10
3.3080981364092388
20
1.017477650937213
30
0
10
3.0406199472576256
20
1.1912113787783163
30
0
10
2.9730426164938839
20
1.4799063857576789
30
0
0
SPLINE
5
164
100
AcDbEntity
8
0
100
AcDbSpline
70
4
71
3
72
8
73
4
74
0
42
0.000000001
43
0.0000000001
44
0.0000000001
40
0
40
0
40
0
40
0
40
1
40
1
40
1
40
1
41
1
41
1
41
1
41
1
10
2.9730426164938839
20
1.4799063857576789
30
0
10
2.8766616964993075
20
1.8917946525766061
30
0
10
3.18046767210721
20
2.388750428074955
30
0
10
3.3154276584154041
20
2.7643762636897806
30
0
0
SPLINE
5
165
100
AcDbEntity
8
0
100
AcDbSpline
70
4
71
3
72
8
73
4
74
0
42
0.000000001
43
0.0000000001
44
0.0000000001
40
0
40
0
40
0
40
0
40
1
40
1
40
1
40
1
41
1
41
1
41
1
41
1
10
3.3154276584154041
20
2.7643762636897806
30
0
10
3.5916495459875786
20
3.533116722297831
30
0
10
3.8065960177517977
20
4.3253266691282466
30
0
10
3.8652989395906001
20
5.14338253239361
30
0
0
SPLINE
5
166
100
AcDbEntity
8
0
100
AcDbSpline
70
4
71
3
72
8
73
4
74
0
42
0.000000001
43
0.0000000001
44
0.0000000001
40
0
40
0
40
0
40
0
40
1
40
1
40
1
40
1
41
1
41
1
41
1
41
1
10
3.8652989395906001
20
5.14338253239361
30
0
10
4.0818459197648149
20
8.160667661500117
30
0
10
3.4170105783767935
20
11.29356066958038
30
0
10
1.9471709566393391
20
13.952131677479006
30
0
0
SPLINE
5
167
100
AcDbEntity
8
0
100
AcDbSpline
70
4
71
3
72
8
73
4
74
0
42
0.000000001
43
0.0000000001
44
0.0000000001
40
0
40
0
40
0
40
0
40
1
40
1
40
1
40
1
41
1
41
1
41
1
41
1
10
1.9471709566393391
20
13.952131677479006
30
0
10
1.2946835863032535
20
15.132338374841313
30
0
10
0.48717077669957476
20
16.309148684895696
30
0
10
-0.7530619387240467
20
16.929342912695223
30
0
0
SPLINE
5
168
100
AcDbEntity
8
0
100
AcDbSpline
70
4
71
3
72
8
73
4
74
0
42
0.000000001
43
0.0000000001
44
0.0000000001
40
0
40
0
40
0
40
0
40
1
40
1
40
1
40
1
41
1
41
1
41
1
41
1
10
-0.7530619387240467
20
16.929342912695223
30
0
10
-1.8525486422147996
20
17.479150229155508
30
0
10
-3.2367450728386538
20
17.475575157807025
30
0
10
-4.4180169217579195
20
17.222924962947342
30
0
0
SPLINE
5
169
100
AcDbEntity
8
0
100
AcDbSpline
70
4
71
3
72
8
73
4
74
0
42
0.000000001
43
0.0000000001
44
0.0000000001
40
0
40
0
40
0
40
0
40
1
40
1
40
1
40
1
41
1
41
1
41
1
41
1
10
-4.4180169217579195
20
17.222924962947342
30
0
10
-6.9208595737935976
20
16.687635550965403
30
0
10
-9.2737605908596432
20
15.128306511996144
30
0
10
-10.203180065683981
20
12.666190611104007
30
0
0
SPLINE
5
170
100
AcDbEntity
8
0
100
AcDbSpline
70
4
71
3
72
8
73
4
74
0
42
0.000000001
43
0.0000000001
44
0.0000000001
40
0
40
0
40
0
40
0
40
1
40
1
40
1
40
1
41
1
41
1
41
1
41
1
10
-10.203180065683981
20
12.666190611104007
30
0
10
-10.417547726305141
20
12.098443973186399
30
0
10
-10.382376866866331
20
11.579948775211193
30
0
10
-10.431051233837277
20
10.994456100518267
30
0
0
SPLINE
5
171
100
AcDbEntity
8
0
100
AcDbSpline
70
4
71
3
72
8
73
4
74
0
42
0.000000001
43
0.0000000001
44
0.0000000001
40
0
40
0
40
0
40
0
40
1
40
1
40
1
40
1
41
1
41
1
41
1
41
1
10
-10.431051233837277
20
10.994456100518267
30
0
10
-10.459919483051658
20
10.647443350526832
30
0
10
-10.571732585786595
20
10.3160532868832
30
0
10
-10.586200430922844
20
9.965696294731865
30
0
0
SPLINE
5
172
100
AcDbEntity
8
0
100
AcDbSpline
70
4
71
3
72
8
73
4
74
0
42
0.000000001
43
0.0000000001
44
0.0000000001
40
0
40
0
40
0
40
0
40
1
40
1
40
1
40
1
41
1
41
1
41
1
41
1
10
-10.586200430922844
20
9.965696294731865
30
0
10
-10.618799491661139
20
9.1778595876490101
30
0
10
-10.520938344731338
20
8.3711199167733596
30
0
10
-10.601510246382507
20
7.5866900260280339
30
0
0
SPLINE
5
173
100
AcDbEntity
8
0
100
AcDbSpline
70
4
71
3
72
8
73
4
74
0
42
0.000000001
43
0.0000000001
44
0.0000000001
40
0
40
0
40
0
40
0
40
1
40
1
40
1
40
1
41
1
41
1
41
1
41
1
10
-10.601510246382507
20
7.5866900260280339
30
0
10
-10.641888320302932
20
7.1937033324646249
30
0
10
-10.884932683628069
20
6.8598714853562193
30
0
10
-11.015522211263264
20
6.4936331669228835
30
0
0
SPLINE
5
174
100
AcDbEntity
8
0
100
AcDbSpline
70
4
71
3
72
8
73
4
74
0
42
0.000000001
43
0.0000000001
44
0.0000000001
40
0
40
0
40
0
40
0
40
1
40
1
40
1
40
1
41
1
41
1
41
1
41
1
10
-11.015522211263264
20
6.4936331669228835
30
0
10
-11.241270028989046
20
5.8605604780988614
30
0
10
-11.331093522802522
20
5.096643793317293
30
0
10
-11.169127564333019
20
4.436116336424643
30
0
0
SPLINE
5
175
100
AcDbEntity
8
0
100
AcDbSpline
70
4
71
3
72
8
73
4
74
0
42
0.000000001
43
0.0000000001
44
0.0000000001
40
0
40
0
40
0
40
0
40
1
40
1
40
1
40
1
41
1
41
1
41
1
41
1
10
-11.169127564333019
20
4.436116336424643
30
0
10
-10.820893227340555
20
3.0161080086756131
30
0
10
-9.2461841507789586
20
2.0132594745763477
30
0
10
-8.082977466940914
20
1.2997525472919413
30
0
0
SPLINE
5
176
100
AcDbEntity
8
0
100
AcDbSpline
70
4
71
3
72
8
73
4
74
0
42
0.000000001
43
0.0000000001
44
0.0000000001
40
0
40
0
40
0
40
0
40
1
40
1
40
1
40
1
41
1
41
1
41
1
41
1
10
-8.082977466940914
20
1.2997525472919413
30
0
10
-7.6070480056628744
20
1.0078412275824933
30
0
10
-7.0126837031195697
20
0.77135533334141915
30
0
10
-6.6684269980183295
20
0.32108267542815927
30
0
0
SPLINE
5
177
100
AcDbEntity
8
0
100
AcDbSpline
70
4
71
3
72
8
73
4
74
0
42
0.000000001
43
0.0000000001
44
0.0000000001
40
0
40
0
40
0
40
0
40
1
40
1
40
1
40
1
41
1
41
1
41
1
41
1
10
-6.6684269980183295
20
0.32108267542815927
30
0
10
-7.7071534797635994
20
-0.10906890803447311
30
0
10
-8.7246610578751955
20
-0.76239338181349314
30
0
10
-9.6904083191558215
20
-1.3382426804652958
30
0
0
SPLINE
5
178
100
AcDbEntity
8
0
100
AcDbSpline
70
4
71
3
72
8
73
4
74
0
42
0.000000001
43
0.0000000001
44
0.0000000001
40
0
40
0
40
0
40
0
40
1
40
1
40
1
40
1
41
1
41
1
41
1
41
1
10
-9.6904083191558215
20
-1.3382426804652958
30
0
10
-10.011059263381197
20
-1.5294638051475173
30
0
10
-10.316150443070715
20
-1.7834370962297141
30
0
10
-10.654870723989154
20
-1.9394887520104076
30
0
0
SPLINE
5
179
100
AcDbEntity
8
0
100
AcDbSpline
70
4
71
3
72
8
73
4
74
0
42
0.000000001
43
0.0000000001
44
0.0000000001
40
0
40
0
40
0
40
0
40
1
40
1
40
1
40
1
41
1
41
1
41
1
41
1
10
-10.654870723989154
20
-1.9394887520104076
30
0
10
-11.109260762790335
20
-2.1487757370424854
30
0
10
-11.604542679037131
20
-1.7849805926112072
30
0
10
-12.049610208274695
20
-2.0009560619630884
30
0
0
SPLINE
5
180
100
AcDbEntity
8
0
100
AcDbSpline
70
4
71
3
72
8
73
4
74
0
42
0.000000001
43
0.0000000001
44
0.0000000001
40
0
40
0
40
0
40
0
40
1
40
1
40
1
40
1
41
1
41
1
41
1
41
1
10
-12.049610208274695
20
-2.0009560619630884
30
0
10
-12.304421298068466
20
-2.1245998558815682
30
0
10
-12.270600997963463
20
-2.3950371083663491
30
0
10
-12.418549297741318
20
-2.5951938256138529
30
0
0
SPLINE
5
181
100
AcDbEntity
8
0
100
AcDbSpline
70
4
71
3
72
8
73
4
74
0
42
0.000000001
43
0.0000000001
44
0.0000000001
40
0
40
0
40
0
40
0
40
1
40
1
40
1
40
1
41
1
41
1
41
1
41
1
10
-12.418549297741318
20
-2.5951938256138529
30
0
10
-12.680432138692865
20
-2.9494109492561993
30
0
10
-13.206514281888314
20
-2.851355822375754
30
0
10
-13.272997433629364
20
-3.4084940513794848
30
0
0
SPLINE
5
182
100
AcDbEntity
8
0
100
AcDbSpline
70
4
71
3
72
8
73
4
74
0
42
0.000000001
43
0.0000000001
44
0.0000000001
40
0
40
0
40
0
40
0
40
1
40
1
40
1
40
1
41
1
41
1
41
1
41
1
10
-13.272997433629364
20
-3.4084940513794848
30
0
10
-13.360892599868935
20
-4.1445721798029744
30
0
10
-12.573314011268796
20
-4.1667540305034789
30
0
10
-12.276258398889679
20
-4.6555417900154428
30
0
0
SPLINE
5
183
100
AcDbEntity
8
0
100
AcDbSpline
70
4
71
3
72
8
73
4
74
0
42
0.000000001
43
0.0000000001
44
0.0000000001
40
0
40
0
40
0
40
0
40
0.60843456815766861
40
0.60843456815766861
40
0.60843456815766861
40
0.60843456815766861
41
1
41
1
41
1
41
1
10
-12.276258398889679
20
-4.6555417900154428
30
0
10
-12.136715408502749
20
-4.8851430967839171
30
0
10
-12.268733764916128
20
-5.2805507396837692
30
0
10
-12.266072814728188
20
-5.6017663065828582
30
0
0
LWPOLYLINE
5
184
100
AcDbEntity
8
0
100
AcDbPolyline
90
3
70
1
43
0.0
10
-10.011898104995733
20
7.3937974755345035
10
-10.076195853583123
20
7.3937974755345026
10
-10.076195853583123
20
7.7152841326655341
0
SPLINE
5
185
100
AcDbEntity
8
0
100
AcDbSpline
70
4
71
3
72
8
73
4
74
0
42
0.000000001
43
0.0000000001
44
0.0000000001
40
0
40
0
40
0
40
0
40
1
40
1
40
1
40
1
41
1
41
1
41
1
41
1
10
-9.3689220096591121
20
10.672966662312675
30
0
10
-9.1425307208067217
20
10.201923549038746
30
0
10
-9.0120065484237166
20
9.6902447648131567
30
0
10
-9.2403279030216119
20
9.1941247022204635
30
0
0
SPLINE
5
186
100
AcDbEntity
8
0
100
AcDbSpline
70
4
71
3
72
8
73
4
74
0
42
0.000000001
43
0.0000000001
44
0.0000000001
40
0
40
0
40
0
40
0
40
1
40
1
40
1
40
1
41
1
41
1
41
1
41
1
10
-9.2403279030216119
20
9.1941247022204635
30
0
10
-9.4363689775527941
20
9.6772557560748513
30
0
10
-9.5595643231982734
20
10.169517077713815
30
0
10
-9.3689220096591121
20
10.672966662312675
30
0
0
ARC
5
187
100
AcDbEntity
8
0
100
AcDbCircle
10
-10.76222548508431
20
-11.410246605932905
30
0
40
6.0000000149012269
210
0
220
-0
230
1
100
AcDbArc
50
72.386922237283216
51
91.312221128998999
0
SPLINE
5
188
100
AcDbEntity
8
0
100
AcDbSpline
70
4
71
3
72
8
73
4
74
0
42
0.000000001
43
0.0000000001
44
0.0000000001
40
0.35936484217584003
40
0.35936484217584003
40
0.35936484217584003
40
0.35936484217584003
40
1
40
1
40
1
40
1
41
1
41
1
41
1
41
1
10
-8.9467007886190757
20
-5.6915168295455363
30
0
10
-8.2283210035085439
20
-5.6801307813664748
30
0
10
-7.5003222541396948
20
-5.7228792715781829
30
0
10
-6.7970231904617506
20
-5.7228792715781829
30
0
0
LINE
5
189
100
AcDbEntity
8
0
100
AcDbLine
10
-6.7970231904617506
20
-5.7228792715781829
30
0
11
-6.7595578277959509
21
-6.9404980890572299
31
0
0
ARC
5
190
100
AcDbEntity
8
0
100
AcDbCircle
10
-10.76222548508431
20
-11.410246605932905
30
0
40
6.0000000149012127
210
0
220
-0
230
1
100
AcDbArc
50
42.76083357017847
51
48.15549881376279
0
ARC
5
191
100
AcDbEntity
8
0
100
AcDbCircle
10
-5.6228664404720794
20
-6.6576695345768346
30
0
40
1.0000000000000004
210
0
220
0
230
1
100
AcDbArc
50
222.76083357017782
51
227.38600625437425
0
SPLINE
5
192
100
AcDbEntity
8
0
100
AcDbSpline
70
4
71
3
72
8
73
4
74
0
42
0.000000001
43
0.0000000001
44
0.0000000001
40
0.16279179564820936
40
0.16279179564820936
40
0.16279179564820936
40
0.16279179564820936
40
1
40
1
40
1
40
1
41
1
41
1
41
1
41
1
10
-6.2999221720616099
20
-7.3936012816307102
30
0
10
-6.3217750427339858
20
-6.3952886165543932
30
0
10
-6.3049704492700336
20
-5.3793304722105262
30
0
10
-5.9473207844953162
20
-4.4369215187558186
30
0
0
SPLINE
5
193
100
AcDbEntity
8
0
100
AcDbSpline
70
4
71
3
72
8
73
4
74
0
42
0.000000001
43
0.0000000001
44
0.0000000001
40
0
40
0
40
0
40
0
40
1
40
1
40
1
40
1
41
1
41
1
41
1
41
1
10
-5.9473207844953162
20
-4.4369215187558186
30
0
10
-5.734560932604877
20
-3.8762485439847394
30
0
10
-5.3633069462003338
20
-3.3448296925234189
30
0
10
-5.0586659529554172
20
-2.8294854520261081
30
0
0
SPLINE
5
194
100
AcDbEntity
8
0
100
AcDbSpline
70
4
71
3
72
8
73
4
74
0
42
0.000000001
43
0.0000000001
44
0.0000000001
40
0
40
0
40
0
40
0
40
1
40
1
40
1
40
1
41
1
41
1
41
1
41
1
10
-5.0586659529554172
20
-2.8294854520261081
30
0
10
-4.5993256014352157
20
-2.0523836927496664
30
0
10
-4.0207758793844413
20
-1.2538120378604001
30
0
10
-3.1320570831296335
20
-0.94460660599183566
30
0
0
SPLINE
5
195
100
AcDbEntity
8
0
100
AcDbSpline
70
4
71
3
72
8
73
4
74
0
42
0.000000001
43
0.0000000001
44
0.0000000001
40
0
40
0
40
0
40
0
40
1
40
1
40
1
40
1
41
1
41
1
41
1
41
1
10
-3.1320570831296335
20
-0.94460660599183566
30
0
10
-2.0698631989679206
20
-0.57502404539859775
30
0
10
-1.0073481006943852
20
-1.4063901315140903
30
0
10
-0.31010489744415004
20
-2.1245915126578829
30
0
0
SPLINE
5
196
100
AcDbEntity
8
0
100
AcDbSpline
70
4
71
3
72
8
73
4
74
0
42
0.000000001
43
0.0000000001
44
0.0000000001
40
0
40
0
40
0
40
0
40
0.62639587885459114
40
0.62639587885459114
40
0.62639587885459114
40
0.62639587885459114
41
1
41
1
41
1
41
1
10
-0.31010489744415004
20
-2.1245915126578829
30
0
10
0.75619307261681878
20
-3.2231113779442189
30
0
10
1.6193007664127235
20
-4.5911210284262065
30
0
10
2.306257029468612
20
-6.0246358454221056
30
0
0
ARC
5
197
100
AcDbEntity
8
0
100
AcDbCircle
10
2.8227420401094605e-13
20
-13.68499998509809
30
0
40
8.0000000149003672
210
0
220
-0
230
1
100
AcDbArc
50
68.46316855911239
51
73.244862541912653
0
SPLINE
5
198
100
AcDbEntity
8
0
100
AcDbSpline
70
4
71
3
72
8
73
4
74
0
42
0.000000001
43
0.0000000001
44
0.0000000001
40
0.024919374530205842
40
0.024919374530205842
40
0.024919374530205842
40
0.024919374530205842
40
1
40
1
40
1
40
1
41
1
41
1
41
1
41
1
10
2.93679401508229
20
-6.2435457487687192
30
0
10
2.1812495225631476
20
-4.6494759230827238
30
0
10
1.3481189222266914
20
-3.1024667815056546
30
0
10
0.13082891209243774
20
-1.8031104176759749
30
0
0
SPLINE
5
199
100
AcDbEntity
8
0
100
AcDbSpline
70
4
71
3
72
8
73
4
74
0
42
0.000000001
43
0.0000000001
44
0.0000000001
40
0
40
0
40
0
40
0
40
1
40
1
40
1
40
1
41
1
41
1
41
1
41
1
10
0.13082891209243774
20
-1.8031104176759749
30
0
10
-0.94506037374613605
20
-0.65462952363973148
30
0
10
-2.6486854663256953
20
0.19004400425132406
30
0
10
-4.0965358267760106
20
-0.84655704126050946
30
0
0
SPLINE
5
200
100
AcDbEntity
8
0
100
AcDbSpline
70
4
71
3
72
8
73
4
74
0
42
0.000000001
43
0.0000000001
44
0.0000000001
40
0
40
0
40
0
40
0
40
1
40
1
40
1
40
1
41
1
41
1
41
1
41
1
10
-4.0965358267760106
20
-0.84655704126050946
30
0
10
-4.7395105315753527
20
-1.3069277809056556
30
0
10
-5.1679886034207545
20
-1.9736264422497118
30
0
10
-5.5753770915995826
20
-2.6365984636816986
30
0
0
LINE
5
201
100
AcDbEntity
8
0
100
AcDbLine
10
-5.5753770915995835
20
-2.6365984636816986
30
0
11
-5.6396748401869718
21
-2.6365984636816986
31
0
0
LINE
5
202
100
AcDbEntity
8
0
100
AcDbLine
10
-5.6396748401869718
20
-2.6365984636816986
30
0
11
-5.3181874877873021
21
-1.1577565035894866
31
0
0
SPLINE
5
203
100
AcDbEntity
8
0
100
AcDbSpline
70
4
71
3
72
8
73
4
74
0
42
0.000000001
43
0.0000000001
44
0.0000000001
40
0
40
0
40
0
40
0
40
1
40
1
40
1
40
1
41
1
41
1
41
1
41
1
10
-5.3181874877873021
20
-1.1577565035894866
30
0
10
-5.8606659775100614
20
-1.2183894911737969
30
0
10
-5.9053522835601777
20
-1.6662203656222774
30
0
10
-6.0420476603945907
20
-2.1222192560571385
30
0
0
SPLINE
5
204
100
AcDbEntity
8
0
100
AcDbSpline
70
4
71
3
72
8
73
4
74
0
42
0.000000001
43
0.0000000001
44
0.0000000001
40
0
40
0
40
0
40
0
40
1
40
1
40
1
40
1
41
1
41
1
41
1
41
1
10
-6.0420476603945907
20
-2.1222192560571385
30
0
10
-6.3413524668251142
20
-3.1207585151237494
30
0
10
-6.5777097363677335
20
-4.177744837169528
30
0
10
-6.7327310040234822
20
-5.208497282879061
30
0
0
LINE
5
205
100
AcDbEntity
8
0
100
AcDbLine
10
-6.7327310040234822
20
-5.208497282879061
30
0
11
-10.333389281372924
21
-5.2900272647165796
31
0
0
LINE
5
206
100
AcDbEntity
8
0
100
AcDbLine
10
-10.333389281372924
20
-5.2900272647165796
30
0
11
-10.899628947985073
21
-5.4118201066584835
31
0
0
SPLINE
5
207
100
AcDbEntity
8
0
100
AcDbSpline
70
4
71
3
72
8
73
4
74
0
42
0.000000001
43
0.0000000001
44
0.0000000001
40
0
40
0
40
0
40
0
40
1
40
1
40
1
40
1
41
1
41
1
41
1
41
1
10
-4.9966931827012289
20
2.5867949191931938
30
0
10
-4.2276961699649007
20
2.5873414003444806
30
0
10
-3.4475755542522268
20
3.0587391006249653
30
0
10
-2.7462831064408189
20
3.3287870026711719
30
0
0
SPLINE
5
208
100
AcDbEntity
8
0
100
AcDbSpline
70
4
71
3
72
8
73
4
74
0
42
0.000000001
43
0.0000000001
44
0.0000000001
40
0
40
0
40
0
40
0
40
1
40
1
40
1
40
1
41
1
41
1
41
1
41
1
10
-2.7462831064408189
20
3.3287870026711719
30
0
10
-1.7974458213955335
20
3.6941896081988546
30
0
10
-0.77485861059781946
20
3.9349833869353024
30
0
10
0.21139942320632432
20
4.1789267326123625
30
0
0
LINE
5
209
100
AcDbEntity
8
0
100
AcDbLine
10
0.21139942320632449
20
4.1789267326123625
30
0
11
0.72577863083088445
21
3.6002490811317722
31
0
0
SPLINE
5
210
100
AcDbEntity
8
0
100
AcDbSpline
70
4
71
3
72
8
73
4
74
0
42
0.000000001
43
0.0000000001
44
0.0000000001
40
0
40
0
40
0
40
0
40
1
40
1
40
1
40
1
41
1
41
1
41
1
41
1
10
0.72577863083088445
20
3.6002490811317722
30
0
10
0.57795756521420216
20
3.3712220288639605
30
0
10
0.41258513804149244
20
3.114868137957334
30
0
10
0.14581473236571663
20
3.0123771971516966
30
0
0
SPLINE
5
211
100
AcDbEntity
8
0
100
AcDbSpline
70
4
71
3
72
8
73
4
74
0
42
0.000000001
43
0.0000000001
44
0.0000000001
40
0
40
0
40
0
40
0
40
1
40
1
40
1
40
1
41
1
41
1
41
1
41
1
10
0.14581473236571663
20
3.0123771971516966
30
0
10
-0.035247126944268903
20
2.9428725817170154
30
0
10
-0.27796819035166065
20
3.0219635611643181
30
0
10
-0.43112474751409557
20
2.8848774433540481
30
0
0
SPLINE
5
212
100
AcDbEntity
8
0
100
AcDbSpline
70
4
71
3
72
8
73
4
74
0
42
0.000000001
43
0.0000000001
44
0.0000000001
40
0
40
0
40
0
40
0
40
1
40
1
40
1
40
1
41
1
41
1
41
1
41
1
10
-0.43112474751409557
20
2.8848774433540481
30
0
10
-0.64401461464027143
20
2.6943641021476683
30
0
10
-0.60299237432459796
20
2.3310820659729359
30
0
10
-0.83324031832479717
20
2.1133725966321171
30
0
0
SPLINE
5
213
100
AcDbEntity
8
0
100
AcDbSpline
70
4
71
3
72
8
73
4
74
0
42
0.000000001
43
0.0000000001
44
0.0000000001
40
0
40
0
40
0
40
0
40
1
40
1
40
1
40
1
41
1
41
1
41
1
41
1
10
-0.83324031832479717
20
2.1133725966321171
30
0
10
-1.8194997426662218
20
1.1807364614433791
30
0
10
-3.7380059517578124
20
0.7379852196810166
30
0
10
-4.9924506534580466
20
1.3345368373667377
30
0
0
SPLINE
5
214
100
AcDbEntity
8
0
100
AcDbSpline
70
4
71
3
72
8
73
4
74
0
42
0.000000001
43
0.0000000001
44
0.0000000001
40
0
40
0
40
0
40
0
40
1
40
1
40
1
40
1
41
1
41
1
41
1
41
1
10
-4.9924506534580466
20
1.3345368373667377
30
0
10
-5.3591388107016638
20
1.5089741770718357
30
0
10
-5.377012776906799
20
1.9008692988699538
30
0
10
-5.6789547372900255
20
2.1167154482547357
30
0
0
SPLINE
5
215
100
AcDbEntity
8
0
100
AcDbSpline
70
4
71
3
72
8
73
4
74
0
42
0.000000001
43
0.0000000001
44
0.0000000001
40
0
40
0
40
0
40
0
40
1
40
1
40
1
40
1
41
1
41
1
41
1
41
1
10
-5.6789547372900255
20
2.1167154482547357
30
0
10
-5.8873420447015423
20
2.2656934408888985
30
0
10
-6.1186836462729532
20
2.1261015748989465
30
0
10
-6.3469410361559397
20
2.1525301264544749
30
0
0
SPLINE
5
216
100
AcDbEntity
8
0
100
AcDbSpline
70
4
71
3
72
8
73
4
74
0
42
0.000000001
43
0.0000000001
44
0.0000000001
40
0
40
0
40
0
40
0
40
1
40
1
40
1
40
1
41
1
41
1
41
1
41
1
10
-6.3469410361559397
20
2.1525301264544749
30
0
10
-6.8917319893763764
20
2.2156702527557481
30
0
10
-7.4333740709248408
20
2.7279914652049841
30
0
10
-7.37569945140506
20
3.2787638145380216
30
0
0
SPLINE
5
217
100
AcDbEntity
8
0
100
AcDbSpline
70
4
71
3
72
8
73
4
74
0
42
0.000000001
43
0.0000000001
44
0.0000000001
40
0
40
0
40
0
40
0
40
1
40
1
40
1
40
1
41
1
41
1
41
1
41
1
10
-7.37569945140506
20
3.2787638145380216
30
0
10
-6.5732030050412327
20
3.1267655749303502
30
0
10
-5.8251655607357433
20
2.5862818109366437
30
0
10
-4.9966931827012289
20
2.5867949191931938
30
0
0
LWPOLYLINE
5
218
100
AcDbEntity
8
0
100
AcDbPolyline
90
4
70
1
43
0.0
10
-7.9543777981542902
20
3.2144681517565532
10
-7.954377798154292
20
3.4716577555688333
10
-7.8257823009795118
20
3.471657755568831
10
-7.890080049566901
20
3.214468151756551
0
SPLINE
5
219
100
AcDbEntity
8
0
100
AcDbSpline
70
4
71
3
72
8
73
4
74
0
42
0.000000001
43
0.0000000001
44
0.0000000001
40
0
40
0
40
0
40
0
40
1
40
1
40
1
40
1
41
1
41
1
41
1
41
1
10
2.1613470707500926
20
5.0787058623972499
30
0
10
2.2087991554513686
20
5.3367325696524652
30
0
10
2.1611649103663311
20
5.6843891384048302
30
0
10
1.814268965506467
20
5.5637642009225825
30
0
0
SPLINE
5
220
100
AcDbEntity
8
0
100
AcDbSpline
70
4
71
3
72
8
73
4
74
0
42
0.000000001
43
0.0000000001
44
0.0000000001
40
0
40
0
40
0
40
0
40
1
40
1
40
1
40
1
41
1
41
1
41
1
41
1
10
1.814268965506467
20
5.5637642009225825
30
0
10
1.2595113363271615
20
5.3709356151439618
30
0
10
0.77618838832804737
20
4.936092358896504
30
0
10
0.21139942320632432
20
4.7228812776585034
30
0
0
SPLINE
5
221
100
AcDbEntity
8
0
100
AcDbSpline
70
4
71
3
72
8
73
4
74
0
42
0.000000001
43
0.0000000001
44
0.0000000001
40
0
40
0
40
0
40
0
40
1
40
1
40
1
40
1
41
1
41
1
41
1
41
1
10
0.21139942320632432
20
4.7228812776585034
30
0
10
-0.92107221511809945
20
4.2953675434172123
30
0
10
-2.1158468763008598
20
4.0862724525298555
30
0
10
-3.2606637046026576
20
3.7028679513672236
30
0
0
SPLINE
5
222
100
AcDbEntity
8
0
100
AcDbSpline
70
4
71
3
72
8
73
4
74
0
42
0.000000001
43
0.0000000001
44
0.0000000001
40
0
40
0
40
0
40
0
40
1
40
1
40
1
40
1
41
1
41
1
41
1
41
1
10
-3.2606637046026576
20
3.7028679513672236
30
0
10
-3.8530360624914706
20
3.5045105893608453
30
0
10
-4.5448763331378412
20
2.9723839544236874
30
0
10
-5.189588514269321
20
3.0687648744182638
30
0
0
SPLINE
5
223
100
AcDbEntity
8
0
100
AcDbSpline
70
4
71
3
72
8
73
4
74
0
42
0.000000001
43
0.0000000001
44
0.0000000001
40
0
40
0
40
0
40
0
40
1
40
1
40
1
40
1
41
1
41
1
41
1
41
1
10
-5.189588514269321
20
3.0687648744182638
30
0
10
-5.9298452072210805
20
3.1794850148506271
30
0
10
-6.6137761018152652
20
3.6141989511309847
30
0
10
-7.3114030933549508
20
3.8623889976630732
30
0
0
SPLINE
5
224
100
AcDbEntity
8
0
100
AcDbSpline
70
4
71
3
72
8
73
4
74
0
42
0.000000001
43
0.0000000001
44
0.0000000001
40
0
40
0
40
0
40
0
40
1
40
1
40
1
40
1
41
1
41
1
41
1
41
1
10
-7.3114030933549508
20
3.8623889976630732
30
0
10
-7.9410036105892541
20
4.0864003819596739
30
0
10
-8.6316236847718777
20
4.1564848514403785
30
0
10
-9.2403279030216119
20
4.4356644118084398
30
0
0
SPLINE
5
225
100
AcDbEntity
8
0
100
AcDbSpline
70
4
71
3
72
8
73
4
74
0
42
0.000000001
43
0.0000000001
44
0.0000000001
40
0
40
0
40
0
40
0
40
1
40
1
40
1
40
1
41
1
41
1
41
1
41
1
10
-9.2403279030216119
20
4.4356644118084398
30
0
10
-9.5707515432552093
20
4.5872774725893812
30
0
10
-9.8220268443786765
20
4.8392609048230062
30
0
10
-10.123773781908296
20
5.0338234905905654
30
0
0
SPLINE
5
226
100
AcDbEntity
8
0
100
AcDbSpline
70
4
71
3
72
8
73
4
74
0
42
0.000000001
43
0.0000000001
44
0.0000000001
40
0
40
0
40
0
40
0
40
1
40
1
40
1
40
1
41
1
41
1
41
1
41
1
10
-10.123773781908296
20
5.0338234905905654
30
0
10
-10.230957438401717
20
5.1029443177357976
30
0
10
-10.399223921289725
20
5.2043409057015833
30
0
10
-10.521069055235719
20
5.106545809292613
30
0
0
SPLINE
5
227
100
AcDbEntity
8
0
100
AcDbSpline
70
4
71
3
72
8
73
4
74
0
42
0.000000001
43
0.0000000001
44
0.0000000001
40
0
40
0
40
0
40
0
40
1
40
1
40
1
40
1
41
1
41
1
41
1
41
1
10
-10.521069055235719
20
5.106545809292613
30
0
10
-10.72039110248053
20
4.9466381936327526
30
0
10
-10.504811588619308
20
4.6446315732659782
30
0
10
-10.381543239766597
20
4.5171304289310488
30
0
0
SPLINE
5
228
100
AcDbEntity
8
0
100
AcDbSpline
70
4
71
3
72
8
73
4
74
0
42
0.000000001
43
0.0000000001
44
0.0000000001
40
0
40
0
40
0
40
0
40
1
40
1
40
1
40
1
41
1
41
1
41
1
41
1
10
-10.381543239766597
20
4.5171304289310488
30
0
10
-10.001801761435445
20
4.1243370200496443
30
0
10
-9.2722838402676206
20
4.0985550683296035
30
0
10
-8.9873815237211545
20
3.6453859212608108
30
0
0
SPLINE
5
229
100
AcDbEntity
8
0
100
AcDbSpline
70
4
71
3
72
8
73
4
74
0
42
0.000000001
43
0.0000000001
44
0.0000000001
40
0
40
0
40
0
40
0
40
1
40
1
40
1
40
1
41
1
41
1
41
1
41
1
10
-8.9873815237211545
20
3.6453859212608108
30
0
10
-8.8686880425216952
20
3.4564800411508267
30
0
10
-8.8124915641312178
20
3.2292523441241405
30
0
10
-8.6584360246168615
20
3.0622724558550329
30
0
0
SPLINE
5
230
100
AcDbEntity
8
0
100
AcDbSpline
70
4
71
3
72
8
73
4
74
0
42
0.000000001
43
0.0000000001
44
0.0000000001
40
0
40
0
40
0
40
0
40
1
40
1
40
1
40
1
41
1
41
1
41
1
41
1
10
-8.6584360246168615
20
3.0622724558550329
30
0
10
-8.3802847665678222
20
2.7608470800715557
30
0
10
-7.8970243927463351
20
2.5503350316952478
30
0
10
-7.5685926971672313
20
2.2889668633546911
30
0
0
SPLINE
5
231
100
AcDbEntity
8
0
100
AcDbSpline
70
4
71
3
72
8
73
4
74
0
42
0.000000001
43
0.0000000001
44
0.0000000001
40
0
40
0
40
0
40
0
40
1
40
1
40
1
40
1
41
1
41
1
41
1
41
1
10
-7.5685926971672313
20
2.2889668633546911
30
0
10
-6.2297910513379717
20
1.2234940922852688
30
0
10
-4.715200463566851
20
0.36171417476797973
30
0
10
-2.9391756569343475
20
0.61839067032371187
30
0
0
SPLINE
5
232
100
AcDbEntity
8
0
100
AcDbSpline
70
4
71
3
72
8
73
4
74
0
42
0.000000001
43
0.0000000001
44
0.0000000001
40
0
40
0
40
0
40
0
40
1
40
1
40
1
40
1
41
1
41
1
41
1
41
1
10
-2.9391756569343475
20
0.61839067032371187
30
0
10
-1.1807703481846255
20
0.8724946719102844
30
0
10
0.40397075958803041
20
2.1273878218835218
30
0
10
1.4185192743664587
20
3.535952027813023
30
0
0
SPLINE
5
233
100
AcDbEntity
8
0
100
AcDbSpline
70
4
71
3
72
8
73
4
74
0
42
0.000000001
43
0.0000000001
44
0.0000000001
40
0
40
0
40
0
40
0
40
1
40
1
40
1
40
1
41
1
41
1
41
1
41
1
10
1.4185192743664587
20
3.535952027813023
30
0
10
1.7470782041067401
20
3.9920148829627955
30
0
10
2.058213701720808
20
4.5182247817708987
30
0
10
2.1613470707500926
20
5.0787058623972499
30
0
0
SPLINE
5
234
100
AcDbEntity
8
0
100
AcDbSpline
70
4
71
3
72
8
73
4
74
0
42
0.000000001
43
0.0000000001
44
0.0000000001
40
0
40
0
40
0
40
0
40
1
40
1
40
1
40
1
41
1
41
1
41
1
41
1
10
-0.11008862446198586
20
9.7728023537010529
30
0
10
-0.4532454145742526
20
10.458084155263364
30
0
10
-0.31069726632569683
20
11.061065617334693
30
0
10
-0.11008862446198586
20
11.766023521417825
30
0
0
LINE
5
235
100
AcDbEntity
8
0
100
AcDbLine
10
-0.11008862446198581
20
11.766023521417825
30
0
11
0.018505482175512622
21
11.766023521417825
31
0
0
SPLINE
5
236
100
AcDbEntity
8
0
100
AcDbSpline
70
4
71
3
72
8
73
4
74
0
42
0.000000001
43
0.0000000001
44
0.0000000001
40
0
40
0
40
0
40
0
40
1
40
1
40
1
40
1
41
1
41
1
41
1
41
1
10
0.018505482175512622
20
11.766023521417825
30
0
10
0.13147551192792761
20
11.067945995799217
30
0
10
0.225030860168276
20
10.465349712554623
30
0
10
0.018505482175512622
20
9.7728023537010529
30
0
0
LINE
5
237
100
AcDbEntity
8
0
100
AcDbLine
10
0.018505482175512608
20
9.7728023537010547
30
0
11
-0.11008862446198586
21
9.7728023537010529
31
0
0
SPLINE
5
238
100
AcDbEntity
8
0
100
AcDbSpline
70
4
71
3
72
8
73
4
74
0
42
0.000000001
43
0.0000000001
44
0.0000000001
40
0
40
0
40
0
40
0
40
1
40
1
40
1
40
1
41
1
41
1
41
1
41
1
10
0.4694219588496984
20
7.6954801007148932
30
0
10
0.57358432546664284
20
7.6689250102668272
30
0
10
0.68250511065788055
20
7.656901034401276
30
0
10
0.78994497364525573
20
7.6630736293899631
30
0
0
SPLINE
5
239
100
AcDbEntity
8
0
100
AcDbSpline
70
4
71
3
72
8
73
4
74
0
42
0.000000001
43
0.0000000001
44
0.0000000001
40
0
40
0
40
0
40
0
40
1
40
1
40
1
40
1
41
1
41
1
41
1
41
1
10
0.78994497364525573
20
7.6630736293899631
30
0
10
1.6198315280941644
20
7.7107176082359663
30
0
10
1.464875615690604
20
8.5722388858190595
30
0
10
1.625942939442504
20
9.1298276489017134
30
0
0
SPLINE
5
240
100
AcDbEntity
8
0
100
AcDbSpline
70
4
71
3
72
8
73
4
74
0
42
0.000000001
43
0.0000000001
44
0.0000000001
40
0
40
0
40
0
40
0
40
1
40
1
40
1
40
1
41
1
41
1
41
1
41
1
10
1.625942939442504
20
9.1298276489017134
30
0
10
1.7188516878473625
20
8.6963985690686503
30
0
10
1.7583957870337352
20
8.2875959044754293
30
0
10
1.7541518672532708
20
7.8440075592701319
30
0
0
SPLINE
5
241
100
AcDbEntity
8
0
100
AcDbSpline
70
4
71
3
72
8
73
4
74
0
42
0.000000001
43
0.0000000001
44
0.0000000001
40
0
40
0
40
0
40
0
40
1
40
1
40
1
40
1
41
1
41
1
41
1
41
1
10
1.7541518672532708
20
7.8440075592701319
30
0
10
1.7522927189090787
20
7.6495715123951076
30
0
10
1.7651426739193199
20
7.4188090696010782
30
0
10
1.6253630853964851
20
7.2641729807720612
30
0
0
SPLINE
5
242
100
AcDbEntity
8
0
100
AcDbSpline
70
4
71
3
72
8
73
4
74
0
42
0.000000001
43
0.0000000001
44
0.0000000001
40
0
40
0
40
0
40
0
40
1
40
1
40
1
40
1
41
1
41
1
41
1
41
1
10
1.6253630853964851
20
7.2641729807720612
30
0
10
1.3472778778682759
20
6.956445690032802
30
0
10
0.25795043974975673
20
6.8355662842282001
30
0
10
-0.015315165563811739
20
7.2010968191856994
30
0
0
SPLINE
5
243
100
AcDbEntity
8
0
100
AcDbSpline
70
4
71
3
72
8
73
4
74
0
42
0.000000001
43
0.0000000001
44
0.0000000001
40
0
40
0
40
0
40
0
40
1
40
1
40
1
40
1
41
1
41
1
41
1
41
1
10
-0.015315165563811739
20
7.2010968191856994
30
0
10
-0.15432578697046173
20
7.386981061784887
30
0
10
-0.066688565396446631
20
7.6972154912411117
30
0
10
-0.04579157114323662
20
7.9081752926217819
30
0
0
SPLINE
5
244
100
AcDbEntity
8
0
100
AcDbSpline
70
4
71
3
72
8
73
4
74
0
42
0.000000001
43
0.0000000001
44
0.0000000001
40
0
40
0
40
0
40
0
40
1
40
1
40
1
40
1
41
1
41
1
41
1
41
1
10
-0.04579157114323662
20
7.9081752926217819
30
0
10
0.12228127942844447
20
7.8329472257400523
30
0
10
0.29016223585540013
20
7.741130049100482
30
0
10
0.4694219588496984
20
7.6954801007148932
30
0
0
LWPOLYLINE
5
245
100
AcDbEntity
8
0
100
AcDbPolyline
90
3
70
1
43
0.0
10
2.2689176442418462
20
7.8438782393030326
10
2.2046192003858152
20
7.8438782393030326
10
2.2046192003858156
20
8.936935098408183
0
SPLINE
5
246
100
AcDbEntity
8
0
100
AcDbSpline
70
4
71
3
72
8
73
4
74
0
42
0.000000001
43
0.0000000001
44
0.0000000001
40
0
40
0
40
0
40
0
40
1
40
1
40
1
40
1
41
1
41
1
41
1
41
1
10
1.7376267222103414
20
11.380239810968046
30
0
10
1.4016089504967955
20
12.064879184306708
30
0
10
0.86376025464987238
20
12.917527443502143
30
0
10
-0.040838477349656177
20
12.530328166100688
30
0
0
SPLINE
5
247
100
AcDbEntity
8
0
100
AcDbSpline
70
4
71
3
72
8
73
4
74
0
42
0.000000001
43
0.0000000001
44
0.0000000001
40
0
40
0
40
0
40
0
40
1
40
1
40
1
40
1
41
1
41
1
41
1
41
1
10
-0.040838477349656177
20
12.530328166100688
30
0
10
-0.74868869897648516
20
12.227357903398442
30
0
10
-0.84455651071451143
20
11.072061986149864
30
0
10
-0.91669897537053791
20
10.415778449037676
30
0
0
SPLINE
5
248
100
AcDbEntity
8
0
100
AcDbSpline
70
4
71
3
72
8
73
4
74
0
42
0.000000001
43
0.0000000001
44
0.0000000001
40
0
40
0
40
0
40
0
40
1
40
1
40
1
40
1
41
1
41
1
41
1
41
1
10
-0.91669897537053791
20
10.415778449037676
30
0
10
-1.0051719098502088
20
9.6109674533702503
30
0
10
-0.95386247473248309
20
8.7731075581542441
30
0
10
-0.85233795733687945
20
7.9724751270150946
30
0
0
SPLINE
5
249
100
AcDbEntity
8
0
100
AcDbSpline
70
4
71
3
72
8
73
4
74
0
42
0.000000001
43
0.0000000001
44
0.0000000001
40
0
40
0
40
0
40
0
40
1
40
1
40
1
40
1
41
1
41
1
41
1
41
1
10
-0.85233795733687945
20
7.9724751270150946
30
0
10
-0.81157296641812149
20
7.650988469884064
30
0
10
-0.79723513651761335
20
7.2394839913545912
30
0
10
-0.60678576002613838
20
6.9650628495608258
30
0
0
SPLINE
5
250
100
AcDbEntity
8
0
100
AcDbSpline
70
4
71
3
72
8
73
4
74
0
42
0.000000001
43
0.0000000001
44
0.0000000001
40
0
40
0
40
0
40
0
40
1
40
1
40
1
40
1
41
1
41
1
41
1
41
1
10
-0.60678576002613838
20
6.9650628495608258
30
0
10
-0.158438996246546
20
6.319002542535781
30
0
10
1.2087164000032669
20
6.5000630113084856
30
0
10
1.8188354899360348
20
6.7658044193965994
30
0
0
SPLINE
5
251
100
AcDbEntity
8
0
100
AcDbSpline
70
4
71
3
72
8
73
4
74
0
42
0.000000001
43
0.0000000001
44
0.0000000001
40
0
40
0
40
0
40
0
40
1
40
1
40
1
40
1
41
1
41
1
41
1
41
1
10
1.8188354899360348
20
6.7658044193965994
30
0
10
2.7090338178574269
20
7.1534542308769762
30
0
10
2.8340917881903005
20
7.8832304443446777
30
0
10
2.6971391619589724
20
8.7440439384519326
30
0
0
SPLINE
5
252
100
AcDbEntity
8
0
100
AcDbSpline
70
4
71
3
72
8
73
4
74
0
42
0.000000001
43
0.0000000001
44
0.0000000001
40
0
40
0
40
0
40
0
40
1
40
1
40
1
40
1
41
1
41
1
41
1
41
1
10
2.6971391619589724
20
8.7440439384519326
30
0
10
2.5454607459258427
20
9.69731842795969
30
0
10
2.1622481389079362
20
10.515117041828137
30
0
10
1.7376267222103414
20
11.380239810968046
30
0
0
SPLINE
5
253
100
AcDbEntity
8
0
100
AcDbSpline
70
4
71
3
72
8
73
4
74
0
42
0.000000001
43
0.0000000001
44
0.0000000001
40
0
40
0
40
0
40
0
40
1
40
1
40
1
40
1
41
1
41
1
41
1
41
1
10
-0.94595309868029664
20
12.794784022472868
30
0
10
-1.8488831859430777
20
12.737881151143833
30
0
10
-1.9098359971019274
20
11.504848637759279
30
0
10
-1.9104158511479463
20
10.801563550024735
30
0
0
SPLINE
5
254
100
AcDbEntity
8
0
100
AcDbSpline
70
4
71
3
72
8
73
4
74
0
42
0.000000001
43
0.0000000001
44
0.0000000001
40
0
40
0
40
0
40
0
40
1
40
1
40
1
40
1
41
1
41
1
41
1
41
1
10
-1.9104158511479463
20
10.801563550024735
30
0
10
-1.4483111115138669
20
10.854865625065596
30
0
10
-1.4429742294308334
20
11.188184363917451
30
0
10
-1.3065972856336838
20
11.573132361461575
30
0
0
SPLINE
5
255
100
AcDbEntity
8
0
100
AcDbSpline
70
4
71
3
72
8
73
4
74
0
42
0.000000001
43
0.0000000001
44
0.0000000001
40
0
40
0
40
0
40
0
40
1
40
1
40
1
40
1
41
1
41
1
41
1
41
1
10
-1.3065972856336838
20
11.573132361461575
30
0
10
-1.1581351823306352
20
11.992223611394131
30
0
10
-0.96402034956743821
20
12.341872820069629
30
0
10
-0.94595309868029664
20
12.794784022472868
30
0
0
SPLINE
5
256
100
AcDbEntity
8
0
100
AcDbSpline
70
4
71
3
72
8
73
4
74
0
42
0.000000001
43
0.0000000001
44
0.0000000001
40
0
40
0
40
0
40
0
40
1
40
1
40
1
40
1
41
1
41
1
41
1
41
1
10
-8.2115674019665725
20
10.480074111819144
30
0
10
-8.2167068277557558
20
11.058365193935721
30
0
10
-8.2297570201344072
20
11.83269978402372
30
0
10
-8.9188398553533013
20
11.958916071911357
30
0
0
SPLINE
5
257
100
AcDbEntity
8
0
100
AcDbSpline
70
4
71
3
72
8
73
4
74
0
42
0.000000001
43
0.0000000001
44
0.0000000001
40
0
40
0
40
0
40
0
40
1
40
1
40
1
40
1
41
1
41
1
41
1
41
1
10
-8.9188398553533013
20
11.958916071911357
30
0
10
-8.9015436573882667
20
11.441385906808904
30
0
10
-8.81062615836926
20
10.595873884937628
30
0
10
-8.2115674019665725
20
10.480074111819144
30
0
0
SPLINE
5
258
100
AcDbEntity
8
0
100
AcDbSpline
70
4
71
3
72
8
73
4
74
0
42
0.000000001
43
0.0000000001
44
0.0000000001
40
0
40
0
40
0
40
0
40
1
40
1
40
1
40
1
41
1
41
1
41
1
41
1
10
-5.8325611332627396
20
3.6645475249878023
30
0
10
-5.8467772911511942
20
4.0953401461368033
30
0
10
-5.9677144042529404
20
4.2797462476066883
30
0
10
-6.4112380894746899
20
4.3075222297871418
30
0
0
SPLINE
5
259
100
AcDbEntity
8
0
100
AcDbSpline
70
4
71
3
72
8
73
4
74
0
42
0.000000001
43
0.0000000001
44
0.0000000001
40
0
40
0
40
0
40
0
40
1
40
1
40
1
40
1
41
1
41
1
41
1
41
1
10
-6.4112380894746899
20
4.3075222297871418
30
0
10
-6.369638776187557
20
3.9261729427252723
30
0
10
-6.2146807779780762
20
3.7339881757075766
30
0
10
-5.8325611332627396
20
3.6645475249878023
30
0
0
SPLINE
5
260
100
AcDbEntity
8
0
100
AcDbSpline
70
4
71
3
72
8
73
4
74
0
42
0.000000001
43
0.0000000001
44
0.0000000001
40
0
40
0
40
0
40
0
40
1
40
1
40
1
40
1
41
1
41
1
41
1
41
1
10
-5.8325611332627396
20
3.6645475249878023
30
0
10
-5.8467772911511942
20
4.0953401461368033
30
0
10
-5.9677144042529404
20
4.2797462476066883
30
0
10
-6.4112380894746899
20
4.3075222297871418
30
0
0
SPLINE
5
261
100
AcDbEntity
8
0
100
AcDbSpline
70
4
71
3
72
8
73
4
74
0
42
0.000000001
43
0.0000000001
44
0.0000000001
40
0
40
0
40
0
40
0
40
1
40
1
40
1
40
1
41
1
41
1
41
1
41
1
10
-6.4112380894746899
20
4.3075222297871418
30
0
10
-6.369638776187557
20
3.9261729427252723
30
0
10
-6.2146807779780762
20
3.7339881757075766
30
0
10
-5.8325611332627396
20
3.6645475249878023
30
0
0
SPLINE
5
262
100
AcDbEntity
8
0
100
AcDbSpline
70
4
71
3
72
8
73
4
74
0
42
0.000000001
43
0.0000000001
44
0.0000000001
40
0
40
0
40
0
40
0
40
1
40
1
40
1
40
1
41
1
41
1
41
1
41
1
10
-3.9036377141333589
20
4.436116336424643
30
0
10
-4.4024575048563825
20
4.3783144827436864
30
0
10
-4.5271309916311626
20
3.9913710642018652
30
0
10
-4.546612418932698
20
3.535952027813023
30
0
0
SPLINE
5
263
100
AcDbEntity
8
0
100
AcDbSpline
70
4
71
3
72
8
73
4
74
0
42
0.000000001
43
0.0000000001
44
0.0000000001
40
0
40
0
40
0
40
0
40
1
40
1
40
1
40
1
41
1
41
1
41
1
41
1
10
-4.546612418932698
20
3.535952027813023
30
0
10
-4.0441911366528611
20
3.6268695268320261
30
0
10
-3.9150178712379824
20
3.9628247243679438
30
0
10
-3.9036377141333589
20
4.436116336424643
30
0
0
SPLINE
5
264
100
AcDbEntity
8
0
100
AcDbSpline
70
4
71
3
72
8
73
4
74
0
42
0.000000001
43
0.0000000001
44
0.0000000001
40
-1
40
-1
40
-1
40
-1
40
0
40
0
40
0
40
0
41
1
41
1
41
1
41
1
10
-8.7538227281950398
20
-11.305328817209341
30
0
10
-8.863369736530613
20
-11.281647390110976
30
0
10
-9.2218812979274123
20
-11.262154296308209
30
0
10
-9.5505187048943618
20
-11.262020881091477
30
0
0
SPLINE
5
265
100
AcDbEntity
8
0
100
AcDbSpline
70
4
71
3
72
8
73
4
74
0
42
0.000000001
43
0.0000000001
44
0.0000000001
40
-1
40
-1
40
-1
40
-1
40
0
40
0
40
0
40
0
41
1
41
1
41
1
41
1
10
-9.5505187048943618
20
-11.262020881091477
30
0
10
-10.12128256974604
20
-11.261780733701347
30
0
10
-10.167579006718821
20
-11.271100351909169
30
0
10
-10.584369952826282
20
-11.470134599297657
30
0
0
SPLINE
5
266
100
AcDbEntity
8
0
100
AcDbSpline
70
4
71
3
72
8
73
4
74
0
42
0.000000001
43
0.0000000001
44
0.0000000001
40
-1
40
-1
40
-1
40
-1
40
0
40
0
40
0
40
0
41
1
41
1
41
1
41
1
10
-10.584369952826282
20
-11.470134599297657
30
0
10
-10.82435453116366
20
-11.58473510469026
30
0
10
-11.04547465010933
20
-11.725579513852535
30
0
10
-11.075754024994078
20
-11.783122175213832
30
0
0
SPLINE
5
267
100
AcDbEntity
8
0
100
AcDbSpline
70
4
71
3
72
8
73
4
74
0
42
0.000000001
43
0.0000000001
44
0.0000000001
40
-1
40
-1
40
-1
40
-1
40
0
40
0
40
0
40
0
41
1
41
1
41
1
41
1
10
-11.075754024994078
20
-11.783122175213832
30
0
10
-11.106033399878825
20
-11.840664836575119
30
0
10
-11.149493293667287
20
-12.02605319469372
30
0
10
-11.17233397877273
20
-12.19509705812456
30
0
0
SPLINE
5
268
100
AcDbEntity
8
0
100
AcDbSpline
70
4
71
3
72
8
73
4
74
0
42
0.000000001
43
0.0000000001
44
0.0000000001
40
-1
40
-1
40
-1
40
-1
40
0
40
0
40
0
40
0
41
1
41
1
41
1
41
1
10
-11.17233397877273
20
-12.19509705812456
30
0
10
-11.210916754943234
20
-12.480667128618741
30
0
10
-11.206339934626683
20
-12.499338927392367
30
0
10
-11.107751968772392
20
-12.458564071372621
30
0
0
SPLINE
5
269
100
AcDbEntity
8
0
100
AcDbSpline
70
4
71
3
72
8
73
4
74
0
42
0.000000001
43
0.0000000001
44
0.0000000001
40
-1
40
-1
40
-1
40
-1
40
0
40
0
40
0
40
0
41
1
41
1
41
1
41
1
10
-11.107751968772392
20
-12.458564071372621
30
0
10
-10.382085348954107
20
-12.158440435879761
30
0
10
-9.5023300331187688
20
-12.133000641450291
30
0
10
-8.8960912882641185
20
-12.394609339018441
30
0
0
SPLINE
5
270
100
AcDbEntity
8
0
100
AcDbSpline
70
4
71
3
72
8
73
4
74
0
42
0.000000001
43
0.0000000001
44
0.0000000001
40
-1
40
-1
40
-1
40
-1
40
0
40
0
40
0
40
0
41
1
41
1
41
1
41
1
10
-8.8960912882641185
20
-12.394609339018441
30
0
10
-8.7453311888409324
20
-12.459666668994336
30
0
10
-8.7895183086243556
20
-12.465077899734208
30
0
10
-9.2740027789394475
20
-12.440891303832124
30
0
0
SPLINE
5
271
100
AcDbEntity
8
0
100
AcDbSpline
70
4
71
3
72
8
73
4
74
0
42
0.000000001
43
0.0000000001
44
0.0000000001
40
-1
40
-1
40
-1
40
-1
40
0
40
0
40
0
40
0
41
1
41
1
41
1
41
1
10
-9.2740027789394475
20
-12.440891303832124
30
0
10
-9.9401924428812372
20
-12.407633377701837
30
0
10
-10.422940254103885
20
-12.532432232712845
30
0
10
-10.9527840890898
20
-12.874886933584069
30
0
0
SPLINE
5
272
100
AcDbEntity
8
0
100
AcDbSpline
70
4
71
3
72
8
73
4
74
0
42
0.000000001
43
0.0000000001
44
0.0000000001
40
-1
40
-1
40
-1
40
-1
40
0
40
0
40
0
40
0
41
1
41
1
41
1
41
1
10
-10.9527840890898
20
-12.874886933584069
30
0
10
-11.328390888427871
20
-13.117655593529015
30
0
10
-11.369517146560852
20
-13.209480086277177
30
0
10
-11.370910091874586
20
-13.808351597638095
30
0
0
SPLINE
5
273
100
AcDbEntity
8
0
100
AcDbSpline
70
4
71
3
72
8
73
4
74
0
42
0.000000001
43
0.0000000001
44
0.0000000001
40
-1
40
-1
40
-1
40
-1
40
0
40
0
40
0
40
0
41
1
41
1
41
1
41
1
10
-11.370910091874586
20
-13.808351597638095
30
0
10
-11.371257423693075
20
-13.957021374580734
30
0
10
-11.395085833657337
20
-14.078659871847465
30
0
10
-11.42387095811463
20
-14.078659871847465
30
0
0
SPLINE
5
274
100
AcDbEntity
8
0
100
AcDbSpline
70
4
71
3
72
8
73
4
74
0
42
0.000000001
43
0.0000000001
44
0.0000000001
40
-1
40
-1
40
-1
40
-1
40
0
40
0
40
0
40
0
41
1
41
1
41
1
41
1
10
-11.42387095811463
20
-14.078659871847465
30
0
10
-11.505562678215338
20
-14.078659871847465
30
0
10
-11.652498509595359
20
-13.571773403749763
30
0
10
-11.673020031204429
20
-13.219181859936331
30
0
0
SPLINE
5
275
100
AcDbEntity
8
0
100
AcDbSpline
70
4
71
3
72
8
73
4
74
0
42
0.000000001
43
0.0000000001
44
0.0000000001
40
-1
40
-1
40
-1
40
-1
40
0
40
0
40
0
40
0
41
1
41
1
41
1
41
1
10
-11.673020031204429
20
-13.219181859936331
30
0
10
-11.693161658637026
20
-12.8730973606599
30
0
10
-11.803244136859439
20
-12.684112218749055
30
0
10
-12.121410936714856
20
-12.449373798086789
30
0
0
SPLINE
5
276
100
AcDbEntity
8
0
100
AcDbSpline
70
4
71
3
72
8
73
4
74
0
42
0.000000001
43
0.0000000001
44
0.0000000001
40
-1
40
-1
40
-1
40
-1
40
0
40
0
40
0
40
0
41
1
41
1
41
1
41
1
10
-12.121410936714856
20
-12.449373798086789
30
0
10
-12.301690622669845
20
-12.316370133373917
30
0
10
-12.441665345520985
20
-12.261398541528399
30
0
10
-12.903573247634279
20
-12.14220222111042
30
0
0
SPLINE
5
277
100
AcDbEntity
8
0
100
AcDbSpline
70
4
71
3
72
8
73
4
74
0
42
0.000000001
43
0.0000000001
44
0.0000000001
40
-1
40
-1
40
-1
40
-1
40
0
40
0
40
0
40
0
41
1
41
1
41
1
41
1
10
-12.903573247634279
20
-12.14220222111042
30
0
10
-13.237192695372686
20
-12.056110512387219
30
0
10
-13.113104785177647
20
-11.975149636321255
30
0
10
-12.645733643002703
20
-11.973977391433856
30
0
0
SPLINE
5
278
100
AcDbEntity
8
0
100
AcDbSpline
70
4
71
3
72
8
73
4
74
0
42
0.000000001
43
0.0000000001
44
0.0000000001
40
-1
40
-1
40
-1
40
-1
40
0
40
0
40
0
40
0
41
1
41
1
41
1
41
1
10
-12.645733643002703
20
-11.973977391433856
30
0
10
-12.375241753274704
20
-11.973299461230841
30
0
10
-12.226486047887377
20
-12.00922071689118
30
0
10
-11.975491774511866
20
-12.135825426005349
30
0
0
SPLINE
5
279
100
AcDbEntity
8
0
100
AcDbSpline
70
4
71
3
72
8
73
4
74
0
42
0.000000001
43
0.0000000001
44
0.0000000001
40
-1
40
-1
40
-1
40
-1
40
0
40
0
40
0
40
0
41
1
41
1
41
1
41
1
10
-11.975491774511866
20
-12.135825426005349
30
0
10
-11.798063103900311
20
-12.225320805647755
30
0
10
-11.640642193249642
20
-12.278715384405938
30
0
10
-11.625663508577295
20
-12.254479944966876
30
0
0
SPLINE
5
280
100
AcDbEntity
8
0
100
AcDbSpline
70
4
71
3
72
8
73
4
74
0
42
0.000000001
43
0.0000000001
44
0.0000000001
40
-1
40
-1
40
-1
40
-1
40
0
40
0
40
0
40
0
41
1
41
1
41
1
41
1
10
-11.625663508577295
20
-12.254479944966876
30
0
10
-11.610684823904949
20
-12.230244505527818
30
0
10
-11.582768028993886
20
-12.060581052785349
30
0
10
-11.563628598579214
20
-11.877450351486933
30
0
0
SPLINE
5
281
100
AcDbEntity
8
0
100
AcDbSpline
70
4
71
3
72
8
73
4
74
0
42
0.000000001
43
0.0000000001
44
0.0000000001
40
-1
40
-1
40
-1
40
-1
40
0
40
0
40
0
40
0
41
1
41
1
41
1
41
1
10
-11.563628598579214
20
-11.877450351486933
30
0
10
-11.530121932214339
20
-11.556883886750132
30
0
10
-11.535737129946586
20
-11.537730436431337
30
0
10
-11.714366989763745
20
-11.363085847427357
30
0
0
SPLINE
5
282
100
AcDbEntity
8
0
100
AcDbSpline
70
4
71
3
72
8
73
4
74
0
42
0.000000001
43
0.0000000001
44
0.0000000001
40
-1
40
-1
40
-1
40
-1
40
0
40
0
40
0
40
0
41
1
41
1
41
1
41
1
10
-11.714366989763745
20
-11.363085847427357
30
0
10
-11.938707164109994
20
-11.143751231111105
30
0
10
-12.222053949161875
20
-11.002905012928936
30
0
10
-12.519123959083842
20
-10.963059993131603
30
0
0
SPLINE
5
283
100
AcDbEntity
8
0
100
AcDbSpline
70
4
71
3
72
8
73
4
74
0
42
0.000000001
43
0.0000000001
44
0.0000000001
40
-1
40
-1
40
-1
40
-1
40
0
40
0
40
0
40
0
41
1
41
1
41
1
41
1
10
-12.519123959083842
20
-10.963059993131603
30
0
10
-12.812120056218124
20
-10.923761297340437
30
0
10
-12.846122394032307
20
-10.849866000701894
30
0
10
-12.593058601904952
20
-10.802390535017125
30
0
0
SPLINE
5
284
100
AcDbEntity
8
0
100
AcDbSpline
70
4
71
3
72
8
73
4
74
0
42
0.000000001
43
0.0000000001
44
0.0000000001
40
-1
40
-1
40
-1
40
-1
40
0
40
0
40
0
40
0
41
1
41
1
41
1
41
1
10
-12.593058601904952
20
-10.802390535017125
30
0
10
-12.283477410437822
20
-10.744312856023971
30
0
10
-11.909126070901994
20
-10.805618278752224
30
0
10
-11.602764934835434
20
-10.964564193168446
30
0
0
LINE
5
285
100
AcDbEntity
8
0
100
AcDbLine
10
-11.602764934835434
20
-10.964564193168446
30
0
11
-11.327193317262036
21
-11.107535557463999
31
0
0
LINE
5
286
100
AcDbEntity
8
0
100
AcDbLine
10
-11.327193317262036
20
-11.107535557463999
30
0
11
-11.235606258374169
21
-10.874380029203699
31
0
0
SPLINE
5
287
100
AcDbEntity
8
0
100
AcDbSpline
70
4
71
3
72
8
73
4
74
0
42
0.000000001
43
0.0000000001
44
0.0000000001
40
-1
40
-1
40
-1
40
-1
40
0
40
0
40
0
40
0
41
1
41
1
41
1
41
1
10
-11.235606258374169
20
-10.874380029203699
30
0
10
-11.146197259431414
20
-10.646772312684813
30
0
10
-11.14743462903478
20
-10.636064723967952
30
0
10
-11.287528747198525
20
-10.424367789618687
30
0
0
SPLINE
5
288
100
AcDbEntity
8
0
100
AcDbSpline
70
4
71
3
72
8
73
4
74
0
42
0.000000001
43
0.0000000001
44
0.0000000001
40
-1
40
-1
40
-1
40
-1
40
0
40
0
40
0
40
0
41
1
41
1
41
1
41
1
10
-11.287528747198525
20
-10.424367789618687
30
0
10
-11.367089441871201
20
-10.304144850414287
30
0
10
-11.556884572436887
20
-10.138105769017356
30
0
10
-11.713455243740212
20
-10.051758083980005
30
0
0
SPLINE
5
289
100
AcDbEntity
8
0
100
AcDbSpline
70
4
71
3
72
8
73
4
74
0
42
0.000000001
43
0.0000000001
44
0.0000000001
40
-1
40
-1
40
-1
40
-1
40
0
40
0
40
0
40
0
41
1
41
1
41
1
41
1
10
-11.713455243740212
20
-10.051758083980005
30
0
10
-11.868781309360621
20
-9.9660942084603086
30
0
10
-11.996230378507491
20
-9.8767996300254701
30
0
10
-11.996689869559027
20
-9.8533253357042696
30
0
0
SPLINE
5
290
100
AcDbEntity
8
0
100
AcDbSpline
70
4
71
3
72
8
73
4
74
0
42
0.000000001
43
0.0000000001
44
0.0000000001
40
-1
40
-1
40
-1
40
-1
40
0
40
0
40
0
40
0
41
1
41
1
41
1
41
1
10
-11.996689869559027
20
-9.8533253357042696
30
0
10
-11.998611048680052
20
-9.7532024164750464
30
0
10
-11.627157759004749
20
-9.8236008776701524
30
0
10
-11.310742090400883
20
-9.9833264796580856
30
0
0
SPLINE
5
291
100
AcDbEntity
8
0
100
AcDbSpline
70
4
71
3
72
8
73
4
74
0
42
0.000000001
43
0.0000000001
44
0.0000000001
40
-1
40
-1
40
-1
40
-1
40
0
40
0
40
0
40
0
41
1
41
1
41
1
41
1
10
-11.310742090400883
20
-9.9833264796580856
30
0
10
-11.122600404012806
20
-10.078301380541138
30
0
10
-10.94897791124553
20
-10.143841266572146
30
0
10
-10.924917946735597
20
-10.128971123093077
30
0
0
SPLINE
5
292
100
AcDbEntity
8
0
100
AcDbSpline
70
4
71
3
72
8
73
4
74
0
42
0.000000001
43
0.0000000001
44
0.0000000001
40
-1
40
-1
40
-1
40
-1
40
0
40
0
40
0
40
0
41
1
41
1
41
1
41
1
10
-10.924917946735597
20
-10.128971123093077
30
0
10
-10.900854364185903
20
-10.114100979614008
30
0
10
-10.719923431071248
20
-9.8443340546061151
30
0
10
-10.522848804476395
20
-9.5294886152650058
30
0
0
SPLINE
5
293
100
AcDbEntity
8
0
100
AcDbSpline
70
4
71
3
72
8
73
4
74
0
42
0.000000001
43
0.0000000001
44
0.0000000001
40
-1
40
-1
40
-1
40
-1
40
0
40
0
40
0
40
0
41
1
41
1
41
1
41
1
10
-10.522848804476395
20
-9.5294886152650058
30
0
10
-10.325770559841772
20
-9.2146431759238911
30
0
10
-10.143526278288455
20
-8.9570423619175266
30
0
10
-10.117856286078233
20
-8.9570423619175266
30
0
0
SPLINE
5
294
100
AcDbEntity
8
0
100
AcDbSpline
70
4
71
3
72
8
73
4
74
0
42
0.000000001
43
0.0000000001
44
0.0000000001
40
-1
40
-1
40
-1
40
-1
40
0
40
0
40
0
40
0
41
1
41
1
41
1
41
1
10
-10.117856286078233
20
-8.9570423619175266
30
0
10
-10.092189911907798
20
-8.9570423619175266
30
0
10
-10.168150657003423
20
-9.1811132184279529
30
0
10
-10.286663167903747
20
-9.4549773473546104
30
0
0
SPLINE
5
295
100
AcDbEntity
8
0
100
AcDbSpline
70
4
71
3
72
8
73
4
74
0
42
0.000000001
43
0.0000000001
44
0.0000000001
40
-1
40
-1
40
-1
40
-1
40
0
40
0
40
0
40
0
41
1
41
1
41
1
41
1
10
-10.286663167903747
20
-9.4549773473546104
30
0
10
-10.625405759964881
20
-10.237758343075711
30
0
10
-10.623256644337973
20
-10.212361965123549
30
0
10
-10.34254741028275
20
-10.115649952893078
30
0
0
SPLINE
5
296
100
AcDbEntity
8
0
100
AcDbSpline
70
4
71
3
72
8
73
4
74
0
42
0.000000001
43
0.0000000001
44
0.0000000001
40
-1
40
-1
40
-1
40
-1
40
0
40
0
40
0
40
0
41
1
41
1
41
1
41
1
10
-10.34254741028275
20
-10.115649952893078
30
0
10
-9.9633913139244967
20
-9.9850192700182472
30
0
10
-9.6524859198993695
20
-9.96363891621737
30
0
10
-9.2909460592101212
20
-10.04333257385181
30
0
0
LINE
5
297
100
AcDbEntity
8
0
100
AcDbLine
10
-9.2909460592101194
20
-10.04333257385181
30
0
11
-8.9529958178599234
21
-10.117826656073273
31
0
0
LINE
5
298
100
AcDbEntity
8
0
100
AcDbLine
10
-8.9529958178599234
20
-10.117826656073273
30
0
11
-9.3513419971896994
21
-10.158509252078733
31
0
0
SPLINE
5
299
100
AcDbEntity
8
0
100
AcDbSpline
70
4
71
3
72
8
73
4
74
0
42
0.000000001
43
0.0000000001
44
0.0000000001
40
-1
40
-1
40
-1
40
-1
40
0
40
0
40
0
40
0
41
1
41
1
41
1
41
1
10
-9.3513419971896994
20
-10.158509252078733
30
0
10
-10.094606762478113
20
-10.234417535597613
30
0
10
-10.757290545877041
20
-10.576922436770726
30
0
10
-10.85656955732853
20
-10.936479159407799
30
0
0
SPLINE
5
300
100
AcDbEntity
8
0
100
AcDbSpline
70
4
71
3
72
8
73
4
74
0
42
0.000000001
43
0.0000000001
44
0.0000000001
40
-1
40
-1
40
-1
40
-1
40
0
40
0
40
0
40
0
41
1
41
1
41
1
41
1
10
-10.85656955732853
20
-10.936479159407799
30
0
10
-10.887713643719721
20
-11.049271549422386
30
0
10
-10.907247440469963
20
-11.147504042868688
30
0
10
-10.899978798560124
20
-11.154773589288469
30
0
0
SPLINE
5
301
100
AcDbEntity
8
0
100
AcDbSpline
70
4
71
3
72
8
73
4
74
0
42
0.000000001
43
0.0000000001
44
0.0000000001
40
-1
40
-1
40
-1
40
-1
40
0
40
0
40
0
40
0
41
1
41
1
41
1
41
1
10
-10.899978798560124
20
-11.154773589288469
30
0
10
-10.892710156650285
20
-11.162043135708259
30
0
10
-10.733349976679714
20
-11.115986393870623
30
0
10
-10.545852301371745
20
-11.052425123342076
30
0
0
SPLINE
5
302
100
AcDbEntity
8
0
100
AcDbSpline
70
4
71
3
72
8
73
4
74
0
42
0.000000001
43
0.0000000001
44
0.0000000001
40
-1
40
-1
40
-1
40
-1
40
0
40
0
40
0
40
0
41
1
41
1
41
1
41
1
10
-10.545852301371745
20
-11.052425123342076
30
0
10
-10.035933011431872
20
-10.87956513245758
30
0
10
-9.4138798147166369
20
-10.923163416267467
30
0
10
-8.9228249841684537
20
-11.166179459682088
30
0
0
SPLINE
5
303
100
AcDbEntity
8
0
100
AcDbSpline
70
4
71
3
72
8
73
4
74
0
42
0.000000001
43
0.0000000001
44
0.0000000001
40
-1
40
-1
40
-1
40
-1
40
0
40
0
40
0
40
0
41
1
41
1
41
1
41
1
10
-8.9228249841684537
20
-11.166179459682088
30
0
10
-8.6425209705681372
20
-11.304896009201148
30
0
10
-8.6021834451063039
20
-11.338109162089204
30
0
10
-8.7538227281950398
20
-11.305328817209341
30
0
0
SPLINE
5
304
100
AcDbEntity
8
0
100
AcDbSpline
70
4
71
3
72
8
73
4
74
0
42
0.000000001
43
0.0000000001
44
0.0000000001
40
-1
40
-1
40
-1
40
-1
40
0
40
0
40
0
40
0
41
1
41
1
41
1
41
1
10
-13.75076258744647
20
-11.796224906262358
30
0
10
-13.770828236043773
20
-12.21593515821402
30
0
10
-13.755115089296917
20
-12.337022356669891
30
0
10
-13.648404624145662
20
-12.585085113316969
30
0
0
SPLINE
5
305
100
AcDbEntity
8
0
100
AcDbSpline
70
4
71
3
72
8
73
4
74
0
42
0.000000001
43
0.0000000001
44
0.0000000001
40
-1
40
-1
40
-1
40
-1
40
0
40
0
40
0
40
0
41
1
41
1
41
1
41
1
10
-13.648404624145662
20
-12.585085113316969
30
0
10
-13.43587373162805
20
-13.079125731190233
30
0
10
-12.822388053102207
20
-13.574400100627088
30
0
10
-12.15560503063716
20
-13.79024059502974
30
0
0
SPLINE
5
306
100
AcDbEntity
8
0
100
AcDbSpline
70
4
71
3
72
8
73
4
74
0
42
0.000000001
43
0.0000000001
44
0.0000000001
40
-1
40
-1
40
-1
40
-1
40
0
40
0
40
0
40
0
41
1
41
1
41
1
41
1
10
-12.15560503063716
20
-13.79024059502974
30
0
10
-11.98225389085307
20
-13.846355487444452
30
0
10
-11.933247542088115
20
-13.896831664868383
30
0
10
-11.885616048438017
20
-14.06831680063803
30
0
0
SPLINE
5
307
100
AcDbEntity
8
0
100
AcDbSpline
70
4
71
3
72
8
73
4
74
0
42
0.000000001
43
0.0000000001
44
0.0000000001
40
-1
40
-1
40
-1
40
-1
40
0
40
0
40
0
40
0
41
1
41
1
41
1
41
1
10
-11.885616048438017
20
-14.06831680063803
30
0
10
-11.853610868580144
20
-14.183551367501366
30
0
10
-11.827130435460127
20
-14.303441447046383
30
0
10
-11.826790339721187
20
-14.334740204637999
30
0
0
SPLINE
5
308
100
AcDbEntity
8
0
100
AcDbSpline
70
4
71
3
72
8
73
4
74
0
42
0.000000001
43
0.0000000001
44
0.0000000001
40
-1
40
-1
40
-1
40
-1
40
0
40
0
40
0
40
0
41
1
41
1
41
1
41
1
10
-11.826790339721187
20
-14.334740204637999
30
0
10
-11.826443007902689
20
-14.366038962229615
30
0
10
-11.800226691686309
20
-14.484991969472665
30
0
10
-11.768539899328729
20
-14.599079617727032
30
0
0
SPLINE
5
309
100
AcDbEntity
8
0
100
AcDbSpline
70
4
71
3
72
8
73
4
74
0
42
0.000000001
43
0.0000000001
44
0.0000000001
40
-1
40
-1
40
-1
40
-1
40
0
40
0
40
0
40
0
41
1
41
1
41
1
41
1
10
-11.768539899328729
20
-14.599079617727032
30
0
10
-11.71624475240745
20
-14.787350649037103
30
0
10
-11.686048592437555
20
-14.81169734319927
30
0
10
-11.441642769494003
20
-14.862659242463119
30
0
0
SPLINE
5
310
100
AcDbEntity
8
0
100
AcDbSpline
70
4
71
3
72
8
73
4
74
0
42
0.000000001
43
0.0000000001
44
0.0000000001
40
-1
40
-1
40
-1
40
-1
40
0
40
0
40
0
40
0
41
1
41
1
41
1
41
1
10
-11.441635533414445
20
-14.862660146973061
30
0
10
-11.293531075186793
20
-14.8935419254805
30
0
10
-11.098138837087745
20
-14.921836805548159
30
0
10
-11.007427343825658
20
-14.925535346709097
30
0
0
LINE
5
311
100
AcDbEntity
8
0
100
AcDbLine
10
-11.007427343825658
20
-14.925535346709097
30
0
11
-10.842499000639938
21
-14.932263091672437
31
0
0
LINE
5
312
100
AcDbEntity
8
0
100
AcDbLine
10
-10.842499000639938
20
-14.932263091672437
30
0
11
-10.877311779363934
21
-14.480843886869561
31
0
0
LINE
5
313
100
AcDbEntity
8
0
100
AcDbLine
10
-10.877311779363934
20
-14.480843886869561
30
0
11
-10.912124558087912
21
-14.029423777556733
31
0
0
LINE
5
314
100
AcDbEntity
8
0
100
AcDbLine
10
-10.912124558087912
20
-14.029423777556733
30
0
11
-10.586985795584285
21
-13.99205666275094
31
0
0
SPLINE
5
315
100
AcDbEntity
8
0
100
AcDbSpline
70
4
71
3
72
8
73
4
74
0
42
0.000000001
43
0.0000000001
44
0.0000000001
40
-1
40
-1
40
-1
40
-1
40
0
40
0
40
0
40
0
41
1
41
1
41
1
41
1
10
-10.586985795584285
20
-13.99205666275094
30
0
10
-9.012118205838382
20
-13.811064222960097
30
0
10
-7.9290399087151808
20
-13.263969574322552
30
0
10
-7.7304855038519715
20
-12.54915526481216
30
0
0
SPLINE
5
316
100
AcDbEntity
8
0
100
AcDbSpline
70
4
71
3
72
8
73
4
74
0
42
0.000000001
43
0.0000000001
44
0.0000000001
40
-1
40
-1
40
-1
40
-1
40
0
40
0
40
0
40
0
41
1
41
1
41
1
41
1
10
-7.7304855038519715
20
-12.54915526481216
30
0
10
-7.5706296524321015
20
-11.973655385893798
30
0
10
-7.7371246068408084
20
-11.153759633641268
30
0
10
-8.2168332646516706
20
-10.15416579532773
30
0
0
SPLINE
5
317
100
AcDbEntity
8
0
100
AcDbSpline
70
4
71
3
72
8
73
4
74
0
42
0.000000001
43
0.0000000001
44
0.0000000001
40
-1
40
-1
40
-1
40
-1
40
0
40
0
40
0
40
0
41
1
41
1
41
1
41
1
10
-8.2168332646516706
20
-10.15416579532773
30
0
10
-8.5617156702125374
20
-9.435519529439663
30
0
10
-9.4595467127684074
20
-8.046533934114283
30
0
10
-9.5791952881583775
20
-8.046533934114283
30
0
0
SPLINE
5
318
100
AcDbEntity
8
0
100
AcDbSpline
70
4
71
3
72
8
73
4
74
0
42
0.000000001
43
0.0000000001
44
0.0000000001
40
-1
40
-1
40
-1
40
-1
40
0
40
0
40
0
40
0
41
1
41
1
41
1
41
1
10
-9.5791952881583775
20
-8.046533934114283
30
0
10
-9.6792557962014669
20
-8.046533934114283
30
0
10
-10.430534519593566
20
-8.3705269086463794
30
0
10
-11.02964210804986
20
-8.672045750727829
30
0
0
SPLINE
5
319
100
AcDbEntity
8
0
100
AcDbSpline
70
4
71
3
72
8
73
4
74
0
42
0.000000001
43
0.0000000001
44
0.0000000001
40
-1
40
-1
40
-1
40
-1
40
0
40
0
40
0
40
0
41
1
41
1
41
1
41
1
10
-11.02964210804986
20
-8.672045750727829
30
0
10
-12.196781941327011
20
-9.2594428750668722
30
0
10
-13.126274449962034
20
-10.077943646858291
30
0
10
-13.50781121649284
20
-10.854288602072995
30
0
0
SPLINE
5
320
100
AcDbEntity
8
0
100
AcDbSpline
70
4
71
3
72
8
73
4
74
0
42
0.000000001
43
0.0000000001
44
0.0000000001
40
-1
40
-1
40
-1
40
-1
40
0
40
0
40
0
40
0
41
1
41
1
41
1
41
1
10
-13.50781121649284
20
-10.854288602072995
30
0
10
-13.699704810128566
20
-11.244754238515826
30
0
10
-13.730013129331518
20
-11.362263647888277
30
0
10
-13.75076258744647
20
-11.796224906262358
30
0
0
SPLINE
5
321
100
AcDbEntity
8
0
100
AcDbSpline
70
4
71
3
72
8
73
4
74
0
42
0.000000001
43
0.0000000001
44
0.0000000001
40
-1
40
-1
40
-1
40
-1
40
0
40
0
40
0
40
0
41
1
41
1
41
1
41
1
10
-1.187007612513673
20
-15.214778317894343
30
0
10
-1.187007612513673
20
-14.887503982623485
30
0
10
-0.5144087514757345
20
-14.293058827103247
30
0
10
-0.021651512046343413
20
-14.184851835641128
30
0
0
SPLINE
5
322
100
AcDbEntity
8
0
100
AcDbSpline
70
4
71
3
72
8
73
4
74
0
42
0.000000001
43
0.0000000001
44
0.0000000001
40
-1
40
-1
40
-1
40
-1
40
0
40
0
40
0
40
0
41
1
41
1
41
1
41
1
10
-0.021651512046343413
20
-14.184851835641128
30
0
10
0.28494250403586108
20
-14.117512104161403
30
0
10
0.31859739112556795
20
-14.170794525314614
30
0
10
0.13404574826031634
20
-14.431331943352781
30
0
0
SPLINE
5
323
100
AcDbEntity
8
0
100
AcDbSpline
70
4
71
3
72
8
73
4
74
0
42
0.000000001
43
0.0000000001
44
0.0000000001
40
-1
40
-1
40
-1
40
-1
40
0
40
0
40
0
40
0
41
1
41
1
41
1
41
1
10
0.13404574826031634
20
-14.431331943352781
30
0
10
-0.13181367588372517
20
-14.80664984046367
30
0
10
-0.13867084078704295
20
-14.957264141693454
30
0
10
0.10090441489018609
20
-15.159360980564024
30
0
0
SPLINE
5
324
100
AcDbEntity
8
0
100
AcDbSpline
70
4
71
3
72
8
73
4
74
0
42
0.000000001
43
0.0000000001
44
0.0000000001
40
-1
40
-1
40
-1
40
-1
40
0
40
0
40
0
40
0
41
1
41
1
41
1
41
1
10
0.10090441489018609
20
-15.159360980564024
30
0
10
0.43375080801846266
20
-15.440138528888333
30
0
10
0.5821996243973615
20
-15.696277114768922
30
0
10
0.58406309075126117
20
-15.993068368541943
30
0
0
SPLINE
5
325
100
AcDbEntity
8
0
100
AcDbSpline
70
4
71
3
72
8
73
4
74
0
42
0.000000001
43
0.0000000001
44
0.0000000001
40
-1
40
-1
40
-1
40
-1
40
0
40
0
40
0
40
0
41
1
41
1
41
1
41
1
10
0.58406309075126117
20
-15.993068368541943
30
0
10
0.58576270901367522
20
-16.26296469174595
30
0
10
0.58649146619670134
20
-16.263535714572242
30
0
10
0.71868753009788122
20
-16.098548022929016
30
0
0
SPLINE
5
326
100
AcDbEntity
8
0
100
AcDbSpline
70
4
71
3
72
8
73
4
74
0
42
0.000000001
43
0.0000000001
44
0.0000000001
40
-1
40
-1
40
-1
40
-1
40
0
40
0
40
0
40
0
41
1
41
1
41
1
41
1
10
0.71868753009788122
20
-16.098548022929016
30
0
10
0.91402869206209214
20
-15.854750010655202
30
0
10
1.3584458535157351
20
-15.611136021797574
30
0
10
1.6084927140845595
20
-15.61082727819235
30
0
0
LINE
5
327
100
AcDbEntity
8
0
100
AcDbLine
10
1.6084927140845597
20
-15.610827278192351
30
0
11
1.8268851015761323
21
-15.610518534587129
31
0
0
LINE
5
328
100
AcDbEntity
8
0
100
AcDbLine
10
1.8268851015761323
20
-15.610518534587129
30
0
11
1.6277240781358193
21
-15.847206884712159
31
0
0
SPLINE
5
329
100
AcDbEntity
8
0
100
AcDbSpline
70
4
71
3
72
8
73
4
74
0
42
0.000000001
43
0.0000000001
44
0.0000000001
40
-1
40
-1
40
-1
40
-1
40
0
40
0
40
0
40
0
41
1
41
1
41
1
41
1
10
1.6277240781358193
20
-15.847206884712159
30
0
10
1.3457366217031197
20
-16.182332478157804
30
0
10
1.3326385563599707
20
-16.582540612210931
30
0
10
1.587319627874515
20
-17.081760069278346
30
0
0
SPLINE
5
330
100
AcDbEntity
8
0
100
AcDbSpline
70
4
71
3
72
8
73
4
74
0
42
0.000000001
43
0.0000000001
44
0.0000000001
40
-1
40
-1
40
-1
40
-1
40
0
40
0
40
0
40
0
41
1
41
1
41
1
41
1
10
1.587319627874515
20
-17.081760069278346
30
0
10
1.8790352590523707
20
-17.653567899114265
30
0
10
1.7330588370091604
20
-17.996620561045688
30
0
10
1.0813371574190311
20
-18.270860692794461
30
0
0
SPLINE
5
331
100
AcDbEntity
8
0
100
AcDbSpline
70
4
71
3
72
8
73
4
74
0
42
0.000000001
43
0.0000000001
44
0.0000000001
40
-1
40
-1
40
-1
40
-1
40
0
40
0
40
0
40
0
41
1
41
1
41
1
41
1
10
1.0813347119251304
20
-18.270863138288366
30
0
10
0.63893508294126988
20
-18.457021470647739
30
0
10
-0.4271339650742334
20
-18.486822259346702
30
0
10
-0.94708754219615443
20
-18.327565582664583
30
0
0
SPLINE
5
332
100
AcDbEntity
8
0
100
AcDbSpline
70
4
71
3
72
8
73
4
74
0
42
0.000000001
43
0.0000000001
44
0.0000000001
40
-1
40
-1
40
-1
40
-1
40
0
40
0
40
0
40
0
41
1
41
1
41
1
41
1
10
-0.94708754219615443
20
-18.327565582664583
30
0
10
-1.4519524219380742
20
-18.172932112205622
30
0
10
-1.8793660642858701
20
-17.779397119639636
30
0
10
-1.8793660642858701
20
-17.469188663569156
30
0
0
SPLINE
5
333
100
AcDbEntity
8
0
100
AcDbSpline
70
4
71
3
72
8
73
4
74
0
42
0.000000001
43
0.0000000001
44
0.0000000001
40
-1
40
-1
40
-1
40
-1
40
0
40
0
40
0
40
0
41
1
41
1
41
1
41
1
10
-1.8793660642858701
20
-17.469188663569156
30
0
10
-1.8793660642858701
20
-17.351885657535743
30
0
10
-1.7928224805613002
20
-17.138608020541778
30
0
10
-1.6870450872915654
20
-16.995234826758047
30
0
0
SPLINE
5
334
100
AcDbEntity
8
0
100
AcDbSpline
70
4
71
3
72
8
73
4
74
0
42
0.000000001
43
0.0000000001
44
0.0000000001
40
-1
40
-1
40
-1
40
-1
40
0
40
0
40
0
40
0
41
1
41
1
41
1
41
1
10
-1.6870450872915654
20
-16.995234826758047
30
0
10
-1.5812676940218218
20
-16.851862855721272
30
0
10
-1.4947241102972519
20
-16.670474459219221
30
0
10
-1.4947241102972519
20
-16.592150180501811
30
0
0
SPLINE
5
335
100
AcDbEntity
8
0
100
AcDbSpline
70
4
71
3
72
8
73
4
74
0
42
0.000000001
43
0.0000000001
44
0.0000000001
40
-1
40
-1
40
-1
40
-1
40
0
40
0
40
0
40
0
41
1
41
1
41
1
41
1
10
-1.4947241102972519
20
-16.592150180501811
30
0
10
-1.4947241102972519
20
-16.513824679037441
30
0
10
-1.5812676940218218
20
-16.363196927591193
30
0
10
-1.6870450872915654
20
-16.257419534321453
30
0
0
SPLINE
5
336
100
AcDbEntity
8
0
100
AcDbSpline
70
4
71
3
72
8
73
4
74
0
42
0.000000001
43
0.0000000001
44
0.0000000001
40
-1
40
-1
40
-1
40
-1
40
0
40
0
40
0
40
0
41
1
41
1
41
1
41
1
10
-1.6870450872915654
20
-16.257419534321453
30
0
10
-1.9299633331338573
20
-16.014501288479156
30
0
10
-1.9278919997982236
20
-15.995162934069654
30
0
10
-1.6589561443245238
20
-15.995162934069654
30
0
0
SPLINE
5
337
100
AcDbEntity
8
0
100
AcDbSpline
70
4
71
3
72
8
73
4
74
0
42
0.000000001
43
0.0000000001
44
0.0000000001
40
-1
40
-1
40
-1
40
-1
40
0
40
0
40
0
40
0
41
1
41
1
41
1
41
1
10
-1.6589561443245238
20
-15.995162934069654
30
0
10
-1.401071475797373
20
-15.995162934069654
30
0
10
-1.0649065474430586
20
-16.235501795218021
30
0
10
-0.98921117467109632
20
-16.473988806108526
30
0
0
LINE
5
338
100
AcDbEntity
8
0
100
AcDbLine
10
-0.98921117467109621
20
-16.473988806108526
30
0
11
-0.93617574840206608
21
-16.641086958989824
31
0
0
LINE
5
339
100
AcDbEntity
8
0
100
AcDbLine
10
-0.93617574840206608
20
-16.641086958989824
30
0
11
-0.792341579017668
21
-16.463459732110216
31
0
0
SPLINE
5
340
100
AcDbEntity
8
0
100
AcDbSpline
70
4
71
3
72
8
73
4
74
0
42
0.000000001
43
0.0000000001
44
0.0000000001
40
-1
40
-1
40
-1
40
-1
40
0
40
0
40
0
40
0
41
1
41
1
41
1
41
1
10
-0.792341579017668
20
-16.463459732110216
30
0
10
-0.58133947410022202
20
-16.202883186169608
30
0
10
-0.61519000070214602
20
-15.972669281152122
30
0
10
-0.91775873382042406
20
-15.610519757334082
30
0
0
SPLINE
5
341
100
AcDbEntity
8
0
100
AcDbSpline
70
4
71
3
72
8
73
4
74
0
42
0.000000001
43
0.0000000001
44
0.0000000001
40
-1
40
-1
40
-1
40
-1
40
0
40
0
40
0
40
0
41
1
41
1
41
1
41
1
10
-0.91775873382042406
20
-15.610519757334082
30
0
10
-1.065845617101715
20
-15.433270970635924
30
0
10
-1.187007612513673
20
-15.2551864363965
30
0
10
-1.187007612513673
20
-15.214778317894343
30
0
0
SPLINE
5
342
100
AcDbEntity
8
0
100
AcDbSpline
70
4
71
3
72
8
73
4
74
0
42
0.000000001
43
0.0000000001
44
0.0000000001
40
-1
40
-1
40
-1
40
-1
40
0
40
0
40
0
40
0
41
1
41
1
41
1
41
1
10
-0.033830071682068308
20
-10.072859911457751
30
0
10
-0.032186699779410688
20
-10.327889771540178
30
0
10
-0.33163253718387686
20
-10.698175147885941
30
0
10
-0.92369394752241263
20
-11.173237710495204
30
0
0
SPLINE
5
343
100
AcDbEntity
8
0
100
AcDbSpline
70
4
71
3
72
8
73
4
74
0
42
0.000000001
43
0.0000000001
44
0.0000000001
40
-1
40
-1
40
-1
40
-1
40
0
40
0
40
0
40
0
41
1
41
1
41
1
41
1
10
-0.92369394752241263
20
-11.173237710495204
30
0
10
-1.6375311722424968
20
-11.74600845355533
30
0
10
-1.92238474752922
20
-12.060621855518153
30
0
10
-2.1203572609327992
20
-12.494910392600062
30
0
0
SPLINE
5
344
100
AcDbEntity
8
0
100
AcDbSpline
70
4
71
3
72
8
73
4
74
0
42
0.000000001
43
0.0000000001
44
0.0000000001
40
-1
40
-1
40
-1
40
-1
40
0
40
0
40
0
40
0
41
1
41
1
41
1
41
1
10
-2.1203572609327992
20
-12.494910392600062
30
0
10
-2.2919013217293038
20
-12.871221771608949
30
0
10
-2.303693493328387
20
-13.44341048712022
30
0
10
-2.1476073994911893
20
-13.816979244717169
30
0
0
SPLINE
5
345
100
AcDbEntity
8
0
100
AcDbSpline
70
4
71
3
72
8
73
4
74
0
42
0.000000001
43
0.0000000001
44
0.0000000001
40
-1
40
-1
40
-1
40
-1
40
0
40
0
40
0
40
0
41
1
41
1
41
1
41
1
10
-2.1476073994911893
20
-13.816979244717169
30
0
10
-2.0835868146109782
20
-13.970204110688144
30
0
10
-2.0453319534902015
20
-14.109697528395158
30
0
10
-2.0625995859375479
20
-14.126965160842504
30
0
0
SPLINE
5
346
100
AcDbEntity
8
0
100
AcDbSpline
70
4
71
3
72
8
73
4
74
0
42
0.000000001
43
0.0000000001
44
0.0000000001
40
-1
40
-1
40
-1
40
-1
40
0
40
0
40
0
40
0
41
1
41
1
41
1
41
1
10
-2.0625995859375479
20
-14.126965160842504
30
0
10
-2.1433987044845448
20
-14.207764279389504
30
0
10
-2.6923338298480104
20
-13.608514339723827
30
0
10
-2.8524134152284031
20
-13.264756152801453
30
0
0
SPLINE
5
347
100
AcDbEntity
8
0
100
AcDbSpline
70
4
71
3
72
8
73
4
74
0
42
0.000000001
43
0.0000000001
44
0.0000000001
40
-1
40
-1
40
-1
40
-1
40
0
40
0
40
0
40
0
41
1
41
1
41
1
41
1
10
-2.8524134152284031
20
-13.264756152801453
30
0
10
-3.1011274816202317
20
-12.73065722757253
30
0
10
-3.0916756476860829
20
-12.567444353129229
30
0
10
-2.7632653804973994
20
-11.725624039128926
30
0
0
SPLINE
5
348
100
AcDbEntity
8
0
100
AcDbSpline
70
4
71
3
72
8
73
4
74
0
42
0.000000001
43
0.0000000001
44
0.0000000001
40
-1
40
-1
40
-1
40
-1
40
0
40
0
40
0
40
0
41
1
41
1
41
1
41
1
10
-2.7632653804973994
20
-11.725624039128926
30
0
10
-2.655519364635941
20
-11.449438516980518
30
0
10
-3.3936012159079354
20
-12.225871215008972
30
0
10
-3.6009448619468643
20
-12.606832700673944
30
0
0
SPLINE
5
349
100
AcDbEntity
8
0
100
AcDbSpline
70
4
71
3
72
8
73
4
74
0
42
0.000000001
43
0.0000000001
44
0.0000000001
40
-1
40
-1
40
-1
40
-1
40
0
40
0
40
0
40
0
41
1
41
1
41
1
41
1
10
-3.6009448619468643
20
-12.606832700673944
30
0
10
-3.709886724326763
20
-12.806990262879632
30
0
10
-3.8365755359589571
20
-13.145888030670276
30
0
10
-3.8824823475014547
20
-13.359940277857936
30
0
0
SPLINE
5
350
100
AcDbEntity
8
0
100
AcDbSpline
70
4
71
3
72
8
73
4
74
0
42
0.000000001
43
0.0000000001
44
0.0000000001
40
-1
40
-1
40
-1
40
-1
40
0
40
0
40
0
40
0
41
1
41
1
41
1
41
1
10
-3.8824823475014547
20
-13.359940277857936
30
0
10
-4.0295372323557821
20
-14.045640261106405
30
0
10
-3.7537270935214373
20
-15.025849852316625
30
0
10
-3.2147011094519407
20
-15.733172281279778
30
0
0
SPLINE
5
351
100
AcDbEntity
8
0
100
AcDbSpline
70
4
71
3
72
8
73
4
74
0
42
0.000000001
43
0.0000000001
44
0.0000000001
40
-1
40
-1
40
-1
40
-1
40
0
40
0
40
0
40
0
41
1
41
1
41
1
41
1
10
-3.2147011094519407
20
-15.733172281279778
30
0
10
-3.1149298492073729
20
-15.864098522471961
30
0
10
-3.0332943717456295
20
-16.008439520467704
30
0
10
-3.0332943717456295
20
-16.053930598046744
30
0
0
SPLINE
5
352
100
AcDbEntity
8
0
100
AcDbSpline
70
4
71
3
72
8
73
4
74
0
42
0.000000001
43
0.0000000001
44
0.0000000001
40
-1
40
-1
40
-1
40
-1
40
0
40
0
40
0
40
0
41
1
41
1
41
1
41
1
10
-3.0332943717456295
20
-16.053930598046744
30
0
10
-3.0332943717456295
20
-16.187965673362804
30
0
10
-3.5852961464631417
20
-15.935421352145793
30
0
10
-4.033024506661107
20
-15.59654865066765
30
0
0
LINE
5
353
100
AcDbEntity
8
0
100
AcDbLine
10
-4.0330245066611061
20
-15.59654865066765
30
0
11
-4.4378662402864766
21
-15.290134989760759
31
0
0
LINE
5
354
100
AcDbEntity
8
0
100
AcDbLine
10
-4.4378662402864766
20
-15.290134989760759
30
0
11
-4.3865842331457205
21
-15.50802299413489
31
0
0
SPLINE
5
355
100
AcDbEntity
8
0
100
AcDbSpline
70
4
71
3
72
8
73
4
74
0
42
0.000000001
43
0.0000000001
44
0.0000000001
40
-1
40
-1
40
-1
40
-1
40
0
40
0
40
0
40
0
41
1
41
1
41
1
41
1
10
-4.3865842331457205
20
-15.50802299413489
30
0
10
-4.1866088602357898
20
-16.357693343563042
30
0
10
-3.2432155683580532
20
-17.552165494436561
30
0
10
-2.4386896477482267
20
-17.974333552362939
30
0
0
SPLINE
5
356
100
AcDbEntity
8
0
100
AcDbSpline
70
4
71
3
72
8
73
4
74
0
42
0.000000001
43
0.0000000001
44
0.0000000001
40
-1
40
-1
40
-1
40
-1
40
0
40
0
40
0
40
0
41
1
41
1
41
1
41
1
10
-2.4386896477482267
20
-17.974333552362939
30
0
10
-2.0002492733929245
20
-18.204401950493217
30
0
10
-1.4071778740725449
20
-18.418047634319542
30
0
10
-1.033149363621888
20
-18.480658391964809
30
0
0
SPLINE
5
357
100
AcDbEntity
8
0
100
AcDbSpline
70
4
71
3
72
8
73
4
74
0
42
0.000000001
43
0.0000000001
44
0.0000000001
40
-1
40
-1
40
-1
40
-1
40
0
40
0
40
0
40
0
41
1
41
1
41
1
41
1
10
-1.033149363621888
20
-18.480658391964809
30
0
10
-0.55553951342615981
20
-18.560607701380608
30
0
10
0.73475197954508076
20
-18.522806479378779
30
0
10
1.1898486128720487
20
-18.415531221093602
30
0
0
SPLINE
5
358
100
AcDbEntity
8
0
100
AcDbSpline
70
4
71
3
72
8
73
4
74
0
42
0.000000001
43
0.0000000001
44
0.0000000001
40
-1
40
-1
40
-1
40
-1
40
0
40
0
40
0
40
0
41
1
41
1
41
1
41
1
10
1.1898486128720487
20
-18.415531221093602
30
0
10
2.7725771577224512
20
-18.042449116783303
30
0
10
4.1412173843501376
20
-16.620543587459732
30
0
10
4.6993769127147855
20
-14.769416584420757
30
0
0
SPLINE
5
359
100
AcDbEntity
8
0
100
AcDbSpline
70
4
71
3
72
8
73
4
74
0
42
0.000000001
43
0.0000000001
44
0.0000000001
40
-1
40
-1
40
-1
40
-1
40
0
40
0
40
0
40
0
41
1
41
1
41
1
41
1
10
4.6993769127147855
20
-14.769416584420757
30
0
10
4.7544103075023658
20
-14.586899592482592
30
0
10
4.7481571795930266
20
-14.588281907911123
30
0
10
4.4497995869752893
20
-14.824585092746467
30
0
0
SPLINE
5
360
100
AcDbEntity
8
0
100
AcDbSpline
70
4
71
3
72
8
73
4
74
0
42
0.000000001
43
0.0000000001
44
0.0000000001
40
-1
40
-1
40
-1
40
-1
40
0
40
0
40
0
40
0
41
1
41
1
41
1
41
1
10
4.4497995869752893
20
-14.824585092746467
30
0
10
4.0323464412934173
20
-15.155214645651899
30
0
10
3.4712792206783938
20
-15.423174749058401
30
0
10
2.9825839466214799
20
-15.525315081521263
30
0
0
SPLINE
5
361
100
AcDbEntity
8
0
100
AcDbSpline
70
4
71
3
72
8
73
4
74
0
42
0.000000001
43
0.0000000001
44
0.0000000001
40
-1
40
-1
40
-1
40
-1
40
0
40
0
40
0
40
0
41
1
41
1
41
1
41
1
10
2.9825839466214799
20
-15.525315081521263
30
0
10
2.269788502303971
20
-15.674292735956632
30
0
10
2.2454485014898573
20
-15.608402570987771
30
0
10
2.85754584337365
20
-15.186836104561463
30
0
0
SPLINE
5
362
100
AcDbEntity
8
0
100
AcDbSpline
70
4
71
3
72
8
73
4
74
0
42
0.000000001
43
0.0000000001
44
0.0000000001
40
-1
40
-1
40
-1
40
-1
40
0
40
0
40
0
40
0
41
1
41
1
41
1
41
1
10
2.85754584337365
20
-15.186836104561463
30
0
10
3.532083981076477
20
-14.722263182361321
30
0
10
3.9908855376661201
20
-14.085884531517078
30
0
10
4.0876757408432329
20
-13.480592999164646
30
0
0
SPLINE
5
363
100
AcDbEntity
8
0
100
AcDbSpline
70
4
71
3
72
8
73
4
74
0
42
0.000000001
43
0.0000000001
44
0.0000000001
40
-1
40
-1
40
-1
40
-1
40
0
40
0
40
0
40
0
41
1
41
1
41
1
41
1
10
4.0876757408432329
20
-13.480592999164646
30
0
10
4.135521829050619
20
-13.181381929174849
30
0
10
4.0372105286659954
20
-12.674863895554665
30
0
10
3.8888962144517469
20
-12.456445219003637
30
0
0
SPLINE
5
364
100
AcDbEntity
8
0
100
AcDbSpline
70
4
71
3
72
8
73
4
74
0
42
0.000000001
43
0.0000000001
44
0.0000000001
40
-1
40
-1
40
-1
40
-1
40
0
40
0
40
0
40
0
41
1
41
1
41
1
41
1
10
3.8888962144517469
20
-12.456445219003637
30
0
10
3.8214935115040349
20
-12.357189346599068
30
0
10
3.7984422859766731
20
-12.362568210438178
30
0
10
3.7240356884914672
20
-12.494909781226582
30
0
0
SPLINE
5
365
100
AcDbEntity
8
0
100
AcDbSpline
70
4
71
3
72
8
73
4
74
0
42
0.000000001
43
0.0000000001
44
0.0000000001
40
-1
40
-1
40
-1
40
-1
40
0
40
0
40
0
40
0
41
1
41
1
41
1
41
1
10
3.7240356884914672
20
-12.494909781226582
30
0
10
3.6764586046133818
20
-12.57953120674359
30
0
10
3.47685250128277
20
-12.806113553315491
30
0
10
3.2804671134220831
20
-12.998426582454613
30
0
0
SPLINE
5
366
100
AcDbEntity
8
0
100
AcDbSpline
70
4
71
3
72
8
73
4
74
0
42
0.000000001
43
0.0000000001
44
0.0000000001
40
-1
40
-1
40
-1
40
-1
40
0
40
0
40
0
40
0
41
1
41
1
41
1
41
1
10
3.2804671134220831
20
-12.998426582454613
30
0
10
2.890383935499834
20
-13.380420677920025
30
0
10
2.2505913751673479
20
-13.640331438145608
30
0
10
1.8083751582261876
20
-13.596454386542391
30
0
0
LINE
5
367
100
AcDbEntity
8
0
100
AcDbLine
10
1.808375158226188
20
-13.596454386542391
30
0
11
1.5610036679869754
21
-13.571910186987397
31
0
0
LINE
5
368
100
AcDbEntity
8
0
100
AcDbLine
10
1.5610036679869754
20
-13.571910186987397
30
0
11
1.5758306975193737
21
-12.798210939768735
31
0
0
SPLINE
5
369
100
AcDbEntity
8
0
100
AcDbSpline
70
4
71
3
72
8
73
4
74
0
42
0.000000001
43
0.0000000001
44
0.0000000001
40
-1
40
-1
40
-1
40
-1
40
0
40
0
40
0
40
0
41
1
41
1
41
1
41
1
10
1.5758306975193737
20
-12.79821093976874
30
0
10
1.6026871115594243
20
-11.396626853403578
30
0
10
1.2522722902337557
20
-10.354587839850016
30
0
10
0.52548617529858177
20
-9.6747637670763922
30
0
0
SPLINE
5
370
100
AcDbEntity
8
0
100
AcDbSpline
70
4
71
3
72
8
73
4
74
0
42
0.000000001
43
0.0000000001
44
0.0000000001
40
-1
40
-1
40
-1
40
-1
40
0
40
0
40
0
40
0
41
1
41
1
41
1
41
1
10
0.52548617529858177
20
-9.6747637670763922
30
0
10
0.15684753340959645
20
-9.3299466812941301
30
0
10
-0.32075008931661486
20
-9.0259027039790141
30
0
10
-0.38804763602652059
20
-9.0931996393154346
30
0
0
SPLINE
5
371
100
AcDbEntity
8
0
100
AcDbSpline
70
4
71
3
72
8
73
4
74
0
42
0.000000001
43
0.0000000001
44
0.0000000001
40
-1
40
-1
40
-1
40
-1
40
0
40
0
40
0
40
0
41
1
41
1
41
1
41
1
10
-0.38804763602652059
20
-9.0931996393154346
30
0
10
-0.40617119133982804
20
-9.1113253344359144
30
0
10
-0.33405846713540299
20
-9.3129309347187608
30
0
10
-0.22779197508512539
20
-9.5412113711193882
30
0
0
SPLINE
5
372
100
AcDbEntity
8
0
100
AcDbSpline
70
4
71
3
72
8
73
4
74
0
42
0.000000001
43
0.0000000001
44
0.0000000001
40
-1
40
-1
40
-1
40
-1
40
0
40
0
40
0
40
0
41
1
41
1
41
1
41
1
10
-0.22779197508512539
20
-9.5412113711193882
30
0
10
-0.12152548303483002
20
-9.7694918075200086
30
0
10
-0.034211568730890818
20
-10.008733864652989
30
0
10
-0.033830071682068308
20
-10.072859911457751
30
0
0
SPLINE
5
373
100
AcDbEntity
8
0
100
AcDbSpline
70
4
71
3
72
8
73
4
74
0
42
0.000000001
43
0.0000000001
44
0.0000000001
40
-1
40
-1
40
-1
40
-1
40
0
40
0
40
0
40
0
41
1
41
1
41
1
41
1
10
9.6412459645545887
20
-13.390224813755545
30
0
10
10.041723169312387
20
-13.422371097164669
30
0
10
10.412546920066671
20
-13.584577769928948
30
0
10
10.691443516194155
20
-13.84960280155552
30
0
0
SPLINE
5
374
100
AcDbEntity
8
0
100
AcDbSpline
70
4
71
3
72
8
73
4
74
0
42
0.000000001
43
0.0000000001
44
0.0000000001
40
-1
40
-1
40
-1
40
-1
40
0
40
0
40
0
40
0
41
1
41
1
41
1
41
1
10
10.691443516194155
20
-13.84960280155552
30
0
10
10.886253249889265
20
-14.034721615710811
30
0
10
10.921322909437347
20
-14.162960322038781
30
0
10
10.8081035907292
20
-14.276178736236984
30
0
0
SPLINE
5
375
100
AcDbEntity
8
0
100
AcDbSpline
70
4
71
3
72
8
73
4
74
0
42
0.000000001
43
0.0000000001
44
0.0000000001
40
-1
40
-1
40
-1
40
-1
40
0
40
0
40
0
40
0
41
1
41
1
41
1
41
1
10
10.8081035907292
20
-14.276178736236984
30
0
10
10.671862684926822
20
-14.412417833019475
30
0
10
10.024143114041145
20
-14.326925362134162
30
0
10
9.6244401697953883
20
-14.119946351652706
30
0
0
SPLINE
5
376
100
AcDbEntity
8
0
100
AcDbSpline
70
4
71
3
72
8
73
4
74
0
42
0.000000001
43
0.0000000001
44
0.0000000001
40
-1
40
-1
40
-1
40
-1
40
0
40
0
40
0
40
0
41
1
41
1
41
1
41
1
10
9.6244401697953883
20
-14.119946351652706
30
0
10
9.407900489206046
20
-14.007816062917119
30
0
10
9.1122776951944431
20
-13.707977348056612
30
0
10
9.1122776951944431
20
-13.600482672783931
30
0
0
SPLINE
5
377
100
AcDbEntity
8
0
100
AcDbSpline
70
4
71
3
72
8
73
4
74
0
42
0.000000001
43
0.0000000001
44
0.0000000001
40
-1
40
-1
40
-1
40
-1
40
0
40
0
40
0
40
0
41
1
41
1
41
1
41
1
10
9.1122776951944431
20
-13.600482672783931
30
0
10
9.1122776951944431
20
-13.420543082567882
30
0
10
9.2646116419201583
20
-13.359991568877936
30
0
10
9.6412459645545887
20
-13.390224813755545
30
0
0
SPLINE
5
378
100
AcDbEntity
8
0
100
AcDbSpline
70
4
71
3
72
8
73
4
74
0
42
0.000000001
43
0.0000000001
44
0.0000000001
40
-1
40
-1
40
-1
40
-1
40
0
40
0
40
0
40
0
41
1
41
1
41
1
41
1
10
10.496148965169056
20
-14.680994875196065
30
0
10
11.281013951801096
20
-14.773507247756621
30
0
10
11.975518395029315
20
-14.648649599599262
30
0
10
12.444423586069263
20
-14.330735158018214
30
0
0
SPLINE
5
379
100
AcDbEntity
8
0
100
AcDbSpline
70
4
71
3
72
8
73
4
74
0
42
0.000000001
43
0.0000000001
44
0.0000000001
40
-1
40
-1
40
-1
40
-1
40
0
40
0
40
0
40
0
41
1
41
1
41
1
41
1
10
12.444423586069263
20
-14.330735158018214
30
0
10
12.810822474177584
20
-14.082319642492989
30
0
10
12.9535360531391
20
-13.798571255025989
30
0
10
12.953387713508292
20
-13.318728729743409
30
0
0
SPLINE
5
380
100
AcDbEntity
8
0
100
AcDbSpline
70
4
71
3
72
8
73
4
74
0
42
0.000000001
43
0.0000000001
44
0.0000000001
40
-1
40
-1
40
-1
40
-1
40
0
40
0
40
0
40
0
41
1
41
1
41
1
41
1
10
12.953387713508292
20
-13.318728729743409
30
0
10
12.953246609957031
20
-12.834934400515575
30
0
10
12.735795183344148
20
-12.389525664290462
30
0
10
12.176623517934551
20
-11.727676743569834
30
0
0
SPLINE
5
381
100
AcDbEntity
8
0
100
AcDbSpline
70
4
71
3
72
8
73
4
74
0
42
0.000000001
43
0.0000000001
44
0.0000000001
40
-1
40
-1
40
-1
40
-1
40
0
40
0
40
0
40
0
41
1
41
1
41
1
41
1
10
12.176623517934551
20
-11.727676743569834
30
0
10
11.70281226495845
20
-11.16686248810197
30
0
10
11.538202309273014
20
-10.838634824139643
30
0
10
11.542771893510007
20
-10.463782386094858
30
0
0
SPLINE
5
382
100
AcDbEntity
8
0
100
AcDbSpline
70
4
71
3
72
8
73
4
74
0
42
0.000000001
43
0.0000000001
44
0.0000000001
40
-1
40
-1
40
-1
40
-1
40
0
40
0
40
0
40
0
41
1
41
1
41
1
41
1
10
11.542771893510007
20
-10.463782386094858
30
0
10
11.546574453314506
20
-10.152006401248649
30
0
10
11.685633812102335
20
-9.8966555557279392
30
0
10
12.012375366226703
20
-9.6014633084496737
30
0
0
SPLINE
5
383
100
AcDbEntity
8
0
100
AcDbSpline
70
4
71
3
72
8
73
4
74
0
42
0.000000001
43
0.0000000001
44
0.0000000001
40
-1
40
-1
40
-1
40
-1
40
0
40
0
40
0
40
0
41
1
41
1
41
1
41
1
10
12.012375366226703
20
-9.6014633084496737
30
0
10
12.27648141575019
20
-9.3628585600318495
30
0
10
12.479894848032465
20
-9.2523762884141938
30
0
10
12.980389144356042
20
-9.0757015268409482
30
0
0
LINE
5
384
100
AcDbEntity
8
0
100
AcDbLine
10
12.980389144356044
20
-9.07570152684095
30
0
11
13.351842434031337
21
-8.9445781121741383
31
0
0
LINE
5
385
100
AcDbEntity
8
0
100
AcDbLine
10
13.351842434031337
20
-8.9445781121741383
30
0
11
13.010400784297374
21
-8.9734824058165472
31
0
0
SPLINE
5
386
100
AcDbEntity
8
0
100
AcDbSpline
70
4
71
3
72
8
73
4
74
0
42
0.000000001
43
0.0000000001
44
0.0000000001
40
-1
40
-1
40
-1
40
-1
40
0
40
0
40
0
40
0
41
1
41
1
41
1
41
1
10
13.010400784297374
20
-8.9734824058165472
30
0
10
11.402760990261115
20
-9.1095754242430829
30
0
10
10.133013548938617
20
-9.4602684016841021
30
0
10
9.188010503784195
20
-10.029190684289823
30
0
0
SPLINE
5
387
100
AcDbEntity
8
0
100
AcDbSpline
70
4
71
3
72
8
73
4
74
0
42
0.000000001
43
0.0000000001
44
0.0000000001
40
-1
40
-1
40
-1
40
-1
40
0
40
0
40
0
40
0
41
1
41
1
41
1
41
1
10
9.188010503784195
20
-10.029190684289823
30
0
10
8.7744396130773019
20
-10.278174684314841
30
0
10
8.2230937677030411
20
-10.871670240823704
30
0
10
8.0372423004931228
20
-11.267939213067123
30
0
0
SPLINE
5
388
100
AcDbEntity
8
0
100
AcDbSpline
70
4
71
3
72
8
73
4
74
0
42
0.000000001
43
0.0000000001
44
0.0000000001
40
-1
40
-1
40
-1
40
-1
40
0
40
0
40
0
40
0
41
1
41
1
41
1
41
1
10
8.0372423004931228
20
-11.267939213067123
30
0
10
7.905357514580964
20
-11.549149545631314
30
0
10
7.8887832743674347
20
-11.654511838711056
30
0
10
7.8887832743674347
20
-12.211809811771692
30
0
0
SPLINE
5
389
100
AcDbEntity
8
0
100
AcDbSpline
70
4
71
3
72
8
73
4
74
0
42
0.000000001
43
0.0000000001
44
0.0000000001
40
-1
40
-1
40
-1
40
-1
40
0
40
0
40
0
40
0
41
1
41
1
41
1
41
1
10
7.8887832743674347
20
-12.211809811771692
30
0
10
7.8887832743674347
20
-12.80602988074568
30
0
10
7.8986532868761694
20
-12.85917571926927
30
0
10
8.0758214586238495
20
-13.218910630365306
30
0
0
SPLINE
5
390
100
AcDbEntity
8
0
100
AcDbSpline
70
4
71
3
72
8
73
4
74
0
42
0.000000001
43
0.0000000001
44
0.0000000001
40
-1
40
-1
40
-1
40
-1
40
0
40
0
40
0
40
0
41
1
41
1
41
1
41
1
10
8.0758214586238495
20
-13.218910630365306
30
0
10
8.4532626041283123
20
-13.985291051782127
30
0
10
9.3888695999846625
20
-14.550478612829147
30
0
10
10.496145347129278
20
-14.680994875196065
30
0
0
ARC
5
391
100
AcDbEntity
8
0
100
AcDbCircle
10
4.9960036108132044e-15
20
-1.7763568394002505e-14
30
0
40
18.684999999999988
210
0
220
-0
230
1
100
AcDbArc
50
16.040766948152164
51
18.55290152100239
0
SPLINE
5
392
100
AcDbEntity
8
0
100
AcDbSpline
70
4
71
3
72
8
73
4
74
0
42
0.000000001
43
0.0000000001
44
0.0000000001
40
0.62163622519087536
40
0.62163622519087536
40
0.62163622519087536
40
0.62163622519087536
40
1
40
1
40
1
40
1
41
1
41
1
41
1
41
1
10
17.713945815872144
20
5.9451954242350391
30
0
10
17.665830107686375
20
5.9340173082362915
30
0
10
17.618306909126993
20
5.9187533485711361
30
0
10
17.571014231461803
20
5.896688027186741
30
0
0
SPLINE
5
393
100
AcDbEntity
8
0
100
AcDbSpline
70
4
71
3
72
8
73
4
74
0
42
0.000000001
43
0.0000000001
44
0.0000000001
40
0
40
0
40
0
40
0
40
1
40
1
40
1
40
1
41
1
41
1
41
1
41
1
10
17.571014231461803
20
5.896688027186741
30
0
10
16.643587048926278
20
5.4638388013996986
30
0
10
17.04962393486834
20
4.4323799627516074
30
0
10
16.993042972919771
20
3.6646045370163094
30
0
0
SPLINE
5
394
100
AcDbEntity
8
0
100
AcDbSpline
70
4
71
3
72
8
73
4
74
0
42
0.000000001
43
0.0000000001
44
0.0000000001
40
0
40
0
40
0
40
0
40
1
40
1
40
1
40
1
41
1
41
1
41
1
41
1
10
16.993042972919771
20
3.6646045370163094
30
0
10
16.974267938556793
20
3.4101793213179077
30
0
10
16.839307952248596
20
3.1848816900367272
30
0
10
16.735851978570206
20
2.9572674236460283
30
0
0
LINE
5
395
100
AcDbEntity
8
0
100
AcDbLine
10
16.735851978570203
20
2.9572674236460283
30
0
11
16.671553534714178
21
2.9572674236460283
31
0
0
LINE
5
396
100
AcDbEntity
8
0
100
AcDbLine
10
16.671553534714178
20
2.9572674236460283
30
0
11
16.607255090858146
21
3.4716480218078694
31
0
0
SPLINE
5
397
100
AcDbEntity
8
0
100
AcDbSpline
70
4
71
3
72
8
73
4
74
0
42
0.000000001
43
0.0000000001
44
0.0000000001
40
0
40
0
40
0
40
0
40
1
40
1
40
1
40
1
41
1
41
1
41
1
41
1
10
16.607255090858146
20
3.4716480218078694
30
0
10
15.962671534425127
20
3.4011769829631522
30
0
10
15.694359022905138
20
2.7607094168807755
30
0
10
15.578496675609026
20
2.1856986122091859
30
0
0
LINE
5
398
100
AcDbEntity
8
0
100
AcDbLine
10
15.578496675609026
20
2.1856986122091859
30
0
11
15.514198231752996
21
2.1856986122091859
31
0
0
SPLINE
5
399
100
AcDbEntity
8
0
100
AcDbSpline
70
4
71
3
72
8
73
4
74
0
42
0.000000001
43
0.0000000001
44
0.0000000001
40
0
40
0
40
0
40
0
40
1
40
1
40
1
40
1
41
1
41
1
41
1
41
1
10
15.514198231752996
20
2.1856986122091859
30
0
10
15.379302210159711
20
2.455618584825574
30
0
10
15.23263946209779
20
2.5388853477265938
30
0
10
14.935520580272406
20
2.5714837131962476
30
0
0
SPLINE
5
400
100
AcDbEntity
8
0
100
AcDbSpline
70
4
71
3
72
8
73
4
74
0
42
0.000000001
43
0.0000000001
44
0.0000000001
40
0
40
0
40
0
40
0
40
1
40
1
40
1
40
1
41
1
41
1
41
1
41
1
10
14.935520580272406
20
2.5714837131962476
30
0
10
14.884145789902487
20
2.3188578527389758
30
0
10
14.799790236310745
20
2.0604473571943061
30
0
10
14.82807932674775
20
1.7999135112221287
30
0
0
SPLINE
5
401
100
AcDbEntity
8
0
100
AcDbSpline
70
4
71
3
72
8
73
4
74
0
42
0.000000001
43
0.0000000001
44
0.0000000001
40
0
40
0
40
0
40
0
40
1
40
1
40
1
40
1
41
1
41
1
41
1
41
1
10
14.82807932674775
20
1.7999135112221287
30
0
10
14.860161802886296
20
1.5050472997913555
30
0
10
15.032607893205538
20
1.2484987336654418
30
0
10
15.106228498990868
20
0.96404764646653707
30
0
0
SPLINE
5
402
100
AcDbEntity
8
0
100
AcDbSpline
70
4
71
3
72
8
73
4
74
0
42
0.000000001
43
0.0000000001
44
0.0000000001
40
0
40
0
40
0
40
0
40
1
40
1
40
1
40
1
41
1
41
1
41
1
41
1
10
15.106228498990868
20
0.96404764646653707
30
0
10
15.20659747990627
20
0.57633526080853148
30
0
10
15.150594981466444
20
0.18855612936105715
30
0
10
15.050098071121219
20
-0.19330765649464343
30
0
0
SPLINE
5
403
100
AcDbEntity
8
0
100
AcDbSpline
70
4
71
3
72
8
73
4
74
0
42
0.000000001
43
0.0000000001
44
0.0000000001
40
0
40
0
40
0
40
0
40
1
40
1
40
1
40
1
41
1
41
1
41
1
41
1
10
15.050098071121219
20
-0.19330765649464343
30
0
10
14.693697803948297
20
-1.5478633944447262
30
0
10
13.309887942688455
20
-2.3582017758026286
30
0
10
13.676447475233612
20
-3.9176086848596059
30
0
0
SPLINE
5
404
100
AcDbEntity
8
0
100
AcDbSpline
70
4
71
3
72
8
73
4
74
0
42
0.000000001
43
0.0000000001
44
0.0000000001
40
0
40
0
40
0
40
0
40
1
40
1
40
1
40
1
41
1
41
1
41
1
41
1
10
13.676447475233612
20
-3.9176086848596059
30
0
10
13.784467192267007
20
-4.3772090668512842
30
0
10
14.352599009011353
20
-4.4898564919545914
30
0
10
14.564458488012587
20
-4.8919720627652952
30
0
0
SPLINE
5
405
100
AcDbEntity
8
0
100
AcDbSpline
70
4
71
3
72
8
73
4
74
0
42
0.000000001
43
0.0000000001
44
0.0000000001
40
0
40
0
40
0
40
0
40
1
40
1
40
1
40
1
41
1
41
1
41
1
41
1
10
14.564458488012587
20
-4.8919720627652952
30
0
10
14.780369992649556
20
-5.3015464755492614
30
0
10
14.512955768212855
20
-5.909864819703623
30
0
10
14.855789953676016
20
-6.2526990051667841
30
0
0
SPLINE
5
406
100
AcDbEntity
8
0
100
AcDbSpline
70
4
71
3
72
8
73
4
74
0
42
0.000000001
43
0.0000000001
44
0.0000000001
40
0
40
0
40
0
40
0
40
1
40
1
40
1
40
1
41
1
41
1
41
1
41
1
10
14.855789953676016
20
-6.2526990051667841
30
0
10
15.22048338519058
20
-6.6173952177559103
30
0
10
16.326978396575672
20
-6.2150849717259193
30
0
10
16.160834221212216
20
-7.0841290559971881
30
0
0
SPLINE
5
407
100
AcDbEntity
8
0
100
AcDbSpline
70
4
71
3
72
8
73
4
74
0
42
0.000000001
43
0.0000000001
44
0.0000000001
40
0
40
0
40
0
40
0
40
0.54955658911438376
40
0.54955658911438376
40
0.54955658911438376
40
0.54955658911438376
41
1
41
1
41
1
41
1
10
16.160834221212216
20
-7.0841290559971881
30
0
10
16.104862700031287
20
-7.3769517215429801
30
0
10
15.984285439523287
20
-7.673618696932893
30
0
10
15.839793758618493
20
-7.9567781506270796
30
0
0
ARC
5
408
100
AcDbEntity
8
0
100
AcDbCircle
10
16.225839551608985
20
-7.0342985325788865
30
0
40
0.99999999999999922
210
0
220
0
230
1
100
AcDbArc
50
247.29132027480492
51
280.06771160406208
0
SPLINE
5
409
100
AcDbEntity
8
0
100
AcDbSpline
70
4
71
3
72
8
73
4
74
0
42
0.000000001
43
0.0000000001
44
0.0000000001
40
0.86709498774585902
40
0.86709498774585902
40
0.86709498774585902
40
0.86709498774585902
40
1
40
1
40
1
40
1
41
1
41
1
41
1
41
1
10
16.400651444124566
20
-8.01890038217857
30
0
10
16.444936737196507
20
-7.9187839742129018
30
0
10
16.487366306894817
20
-7.8178113694409284
30
0
10
16.527983341564362
20
-7.7160948771458315
30
0
0
SPLINE
5
410
100
AcDbEntity
8
0
100
AcDbSpline
70
4
71
3
72
8
73
4
74
0
42
0.000000001
43
0.0000000001
44
0.0000000001
40
0
40
0
40
0
40
0
40
1
40
1
40
1
40
1
41
1
41
1
41
1
41
1
10
16.527983341564362
20
-7.7160948771458315
30
0
10
16.600574949762034
20
-7.5342598791078208
30
0
10
16.710071417387447
20
-7.01550882227298
30
0
10
16.986487980178907
20
-7.0522885333454699
30
0
0
SPLINE
5
411
100
AcDbEntity
8
0
100
AcDbSpline
70
4
71
3
72
8
73
4
74
0
42
0.000000001
43
0.0000000001
44
0.0000000001
40
0
40
0
40
0
40
0
40
0.36762829392427887
40
0.36762829392427887
40
0.36762829392427887
40
0.36762829392427887
41
1
41
1
41
1
41
1
10
16.986487980178907
20
-7.0522885333454699
30
0
10
17.114319886659924
20
-7.069260401502846
30
0
10
17.179324281107959
20
-7.1601304738018356
30
0
10
17.208840680584764
20
-7.2790814963325428
30
0
0
ARC
5
412
100
AcDbEntity
8
0
100
AcDbCircle
10
4.9960036108132044e-15
20
-1.7763568394002505e-14
30
0
40
18.684999999999988
210
-0
220
0
230
1
100
AcDbArc
50
337.07236685197842
51
339.29214524506904
0
LINE
5
413
100
AcDbEntity
8
0
100
AcDbLine
10
17.477866107757702
20
-6.6070735821008135
30
0
11
16.636314538948614
21
-6.3034174619402474
31
0
0
LINE
5
414
100
AcDbEntity
8
0
100
AcDbLine
10
16.636314538948614
20
-6.3034174619402474
30
0
11
16.148875600598856
21
-6.0219866217148592
31
0
0
LINE
5
415
100
AcDbEntity
8
0
100
AcDbLine
10
16.148875600598856
20
-6.0219866217148592
30
0
11
15.293397598037352
21
-5.8442036493125817
31
0
0
LINE
5
416
100
AcDbEntity
8
0
100
AcDbLine
10
15.293397598037352
20
-5.8442036493125817
30
0
11
15.049903395901934
21
-4.631165671486114
31
0
0
LINE
5
417
100
AcDbEntity
8
0
100
AcDbLine
10
15.049903395901934
20
-4.631165671486114
30
0
11
14.175781069481827
21
-3.7199410293444157
31
0
0
LINE
5
418
100
AcDbEntity
8
0
100
AcDbLine
10
14.175781069481827
20
-3.7199410293444157
30
0
11
14.192823494393153
21
-2.9580823397381675
31
0
0
LINE
5
419
100
AcDbEntity
8
0
100
AcDbLine
10
14.192823494393153
20
-2.9580823397381675
30
0
11
14.65949614899408
21
-2.1027962313213906
31
0
0
LINE
5
420
100
AcDbEntity
8
0
100
AcDbLine
10
14.65949614899408
20
-2.1027962313213906
30
0
11
15.578499456683588
21
-1.3506462730084579
31
0
0
LINE
5
421
100
AcDbEntity
8
0
100
AcDbLine
10
15.578499456683588
20
-1.3506462730084579
30
0
11
15.642797900539618
21
-1.3506462730084579
31
0
0
LINE
5
422
100
AcDbEntity
8
0
100
AcDbLine
10
15.642797900539618
20
-1.3506462730084579
30
0
11
15.578499456683588
21
-2.3794046882575781
31
0
0
LINE
5
423
100
AcDbEntity
8
0
100
AcDbLine
10
15.578499456683588
20
-2.3794046882575781
30
0
11
16.157177108164177
21
-2.0579180311265466
31
0
0
SPLINE
5
424
100
AcDbEntity
8
0
100
AcDbSpline
70
4
71
3
72
8
73
4
74
0
42
0.000000001
43
0.0000000001
44
0.0000000001
40
0
40
0
40
0
40
0
40
1
40
1
40
1
40
1
41
1
41
1
41
1
41
1
10
16.157177108164177
20
-2.0579180311265466
30
0
10
16.805423339794359
20
-2.2099816259864102
30
0
10
16.798993495408759
20
-2.6131261943847761
30
0
10
16.800153203500798
20
-3.2152733340877271
30
0
0
LINE
5
425
100
AcDbEntity
8
0
100
AcDbLine
10
16.800153203500798
20
-3.2152733340877271
30
0
11
17.57172340547492
21
-2.8041554249222678
31
0
0
LINE
5
426
100
AcDbEntity
8
0
100
AcDbLine
10
17.57172340547492
20
-2.8041554249222678
30
0
11
18.37473365536394
21
-1.8650282617075771
31
0
0
LINE
5
427
100
AcDbEntity
8
0
100
AcDbLine
10
18.37473365536394
20
-1.8650282617075771
30
0
11
18.471873808713735
21
0.6425693325591908
31
0
0
SPLINE
5
428
100
AcDbEntity
8
0
100
AcDbSpline
70
4
71
3
72
8
73
4
74
0
42
0.000000001
43
0.0000000001
44
0.0000000001
40
0
40
0
40
0
40
0
40
0.83236374075490993
40
0.83236374075490993
40
0.83236374075490993
40
0.83236374075490993
41
1
41
1
41
1
41
1
10
18.471873808713735
20
0.6425693325591908
30
0
10
18.520520709825586
20
0.50443667097715728
30
0
10
18.569036587843083
20
0.32924181498523153
30
0
10
18.683642631938572
20
0.22521767694221628
30
0
0
ARC
5
429
100
AcDbEntity
8
0
100
AcDbCircle
10
4.9960036108132044e-15
20
-1.7763568394002505e-14
30
0
40
18.684999999999985
210
0
220
-0
230
1
100
AcDbArc
50
0.69062535935950975
51
4.2469862504359073
0
SPLINE
5
430
100
AcDbEntity
8
0
100
AcDbSpline
70
4
71
3
72
8
73
4
74
0
42
0.000000001
43
0.0000000001
44
0.0000000001
40
0.96036642822634899
40
0.96036642822634899
40
0.96036642822634899
40
0.96036642822634899
40
1
40
1
40
1
40
1
41
1
41
1
41
1
41
1
10
18.6336925187242
20
1.3837370117335355
30
0
10
18.627206626599065
20
1.3886572559674133
30
0
10
18.620507534554118
20
1.3933518595395975
30
0
10
18.613586244056638
20
1.3978062836351102
30
0
0
SPLINE
5
431
100
AcDbEntity
8
0
100
AcDbSpline
70
4
71
3
72
8
73
4
74
0
42
0.000000001
43
0.0000000001
44
0.0000000001
40
0
40
0
40
0
40
0
40
1
40
1
40
1
40
1
41
1
41
1
41
1
41
1
10
18.613586244056638
20
1.3978062836351102
30
0
10
18.293448408087812
20
1.6039450922638565
30
0
10
18.065258459262932
20
1.0590241238076814
30
0
10
18.015427165274509
20
0.83539513726325065
30
0
0
SPLINE
5
432
100
AcDbEntity
8
0
100
AcDbSpline
70
4
71
3
72
8
73
4
74
0
42
0.000000001
43
0.0000000001
44
0.0000000001
40
0
40
0
40
0
40
0
40
1
40
1
40
1
40
1
41
1
41
1
41
1
41
1
10
18.015427165274509
20
0.83539513726325065
30
0
10
17.804788578005663
20
-0.109903230402848
30
0
10
18.453162739065661
20
-1.2316385303835764
30
0
10
17.67754329253037
20
-2.0313698933648849
30
0
0
SPLINE
5
433
100
AcDbEntity
8
0
100
AcDbSpline
70
4
71
3
72
8
73
4
74
0
42
0.000000001
43
0.0000000001
44
0.0000000001
40
0
40
0
40
0
40
0
40
1
40
1
40
1
40
1
41
1
41
1
41
1
41
1
10
17.67754329253037
20
-2.0313698933648849
30
0
10
17.533130433788493
20
-2.1803464954617624
30
0
10
17.366922293710129
20
-2.2824508669033872
30
0
10
17.185924399115052
20
-2.3794130314812634
30
0
0
SPLINE
5
434
100
AcDbEntity
8
0
100
AcDbSpline
70
4
71
3
72
8
73
4
74
0
42
0.000000001
43
0.0000000001
44
0.0000000001
40
0
40
0
40
0
40
0
40
1
40
1
40
1
40
1
41
1
41
1
41
1
41
1
10
17.185924399115052
20
-2.3794130314812634
30
0
10
17.105359450150289
20
-1.8251699010957889
30
0
10
16.614191090813897
20
-1.3355422570663267
30
0
10
16.02856909615387
20
-1.3506546162321431
30
0
0
LINE
5
435
100
AcDbEntity
8
0
100
AcDbLine
10
16.02856909615387
20
-1.3506546162321431
30
0
11
16.02856909615387
21
-0.57908441425802204
31
0
0
LINE
5
436
100
AcDbEntity
8
0
100
AcDbLine
10
16.02856909615387
20
-0.57908441425802204
30
0
11
15.38559300081725
21
-0.77197696475154842
31
0
0
SPLINE
5
437
100
AcDbEntity
8
0
100
AcDbSpline
70
4
71
3
72
8
73
4
74
0
42
0.000000001
43
0.0000000001
44
0.0000000001
40
0
40
0
40
0
40
0
40
1
40
1
40
1
40
1
41
1
41
1
41
1
41
1
10
15.38559300081725
20
-0.77197696475154842
30
0
10
15.589287244906664
20
0.024990010115879535
30
0
10
15.750289213406376
20
0.67921833312730495
30
0
10
15.44989144467328
20
1.4784351973147825
30
0
0
SPLINE
5
438
100
AcDbEntity
8
0
100
AcDbSpline
70
4
71
3
72
8
73
4
74
0
42
0.000000001
43
0.0000000001
44
0.0000000001
40
0
40
0
40
0
40
0
40
1
40
1
40
1
40
1
41
1
41
1
41
1
41
1
10
15.44989144467328
20
1.4784351973147825
30
0
10
16.049980589200914
20
1.4239094494669713
30
0
10
16.074028540932016
20
2.1207007281010037
30
0
10
16.221461646647406
20
2.5714920564199328
30
0
0
LINE
5
439
100
AcDbEntity
8
0
100
AcDbLine
10
16.221461646647406
20
2.5714920564199324
30
0
11
16.285757309428874
21
2.5714920564199328
31
0
0
SPLINE
5
440
100
AcDbEntity
8
0
100
AcDbSpline
70
4
71
3
72
8
73
4
74
0
42
0.000000001
43
0.0000000001
44
0.0000000001
40
0
40
0
40
0
40
0
40
1
40
1
40
1
40
1
41
1
41
1
41
1
41
1
10
16.285757309428874
20
2.5714920564199328
30
0
10
16.579082805552716
20
1.9678028108727652
30
0
10
16.924358774480652
20
2.2481406887955879
30
0
10
17.168434221199369
20
2.7004727324214439
30
0
0
SPLINE
5
441
100
AcDbEntity
8
0
100
AcDbSpline
70
4
71
3
72
8
73
4
74
0
42
0.000000001
43
0.0000000001
44
0.0000000001
40
0
40
0
40
0
40
0
40
1
40
1
40
1
40
1
41
1
41
1
41
1
41
1
10
17.168434221199369
20
2.7004727324214439
30
0
10
17.28185478503071
20
2.9106607856113698
30
0
10
17.396496240594431
20
3.1017539808637729
30
0
10
17.427616464934786
20
3.3430608678567708
30
0
0
SPLINE
5
442
100
AcDbEntity
8
0
100
AcDbSpline
70
4
71
3
72
8
73
4
74
0
42
0.000000001
43
0.0000000001
44
0.0000000001
40
0
40
0
40
0
40
0
40
1
40
1
40
1
40
1
41
1
41
1
41
1
41
1
10
17.427616464934786
20
3.3430608678567708
30
0
10
17.495900188637084
20
3.8719711900638476
30
0
10
17.332712295532229
20
4.4405535408871106
30
0
10
17.507413837320644
20
4.950496934586484
30
0
0
SPLINE
5
443
100
AcDbEntity
8
0
100
AcDbSpline
70
4
71
3
72
8
73
4
74
0
42
0.000000001
43
0.0000000001
44
0.0000000001
40
0
40
0
40
0
40
0
40
0.90970540463112859
40
0.90970540463112859
40
0.90970540463112859
40
0.90970540463112859
41
1
41
1
41
1
41
1
10
17.507413837320644
20
4.950496934586484
30
0
10
17.641301774224051
20
4.6456976472265517
30
0
10
17.819832235884924
20
4.5360186674612555
30
0
10
18.121230132518992
20
4.5552435153661301
30
0
0
ARC
5
444
100
AcDbEntity
8
0
100
AcDbCircle
10
4.9960036108132044e-15
20
-1.7763568394002505e-14
30
0
40
18.684999999999985
210
0
220
-0
230
1
100
AcDbArc
50
14.110424293451015
51
15.794092467070319
0
LINE
5
445
100
AcDbEntity
8
0
100
AcDbLine
10
17.979567670612273
20
5.0857026434774504
30
0
11
17.957505725387421
21
5.0790840885375799
31
0
0
LINE
5
446
100
AcDbEntity
8
0
100
AcDbLine
10
17.957505725387421
20
5.0790840885375799
30
0
11
17.957505725387421
21
5.1630623783446019
31
0
0
CIRCLE
5
447
100
AcDbEntity
8
0
100
AcDbCircle
10
0
20
0
30
0
40
20.684999999999999
210
0
220
-0
230
1
0
ENDSEC
0
SECTION
2
OBJECTS
0
DICTIONARY
5
C
100
AcDbDictionary
3
ACAD_GROUP
350
D
3
ACAD_MLINESTYLE
350
17
0
DICTIONARY
5
D
100
AcDbDictionary
0
DICTIONARY
5
1A
330
C
100
AcDbDictionary
0
DICTIONARY
5
17
100
AcDbDictionary
0
ENDSEC
0
EOF
