0
SECTION
2
HEADER
9
$INSUNITS
70
4
9
$ACADVER
1
AC1014
9
$HANDSEED
5
FFFF
0
ENDSEC
0
SECTION
2
TABLES
0
TABLE
2
VPORT
5
8
100
AcDbSymbolTable
0
ENDTAB
0
TABLE
2
LTYPE
5
5
100
AcDbSymbolTable
0
LTYPE
5
14
100
AcDbSymbolTableRecord
100
AcDbLinetypeTableRecord
2
BYBLOCK
70
0
0
LTYPE
5
15
100
AcDbSymbolTableRecord
100
AcDbLinetypeTableRecord
2
BYLAYER
70
0
0
ENDTAB
0
TABLE
2
LAYER
5
2
100
AcDbSymbolTable
70
2
0
LAYER
5
50
100
AcDbSymbolTableRecord
100
AcDbLayerTableRecord
2
0
70
0
6
CONTINUOUS
0
ENDTAB
0
TABLE
2
STYLE
5
3
100
AcDbSymbolTable
70
1
0
STYLE
5
11
100
AcDbSymbolTableRecord
100
AcDbTextStyleTableRecord
2
STANDARD
70
0
0
ENDTAB
0
TABLE
2
VIEW
5
6
100
AcDbSymbolTable
70
0
0
ENDTAB
0
TABLE
2
UCS
5
7
100
AcDbSymbolTable
70
0
0
ENDTAB
0
TABLE
2
APPID
5
9
100
AcDbSymbolTable
70
2
0
APPID
5
12
100
AcDbSymbolTableRecord
100
AcDbRegAppTableRecord
2
ACAD
70
0
0
ENDTAB
0
TABLE
2
DIMSTYLE
5
A
100
AcDbSymbolTable
70
1
0
ENDTAB
0
TABLE
2
BLOCK_RECORD
5
1
100
AcDbSymbolTable
70
1
0
BLOCK_RECORD
5
1F
100
AcDbSymbolTableRecord
100
AcDbBlockTableRecord
2
*MODEL_SPACE
0
BLOCK_RECORD
5
1B
100
AcDbSymbolTableRecord
100
AcDbBlockTableRecord
2
*PAPER_SPACE
0
ENDTAB
0
ENDSEC
0
SECTION
2
BLOCKS
0
BLOCK
5
20
100
AcDbEntity
100
AcDbBlockBegin
2
*MODEL_SPACE
0
ENDBLK
5
21
100
AcDbEntity
100
AcDbBlockEnd
0
BLOCK
5
1C
100
AcDbEntity
100
AcDbBlockBegin
2
*PAPER_SPACE
0
ENDBLK
5
1D
100
AcDbEntity
100
AcDbBlockEnd
0
ENDSEC
0
SECTION
2
ENTITIES
0
SPLINE
5
100
100
AcDbEntity
8
0
100
AcDbSpline
70
4
71
3
72
8
73
4
74
0
42
0.000000001
43
0.0000000001
44
0.0000000001
40
-1
40
-1
40
-1
40
-1
40
0
40
0
40
0
40
0
41
1
41
1
41
1
41
1
10
0.91365653050516471
20
5.1836774659286888
30
0
10
1.2092315929390463
20
5.1836774659286888
30
0
10
1.2008684890724686
20
5.6088009031743757
30
0
10
0.89645796788309529
20
6.057374540183047
30
0
0
LINE
5
101
100
AcDbEntity
8
0
100
AcDbLine
10
0.89645796788309529
20
6.057374540183047
30
0
11
0.66592455876444523
21
6.3970865241816632
31
0
0
LINE
5
102
100
AcDbEntity
8
0
100
AcDbLine
10
0.66592455876444523
20
6.3970865241816632
30
0
11
1.0831390795367435
21
6.3970865241816632
31
0
0
SPLINE
5
103
100
AcDbEntity
8
0
100
AcDbSpline
70
4
71
3
72
8
73
4
74
0
42
0.000000001
43
0.0000000001
44
0.0000000001
40
-1
40
-1
40
-1
40
-1
40
0
40
0
40
0
40
0
41
1
41
1
41
1
41
1
10
1.0831390795367435
20
6.3970865241816632
30
0
10
1.4636835194883213
20
6.3970865241816632
30
0
10
1.5003495630877683
20
6.4171878488988643
30
0
10
1.5003495630877683
20
6.6257951092850131
30
0
0
SPLINE
5
104
100
AcDbEntity
8
0
100
AcDbSpline
70
4
71
3
72
8
73
4
74
0
42
0.000000001
43
0.0000000001
44
0.0000000001
40
-1
40
-1
40
-1
40
-1
40
0
40
0
40
0
40
0
41
1
41
1
41
1
41
1
10
1.5003495630877683
20
6.6257951092850131
30
0
10
1.5003495630877683
20
6.7515848310918569
30
0
10
1.4268438753741464
20
6.8985215179255599
30
0
10
1.3370056090014648
20
6.9523195099960722
30
0
0
SPLINE
5
105
100
AcDbEntity
8
0
100
AcDbSpline
70
4
71
3
72
8
73
4
74
0
42
0.000000001
43
0.0000000001
44
0.0000000001
40
-1
40
-1
40
-1
40
-1
40
0
40
0
40
0
40
0
41
1
41
1
41
1
41
1
10
1.3370056090014648
20
6.9523195099960722
30
0
10
1.2139632162707503
20
7.0259967796137923
30
0
10
1.2715400474525929
20
7.0357123526067511
30
0
10
1.5703549799578864
20
6.9916965476801973
30
0
0
SPLINE
5
106
100
AcDbEntity
8
0
100
AcDbSpline
70
4
71
3
72
8
73
4
74
0
42
0.000000001
43
0.0000000001
44
0.0000000001
40
-1
40
-1
40
-1
40
-1
40
0
40
0
40
0
40
0
41
1
41
1
41
1
41
1
10
1.5703549799578864
20
6.9916965476801973
30
0
10
1.950057659274087
20
6.9357628655563763
30
0
10
1.9670442677793387
20
6.9436172795425843
30
0
10
1.9670442677793387
20
7.1752548686793416
30
0
0
SPLINE
5
107
100
AcDbEntity
8
0
100
AcDbSpline
70
4
71
3
72
8
73
4
74
0
42
0.000000001
43
0.0000000001
44
0.0000000001
40
-1
40
-1
40
-1
40
-1
40
0
40
0
40
0
40
0
41
1
41
1
41
1
41
1
10
1.9670442677793387
20
7.1752548686793416
30
0
10
1.9670442677793387
20
7.3309422326218066
30
0
10
1.8921437201159641
20
7.4570246529709294
30
0
10
1.7570320543902573
20
7.5287680935989787
30
0
0
SPLINE
5
108
100
AcDbEntity
8
0
100
AcDbSpline
70
4
71
3
72
8
73
4
74
0
42
0.000000001
43
0.0000000001
44
0.0000000001
40
-1
40
-1
40
-1
40
-1
40
0
40
0
40
0
40
0
41
1
41
1
41
1
41
1
10
1.7570320543902573
20
7.5287680935989787
30
0
10
1.6415251351652005
20
7.5901076150070601
30
0
10
1.2740027524289932
20
7.8814112973343331
30
0
10
0.94031632118001252
20
8.1761143199732889
30
0
0
SPLINE
5
109
100
AcDbEntity
8
0
100
AcDbSpline
70
4
71
3
72
8
73
4
74
0
42
0.000000001
43
0.0000000001
44
0.0000000001
40
-1
40
-1
40
-1
40
-1
40
0
40
0
40
0
40
0
41
1
41
1
41
1
41
1
10
0.94031632118001252
20
8.1761143199732889
30
0
10
-1.3202106697104909
20
10.172552537136372
30
0
10
-3.3278138223034692
20
11.186458268973327
30
0
10
-5.6867601933819607
20
11.523005071494081
30
0
0
SPLINE
5
110
100
AcDbEntity
8
0
100
AcDbSpline
70
4
71
3
72
8
73
4
74
0
42
0.000000001
43
0.0000000001
44
0.0000000001
40
-1
40
-1
40
-1
40
-1
40
0
40
0
40
0
40
0
41
1
41
1
41
1
41
1
10
-5.6867601933819607
20
11.523005071494081
30
0
10
-6.0717859489463315
20
11.577935504131617
30
0
10
-7.1218510531129997
20
11.685676828238467
30
0
10
-8.0202407819770336
20
11.76243449768732
30
0
0
SPLINE
5
111
100
AcDbEntity
8
0
100
AcDbSpline
70
4
71
3
72
8
73
4
74
0
42
0.000000001
43
0.0000000001
44
0.0000000001
40
-1
40
-1
40
-1
40
-1
40
0
40
0
40
0
40
0
41
1
41
1
41
1
41
1
10
-8.0202407819770336
20
11.76243449768732
30
0
10
-8.9186305108410675
20
11.839190148525534
30
0
10
-9.8951889179887935
20
11.929341299546854
30
0
10
-10.190374388569847
20
11.962769491685528
30
0
0
SPLINE
5
112
100
AcDbEntity
8
0
100
AcDbSpline
70
4
71
3
72
8
73
4
74
0
42
0.000000001
43
0.0000000001
44
0.0000000001
40
-1
40
-1
40
-1
40
-1
40
0
40
0
40
0
40
0
41
1
41
1
41
1
41
1
10
-10.190374388569847
20
11.962769491685528
30
0
10
-10.714006024871523
20
12.022070216350853
30
0
10
-10.72707652874217
20
12.017994641475976
30
0
10
-10.72707652874217
20
11.795277292741435
30
0
0
SPLINE
5
113
100
AcDbEntity
8
0
100
AcDbSpline
70
4
71
3
72
8
73
4
74
0
42
0.000000001
43
0.0000000001
44
0.0000000001
40
-1
40
-1
40
-1
40
-1
40
0
40
0
40
0
40
0
41
1
41
1
41
1
41
1
10
-10.72707652874217
20
11.795277292741435
30
0
10
-10.72707652874217
20
11.475658559017479
30
0
10
-10.091684514556583
20
10.63439046463678
30
0
10
-9.0825215084098332
20
9.6178605389725149
30
0
0
SPLINE
5
114
100
AcDbEntity
8
0
100
AcDbSpline
70
4
71
3
72
8
73
4
74
0
42
0.000000001
43
0.0000000001
44
0.0000000001
40
-1
40
-1
40
-1
40
-1
40
0
40
0
40
0
40
0
41
1
41
1
41
1
41
1
10
-9.0825215084098332
20
9.6178605389725149
30
0
10
-6.6949027918520132
20
7.212817175401347
30
0
10
-3.9222078544639105
20
5.8674414467941682
30
0
10
-0.69185149498209864
20
5.5465186905991004
30
0
0
SPLINE
5
115
100
AcDbEntity
8
0
100
AcDbSpline
70
4
71
3
72
8
73
4
74
0
42
0.000000001
43
0.0000000001
44
0.0000000001
40
-1
40
-1
40
-1
40
-1
40
0
40
0
40
0
40
0
41
1
41
1
41
1
41
1
10
-0.69185149498209864
20
5.5465186905991004
30
0
10
-0.027336985145263171
20
5.4805020483464961
30
0
10
0.48244496358011979
20
5.3842728606989976
30
0
10
0.56362540893330593
20
5.3095257274439911
30
0
0
SPLINE
5
116
100
AcDbEntity
8
0
100
AcDbSpline
70
4
71
3
72
8
73
4
74
0
42
0.000000001
43
0.0000000001
44
0.0000000001
40
-1
40
-1
40
-1
40
-1
40
0
40
0
40
0
40
0
41
1
41
1
41
1
41
1
10
0.56362540893330593
20
5.3095257274439911
30
0
10
0.63880452486450245
20
5.2403075687220646
30
0
10
0.79631469421162837
20
5.1836774659286888
30
0
10
0.91365653050516471
20
5.1836774659286888
30
0
0
CIRCLE
5
117
100
AcDbEntity
8
0
100
AcDbCircle
10
0
20
0
30
0
40
20.284999999999997
210
0
220
0
230
1
0
CIRCLE
5
118
100
AcDbEntity
8
0
100
AcDbCircle
10
0
20
0
30
0
40
20.684999999999999
210
0
220
-0
230
1
0
ARC
5
119
100
AcDbEntity
8
0
100
AcDbCircle
10
0
20
-1.1102230246251565e-15
30
0
40
19.684999999999995
210
0
220
0
230
1
100
AcDbArc
50
-23.437912297763891
51
203.43791229776389
0
SPLINE
5
120
100
AcDbEntity
8
0
100
AcDbSpline
70
4
71
3
72
8
73
4
74
0
42
0.000000001
43
0.0000000001
44
0.0000000001
40
-1
40
-1
40
-1
40
-1
40
0
40
0
40
0
40
0
41
1
41
1
41
1
41
1
10
10.087547470853476
20
-2.5087430167068092
30
0
10
8.1976192253090439
20
-3.0050547766555358
30
0
10
5.5039125221230067
20
-2.5663703131545645
30
0
10
3.9028757191953511
20
-1.5015532024571332
30
0
0
SPLINE
5
121
100
AcDbEntity
8
0
100
AcDbSpline
70
4
71
3
72
8
73
4
74
0
42
0.000000001
43
0.0000000001
44
0.0000000001
40
-1
40
-1
40
-1
40
-1
40
0
40
0
40
0
40
0
41
1
41
1
41
1
41
1
10
3.9028757191953511
20
-1.5015532024571332
30
0
10
2.3951047835009742
20
-0.49876395939479679
30
0
10
1.4203399119036852
20
1.3131570967168571
30
0
10
1.1725998657204162
20
3.5735690268010867
30
0
0
SPLINE
5
122
100
AcDbEntity
8
0
100
AcDbSpline
70
4
71
3
72
8
73
4
74
0
42
0.000000001
43
0.0000000001
44
0.0000000001
40
-1
40
-1
40
-1
40
-1
40
0
40
0
40
0
40
0
41
1
41
1
41
1
41
1
10
1.1725998657204162
20
3.5735690268010867
30
0
10
1.108775434618936
20
4.1558816743027149
30
0
10
1.1090984123207592
20
4.1569394262761827
30
0
10
1.3511742370583057
20
4.1569394262761827
30
0
0
SPLINE
5
123
100
AcDbEntity
8
0
100
AcDbSpline
70
4
71
3
72
8
73
4
74
0
42
0.000000001
43
0.0000000001
44
0.0000000001
40
-1
40
-1
40
-1
40
-1
40
0
40
0
40
0
40
0
41
1
41
1
41
1
41
1
10
1.3511742370583057
20
4.1569394262761827
30
0
10
1.5476274428027326
20
4.1569394262761827
30
0
10
1.5936860816933196
20
4.2012560041875613
30
0
10
1.5936860816933196
20
4.3902867786219701
30
0
0
SPLINE
5
124
100
AcDbEntity
8
0
100
AcDbSpline
70
4
71
3
72
8
73
4
74
0
42
0.000000001
43
0.0000000001
44
0.0000000001
40
-1
40
-1
40
-1
40
-1
40
0
40
0
40
0
40
0
41
1
41
1
41
1
41
1
10
1.5936860816933196
20
4.3902867786219701
30
0
10
1.5936860816933196
20
4.5186300428838511
30
0
10
1.5531281567869071
20
4.6236341309677531
30
0
10
1.503555116778359
20
4.6236341309677531
30
0
0
SPLINE
5
125
100
AcDbEntity
8
0
100
AcDbSpline
70
4
71
3
72
8
73
4
74
0
42
0.000000001
43
0.0000000001
44
0.0000000001
40
-1
40
-1
40
-1
40
-1
40
0
40
0
40
0
40
0
41
1
41
1
41
1
41
1
10
1.503555116778359
20
4.6236341309677531
30
0
10
1.4539861139910881
20
4.6236341309677531
30
0
10
0.93945437443827107
20
4.6885526490341611
30
0
10
0.36015349400614127
20
4.7678961587082336
30
0
0
SPLINE
5
126
100
AcDbEntity
8
0
100
AcDbSpline
70
4
71
3
72
8
73
4
74
0
42
0.000000001
43
0.0000000001
44
0.0000000001
40
-1
40
-1
40
-1
40
-1
40
0
40
0
40
0
40
0
41
1
41
1
41
1
41
1
10
0.36015349400614127
20
4.7678961587082336
30
0
10
-2.3049817942323836
20
5.1329295945297648
30
0
10
-4.8626119358085145
20
6.0546897880366402
30
0
10
-6.9468425574642971
20
7.4013150366277491
30
0
0
SPLINE
5
127
100
AcDbEntity
8
0
100
AcDbSpline
70
4
71
3
72
8
73
4
74
0
42
0.000000001
43
0.0000000001
44
0.0000000001
40
-1
40
-1
40
-1
40
-1
40
0
40
0
40
0
40
0
41
1
41
1
41
1
41
1
10
-6.9468425574642971
20
7.4013150366277491
30
0
10
-8.900793057952578
20
8.6637662402918902
30
0
10
-10.63918521232829
20
10.531705760174095
30
0
10
-11.561988018228863
20
12.360395414842266
30
0
0
SPLINE
5
128
100
AcDbEntity
8
0
100
AcDbSpline
70
4
71
3
72
8
73
4
74
0
42
0.000000001
43
0.0000000001
44
0.0000000001
40
-1
40
-1
40
-1
40
-1
40
0
40
0
40
0
40
0
41
1
41
1
41
1
41
1
10
-11.561988018228863
20
12.360395414842266
30
0
10
-11.859337439412132
20
12.94963795265863
30
0
10
-11.860321512097373
20
12.955976390056904
30
0
10
-11.645014483009035
20
12.894780190004012
30
0
0
SPLINE
5
129
100
AcDbEntity
8
0
100
AcDbSpline
70
4
71
3
72
8
73
4
74
0
42
0.000000001
43
0.0000000001
44
0.0000000001
40
-1
40
-1
40
-1
40
-1
40
0
40
0
40
0
40
0
41
1
41
1
41
1
41
1
10
-11.645014483009035
20
12.894780190004012
30
0
10
-10.714017127230024
20
12.630160521679219
30
0
10
-10.264177821352337
20
12.539018232835431
30
0
10
-9.2823730451606288
20
12.416078789247171
30
0
0
SPLINE
5
130
100
AcDbEntity
8
0
100
AcDbSpline
70
4
71
3
72
8
73
4
74
0
42
0.000000001
43
0.0000000001
44
0.0000000001
40
-1
40
-1
40
-1
40
-1
40
0
40
0
40
0
40
0
41
1
41
1
41
1
41
1
10
-9.2823730451606288
20
12.416078789247171
30
0
10
-7.0264030677817813
20
12.133594416790302
30
0
10
-6.5557044488929268
20
12.060359222901958
30
0
10
-5.6377059363069693
20
11.849028856767315
30
0
0
SPLINE
5
131
100
AcDbEntity
8
0
100
AcDbSpline
70
4
71
3
72
8
73
4
74
0
42
0.000000001
43
0.0000000001
44
0.0000000001
40
-1
40
-1
40
-1
40
-1
40
0
40
0
40
0
40
0
41
1
41
1
41
1
41
1
10
-5.6377059363069693
20
11.849028856767315
30
0
10
-2.6861277801536065
20
11.169550386282898
30
0
10
0.028023411557818179
20
9.6631440313787245
30
0
10
2.0603807863848855
20
7.576449695441223
30
0
0
SPLINE
5
132
100
AcDbEntity
8
0
100
AcDbSpline
70
4
71
3
72
8
73
4
74
0
42
0.000000001
43
0.0000000001
44
0.0000000001
40
-1
40
-1
40
-1
40
-1
40
0
40
0
40
0
40
0
41
1
41
1
41
1
41
1
10
2.0603807863848855
20
7.576449695441223
30
0
10
2.5568802771228016
20
7.0666798583796586
30
0
10
2.9019395606972243
20
6.9941713643204162
30
0
10
2.8978377438840752
20
7.4004732759923719
30
0
0
SPLINE
5
133
100
AcDbEntity
8
0
100
AcDbSpline
70
4
71
3
72
8
73
4
74
0
42
0.000000001
43
0.0000000001
44
0.0000000001
40
-1
40
-1
40
-1
40
-1
40
0
40
0
40
0
40
0
41
1
41
1
41
1
41
1
10
2.8978377438840752
20
7.4004732759923719
30
0
10
2.8964105861641443
20
7.5416488480698041
30
0
10
2.7715736485776743
20
7.8205764285853485
30
0
10
2.6204281585670985
20
8.0203098766139114
30
0
0
SPLINE
5
134
100
AcDbEntity
8
0
100
AcDbSpline
70
4
71
3
72
8
73
4
74
0
42
0.000000001
43
0.0000000001
44
0.0000000001
40
-1
40
-1
40
-1
40
-1
40
0
40
0
40
0
40
0
41
1
41
1
41
1
41
1
10
2.6204281585670985
20
8.0203098766139114
30
0
10
2.4692786313352455
20
8.2200433246424787
30
0
10
2.3588787970202629
20
8.4090539129705189
30
0
10
2.3751245754219541
20
8.4403363220027074
30
0
0
SPLINE
5
135
100
AcDbEntity
8
0
100
AcDbSpline
70
4
71
3
72
8
73
4
74
0
42
0.000000001
43
0.0000000001
44
0.0000000001
40
-1
40
-1
40
-1
40
-1
40
0
40
0
40
0
40
0
41
1
41
1
41
1
41
1
10
2.3751245754219541
20
8.4403363220027074
30
0
10
2.745846456016845
20
9.1548154823115446
30
0
10
3.4141155816373692
20
10.223040007763204
30
0
10
3.440617920682576
20
10.143530972016951
30
0
0
SPLINE
5
136
100
AcDbEntity
8
0
100
AcDbSpline
70
4
71
3
72
8
73
4
74
0
42
0.000000001
43
0.0000000001
44
0.0000000001
40
-1
40
-1
40
-1
40
-1
40
0
40
0
40
0
40
0
41
1
41
1
41
1
41
1
10
3.440617920682576
20
10.143530972016951
30
0
10
3.4600894388812264
20
10.085104305757184
30
0
10
3.5894662317889381
20
10.037305624498028
30
0
10
3.7281185405708817
20
10.037305624498028
30
0
0
SPLINE
5
137
100
AcDbEntity
8
0
100
AcDbSpline
70
4
71
3
72
8
73
4
74
0
42
0.000000001
43
0.0000000001
44
0.0000000001
40
-1
40
-1
40
-1
40
-1
40
0
40
0
40
0
40
0
41
1
41
1
41
1
41
1
10
3.7281185405708817
20
10.037305624498028
30
0
10
3.9089779791491708
20
10.037305624498028
30
0
10
4.1188085175809741
20
10.177643473161361
30
0
10
4.4707048353808609
20
10.533968622697492
30
0
0
SPLINE
5
138
100
AcDbEntity
8
0
100
AcDbSpline
70
4
71
3
72
8
73
4
74
0
42
0.000000001
43
0.0000000001
44
0.0000000001
40
-1
40
-1
40
-1
40
-1
40
0
40
0
40
0
40
0
41
1
41
1
41
1
41
1
10
4.4707048353808609
20
10.533968622697492
30
0
10
4.874586432899779
20
10.942929044577578
30
0
10
5.0069911417620849
20
11.023909647477765
30
0
10
5.2205238121010344
20
10.99257071734776
30
0
0
SPLINE
5
139
100
AcDbEntity
8
0
100
AcDbSpline
70
4
71
3
72
8
73
4
74
0
42
0.000000001
43
0.0000000001
44
0.0000000001
40
-1
40
-1
40
-1
40
-1
40
0
40
0
40
0
40
0
41
1
41
1
41
1
41
1
10
5.2205238121010344
20
10.99257071734776
30
0
10
5.4263151106494156
20
10.962368265006042
30
0
10
5.5941585478442368
20
11.052351871344545
30
0
10
6.0335919158913143
20
11.428469498170513
30
0
0
SPLINE
5
140
100
AcDbEntity
8
0
100
AcDbSpline
70
4
71
3
72
8
73
4
74
0
42
0.000000001
43
0.0000000001
44
0.0000000001
40
-1
40
-1
40
-1
40
-1
40
0
40
0
40
0
40
0
41
1
41
1
41
1
41
1
10
6.0335919158913143
20
11.428469498170513
30
0
10
6.33814777704651
20
11.689146819922428
30
0
10
6.6188335674263499
20
11.902729955527285
30
0
10
6.657336546704915
20
11.90325883151402
30
0
0
SPLINE
5
141
100
AcDbEntity
8
0
100
AcDbSpline
70
4
71
3
72
8
73
4
74
0
42
0.000000001
43
0.0000000001
44
0.0000000001
40
-1
40
-1
40
-1
40
-1
40
0
40
0
40
0
40
0
41
1
41
1
41
1
41
1
10
6.657336546704915
20
11.90325883151402
30
0
10
6.6958395259834802
20
11.903713018907208
30
0
10
6.7273399449643945
20
11.757079123668968
30
0
10
6.7273399449643945
20
11.577400572312971
30
0
0
SPLINE
5
142
100
AcDbEntity
8
0
100
AcDbSpline
70
4
71
3
72
8
73
4
74
0
42
0.000000001
43
0.0000000001
44
0.0000000001
40
-1
40
-1
40
-1
40
-1
40
0
40
0
40
0
40
0
41
1
41
1
41
1
41
1
10
6.7273399449643945
20
11.577400572312971
30
0
10
6.7273399449643945
20
11.270458713385558
30
0
10
6.7456729667641202
20
11.250880208823183
30
0
10
7.0306927141802955
20
11.253631575120586
30
0
0
SPLINE
5
143
100
AcDbEntity
8
0
100
AcDbSpline
70
4
71
3
72
8
73
4
74
0
42
0.000000001
43
0.0000000001
44
0.0000000001
40
-1
40
-1
40
-1
40
-1
40
0
40
0
40
0
40
0
41
1
41
1
41
1
41
1
10
7.0306927141802955
20
11.253631575120586
30
0
10
7.1975369391101074
20
11.255238389187156
30
0
10
7.5440597153959166
20
11.359860959860782
30
0
10
7.8007422066984056
20
11.486127073777812
30
0
0
SPLINE
5
144
100
AcDbEntity
8
0
100
AcDbSpline
70
4
71
3
72
8
73
4
74
0
42
0.000000001
43
0.0000000001
44
0.0000000001
40
-1
40
-1
40
-1
40
-1
40
0
40
0
40
0
40
0
41
1
41
1
41
1
41
1
10
7.8007422066984056
20
11.486127073777812
30
0
10
8.0574226793902604
20
11.612395206305482
30
0
10
8.2989393489815235
20
11.716026639156638
30
0
10
8.3374423282600887
20
11.716555515143373
30
0
0
SPLINE
5
145
100
AcDbEntity
8
0
100
AcDbSpline
70
4
71
3
72
8
73
4
74
0
42
0.000000001
43
0.0000000001
44
0.0000000001
40
-1
40
-1
40
-1
40
-1
40
0
40
0
40
0
40
0
41
1
41
1
41
1
41
1
10
8.3374423282600887
20
11.716555515143373
30
0
10
8.3759453075386539
20
11.71702787003229
30
0
10
8.4074457265195726
20
11.591403674297629
30
0
10
8.4074457265195726
20
11.437391757183374
30
0
0
SPLINE
5
146
100
AcDbEntity
8
0
100
AcDbSpline
70
4
71
3
72
8
73
4
74
0
42
0.000000001
43
0.0000000001
44
0.0000000001
40
-1
40
-1
40
-1
40
-1
40
0
40
0
40
0
40
0
41
1
41
1
41
1
41
1
10
8.4074457265195726
20
11.437391757183374
30
0
10
8.4074457265195726
20
11.193145926011701
30
0
10
8.4402360376971419
20
11.157894928468366
30
0
10
8.6641282178220624
20
11.161494111233052
30
0
0
SPLINE
5
147
100
AcDbEntity
8
0
100
AcDbSpline
70
4
71
3
72
8
73
4
74
0
42
0.000000001
43
0.0000000001
44
0.0000000001
40
-1
40
-1
40
-1
40
-1
40
0
40
0
40
0
40
0
41
1
41
1
41
1
41
1
10
8.6641282178220624
20
11.161494111233052
30
0
10
8.8053058085101341
20
11.163758992367088
30
0
10
9.130824941124267
20
11.221402437699929
30
0
10
9.3875074324267551
20
11.289585049165387
30
0
0
SPLINE
5
148
100
AcDbEntity
8
0
100
AcDbSpline
70
4
71
3
72
8
73
4
74
0
42
0.000000001
43
0.0000000001
44
0.0000000001
40
-1
40
-1
40
-1
40
-1
40
0
40
0
40
0
40
0
41
1
41
1
41
1
41
1
10
9.3875074324267551
20
11.289585049165387
30
0
10
9.7628559686002614
20
11.38930441460321
30
0
10
9.8597452419258644
20
11.390360147966042
30
0
10
9.8825515048958366
20
11.294982814007103
30
0
0
SPLINE
5
149
100
AcDbEntity
8
0
100
AcDbSpline
70
4
71
3
72
8
73
4
74
0
42
0.000000001
43
0.0000000001
44
0.0000000001
40
-1
40
-1
40
-1
40
-1
40
0
40
0
40
0
40
0
41
1
41
1
41
1
41
1
10
9.8825515048958366
20
11.294982814007103
30
0
10
9.8981432534513338
20
11.229761504345234
30
0
10
10.160657510882366
20
11.082992362194357
30
0
10
10.465919885760293
20
10.968831856263774
30
0
0
SPLINE
5
150
100
AcDbEntity
8
0
100
AcDbSpline
70
4
71
3
72
8
73
4
74
0
42
0.000000001
43
0.0000000001
44
0.0000000001
40
-1
40
-1
40
-1
40
-1
40
0
40
0
40
0
40
0
41
1
41
1
41
1
41
1
10
10.465919885760293
20
10.968831856263774
30
0
10
10.805224110410361
20
10.841939973049461
30
0
10
11.020940917457885
20
10.706783897889753
30
0
10
11.020940917457885
20
10.621081764711043
30
0
0
SPLINE
5
151
100
AcDbEntity
8
0
100
AcDbSpline
70
4
71
3
72
8
73
4
74
0
42
0.000000001
43
0.0000000001
44
0.0000000001
40
-1
40
-1
40
-1
40
-1
40
0
40
0
40
0
40
0
41
1
41
1
41
1
41
1
10
11.020940917457885
20
10.621081764711043
30
0
10
11.020940917457885
20
10.508225281251566
30
0
10
11.12101959558899
20
10.489193820171652
30
0
10
11.534305900062867
20
10.523465791556337
30
0
0
SPLINE
5
152
100
AcDbEntity
8
0
100
AcDbSpline
70
4
71
3
72
8
73
4
74
0
42
0.000000001
43
0.0000000001
44
0.0000000001
40
-1
40
-1
40
-1
40
-1
40
0
40
0
40
0
40
0
41
1
41
1
41
1
41
1
10
11.534305900062867
20
10.523465791556337
30
0
10
11.985271590675662
20
10.560864590816795
30
0
10
12.047670882667848
20
10.545250637544292
30
0
10
12.047670882667848
20
10.395015540930729
30
0
0
SPLINE
5
153
100
AcDbEntity
8
0
100
AcDbSpline
70
4
71
3
72
8
73
4
74
0
42
0.000000001
43
0.0000000001
44
0.0000000001
40
-1
40
-1
40
-1
40
-1
40
0
40
0
40
0
40
0
41
1
41
1
41
1
41
1
10
12.047670882667848
20
10.395015540930729
30
0
10
12.047670882667848
20
10.268462784303324
30
0
10
12.118168840533246
20
10.223994810594217
30
0
10
12.318806626126912
20
10.223994810594217
30
0
0
SPLINE
5
154
100
AcDbEntity
8
0
100
AcDbSpline
70
4
71
3
72
8
73
4
74
0
42
0.000000001
43
0.0000000001
44
0.0000000001
40
-1
40
-1
40
-1
40
-1
40
0
40
0
40
0
40
0
41
1
41
1
41
1
41
1
10
12.318806626126912
20
10.223994810594217
30
0
10
12.581254269406941
20
10.223994810594217
30
0
10
12.588339592740683
20
10.21202848674168
30
0
10
12.539864676918334
20
9.8506386431188364
30
0
0
SPLINE
5
155
100
AcDbEntity
8
0
100
AcDbSpline
70
4
71
3
72
8
73
4
74
0
42
0.000000001
43
0.0000000001
44
0.0000000001
40
-1
40
-1
40
-1
40
-1
40
0
40
0
40
0
40
0
41
1
41
1
41
1
41
1
10
12.539864676918334
20
9.8506386431188364
30
0
10
12.495003074135131
20
9.516156879279114
30
0
10
12.510506003822632
20
9.4772824756434559
30
0
10
12.688757397458698
20
9.4772824756434559
30
0
0
SPLINE
5
156
100
AcDbEntity
8
0
100
AcDbSpline
70
4
71
3
72
8
73
4
74
0
42
0.000000001
43
0.0000000001
44
0.0000000001
40
-1
40
-1
40
-1
40
-1
40
0
40
0
40
0
40
0
41
1
41
1
41
1
41
1
10
12.688757397458698
20
9.4772824756434559
30
0
10
12.839797919716185
20
9.4772824756434559
30
0
10
12.887723773445433
20
9.419955952180521
30
0
10
12.887723773445433
20
9.239298374665875
30
0
0
SPLINE
5
157
100
AcDbEntity
8
0
100
AcDbSpline
70
4
71
3
72
8
73
4
74
0
42
0.000000001
43
0.0000000001
44
0.0000000001
40
-1
40
-1
40
-1
40
-1
40
0
40
0
40
0
40
0
41
1
41
1
41
1
41
1
10
12.887723773445433
20
9.239298374665875
30
0
10
12.887723773445433
20
9.1084096423915017
30
0
10
12.947765328214317
20
8.8852037898829561
30
0
10
13.02115393651103
20
8.7432894063126021
30
0
0
SPLINE
5
158
100
AcDbEntity
8
0
100
AcDbSpline
70
4
71
3
72
8
73
4
74
0
42
0.000000001
43
0.0000000001
44
0.0000000001
40
-1
40
-1
40
-1
40
-1
40
0
40
0
40
0
40
0
41
1
41
1
41
1
41
1
10
13.02115393651103
20
8.7432894063126021
30
0
10
13.094542544807739
20
8.6013750227422481
30
0
10
13.391439797208458
20
7.7949118129542461
30
0
10
13.68092874857361
20
6.9511466972163305
30
0
0
SPLINE
5
159
100
AcDbEntity
8
0
100
AcDbSpline
70
4
71
3
72
8
73
4
74
0
42
0.000000001
43
0.0000000001
44
0.0000000001
40
-1
40
-1
40
-1
40
-1
40
0
40
0
40
0
40
0
41
1
41
1
41
1
41
1
10
13.68092874857361
20
6.9511466972163305
30
0
10
13.970421737160038
20
6.1073815814784149
30
0
10
14.422445179746299
20
4.976002803656554
30
0
10
14.68543381067688
20
4.4369691681992007
30
0
0
SPLINE
5
160
100
AcDbEntity
8
0
100
AcDbSpline
70
4
71
3
72
8
73
4
74
0
42
0.000000001
43
0.0000000001
44
0.0000000001
40
-1
40
-1
40
-1
40
-1
40
0
40
0
40
0
40
0
41
1
41
1
41
1
41
1
10
14.68543381067688
20
4.4369691681992007
30
0
10
15.135971555834757
20
3.5135234348109323
30
0
10
15.163905089821167
20
3.4137758088241998
30
0
10
15.169064658607789
20
2.7101971459518825
30
0
0
SPLINE
5
161
100
AcDbEntity
8
0
100
AcDbSpline
70
4
71
3
72
8
73
4
74
0
42
0.000000001
43
0.0000000001
44
0.0000000001
40
-1
40
-1
40
-1
40
-1
40
0
40
0
40
0
40
0
41
1
41
1
41
1
41
1
10
15.169064658607789
20
2.7101971459518825
30
0
10
15.174090999092407
20
2.0237040035060039
30
0
10
15.145753742978719
20
1.9070202342799281
30
0
10
14.817709328458456
20
1.263438716742491
30
0
0
SPLINE
5
162
100
AcDbEntity
8
0
100
AcDbSpline
70
4
71
3
72
8
73
4
74
0
42
0.000000001
43
0.0000000001
44
0.0000000001
40
-1
40
-1
40
-1
40
-1
40
0
40
0
40
0
40
0
41
1
41
1
41
1
41
1
10
14.817709328458456
20
1.263438716742491
30
0
10
13.887791929369913
20
-0.56093716699570972
30
0
10
12.111943445330606
20
-1.9771338311701037
30
0
10
10.087547470853476
20
-2.5087430167068092
30
0
0
SPLINE
5
163
100
AcDbEntity
8
0
100
AcDbSpline
70
4
71
3
72
8
73
4
74
0
42
0.000000001
43
0.0000000001
44
0.0000000001
40
-1
40
-1
40
-1
40
-1
40
0
40
0
40
0
40
0
41
1
41
1
41
1
41
1
10
15.027523718005167
20
-2.9895034003127652
30
0
10
15.144554688260703
20
-3.2238196857640222
30
0
10
15.218100748187053
20
-3.4377358921238788
30
0
10
15.190966584012656
20
-3.4648700562982793
30
0
0
SPLINE
5
164
100
AcDbEntity
8
0
100
AcDbSpline
70
4
71
3
72
8
73
4
74
0
42
0.000000001
43
0.0000000001
44
0.0000000001
40
-1
40
-1
40
-1
40
-1
40
0
40
0
40
0
40
0
41
1
41
1
41
1
41
1
10
15.190966584012656
20
-3.4648700562982793
30
0
10
15.163832419838258
20
-3.4920001832514025
30
0
10
15.079862254585574
20
-3.3947919694452544
30
0
10
15.004370254005739
20
-3.2488464204340239
30
0
0
SPLINE
5
165
100
AcDbEntity
8
0
100
AcDbSpline
70
4
71
3
72
8
73
4
74
0
42
0.000000001
43
0.0000000001
44
0.0000000001
40
-1
40
-1
40
-1
40
-1
40
0
40
0
40
0
40
0
41
1
41
1
41
1
41
1
10
15.004370254005739
20
-3.2488464204340239
30
0
10
14.828084987129518
20
-2.9080403494704843
30
0
10
13.83137983652527
20
-1.9555508462457905
30
0
10
13.561366440580036
20
-1.8698527502883522
30
0
0
SPLINE
5
166
100
AcDbEntity
8
0
100
AcDbSpline
70
4
71
3
72
8
73
4
74
0
42
0.000000001
43
0.0000000001
44
0.0000000001
40
-1
40
-1
40
-1
40
-1
40
0
40
0
40
0
40
0
41
1
41
1
41
1
41
1
10
13.561366440580036
20
-1.8698527502883522
30
0
10
13.289810826108601
20
-1.7836621133356356
30
0
10
13.305511579638466
20
-1.7286307501662801
30
0
10
13.69383978220398
20
-1.4056288250157234
30
0
0
SPLINE
5
167
100
AcDbEntity
8
0
100
AcDbSpline
70
4
71
3
72
8
73
4
74
0
42
0.000000001
43
0.0000000001
44
0.0000000001
40
-1
40
-1
40
-1
40
-1
40
0
40
0
40
0
40
0
41
1
41
1
41
1
41
1
10
13.69383978220398
20
-1.4056288250157234
30
0
10
14.008940865323689
20
-1.1435364572077056
30
0
10
14.029671996559451
20
-1.1392973748712798
30
0
10
14.317138300066933
20
-1.2781616377700367
30
0
0
SPLINE
5
168
100
AcDbEntity
8
0
100
AcDbSpline
70
4
71
3
72
8
73
4
74
0
42
0.000000001
43
0.0000000001
44
0.0000000001
40
-1
40
-1
40
-1
40
-1
40
0
40
0
40
0
40
0
41
1
41
1
41
1
41
1
10
14.317138300066933
20
-1.2781616377700367
30
0
10
14.480686133827515
20
-1.3571660208571945
30
0
10
14.77778524729187
20
-1.552672498213159
30
0
10
14.97735316924825
20
-1.712619130598414
30
0
0
LINE
5
169
100
AcDbEntity
8
0
100
AcDbLine
10
14.97735316924825
20
-1.712619130598414
30
0
11
15.340206505582479
21
-2.0034322905410384
31
0
0
LINE
5
170
100
AcDbEntity
8
0
100
AcDbLine
10
15.340206505582479
20
-2.0034322905410384
30
0
11
15.000684270983683
21
-2.0034322905410384
31
0
0
SPLINE
5
171
100
AcDbEntity
8
0
100
AcDbSpline
70
4
71
3
72
8
73
4
74
0
42
0.000000001
43
0.0000000001
44
0.0000000001
40
-1
40
-1
40
-1
40
-1
40
0
40
0
40
0
40
0
41
1
41
1
41
1
41
1
10
15.000684270983683
20
-2.0034322905410384
30
0
10
14.685663932289428
20
-2.0034322905410384
30
0
10
14.661162036384887
20
-2.0236385830113335
30
0
10
14.661162036384887
20
-2.2834499208002335
30
0
0
SPLINE
5
172
100
AcDbEntity
8
0
100
AcDbSpline
70
4
71
3
72
8
73
4
74
0
42
0.000000001
43
0.0000000001
44
0.0000000001
40
-1
40
-1
40
-1
40
-1
40
0
40
0
40
0
40
0
41
1
41
1
41
1
41
1
10
14.661162036384887
20
-2.2834499208002335
30
0
10
14.661162036384887
20
-2.4374578006932168
30
0
10
14.69572065047994
20
-2.5634675510594285
30
0
10
14.737958059435833
20
-2.5634675510594285
30
0
0
SPLINE
5
173
100
AcDbEntity
8
0
100
AcDbSpline
70
4
71
3
72
8
73
4
74
0
42
0.000000001
43
0.0000000001
44
0.0000000001
40
-1
40
-1
40
-1
40
-1
40
0
40
0
40
0
40
0
41
1
41
1
41
1
41
1
10
14.737958059435833
20
-2.5634675510594285
30
0
10
14.780195468391724
20
-2.5634675510594285
30
0
10
14.910496784970908
20
-2.7551830776402397
30
0
10
15.027523718005167
20
-2.9895034003127652
30
0
0
SPLINE
5
174
100
AcDbEntity
8
0
100
AcDbSpline
70
4
71
3
72
8
73
4
74
0
42
0.000000001
43
0.0000000001
44
0.0000000001
40
-1
40
-1
40
-1
40
-1
40
0
40
0
40
0
40
0
41
1
41
1
41
1
41
1
10
-12.39313177096273
20
2.2901202352971817
30
0
10
-12.375194396847743
20
1.8280642978480444
30
0
10
-12.360510013773299
20
1.4517427913477965
30
0
10
-12.360510013773299
20
1.4541247518987443
30
0
0
SPLINE
5
175
100
AcDbEntity
8
0
100
AcDbSpline
70
4
71
3
72
8
73
4
74
0
42
0.000000001
43
0.0000000001
44
0.0000000001
40
-1
40
-1
40
-1
40
-1
40
0
40
0
40
0
40
0
41
1
41
1
41
1
41
1
10
-12.360510013773299
20
1.4541247518987443
30
0
10
-12.360510013773299
20
1.4563855958115024
30
0
10
-12.717531583978987
20
1.7926013461878876
30
0
10
-13.153892626637473
20
2.2012731067469682
30
0
0
SPLINE
5
176
100
AcDbEntity
8
0
100
AcDbSpline
70
4
71
3
72
8
73
4
74
0
42
0.000000001
43
0.0000000001
44
0.0000000001
40
-1
40
-1
40
-1
40
-1
40
0
40
0
40
0
40
0
41
1
41
1
41
1
41
1
10
-13.153892626637473
20
2.2012731067469682
30
0
10
-14.155832034621891
20
3.1396363727381793
30
0
10
-14.347015152647353
20
3.1614010326197706
30
0
10
-14.549812851621962
20
2.3601700616012966
30
0
0
SPLINE
5
177
100
AcDbEntity
8
0
100
AcDbSpline
70
4
71
3
72
8
73
4
74
0
42
0.000000001
43
0.0000000001
44
0.0000000001
40
-1
40
-1
40
-1
40
-1
40
0
40
0
40
0
40
0
41
1
41
1
41
1
41
1
10
-14.549812851621962
20
2.3601700616012966
30
0
10
-14.624525668496148
20
2.0649845910202425
30
0
10
-14.709977998608606
20
1.8234699400396126
30
0
10
-14.739701535576836
20
1.8234699400396126
30
0
0
ELLIPSE
5
178
100
AcDbEntity
8
0
100
AcDbEllipse
10
-14.899794790845554
20
2.091511801665209
30
0
11
0.16386208080227563
21
-0.26702116891453642
31
0.0
40
0.14273158820384754
41
4.5914832858402503
42
6.1993132046644099
0
SPLINE
5
179
100
AcDbEntity
8
0
100
AcDbSpline
70
4
71
3
72
8
73
4
74
0
42
0.000000001
43
0.0000000001
44
0.0000000001
40
-1
40
-1
40
-1
40
-1
40
0
40
0
40
0
40
0
41
1
41
1
41
1
41
1
10
-14.957392543826755
20
2.1005000265569462
30
0
10
-15.259856115057326
20
2.6125327261419073
30
0
10
-15.593792349372562
20
2.9435404610763971
30
0
10
-15.807887707426405
20
2.9435404610763971
30
0
0
SPLINE
5
180
100
AcDbEntity
8
0
100
AcDbSpline
70
4
71
3
72
8
73
4
74
0
42
0.000000001
43
0.0000000001
44
0.0000000001
40
-1
40
-1
40
-1
40
-1
40
0
40
0
40
0
40
0
41
1
41
1
41
1
41
1
10
-15.807887707426405
20
2.9435404610763971
30
0
10
-16.047711267346397
20
2.9435404610763971
30
0
10
-16.196309270733849
20
2.7932185642054641
30
0
10
-16.546040628626205
20
2.1968281261256317
30
0
0
SPLINE
5
181
100
AcDbEntity
8
0
100
AcDbSpline
70
4
71
3
72
8
73
4
74
0
42
0.000000001
43
0.0000000001
44
0.0000000001
40
-1
40
-1
40
-1
40
-1
40
0
40
0
40
0
40
0
41
1
41
1
41
1
41
1
10
-16.546040628626205
20
2.1968281261256317
30
0
10
-16.832899330332136
20
1.7076541733871853
30
0
10
-16.828457377626755
20
1.6781945697596656
30
0
10
-16.659372494890548
20
2.9481428933273701
30
0
0
SPLINE
5
182
100
AcDbEntity
8
0
100
AcDbSpline
70
4
71
3
72
8
73
4
74
0
42
0.000000001
43
0.0000000001
44
0.0000000001
40
-1
40
-1
40
-1
40
-1
40
0
40
0
40
0
40
0
41
1
41
1
41
1
41
1
10
-16.659372494890548
20
2.9481428933273701
30
0
10
-16.289133062237756
20
5.7289142918716829
30
0
10
-15.311301921083784
20
8.0968515547246724
30
0
10
-14.040063705319421
20
9.2911181283127231
30
0
0
SPLINE
5
183
100
AcDbEntity
8
0
100
AcDbSpline
70
4
71
3
72
8
73
4
74
0
42
0.000000001
43
0.0000000001
44
0.0000000001
40
-1
40
-1
40
-1
40
-1
40
0
40
0
40
0
40
0
41
1
41
1
41
1
41
1
10
-14.040063705319421
20
9.2911181283127231
30
0
10
-13.738899110033369
20
9.5740465951095999
30
0
10
-13.667522047235822
20
9.4852176340551164
30
0
10
-13.588496468736984
20
8.7291450015833938
30
0
0
SPLINE
5
184
100
AcDbEntity
8
0
100
AcDbSpline
70
4
71
3
72
8
73
4
74
0
42
0.000000001
43
0.0000000001
44
0.0000000001
40
-1
40
-1
40
-1
40
-1
40
0
40
0
40
0
40
0
41
1
41
1
41
1
41
1
10
-13.588496468736984
20
8.7291450015833938
30
0
10
-13.432530536526697
20
7.2369375538956104
30
0
10
-12.452191271657005
20
5.9888285788030382
30
0
10
-10.542095087244368
20
4.8506470831365345
30
0
0
SPLINE
5
185
100
AcDbEntity
8
0
100
AcDbSpline
70
4
71
3
72
8
73
4
74
0
42
0.000000001
43
0.0000000001
44
0.0000000001
40
-1
40
-1
40
-1
40
-1
40
0
40
0
40
0
40
0
41
1
41
1
41
1
41
1
10
-10.542095087244368
20
4.8506470831365345
30
0
10
-9.9093989275636822
20
4.4736392490199162
30
0
10
-9.6120656552655053
20
4.2421046090256143
30
0
10
-9.6099491420132477
20
4.1250494154424455
30
0
0
SPLINE
5
186
100
AcDbEntity
8
0
100
AcDbSpline
70
4
71
3
72
8
73
4
74
0
42
0.000000001
43
0.0000000001
44
0.0000000001
40
-1
40
-1
40
-1
40
-1
40
0
40
0
40
0
40
0
41
1
41
1
41
1
41
1
10
-9.6099491420132477
20
4.1250494154424455
30
0
10
-9.6073824785890736
20
3.9751756501327939
30
0
10
-9.6851807418209859
20
3.9961126796534652
30
0
10
-10.216922146354372
20
4.2883913509181104
30
0
0
SPLINE
5
187
100
AcDbEntity
8
0
100
AcDbSpline
70
4
71
3
72
8
73
4
74
0
42
0.000000001
43
0.0000000001
44
0.0000000001
40
-1
40
-1
40
-1
40
-1
40
0
40
0
40
0
40
0
41
1
41
1
41
1
41
1
10
-10.216922146354372
20
4.2883913509181104
30
0
10
-10.552376880520836
20
4.4727833581100862
30
0
10
-10.93040007578756
20
4.6236462426315716
30
0
10
-11.056974027826643
20
4.6236462426315716
30
0
0
SPLINE
5
188
100
AcDbEntity
8
0
100
AcDbSpline
70
4
71
3
72
8
73
4
74
0
42
0.000000001
43
0.0000000001
44
0.0000000001
40
-1
40
-1
40
-1
40
-1
40
0
40
0
40
0
40
0
41
1
41
1
41
1
41
1
10
-11.056974027826643
20
4.6236462426315716
30
0
10
-11.338384499424949
20
4.6236462426315716
30
0
10
-11.345849321558333
20
4.4743619116277467
30
0
10
-11.110644847427068
20
3.5502459995081992
30
0
0
SPLINE
5
189
100
AcDbEntity
8
0
100
AcDbSpline
70
4
71
3
72
8
73
4
74
0
42
0.000000001
43
0.0000000001
44
0.0000000001
40
-1
40
-1
40
-1
40
-1
40
0
40
0
40
0
40
0
41
1
41
1
41
1
41
1
10
-11.110644847427068
20
3.5502459995081992
30
0
10
-11.019180590186771
20
3.1908888967962046
30
0
10
-10.975561442250267
20
2.8841852339238905
30
0
10
-11.013704099530235
20
2.8686540436874797
30
0
0
ELLIPSE
5
190
100
AcDbEntity
8
0
100
AcDbEllipse
10
-11.351471057959783
20
3.0079244124874944
30
0
11
0.34364798593670065
21
-0.13405533961040542
31
0.0
40
0.13638823557289764
41
4.5358276059324014
42
6.1436790116956628
0
SPLINE
5
191
100
AcDbEntity
8
0
100
AcDbSpline
70
4
71
3
72
8
73
4
74
0
42
0.000000001
43
0.0000000001
44
0.0000000001
40
-1
40
-1
40
-1
40
-1
40
0
40
0
40
0
40
0
41
1
41
1
41
1
41
1
10
-11.429830589169519
20
2.9853297384710098
30
0
10
-11.620555987233178
20
3.0650204491745381
30
0
10
-11.922662264381108
20
3.1302215727300409
30
0
10
-12.101179105315861
20
3.1302215727300409
30
0
0
LINE
5
192
100
AcDbEntity
8
0
100
AcDbLine
10
-12.101179105315857
20
3.1302215727300409
30
0
11
-12.425754537457486
21
3.1302215727300431
31
0
0
LINE
5
193
100
AcDbEntity
8
0
100
AcDbLine
10
-12.425754537457486
20
3.1302215727300431
30
0
11
-12.39313177096273
21
2.2901202352971817
31
0
0
ARC
5
194
100
AcDbEntity
8
0
100
AcDbCircle
10
1.787459069646502e-13
20
-13.684999985099186
30
0
40
8.0000000149015555
210
0
220
0
230
1
100
AcDbArc
50
111.78863190662321
51
123.45580026537147
0
SPLINE
5
195
100
AcDbEntity
8
0
100
AcDbSpline
70
4
71
3
72
8
73
4
74
0
42
0.000000001
43
0.0000000001
44
0.0000000001
40
-0.15820878542877317
40
-0.15820878542877317
40
-0.15820878542877317
40
-0.15820878542877317
40
0
40
0
40
0
40
0
41
1
41
1
41
1
41
1
10
-2.9694688595853376
20
-6.2565240357286322
30
0
10
-2.8811939124790436
20
-6.1627448451811295
30
0
10
-2.8073293355212243
20
-6.1103521513808801
30
0
10
-2.753953097536419
20
-6.1103521513808801
30
0
0
SPLINE
5
196
100
AcDbEntity
8
0
100
AcDbSpline
70
4
71
3
72
8
73
4
74
0
42
0.000000001
43
0.0000000001
44
0.0000000001
40
-1
40
-1
40
-1
40
-1
40
-0.87460135576440623
40
-0.87460135576440623
40
-0.87460135576440623
40
-0.87460135576440623
41
1
41
1
41
1
41
1
10
-2.753953097536419
20
-6.1103521513808801
30
0
10
-2.7300982817364994
20
-6.1103521513808801
30
0
10
-2.7130379980937525
20
-6.1261431147888086
30
0
10
-2.7021567312706534
20
-6.1551693603060524
30
0
0
ARC
5
197
100
AcDbEntity
8
0
100
AcDbCircle
10
1.787459069646502e-13
20
-13.684999985099186
30
0
40
8.0000000149015449
210
0
220
0
230
1
100
AcDbArc
50
103.5386478246738
51
109.74104361743845
0
SPLINE
5
198
100
AcDbEntity
8
0
100
AcDbSpline
70
4
71
3
72
8
73
4
74
0
42
0.000000001
43
0.0000000001
44
0.0000000001
40
-0.31132103466298661
40
-0.31132103466298661
40
-0.31132103466298661
40
-0.31132103466298661
40
0
40
0
40
0
40
0
41
1
41
1
41
1
41
1
10
-1.8728096444515672
20
-5.9073021075731358
30
0
10
-1.8332818273194584
20
-5.7718010022737065
30
0
10
-1.7958282902438554
20
-5.6546615786494439
30
0
10
-1.7642525258404573
20
-5.5701557961969606
30
0
0
SPLINE
5
199
100
AcDbEntity
8
0
100
AcDbSpline
70
4
71
3
72
8
73
4
74
0
42
0.000000001
43
0.0000000001
44
0.0000000001
40
-1
40
-1
40
-1
40
-1
40
0
40
0
40
0
40
0
41
1
41
1
41
1
41
1
10
-1.7642525258404573
20
-5.5701557961969606
30
0
10
-1.5173401100181083
20
-4.9093595671523627
30
0
10
-1.523862240984295
20
-4.7102720745274507
30
0
10
-1.7924202186606886
20
-4.7102720745274507
30
0
0
SPLINE
5
200
100
AcDbEntity
8
0
100
AcDbSpline
70
4
71
3
72
8
73
4
74
0
42
0.000000001
43
0.0000000001
44
0.0000000001
40
-1
40
-1
40
-1
40
-1
40
0
40
0
40
0
40
0
41
1
41
1
41
1
41
1
10
-1.7924202186606886
20
-4.7102720745274507
30
0
10
-1.9093401653312192
20
-4.7102720745274507
30
0
10
-2.1029632789634212
20
-4.7788846500584548
30
0
10
-2.2226971688610853
20
-4.8627498475580477
30
0
0
SPLINE
5
201
100
AcDbEntity
8
0
100
AcDbSpline
70
4
71
3
72
8
73
4
74
0
42
0.000000001
43
0.0000000001
44
0.0000000001
40
-1
40
-1
40
-1
40
-1
40
0
40
0
40
0
40
0
41
1
41
1
41
1
41
1
10
-2.2226971688610853
20
-4.8627498475580477
30
0
10
-2.4348087373120153
20
-5.0113195903965835
30
0
10
-2.4386239114147967
20
-5.0095230269301982
30
0
10
-2.3714970333121776
20
-4.7927444306879252
30
0
0
SPLINE
5
202
100
AcDbEntity
8
0
100
AcDbSpline
70
4
71
3
72
8
73
4
74
0
42
0.000000001
43
0.0000000001
44
0.0000000001
40
-1
40
-1
40
-1
40
-1
40
0
40
0
40
0
40
0
41
1
41
1
41
1
41
1
10
-2.3714970333121776
20
-4.7927444306879252
30
0
10
-2.2516541384401467
20
-4.405728325036069
30
0
10
-1.9808070563020852
20
-3.9259409117568556
30
0
10
-1.7294476412477655
20
-3.6553946026036144
30
0
0
SPLINE
5
203
100
AcDbEntity
8
0
100
AcDbSpline
70
4
71
3
72
8
73
4
74
0
42
0.000000001
43
0.0000000001
44
0.0000000001
40
-1
40
-1
40
-1
40
-1
40
0
40
0
40
0
40
0
41
1
41
1
41
1
41
1
10
-1.7294476412477655
20
-3.6553946026036144
30
0
10
-1.5958277287823508
20
-3.5115766692031425
30
0
10
-1.4865017953259274
20
-3.3067199873794184
30
0
10
-1.4865017953259274
20
-3.2001575318842157
30
0
0
SPLINE
5
204
100
AcDbEntity
8
0
100
AcDbSpline
70
4
71
3
72
8
73
4
74
0
42
0.000000001
43
0.0000000001
44
0.0000000001
40
-1
40
-1
40
-1
40
-1
40
0
40
0
40
0
40
0
41
1
41
1
41
1
41
1
10
-1.4865017953259274
20
-3.2001575318842157
30
0
10
-1.4865017953259274
20
-3.0234160590041714
30
0
10
-1.528260793560996
20
-3.0104283181696179
30
0
10
-1.9623024525982702
20
-3.0521328139175008
30
0
0
LINE
5
205
100
AcDbEntity
8
0
100
AcDbLine
10
-1.9623024525982702
20
-3.0521328139175004
30
0
11
-2.438097054038697
21
-3.097850307610535
31
0
0
LINE
5
206
100
AcDbEntity
8
0
100
AcDbLine
10
-2.438097054038697
20
-3.097850307610535
30
0
11
-2.3818464500449643
21
-2.816585175978048
31
0
0
SPLINE
5
207
100
AcDbEntity
8
0
100
AcDbSpline
70
4
71
3
72
8
73
4
74
0
42
0.000000001
43
0.0000000001
44
0.0000000001
40
-1
40
-1
40
-1
40
-1
40
0
40
0
40
0
40
0
41
1
41
1
41
1
41
1
10
-2.3818464500449643
20
-2.816585175978048
30
0
10
-2.1240395926180033
20
-1.5275529074538774
30
0
10
-0.64919623362447165
20
-0.24590067941636207
30
0
10
0.76566814752990542
20
-0.081367763665221027
30
0
0
LINE
5
208
100
AcDbEntity
8
0
100
AcDbLine
10
0.76566814752990486
20
-0.081367763665220916
30
0
11
1.2910640495277881
21
-0.020268456922870604
31
0
0
LINE
5
209
100
AcDbEntity
8
0
100
AcDbLine
10
1.2910640495277881
20
-0.020268456922870604
30
0
11
1.6695717113472464
21
-0.57764318862249642
31
0
0
SPLINE
5
210
100
AcDbEntity
8
0
100
AcDbSpline
70
4
71
3
72
8
73
4
74
0
42
0.000000001
43
0.0000000001
44
0.0000000001
40
-1
40
-1
40
-1
40
-1
40
0
40
0
40
0
40
0
41
1
41
1
41
1
41
1
10
1.6695717113472464
20
-0.57764318862249642
30
0
10
2.1813722707090255
20
-1.3312995441624587
30
0
10
2.8150403914111299
20
-1.8786175576715713
30
0
10
3.7255670167264787
20
-2.3534553376703471
30
0
0
SPLINE
5
211
100
AcDbEntity
8
0
100
AcDbSpline
70
4
71
3
72
8
73
4
74
0
42
0.000000001
43
0.0000000001
44
0.0000000001
40
-1
40
-1
40
-1
40
-1
40
0
40
0
40
0
40
0
41
1
41
1
41
1
41
1
10
3.7255670167264787
20
-2.3534553376703471
30
0
10
4.1439382013934312
20
-2.5716348496942754
30
0
10
4.5257261054970277
20
-2.7501446254917994
30
0
10
4.5739830113706459
20
-2.7501446254917994
30
0
0
SPLINE
5
212
100
AcDbEntity
8
0
100
AcDbSpline
70
4
71
3
72
8
73
4
74
0
42
0.000000001
43
0.0000000001
44
0.0000000001
40
-1
40
-1
40
-1
40
-1
40
0
40
0
40
0
40
0
41
1
41
1
41
1
41
1
10
4.5739830113706459
20
-2.7501446254917994
30
0
10
4.6222439544655369
20
-2.7501446254917994
30
0
10
4.7690211710589603
20
-2.7909407464533054
30
0
10
4.9001622296628833
20
-2.8408004291722211
30
0
0
LINE
5
213
100
AcDbEntity
8
0
100
AcDbLine
10
4.9001622296628833
20
-2.8408004291722215
30
0
11
5.1385964808123763
21
-2.9314521956313664
31
0
0
LINE
5
214
100
AcDbEntity
8
0
100
AcDbLine
10
5.1385964808123763
20
-2.9314521956313664
30
0
11
4.9075705306984441
21
-3.2718868422378122
31
0
0
SPLINE
5
215
100
AcDbEntity
8
0
100
AcDbSpline
70
4
71
3
72
8
73
4
74
0
42
0.000000001
43
0.0000000001
44
0.0000000001
40
-1
40
-1
40
-1
40
-1
40
0
40
0
40
0
40
0
41
1
41
1
41
1
41
1
10
4.9075705306984441
20
-3.2718868422378122
30
0
10
4.5622770882902008
20
-3.7807099509109143
30
0
10
4.4673075136798079
20
-4.1874882546930525
30
0
10
4.4379387475309251
20
-5.2834606019525765
30
0
0
SPLINE
5
216
100
AcDbEntity
8
0
100
AcDbSpline
70
4
71
3
72
8
73
4
74
0
42
0.000000001
43
0.0000000001
44
0.0000000001
40
-1
40
-1
40
-1
40
-1
40
0
40
0
40
0
40
0
41
1
41
1
41
1
41
1
10
4.4379387475309251
20
-5.2834606019525765
30
0
10
4.4227830188728845
20
-5.8490753022699593
30
0
10
4.3608560817696107
20
-6.37147962330471
30
0
10
4.2941026466347232
20
-6.4968716788161807
30
0
0
SPLINE
5
217
100
AcDbEntity
8
0
100
AcDbSpline
70
4
71
3
72
8
73
4
74
0
42
0.000000001
43
0.0000000001
44
0.0000000001
40
-1
40
-1
40
-1
40
-1
40
-0.75548145502065056
40
-0.75548145502065056
40
-0.75548145502065056
40
-0.75548145502065056
41
1
41
1
41
1
41
1
10
4.2941026466347232
20
-6.4968716788161807
30
0
10
4.2411545030517086
20
-6.5963315819088031
30
0
10
4.17280614257698
20
-6.703346763821342
30
0
10
4.0942528480193427
20
-6.8120752906980542
30
0
0
ARC
5
218
100
AcDbEntity
8
0
100
AcDbCircle
10
1.787459069646502e-13
20
-13.684999985099186
30
0
40
8.0000000149013424
210
0
220
-0
230
1
100
AcDbArc
50
54.13256109999223
51
59.217425410194281
0
LINE
5
219
100
AcDbEntity
8
0
100
AcDbLine
10
4.6872953423445294
20
-7.2020020202639037
30
0
11
4.7897381720202636
21
-7.0472014593947963
31
0
0
LINE
5
220
100
AcDbEntity
8
0
100
AcDbLine
10
4.7897381720202636
20
-7.0472014593947963
30
0
11
4.9864416854836024
21
-7.3021560199925339
31
0
0
SPLINE
5
221
100
AcDbEntity
8
0
100
AcDbSpline
70
4
71
3
72
8
73
4
74
0
42
0.000000001
43
0.0000000001
44
0.0000000001
40
-1
40
-1
40
-1
40
-1
40
-0.86695398105216914
40
-0.86695398105216914
40
-0.86695398105216914
40
-0.86695398105216914
41
1
41
1
41
1
41
1
10
4.9864416854836024
20
-7.3021560199925339
30
0
10
5.055977997419606
20
-7.3922837174119804
30
0
10
5.1334014512849482
20
-7.48257156528663
30
0
10
5.2162292523447649
20
-7.5712592659288847
30
0
0
ARC
5
222
100
AcDbEntity
8
0
100
AcDbCircle
10
5.6228664404720785
20
-6.6576695345768355
30
0
40
0.99999999999999867
210
0
220
0
230
1
100
AcDbArc
50
246.00623746817271
51
303.12516844969434
0
LINE
5
223
100
AcDbEntity
8
0
100
AcDbLine
10
6.1693363354265021
20
-7.4951482829092919
30
0
11
5.9564285057045474
21
-7.2412141648798212
31
0
0
SPLINE
5
224
100
AcDbEntity
8
0
100
AcDbSpline
70
4
71
3
72
8
73
4
74
0
42
0.000000001
43
0.0000000001
44
0.0000000001
40
-1
40
-1
40
-1
40
-1
40
0
40
0
40
0
40
0
41
1
41
1
41
1
41
1
10
5.9564285057045474
20
-7.2412141648798212
30
0
10
5.8147785601275626
20
-7.0722645290562536
30
0
10
5.5837627030668147
20
-6.7382127292820826
30
0
10
5.4430635230995694
20
-6.4988660661249398
30
0
0
SPLINE
5
225
100
AcDbEntity
8
0
100
AcDbSpline
70
4
71
3
72
8
73
4
74
0
42
0.000000001
43
0.0000000001
44
0.0000000001
40
-1
40
-1
40
-1
40
-1
40
0
40
0
40
0
40
0
41
1
41
1
41
1
41
1
10
5.4430635230995694
20
-6.4988660661249398
30
0
10
5.2126976586637364
20
-6.1069770343968344
30
0
10
5.1872449971494561
20
-5.9755008864272696
30
0
10
5.1872449971494561
20
-5.1769748536615623
30
0
0
SPLINE
5
226
100
AcDbEntity
8
0
100
AcDbSpline
70
4
71
3
72
8
73
4
74
0
42
0.000000001
43
0.0000000001
44
0.0000000001
40
-1
40
-1
40
-1
40
-1
40
0
40
0
40
0
40
0
41
1
41
1
41
1
41
1
10
5.1872449971494561
20
-5.1769748536615623
30
0
10
5.1872449971494561
20
-4.229887152499856
30
0
10
5.2956706302620438
20
-3.8933120894301965
30
0
10
5.7613459365822361
20
-3.3948646394281656
30
0
0
SPLINE
5
227
100
AcDbEntity
8
0
100
AcDbSpline
70
4
71
3
72
8
73
4
74
0
42
0.000000001
43
0.0000000001
44
0.0000000001
40
-1
40
-1
40
-1
40
-1
40
0
40
0
40
0
40
0
41
1
41
1
41
1
41
1
10
5.7613459365822361
20
-3.3948646394281656
30
0
10
5.9763239321368422
20
-3.1647591757644289
30
0
10
6.0136964894590239
20
-3.1571288275588572
30
0
10
6.5207391835508233
20
-3.239851491438257
30
0
0
SPLINE
5
228
100
AcDbEntity
8
0
100
AcDbSpline
70
4
71
3
72
8
73
4
74
0
42
0.000000001
43
0.0000000001
44
0.0000000001
40
-1
40
-1
40
-1
40
-1
40
0
40
0
40
0
40
0
41
1
41
1
41
1
41
1
10
6.5207391835508233
20
-3.239851491438257
30
0
10
6.8140453276293922
20
-3.2877127496271363
30
0
10
7.7050661183652736
20
-3.3051131733128436
30
0
10
8.5007822451251194
20
-3.2785321084528185
30
0
0
SPLINE
5
229
100
AcDbEntity
8
0
100
AcDbSpline
70
4
71
3
72
8
73
4
74
0
42
0.000000001
43
0.0000000001
44
0.0000000001
40
-1
40
-1
40
-1
40
-1
40
0
40
0
40
0
40
0
41
1
41
1
41
1
41
1
10
8.5007822451251194
20
-3.2785321084528185
30
0
10
10.09923724504883
20
-3.2251398571202206
30
0
10
10.920563484952597
20
-3.0390966264276731
30
0
10
12.029794066871951
20
-2.4791582592198314
30
0
0
SPLINE
5
230
100
AcDbEntity
8
0
100
AcDbSpline
70
4
71
3
72
8
73
4
74
0
42
0.000000001
43
0.0000000001
44
0.0000000001
40
-1
40
-1
40
-1
40
-1
40
0
40
0
40
0
40
0
41
1
41
1
41
1
41
1
10
12.029794066871951
20
-2.4791582592198314
30
0
10
12.597625201668091
20
-2.1925195860732671
30
0
10
12.616079340105998
20
-2.1896571961908595
30
0
10
12.91161201171651
20
-2.3424821702509124
30
0
0
SPLINE
5
231
100
AcDbEntity
8
0
100
AcDbSpline
70
4
71
3
72
8
73
4
74
0
42
0.000000001
43
0.0000000001
44
0.0000000001
40
-1
40
-1
40
-1
40
-1
40
0
40
0
40
0
40
0
41
1
41
1
41
1
41
1
10
12.91161201171651
20
-2.3424821702509124
30
0
10
13.653350490059207
20
-2.7260504889358117
30
0
10
14.941179666644086
20
-4.3782308109471213
30
0
10
14.941179666644086
20
-4.9462557323643619
30
0
0
SPLINE
5
232
100
AcDbEntity
8
0
100
AcDbSpline
70
4
71
3
72
8
73
4
74
0
42
0.000000001
43
0.0000000001
44
0.0000000001
40
-1
40
-1
40
-1
40
-1
40
0
40
0
40
0
40
0
41
1
41
1
41
1
41
1
10
14.941179666644086
20
-4.9462557323643619
30
0
10
14.941179666644086
20
-5.080497376905786
30
0
10
14.921966530606895
20
-5.0807476846246935
30
0
10
14.733731088763227
20
-4.9489001122980358
30
0
0
SPLINE
5
233
100
AcDbEntity
8
0
100
AcDbSpline
70
4
71
3
72
8
73
4
74
0
42
0.000000001
43
0.0000000001
44
0.0000000001
40
-1
40
-1
40
-1
40
-1
40
0
40
0
40
0
40
0
41
1
41
1
41
1
41
1
10
14.733731088763227
20
-4.9489001122980358
30
0
10
14.619635178373006
20
-4.868987354424501
30
0
10
14.426211907193807
20
-4.8036005186904518
30
0
10
14.303900251513468
20
-4.8036005186904518
30
0
0
SPLINE
5
234
100
AcDbEntity
8
0
100
AcDbSpline
70
4
71
3
72
8
73
4
74
0
42
0.000000001
43
0.0000000001
44
0.0000000001
40
-1
40
-1
40
-1
40
-1
40
0
40
0
40
0
40
0
41
1
41
1
41
1
41
1
10
14.303900251513468
20
-4.8036005186904518
30
0
10
14.100561564888308
20
-4.8036005186904518
30
0
10
14.085652106727906
20
-4.8335768866408912
30
0
10
14.129823344673461
20
-5.1536235658197604
30
0
0
SPLINE
5
235
100
AcDbEntity
8
0
100
AcDbSpline
70
4
71
3
72
8
73
4
74
0
42
0.000000001
43
0.0000000001
44
0.0000000001
40
-1
40
-1
40
-1
40
-1
40
0
40
0
40
0
40
0
41
1
41
1
41
1
41
1
10
14.129823344673461
20
-5.1536235658197604
30
0
10
14.156392297869669
20
-5.3461344249913179
30
0
10
14.244811480964966
20
-5.733312019494079
30
0
10
14.326306829577433
20
-6.0140159773696489
30
0
0
SPLINE
5
236
100
AcDbEntity
8
0
100
AcDbSpline
70
4
71
3
72
8
73
4
74
0
42
0.000000001
43
0.0000000001
44
0.0000000001
40
-1
40
-1
40
-1
40
-1
40
-0.66800192168650907
40
-0.66800192168650907
40
-0.66800192168650907
40
-0.66800192168650907
41
1
41
1
41
1
41
1
10
14.326306829577433
20
-6.0140159773696489
30
0
10
14.380605736447984
20
-6.2010430137076611
30
0
10
14.420933181579798
20
-6.439112587462624
30
0
10
14.445335195470065
20
-6.6737180205576507
30
0
0
ARC
5
237
100
AcDbEntity
8
0
100
AcDbCircle
10
10.762225485084635
20
-11.410246605932477
30
0
40
6.000000014900694
210
0
220
-0
230
1
100
AcDbArc
50
42.111250976067339
51
52.131475960098747
0
SPLINE
5
238
100
AcDbEntity
8
0
100
AcDbSpline
70
4
71
3
72
8
73
4
74
0
42
0.000000001
43
0.0000000001
44
0.0000000001
40
-0.3409775151896664
40
-0.3409775151896664
40
-0.3409775151896664
40
-0.3409775151896664
40
0
40
0
40
0
40
0
41
1
41
1
41
1
41
1
10
15.2132905598865
20
-7.386812764213766
30
0
10
15.152396424322527
20
-7.1838714566060835
30
0
10
15.123186751601789
20
-6.982966578360486
30
0
10
15.104109805549925
20
-6.7352897810805867
30
0
0
SPLINE
5
239
100
AcDbEntity
8
0
100
AcDbSpline
70
4
71
3
72
8
73
4
74
0
42
0.000000001
43
0.0000000001
44
0.0000000001
40
-1
40
-1
40
-1
40
-1
40
0
40
0
40
0
40
0
41
1
41
1
41
1
41
1
10
15.104109805549925
20
-6.7352897810805867
30
0
10
15.057278038785604
20
-6.1272923318414918
30
0
10
15.062397235359498
20
-6.1066621311375524
30
0
10
15.223829565173137
20
-6.2527570573358737
30
0
0
SPLINE
5
240
100
AcDbEntity
8
0
100
AcDbSpline
70
4
71
3
72
8
73
4
74
0
42
0.000000001
43
0.0000000001
44
0.0000000001
40
-1
40
-1
40
-1
40
-1
40
0
40
0
40
0
40
0
41
1
41
1
41
1
41
1
10
15.223829565173137
20
-6.2527570573358737
30
0
10
15.316584723915408
20
-6.3366989620396552
30
0
10
15.490443620806683
20
-6.3915042408177314
30
0
10
15.610183566536255
20
-6.374543874250751
30
0
0
SPLINE
5
241
100
AcDbEntity
8
0
100
AcDbSpline
70
4
71
3
72
8
73
4
74
0
42
0.000000001
43
0.0000000001
44
0.0000000001
40
-1
40
-1
40
-1
40
-1
40
0
40
0
40
0
40
0
41
1
41
1
41
1
41
1
10
15.610183566536255
20
-6.374543874250751
30
0
10
15.791442690020547
20
-6.3488711841771028
30
0
10
15.832226699318239
20
-6.2811871695388444
30
0
10
15.853737014259647
20
-5.9703534293044669
30
0
0
SPLINE
5
242
100
AcDbEntity
8
0
100
AcDbSpline
70
4
71
3
72
8
73
4
74
0
42
0.000000001
43
0.0000000001
44
0.0000000001
40
-1
40
-1
40
-1
40
-1
40
0
40
0
40
0
40
0
41
1
41
1
41
1
41
1
10
15.853737014259647
20
-5.9703534293044669
30
0
10
15.867952070361127
20
-5.765008243706724
30
0
10
15.925886195625608
20
-5.505604665266377
30
0
10
15.982479963427533
20
-5.3939028270909262
30
0
0
SPLINE
5
243
100
AcDbEntity
8
0
100
AcDbSpline
70
4
71
3
72
8
73
4
74
0
42
0.000000001
43
0.0000000001
44
0.0000000001
40
-1
40
-1
40
-1
40
-1
40
0
40
0
40
0
40
0
41
1
41
1
41
1
41
1
10
15.982479963427533
20
-5.3939028270909262
30
0
10
16.132878567502647
20
-5.0970620957880275
30
0
10
16.029174464668579
20
-3.730527290490171
30
0
10
15.810187508390099
20
-3.1235068487990958
30
0
0
LINE
5
244
100
AcDbEntity
8
0
100
AcDbLine
10
15.810187508390099
20
-3.1235068487990962
30
0
11
15.624984019722291
21
-2.6101418661941138
31
0
0
LINE
5
245
100
AcDbEntity
8
0
100
AcDbLine
10
15.624984019722291
20
-2.6101418661941138
30
0
11
16.029792159523314
21
-2.6428716190525936
31
0
0
SPLINE
5
246
100
AcDbEntity
8
0
100
AcDbSpline
70
4
71
3
72
8
73
4
74
0
42
0.000000001
43
0.0000000001
44
0.0000000001
40
-1
40
-1
40
-1
40
-1
40
0
40
0
40
0
40
0
41
1
41
1
41
1
41
1
10
16.029792159523314
20
-2.6428716190525936
30
0
10
16.420922193652142
20
-2.6744992105036047
30
0
10
16.434495331571249
20
-2.6666104801365798
30
0
10
16.431293815101927
20
-2.4095242667068106
30
0
0
SPLINE
5
247
100
AcDbEntity
8
0
100
AcDbSpline
70
4
71
3
72
8
73
4
74
0
42
0.000000001
43
0.0000000001
44
0.0000000001
40
-1
40
-1
40
-1
40
-1
40
0
40
0
40
0
40
0
41
1
41
1
41
1
41
1
10
16.431293815101927
20
-2.4095242667068106
30
0
10
16.429477065529174
20
-2.2631749955682956
30
0
10
16.374570856219282
20
-2.0472119180231374
30
0
10
16.309284951017048
20
-1.9295955506830431
30
0
0
SPLINE
5
248
100
AcDbEntity
8
0
100
AcDbSpline
70
4
71
3
72
8
73
4
74
0
42
0.000000001
43
0.0000000001
44
0.0000000001
40
-1
40
-1
40
-1
40
-1
40
0
40
0
40
0
40
0
41
1
41
1
41
1
41
1
10
16.309284951017048
20
-1.9295955506830431
30
0
10
16.187074225868532
20
-1.7094337630141787
30
0
10
15.233765166725464
20
-0.88336580672552678
30
0
10
15.101897408292441
20
-0.88336580672552678
30
0
0
SPLINE
5
249
100
AcDbEntity
8
0
100
AcDbSpline
70
4
71
3
72
8
73
4
74
0
42
0.000000001
43
0.0000000001
44
0.0000000001
40
-1
40
-1
40
-1
40
-1
40
0
40
0
40
0
40
0
41
1
41
1
41
1
41
1
10
15.101897408292441
20
-0.88336580672552678
30
0
10
15.061222403969117
20
-0.88336580672552678
30
0
10
14.924392900591839
20
-0.81551626601507721
30
0
10
14.797834088132529
20
-0.73259174107204394
30
0
0
LINE
5
250
100
AcDbEntity
8
0
100
AcDbLine
10
14.797834088132529
20
-0.73259174107204394
30
0
11
14.567724587247518
21
-0.58181767541856089
31
0
0
LINE
5
251
100
AcDbEntity
8
0
100
AcDbLine
10
14.567724587247518
20
-0.58181767541856089
30
0
11
14.892922760770468
21
-0.13880531071315705
31
0
0
SPLINE
5
252
100
AcDbEntity
8
0
100
AcDbSpline
70
4
71
3
72
8
73
4
74
0
42
0.000000001
43
0.0000000001
44
0.0000000001
40
-1
40
-1
40
-1
40
-1
40
0
40
0
40
0
40
0
41
1
41
1
41
1
41
1
10
14.892922760770468
20
-0.13880531071315705
30
0
10
15.071783774818726
20
0.10484906754205436
30
0
10
15.376323487088825
20
0.63553776662855999
30
0
10
15.569678125506389
20
1.0404993208379532
30
0
0
SPLINE
5
253
100
AcDbEntity
8
0
100
AcDbSpline
70
4
71
3
72
8
73
4
74
0
42
0.000000001
43
0.0000000001
44
0.0000000001
40
-1
40
-1
40
-1
40
-1
40
0
40
0
40
0
40
0
41
1
41
1
41
1
41
1
10
15.569678125506389
20
1.0404993208379532
30
0
10
15.899858230079955
20
1.7320188037684536
30
0
10
15.921235316719361
20
1.8307288638880825
30
0
10
15.921235316719361
20
2.6635228308171977
30
0
0
LINE
5
254
100
AcDbEntity
8
0
100
AcDbLine
10
15.921235316719361
20
2.6635228308171977
30
0
11
15.921235316719359
21
3.5502459995081983
31
0
0
LINE
5
255
100
AcDbEntity
8
0
100
AcDbLine
10
15.921235316719359
20
3.5502459995081983
30
0
11
15.255606533811241
21
4.9036598356694938
31
0
0
SPLINE
5
256
100
AcDbEntity
8
0
100
AcDbSpline
70
4
71
3
72
8
73
4
74
0
42
0.000000001
43
0.0000000001
44
0.0000000001
40
-1
40
-1
40
-1
40
-1
40
0
40
0
40
0
40
0
41
1
41
1
41
1
41
1
10
15.255606533811239
20
4.9036598356694938
30
0
10
14.889511308794962
20
5.6480426939458628
30
0
10
14.389432821398724
20
6.8376018675298456
30
0
10
14.144321006264038
20
7.5471313945582486
30
0
0
LINE
5
257
100
AcDbEntity
8
0
100
AcDbLine
10
14.144321006264038
20
7.5471313945582486
30
0
11
13.698664261624959
21
8.8371810428431612
31
0
0
LINE
5
258
100
AcDbEntity
8
0
100
AcDbLine
10
13.698664261624959
20
8.8371810428431612
30
0
11
13.903020328010864
21
9.1805648795893759
31
0
0
SPLINE
5
259
100
AcDbEntity
8
0
100
AcDbSpline
70
4
71
3
72
8
73
4
74
0
42
0.000000001
43
0.0000000001
44
0.0000000001
40
-1
40
-1
40
-1
40
-1
40
-0.66298060433331141
40
-0.66298060433331141
40
-0.66298060433331141
40
-0.66298060433331141
41
1
41
1
41
1
41
1
10
13.903020328010864
20
9.1805648795893759
30
0
10
14.292445275054956
20
9.8349267162919993
30
0
10
14.632863429376592
20
10.523394569746603
30
0
10
14.923505016013387
20
11.243585862038072
30
0
0
ARC
5
260
100
AcDbEntity
8
0
100
AcDbCircle
10
4.9960036108132044e-15
20
-1.7763568394002505e-14
30
0
40
18.684999999999988
210
0
220
-0
230
1
100
AcDbArc
50
36.994901834618126
51
39.514362564622111
0
SPLINE
5
261
100
AcDbEntity
8
0
100
AcDbSpline
70
4
71
3
72
8
73
4
74
0
42
0.000000001
43
0.0000000001
44
0.0000000001
40
-0.37382287144450665
40
-0.37382287144450665
40
-0.37382287144450665
40
-0.37382287144450665
40
0
40
0
40
0
40
0
41
1
41
1
41
1
41
1
10
14.414825596187661
20
11.888735341973604
30
0
10
14.21875616896676
20
11.374537713355345
30
0
10
13.992824360913501
20
10.866787988021937
30
0
10
13.744442313637087
20
10.387336746069886
30
0
0
SPLINE
5
262
100
AcDbEntity
8
0
100
AcDbSpline
70
4
71
3
72
8
73
4
74
0
42
0.000000001
43
0.0000000001
44
0.0000000001
40
-1
40
-1
40
-1
40
-1
40
0
40
0
40
0
40
0
41
1
41
1
41
1
41
1
10
13.744442313637087
20
10.387336746069886
30
0
10
13.435825007881469
20
9.7915841889511555
30
0
10
13.272919092303264
20
9.570614957027729
30
0
10
13.14234324467753
20
9.570614957027729
30
0
0
SPLINE
5
263
100
AcDbEntity
8
0
100
AcDbSpline
70
4
71
3
72
8
73
4
74
0
42
0.000000001
43
0.0000000001
44
0.0000000001
40
-1
40
-1
40
-1
40
-1
40
0
40
0
40
0
40
0
41
1
41
1
41
1
41
1
10
13.14234324467753
20
9.570614957027729
30
0
10
12.974136457568157
20
9.570614957027729
30
0
10
12.977313750709838
20
9.5945576977859925
30
0
10
13.194915940091757
20
9.967308282070455
30
0
0
SPLINE
5
264
100
AcDbEntity
8
0
100
AcDbSpline
70
4
71
3
72
8
73
4
74
0
42
0.000000001
43
0.0000000001
44
0.0000000001
40
-1
40
-1
40
-1
40
-1
40
-0.40847803919516035
40
-0.40847803919516035
40
-0.40847803919516035
40
-0.40847803919516035
41
1
41
1
41
1
41
1
10
13.194915940091757
20
9.967308282070455
30
0
10
13.636464622106299
20
10.723665329284401
30
0
10
13.974832964035805
20
11.407724660039982
30
0
10
14.241951509009933
20
12.095290083954531
30
0
0
ARC
5
265
100
AcDbEntity
8
0
100
AcDbCircle
10
4.9960036108132044e-15
20
-1.7763568394002505e-14
30
0
40
18.684999999999985
210
0
220
-0
230
1
100
AcDbArc
50
40.340310993145607
51
53.069411653834848
0
SPLINE
5
266
100
AcDbEntity
8
0
100
AcDbSpline
70
4
71
3
72
8
73
4
74
0
42
0.000000001
43
0.0000000001
44
0.0000000001
40
-0.42450336114085241
40
-0.42450336114085241
40
-0.42450336114085241
40
-0.42450336114085241
40
0
40
0
40
0
40
0
41
1
41
1
41
1
41
1
10
11.22682741463599
20
14.936116335981616
30
0
10
11.024586298152331
20
14.102844569162446
30
0
10
10.927610454684245
20
13.361130031486312
30
0
10
10.927610454684245
20
12.681029509716328
30
0
0
SPLINE
5
267
100
AcDbEntity
8
0
100
AcDbSpline
70
4
71
3
72
8
73
4
74
0
42
0.000000001
43
0.0000000001
44
0.0000000001
40
-1
40
-1
40
-1
40
-1
40
0
40
0
40
0
40
0
41
1
41
1
41
1
41
1
10
10.927610454684245
20
12.681029509716328
30
0
10
10.927610454684245
20
12.056142345282534
30
0
10
10.911328341291098
20
11.997437110754948
30
0
10
10.738004376218466
20
11.997437110754948
30
0
0
SPLINE
5
268
100
AcDbEntity
8
0
100
AcDbSpline
70
4
71
3
72
8
73
4
74
0
42
0.000000001
43
0.0000000001
44
0.0000000001
40
-1
40
-1
40
-1
40
-1
40
0
40
0
40
0
40
0
41
1
41
1
41
1
41
1
10
10.738004376218466
20
11.997437110754948
30
0
10
10.451912746554362
20
11.997437110754948
30
0
10
10.419837023542073
20
12.212213245245911
30
0
10
10.544302536771447
20
13.294487300726869
30
0
0
SPLINE
5
269
100
AcDbEntity
8
0
100
AcDbSpline
70
4
71
3
72
8
73
4
74
0
42
0.000000001
43
0.0000000001
44
0.0000000001
40
-1
40
-1
40
-1
40
-1
40
-0.6189184813300963
40
-0.6189184813300963
40
-0.6189184813300963
40
-0.6189184813300963
41
1
41
1
41
1
41
1
10
10.544302536771447
20
13.294487300726869
30
0
10
10.632536878260371
20
14.061720904963035
30
0
10
10.723818503006562
20
14.664141776492809
30
0
10
10.849881905918913
20
15.212142769104307
30
0
0
ARC
5
270
100
AcDbEntity
8
0
100
AcDbCircle
10
4.9960036108132044e-15
20
-1.7763568394002505e-14
30
0
40
18.684999999999988
210
0
220
-0
230
1
100
AcDbArc
50
54.502082201834284
51
57.122797239944397
0
SPLINE
5
271
100
AcDbEntity
8
0
100
AcDbSpline
70
4
71
3
72
8
73
4
74
0
42
0.000000001
43
0.0000000001
44
0.0000000001
40
-0.10220915547431537
40
-0.10220915547431537
40
-0.10220915547431537
40
-0.10220915547431537
40
0
40
0
40
0
40
0
41
1
41
1
41
1
41
1
10
10.142971626225759
20
15.692334166387681
30
0
10
10.124661426387087
20
15.615659155213269
30
0
10
10.106226896821653
20
15.534823558213999
30
0
10
10.086800584918008
20
15.447612094097437
30
0
0
SPLINE
5
272
100
AcDbEntity
8
0
100
AcDbSpline
70
4
71
3
72
8
73
4
74
0
42
0.000000001
43
0.0000000001
44
0.0000000001
40
-1
40
-1
40
-1
40
-1
40
0
40
0
40
0
40
0
41
1
41
1
41
1
41
1
10
10.086800584918008
20
15.447612094097437
30
0
10
9.9500720120725497
20
14.833774804287252
30
0
10
9.9008744336423717
20
14.269575150025982
30
0
10
9.9008744336423717
20
13.315381939424174
30
0
0
LINE
5
273
100
AcDbEntity
8
0
100
AcDbLine
10
9.9008744336423717
20
13.315381939424171
30
0
11
9.9008744336423753
21
12.017859394563338
31
0
0
LINE
5
274
100
AcDbEntity
8
0
100
AcDbLine
10
9.9008744336423753
20
12.017859394563338
30
0
11
9.5829695003487139
21
11.980747238013247
31
0
0
LINE
5
275
100
AcDbEntity
8
0
100
AcDbLine
10
9.5829695003487139
20
11.980747238013247
30
0
11
9.2650665856656893
21
11.943635081463155
31
0
0
LINE
5
276
100
AcDbEntity
8
0
100
AcDbLine
10
9.2650665856656893
20
11.943635081463155
30
0
11
9.316010262296345
21
12.437231810105938
31
0
0
SPLINE
5
277
100
AcDbEntity
8
0
100
AcDbSpline
70
4
71
3
72
8
73
4
74
0
42
0.000000001
43
0.0000000001
44
0.0000000001
40
-1
40
-1
40
-1
40
-1
40
0
40
0
40
0
40
0
41
1
41
1
41
1
41
1
10
9.316010262296345
20
12.437231810105938
30
0
10
9.3652320640541564
20
12.914158852113387
30
0
10
9.359133841321615
20
12.930828538748717
30
0
10
9.1354475594816087
20
12.930828538748717
30
0
0
SPLINE
5
278
100
AcDbEntity
8
0
100
AcDbSpline
70
4
71
3
72
8
73
4
74
0
42
0.000000001
43
0.0000000001
44
0.0000000001
40
-1
40
-1
40
-1
40
-1
40
0
40
0
40
0
40
0
41
1
41
1
41
1
41
1
10
9.1354475594816087
20
12.930828538748717
30
0
10
9.0081176377591952
20
12.930828538748717
30
0
10
8.5545095858233644
20
12.720814306749006
30
0
10
8.1274301148710126
20
12.464131815446514
30
0
0
SPLINE
5
279
100
AcDbEntity
8
0
100
AcDbSpline
70
4
71
3
72
8
73
4
74
0
42
0.000000001
43
0.0000000001
44
0.0000000001
40
-1
40
-1
40
-1
40
-1
40
0
40
0
40
0
40
0
41
1
41
1
41
1
41
1
10
8.1274301148710126
20
12.464131815446514
30
0
10
7.7003506439186609
20
12.207451342754659
30
0
10
7.3366131561256909
20
11.997439129365581
30
0
10
7.3191501555102523
20
11.997439129365581
30
0
0
SPLINE
5
280
100
AcDbEntity
8
0
100
AcDbSpline
70
4
71
3
72
8
73
4
74
0
42
0.000000001
43
0.0000000001
44
0.0000000001
40
-1
40
-1
40
-1
40
-1
40
0
40
0
40
0
40
0
41
1
41
1
41
1
41
1
10
7.3191501555102523
20
11.997439129365581
30
0
10
7.3016669687884539
20
11.997439129365581
30
0
10
7.2873792427040618
20
12.228452967815695
30
0
10
7.2873792427040618
20
12.510802093359924
30
0
0
SPLINE
5
281
100
AcDbEntity
8
0
100
AcDbSpline
70
4
71
3
72
8
73
4
74
0
42
0.000000001
43
0.0000000001
44
0.0000000001
40
-1
40
-1
40
-1
40
-1
40
0
40
0
40
0
40
0
41
1
41
1
41
1
41
1
10
7.2873792427040618
20
12.510802093359924
30
0
10
7.2873792427040618
20
13.008954826209047
30
0
10
7.2797468758878559
20
13.024169094575541
30
0
10
7.0300084051745593
20
13.024169094575541
30
0
0
SPLINE
5
282
100
AcDbEntity
8
0
100
AcDbSpline
70
4
71
3
72
8
73
4
74
0
42
0.000000001
43
0.0000000001
44
0.0000000001
40
-1
40
-1
40
-1
40
-1
40
0
40
0
40
0
40
0
41
1
41
1
41
1
41
1
10
7.0300084051745593
20
13.024169094575541
30
0
10
6.8507073340075664
20
13.024169094575541
30
0
10
6.5888127900419091
20
12.863820758673645
30
0
10
6.1666223940509024
20
12.495551490001976
30
0
0
SPLINE
5
283
100
AcDbEntity
8
0
100
AcDbSpline
70
4
71
3
72
8
73
4
74
0
42
0.000000001
43
0.0000000001
44
0.0000000001
40
-1
40
-1
40
-1
40
-1
40
0
40
0
40
0
40
0
41
1
41
1
41
1
41
1
10
6.1666223940509024
20
12.495551490001976
30
0
10
5.7045543449379466
20
12.092497522843978
30
0
10
5.553445189918822
20
12.003811883144678
30
0
10
5.5304269728320321
20
12.122195322526593
30
0
0
SPLINE
5
284
100
AcDbEntity
8
0
100
AcDbSpline
70
4
71
3
72
8
73
4
74
0
42
0.000000001
43
0.0000000001
44
0.0000000001
40
-1
40
-1
40
-1
40
-1
40
0
40
0
40
0
40
0
41
1
41
1
41
1
41
1
10
5.5304269728320321
20
12.122195322526593
30
0
10
5.5117326197283933
20
12.218351840191183
30
0
10
5.4099199550606292
20
12.277454741014143
30
0
10
5.2629590448992936
20
12.277454741014143
30
0
0
SPLINE
5
285
100
AcDbEntity
8
0
100
AcDbSpline
70
4
71
3
72
8
73
4
74
0
42
0.000000001
43
0.0000000001
44
0.0000000001
40
-1
40
-1
40
-1
40
-1
40
0
40
0
40
0
40
0
41
1
41
1
41
1
41
1
10
5.2629590448992936
20
12.277454741014143
30
0
10
5.0187879023211668
20
12.277454741014143
30
0
10
4.4502623654661067
20
11.747967115256287
30
0
10
4.1354741669950368
20
11.227389636847477
30
0
0
SPLINE
5
286
100
AcDbEntity
8
0
100
AcDbSpline
70
4
71
3
72
8
73
4
74
0
42
0.000000001
43
0.0000000001
44
0.0000000001
40
-1
40
-1
40
-1
40
-1
40
0
40
0
40
0
40
0
41
1
41
1
41
1
41
1
10
4.1354741669950368
20
11.227389636847477
30
0
10
3.9510256387052411
20
10.922361420803366
30
0
10
3.8671079573291012
20
10.9054959289363
30
0
10
3.787160883074745
20
11.157386238587993
30
0
0
SPLINE
5
287
100
AcDbEntity
8
0
100
AcDbSpline
70
4
71
3
72
8
73
4
74
0
42
0.000000001
43
0.0000000001
44
0.0000000001
40
-1
40
-1
40
-1
40
-1
40
0
40
0
40
0
40
0
41
1
41
1
41
1
41
1
10
3.787160883074745
20
11.157386238587993
30
0
10
3.7470874247210695
20
11.283646296673115
30
0
10
3.6459368643420387
20
11.344063313020367
30
0
10
3.474621416852619
20
11.344063313020367
30
0
0
SPLINE
5
288
100
AcDbEntity
8
0
100
AcDbSpline
70
4
71
3
72
8
73
4
74
0
42
0.000000001
43
0.0000000001
44
0.0000000001
40
-1
40
-1
40
-1
40
-1
40
0
40
0
40
0
40
0
41
1
41
1
41
1
41
1
10
3.474621416852619
20
11.344063313020367
30
0
10
3.253490696078285
20
11.344063313020367
30
0
10
3.1577257888771548
20
11.234446699632304
30
0
10
2.7203473664579247
20
10.48067730189671
30
0
0
SPLINE
5
289
100
AcDbEntity
8
0
100
AcDbSpline
70
4
71
3
72
8
73
4
74
0
42
0.000000001
43
0.0000000001
44
0.0000000001
40
-1
40
-1
40
-1
40
-1
40
0
40
0
40
0
40
0
41
1
41
1
41
1
41
1
10
2.7203473664579247
20
10.48067730189671
30
0
10
2.444807014590249
20
10.005813279959659
30
0
10
2.1162660218534324
20
9.4541451605291158
30
0
10
1.9902582900978594
20
9.2547508390874622
30
0
0
LINE
5
290
100
AcDbEntity
8
0
100
AcDbLine
10
1.9902582900978596
20
9.2547508390874604
30
0
11
1.7611520386991364
21
8.8922103874018745
31
0
0
LINE
5
291
100
AcDbEntity
8
0
100
AcDbLine
10
1.7611520386991364
20
8.8922103874018745
30
0
11
1.56074841193929
21
9.1227660012375278
31
0
0
SPLINE
5
292
100
AcDbEntity
8
0
100
AcDbSpline
70
4
71
3
72
8
73
4
74
0
42
0.000000001
43
0.0000000001
44
0.0000000001
40
-1
40
-1
40
-1
40
-1
40
0
40
0
40
0
40
0
41
1
41
1
41
1
41
1
10
1.56074841193929
20
9.1227660012375278
30
0
10
1.1444584148384607
20
9.6016813747218244
30
0
10
-0.44439607289856298
20
10.698937558346092
30
0
10
-1.4362343532584632
20
11.19246969144851
30
0
0
SPLINE
5
293
100
AcDbEntity
8
0
100
AcDbSpline
70
4
71
3
72
8
73
4
74
0
42
0.000000001
43
0.0000000001
44
0.0000000001
40
-1
40
-1
40
-1
40
-1
40
0
40
0
40
0
40
0
41
1
41
1
41
1
41
1
10
-1.4362343532584632
20
11.19246969144851
30
0
10
-2.498265781277671
20
11.720929844392437
30
0
10
-4.0388956609112565
20
12.276310188783306
30
0
10
-4.9400478584311962
20
12.455560794684391
30
0
0
SPLINE
5
294
100
AcDbEntity
8
0
100
AcDbSpline
70
4
71
3
72
8
73
4
74
0
42
0.000000001
43
0.0000000001
44
0.0000000001
40
-1
40
-1
40
-1
40
-1
40
0
40
0
40
0
40
0
41
1
41
1
41
1
41
1
10
-4.9400478584311962
20
12.455560794684391
30
0
10
-5.2224010211966991
20
12.511724598420759
30
0
10
-5.6424254479748548
20
12.596183267447451
30
0
10
-5.8734392864249685
20
12.643249193045595
30
0
0
SPLINE
5
295
100
AcDbEntity
8
0
100
AcDbSpline
70
4
71
3
72
8
73
4
74
0
42
0.000000001
43
0.0000000001
44
0.0000000001
40
-1
40
-1
40
-1
40
-1
40
0
40
0
40
0
40
0
41
1
41
1
41
1
41
1
10
-5.8734392864249685
20
12.643249193045595
30
0
10
-6.1044551434857208
20
12.69031511864374
30
0
10
-6.9655066314083891
20
12.798211875769594
30
0
10
-7.7868924203259304
20
12.88301976443638
30
0
0
SPLINE
5
296
100
AcDbEntity
8
0
100
AcDbSpline
70
4
71
3
72
8
73
4
74
0
42
0.000000001
43
0.0000000001
44
0.0000000001
40
-1
40
-1
40
-1
40
-1
40
0
40
0
40
0
40
0
41
1
41
1
41
1
41
1
10
-7.7868924203259304
20
12.88301976443638
30
0
10
-8.6082761906328358
20
12.967829671713806
30
0
10
-9.6125733358405601
20
13.100181896699565
30
0
10
-10.018661274785057
20
13.17713537138015
30
0
0
SPLINE
5
297
100
AcDbEntity
8
0
100
AcDbSpline
70
4
71
3
72
8
73
4
74
0
42
0.000000001
43
0.0000000001
44
0.0000000001
40
-1
40
-1
40
-1
40
-1
40
0
40
0
40
0
40
0
41
1
41
1
41
1
41
1
10
-10.018661274785057
20
13.17713537138015
30
0
10
-10.76268280175751
20
13.318133305721581
30
0
10
-11.911252067758893
20
13.704313706569966
30
0
10
-12.075717360053716
20
13.868777989559469
30
0
0
SPLINE
5
298
100
AcDbEntity
8
0
100
AcDbSpline
70
4
71
3
72
8
73
4
74
0
42
0.000000001
43
0.0000000001
44
0.0000000001
40
-1
40
-1
40
-1
40
-1
40
0
40
0
40
0
40
0
41
1
41
1
41
1
41
1
10
-12.075717360053716
20
13.868777989559469
30
0
10
-12.124546542042749
20
13.917606162243189
30
0
10
-12.261103532984114
20
13.957558503958683
30
0
10
-12.379176106328027
20
13.957558503958683
30
0
0
SPLINE
5
299
100
AcDbEntity
8
0
100
AcDbSpline
70
4
71
3
72
8
73
4
74
0
42
0.000000001
43
0.0000000001
44
0.0000000001
40
-1
40
-1
40
-1
40
-1
40
-0.91435786329701618
40
-0.91435786329701618
40
-0.91435786329701618
40
-0.91435786329701618
41
1
41
1
41
1
41
1
10
-12.379176106328027
20
13.957558503958683
30
0
10
-12.395151255508786
20
13.957558503958683
30
0
10
-12.409964701392083
20
13.957215767914112
30
0
10
-12.423698254544085
20
13.956394472786913
30
0
0
ARC
5
300
100
AcDbEntity
8
0
100
AcDbCircle
10
4.9960036108132044e-15
20
-1.7763568394002505e-14
30
0
40
18.684999999999985
210
0
220
0
230
1
100
AcDbArc
50
131.67482554059461
51
132.33233436437163
0
SPLINE
5
301
100
AcDbEntity
8
0
100
AcDbSpline
70
4
71
3
72
8
73
4
74
0
42
0.000000001
43
0.0000000001
44
0.0000000001
40
-0.29652638398378039
40
-0.29652638398378039
40
-0.29652638398378039
40
-0.29652638398378039
40
0
40
0
40
0
40
0
41
1
41
1
41
1
41
1
10
-12.58303601026131
20
13.812908084993039
30
0
10
-12.591381494505647
20
13.761682974204966
30
0
10
-12.593856356813763
20
13.692974353489484
30
0
10
-12.593856356813763
20
13.601144535554548
30
0
0
SPLINE
5
302
100
AcDbEntity
8
0
100
AcDbSpline
70
4
71
3
72
8
73
4
74
0
42
0.000000001
43
0.0000000001
44
0.0000000001
40
-1
40
-1
40
-1
40
-1
40
0
40
0
40
0
40
0
41
1
41
1
41
1
41
1
10
-12.593856356813763
20
13.601144535554548
30
0
10
-12.593856356813763
20
13.025596252295472
30
0
10
-12.036251503501589
20
11.454981930268904
30
0
10
-11.759405110552168
20
11.250722757193543
30
0
0
SPLINE
5
303
100
AcDbEntity
8
0
100
AcDbSpline
70
4
71
3
72
8
73
4
74
0
42
0.000000001
43
0.0000000001
44
0.0000000001
40
-1
40
-1
40
-1
40
-1
40
0
40
0
40
0
40
0
41
1
41
1
41
1
41
1
10
-11.759405110552168
20
11.250722757193543
30
0
10
-11.724614356233932
20
11.225054104341169
30
0
10
-11.543264395271001
20
10.928061977240539
30
0
10
-11.356404636576032
20
10.590740028235412
30
0
0
SPLINE
5
304
100
AcDbEntity
8
0
100
AcDbSpline
70
4
71
3
72
8
73
4
74
0
42
0.000000001
43
0.0000000001
44
0.0000000001
40
-1
40
-1
40
-1
40
-1
40
0
40
0
40
0
40
0
41
1
41
1
41
1
41
1
10
-11.356404636576032
20
10.590740028235412
30
0
10
-10.969028208925579
20
9.8914388013016143
30
0
10
-9.879815179382021
20
8.6093909255793655
30
0
10
-9.1323700887702444
20
7.9729532710841289
30
0
0
SPLINE
5
305
100
AcDbEntity
8
0
100
AcDbSpline
70
4
71
3
72
8
73
4
74
0
42
0.000000001
43
0.0000000001
44
0.0000000001
40
-1
40
-1
40
-1
40
-1
40
0
40
0
40
0
40
0
41
1
41
1
41
1
41
1
10
-9.1323700887702444
20
7.9729532710841289
30
0
10
-8.4284008247397892
20
7.3735389542709751
30
0
10
-7.1977548502626565
20
6.4950355680913718
30
0
10
-6.8068307144187434
20
6.3128539395462457
30
0
0
SPLINE
5
306
100
AcDbEntity
8
0
100
AcDbSpline
70
4
71
3
72
8
73
4
74
0
42
0.000000001
43
0.0000000001
44
0.0000000001
40
-1
40
-1
40
-1
40
-1
40
0
40
0
40
0
40
0
41
1
41
1
41
1
41
1
10
-6.8068307144187434
20
6.3128539395462457
30
0
10
-6.6271521630627461
20
6.2291219703486522
30
0
10
-6.3727073016506974
20
6.0882713945836819
30
0
10
-6.2413976890586369
20
5.999850192877747
30
0
0
SPLINE
5
307
100
AcDbEntity
8
0
100
AcDbSpline
70
4
71
3
72
8
73
4
74
0
42
0.000000001
43
0.0000000001
44
0.0000000001
40
-1
40
-1
40
-1
40
-1
40
0
40
0
40
0
40
0
41
1
41
1
41
1
41
1
10
-6.2413976890586369
20
5.999850192877747
30
0
10
-5.924832103922224
20
5.7866909655065291
30
0
10
-4.4048354529085305
20
5.171840333156883
30
0
10
-3.5866299850486261
20
4.9259775948654605
30
0
0
SPLINE
5
308
100
AcDbEntity
8
0
100
AcDbSpline
70
4
71
3
72
8
73
4
74
0
42
0.000000001
43
0.0000000001
44
0.0000000001
40
-1
40
-1
40
-1
40
-1
40
0
40
0
40
0
40
0
41
1
41
1
41
1
41
1
10
-3.5866299850486261
20
4.9259775948654605
30
0
10
-2.5486200236024992
20
4.614065916551251
30
0
10
-1.4176268004121928
20
4.3674239945541782
30
0
10
-0.4597698115053328
20
4.2440868846705548
30
0
0
SPLINE
5
309
100
AcDbEntity
8
0
100
AcDbSpline
70
4
71
3
72
8
73
4
74
0
42
0.000000001
43
0.0000000001
44
0.0000000001
40
-1
40
-1
40
-1
40
-1
40
0
40
0
40
0
40
0
41
1
41
1
41
1
41
1
10
-0.4597698115053328
20
4.2440868846705548
30
0
10
0.027928536857908526
20
4.1812879077723597
30
0
10
0.4476158556597909
20
4.1118355902166126
30
0
10
0.47285656305724899
20
4.0897439154119253
30
0
0
SPLINE
5
310
100
AcDbEntity
8
0
100
AcDbSpline
70
4
71
3
72
8
73
4
74
0
42
0.000000001
43
0.0000000001
44
0.0000000001
40
-1
40
-1
40
-1
40
-1
40
0
40
0
40
0
40
0
41
1
41
1
41
1
41
1
10
0.47285656305724899
20
4.0897439154119253
30
0
10
0.49810534489725722
20
4.067652240607238
30
0
10
0.52650921516194327
20
3.6852143438787222
30
0
10
0.53595429432963027
20
3.2398765397201945
30
0
0
SPLINE
5
311
100
AcDbEntity
8
0
100
AcDbSpline
70
4
71
3
72
8
73
4
74
0
42
0.000000001
43
0.0000000001
44
0.0000000001
40
-1
40
-1
40
-1
40
-1
40
0
40
0
40
0
40
0
41
1
41
1
41
1
41
1
10
0.53595429432963027
20
3.2398765397201945
30
0
10
0.55298531226887881
20
2.4376927844813423
30
0
10
0.74436373087341412
20
1.4096870573491804
30
0
10
0.98300186169718362
20
0.83854540110935627
30
0
0
LINE
5
312
100
AcDbEntity
8
0
100
AcDbLine
10
0.98300186169718373
20
0.83854540110935638
30
0
11
1.1067386564868165
21
0.54240310908665046
31
0
0
LINE
5
313
100
AcDbEntity
8
0
100
AcDbLine
10
1.1067386564868165
20
0.54240310908665046
30
0
11
0.44015708935831732
21
0.48452954214125654
31
0
0
SPLINE
5
314
100
AcDbEntity
8
0
100
AcDbSpline
70
4
71
3
72
8
73
4
74
0
42
0.000000001
43
0.0000000001
44
0.0000000001
40
-1
40
-1
40
-1
40
-1
40
0
40
0
40
0
40
0
41
1
41
1
41
1
41
1
10
0.44015708935831732
20
0.48452954214125654
30
0
10
-0.17540813115661802
20
0.43108076971083431
30
0
10
-1.1421833418550653
20
0.14350949845025607
30
0
10
-1.3348920248689788
20
-0.043474404798846678
30
0
0
SPLINE
5
315
100
AcDbEntity
8
0
100
AcDbSpline
70
4
71
3
72
8
73
4
74
0
42
0.000000001
43
0.0000000001
44
0.0000000001
40
-1
40
-1
40
-1
40
-1
40
0
40
0
40
0
40
0
41
1
41
1
41
1
41
1
10
-1.3348920248689788
20
-0.043474404798846678
30
0
10
-1.3807245793682865
20
-0.087944397118593365
30
0
10
-1.573195066327111
20
0.10993192912449157
30
0
10
-1.7730455937725864
20
0.40698259593357378
30
0
0
SPLINE
5
316
100
AcDbEntity
8
0
100
AcDbSpline
70
4
71
3
72
8
73
4
74
0
42
0.000000001
43
0.0000000001
44
0.0000000001
40
-1
40
-1
40
-1
40
-1
40
0
40
0
40
0
40
0
41
1
41
1
41
1
41
1
10
-1.7730455937725864
20
0.40698259593357378
30
0
10
-2.6497160814943443
20
1.7100401711594015
30
0
10
-3.6483429494244413
20
2.3906470449895645
30
0
10
-7.0094295802456692
20
3.9757893077662576
30
0
0
SPLINE
5
317
100
AcDbEntity
8
0
100
AcDbSpline
70
4
71
3
72
8
73
4
74
0
42
0.000000001
43
0.0000000001
44
0.0000000001
40
-1
40
-1
40
-1
40
-1
40
0
40
0
40
0
40
0
41
1
41
1
41
1
41
1
10
-7.0094295802456692
20
3.9757893077662576
30
0
10
-9.409363840296125
20
5.1076323660344869
30
0
10
-10.197446590934451
20
5.5438299012314252
30
0
10
-11.100432696217553
20
6.2401233983169968
30
0
0
SPLINE
5
318
100
AcDbEntity
8
0
100
AcDbSpline
70
4
71
3
72
8
73
4
74
0
42
0.000000001
43
0.0000000001
44
0.0000000001
40
-1
40
-1
40
-1
40
-1
40
0
40
0
40
0
40
0
41
1
41
1
41
1
41
1
10
-11.100432696217553
20
6.2401233983169968
30
0
10
-12.024095430249231
20
6.9523639194300735
30
0
10
-12.299074608359987
20
7.2722955378026732
30
0
10
-12.6619824471814
20
8.0569597713282661
30
0
0
SPLINE
5
319
100
AcDbEntity
8
0
100
AcDbSpline
70
4
71
3
72
8
73
4
74
0
42
0.000000001
43
0.0000000001
44
0.0000000001
40
-1
40
-1
40
-1
40
-1
40
0
40
0
40
0
40
0
41
1
41
1
41
1
41
1
10
-12.6619824471814
20
8.0569597713282661
30
0
10
-12.946568193310753
20
8.6722847771774703
30
0
10
-13.001728747560835
20
8.9030382148554921
30
0
10
-13.040548648709313
20
9.6406223925084866
30
0
0
LINE
5
320
100
AcDbEntity
8
0
100
AcDbLine
10
-13.040548648709313
20
9.6406223925084884
30
0
11
-13.085990602050476
21
10.504008403632143
31
0
0
LINE
5
321
100
AcDbEntity
8
0
100
AcDbLine
10
-13.085990602050476
20
10.504008403632143
30
0
11
-13.369120929910995
21
10.504008403632143
31
0
0
SPLINE
5
322
100
AcDbEntity
8
0
100
AcDbSpline
70
4
71
3
72
8
73
4
74
0
42
0.000000001
43
0.0000000001
44
0.0000000001
40
-1
40
-1
40
-1
40
-1
40
0
40
0
40
0
40
0
41
1
41
1
41
1
41
1
10
-13.369120929910993
20
10.504008403632143
30
0
10
-13.777182060752565
20
10.504008403632143
30
0
10
-14.709386041039483
20
9.7600656024745103
30
0
10
-15.297096958035485
20
8.9653951160243128
30
0
0
SPLINE
5
323
100
AcDbEntity
8
0
100
AcDbSpline
70
4
71
3
72
8
73
4
74
0
42
0.000000001
43
0.0000000001
44
0.0000000001
40
-1
40
-1
40
-1
40
-1
40
0
40
0
40
0
40
0
41
1
41
1
41
1
41
1
10
-15.297096958035485
20
8.9653951160243128
30
0
10
-16.206170688345289
20
7.7361863923202945
30
0
10
-16.811055944635726
20
6.2361245306463031
30
0
10
-17.179588641995448
20
4.2969583344589646
30
0
0
SPLINE
5
324
100
AcDbEntity
8
0
100
AcDbSpline
70
4
71
3
72
8
73
4
74
0
42
0.000000001
43
0.0000000001
44
0.0000000001
40
-1
40
-1
40
-1
40
-1
40
0
40
0
40
0
40
0
41
1
41
1
41
1
41
1
10
-17.179588641995448
20
4.2969583344589646
30
0
10
-17.465089828048406
20
2.7947002244125763
30
0
10
-17.493714736177779
20
-0.3029022065668352
30
0
10
-17.233494629735013
20
-1.5367375858494636
30
0
0
SPLINE
5
325
100
AcDbEntity
8
0
100
AcDbSpline
70
4
71
3
72
8
73
4
74
0
42
0.000000001
43
0.0000000001
44
0.0000000001
40
-1
40
-1
40
-1
40
-1
40
-0.47829245792237246
40
-0.47829245792237246
40
-0.47829245792237246
40
-0.47829245792237246
41
1
41
1
41
1
41
1
10
-17.233494629735013
20
-1.5367375858494636
30
0
10
-16.794550012984129
20
-3.6180146872791488
30
0
10
-15.87274669469581
20
-5.396431184436091
30
0
10
-14.562991908326877
20
-6.7675992173445474
30
0
0
ARC
5
326
100
AcDbEntity
8
0
100
AcDbCircle
10
-10.76222548508448
20
-11.410246605932588
30
0
40
6.0000000149008468
210
0
220
0
230
1
100
AcDbArc
50
120.23792529620476
51
129.305938056256
0
SPLINE
5
327
100
AcDbEntity
8
0
100
AcDbSpline
70
4
71
3
72
8
73
4
74
0
42
0.000000001
43
0.0000000001
44
0.0000000001
40
-0.51672922746484906
40
-0.51672922746484906
40
-0.51672922746484906
40
-0.51672922746484906
40
0
40
0
40
0
40
0
41
1
41
1
41
1
41
1
10
-13.783777002283557
20
-6.2265966748780111
30
0
10
-15.179929304806787
20
-4.8559859716661125
30
0
10
-16.141695758290968
20
-3.0553396579613299
30
0
10
-16.562771882885951
20
-0.9333264199762592
30
0
0
SPLINE
5
328
100
AcDbEntity
8
0
100
AcDbSpline
70
4
71
3
72
8
73
4
74
0
42
0.000000001
43
0.0000000001
44
0.0000000001
40
-1
40
-1
40
-1
40
-1
40
0
40
0
40
0
40
0
41
1
41
1
41
1
41
1
10
-16.562771882885951
20
-0.9333264199762592
30
0
10
-16.745577766770378
20
-0.012080972181660599
30
0
10
-16.703982780649518
20
0.24876793147434295
30
0
10
-16.227338344131169
20
1.1701506447922139
30
0
0
SPLINE
5
329
100
AcDbEntity
8
0
100
AcDbSpline
70
4
71
3
72
8
73
4
74
0
42
0.000000001
43
0.0000000001
44
0.0000000001
40
-1
40
-1
40
-1
40
-1
40
0
40
0
40
0
40
0
41
1
41
1
41
1
41
1
10
-16.227338344131169
20
1.1701506447922139
30
0
10
-15.803023360445357
20
1.9903807791204242
30
0
10
-15.845374820902205
20
1.9857823840907196
30
0
10
-15.348730999503788
20
1.2654734762639785
30
0
0
SPLINE
5
330
100
AcDbEntity
8
0
100
AcDbSpline
70
4
71
3
72
8
73
4
74
0
42
0.000000001
43
0.0000000001
44
0.0000000001
40
-1
40
-1
40
-1
40
-1
40
0
40
0
40
0
40
0
41
1
41
1
41
1
41
1
10
-15.348730999503788
20
1.2654734762639785
30
0
10
-14.977303614491477
20
0.72676685572971689
30
0
10
-14.851930735781051
20
0.61011538427382384
30
0
10
-14.644386273894963
20
0.61011538427382384
30
0
0
SPLINE
5
331
100
AcDbEntity
8
0
100
AcDbSpline
70
4
71
3
72
8
73
4
74
0
42
0.000000001
43
0.0000000001
44
0.0000000001
40
-1
40
-1
40
-1
40
-1
40
0
40
0
40
0
40
0
41
1
41
1
41
1
41
1
10
-14.644386273894963
20
0.61011538427382384
30
0
10
-14.41424397058711
20
0.61011538427382384
30
0
10
-14.377514340752617
20
0.66173529546767362
30
0
10
-14.229297350122785
20
1.1934857837489199
30
0
0
SPLINE
5
332
100
AcDbEntity
8
0
100
AcDbSpline
70
4
71
3
72
8
73
4
74
0
42
0.000000001
43
0.0000000001
44
0.0000000001
40
-1
40
-1
40
-1
40
-1
40
0
40
0
40
0
40
0
41
1
41
1
41
1
41
1
10
-14.229297350122785
20
1.1934857837489199
30
0
10
-14.139865833793337
20
1.5143399071823538
30
0
10
-14.048200724794722
20
1.8077812981735653
30
0
10
-14.025605406636254
20
1.8455777637293913
30
0
0
SPLINE
5
333
100
AcDbEntity
8
0
100
AcDbSpline
70
4
71
3
72
8
73
4
74
0
42
0.000000001
43
0.0000000001
44
0.0000000001
40
-1
40
-1
40
-1
40
-1
40
0
40
0
40
0
40
0
41
1
41
1
41
1
41
1
10
-14.025605406636254
20
1.8455777637293913
30
0
10
-14.003004032645876
20
1.8833742292852174
30
0
10
-13.577112514053042
20
1.5583133212855449
30
0
10
-13.079174763236697
20
1.1232139102747984
30
0
0
SPLINE
5
334
100
AcDbEntity
8
0
100
AcDbSpline
70
4
71
3
72
8
73
4
74
0
42
0.000000001
43
0.0000000001
44
0.0000000001
40
-1
40
-1
40
-1
40
-1
40
0
40
0
40
0
40
0
41
1
41
1
41
1
41
1
10
-13.079174763236697
20
1.1232139102747984
30
0
10
-12.487971145187075
20
0.60661915065159278
30
0
10
-12.096377839917199
20
0.33164400976210651
30
0
10
-11.950602863504741
20
0.33111513377536816
30
0
0
LINE
5
335
100
AcDbEntity
8
0
100
AcDbLine
10
-11.950602863504741
20
0.33111513377536811
30
0
11
-11.727370769057925
21
0.33005738180189981
31
0
0
LINE
5
336
100
AcDbEntity
8
0
100
AcDbLine
10
-11.727370769057925
20
0.33005738180189981
30
0
11
-11.776038462196045
21
1.3567873470118608
31
0
0
SPLINE
5
337
100
AcDbEntity
8
0
100
AcDbSpline
70
4
71
3
72
8
73
4
74
0
42
0.000000001
43
0.0000000001
44
0.0000000001
40
-1
40
-1
40
-1
40
-1
40
0
40
0
40
0
40
0
41
1
41
1
41
1
41
1
10
-11.776038462196048
20
1.3567873470118608
30
0
10
-11.802806248539941
20
1.9214896353215938
30
0
10
-11.818655369951582
20
2.3835173122218212
30
0
10
-11.811273310854292
20
2.3835173122218212
30
0
0
SPLINE
5
338
100
AcDbEntity
8
0
100
AcDbSpline
70
4
71
3
72
8
73
4
74
0
42
0.000000001
43
0.0000000001
44
0.0000000001
40
-1
40
-1
40
-1
40
-1
40
0
40
0
40
0
40
0
41
1
41
1
41
1
41
1
10
-11.811273310854292
20
2.3835173122218212
30
0
10
-11.803886205230413
20
2.3835173122218212
30
0
10
-11.568015589589136
20
2.299510811977683
30
0
10
-11.287112798565879
20
2.1968402377894503
30
0
0
SPLINE
5
339
100
AcDbEntity
8
0
100
AcDbSpline
70
4
71
3
72
8
73
4
74
0
42
0.000000001
43
0.0000000001
44
0.0000000001
40
-1
40
-1
40
-1
40
-1
40
0
40
0
40
0
40
0
41
1
41
1
41
1
41
1
10
-11.287112798565879
20
2.1968402377894503
30
0
10
-11.006212026153261
20
2.0941656263799446
30
0
10
-10.639283114944156
20
2.0101591261358021
30
0
10
-10.471714208795881
20
2.0101591261358021
30
0
0
SPLINE
5
340
100
AcDbEntity
8
0
100
AcDbSpline
70
4
71
3
72
8
73
4
74
0
42
0.000000001
43
0.0000000001
44
0.0000000001
40
-1
40
-1
40
-1
40
-1
40
0
40
0
40
0
40
0
41
1
41
1
41
1
41
1
10
-10.471714208795881
20
2.0101591261358021
30
0
10
-10.098351985488589
20
2.0101591261358021
30
0
10
-10.084024896496789
20
2.1404806288213507
30
0
10
-10.353720361266788
20
3.0835593692591745
30
0
0
SPLINE
5
341
100
AcDbEntity
8
0
100
AcDbSpline
70
4
71
3
72
8
73
4
74
0
42
0.000000001
43
0.0000000001
44
0.0000000001
40
-1
40
-1
40
-1
40
-1
40
0
40
0
40
0
40
0
41
1
41
1
41
1
41
1
10
-10.353720361266788
20
3.0835593692591745
30
0
10
-10.456393963370974
20
3.4425894570480775
30
0
10
-10.540399454309796
20
3.7432978463303002
30
0
10
-10.540399454309796
20
3.7518163832158802
30
0
0
SPLINE
5
342
100
AcDbEntity
8
0
100
AcDbSpline
70
4
71
3
72
8
73
4
74
0
42
0.000000001
43
0.0000000001
44
0.0000000001
40
-1
40
-1
40
-1
40
-1
40
0
40
0
40
0
40
0
41
1
41
1
41
1
41
1
10
-10.540399454309796
20
3.7518163832158802
30
0
10
-10.540399454309796
20
3.7603308828801874
30
0
10
-10.319884409779565
20
3.6457182081670547
30
0
10
-10.050369610661523
20
3.497124242000873
30
0
0
SPLINE
5
343
100
AcDbEntity
8
0
100
AcDbSpline
70
4
71
3
72
8
73
4
74
0
42
0.000000001
43
0.0000000001
44
0.0000000001
40
-1
40
-1
40
-1
40
-1
40
0
40
0
40
0
40
0
41
1
41
1
41
1
41
1
10
-10.050369610661523
20
3.497124242000873
30
0
10
-9.7808517836275257
20
3.3485302758346958
30
0
10
-9.4238302134218372
20
3.2263195506861786
30
0
10
-9.2569869977973447
20
3.2252617987127064
30
0
0
SPLINE
5
344
100
AcDbEntity
8
0
100
AcDbSpline
70
4
71
3
72
8
73
4
74
0
42
0.000000001
43
0.0000000001
44
0.0000000001
40
-1
40
-1
40
-1
40
-1
40
0
40
0
40
0
40
0
41
1
41
1
41
1
41
1
10
-9.2569869977973447
20
3.2252617987127064
30
0
10
-8.9831220927578759
20
3.22373169185032
30
0
10
-8.9536342285814445
20
3.2502521983912569
30
0
10
-8.9536342285814445
20
3.4980770262212513
30
0
0
SPLINE
5
345
100
AcDbEntity
8
0
100
AcDbSpline
70
4
71
3
72
8
73
4
74
0
42
0.000000001
43
0.0000000001
44
0.0000000001
40
-1
40
-1
40
-1
40
-1
40
0
40
0
40
0
40
0
41
1
41
1
41
1
41
1
10
-8.9536342285814445
20
3.4980770262212513
30
0
10
-8.9536342285814445
20
3.6490529529383764
30
0
10
-8.9139523806912262
20
3.7971059314540012
30
0
10
-8.865454250846561
20
3.8270822994044407
30
0
0
SPLINE
5
346
100
AcDbEntity
8
0
100
AcDbSpline
70
4
71
3
72
8
73
4
74
0
42
0.000000001
43
0.0000000001
44
0.0000000001
40
-1
40
-1
40
-1
40
-1
40
0
40
0
40
0
40
0
41
1
41
1
41
1
41
1
10
-8.865454250846561
20
3.8270822994044407
30
0
10
-8.771370846305544
20
3.8852303973963842
30
0
10
-8.3256303293250546
20
3.6897885155807897
30
0
10
-6.1023022952420058
20
2.6155566048752243
30
0
0
SPLINE
5
347
100
AcDbEntity
8
0
100
AcDbSpline
70
4
71
3
72
8
73
4
74
0
42
0.000000001
43
0.0000000001
44
0.0000000001
40
-1
40
-1
40
-1
40
-1
40
0
40
0
40
0
40
0
41
1
41
1
41
1
41
1
10
-6.1023022952420058
20
2.6155566048752243
30
0
10
-4.1093532465639271
20
1.6526308846603799
30
0
10
-3.0207003814719657
20
0.82794769526829182
30
0
10
-2.298128611121828
20
-0.26621193963975109
30
0
0
LINE
5
348
100
AcDbEntity
8
0
100
AcDbLine
10
-2.2981286111218275
20
-0.26621193963975076
30
0
11
-2.0584630074841304
21
-0.62912583429306834
31
0
0
LINE
5
349
100
AcDbEntity
8
0
100
AcDbLine
10
-2.0584630074841304
20
-0.62912583429306834
30
0
11
-2.3311873975140385
21
-0.96849465448349803
31
0
0
SPLINE
5
350
100
AcDbEntity
8
0
100
AcDbSpline
70
4
71
3
72
8
73
4
74
0
42
0.000000001
43
0.0000000001
44
0.0000000001
40
-1
40
-1
40
-1
40
-1
40
0
40
0
40
0
40
0
41
1
41
1
41
1
41
1
10
-2.3311873975140385
20
-0.96849465448349825
30
0
10
-2.7500470859549986
20
-1.48971203246405
30
0
10
-3.0669548255942813
20
-2.4021442262201553
30
0
10
-3.1345480027539074
20
-3.2815075405308658
30
0
0
SPLINE
5
351
100
AcDbEntity
8
0
100
AcDbSpline
70
4
71
3
72
8
73
4
74
0
42
0.000000001
43
0.0000000001
44
0.0000000001
40
-1
40
-1
40
-1
40
-1
40
0
40
0
40
0
40
0
41
1
41
1
41
1
41
1
10
-3.1345480027539074
20
-3.2815075405308658
30
0
10
-3.1839635911328146
20
-3.9243906187881095
30
0
10
-3.1700997732820646
20
-4.0614098715652069
30
0
10
-3.0510158760093198
20
-4.1071071791518765
30
0
0
SPLINE
5
352
100
AcDbEntity
8
0
100
AcDbSpline
70
4
71
3
72
8
73
4
74
0
42
0.000000001
43
0.0000000001
44
0.0000000001
40
-1
40
-1
40
-1
40
-1
40
0
40
0
40
0
40
0
41
1
41
1
41
1
41
1
10
-3.0510158760093198
20
-4.1071071791518765
30
0
10
-2.9251837633791111
20
-4.1553963827956775
30
0
10
-2.9300889872255476
20
-4.2347318180271998
30
0
10
-3.0923227054618341
20
-4.7755095330744002
30
0
0
SPLINE
5
353
100
AcDbEntity
8
0
100
AcDbSpline
70
4
71
3
72
8
73
4
74
0
42
0.000000001
43
0.0000000001
44
0.0000000001
40
-1
40
-1
40
-1
40
-1
40
0
40
0
40
0
40
0
41
1
41
1
41
1
41
1
10
-3.0923227054618341
20
-4.7755095330744002
30
0
10
-3.1935701591514087
20
-5.1129929709304456
30
0
10
-3.360680840685224
20
-5.4778891412286956
30
0
10
-3.463680448407187
20
-5.5863894629348376
30
0
0
SPLINE
5
354
100
AcDbEntity
8
0
100
AcDbSpline
70
4
71
3
72
8
73
4
74
0
42
0.000000001
43
0.0000000001
44
0.0000000001
40
-1
40
-1
40
-1
40
-1
40
-0.49242820758254541
40
-0.49242820758254541
40
-0.49242820758254541
40
-0.49242820758254541
41
1
41
1
41
1
41
1
10
-3.463680448407187
20
-5.5863894629348376
30
0
10
-3.7054549571543216
20
-5.8410799509391147
30
0
10
-4.0801841077710783
20
-6.4209709527713326
30
0
10
-4.4103482950718087
20
-7.0105091315148886
30
0
0
SPLINE
5
355
100
AcDbEntity
8
0
100
AcDbSpline
70
4
71
3
72
8
73
4
74
0
42
0.000000001
43
0.0000000001
44
0.0000000001
40
-1
40
-1
40
-1
40
-1
40
0
40
0
40
0
40
0
41
1
41
1
41
1
41
1
10
6.9735135492938216
20
5.1694018515081197
30
0
10
7.0403396544116204
20
4.7575931700200824
30
0
10
6.8321421719846587
20
4.5366360497604763
30
0
10
6.613492323682455
20
4.7873192302516054
30
0
0
SPLINE
5
356
100
AcDbEntity
8
0
100
AcDbSpline
70
4
71
3
72
8
73
4
74
0
42
0.000000001
43
0.0000000001
44
0.0000000001
40
-1
40
-1
40
-1
40
-1
40
0
40
0
40
0
40
0
41
1
41
1
41
1
41
1
10
6.613492323682455
20
4.7873192302516054
30
0
10
6.2607986546811922
20
5.1916873129338992
30
0
10
6.1623873489357495
20
5.6393122029434606
30
0
10
6.3854761220273826
20
5.8244591705134496
30
0
0
SPLINE
5
357
100
AcDbEntity
8
0
100
AcDbSpline
70
4
71
3
72
8
73
4
74
0
42
0.000000001
43
0.0000000001
44
0.0000000001
40
-1
40
-1
40
-1
40
-1
40
0
40
0
40
0
40
0
41
1
41
1
41
1
41
1
10
6.3854761220273826
20
5.8244591705134496
30
0
10
6.5609034793831356
20
5.9700494440526741
30
0
10
6.9059627629575582
20
5.5856595508387663
30
0
10
6.9735135492938216
20
5.1694018515081197
30
0
0
SPLINE
5
358
100
AcDbEntity
8
0
100
AcDbSpline
70
4
71
3
72
8
73
4
74
0
42
0.000000001
43
0.0000000001
44
0.0000000001
40
-1
40
-1
40
-1
40
-1
40
0
40
0
40
0
40
0
41
1
41
1
41
1
41
1
10
7.7878372288999431
20
2.4235786589116826
30
0
10
8.0420812385536689
20
2.8116081071030052
30
0
10
8.1479190128304033
20
3.6777414473027958
30
0
10
8.0307305909452289
20
4.4113207014531852
30
0
0
SPLINE
5
359
100
AcDbEntity
8
0
100
AcDbSpline
70
4
71
3
72
8
73
4
74
0
42
0.000000001
43
0.0000000001
44
0.0000000001
40
-1
40
-1
40
-1
40
-1
40
0
40
0
40
0
40
0
41
1
41
1
41
1
41
1
10
8.0307305909452289
20
4.4113207014531852
30
0
10
7.799365514244383
20
5.8596072189143289
30
0
10
7.1144610183693446
20
6.6771041544408583
30
0
10
6.1324331857023129
20
6.6771041544408583
30
0
0
SPLINE
5
360
100
AcDbEntity
8
0
100
AcDbSpline
70
4
71
3
72
8
73
4
74
0
42
0.000000001
43
0.0000000001
44
0.0000000001
40
-1
40
-1
40
-1
40
-1
40
0
40
0
40
0
40
0
41
1
41
1
41
1
41
1
10
6.1324331857023129
20
6.6771041544408583
30
0
10
5.1310388025897202
20
6.6771041544408583
30
0
10
4.5992196815468356
20
5.5340093604853724
30
0
10
4.8573474980649811
20
3.9364102514714983
30
0
0
SPLINE
5
361
100
AcDbEntity
8
0
100
AcDbSpline
70
4
71
3
72
8
73
4
74
0
42
0.000000001
43
0.0000000001
44
0.0000000001
40
-1
40
-1
40
-1
40
-1
40
0
40
0
40
0
40
0
41
1
41
1
41
1
41
1
10
4.8573474980649811
20
3.9364102514714983
30
0
10
5.0206006146726478
20
2.9259987346461402
30
0
10
5.4996492164589439
20
2.2024802359075313
30
0
10
6.1303742028531882
20
2.01373610418349
30
0
0
SPLINE
5
362
100
AcDbEntity
8
0
100
AcDbSpline
70
4
71
3
72
8
73
4
74
0
42
0.000000001
43
0.0000000001
44
0.0000000001
40
-1
40
-1
40
-1
40
-1
40
0
40
0
40
0
40
0
41
1
41
1
41
1
41
1
10
6.1303742028531882
20
2.01373610418349
30
0
10
6.8061828392006429
20
1.8114995789657984
30
0
10
7.4990446982043446
20
1.982827138119041
30
0
10
7.7878372288999431
20
2.4235786589116826
30
0
0
SPLINE
5
363
100
AcDbEntity
8
0
100
AcDbSpline
70
4
71
3
72
8
73
4
74
0
42
0.000000001
43
0.0000000001
44
0.0000000001
40
-1
40
-1
40
-1
40
-1
40
0
40
0
40
0
40
0
41
1
41
1
41
1
41
1
10
11.28143858286316
20
-0.17715083836208123
30
0
10
10.968541822558389
20
-0.39631543237656608
30
0
10
10.730446697995809
20
-0.35578980524033632
30
0
10
10.357653722887981
20
-0.019905107008320044
30
0
0
SPLINE
5
364
100
AcDbEntity
8
0
100
AcDbSpline
70
4
71
3
72
8
73
4
74
0
42
0.000000001
43
0.0000000001
44
0.0000000001
40
-1
40
-1
40
-1
40
-1
40
0
40
0
40
0
40
0
41
1
41
1
41
1
41
1
10
10.357653722887981
20
-0.019905107008320044
30
0
10
10.046686754351605
20
0.2602780493230572
30
0
10
9.7506837464628084
20
0.68422665517836379
30
0
10
9.8233093199389643
20
0.74541881800998855
30
0
0
SPLINE
5
365
100
AcDbEntity
8
0
100
AcDbSpline
70
4
71
3
72
8
73
4
74
0
42
0.000000001
43
0.0000000001
44
0.0000000001
40
-1
40
-1
40
-1
40
-1
40
0
40
0
40
0
40
0
41
1
41
1
41
1
41
1
10
9.8233093199389643
20
0.74541881800998855
30
0
10
9.8403040028867608
20
0.75973884186456342
30
0
10
9.9556332843758142
20
0.82432630778660254
30
0
10
10.079600200777996
20
0.88895010870009283
30
0
0
SPLINE
5
366
100
AcDbEntity
8
0
100
AcDbSpline
70
4
71
3
72
8
73
4
74
0
42
0.000000001
43
0.0000000001
44
0.0000000001
40
-1
40
-1
40
-1
40
-1
40
0
40
0
40
0
40
0
41
1
41
1
41
1
41
1
10
10.079600200777996
20
0.88895010870009283
30
0
10
10.203565098569541
20
0.95357390961358757
30
0
10
10.554427887723591
20
1.1900743317734186
30
0
10
10.859294614916788
20
1.4145034623276143
30
0
0
SPLINE
5
367
100
AcDbEntity
8
0
100
AcDbSpline
70
4
71
3
72
8
73
4
74
0
42
0.000000001
43
0.0000000001
44
0.0000000001
40
-1
40
-1
40
-1
40
-1
40
0
40
0
40
0
40
0
41
1
41
1
41
1
41
1
10
10.859294614916788
20
1.4145034623276143
30
0
10
11.164161342109985
20
1.6389325928818144
30
0
10
11.451898139442749
20
1.7988913369308879
30
0
10
11.498701645658166
20
1.7699606092901021
30
0
0
SPLINE
5
368
100
AcDbEntity
8
0
100
AcDbSpline
70
4
71
3
72
8
73
4
74
0
42
0.000000001
43
0.0000000001
44
0.0000000001
40
-1
40
-1
40
-1
40
-1
40
0
40
0
40
0
40
0
41
1
41
1
41
1
41
1
10
11.498701645658166
20
1.7699606092901021
30
0
10
11.616305901334432
20
1.6972785147161273
30
0
10
11.860993808235474
20
1.0928095968694462
30
0
10
11.860993808235474
20
0.87496113698988687
30
0
0
SPLINE
5
369
100
AcDbEntity
8
0
100
AcDbSpline
70
4
71
3
72
8
73
4
74
0
42
0.000000001
43
0.0000000001
44
0.0000000001
40
-1
40
-1
40
-1
40
-1
40
0
40
0
40
0
40
0
41
1
41
1
41
1
41
1
10
11.860993808235474
20
0.87496113698988687
30
0
10
11.860993808235474
20
0.60898899953871766
30
0
10
11.519989913429566
20
-0.01006236154526885
30
0
10
11.28143858286316
20
-0.17715083836208123
30
0
0
SPLINE
5
370
100
AcDbEntity
8
0
100
AcDbSpline
70
4
71
3
72
8
73
4
74
0
42
0.000000001
43
0.0000000001
44
0.0000000001
40
-1
40
-1
40
-1
40
-1
40
0
40
0
40
0
40
0
41
1
41
1
41
1
41
1
10
11.569171342974652
20
-0.93613632598211538
30
0
10
12.020274299110717
20
-0.70285760639797079
30
0
10
12.566151024625448
20
0.3363070003321722
30
0
10
12.797366724139202
20
1.4019436669479779
30
0
0
SPLINE
5
371
100
AcDbEntity
8
0
100
AcDbSpline
70
4
71
3
72
8
73
4
74
0
42
0.000000001
43
0.0000000001
44
0.0000000001
40
-1
40
-1
40
-1
40
-1
40
0
40
0
40
0
40
0
41
1
41
1
41
1
41
1
10
12.797366724139202
20
1.4019436669479779
30
0
10
12.852882553861287
20
1.657794490668274
30
0
10
12.960720771278687
20
1.9361043763290819
30
0
10
13.037012141670532
20
2.0204055937261334
30
0
0
SPLINE
5
372
100
AcDbEntity
8
0
100
AcDbSpline
70
4
71
3
72
8
73
4
74
0
42
0.000000001
43
0.0000000001
44
0.0000000001
40
-1
40
-1
40
-1
40
-1
40
0
40
0
40
0
40
0
41
1
41
1
41
1
41
1
10
13.037012141670532
20
2.0204055937261334
30
0
10
13.113303512062377
20
2.1047027739019164
30
0
10
13.200426747129107
20
2.325898090216616
30
0
10
13.230617087807008
20
2.511941320909159
30
0
0
SPLINE
5
373
100
AcDbEntity
8
0
100
AcDbSpline
70
4
71
3
72
8
73
4
74
0
42
0.000000001
43
0.0000000001
44
0.0000000001
40
-1
40
-1
40
-1
40
-1
40
0
40
0
40
0
40
0
41
1
41
1
41
1
41
1
10
13.230617087807008
20
2.511941320909159
30
0
10
13.281486075844118
20
2.8254113666346647
30
0
10
13.268352995043742
20
2.8502039424708459
30
0
10
13.051376574959107
20
2.8502039424708459
30
0
0
SPLINE
5
374
100
AcDbEntity
8
0
100
AcDbSpline
70
4
71
3
72
8
73
4
74
0
42
0.000000001
43
0.0000000001
44
0.0000000001
40
-1
40
-1
40
-1
40
-1
40
0
40
0
40
0
40
0
41
1
41
1
41
1
41
1
10
13.051376574959107
20
2.8502039424708459
30
0
10
12.92260536524231
20
2.8502039424708459
30
0
10
12.769639088437703
20
2.7928431026270939
30
0
10
12.71145061823303
20
2.7227327180038863
30
0
0
SPLINE
5
375
100
AcDbEntity
8
0
100
AcDbSpline
70
4
71
3
72
8
73
4
74
0
42
0.000000001
43
0.0000000001
44
0.0000000001
40
-1
40
-1
40
-1
40
-1
40
0
40
0
40
0
40
0
41
1
41
1
41
1
41
1
10
12.71145061823303
20
2.7227327180038863
30
0
10
12.634392175799359
20
2.6298685542872535
30
0
10
12.434808104957886
20
2.6063396287094509
30
0
10
11.976644048815714
20
2.6360616517197055
30
0
0
LINE
5
376
100
AcDbEntity
8
0
100
AcDbLine
10
11.976644048815714
20
2.6360616517197055
30
0
11
11.347628825630494
21
2.6768618099024861
31
0
0
LINE
5
377
100
AcDbEntity
8
0
100
AcDbLine
10
11.347628825630494
20
2.6768618099024861
30
0
11
10.523714726890869
21
2.110128799292541
31
0
0
SPLINE
5
378
100
AcDbEntity
8
0
100
AcDbSpline
70
4
71
3
72
8
73
4
74
0
42
0.000000001
43
0.0000000001
44
0.0000000001
40
-1
40
-1
40
-1
40
-1
40
0
40
0
40
0
40
0
41
1
41
1
41
1
41
1
10
10.523714726890869
20
2.110128799292541
30
0
10
9.6057293352740469
20
1.4786912433436461
30
0
10
9.3404717859881572
20
1.3777889720728975
30
0
10
9.0028732873258477
20
1.5316071025660616
30
0
0
SPLINE
5
379
100
AcDbEntity
8
0
100
AcDbSpline
70
4
71
3
72
8
73
4
74
0
42
0.000000001
43
0.0000000001
44
0.0000000001
40
-1
40
-1
40
-1
40
-1
40
0
40
0
40
0
40
0
41
1
41
1
41
1
41
1
10
9.0028732873258477
20
1.5316071025660616
30
0
10
8.6114162382739288
20
1.7099675011764948
30
0
10
8.4074437079089357
20
1.666062719834942
30
0
10
8.4074437079089357
20
1.4034455132614543
30
0
0
SPLINE
5
380
100
AcDbEntity
8
0
100
AcDbSpline
70
4
71
3
72
8
73
4
74
0
42
0.000000001
43
0.0000000001
44
0.0000000001
40
-1
40
-1
40
-1
40
-1
40
0
40
0
40
0
40
0
41
1
41
1
41
1
41
1
10
8.4074437079089357
20
1.4034455132614543
30
0
10
8.4074437079089357
20
1.1745068065455522
30
0
10
8.694974606956789
20
0.7967399748296522
30
0
10
8.8692291515327959
20
0.7967399748296522
30
0
0
SPLINE
5
381
100
AcDbEntity
8
0
100
AcDbSpline
70
4
71
3
72
8
73
4
74
0
42
0.000000001
43
0.0000000001
44
0.0000000001
40
-1
40
-1
40
-1
40
-1
40
0
40
0
40
0
40
0
41
1
41
1
41
1
41
1
10
8.8692291515327959
20
0.7967399748296522
30
0
10
8.917861518984779
20
0.7967399748296522
30
0
10
9.0654623287178548
20
0.58210514308322914
30
0
10
9.1972251193977872
20
0.31976650477756774
30
0
0
SPLINE
5
382
100
AcDbEntity
8
0
100
AcDbSpline
70
4
71
3
72
8
73
4
74
0
42
0.000000001
43
0.0000000001
44
0.0000000001
40
-1
40
-1
40
-1
40
-1
40
0
40
0
40
0
40
0
41
1
41
1
41
1
41
1
10
9.1972251193977872
20
0.31976650477756774
30
0
10
9.519324725593874
20
-0.32151783385565125
30
0
10
9.7557302730537909
20
-0.609706799970966
30
0
10
10.164636192446697
20
-0.859550238437361
30
0
0
SPLINE
5
383
100
AcDbEntity
8
0
100
AcDbSpline
70
4
71
3
72
8
73
4
74
0
42
0.000000001
43
0.0000000001
44
0.0000000001
40
-1
40
-1
40
-1
40
-1
40
0
40
0
40
0
40
0
41
1
41
1
41
1
41
1
10
10.164636192446697
20
-0.859550238437361
30
0
10
10.563677161659548
20
-1.1033539938796633
30
0
10
11.180734135434776
20
-1.137004233188339
30
0
10
11.569171342974652
20
-0.93613632598211538
30
0
0
SPLINE
5
384
100
AcDbEntity
8
0
100
AcDbSpline
70
4
71
3
72
8
73
4
74
0
42
0.000000001
43
0.0000000001
44
0.0000000001
40
-1
40
-1
40
-1
40
-1
40
0
40
0
40
0
40
0
41
1
41
1
41
1
41
1
10
11.583866828407592
20
3.2235540541143193
30
0
10
11.844832811480508
20
3.2235540541143193
30
0
10
11.94999435119405
20
3.2744028560450644
30
0
10
12.041102323657022
20
3.4446363282333792
30
0
0
SPLINE
5
385
100
AcDbEntity
8
0
100
AcDbSpline
70
4
71
3
72
8
73
4
74
0
42
0.000000001
43
0.0000000001
44
0.0000000001
40
-1
40
-1
40
-1
40
-1
40
0
40
0
40
0
40
0
41
1
41
1
41
1
41
1
10
12.041102323657022
20
3.4446363282333792
30
0
10
12.307857682035115
20
3.9430757037928688
30
0
10
11.990846993253378
20
4.1825555952520155
30
0
10
11.346005862678833
20
3.9697375130783508
30
0
0
SPLINE
5
386
100
AcDbEntity
8
0
100
AcDbSpline
70
4
71
3
72
8
73
4
74
0
42
0.000000001
43
0.0000000001
44
0.0000000001
40
-1
40
-1
40
-1
40
-1
40
0
40
0
40
0
40
0
41
1
41
1
41
1
41
1
10
11.346005862678833
20
3.9697375130783508
30
0
10
11.002135540769249
20
3.8562512231003199
30
0
10
10.904091622159626
20
3.5644206833969516
30
0
10
11.132945547228799
20
3.3355667583277793
30
0
0
SPLINE
5
387
100
AcDbEntity
8
0
100
AcDbSpline
70
4
71
3
72
8
73
4
74
0
42
0.000000001
43
0.0000000001
44
0.0000000001
40
-1
40
-1
40
-1
40
-1
40
0
40
0
40
0
40
0
41
1
41
1
41
1
41
1
10
11.132945547228799
20
3.3355667583277793
30
0
10
11.194549506630249
20
3.2739587617050558
30
0
10
11.397464285021769
20
3.2235540541143193
30
0
10
11.583866828407592
20
3.2235540541143193
30
0
0
SPLINE
5
388
100
AcDbEntity
8
0
100
AcDbSpline
70
4
71
3
72
8
73
4
74
0
42
0.000000001
43
0.0000000001
44
0.0000000001
40
-1
40
-1
40
-1
40
-1
40
0
40
0
40
0
40
0
41
1
41
1
41
1
41
1
10
12.981060292050985
20
6.4800877563288806
30
0
10
12.981056254829713
20
6.3831015896927301
30
0
10
12.936913277433067
20
6.3037479869654733
30
0
10
12.882955815122275
20
6.3037479869654733
30
0
0
SPLINE
5
389
100
AcDbEntity
8
0
100
AcDbSpline
70
4
71
3
72
8
73
4
74
0
42
0.000000001
43
0.0000000001
44
0.0000000001
40
-1
40
-1
40
-1
40
-1
40
0
40
0
40
0
40
0
41
1
41
1
41
1
41
1
10
12.882955815122275
20
6.3037479869654733
30
0
10
12.762795998380332
20
6.3037479869654733
30
0
10
12.479778712715452
20
6.953750704937276
30
0
10
12.563599500781049
20
7.0372162175308661
30
0
0
SPLINE
5
390
100
AcDbEntity
8
0
100
AcDbSpline
70
4
71
3
72
8
73
4
74
0
42
0.000000001
43
0.0000000001
44
0.0000000001
40
-1
40
-1
40
-1
40
-1
40
0
40
0
40
0
40
0
41
1
41
1
41
1
41
1
10
12.563599500781049
20
7.0372162175308661
30
0
10
12.651921790565797
20
7.1251569899053369
30
0
10
12.981060292050985
20
6.6858972223729873
30
0
10
12.981060292050985
20
6.4800877563288806
30
0
0
SPLINE
5
391
100
AcDbEntity
8
0
100
AcDbSpline
70
4
71
3
72
8
73
4
74
0
42
0.000000001
43
0.0000000001
44
0.0000000001
40
-1
40
-1
40
-1
40
-1
40
0
40
0
40
0
40
0
41
1
41
1
41
1
41
1
10
13.265728801216433
20
3.8769339076808063
30
0
10
13.847875922645873
20
3.8769339076808063
30
0
10
13.914453738655395
20
3.9950347415736287
30
0
10
13.914453738655395
20
5.0277034592758607
30
0
0
SPLINE
5
392
100
AcDbEntity
8
0
100
AcDbSpline
70
4
71
3
72
8
73
4
74
0
42
0.000000001
43
0.0000000001
44
0.0000000001
40
-1
40
-1
40
-1
40
-1
40
0
40
0
40
0
40
0
41
1
41
1
41
1
41
1
10
13.914453738655395
20
5.0277034592758607
30
0
10
13.914453738655395
20
6.4178398601344222
30
0
10
13.393902502184858
20
7.6354395540685438
30
0
10
12.747765423581745
20
7.75665510417332
30
0
0
SPLINE
5
393
100
AcDbEntity
8
0
100
AcDbSpline
70
4
71
3
72
8
73
4
74
0
42
0.000000001
43
0.0000000001
44
0.0000000001
40
-1
40
-1
40
-1
40
-1
40
0
40
0
40
0
40
0
41
1
41
1
41
1
41
1
10
12.747765423581745
20
7.75665510417332
30
0
10
11.966821489459027
20
7.9031618269414672
30
0
10
11.812631934608767
20
7.6857110333572809
30
0
10
11.816866979723919
20
6.4437588207057095
30
0
0
SPLINE
5
394
100
AcDbEntity
8
0
100
AcDbSpline
70
4
71
3
72
8
73
4
74
0
42
0.000000001
43
0.0000000001
44
0.0000000001
40
-1
40
-1
40
-1
40
-1
40
0
40
0
40
0
40
0
41
1
41
1
41
1
41
1
10
11.816866979723919
20
6.4437588207057095
30
0
10
11.820452032214153
20
5.3902600598465389
30
0
10
11.988230873868613
20
4.8107956719528611
30
0
10
12.437424224342649
20
4.3004828286301056
30
0
0
SPLINE
5
395
100
AcDbEntity
8
0
100
AcDbSpline
70
4
71
3
72
8
73
4
74
0
42
0.000000001
43
0.0000000001
44
0.0000000001
40
-1
40
-1
40
-1
40
-1
40
0
40
0
40
0
40
0
41
1
41
1
41
1
41
1
10
12.437424224342649
20
4.3004828286301056
30
0
10
12.783983335619915
20
3.9067730101079734
30
0
10
12.842341369118042
20
3.8769339076808063
30
0
10
13.265728801216433
20
3.8769339076808063
30
0
0
LWPOLYLINE
5
396
100
AcDbEntity
8
0
100
AcDbPolyline
90
8
70
1
43
0.0
10
-7.0912547358069062
20
-8.0155486949308337
42
0.39342646008747972
10
-4.3733405668804375
20
-8.2192985209961638
42
-0.35082988103369195
10
4.3733405668804375
20
-8.2192985209961602
42
0.39342646008747967
10
7.0912547358069045
20
-8.0155486949308354
42
-0.45861202855152039
10
14.664806964496393
20
-8.2845694080185126
42
0.5650239788083784
10
18.060822820097421
20
-7.8298086861077394
42
1.5234526665911512
10
-18.060822820097421
20
-7.8298086861077376
42
0.56502397880837796
10
-14.664806964496398
20
-8.2845694080185126
42
-0.45861202855152039
0
CIRCLE
5
397
100
AcDbEntity
8
0
100
AcDbCircle
10
-7.6245580763737788
20
-16.799570721358347
30
0
40
1.2361663706911485
210
0
220
0
230
1
0
CIRCLE
5
398
100
AcDbEntity
8
0
100
AcDbCircle
10
-10.762225485084318
20
-11.410246605932821
30
0
40
4
210
0
220
0
230
1
0
CIRCLE
5
399
100
AcDbEntity
8
0
100
AcDbCircle
10
10.762225485084315
20
-11.410246605932821
30
0
40
3.9999999999999991
210
0
220
0
230
1
0
CIRCLE
5
400
100
AcDbEntity
8
0
100
AcDbCircle
10
1.2490009027033011e-15
20
-13.684999985098843
30
0
40
6.0000000000000009
210
0
220
0
230
1
0
CIRCLE
5
401
100
AcDbEntity
8
0
100
AcDbCircle
10
7.6245580763737788
20
-16.799570721358347
30
0
40
1.2361663706911474
210
0
220
0
230
1
0
CIRCLE
5
402
100
AcDbEntity
8
0
100
AcDbCircle
10
0
20
-1.1102230246251565e-15
30
0
40
20.284999999999997
210
0
220
0
230
1
0
SPLINE
5
403
100
AcDbEntity
8
0
100
AcDbSpline
70
4
71
3
72
8
73
4
74
0
42
0.000000001
43
0.0000000001
44
0.0000000001
40
-1
40
-1
40
-1
40
-1
40
0
40
0
40
0
40
0
41
1
41
1
41
1
41
1
10
11.154154878318119
20
-12.544838047252703
30
0
10
11.054433109249048
20
-12.638523569210612
30
0
10
10.951607062052231
20
-12.675528880038808
30
0
10
10.806192616397983
20
-12.670060212917495
30
0
0
SPLINE
5
404
100
AcDbEntity
8
0
100
AcDbSpline
70
4
71
3
72
8
73
4
74
0
42
0.000000001
43
0.0000000001
44
0.0000000001
40
-1
40
-1
40
-1
40
-1
40
0
40
0
40
0
40
0
41
1
41
1
41
1
41
1
10
10.806192616397983
20
-12.670060212917495
30
0
10
10.414742420881126
20
-12.655342027109015
30
0
10
10.219001041943708
20
-12.842036497586719
30
0
10
10.216286155346843
20
-13.232699769452317
30
0
0
SPLINE
5
405
100
AcDbEntity
8
0
100
AcDbSpline
70
4
71
3
72
8
73
4
74
0
42
0.000000001
43
0.0000000001
44
0.0000000001
40
-1
40
-1
40
-1
40
-1
40
0
40
0
40
0
40
0
41
1
41
1
41
1
41
1
10
10.216286155346843
20
-13.232699769452317
30
0
10
10.214351860831638
20
-13.511015670195764
30
0
10
10.072086466547363
20
-13.708841040044121
30
0
10
9.8445818641620946
20
-13.749565695761973
30
0
0
SPLINE
5
406
100
AcDbEntity
8
0
100
AcDbSpline
70
4
71
3
72
8
73
4
74
0
42
0.000000001
43
0.0000000001
44
0.0000000001
40
-1
40
-1
40
-1
40
-1
40
0
40
0
40
0
40
0
41
1
41
1
41
1
41
1
10
9.8445818641620946
20
-13.749565695761973
30
0
10
9.7624157285957764
20
-13.764273027451125
30
0
10
9.7256975996747901
20
-13.822742359250025
30
0
10
9.7125320051851567
20
-13.959837122439524
30
0
0
SPLINE
5
407
100
AcDbEntity
8
0
100
AcDbSpline
70
4
71
3
72
8
73
4
74
0
42
0.000000001
43
0.0000000001
44
0.0000000001
40
-1
40
-1
40
-1
40
-1
40
0
40
0
40
0
40
0
41
1
41
1
41
1
41
1
10
9.7125320051851567
20
-13.959837122439524
30
0
10
9.7025018944163381
20
-14.064280885671149
30
0
10
9.7081003587146153
20
-14.185709536630874
30
0
10
9.7249726349546872
20
-14.229677765007857
30
0
0
SPLINE
5
408
100
AcDbEntity
8
0
100
AcDbSpline
70
4
71
3
72
8
73
4
74
0
42
0.000000001
43
0.0000000001
44
0.0000000001
40
-1
40
-1
40
-1
40
-1
40
0
40
0
40
0
40
0
41
1
41
1
41
1
41
1
10
9.7249726349546872
20
-14.229677765007857
30
0
10
9.749931682348933
20
-14.294721075079625
30
0
10
9.9722945979576352
20
-14.309621971896785
30
0
10
10.917938036152409
20
-14.309621971896785
30
0
0
SPLINE
5
409
100
AcDbEntity
8
0
100
AcDbSpline
70
4
71
3
72
8
73
4
74
0
42
0.000000001
43
0.0000000001
44
0.0000000001
40
-1
40
-1
40
-1
40
-1
40
0
40
0
40
0
40
0
41
1
41
1
41
1
41
1
10
10.917938036152409
20
-14.309621971896785
30
0
10
11.927901176463756
20
-14.309621971896785
30
0
10
12.084777119873172
20
-14.297762037511287
30
0
10
12.11495157160442
20
-14.219125752001357
30
0
0
SPLINE
5
410
100
AcDbEntity
8
0
100
AcDbSpline
70
4
71
3
72
8
73
4
74
0
42
0.000000001
43
0.0000000001
44
0.0000000001
40
-1
40
-1
40
-1
40
-1
40
0
40
0
40
0
40
0
41
1
41
1
41
1
41
1
10
12.11495157160442
20
-14.219125752001357
30
0
10
12.134051655836517
20
-14.1693523788039
30
0
10
12.134970637939604
20
-14.104831875479768
30
0
10
12.116994407312902
20
-14.075746453721067
30
0
0
SPLINE
5
411
100
AcDbEntity
8
0
100
AcDbSpline
70
4
71
3
72
8
73
4
74
0
42
0.000000001
43
0.0000000001
44
0.0000000001
40
-1
40
-1
40
-1
40
-1
40
0
40
0
40
0
40
0
41
1
41
1
41
1
41
1
10
12.116994407312902
20
-14.075746453721067
30
0
10
12.060033345845593
20
-13.983582317488942
30
0
10
12.210497670517093
20
-13.628451814262753
30
0
10
12.33466291631234
20
-13.562001086718155
30
0
0
SPLINE
5
412
100
AcDbEntity
8
0
100
AcDbSpline
70
4
71
3
72
8
73
4
74
0
42
0.000000001
43
0.0000000001
44
0.0000000001
40
-1
40
-1
40
-1
40
-1
40
0
40
0
40
0
40
0
41
1
41
1
41
1
41
1
10
12.33466291631234
20
-13.562001086718155
30
0
10
12.400295966867578
20
-13.52687715657343
30
0
10
12.595552528475025
20
-13.499408998594586
30
0
10
12.768566286050003
20
-13.500962946678342
30
0
0
SPLINE
5
413
100
AcDbEntity
8
0
100
AcDbSpline
70
4
71
3
72
8
73
4
74
0
42
0.000000001
43
0.0000000001
44
0.0000000001
40
-1
40
-1
40
-1
40
-1
40
0
40
0
40
0
40
0
41
1
41
1
41
1
41
1
10
12.768566286050003
20
-13.500962946678342
30
0
10
13.103334461417269
20
-13.503971346752031
30
0
10
13.364841853871694
20
-13.405377953838077
30
0
10
13.422817323241178
20
-13.254295848874836
30
0
0
SPLINE
5
414
100
AcDbEntity
8
0
100
AcDbSpline
70
4
71
3
72
8
73
4
74
0
42
0.000000001
43
0.0000000001
44
0.0000000001
40
-1
40
-1
40
-1
40
-1
40
0
40
0
40
0
40
0
41
1
41
1
41
1
41
1
10
13.422817323241178
20
-13.254295848874836
30
0
10
13.44225885997713
20
-13.203630628872617
30
0
10
13.458166476361948
20
-12.813810360274815
30
0
10
13.458166476361948
20
-12.388030394344053
30
0
0
SPLINE
5
415
100
AcDbEntity
8
0
100
AcDbSpline
70
4
71
3
72
8
73
4
74
0
42
0.000000001
43
0.0000000001
44
0.0000000001
40
-1
40
-1
40
-1
40
-1
40
0
40
0
40
0
40
0
41
1
41
1
41
1
41
1
10
13.458166476361948
20
-12.388030394344053
30
0
10
13.458166476361948
20
-11.322550242690962
30
0
10
13.486828587466857
20
-11.350465228582149
30
0
10
12.392883507876642
20
-11.350465228582149
30
0
0
SPLINE
5
416
100
AcDbEntity
8
0
100
AcDbSpline
70
4
71
3
72
8
73
4
74
0
42
0.000000001
43
0.0000000001
44
0.0000000001
40
-1
40
-1
40
-1
40
-1
40
0
40
0
40
0
40
0
41
1
41
1
41
1
41
1
10
12.392883507876642
20
-11.350465228582149
30
0
10
11.600460888407662
20
-11.350465228582149
30
0
10
11.57073055105891
20
-11.354803258273488
30
0
10
11.435387371375933
20
-11.490146890211438
30
0
0
SPLINE
5
417
100
AcDbEntity
8
0
100
AcDbSpline
70
4
71
3
72
8
73
4
74
0
42
0.000000001
43
0.0000000001
44
0.0000000001
40
-1
40
-1
40
-1
40
-1
40
0
40
0
40
0
40
0
41
1
41
1
41
1
41
1
10
11.435387371375933
20
-11.490146890211438
30
0
10
11.314189370451921
20
-11.611343986625503
30
0
10
11.295706614256586
20
-11.68156471161662
30
0
10
11.295706614256586
20
-12.020840964544689
30
0
0
SPLINE
5
418
100
AcDbEntity
8
0
100
AcDbSpline
70
4
71
3
72
8
73
4
74
0
42
0.000000001
43
0.0000000001
44
0.0000000001
40
-1
40
-1
40
-1
40
-1
40
0
40
0
40
0
40
0
41
1
41
1
41
1
41
1
10
11.295706614256586
20
-12.020840964544689
30
0
10
11.295706614256586
20
-12.363820281183425
30
0
10
11.278316506073587
20
-12.428194253896642
30
0
10
11.154154878318119
20
-12.544838047252703
30
0
0
SPLINE
5
419
100
AcDbEntity
8
0
100
AcDbSpline
70
4
71
3
72
8
73
4
74
0
42
0.000000001
43
0.0000000001
44
0.0000000001
40
-1
40
-1
40
-1
40
-1
40
0
40
0
40
0
40
0
41
1
41
1
41
1
41
1
10
10.839637323831699
20
-11.406933784384957
30
0
10
10.780461569766548
20
-11.375265082226246
30
0
10
10.259441681539151
20
-11.350463419562256
30
0
10
9.6532811767946551
20
-11.350463419562256
30
0
0
LINE
5
420
100
AcDbEntity
8
0
100
AcDbLine
10
9.6532811767946551
20
-11.350463419562253
30
0
11
8.5724401850178893
21
-11.350463419562256
31
0
0
LINE
5
421
100
AcDbEntity
8
0
100
AcDbLine
10
8.5724401850178893
20
-11.350463419562256
30
0
11
8.4544961586173528
21
-11.50040584199607
31
0
0
SPLINE
5
422
100
AcDbEntity
8
0
100
AcDbSpline
70
4
71
3
72
8
73
4
74
0
42
0.000000001
43
0.0000000001
44
0.0000000001
40
-1
40
-1
40
-1
40
-1
40
0
40
0
40
0
40
0
41
1
41
1
41
1
41
1
10
8.4544961586173528
20
-11.500405841996081
30
0
10
8.3486739222310966
20
-11.634937224004339
30
0
10
8.3365521322168163
20
-11.72772909013759
30
0
10
8.3365521322168163
20
-12.403242442581956
30
0
0
SPLINE
5
423
100
AcDbEntity
8
0
100
AcDbSpline
70
4
71
3
72
8
73
4
74
0
42
0.000000001
43
0.0000000001
44
0.0000000001
40
-1
40
-1
40
-1
40
-1
40
0
40
0
40
0
40
0
41
1
41
1
41
1
41
1
10
8.3365521322168163
20
-12.403242442581956
30
0
10
8.3365521322168163
20
-13.078755795026321
30
0
10
8.3486739222310966
20
-13.17154585213968
30
0
10
8.4544961586173528
20
-13.306077234147931
30
0
0
SPLINE
5
424
100
AcDbEntity
8
0
100
AcDbSpline
70
4
71
3
72
8
73
4
74
0
42
0.000000001
43
0.0000000001
44
0.0000000001
40
-0.99999506012719974
40
-0.99999506012719974
40
-0.99999506012719974
40
-0.99999506012719974
40
0
40
0
40
0
40
0
41
1
41
1
41
1
41
1
10
8.4544980564363836
20
-13.306075741326755
30
0
10
8.5672996891279602
20
-13.44948011426051
30
0
10
8.596287008446426
20
-13.456016038541975
30
0
10
9.1194841810985654
20
-13.456016038541975
30
0
0
SPLINE
5
425
100
AcDbEntity
8
0
100
AcDbSpline
70
4
71
3
72
8
73
4
74
0
42
0.000000001
43
0.0000000001
44
0.0000000001
40
-1
40
-1
40
-1
40
-1
40
0
40
0
40
0
40
0
41
1
41
1
41
1
41
1
10
9.1194841810985654
20
-13.456016038541975
30
0
10
9.6028258030994369
20
-13.456016038541975
30
0
10
9.6818650477894082
20
-13.441607195134345
30
0
10
9.7982361313973616
20
-13.332282696244985
30
0
0
SPLINE
5
426
100
AcDbEntity
8
0
100
AcDbSpline
70
4
71
3
72
8
73
4
74
0
42
0.000000001
43
0.0000000001
44
0.0000000001
40
-1
40
-1
40
-1
40
-1
40
0
40
0
40
0
40
0
41
1
41
1
41
1
41
1
10
9.7982361313973616
20
-13.332282696244985
30
0
10
9.8960267717360288
20
-13.240413430254602
30
0
10
9.9299440856154746
20
-13.1459753560233
30
0
10
9.9299440856154746
20
-12.965561802596607
30
0
0
SPLINE
5
427
100
AcDbEntity
8
0
100
AcDbSpline
70
4
71
3
72
8
73
4
74
0
42
0.000000001
43
0.0000000001
44
0.0000000001
40
-1
40
-1
40
-1
40
-1
40
0
40
0
40
0
40
0
41
1
41
1
41
1
41
1
10
9.9299440856154746
20
-12.965561802596607
30
0
10
9.9299440856154746
20
-12.602361261650202
30
0
10
10.10606302582814
20
-12.424950681237522
30
0
10
10.502360942389771
20
-12.388949376447144
30
0
0
SPLINE
5
428
100
AcDbEntity
8
0
100
AcDbSpline
70
4
71
3
72
8
73
4
74
0
42
0.000000001
43
0.0000000001
44
0.0000000001
40
-1
40
-1
40
-1
40
-1
40
0
40
0
40
0
40
0
41
1
41
1
41
1
41
1
10
10.502360942389771
20
-12.388949376447144
30
0
10
10.852644629081137
20
-12.357128716617844
30
0
10
10.988538203065026
20
-12.265955923284327
30
0
10
11.040879932248417
20
-12.027642879323434
30
0
0
SPLINE
5
429
100
AcDbEntity
8
0
100
AcDbSpline
70
4
71
3
72
8
73
4
74
0
42
0.000000001
43
0.0000000001
44
0.0000000001
40
-1
40
-1
40
-1
40
-1
40
0
40
0
40
0
40
0
41
1
41
1
41
1
41
1
10
11.040879932248417
20
-12.027642879323434
30
0
10
11.086782907395571
20
-11.818646811666905
30
0
10
10.977161276989618
20
-11.480535567546685
30
0
10
10.839637323831699
20
-11.406933784384957
30
0
0
SPLINE
5
430
100
AcDbEntity
8
0
100
AcDbSpline
70
4
71
3
72
8
73
4
74
0
42
0.000000001
43
0.0000000001
44
0.0000000001
40
-1
40
-1
40
-1
40
-1
40
0
40
0
40
0
40
0
41
1
41
1
41
1
41
1
10
8.9056200409235196
20
-11.065929917463876
30
0
10
9.2935164168704691
20
-11.065929917463876
30
0
10
9.3651409412946478
20
-11.050477269580888
30
0
10
9.4157794782535191
20
-10.955858293360791
30
0
0
SPLINE
5
431
100
AcDbEntity
8
0
100
AcDbSpline
70
4
71
3
72
8
73
4
74
0
42
0.000000001
43
0.0000000001
44
0.0000000001
40
-1
40
-1
40
-1
40
-1
40
0
40
0
40
0
40
0
41
1
41
1
41
1
41
1
10
9.4157794782535191
20
-10.955858293360791
30
0
10
9.4488809241634932
20
-10.894007903391291
30
0
10
9.4746884018851958
20
-10.471607186611248
30
0
10
9.4746884018851958
20
-9.991669687784551
30
0
0
SPLINE
5
432
100
AcDbEntity
8
0
100
AcDbSpline
70
4
71
3
72
8
73
4
74
0
42
0.000000001
43
0.0000000001
44
0.0000000001
40
-1
40
-1
40
-1
40
-1
40
0
40
0
40
0
40
0
41
1
41
1
41
1
41
1
10
9.4746884018851958
20
-9.991669687784551
30
0
10
9.4746884018851958
20
-8.9900171848385177
30
0
10
9.4583330530781069
20
-8.9603772984841612
30
0
10
8.9056200409235196
20
-8.9603772984841612
30
0
0
SPLINE
5
433
100
AcDbEntity
8
0
100
AcDbSpline
70
4
71
3
72
8
73
4
74
0
42
0.000000001
43
0.0000000001
44
0.0000000001
40
-1
40
-1
40
-1
40
-1
40
0
40
0
40
0
40
0
41
1
41
1
41
1
41
1
10
8.9056200409235196
20
-8.9603772984841612
30
0
10
8.3529068026414457
20
-8.9603772984841612
30
0
10
8.3365514538343568
20
-8.9900171848385177
30
0
10
8.3365514538343568
20
-9.991669687784551
30
0
0
SPLINE
5
434
100
AcDbEntity
8
0
100
AcDbSpline
70
4
71
3
72
8
73
4
74
0
42
0.000000001
43
0.0000000001
44
0.0000000001
40
-1
40
-1
40
-1
40
-1
40
0
40
0
40
0
40
0
41
1
41
1
41
1
41
1
10
8.3365514538343568
20
-9.991669687784551
30
0
10
8.3365514538343568
20
-10.471607186611248
30
0
10
8.3623587054285746
20
-10.894007903391291
30
0
10
8.39546060359352
20
-10.955858293360791
30
0
0
SPLINE
5
435
100
AcDbEntity
8
0
100
AcDbSpline
70
4
71
3
72
8
73
4
74
0
42
0.000000001
43
0.0000000001
44
0.0000000001
40
-1
40
-1
40
-1
40
-1
40
0
40
0
40
0
40
0
41
1
41
1
41
1
41
1
10
8.39546060359352
20
-10.955858293360791
30
0
10
8.4460991405523913
20
-11.050477269580888
30
0
10
8.5177236649765717
20
-11.065929917463876
30
0
10
8.9056200409235196
20
-11.065929917463876
30
0
0
SPLINE
5
436
100
AcDbEntity
8
0
100
AcDbSpline
70
4
71
3
72
8
73
4
74
0
42
0.000000001
43
0.0000000001
44
0.0000000001
40
-1
40
-1
40
-1
40
-1
40
0
40
0
40
0
40
0
41
1
41
1
41
1
41
1
10
9.6917667181461837
20
-8.90347005535852
30
0
10
9.6172984144581264
20
-9.2456877746244217
30
0
10
9.6790352884296631
20
-10.959275531929155
30
0
10
9.7678613307135205
20
-11.015566803782949
30
0
0
SPLINE
5
437
100
AcDbEntity
8
0
100
AcDbSpline
70
4
71
3
72
8
73
4
74
0
42
0.000000001
43
0.0000000001
44
0.0000000001
40
-1
40
-1
40
-1
40
-1
40
0
40
0
40
0
40
0
41
1
41
1
41
1
41
1
10
9.7678613307135205
20
-11.015566803782949
30
0
10
9.8860314846000534
20
-11.090454800085009
30
0
10
10.636646749948234
20
-11.076252184944607
30
0
10
10.715257709179728
20
-10.997641225713103
30
0
0
SPLINE
5
438
100
AcDbEntity
8
0
100
AcDbSpline
70
4
71
3
72
8
73
4
74
0
42
0.000000001
43
0.0000000001
44
0.0000000001
40
-1
40
-1
40
-1
40
-1
40
0
40
0
40
0
40
0
41
1
41
1
41
1
41
1
10
10.715257709179728
20
-10.997641225713103
30
0
10
10.821383408652192
20
-10.891516883005558
30
0
10
10.810713809352979
20
-8.826139882207702
30
0
10
10.70358048580292
20
-8.7372265547142458
30
0
0
SPLINE
5
439
100
AcDbEntity
8
0
100
AcDbSpline
70
4
71
3
72
8
73
4
74
0
42
0.000000001
43
0.0000000001
44
0.0000000001
40
-1
40
-1
40
-1
40
-1
40
0
40
0
40
0
40
0
41
1
41
1
41
1
41
1
10
10.70358048580292
20
-8.7372265547142458
30
0
10
10.653447117647758
20
-8.6956209063109533
30
0
10
10.457877143344723
20
-8.6770983516780831
30
0
10
10.179361345903658
20
-8.6875789083990043
30
0
0
LINE
5
440
100
AcDbEntity
8
0
100
AcDbLine
10
10.179361345903658
20
-8.6875789083990043
30
0
11
9.7351081211319812
21
-8.7042960611836904
31
0
0
LINE
5
441
100
AcDbEntity
8
0
100
AcDbLine
10
9.7351081211319812
20
-8.7042960611836904
30
0
11
9.6917667181461837
21
-8.90347005535852
31
0
0
SPLINE
5
442
100
AcDbEntity
8
0
100
AcDbSpline
70
4
71
3
72
8
73
4
74
0
42
0.000000001
43
0.0000000001
44
0.0000000001
40
-1
40
-1
40
-1
40
-1
40
0
40
0
40
0
40
0
41
1
41
1
41
1
41
1
10
11.0666715810461
20
-10.919958293684132
30
0
10
11.119853599967451
20
-11.059837138481207
30
0
10
11.141143502773934
20
-11.065928108443991
30
0
10
11.576831018376099
20
-11.065928108443991
30
0
0
SPLINE
5
443
100
AcDbEntity
8
0
100
AcDbSpline
70
4
71
3
72
8
73
4
74
0
42
0.000000001
43
0.0000000001
44
0.0000000001
40
-1
40
-1
40
-1
40
-1
40
0
40
0
40
0
40
0
41
1
41
1
41
1
41
1
10
11.576831018376099
20
-11.065928108443991
30
0
10
11.968098955139236
20
-11.065928108443991
30
0
10
12.039705389364535
20
-11.0505803837145
30
0
10
12.090400910449882
20
-10.955856484340906
30
0
0
SPLINE
5
444
100
AcDbEntity
8
0
100
AcDbSpline
70
4
71
3
72
8
73
4
74
0
42
0.000000001
43
0.0000000001
44
0.0000000001
40
-1
40
-1
40
-1
40
-1
40
0
40
0
40
0
40
0
41
1
41
1
41
1
41
1
10
12.090400910449882
20
-10.955856484340906
30
0
10
12.176909146002284
20
-10.794215130291608
30
0
10
12.168586297752737
20
-8.831694477773695
30
0
10
12.081021594585762
20
-8.7441297746067193
30
0
0
SPLINE
5
445
100
AcDbEntity
8
0
100
AcDbSpline
70
4
71
3
72
8
73
4
74
0
42
0.000000001
43
0.0000000001
44
0.0000000001
40
-1
40
-1
40
-1
40
-1
40
0
40
0
40
0
40
0
41
1
41
1
41
1
41
1
10
12.081021594585762
20
-8.7441297746067193
30
0
10
12.039545291104455
20
-8.7026534711254122
30
0
10
11.837906055077301
20
-8.6758419873658923
30
0
10
11.567451702511974
20
-8.6758419873658923
30
0
0
SPLINE
5
446
100
AcDbEntity
8
0
100
AcDbSpline
70
4
71
3
72
8
73
4
74
0
42
0.000000001
43
0.0000000001
44
0.0000000001
40
-1
40
-1
40
-1
40
-1
40
0
40
0
40
0
40
0
41
1
41
1
41
1
41
1
10
11.567451702511974
20
-8.6758419873658923
30
0
10
11.141833191606221
20
-8.6758419873658923
30
0
10
11.119718827985798
20
-8.6822875252267107
30
0
10
11.0666715810461
20
-8.8218136111456324
30
0
0
SPLINE
5
447
100
AcDbEntity
8
0
100
AcDbSpline
70
4
71
3
72
8
73
4
74
0
42
0.000000001
43
0.0000000001
44
0.0000000001
40
-1
40
-1
40
-1
40
-1
40
0
40
0
40
0
40
0
41
1
41
1
41
1
41
1
10
11.0666715810461
20
-8.8218136111456324
30
0
10
11.036147083966533
20
-8.902097913773499
30
0
10
11.011173112158211
20
-9.374180648246643
30
0
10
11.011173112158211
20
-9.8708850479049417
30
0
0
SPLINE
5
448
100
AcDbEntity
8
0
100
AcDbSpline
70
4
71
3
72
8
73
4
74
0
42
0.000000001
43
0.0000000001
44
0.0000000001
40
-1
40
-1
40
-1
40
-1
40
0
40
0
40
0
40
0
41
1
41
1
41
1
41
1
10
11.011173112158211
20
-9.8708850479049417
30
0
10
11.011173112158211
20
-10.367592161093068
30
0
10
11.036147083966533
20
-10.839673991056266
30
0
10
11.0666715810461
20
-10.919958293684132
30
0
0
SPLINE
5
449
100
AcDbEntity
8
0
100
AcDbSpline
70
4
71
3
72
8
73
4
74
0
42
0.000000001
43
0.0000000001
44
0.0000000001
40
-1
40
-1
40
-1
40
-1
40
0
40
0
40
0
40
0
41
1
41
1
41
1
41
1
10
12.898478335774339
20
-11.065929917463876
30
0
10
13.277101675775585
20
-11.065929917463876
30
0
10
13.348780470796397
20
-11.050175163259595
30
0
10
13.399258457240217
20
-10.955858293360791
30
0
0
SPLINE
5
450
100
AcDbEntity
8
0
100
AcDbSpline
70
4
71
3
72
8
73
4
74
0
42
0.000000001
43
0.0000000001
44
0.0000000001
40
-1
40
-1
40
-1
40
-1
40
0
40
0
40
0
40
0
41
1
41
1
41
1
41
1
10
13.399258457240217
20
-10.955858293360791
30
0
10
13.43213106213436
20
-10.894434832084844
30
0
10
13.45816738087189
20
-10.479443860765908
30
0
10
13.45816738087189
20
-10.016895565612266
30
0
0
SPLINE
5
451
100
AcDbEntity
8
0
100
AcDbSpline
70
4
71
3
72
8
73
4
74
0
42
0.000000001
43
0.0000000001
44
0.0000000001
40
-1
40
-1
40
-1
40
-1
40
0
40
0
40
0
40
0
41
1
41
1
41
1
41
1
10
13.45816738087189
20
-10.016895565612266
30
0
10
13.458167380871895
20
-9.0112795000917068
30
0
10
13.431360419662093
20
-8.9603772984841612
30
0
10
12.901761706871
20
-8.9603772984841612
30
0
0
SPLINE
5
452
100
AcDbEntity
8
0
100
AcDbSpline
70
4
71
3
72
8
73
4
74
0
42
0.000000001
43
0.0000000001
44
0.0000000001
40
-1
40
-1
40
-1
40
-1
40
0
40
0
40
0
40
0
41
1
41
1
41
1
41
1
10
12.901761706871
20
-8.9603772984841612
30
0
10
12.330950807502241
20
-8.9603772984841612
30
0
10
12.320030658948545
20
-8.9805198304267009
30
0
10
12.320030658948539
20
-10.03345262013687
30
0
0
SPLINE
5
453
100
AcDbEntity
8
0
100
AcDbSpline
70
4
71
3
72
8
73
4
74
0
42
0.000000001
43
0.0000000001
44
0.0000000001
40
-1
40
-1
40
-1
40
-1
40
0
40
0
40
0
40
0
41
1
41
1
41
1
41
1
10
12.320030658948539
20
-10.03345262013687
30
0
10
12.320030658948539
20
-10.654388747071287
30
0
10
12.340989058860552
20
-10.950311838384291
30
0
10
12.388318446189366
20
-10.997641225713103
30
0
0
SPLINE
5
454
100
AcDbEntity
8
0
100
AcDbSpline
70
4
71
3
72
8
73
4
74
0
42
0.000000001
43
0.0000000001
44
0.0000000001
40
-1
40
-1
40
-1
40
-1
40
0
40
0
40
0
40
0
41
1
41
1
41
1
41
1
10
12.388318446189366
20
-10.997641225713103
30
0
10
12.429706107696161
20
-11.039029791729845
30
0
10
12.630676458619742
20
-11.065929917463876
30
0
10
12.898478335774339
20
-11.065929917463876
30
0
0
LINE
5
455
100
AcDbEntity
8
0
100
AcDbLine
10
4.0842679137915994
20
-16.014527507330452
30
0
11
3.4226835572916681
21
-15.405342748684831
31
0
0
SPLINE
5
456
100
AcDbEntity
8
0
100
AcDbSpline
70
4
71
3
72
8
73
4
74
0
42
0.000000001
43
0.0000000001
44
0.0000000001
40
-1
40
-1
40
-1
40
-1
40
0
40
0
40
0
40
0
41
1
41
1
41
1
41
1
10
3.4226835572916681
20
-15.405342748684831
30
0
10
2.6213392242493327
20
-14.667466930274141
30
0
10
2.0575085955242045
20
-13.942578518607514
30
0
10
2.0575085955242045
20
-13.650201992702442
30
0
0
SPLINE
5
457
100
AcDbEntity
8
0
100
AcDbSpline
70
4
71
3
72
8
73
4
74
0
42
0.000000001
43
0.0000000001
44
0.0000000001
40
-1
40
-1
40
-1
40
-1
40
0
40
0
40
0
40
0
41
1
41
1
41
1
41
1
10
2.0575085955242045
20
-13.650201992702442
30
0
10
2.0575085955242045
20
-13.328688018319523
30
0
10
2.4469461630561185
20
-12.809592198183996
30
0
10
3.3086575130879492
20
-11.982501705333458
30
0
0
SPLINE
5
458
100
AcDbEntity
8
0
100
AcDbSpline
70
4
71
3
72
8
73
4
74
0
42
0.000000001
43
0.0000000001
44
0.0000000001
40
-1
40
-1
40
-1
40
-1
40
0
40
0
40
0
40
0
41
1
41
1
41
1
41
1
10
3.3086575130879492
20
-11.982501705333458
30
0
10
3.7399007988874544
20
-11.568584743834966
30
0
10
4.041413078639744
20
-11.24961897409872
30
0
10
3.9786886055279957
20
-11.273689359210056
30
0
0
SPLINE
5
459
100
AcDbEntity
8
0
100
AcDbSpline
70
4
71
3
72
8
73
4
74
0
42
0.000000001
43
0.0000000001
44
0.0000000001
40
-1
40
-1
40
-1
40
-1
40
0
40
0
40
0
40
0
41
1
41
1
41
1
41
1
10
3.9786886055279957
20
-11.273689359210056
30
0
10
3.5013526506493875
20
-11.456859298020255
30
0
10
2.2986905406955405
20
-11.806789300179705
30
0
10
1.8836779979286256
20
-11.883258060398404
30
0
0
SPLINE
5
460
100
AcDbEntity
8
0
100
AcDbSpline
70
4
71
3
72
8
73
4
74
0
42
0.000000001
43
0.0000000001
44
0.0000000001
40
-1
40
-1
40
-1
40
-1
40
0
40
0
40
0
40
0
41
1
41
1
41
1
41
1
10
1.8836779979286256
20
-11.883258060398404
30
0
10
0.94529552305763431
20
-12.056161815804845
30
0
10
0.76890449334586997
20
-11.847290347450169
30
0
10
0.2852689461737512
20
-9.9905270923388212
30
0
0
LINE
5
461
100
AcDbEntity
8
0
100
AcDbLine
10
0.28526894617375143
20
-9.990527092338823
30
0
11
0.0047390041070904942
21
-8.9135269922647531
31
0
0
LINE
5
462
100
AcDbEntity
8
0
100
AcDbLine
10
0.0047390041070904942
20
-8.9135269922647531
30
0
11
-0.052972206504007247
21
-9.2948128115585771
31
0
0
SPLINE
5
463
100
AcDbEntity
8
0
100
AcDbSpline
70
4
71
3
72
8
73
4
74
0
42
0.000000001
43
0.0000000001
44
0.0000000001
40
-1
40
-1
40
-1
40
-1
40
0
40
0
40
0
40
0
41
1
41
1
41
1
41
1
10
-0.052972206504007247
20
-9.2948128115585771
30
0
10
-0.13268063477037906
20
-9.8214496178299804
30
0
10
-0.45362970006175729
20
-10.911432845033779
30
0
10
-0.66718979160149239
20
-11.380781816825998
30
0
0
SPLINE
5
464
100
AcDbEntity
8
0
100
AcDbSpline
70
4
71
3
72
8
73
4
74
0
42
0.000000001
43
0.0000000001
44
0.0000000001
40
-1
40
-1
40
-1
40
-1
40
0
40
0
40
0
40
0
41
1
41
1
41
1
41
1
10
-0.66718979160149239
20
-11.380781816825998
30
0
10
-0.97744104381527031
20
-12.062630758551101
30
0
10
-1.4334107184655132
20
-12.089552589553048
30
0
10
-3.1647433685576498
20
-11.528243876415125
30
0
0
LINE
5
465
100
AcDbEntity
8
0
100
AcDbLine
10
-3.1647433685576494
20
-11.528243876415123
30
0
11
-3.9636006343008923
21
-11.269249565029597
31
0
0
LINE
5
466
100
AcDbEntity
8
0
100
AcDbLine
10
-3.9636006343008923
20
-11.269249565029597
30
0
11
-3.1207428195123299
21
-12.129996167716799
31
0
0
SPLINE
5
467
100
AcDbEntity
8
0
100
AcDbSpline
70
4
71
3
72
8
73
4
74
0
42
0.000000001
43
0.0000000001
44
0.0000000001
40
-1
40
-1
40
-1
40
-1
40
0
40
0
40
0
40
0
41
1
41
1
41
1
41
1
10
-3.1207428195123388
20
-12.129996167716799
30
0
10
-2.1829130262633711
20
-13.087729224466806
30
0
10
-1.9041426170597475
20
-13.480227938991497
30
0
10
-1.9714047041080551
20
-13.748222279312635
30
0
0
SPLINE
5
468
100
AcDbEntity
8
0
100
AcDbSpline
70
4
71
3
72
8
73
4
74
0
42
0.000000001
43
0.0000000001
44
0.0000000001
40
-1
40
-1
40
-1
40
-1
40
0
40
0
40
0
40
0
41
1
41
1
41
1
41
1
10
-1.9714047041080551
20
-13.748222279312635
30
0
10
-2.019700763193546
20
-13.940648412544764
30
0
10
-3.3890880882085384
20
-15.497963996131219
30
0
10
-3.8012235073988698
20
-15.82915540126081
30
0
0
LINE
5
469
100
AcDbEntity
8
0
100
AcDbLine
10
-3.8012235073988698
20
-15.82915540126081
30
0
11
-4.0583146131545789
21
-16.035753171659401
31
0
0
LINE
5
470
100
AcDbEntity
8
0
100
AcDbLine
10
-4.0583146131545789
20
-16.035753171659401
30
0
11
-3.635207485569536
21
-15.876056306074782
31
0
0
SPLINE
5
471
100
AcDbEntity
8
0
100
AcDbSpline
70
4
71
3
72
8
73
4
74
0
42
0.000000001
43
0.0000000001
44
0.0000000001
40
-1
40
-1
40
-1
40
-1
40
0
40
0
40
0
40
0
41
1
41
1
41
1
41
1
10
-3.635207485569536
20
-15.876056306074787
30
0
10
-2.9398753132115907
20
-15.613610791418996
30
0
10
-1.797026315878254
20
-15.337064558919927
30
0
10
-1.4077794968707469
20
-15.337064558919927
30
0
0
SPLINE
5
472
100
AcDbEntity
8
0
100
AcDbSpline
70
4
71
3
72
8
73
4
74
0
42
0.000000001
43
0.0000000001
44
0.0000000001
40
-1
40
-1
40
-1
40
-1
40
0
40
0
40
0
40
0
41
1
41
1
41
1
41
1
10
-1.4077794968707469
20
-15.337064558919927
30
0
10
-0.97713780257133287
20
-15.337064558919927
30
0
10
-0.8775719638146029
20
-15.425015524385532
30
0
10
-0.60148426142229816
20
-16.049302430627613
30
0
0
SPLINE
5
473
100
AcDbEntity
8
0
100
AcDbSpline
70
4
71
3
72
8
73
4
74
0
42
0.000000001
43
0.0000000001
44
0.0000000001
40
-1
40
-1
40
-1
40
-1
40
0
40
0
40
0
40
0
41
1
41
1
41
1
41
1
10
-0.60148426142229816
20
-16.049302430627613
30
0
10
-0.4033478999272333
20
-16.497324250093914
30
0
10
-0.025122921939448872
20
-17.876934962369351
30
0
10
-0.012584874700021231
20
-18.19736313745944
30
0
0
SPLINE
5
474
100
AcDbEntity
8
0
100
AcDbSpline
70
4
71
3
72
8
73
4
74
0
42
0.000000001
43
0.0000000001
44
0.0000000001
40
-0.99999617644110306
40
-0.99999617644110306
40
-0.99999617644110306
40
-0.99999617644110306
40
0
40
0
40
0
40
0
41
1
41
1
41
1
41
1
10
-0.012582385190757944
20
-18.197363040083225
30
0
10
-0.0087449647301602179
20
-18.295470090243452
30
0
10
0.054617579178710421
20
-18.116107943712919
30
0
10
0.12822177323275952
20
-17.798778199984273
30
0
0
SPLINE
5
475
100
AcDbEntity
8
0
100
AcDbSpline
70
4
71
3
72
8
73
4
74
0
42
0.000000001
43
0.0000000001
44
0.0000000001
40
-1
40
-1
40
-1
40
-1
40
0
40
0
40
0
40
0
41
1
41
1
41
1
41
1
10
0.12822177323275952
20
-17.798778199984273
30
0
10
0.32667849442908015
20
-16.94319648041969
30
0
10
0.73815974400043061
20
-15.757154558402448
30
0
10
0.91417172215726872
20
-15.533391254926951
30
0
0
SPLINE
5
476
100
AcDbEntity
8
0
100
AcDbSpline
70
4
71
3
72
8
73
4
74
0
42
0.000000001
43
0.0000000001
44
0.0000000001
40
-1
40
-1
40
-1
40
-1
40
0
40
0
40
0
40
0
41
1
41
1
41
1
41
1
10
0.91417172215726872
20
-15.533391254926951
30
0
10
1.0371409375633789
20
-15.377061834446426
30
0
10
1.1362788148871328
20
-15.337063336172978
30
0
10
1.4007760989273343
20
-15.337063336172978
30
0
0
SPLINE
5
477
100
AcDbEntity
8
0
100
AcDbSpline
70
4
71
3
72
8
73
4
74
0
42
0.000000001
43
0.0000000001
44
0.0000000001
40
-1
40
-1
40
-1
40
-1
40
0
40
0
40
0
40
0
41
1
41
1
41
1
41
1
10
1.4007760989273343
20
-15.337063336172978
30
0
10
1.7368970083914004
20
-15.337063336172978
30
0
10
2.8723129270072967
20
-15.605374367954523
30
0
10
3.6565045658157214
20
-15.870114978638048
30
0
0
LINE
5
478
100
AcDbEntity
8
0
100
AcDbLine
10
3.6565045658157209
20
-15.870114978638048
30
0
11
4.0842679137915994
21
-16.014527507330452
31
0
0
SPLINE
5
479
100
AcDbEntity
8
0
100
AcDbSpline
70
4
71
3
72
8
73
4
74
0
42
0.000000001
43
0.0000000001
44
0.0000000001
40
-1
40
-1
40
-1
40
-1
40
0
40
0
40
0
40
0
41
1
41
1
41
1
41
1
10
-12.390322296835903
20
-11.90675345947704
30
0
10
-12.224413464870905
20
-12.267215144313068
30
0
10
-11.893254284180133
20
-12.618723989723559
30
0
10
-11.548701120238869
20
-12.800099941730645
30
0
0
SPLINE
5
480
100
AcDbEntity
8
0
100
AcDbSpline
70
4
71
3
72
8
73
4
74
0
42
0.000000001
43
0.0000000001
44
0.0000000001
40
-1
40
-1
40
-1
40
-1
40
0
40
0
40
0
40
0
41
1
41
1
41
1
41
1
10
-11.548701120238869
20
-12.800099941730645
30
0
10
-11.300120079393894
20
-12.930953586306666
30
0
10
-11.19413684023761
20
-12.951381038881555
30
0
10
-10.776846604641062
20
-12.948866501237282
30
0
0
SPLINE
5
481
100
AcDbEntity
8
0
100
AcDbSpline
70
4
71
3
72
8
73
4
74
0
42
0.000000001
43
0.0000000001
44
0.0000000001
40
-1
40
-1
40
-1
40
-1
40
0
40
0
40
0
40
0
41
1
41
1
41
1
41
1
10
-10.776846604641062
20
-12.948866501237282
30
0
10
-10.195036864353488
20
-12.945360620694411
30
0
10
-9.8768013217423345
20
-12.815579724911954
30
0
10
-9.5315354039652078
20
-12.441013112009482
30
0
0
SPLINE
5
482
100
AcDbEntity
8
0
100
AcDbSpline
70
4
71
3
72
8
73
4
74
0
42
0.000000001
43
0.0000000001
44
0.0000000001
40
-1
40
-1
40
-1
40
-1
40
0
40
0
40
0
40
0
41
1
41
1
41
1
41
1
10
-9.5315354039652078
20
-12.441013112009482
30
0
10
-9.13534195830211
20
-12.011191795649001
30
0
10
-9.0420580387593308
20
-11.772719557937972
30
0
10
-9.0415985477077854
20
-11.188451359622658
30
0
0
SPLINE
5
483
100
AcDbEntity
8
0
100
AcDbSpline
70
4
71
3
72
8
73
4
74
0
42
0.000000001
43
0.0000000001
44
0.0000000001
40
-1
40
-1
40
-1
40
-1
40
0
40
0
40
0
40
0
41
1
41
1
41
1
41
1
10
-9.0415985477077854
20
-11.188451359622658
30
0
10
-9.0412439798097388
20
-10.742656397651453
30
0
10
-9.0617618833790381
20
-10.634393793436328
30
0
10
-9.1999637667399714
20
-10.352968187505471
30
0
0
SPLINE
5
484
100
AcDbEntity
8
0
100
AcDbSpline
70
4
71
3
72
8
73
4
74
0
42
0.000000001
43
0.0000000001
44
0.0000000001
40
-1
40
-1
40
-1
40
-1
40
0
40
0
40
0
40
0
41
1
41
1
41
1
41
1
10
-9.1999637667399714
20
-10.352968187505471
30
0
10
-9.3470949722678931
20
-10.053359218170748
30
0
10
-9.601551709708982
20
-9.770564184184698
30
0
10
-9.8482188075124899
20
-9.6325233035937963
30
0
0
SPLINE
5
485
100
AcDbEntity
8
0
100
AcDbSpline
70
4
71
3
72
8
73
4
74
0
42
0.000000001
43
0.0000000001
44
0.0000000001
40
-1
40
-1
40
-1
40
-1
40
0
40
0
40
0
40
0
41
1
41
1
41
1
41
1
10
-9.8482188075124899
20
-9.6325233035937963
30
0
10
-9.9046131934998982
20
-9.6009640471383051
30
0
10
-9.9322658715073153
20
-9.5566548185124489
30
0
10
-9.9096675950668711
20
-9.5340574465819472
30
0
0
SPLINE
5
486
100
AcDbEntity
8
0
100
AcDbSpline
70
4
71
3
72
8
73
4
74
0
42
0.000000001
43
0.0000000001
44
0.0000000001
40
-1
40
-1
40
-1
40
-1
40
0
40
0
40
0
40
0
41
1
41
1
41
1
41
1
10
-9.9096675950668711
20
-9.5340574465819472
30
0
10
-9.8870693186264091
20
-9.5114609791613791
30
0
10
-9.6990723538293722
20
-9.5764219788282379
30
0
10
-9.4918925421403522
20
-9.678416329131565
30
0
0
SPLINE
5
487
100
AcDbEntity
8
0
100
AcDbSpline
70
4
71
3
72
8
73
4
74
0
42
0.000000001
43
0.0000000001
44
0.0000000001
40
-1
40
-1
40
-1
40
-1
40
0
40
0
40
0
40
0
41
1
41
1
41
1
41
1
10
-9.4918925421403522
20
-9.678416329131565
30
0
10
-9.0243224077777207
20
-9.9086005422258872
30
0
10
-8.4180728088037426
20
-10.471379393292075
30
0
10
-8.0641018873257408
20
-11.003831834956443
30
0
0
LINE
5
488
100
AcDbEntity
8
0
100
AcDbLine
10
-8.0641018873257408
20
-11.003831834956443
30
0
11
-7.7994856941938462
21
-11.401872289925148
31
0
0
LINE
5
489
100
AcDbEntity
8
0
100
AcDbLine
10
-7.7994856941938462
20
-11.401872289925148
30
0
11
-7.9024370160179025
21
-11.593036848546019
31
0
0
SPLINE
5
490
100
AcDbEntity
8
0
100
AcDbSpline
70
4
71
3
72
8
73
4
74
0
42
0.000000001
43
0.0000000001
44
0.0000000001
40
-1
40
-1
40
-1
40
-1
40
0
40
0
40
0
40
0
41
1
41
1
41
1
41
1
10
-7.9024370160179025
20
-11.593036848546019
30
0
10
-7.9590593385111852
20
-11.698178893454401
30
0
10
-8.115843474161295
20
-11.913606026812644
30
0
10
-8.250843392320526
20
-12.071763208557726
30
0
0
SPLINE
5
491
100
AcDbEntity
8
0
100
AcDbSpline
70
4
71
3
72
8
73
4
74
0
42
0.000000001
43
0.0000000001
44
0.0000000001
40
-1
40
-1
40
-1
40
-1
40
0
40
0
40
0
40
0
41
1
41
1
41
1
41
1
10
-8.250843392320526
20
-12.071763208557726
30
0
10
-8.8464378641543995
20
-12.769523887584269
30
0
10
-9.5785084143760901
20
-13.216255921857423
30
0
10
-10.296352832198821
20
-13.320005021452079
30
0
0
SPLINE
5
492
100
AcDbEntity
8
0
100
AcDbSpline
70
4
71
3
72
8
73
4
74
0
42
0.000000001
43
0.0000000001
44
0.0000000001
40
-1
40
-1
40
-1
40
-1
40
0
40
0
40
0
40
0
41
1
41
1
41
1
41
1
10
-10.296352832198821
20
-13.3200014034123
30
0
10
-10.513677627419549
20
-13.35141141572703
30
0
10
-10.71709829578138
20
-13.374420339682045
30
0
10
-10.748397957882938
20
-13.371136968585393
30
0
0
SPLINE
5
493
100
AcDbEntity
8
0
100
AcDbSpline
70
4
71
3
72
8
73
4
74
0
42
0.000000001
43
0.0000000001
44
0.0000000001
40
-1
40
-1
40
-1
40
-1
40
0
40
0
40
0
40
0
41
1
41
1
41
1
41
1
10
-10.748397957882938
20
-13.371136968585393
30
0
10
-11.453307883506731
20
-13.297158909286972
30
0
10
-11.878966645104985
20
-13.150606590123202
30
0
10
-12.398824690309338
20
-12.802903922556981
30
0
0
SPLINE
5
494
100
AcDbEntity
8
0
100
AcDbSpline
70
4
71
3
72
8
73
4
74
0
42
0.000000001
43
0.0000000001
44
0.0000000001
40
-1
40
-1
40
-1
40
-1
40
0
40
0
40
0
40
0
41
1
41
1
41
1
41
1
10
-12.398824690309338
20
-12.802903922556981
30
0
10
-12.81653823655966
20
-12.52351708203987
30
0
10
-13.464764333013965
20
-11.880953217834893
30
0
10
-13.618292232865743
20
-11.594082462041264
30
0
0
SPLINE
5
495
100
AcDbEntity
8
0
100
AcDbSpline
70
4
71
3
72
8
73
4
74
0
42
0.000000001
43
0.0000000001
44
0.0000000001
40
-1
40
-1
40
-1
40
-1
40
0
40
0
40
0
40
0
41
1
41
1
41
1
41
1
10
-13.618292232865743
20
-11.594082462041264
30
0
10
-13.689064708922682
20
-11.461846726270837
30
0
10
-13.688142108779822
20
-11.419434254997505
30
0
10
-13.610998264677461
20
-11.258672084613774
30
0
0
SPLINE
5
496
100
AcDbEntity
8
0
100
AcDbSpline
70
4
71
3
72
8
73
4
74
0
42
0.000000001
43
0.0000000001
44
0.0000000001
40
-1
40
-1
40
-1
40
-1
40
0
40
0
40
0
40
0
41
1
41
1
41
1
41
1
10
-13.610998264677461
20
-11.258672084613774
30
0
10
-13.449405754165147
20
-10.921915796389632
30
0
10
-12.985811845516269
20
-10.36006497252596
30
0
10
-12.63319407091446
20
-10.073622954445778
30
0
0
SPLINE
5
497
100
AcDbEntity
8
0
100
AcDbSpline
70
4
71
3
72
8
73
4
74
0
42
0.000000001
43
0.0000000001
44
0.0000000001
40
-1
40
-1
40
-1
40
-1
40
0
40
0
40
0
40
0
41
1
41
1
41
1
41
1
10
-12.63319407091446
20
-10.073622954445778
30
0
10
-12.332683305165579
20
-9.8295110972340183
30
0
10
-11.777813489049569
20
-9.5096989937905008
30
0
10
-11.654789282548652
20
-9.5096989937905008
30
0
0
SPLINE
5
498
100
AcDbEntity
8
0
100
AcDbSpline
70
4
71
3
72
8
73
4
74
0
42
0.000000001
43
0.0000000001
44
0.0000000001
40
-1
40
-1
40
-1
40
-1
40
0
40
0
40
0
40
0
41
1
41
1
41
1
41
1
10
-11.654789282548652
20
-9.5096989937905008
30
0
10
-11.632997828978233
20
-9.5096989937905008
30
0
10
-11.754165981074101
20
-9.6441417338242452
30
0
10
-11.924051038752834
20
-9.8084604373077156
30
0
0
SPLINE
5
499
100
AcDbEntity
8
0
100
AcDbSpline
70
4
71
3
72
8
73
4
74
0
42
0.000000001
43
0.0000000001
44
0.0000000001
40
-1
40
-1
40
-1
40
-1
40
0
40
0
40
0
40
0
41
1
41
1
41
1
41
1
10
-11.924051038752834
20
-9.8084604373077156
30
0
10
-12.372087376365224
20
-10.241818387549166
30
0
10
-12.509496909015221
20
-10.558474655798129
30
0
10
-12.510549758590015
20
-11.159997285804852
30
0
0
SPLINE
5
500
100
AcDbEntity
8
0
100
AcDbSpline
70
4
71
3
72
8
73
4
74
0
42
0.000000001
43
0.0000000001
44
0.0000000001
40
-1
40
-1
40
-1
40
-1
40
0
40
0
40
0
40
0
41
1
41
1
41
1
41
1
10
-12.510549758590015
20
-11.159997285804852
30
0
10
-12.51120462378946
20
-11.534303399843475
30
0
10
-12.48401143683358
20
-11.703202541683275
30
0
10
-12.390322296835903
20
-11.90675345947704
30
0
0
SPLINE
5
501
100
AcDbEntity
8
0
100
AcDbSpline
70
4
71
3
72
8
73
4
74
0
42
0.000000001
43
0.0000000001
44
0.0000000001
40
-1
40
-1
40
-1
40
-1
40
0
40
0
40
0
40
0
41
1
41
1
41
1
41
1
10
-11.208703068375501
20
-11.909376538314591
30
0
10
-11.409515130058878
20
-11.783061724637474
30
0
10
-11.642187650009097
20
-11.50817572560161
30
0
10
-11.615656564332211
20
-11.428587895630606
30
0
0
SPLINE
5
502
100
AcDbEntity
8
0
100
AcDbSpline
70
4
71
3
72
8
73
4
74
0
42
0.000000001
43
0.0000000001
44
0.0000000001
40
-1
40
-1
40
-1
40
-1
40
0
40
0
40
0
40
0
41
1
41
1
41
1
41
1
10
-11.615656564332211
20
-11.428587895630606
30
0
10
-11.605826350261008
20
-11.399104489496565
30
0
10
-11.488753819191508
20
-11.369695253177925
30
0
10
-11.355486942084934
20
-11.363231625118226
30
0
0
SPLINE
5
503
100
AcDbEntity
8
0
100
AcDbSpline
70
4
71
3
72
8
73
4
74
0
42
0.000000001
43
0.0000000001
44
0.0000000001
40
-1
40
-1
40
-1
40
-1
40
0
40
0
40
0
40
0
41
1
41
1
41
1
41
1
10
-11.355486942084934
20
-11.363231625118226
30
0
10
-11.011932357121825
20
-11.346570551950075
30
0
10
-10.805306105518522
20
-11.133084496931609
30
0
10
-10.805306105518522
20
-10.794786923762931
30
0
0
SPLINE
5
504
100
AcDbEntity
8
0
100
AcDbSpline
70
4
71
3
72
8
73
4
74
0
42
0.000000001
43
0.0000000001
44
0.0000000001
40
-1
40
-1
40
-1
40
-1
40
0
40
0
40
0
40
0
41
1
41
1
41
1
41
1
10
-10.805306105518522
20
-10.794786923762931
30
0
10
-10.805306105518522
20
-10.637680782572758
30
0
10
-10.842011119045321
20
-10.505416102484126
30
0
10
-10.904892650350968
20
-10.435931648587413
30
0
0
SPLINE
5
505
100
AcDbEntity
8
0
100
AcDbSpline
70
4
71
3
72
8
73
4
74
0
42
0.000000001
43
0.0000000001
44
0.0000000001
40
-1
40
-1
40
-1
40
-1
40
0
40
0
40
0
40
0
41
1
41
1
41
1
41
1
10
-10.904892650350968
20
-10.435931648587413
30
0
10
-11.048536065534904
20
-10.277206434597526
30
0
10
-11.030753400036204
20
-10.249490440894018
30
0
10
-10.785269401239432
20
-10.249490440894018
30
0
0
SPLINE
5
506
100
AcDbEntity
8
0
100
AcDbSpline
70
4
71
3
72
8
73
4
74
0
42
0.000000001
43
0.0000000001
44
0.0000000001
40
-1
40
-1
40
-1
40
-1
40
0
40
0
40
0
40
0
41
1
41
1
41
1
41
1
10
-10.785269401239432
20
-10.249490440894018
30
0
10
-10.392766356147778
20
-10.249490440894018
30
0
10
-9.9949267023866284
20
-10.615116877510182
30
0
10
-9.9439847023415506
20
-11.022660113950371
30
0
0
SPLINE
5
507
100
AcDbEntity
8
0
100
AcDbSpline
70
4
71
3
72
8
73
4
74
0
42
0.000000001
43
0.0000000001
44
0.0000000001
40
-1
40
-1
40
-1
40
-1
40
0
40
0
40
0
40
0
41
1
41
1
41
1
41
1
10
-9.9439847023415506
20
-11.022660113950371
30
0
10
-9.9107059724825586
20
-11.288889952822325
30
0
10
-10.096119656879594
20
-11.690269858504223
30
0
10
-10.331585303536821
20
-11.861723336425829
30
0
0
SPLINE
5
508
100
AcDbEntity
8
0
100
AcDbSpline
70
4
71
3
72
8
73
4
74
0
42
0.000000001
43
0.0000000001
44
0.0000000001
40
-1
40
-1
40
-1
40
-1
40
0
40
0
40
0
40
0
41
1
41
1
41
1
41
1
10
-10.3315889215766
20
-11.861725145445714
30
0
10
-10.55422138114861
20
-12.023836844665876
30
0
10
-10.989174886931234
20
-12.047466262442468
30
0
10
-11.208703068375501
20
-11.909376538314591
30
0
0
SPLINE
5
509
100
AcDbEntity
8
0
100
AcDbSpline
70
4
71
3
72
8
73
4
74
0
42
0.000000001
43
0.0000000001
44
0.0000000001
40
-1
40
-1
40
-1
40
-1
40
0
40
0
40
0
40
0
41
1
41
1
41
1
41
1
10
-8.1893873686866048
20
-12.914780948508264
30
0
10
-7.741351031074224
20
-12.496365502541416
30
0
10
-7.1341752139175973
20
-11.664229017216972
30
0
10
-7.134576816332725
20
-11.469164211717651
30
0
0
SPLINE
5
510
100
AcDbEntity
8
0
100
AcDbSpline
70
4
71
3
72
8
73
4
74
0
42
0.000000001
43
0.0000000001
44
0.0000000001
40
-1
40
-1
40
-1
40
-1
40
0
40
0
40
0
40
0
41
1
41
1
41
1
41
1
10
-7.134576816332725
20
-11.469164211717651
30
0
10
-7.1349711826683038
20
-11.278792003807716
30
0
10
-7.6908938483591172
20
-10.401516854238775
30
0
10
-8.0842579869174358
20
-9.9705178659312388
30
0
0
SPLINE
5
511
100
AcDbEntity
8
0
100
AcDbSpline
70
4
71
3
72
8
73
4
74
0
42
0.000000001
43
0.0000000001
44
0.0000000001
40
-1
40
-1
40
-1
40
-1
40
0
40
0
40
0
40
0
41
1
41
1
41
1
41
1
10
-8.0842579869174358
20
-9.9705178659312388
30
0
10
-8.8414485873033932
20
-9.1408859686416921
30
0
10
-9.7448767373926337
20
-8.7130075396408948
30
0
10
-10.739385420801106
20
-8.7130075396408948
30
0
0
SPLINE
5
512
100
AcDbEntity
8
0
100
AcDbSpline
70
4
71
3
72
8
73
4
74
0
42
0.000000001
43
0.0000000001
44
0.0000000001
40
-1
40
-1
40
-1
40
-1
40
0
40
0
40
0
40
0
41
1
41
1
41
1
41
1
10
-10.739385420801106
20
-8.7130075396408948
30
0
10
-11.776359037059647
20
-8.7130075396408948
30
0
10
-12.454517176580202
20
-9.0157506359315285
30
0
10
-13.280758066089779
20
-9.8475244127684292
30
0
0
SPLINE
5
513
100
AcDbEntity
8
0
100
AcDbSpline
70
4
71
3
72
8
73
4
74
0
42
0.000000001
43
0.0000000001
44
0.0000000001
40
-1
40
-1
40
-1
40
-1
40
0
40
0
40
0
40
0
41
1
41
1
41
1
41
1
10
-13.280758066089779
20
-9.8475244127684292
30
0
10
-13.823243332052781
20
-10.393645808706244
30
0
10
-14.361976690768161
20
-11.203784612193033
30
0
10
-14.361983926847701
20
-11.473464251991343
30
0
0
SPLINE
5
514
100
AcDbEntity
8
0
100
AcDbSpline
70
4
71
3
72
8
73
4
74
0
42
0.000000001
43
0.0000000001
44
0.0000000001
40
-1
40
-1
40
-1
40
-1
40
0
40
0
40
0
40
0
41
1
41
1
41
1
41
1
10
-14.361983926847701
20
-11.473464251991343
30
0
10
-14.361987544887489
20
-11.672678949113653
30
0
10
-13.903589141356836
20
-12.30953716459199
30
0
10
-13.39865189218842
20
-12.811824199624544
30
0
0
SPLINE
5
515
100
AcDbEntity
8
0
100
AcDbSpline
70
4
71
3
72
8
73
4
74
0
42
0.000000001
43
0.0000000001
44
0.0000000001
40
-1
40
-1
40
-1
40
-1
40
0
40
0
40
0
40
0
41
1
41
1
41
1
41
1
10
-13.39865189218842
20
-12.811824199624544
30
0
10
-12.859538639296568
20
-13.348104527371829
30
0
10
-12.249301960489518
20
-13.713352878831406
30
0
10
-11.650009852004661
20
-13.8584453189456
30
0
0
SPLINE
5
516
100
AcDbEntity
8
0
100
AcDbSpline
70
4
71
3
72
8
73
4
74
0
42
0.000000001
43
0.0000000001
44
0.0000000001
40
-0.99999752196234604
40
-0.99999752196234604
40
-0.99999752196234604
40
-0.99999752196234604
40
0
40
0
40
0
40
0
41
1
41
1
41
1
41
1
10
-11.650010052325614
20
-13.858446146386836
30
0
10
-11.190275487320175
20
-13.969748884883419
30
0
10
-10.277758656144789
20
-13.969605696861635
30
0
10
-9.8461094903231228
20
-13.858163111843078
30
0
0
SPLINE
5
517
100
AcDbEntity
8
0
100
AcDbSpline
70
4
71
3
72
8
73
4
74
0
42
0.000000001
43
0.0000000001
44
0.0000000001
40
-1
40
-1
40
-1
40
-1
40
0
40
0
40
0
40
0
41
1
41
1
41
1
41
1
10
-9.8461094903231228
20
-13.858163111843078
30
0
10
-9.2969308507746451
20
-13.716373942044315
30
0
10
-8.6583757746413959
20
-13.352766371623117
30
0
10
-8.1893873686866048
20
-12.914780948508264
30
0
0
ENDSEC
0
SECTION
2
OBJECTS
0
DICTIONARY
5
C
100
AcDbDictionary
3
ACAD_GROUP
350
D
3
ACAD_MLINESTYLE
350
17
0
DICTIONARY
5
D
100
AcDbDictionary
0
DICTIONARY
5
1A
330
C
100
AcDbDictionary
0
DICTIONARY
5
17
100
AcDbDictionary
0
ENDSEC
0
EOF
