0
SECTION
2
HEADER
9
$INSUNITS
70
4
9
$ACADVER
1
AC1014
9
$HANDSEED
5
FFFF
0
ENDSEC
0
SECTION
2
TABLES
0
TABLE
2
VPORT
5
8
100
AcDbSymbolTable
0
ENDTAB
0
TABLE
2
LTYPE
5
5
100
AcDbSymbolTable
0
LTYPE
5
14
100
AcDbSymbolTableRecord
100
AcDbLinetypeTableRecord
2
BYBLOCK
70
0
0
LTYPE
5
15
100
AcDbSymbolTableRecord
100
AcDbLinetypeTableRecord
2
BYLAYER
70
0
0
ENDTAB
0
TABLE
2
LAYER
5
2
100
AcDbSymbolTable
70
2
0
LAYER
5
50
100
AcDbSymbolTableRecord
100
AcDbLayerTableRecord
2
0
70
0
6
CONTINUOUS
0
ENDTAB
0
TABLE
2
STYLE
5
3
100
AcDbSymbolTable
70
1
0
STYLE
5
11
100
AcDbSymbolTableRecord
100
AcDbTextStyleTableRecord
2
STANDARD
70
0
0
ENDTAB
0
TABLE
2
VIEW
5
6
100
AcDbSymbolTable
70
0
0
ENDTAB
0
TABLE
2
UCS
5
7
100
AcDbSymbolTable
70
0
0
ENDTAB
0
TABLE
2
APPID
5
9
100
AcDbSymbolTable
70
2
0
APPID
5
12
100
AcDbSymbolTableRecord
100
AcDbRegAppTableRecord
2
ACAD
70
0
0
ENDTAB
0
TABLE
2
DIMSTYLE
5
A
100
AcDbSymbolTable
70
1
0
ENDTAB
0
TABLE
2
BLOCK_RECORD
5
1
100
AcDbSymbolTable
70
1
0
BLOCK_RECORD
5
1F
100
AcDbSymbolTableRecord
100
AcDbBlockTableRecord
2
*MODEL_SPACE
0
BLOCK_RECORD
5
1B
100
AcDbSymbolTableRecord
100
AcDbBlockTableRecord
2
*PAPER_SPACE
0
ENDTAB
0
ENDSEC
0
SECTION
2
BLOCKS
0
BLOCK
5
20
100
AcDbEntity
100
AcDbBlockBegin
2
*MODEL_SPACE
0
ENDBLK
5
21
100
AcDbEntity
100
AcDbBlockEnd
0
BLOCK
5
1C
100
AcDbEntity
100
AcDbBlockBegin
2
*PAPER_SPACE
0
ENDBLK
5
1D
100
AcDbEntity
100
AcDbBlockEnd
0
ENDSEC
0
SECTION
2
ENTITIES
0
CIRCLE
5
100
100
AcDbEntity
8
0
100
AcDbCircle
10
0
20
0
30
0
40
20.284999999999997
210
0
220
0
230
1
0
CIRCLE
5
101
100
AcDbEntity
8
0
100
AcDbCircle
10
7.6245580763737788
20
-16.799570721358347
30
0
40
1.2361663706911474
210
0
220
0
230
1
0
CIRCLE
5
102
100
AcDbEntity
8
0
100
AcDbCircle
10
-2.2204460492503131e-15
20
-13.684999985098836
30
0
40
6.0000000000000009
210
0
220
0
230
1
0
CIRCLE
5
103
100
AcDbEntity
8
0
100
AcDbCircle
10
10.762225485084315
20
-11.410246605932821
30
0
40
3.9999999999999991
210
0
220
0
230
1
0
CIRCLE
5
104
100
AcDbEntity
8
0
100
AcDbCircle
10
-10.762225485084318
20
-11.410246605932821
30
0
40
4
210
0
220
0
230
1
0
CIRCLE
5
105
100
AcDbEntity
8
0
100
AcDbCircle
10
-7.6245580763737788
20
-16.799570721358347
30
0
40
1.2361663706911485
210
0
220
0
230
1
0
LWPOLYLINE
5
106
100
AcDbEntity
8
0
100
AcDbPolyline
90
8
70
1
43
0.0
10
-7.0912547358069045
20
-8.0155486949308354
42
0.4586120285515205
10
-14.664806964496396
20
-8.2845694080185126
42
-0.56502397880837807
10
-18.060822820097421
20
-7.8298086861077341
42
-1.5234526665911512
10
18.060822820097421
20
-7.8298086861077394
42
-0.5650239788083784
10
14.664806964496393
20
-8.2845694080185126
42
0.45861202855152028
10
7.0912547358069054
20
-8.0155486949308354
42
-0.39342646008747978
10
4.3733405668804375
20
-8.2192985209961584
42
0.35082988103369223
10
-4.3733405668804366
20
-8.2192985209961584
42
-0.39342646008747961
0
CIRCLE
5
107
100
AcDbEntity
8
0
100
AcDbCircle
10
0
20
0
30
0
40
20.684999999999999
210
0
220
-0
230
1
0
SPLINE
5
108
100
AcDbEntity
8
0
100
AcDbSpline
70
4
71
3
72
8
73
4
74
0
42
0.000000001
43
0.0000000001
44
0.0000000001
40
-1
40
-1
40
-1
40
-1
40
0
40
0
40
0
40
0
41
1
41
1
41
1
41
1
10
-1.2067623513973436
20
-0.22576366647288459
30
0
10
-2.1949820287644739
20
-0.44740273182512169
30
0
10
-2.7449518095247294
20
-0.37070117906922384
30
0
10
-3.7484011610326973
20
0.12871157721348059
30
0
0
SPLINE
5
109
100
AcDbEntity
8
0
100
AcDbSpline
70
4
71
3
72
8
73
4
74
0
42
0.000000001
43
0.0000000001
44
0.0000000001
40
-1
40
-1
40
-1
40
-1
40
0
40
0
40
0
40
0
41
1
41
1
41
1
41
1
10
-3.7484011610326973
20
0.12871157721348059
30
0
10
-4.6182723072475218
20
0.56164329602668595
30
0
10
-5.0568693732799508
20
1.0419273984661626
30
0
10
-5.6030889612344836
20
2.1596870521489642
30
0
0
SPLINE
5
110
100
AcDbEntity
8
0
100
AcDbSpline
70
4
71
3
72
8
73
4
74
0
42
0.000000001
43
0.0000000001
44
0.0000000001
40
-1
40
-1
40
-1
40
-1
40
0
40
0
40
0
40
0
41
1
41
1
41
1
41
1
10
-5.6030889612344836
20
2.1596870521489642
30
0
10
-5.9511854436073524
20
2.8720138575614351
30
0
10
-6.0304983971521819
20
3.3771377416469539
30
0
10
-5.8878079482003702
20
3.9729834822127152
30
0
0
SPLINE
5
111
100
AcDbEntity
8
0
100
AcDbSpline
70
4
71
3
72
8
73
4
74
0
42
0.000000001
43
0.0000000001
44
0.0000000001
40
-1
40
-1
40
-1
40
-1
40
0
40
0
40
0
40
0
41
1
41
1
41
1
41
1
10
-5.8878079482003702
20
3.9729834822127152
30
0
10
-5.7765363322613039
20
4.437633515356314
30
0
10
-5.3599902473245775
20
5.2845838493872277
30
0
10
-5.0226922601059272
20
5.731999400333625
30
0
0
SPLINE
5
112
100
AcDbEntity
8
0
100
AcDbSpline
70
4
71
3
72
8
73
4
74
0
42
0.000000001
43
0.0000000001
44
0.0000000001
40
-1
40
-1
40
-1
40
-1
40
0
40
0
40
0
40
0
41
1
41
1
41
1
41
1
10
-5.0226922601059272
20
5.731999400333625
30
0
10
-4.7769077519587588
20
6.0580239188433094
30
0
10
-4.3561307780886178
20
6.502534310256074
30
0
10
-4.2255340333017521
20
6.5741217903201443
30
0
0
SPLINE
5
113
100
AcDbEntity
8
0
100
AcDbSpline
70
4
71
3
72
8
73
4
74
0
42
0.000000001
43
0.0000000001
44
0.0000000001
40
-1
40
-1
40
-1
40
-1
40
0
40
0
40
0
40
0
41
1
41
1
41
1
41
1
10
-4.2255340333017521
20
6.5741217903201443
30
0
10
-4.1575346064765277
20
6.6113967229837334
30
0
10
-3.9015333980915923
20
6.5868754978985056
30
0
10
-3.4832590961243537
20
6.5030245440053491
30
0
0
SPLINE
5
114
100
AcDbEntity
8
0
100
AcDbSpline
70
4
71
3
72
8
73
4
74
0
42
0.000000001
43
0.0000000001
44
0.0000000001
40
-1
40
-1
40
-1
40
-1
40
0
40
0
40
0
40
0
41
1
41
1
41
1
41
1
10
-3.4832590961243537
20
6.5030245440053491
30
0
10
-2.8166442034261907
20
6.3693872054584011
30
0
10
-2.5232707786375341
20
6.2648605955015491
30
0
10
-2.8049300966001778
20
6.2613469357110407
30
0
0
SPLINE
5
115
100
AcDbEntity
8
0
100
AcDbSpline
70
4
71
3
72
8
73
4
74
0
42
0.000000001
43
0.0000000001
44
0.0000000001
40
-1
40
-1
40
-1
40
-1
40
0
40
0
40
0
40
0
41
1
41
1
41
1
41
1
10
-2.8049300966001778
20
6.2613469357110407
30
0
10
-3.279087230935902
20
6.2554240727091237
30
0
10
-4.2263771590495285
20
5.458727466789477
30
0
10
-4.5216600156787372
20
4.8175284280808572
30
0
0
SPLINE
5
116
100
AcDbEntity
8
0
100
AcDbSpline
70
4
71
3
72
8
73
4
74
0
42
0.000000001
43
0.0000000001
44
0.0000000001
40
-1
40
-1
40
-1
40
-1
40
0
40
0
40
0
40
0
41
1
41
1
41
1
41
1
10
-4.5216600156787372
20
4.8175284280808572
30
0
10
-4.6761408724292108
20
4.4820826469732733
30
0
10
-4.7035710720967021
20
4.3384384358633454
30
0
10
-4.7219805892727074
20
3.7685083206579817
30
0
0
SPLINE
5
117
100
AcDbEntity
8
0
100
AcDbSpline
70
4
71
3
72
8
73
4
74
0
42
0.000000001
43
0.0000000001
44
0.0000000001
40
-1
40
-1
40
-1
40
-1
40
0
40
0
40
0
40
0
41
1
41
1
41
1
41
1
10
-4.7219805892727074
20
3.7685083206579817
30
0
10
-4.7460268408031947
20
3.0241160314895588
30
0
10
-4.6513144434533826
20
2.5366901580100931
30
0
10
-4.3742160161308625
20
1.9787850760942893
30
0
0
SPLINE
5
118
100
AcDbEntity
8
0
100
AcDbSpline
70
4
71
3
72
8
73
4
74
0
42
0.000000001
43
0.0000000001
44
0.0000000001
40
-1
40
-1
40
-1
40
-1
40
0
40
0
40
0
40
0
41
1
41
1
41
1
41
1
10
-4.3742160161308625
20
1.9787850760942893
30
0
10
-4.1831507505192755
20
1.5940984622873566
30
0
10
-3.6838142952092223
20
1.048447316579062
30
0
10
-3.3854240814688619
20
0.89827937230760213
30
0
0
SPLINE
5
119
100
AcDbEntity
8
0
100
AcDbSpline
70
4
71
3
72
8
73
4
74
0
42
0.000000001
43
0.0000000001
44
0.0000000001
40
-1
40
-1
40
-1
40
-1
40
0
40
0
40
0
40
0
41
1
41
1
41
1
41
1
10
-3.3854240814688619
20
0.89827937230760213
30
0
10
-3.0086842139633752
20
0.70867908537088464
30
0
10
-2.319640650354895
20
0.59983574788638805
30
0
10
-1.7648486481231895
20
0.64228960906856258
30
0
0
SPLINE
5
120
100
AcDbEntity
8
0
100
AcDbSpline
70
4
71
3
72
8
73
4
74
0
42
0.000000001
43
0.0000000001
44
0.0000000001
40
-1
40
-1
40
-1
40
-1
40
0
40
0
40
0
40
0
41
1
41
1
41
1
41
1
10
-1.7648486481231895
20
0.64228960906856258
30
0
10
-1.3227817953595267
20
0.67611383024408056
30
0
10
-1.1762190720457522
20
0.71909416813753957
30
0
10
-0.75016016334395363
20
0.93983288201251014
30
0
0
SPLINE
5
121
100
AcDbEntity
8
0
100
AcDbSpline
70
4
71
3
72
8
73
4
74
0
42
0.000000001
43
0.0000000001
44
0.0000000001
40
-1
40
-1
40
-1
40
-1
40
0
40
0
40
0
40
0
41
1
41
1
41
1
41
1
10
-0.75016016334395363
20
0.93983288201251014
30
0
10
0.084263458502236155
20
1.3721427478986215
30
0
10
0.53925569603272105
20
1.9825810494835983
30
0
10
0.69569176520734022
20
2.8796553999722807
30
0
0
SPLINE
5
122
100
AcDbEntity
8
0
100
AcDbSpline
70
4
71
3
72
8
73
4
74
0
42
0.000000001
43
0.0000000001
44
0.0000000001
40
-1
40
-1
40
-1
40
-1
40
0
40
0
40
0
40
0
41
1
41
1
41
1
41
1
10
0.69569176520734022
20
2.8796553999722807
30
0
10
0.80256844512179626
20
3.4925391477306755
30
0
10
0.74565173457390888
20
4.0531681743700654
30
0
10
0.53393179566610272
20
4.4729265302553367
30
0
0
SPLINE
5
123
100
AcDbEntity
8
0
100
AcDbSpline
70
4
71
3
72
8
73
4
74
0
42
0.000000001
43
0.0000000001
44
0.0000000001
40
-1
40
-1
40
-1
40
-1
40
0
40
0
40
0
40
0
41
1
41
1
41
1
41
1
10
0.53393179566610272
20
4.4729265302553367
30
0
10
0.47006406650984989
20
4.5995518094157939
30
0
10
0.41780743786652863
20
4.7436500113129876
30
0
10
0.41780743786652863
20
4.7931388221734483
30
0
0
SPLINE
5
124
100
AcDbEntity
8
0
100
AcDbSpline
70
4
71
3
72
8
73
4
74
0
42
0.000000001
43
0.0000000001
44
0.0000000001
40
-1
40
-1
40
-1
40
-1
40
0
40
0
40
0
40
0
41
1
41
1
41
1
41
1
10
0.41780743786652863
20
4.7931388221734483
30
0
10
0.41780743786652863
20
4.8426276330339091
30
0
10
0.30611044400494336
20
5.024429960565846
30
0
10
0.169590836216158
20
5.1971372121579673
30
0
0
SPLINE
5
125
100
AcDbEntity
8
0
100
AcDbSpline
70
4
71
3
72
8
73
4
74
0
42
0.000000001
43
0.0000000001
44
0.0000000001
40
-1
40
-1
40
-1
40
-1
40
0
40
0
40
0
40
0
41
1
41
1
41
1
41
1
10
0.169590836216158
20
5.1971372121579673
30
0
10
0.033071228427377086
20
5.3698482787987167
30
0
10
-0.078625765434212624
20
5.5210443786766294
30
0
10
-0.078625765434212624
20
5.5331323602686266
30
0
0
SPLINE
5
126
100
AcDbEntity
8
0
100
AcDbSpline
70
4
71
3
72
8
73
4
74
0
42
0.000000001
43
0.0000000001
44
0.0000000001
40
-1
40
-1
40
-1
40
-1
40
0
40
0
40
0
40
0
41
1
41
1
41
1
41
1
10
-0.078625765434212624
20
5.5331323602686266
30
0
10
-0.078625765434212624
20
5.5579702343903525
30
0
10
0.58616553401762861
20
5.339812400915247
30
0
10
1.1003673263241209
20
5.1462330182548577
30
0
0
SPLINE
5
127
100
AcDbEntity
8
0
100
AcDbSpline
70
4
71
3
72
8
73
4
74
0
42
0.000000001
43
0.0000000001
44
0.0000000001
40
-1
40
-1
40
-1
40
-1
40
0
40
0
40
0
40
0
41
1
41
1
41
1
41
1
10
1.1003673263241209
20
5.1462330182548577
30
0
10
1.2880619964689144
20
5.0755706874841655
30
0
10
1.4853000107678449
20
4.9598640775098479
30
0
10
1.5386744486604798
20
4.8891063705233417
30
0
0
SPLINE
5
128
100
AcDbEntity
8
0
100
AcDbSpline
70
4
71
3
72
8
73
4
74
0
42
0.000000001
43
0.0000000001
44
0.0000000001
40
-1
40
-1
40
-1
40
-1
40
0
40
0
40
0
40
0
41
1
41
1
41
1
41
1
10
1.5386744486604798
20
4.8891063705233417
30
0
10
1.7125662728529845
20
4.6585744268088058
30
0
10
1.8483762815961269
20
4.1946149174676872
30
0
10
1.9182660650187433
20
3.5923331898589428
30
0
0
SPLINE
5
129
100
AcDbEntity
8
0
100
AcDbSpline
70
4
71
3
72
8
73
4
74
0
42
0.000000001
43
0.0000000001
44
0.0000000001
40
-1
40
-1
40
-1
40
-1
40
0
40
0
40
0
40
0
41
1
41
1
41
1
41
1
10
1.9182660650187433
20
3.5923331898589428
30
0
10
1.980764191715938
20
3.0537665894611532
30
0
10
1.9750797692535516
20
2.9590999726949319
30
0
10
1.8538909343943688
20
2.5200412857779719
30
0
0
SPLINE
5
130
100
AcDbEntity
8
0
100
AcDbSpline
70
4
71
3
72
8
73
4
74
0
42
0.000000001
43
0.0000000001
44
0.0000000001
40
-1
40
-1
40
-1
40
-1
40
0
40
0
40
0
40
0
41
1
41
1
41
1
41
1
10
1.8538909343943688
20
2.5200412857779719
30
0
10
1.6414594889166079
20
1.7504124499057339
30
0
10
1.492266289570745
20
1.4908746914384929
30
0
10
0.96248765369785882
20
0.96933846813607172
30
0
0
SPLINE
5
131
100
AcDbEntity
8
0
100
AcDbSpline
70
4
71
3
72
8
73
4
74
0
42
0.000000001
43
0.0000000001
44
0.0000000001
40
-1
40
-1
40
-1
40
-1
40
0
40
0
40
0
40
0
41
1
41
1
41
1
41
1
10
0.96248765369785882
20
0.96933846813607172
30
0
10
0.69380140860994644
20
0.70483351634934799
30
0
10
0.44818476260260809
20
0.48842106762360338
30
0
10
0.41667436842268479
20
0.48842106762360338
30
0
0
SPLINE
5
132
100
AcDbEntity
8
0
100
AcDbSpline
70
4
71
3
72
8
73
4
74
0
42
0.000000001
43
0.0000000001
44
0.0000000001
40
-1
40
-1
40
-1
40
-1
40
0
40
0
40
0
40
0
41
1
41
1
41
1
41
1
10
0.41667436842268479
20
0.48842106762360338
30
0
10
0.3851639742427615
20
0.48842106762360338
30
0
10
0.23988882984244952
20
0.40453577829275389
30
0
10
0.093839230569745524
20
0.30200634629500289
30
0
0
SPLINE
5
133
100
AcDbEntity
8
0
100
AcDbSpline
70
4
71
3
72
8
73
4
74
0
42
0.000000001
43
0.0000000001
44
0.0000000001
40
-1
40
-1
40
-1
40
-1
40
0
40
0
40
0
40
0
41
1
41
1
41
1
41
1
10
0.093839230569745524
20
0.30200634629500289
30
0
10
-0.21383871906637264
20
0.086009737870194058
30
0
10
-0.70463137296400191
20
-0.11314724589087
30
0
10
-1.2067623513973436
20
-0.22576366647288459
30
0
0
SPLINE
5
134
100
AcDbEntity
8
0
100
AcDbSpline
70
4
71
3
72
8
73
4
74
0
42
0.000000001
43
0.0000000001
44
0.0000000001
40
-1
40
-1
40
-1
40
-1
40
0
40
0
40
0
40
0
41
1
41
1
41
1
41
1
10
-2.5936584259066908
20
2.8098438250466318
30
0
10
-2.8578143007435397
20
2.6083672917170198
30
0
10
-3.3265063779132431
20
2.5558226269019491
30
0
10
-3.5846878865916376
20
2.6987496088689733
30
0
0
SPLINE
5
135
100
AcDbEntity
8
0
100
AcDbSpline
70
4
71
3
72
8
73
4
74
0
42
0.000000001
43
0.0000000001
44
0.0000000001
40
-1
40
-1
40
-1
40
-1
40
0
40
0
40
0
40
0
41
1
41
1
41
1
41
1
10
-3.5846878865916376
20
2.6987496088689733
30
0
10
-3.6870761617899861
20
2.7554297864016464
30
0
10
-3.8615822088123175
20
2.9026143626425149
30
0
10
-3.9724780424610873
20
3.0258213582282778
30
0
0
SPLINE
5
136
100
AcDbEntity
8
0
100
AcDbSpline
70
4
71
3
72
8
73
4
74
0
42
0.000000001
43
0.0000000001
44
0.0000000001
40
-1
40
-1
40
-1
40
-1
40
0
40
0
40
0
40
0
41
1
41
1
41
1
41
1
10
-3.9724780424610873
20
3.0258213582282778
30
0
10
-4.2637379303073519
20
3.3494214133320277
30
0
10
-4.2484395852911288
20
3.6163794413894301
30
0
10
-3.8985843654986896
20
4.3152505702751665
30
0
0
SPLINE
5
137
100
AcDbEntity
8
0
100
AcDbSpline
70
4
71
3
72
8
73
4
74
0
42
0.000000001
43
0.0000000001
44
0.0000000001
40
-1
40
-1
40
-1
40
-1
40
0
40
0
40
0
40
0
41
1
41
1
41
1
41
1
10
-3.8985843654986896
20
4.3152505702751665
30
0
10
-3.5579806386399992
20
4.9956416035851925
30
0
10
-3.3829366697604879
20
5.1734419451016667
30
0
10
-3.0619995186022053
20
5.1650297628670616
30
0
0
SPLINE
5
138
100
AcDbEntity
8
0
100
AcDbSpline
70
4
71
3
72
8
73
4
74
0
42
0.000000001
43
0.0000000001
44
0.0000000001
40
-1
40
-1
40
-1
40
-1
40
0
40
0
40
0
40
0
41
1
41
1
41
1
41
1
10
-3.0619995186022053
20
5.1650297628670616
30
0
10
-2.7523587264446814
20
5.1569075243285223
30
0
10
-2.4909477790988932
20
4.9577314653242954
30
0
10
-2.2791076661591703
20
4.5685087586933504
30
0
0
SPLINE
5
139
100
AcDbEntity
8
0
100
AcDbSpline
70
4
71
3
72
8
73
4
74
0
42
0.000000001
43
0.0000000001
44
0.0000000001
40
-1
40
-1
40
-1
40
-1
40
0
40
0
40
0
40
0
41
1
41
1
41
1
41
1
10
-2.2791076661591703
20
4.5685087586933504
30
0
10
-2.1267594215942509
20
4.2885948254800654
30
0
10
-2.1133495256511026
20
4.2148423053170703
30
0
10
-2.1453635062505105
20
3.8329750124495332
30
0
0
SPLINE
5
140
100
AcDbEntity
8
0
100
AcDbSpline
70
4
71
3
72
8
73
4
74
0
42
0.000000001
43
0.0000000001
44
0.0000000001
40
-1
40
-1
40
-1
40
-1
40
0
40
0
40
0
40
0
41
1
41
1
41
1
41
1
10
-2.1453635062505105
20
3.8329750124495332
30
0
10
-2.1880844208369599
20
3.3233913365126533
30
0
10
-2.322469508915872
20
3.0166881318021321
30
0
10
-2.5936584259066908
20
2.8098438250466318
30
0
0
SPLINE
5
141
100
AcDbEntity
8
0
100
AcDbSpline
70
4
71
3
72
8
73
4
74
0
42
0.000000001
43
0.0000000001
44
0.0000000001
40
-1
40
-1
40
-1
40
-1
40
0
40
0
40
0
40
0
41
1
41
1
41
1
41
1
10
-1.758651101619737
20
-0.77888086235493592
30
0
10
-0.36966819550842356
20
-0.65272864922489848
30
0
10
0.35569272355689741
20
-0.35601705688283136
30
0
10
1.1779863982761318
20
0.42235205540640752
30
0
0
SPLINE
5
142
100
AcDbEntity
8
0
100
AcDbSpline
70
4
71
3
72
8
73
4
74
0
42
0.000000001
43
0.0000000001
44
0.0000000001
40
-1
40
-1
40
-1
40
-1
40
0
40
0
40
0
40
0
41
1
41
1
41
1
41
1
10
1.1779863982761318
20
0.42235205540640752
30
0
10
1.5947842764225983
20
0.81688912478238951
30
0
10
1.7615228844292119
20
1.0284183112585676
30
0
10
1.9524546233386619
20
1.4048873103111514
30
0
0
SPLINE
5
143
100
AcDbEntity
8
0
100
AcDbSpline
70
4
71
3
72
8
73
4
74
0
42
0.000000001
43
0.0000000001
44
0.0000000001
40
-1
40
-1
40
-1
40
-1
40
0
40
0
40
0
40
0
41
1
41
1
41
1
41
1
10
1.9524546233386619
20
1.4048873103111514
30
0
10
2.3111855537745551
20
2.1122049568691859
30
0
10
2.3732087069170094
20
2.3923554230976851
30
0
10
2.3677703550914186
20
3.2808611743578275
30
0
0
SPLINE
5
144
100
AcDbEntity
8
0
100
AcDbSpline
70
4
71
3
72
8
73
4
74
0
42
0.000000001
43
0.0000000001
44
0.0000000001
40
-1
40
-1
40
-1
40
-1
40
0
40
0
40
0
40
0
41
1
41
1
41
1
41
1
10
2.3677703550914186
20
3.2808611743578275
30
0
10
2.3629691163874478
20
4.0657807251490263
30
0
10
2.3006655571705048
20
4.4159907444642865
30
0
10
2.0869465327792858
20
4.8593871416763657
30
0
0
SPLINE
5
145
100
AcDbEntity
8
0
100
AcDbSpline
70
4
71
3
72
8
73
4
74
0
42
0.000000001
43
0.0000000001
44
0.0000000001
40
-1
40
-1
40
-1
40
-1
40
0
40
0
40
0
40
0
41
1
41
1
41
1
41
1
10
2.0869465327792858
20
4.8593871416763657
30
0
10
2.0221650994755525
20
4.9937836749011799
30
0
10
1.9691645363488997
20
5.1504753523341718
30
0
10
1.9691645363488997
20
5.2075866303623153
30
0
0
SPLINE
5
146
100
AcDbEntity
8
0
100
AcDbSpline
70
4
71
3
72
8
73
4
74
0
42
0.000000001
43
0.0000000001
44
0.0000000001
40
-1
40
-1
40
-1
40
-1
40
0
40
0
40
0
40
0
41
1
41
1
41
1
41
1
10
1.9691645363488997
20
5.2075866303623153
30
0
10
1.9691645363488997
20
5.3279075416576083
30
0
10
1.7047587758266269
20
5.4394137830875744
30
0
10
0.29370199832781996
20
5.9141660650099626
30
0
0
SPLINE
5
147
100
AcDbEntity
8
0
100
AcDbSpline
70
4
71
3
72
8
73
4
74
0
42
0.000000001
43
0.0000000001
44
0.0000000001
40
-1
40
-1
40
-1
40
-1
40
0
40
0
40
0
40
0
41
1
41
1
41
1
41
1
10
0.29370199832781996
20
5.9141660650099626
30
0
10
-1.8241802844554345
20
6.6267313109619641
30
0
10
-2.8080756041976529
20
6.912560477079901
30
0
10
-3.7719075831816906
20
7.0952478958945742
30
0
0
SPLINE
5
148
100
AcDbEntity
8
0
100
AcDbSpline
70
4
71
3
72
8
73
4
74
0
42
0.000000001
43
0.0000000001
44
0.0000000001
40
-1
40
-1
40
-1
40
-1
40
0
40
0
40
0
40
0
41
1
41
1
41
1
41
1
10
-3.7719075831816906
20
7.0952478958945742
30
0
10
-4.506922482811488
20
7.2345677493795968
30
0
10
-4.695431665839318
20
7.2133751542261981
30
0
10
-4.7213034181404439
20
6.9885161878281554
30
0
0
SPLINE
5
149
100
AcDbEntity
8
0
100
AcDbSpline
70
4
71
3
72
8
73
4
74
0
42
0.000000001
43
0.0000000001
44
0.0000000001
40
-1
40
-1
40
-1
40
-1
40
0
40
0
40
0
40
0
41
1
41
1
41
1
41
1
10
-4.7213034181404439
20
6.9885161878281554
30
0
10
-4.7335440016777364
20
6.8821259266143375
30
0
10
-4.8631030532365704
20
6.6950397567264197
30
0
10
-5.0650869880342997
20
6.4920829845274097
30
0
0
SPLINE
5
150
100
AcDbEntity
8
0
100
AcDbSpline
70
4
71
3
72
8
73
4
74
0
42
0.000000001
43
0.0000000001
44
0.0000000001
40
-1
40
-1
40
-1
40
-1
40
0
40
0
40
0
40
0
41
1
41
1
41
1
41
1
10
-5.0650869880342997
20
6.4920829845274097
30
0
10
-6.0021277879967849
20
5.5505270745083912
30
0
10
-6.5305940471400987
20
4.2916163439969868
30
0
10
-6.4391397013224205
20
3.2188055933019966
30
0
0
SPLINE
5
151
100
AcDbEntity
8
0
100
AcDbSpline
70
4
71
3
72
8
73
4
74
0
42
0.000000001
43
0.0000000001
44
0.0000000001
40
-1
40
-1
40
-1
40
-1
40
0
40
0
40
0
40
0
41
1
41
1
41
1
41
1
10
-6.4391397013224205
20
3.2188055933019966
30
0
10
-6.38913967394521
20
2.6322723864481068
30
0
10
-6.3191812196472092
20
2.3626972350288256
30
0
10
-6.0924223590301896
20
1.8827603020149031
30
0
0
SPLINE
5
152
100
AcDbEntity
8
0
100
AcDbSpline
70
4
71
3
72
8
73
4
74
0
42
0.000000001
43
0.0000000001
44
0.0000000001
40
-1
40
-1
40
-1
40
-1
40
0
40
0
40
0
40
0
41
1
41
1
41
1
41
1
10
-6.0924223590301896
20
1.8827603020149031
30
0
10
-5.9930346195812811
20
1.6724061505175269
30
0
10
-5.9117168579800872
20
1.4806808814925221
30
0
10
-5.9117168579800872
20
1.4567071158860534
30
0
0
SPLINE
5
153
100
AcDbEntity
8
0
100
AcDbSpline
70
4
71
3
72
8
73
4
74
0
42
0.000000001
43
0.0000000001
44
0.0000000001
40
-1
40
-1
40
-1
40
-1
40
0
40
0
40
0
40
0
41
1
41
1
41
1
41
1
10
-5.9117168579800872
20
1.4567071158860534
30
0
10
-5.9117168579800872
20
1.385194029270318
30
0
10
-5.1303338572711947
20
0.43956555483613435
30
0
10
-4.9398942596353335
20
0.28061155356408296
30
0
0
SPLINE
5
154
100
AcDbEntity
8
0
100
AcDbSpline
70
4
71
3
72
8
73
4
74
0
42
0.000000001
43
0.0000000001
44
0.0000000001
40
-1
40
-1
40
-1
40
-1
40
0
40
0
40
0
40
0
41
1
41
1
41
1
41
1
10
-4.9398942596353335
20
0.28061155356408296
30
0
10
-4.842995839419113
20
0.19973252255562457
30
0
10
-4.6659794903966141
20
0.084476088319940246
30
0
10
-4.546524595140891
20
0.024488263622908235
30
0
0
SPLINE
5
155
100
AcDbEntity
8
0
100
AcDbSpline
70
4
71
3
72
8
73
4
74
0
42
0.000000001
43
0.0000000001
44
0.0000000001
40
-1
40
-1
40
-1
40
-1
40
0
40
0
40
0
40
0
41
1
41
1
41
1
41
1
10
-4.546524595140891
20
0.024488263622908235
30
0
10
-4.4270696998851644
20
-0.035499561074119335
30
0
10
-4.2734853795633239
20
-0.13405752744546362
30
0
10
-4.2052265294310898
20
-0.1945298633188175
30
0
0
SPLINE
5
156
100
AcDbEntity
8
0
100
AcDbSpline
70
4
71
3
72
8
73
4
74
0
42
0.000000001
43
0.0000000001
44
0.0000000001
40
-1
40
-1
40
-1
40
-1
40
0
40
0
40
0
40
0
41
1
41
1
41
1
41
1
10
-4.2052265294310898
20
-0.1945298633188175
30
0
10
-4.0355007383452479
20
-0.3448923750705335
30
0
10
-3.1859466336226694
20
-0.61954535621963736
30
0
10
-2.6597350682211474
20
-0.69417533756810368
30
0
0
SPLINE
5
157
100
AcDbEntity
8
0
100
AcDbSpline
70
4
71
3
72
8
73
4
74
0
42
0.000000001
43
0.0000000001
44
0.0000000001
40
-1
40
-1
40
-1
40
-1
40
0
40
0
40
0
40
0
41
1
41
1
41
1
41
1
10
-2.6597350682211474
20
-0.69417533756810368
30
0
10
-2.4216970163222173
20
-0.72793470291686813
30
0
10
-2.2133572105027888
20
-0.76914104319622645
30
0
10
-2.1967541188542583
20
-0.78574413484475691
30
0
0
SPLINE
5
158
100
AcDbEntity
8
0
100
AcDbSpline
70
4
71
3
72
8
73
4
74
0
42
0.000000001
43
0.0000000001
44
0.0000000001
40
-1
40
-1
40
-1
40
-1
40
0
40
0
40
0
40
0
41
1
41
1
41
1
41
1
10
-2.1967541188542583
20
-0.78574413484475691
30
0
10
-2.1801510272057278
20
-0.80234722649328294
30
0
10
-1.9830045740739788
20
-0.79925703710097995
30
0
10
-1.758651101619737
20
-0.77888086235493592
30
0
0
SPLINE
5
159
100
AcDbEntity
8
0
100
AcDbSpline
70
4
71
3
72
8
73
4
74
0
42
0.000000001
43
0.0000000001
44
0.0000000001
40
-1
40
-1
40
-1
40
-1
40
0
40
0
40
0
40
0
41
1
41
1
41
1
41
1
10
9.2068726043019655
20
2.563769373203395
30
0
10
8.3677831779782643
20
2.1626780502768206
30
0
10
7.6704209008266711
20
2.1774155831440734
30
0
10
6.8522036055712388
20
2.6135214224194936
30
0
0
SPLINE
5
160
100
AcDbEntity
8
0
100
AcDbSpline
70
4
71
3
72
8
73
4
74
0
42
0.000000001
43
0.0000000001
44
0.0000000001
40
-1
40
-1
40
-1
40
-1
40
0
40
0
40
0
40
0
41
1
41
1
41
1
41
1
10
6.8522036055712388
20
2.6135214224194936
30
0
10
5.9993037031979801
20
3.0681111723192567
30
0
10
5.3489103972850982
20
3.9319755244622501
30
0
10
5.0038239882832514
20
5.0685738882922093
30
0
0
LINE
5
161
100
AcDbEntity
8
0
100
AcDbLine
10
5.0038239882832514
20
5.0685738882922093
30
0
11
4.8661179003697654
21
5.5221278524882544
31
0
0
LINE
5
162
100
AcDbEntity
8
0
100
AcDbLine
10
4.8661179003697654
20
5.5221278524882544
30
0
11
5.1086176516443738
21
5.9886434444131309
31
0
0
SPLINE
5
163
100
AcDbEntity
8
0
100
AcDbSpline
70
4
71
3
72
8
73
4
74
0
42
0.000000001
43
0.0000000001
44
0.0000000001
40
-1
40
-1
40
-1
40
-1
40
0
40
0
40
0
40
0
41
1
41
1
41
1
41
1
10
5.1086176516443738
20
5.9886434444131309
30
0
10
5.4217625659708268
20
6.5910777739671778
30
0
10
5.5096002456849202
20
6.6689524541775613
30
0
10
5.4328262070050037
20
6.2760920986755542
30
0
0
SPLINE
5
164
100
AcDbEntity
8
0
100
AcDbSpline
70
4
71
3
72
8
73
4
74
0
42
0.000000001
43
0.0000000001
44
0.0000000001
40
-1
40
-1
40
-1
40
-1
40
0
40
0
40
0
40
0
41
1
41
1
41
1
41
1
10
5.4328262070050037
20
6.2760920986755542
30
0
10
5.4010220540803822
20
6.1133573842087197
30
0
10
5.3933194708914156
20
5.7469410383027109
30
0
10
5.4157061762667746
20
5.4618329163763102
30
0
0
SPLINE
5
165
100
AcDbEntity
8
0
100
AcDbSpline
70
4
71
3
72
8
73
4
74
0
42
0.000000001
43
0.0000000001
44
0.0000000001
40
-1
40
-1
40
-1
40
-1
40
0
40
0
40
0
40
0
41
1
41
1
41
1
41
1
10
5.4157061762667746
20
5.4618329163763102
30
0
10
5.4496562940471671
20
5.0294505645661802
30
0
10
5.494000511826731
20
4.8731632822882309
30
0
10
5.6830056511767824
20
4.5197562522189605
30
0
0
SPLINE
5
166
100
AcDbEntity
8
0
100
AcDbSpline
70
4
71
3
72
8
73
4
74
0
42
0.000000001
43
0.0000000001
44
0.0000000001
40
-1
40
-1
40
-1
40
-1
40
0
40
0
40
0
40
0
41
1
41
1
41
1
41
1
10
5.6830056511767824
20
4.5197562522189605
30
0
10
6.109367856244865
20
3.7225331695880337
30
0
10
6.6701571149268224
20
3.267035438113739
30
0
10
7.5112418116853075
20
3.0347829074659582
30
0
0
SPLINE
5
167
100
AcDbEntity
8
0
100
AcDbSpline
70
4
71
3
72
8
73
4
74
0
42
0.000000001
43
0.0000000001
44
0.0000000001
40
-1
40
-1
40
-1
40
-1
40
0
40
0
40
0
40
0
41
1
41
1
41
1
41
1
10
7.5112418116853075
20
3.0347829074659582
30
0
10
7.8760138716307226
20
2.9340579934713684
30
0
10
8.8188268401741432
20
2.9832034499549032
30
0
10
9.2295015652654868
20
3.1243488042105616
30
0
0
SPLINE
5
168
100
AcDbEntity
8
0
100
AcDbSpline
70
4
71
3
72
8
73
4
74
0
42
0.000000001
43
0.0000000001
44
0.0000000001
40
-1
40
-1
40
-1
40
-1
40
0
40
0
40
0
40
0
41
1
41
1
41
1
41
1
10
9.2295015652654868
20
3.1243488042105616
30
0
10
9.630711154699668
20
3.262243737031354
30
0
10
10.050225347472459
20
3.647479717841362
30
0
10
10.258912322717446
20
4.0696453694137213
30
0
0
SPLINE
5
169
100
AcDbEntity
8
0
100
AcDbSpline
70
4
71
3
72
8
73
4
74
0
42
0.000000001
43
0.0000000001
44
0.0000000001
40
-1
40
-1
40
-1
40
-1
40
0
40
0
40
0
40
0
41
1
41
1
41
1
41
1
10
10.258912322717446
20
4.0696453694137213
30
0
10
10.419926450251031
20
4.3953704066057631
30
0
10
10.436586767629045
20
4.4896021078278814
30
0
10
10.437460413765884
20
5.0804272443933085
30
0
0
SPLINE
5
170
100
AcDbEntity
8
0
100
AcDbSpline
70
4
71
3
72
8
73
4
74
0
42
0.000000001
43
0.0000000001
44
0.0000000001
40
-1
40
-1
40
-1
40
-1
40
0
40
0
40
0
40
0
41
1
41
1
41
1
41
1
10
10.437460413765884
20
5.0804272443933085
30
0
10
10.438574407966566
20
5.822164259713527
30
0
10
10.351072452532133
20
6.1480895869587693
30
0
10
9.9853504454772324
20
6.7643897107675421
30
0
0
SPLINE
5
171
100
AcDbEntity
8
0
100
AcDbSpline
70
4
71
3
72
8
73
4
74
0
42
0.000000001
43
0.0000000001
44
0.0000000001
40
-1
40
-1
40
-1
40
-1
40
0
40
0
40
0
40
0
41
1
41
1
41
1
41
1
10
9.9853504454772324
20
6.7643897107675421
30
0
10
9.4581336147610529
20
7.6528363287738843
30
0
10
8.738067983197606
20
8.1610866452137145
30
0
10
7.8827264496995619
20
8.2485008545296026
30
0
0
SPLINE
5
172
100
AcDbEntity
8
0
100
AcDbSpline
70
4
71
3
72
8
73
4
74
0
42
0.000000001
43
0.0000000001
44
0.0000000001
40
-1
40
-1
40
-1
40
-1
40
0
40
0
40
0
40
0
41
1
41
1
41
1
41
1
10
7.8827264496995619
20
8.2485008545296026
30
0
10
7.6166229925358353
20
8.2756964287061976
30
0
10
7.2313564913367667
20
8.2837881468556773
30
0
10
7.026578033415749
20
8.2664830862587735
30
0
0
SPLINE
5
173
100
AcDbEntity
8
0
100
AcDbSpline
70
4
71
3
72
8
73
4
74
0
42
0.000000001
43
0.0000000001
44
0.0000000001
40
-1
40
-1
40
-1
40
-1
40
0
40
0
40
0
40
0
41
1
41
1
41
1
41
1
10
7.026578033415749
20
8.2664830862587735
30
0
10
6.8217995754947314
20
8.2491799331861806
30
0
10
6.683099667412491
20
8.2582521188342071
30
0
10
6.718354531825188
20
8.2866475258057157
30
0
0
SPLINE
5
174
100
AcDbEntity
8
0
100
AcDbSpline
70
4
71
3
72
8
73
4
74
0
42
0.000000001
43
0.0000000001
44
0.0000000001
40
-1
40
-1
40
-1
40
-1
40
0
40
0
40
0
40
0
41
1
41
1
41
1
41
1
10
6.718354531825188
20
8.2866475258057157
30
0
10
6.7536113037622014
20
8.3150410252529063
30
0
10
6.8865085228744505
20
8.48198755340999
30
0
10
7.0136850765623038
20
8.6576381150220669
30
0
0
SPLINE
5
175
100
AcDbEntity
8
0
100
AcDbSpline
70
4
71
3
72
8
73
4
74
0
42
0.000000001
43
0.0000000001
44
0.0000000001
40
-1
40
-1
40
-1
40
-1
40
0
40
0
40
0
40
0
41
1
41
1
41
1
41
1
10
7.0136850765623038
20
8.6576381150220669
30
0
10
7.1408616302501571
20
8.8332886766341367
30
0
10
7.2885536079591384
20
8.9937496221160131
30
0
10
7.341891802889764
20
9.0142173580292386
30
0
0
SPLINE
5
176
100
AcDbEntity
8
0
100
AcDbSpline
70
4
71
3
72
8
73
4
74
0
42
0.000000001
43
0.0000000001
44
0.0000000001
40
-1
40
-1
40
-1
40
-1
40
0
40
0
40
0
40
0
41
1
41
1
41
1
41
1
10
7.341891802889764
20
9.0142173580292386
30
0
10
7.4968342805247667
20
9.0736767984906699
30
0
10
7.9797297837531733
20
8.9288270320128795
30
0
10
8.5158795508422926
20
8.6620731090573155
30
0
0
SPLINE
5
177
100
AcDbEntity
8
0
100
AcDbSpline
70
4
71
3
72
8
73
4
74
0
42
0.000000001
43
0.0000000001
44
0.0000000001
40
-1
40
-1
40
-1
40
-1
40
0
40
0
40
0
40
0
41
1
41
1
41
1
41
1
10
8.5158795508422926
20
8.6620731090573155
30
0
10
9.951747497122394
20
7.9476747322374086
30
0
10
11.031440595550368
20
5.914270978847358
30
0
10
10.714196411468318
20
4.5219422750853688
30
0
0
SPLINE
5
178
100
AcDbEntity
8
0
100
AcDbSpline
70
4
71
3
72
8
73
4
74
0
42
0.000000001
43
0.0000000001
44
0.0000000001
40
-1
40
-1
40
-1
40
-1
40
0
40
0
40
0
40
0
41
1
41
1
41
1
41
1
10
10.714196411468318
20
4.5219422750853688
30
0
10
10.490188200915313
20
3.5388004274480611
30
0
10
10.049798062025621
20
2.9666881044249216
30
0
10
9.2068726043019655
20
2.563769373203395
30
0
0
SPLINE
5
179
100
AcDbEntity
8
0
100
AcDbSpline
70
4
71
3
72
8
73
4
74
0
42
0.000000001
43
0.0000000001
44
0.0000000001
40
-1
40
-1
40
-1
40
-1
40
0
40
0
40
0
40
0
41
1
41
1
41
1
41
1
10
7.0840231281992327
20
4.7730869265611631
30
0
10
6.984168045292849
20
4.7234989244362602
30
0
10
6.8885076083578634
20
4.6781151059043413
30
0
10
6.8714428958248064
20
4.6722132256699034
30
0
0
SPLINE
5
180
100
AcDbEntity
8
0
100
AcDbSpline
70
4
71
3
72
8
73
4
74
0
42
0.000000001
43
0.0000000001
44
0.0000000001
40
-1
40
-1
40
-1
40
-1
40
0
40
0
40
0
40
0
41
1
41
1
41
1
41
1
10
6.8714428958248064
20
4.6722132256699034
30
0
10
6.8348928224013861
20
4.6595930447936773
30
0
10
6.1936651708280221
20
4.867509380214905
30
0
10
6.1633317191512171
20
4.9018181125667493
30
0
0
SPLINE
5
181
100
AcDbEntity
8
0
100
AcDbSpline
70
4
71
3
72
8
73
4
74
0
42
0.000000001
43
0.0000000001
44
0.0000000001
40
-1
40
-1
40
-1
40
-1
40
0
40
0
40
0
40
0
41
1
41
1
41
1
41
1
10
6.1633317191512171
20
4.9018181125667493
30
0
10
5.9323858426600617
20
5.1630383074809094
30
0
10
5.8356400243891393
20
5.8317877198889434
30
0
10
5.9646115584585724
20
6.2754378178350834
30
0
0
SPLINE
5
182
100
AcDbEntity
8
0
100
AcDbSpline
70
4
71
3
72
8
73
4
74
0
42
0.000000001
43
0.0000000001
44
0.0000000001
40
-1
40
-1
40
-1
40
-1
40
0
40
0
40
0
40
0
41
1
41
1
41
1
41
1
10
5.9646115584585724
20
6.2754378178350834
30
0
10
6.0641976804363695
20
6.6180005721665491
30
0
10
6.3573383872584444
20
6.9310520178015045
30
0
10
6.6720608241944257
20
7.0309414361455858
30
0
0
SPLINE
5
183
100
AcDbEntity
8
0
100
AcDbSpline
70
4
71
3
72
8
73
4
74
0
42
0.000000001
43
0.0000000001
44
0.0000000001
40
-1
40
-1
40
-1
40
-1
40
0
40
0
40
0
40
0
41
1
41
1
41
1
41
1
10
6.6720608241944257
20
7.0309414361455858
30
0
10
7.1805934542330618
20
7.192342791115367
30
0
10
7.8734768642901276
20
6.4302791966813233
30
0
10
7.7707948303470786
20
5.8225076140904486
30
0
0
SPLINE
5
184
100
AcDbEntity
8
0
100
AcDbSpline
70
4
71
3
72
8
73
4
74
0
42
0.000000001
43
0.0000000001
44
0.0000000001
40
-1
40
-1
40
-1
40
-1
40
0
40
0
40
0
40
0
41
1
41
1
41
1
41
1
10
7.7707948303470786
20
5.8225076140904486
30
0
10
7.7169148985106384
20
5.5035924387073765
30
0
10
7.313389574556548
20
4.8869852034836869
30
0
10
7.0840231281992327
20
4.7730869265611631
30
0
0
SPLINE
5
185
100
AcDbEntity
8
0
100
AcDbSpline
70
4
71
3
72
8
73
4
74
0
42
0.000000001
43
0.0000000001
44
0.0000000001
40
-1
40
-1
40
-1
40
-1
40
0
40
0
40
0
40
0
41
1
41
1
41
1
41
1
10
9.6058294075186712
20
2.1660238479275051
30
0
10
9.8116856166783606
20
2.2761948223361017
30
0
10
10.423405774603847
20
2.7535146319881454
30
0
10
10.569144447413006
20
2.9176914348380523
30
0
0
SPLINE
5
186
100
AcDbEntity
8
0
100
AcDbSpline
70
4
71
3
72
8
73
4
74
0
42
0.000000001
43
0.0000000001
44
0.0000000001
40
-1
40
-1
40
-1
40
-1
40
0
40
0
40
0
40
0
41
1
41
1
41
1
41
1
10
10.569144447413006
20
2.9176914348380523
30
0
10
11.251713873492179
20
3.6866144867132844
30
0
10
11.475393989862788
20
5.0638088925502478
30
0
10
11.118335958252237
20
6.2990586914430491
30
0
0
SPLINE
5
187
100
AcDbEntity
8
0
100
AcDbSpline
70
4
71
3
72
8
73
4
74
0
42
0.000000001
43
0.0000000001
44
0.0000000001
40
-1
40
-1
40
-1
40
-1
40
0
40
0
40
0
40
0
41
1
41
1
41
1
41
1
10
11.118335958252237
20
6.2990586914430491
30
0
10
10.97418816072282
20
6.7977370508640034
30
0
10
10.601942420506386
20
7.5836790346887017
30
0
10
10.485564361972756
20
7.6350543870979193
30
0
0
SPLINE
5
188
100
AcDbEntity
8
0
100
AcDbSpline
70
4
71
3
72
8
73
4
74
0
42
0.000000001
43
0.0000000001
44
0.0000000001
40
-1
40
-1
40
-1
40
-1
40
0
40
0
40
0
40
0
41
1
41
1
41
1
41
1
10
10.485564361972756
20
7.6350543870979193
30
0
10
10.459866194384407
20
7.6463984342065849
30
0
10
10.32730851460045
20
7.7970127391680411
30
0
10
10.190985381816237
20
7.9697543261978554
30
0
0
SPLINE
5
189
100
AcDbEntity
8
0
100
AcDbSpline
70
4
71
3
72
8
73
4
74
0
42
0.000000001
43
0.0000000001
44
0.0000000001
40
-1
40
-1
40
-1
40
-1
40
0
40
0
40
0
40
0
41
1
41
1
41
1
41
1
10
10.190985381816237
20
7.9697543261978554
30
0
10
9.5566267253056481
20
8.7735869805845432
30
0
10
8.6806915592895031
20
9.293608629579877
30
0
10
7.6696502610029116
20
9.4666153624896445
30
0
0
LINE
5
190
100
AcDbEntity
8
0
100
AcDbLine
10
7.6696502610029116
20
9.4666153624896445
30
0
11
7.0924200502393111
21
9.565388879108724
31
0
0
LINE
5
191
100
AcDbEntity
8
0
100
AcDbLine
10
7.0924200502393111
20
9.565388879108724
30
0
11
6.7917541599896811
21
9.2310761674449857
31
0
0
SPLINE
5
192
100
AcDbEntity
8
0
100
AcDbSpline
70
4
71
3
72
8
73
4
74
0
42
0.000000001
43
0.0000000001
44
0.0000000001
40
-1
40
-1
40
-1
40
-1
40
0
40
0
40
0
40
0
41
1
41
1
41
1
41
1
10
6.7917541599896802
20
9.2310761674449857
30
0
10
6.3336221374346646
20
8.7216737063181462
30
0
10
4.8899543242254673
20
6.7828068580408152
30
0
10
4.5873809096595997
20
6.2705679082557308
30
0
0
LINE
5
193
100
AcDbEntity
8
0
100
AcDbLine
10
4.5873809096595988
20
6.2705679082557317
30
0
11
4.3190303888513446
21
5.816268102052037
31
0
0
LINE
5
194
100
AcDbEntity
8
0
100
AcDbLine
10
4.3190303888513446
20
5.816268102052037
30
0
11
4.3875772751553299
21
5.3744721177412789
31
0
0
SPLINE
5
195
100
AcDbEntity
8
0
100
AcDbSpline
70
4
71
3
72
8
73
4
74
0
42
0.000000001
43
0.0000000001
44
0.0000000001
40
-1
40
-1
40
-1
40
-1
40
0
40
0
40
0
40
0
41
1
41
1
41
1
41
1
10
4.3875772751553299
20
5.374472117741278
30
0
10
4.4654443252684484
20
4.872610100236523
30
0
10
4.6272939484525466
20
4.344378466584109
30
0
10
4.8008996439976137
20
4.0255090717846231
30
0
0
SPLINE
5
196
100
AcDbEntity
8
0
100
AcDbSpline
70
4
71
3
72
8
73
4
74
0
42
0.000000001
43
0.0000000001
44
0.0000000001
40
-1
40
-1
40
-1
40
-1
40
0
40
0
40
0
40
0
41
1
41
1
41
1
41
1
10
4.8008996439976137
20
4.0255090717846231
30
0
10
5.0826028350195296
20
3.5080969160539066
30
0
10
5.5124729773051762
20
2.9204230096589034
30
0
10
5.7855198229800076
20
2.6794416477400196
30
0
0
SPLINE
5
197
100
AcDbEntity
8
0
100
AcDbSpline
70
4
71
3
72
8
73
4
74
0
42
0.000000001
43
0.0000000001
44
0.0000000001
40
-1
40
-1
40
-1
40
-1
40
0
40
0
40
0
40
0
41
1
41
1
41
1
41
1
10
5.7855198229800076
20
2.6794416477400196
30
0
10
6.1383755785218863
20
2.3680230429197602
30
0
10
6.8311121092066029
20
1.9929503516666669
30
0
10
7.1968131334940244
20
1.9153141119958095
30
0
0
SPLINE
5
198
100
AcDbEntity
8
0
100
AcDbSpline
70
4
71
3
72
8
73
4
74
0
42
0.000000001
43
0.0000000001
44
0.0000000001
40
-1
40
-1
40
-1
40
-1
40
0
40
0
40
0
40
0
41
1
41
1
41
1
41
1
10
7.1968131334940244
20
1.9153141119958095
30
0
10
7.8176665178456561
20
1.7835079967924505
30
0
10
9.1502229471583529
20
1.9221888296315282
30
0
10
9.6058294075186712
20
2.1660238479275051
30
0
0
ARC
5
199
100
AcDbEntity
8
0
100
AcDbCircle
10
-10.762225485084818
20
-11.410246605931889
30
0
40
6.0000000149000758
210
0
220
0
230
1
100
AcDbArc
50
115.64798544761969
51
120.89793892085788
0
LINE
5
200
100
AcDbEntity
8
0
100
AcDbLine
10
-13.359270804986018
20
-6.0014245728843809
30
0
11
-13.40455344194341
21
-5.9031702544247455
31
0
0
SPLINE
5
201
100
AcDbEntity
8
0
100
AcDbSpline
70
4
71
3
72
8
73
4
74
0
42
0.000000001
43
0.0000000001
44
0.0000000001
40
-1
40
-1
40
-1
40
-1
40
0
40
0
40
0
40
0
41
1
41
1
41
1
41
1
10
-13.40455344194341
20
-5.9031702544247455
30
0
10
-13.70123451389642
20
-5.2591175593390371
30
0
10
-14.103444599834468
20
-3.8072206862295843
30
0
10
-14.301189061839356
20
-2.6664868096820271
30
0
0
LINE
5
202
100
AcDbEntity
8
0
100
AcDbLine
10
-14.301189061839356
20
-2.6664868096820271
30
0
11
-14.448118983584006
21
-1.8188898249079066
31
0
0
LINE
5
203
100
AcDbEntity
8
0
100
AcDbLine
10
-14.448118983584006
20
-1.8188898249079066
30
0
11
-14.215919863617072
21
-1.9373470849462393
31
0
0
SPLINE
5
204
100
AcDbEntity
8
0
100
AcDbSpline
70
4
71
3
72
8
73
4
74
0
42
0.000000001
43
0.0000000001
44
0.0000000001
40
-1
40
-1
40
-1
40
-1
40
0
40
0
40
0
40
0
41
1
41
1
41
1
41
1
10
-14.215919863617078
20
-1.9373470849462393
30
0
10
-14.088209203120678
20
-2.0025004854916384
30
0
10
-13.870909755587881
20
-2.0558081600332034
30
0
10
-13.73303103672378
20
-2.0558081600332034
30
0
0
SPLINE
5
205
100
AcDbEntity
8
0
100
AcDbSpline
70
4
71
3
72
8
73
4
74
0
42
0.000000001
43
0.0000000001
44
0.0000000001
40
-1
40
-1
40
-1
40
-1
40
0
40
0
40
0
40
0
41
1
41
1
41
1
41
1
10
-13.73303103672378
20
-2.0558081600332034
30
0
10
-13.497234325896429
20
-2.0558081600332034
30
0
10
-13.482342283559564
20
-2.0450153874519339
30
0
10
-13.482342283559564
20
-1.8741355441547691
30
0
0
SPLINE
5
206
100
AcDbEntity
8
0
100
AcDbSpline
70
4
71
3
72
8
73
4
74
0
42
0.000000001
43
0.0000000001
44
0.0000000001
40
-1
40
-1
40
-1
40
-1
40
0
40
0
40
0
40
0
41
1
41
1
41
1
41
1
10
-13.482342283559564
20
-1.8741355441547691
30
0
10
-13.482342283559564
20
-1.7109392088034081
30
0
10
-13.524530045099626
20
-1.6725331142202871
30
0
10
-13.897152521368517
20
-1.4964762499288531
30
0
0
SPLINE
5
207
100
AcDbEntity
8
0
100
AcDbSpline
70
4
71
3
72
8
73
4
74
0
42
0.000000001
43
0.0000000001
44
0.0000000001
40
-1
40
-1
40
-1
40
-1
40
0
40
0
40
0
40
0
41
1
41
1
41
1
41
1
10
-13.897152521368517
20
-1.4964762499288531
30
0
10
-14.978848997209614
20
-0.98539707492804052
30
0
10
-16.182081000454374
20
0.029859852097433581
30
0
10
-16.79149543836261
20
0.94570424185789204
30
0
0
SPLINE
5
208
100
AcDbEntity
8
0
100
AcDbSpline
70
4
71
3
72
8
73
4
74
0
42
0.000000001
43
0.0000000001
44
0.0000000001
40
-1
40
-1
40
-1
40
-1
40
0
40
0
40
0
40
0
41
1
41
1
41
1
41
1
10
-16.79149543836261
20
0.94570424185789204
30
0
10
-16.985119647844428
20
1.2366894462026146
30
0
10
-17.143539542307931
20
1.5125327225250507
30
0
10
-17.143539542307931
20
1.5586948109779941
30
0
0
SPLINE
5
209
100
AcDbEntity
8
0
100
AcDbSpline
70
4
71
3
72
8
73
4
74
0
42
0.000000001
43
0.0000000001
44
0.0000000001
40
-1
40
-1
40
-1
40
-1
40
0
40
0
40
0
40
0
41
1
41
1
41
1
41
1
10
-17.143539542307931
20
1.5586948109779941
30
0
10
-17.143539542307931
20
1.6048568994309331
30
0
10
-17.167858569815643
20
1.6691519140340283
30
0
10
-17.197582090592327
20
1.7015760123614276
30
0
0
SPLINE
5
210
100
AcDbEntity
8
0
100
AcDbSpline
70
4
71
3
72
8
73
4
74
0
42
0.000000001
43
0.0000000001
44
0.0000000001
40
-1
40
-1
40
-1
40
-1
40
0
40
0
40
0
40
0
41
1
41
1
41
1
41
1
10
-17.197582090592327
20
1.7015760123614276
30
0
10
-17.227305611369019
20
1.7339962956401944
30
0
10
-17.269510063746843
20
1.8364646868598289
30
0
10
-17.291370292410924
20
1.9292810050392983
30
0
0
SPLINE
5
211
100
AcDbEntity
8
0
100
AcDbSpline
70
4
71
3
72
8
73
4
74
0
42
0.000000001
43
0.0000000001
44
0.0000000001
40
-1
40
-1
40
-1
40
-1
40
0
40
0
40
0
40
0
41
1
41
1
41
1
41
1
10
-17.291370292410924
20
1.9292810050392983
30
0
10
-17.343006975651466
20
2.1485242198503407
30
0
10
-17.180641367139824
20
2.2585044418273181
30
0
10
-16.571923175607015
20
2.4166076872543263
30
0
0
SPLINE
5
212
100
AcDbEntity
8
0
100
AcDbSpline
70
4
71
3
72
8
73
4
74
0
42
0.000000001
43
0.0000000001
44
0.0000000001
40
-1
40
-1
40
-1
40
-1
40
0
40
0
40
0
40
0
41
1
41
1
41
1
41
1
10
-16.571923175607015
20
2.4166076872543263
30
0
10
-15.906829533551052
20
2.5893530893327688
30
0
10
-15.393746504256033
20
2.5637083324252741
30
0
10
-13.15176355074486
20
2.2456744332763057
30
0
0
SPLINE
5
213
100
AcDbEntity
8
0
100
AcDbSpline
70
4
71
3
72
8
73
4
74
0
42
0.000000001
43
0.0000000001
44
0.0000000001
40
-1
40
-1
40
-1
40
-1
40
0
40
0
40
0
40
0
41
1
41
1
41
1
41
1
10
-13.15176355074486
20
2.2456744332763057
30
0
10
-12.922149126226435
20
2.2131015480522365
30
0
10
-12.914939638073214
20
2.2176834214598395
30
0
10
-12.934573785860247
20
2.3836571122156425
30
0
0
SPLINE
5
214
100
AcDbEntity
8
0
100
AcDbSpline
70
4
71
3
72
8
73
4
74
0
42
0.000000001
43
0.0000000001
44
0.0000000001
40
-1
40
-1
40
-1
40
-1
40
0
40
0
40
0
40
0
41
1
41
1
41
1
41
1
10
-12.934573785860247
20
2.3836571122156425
30
0
10
-12.95201046563497
20
2.5310553311799255
30
0
10
-13.003142608693867
20
2.571281203960738
30
0
10
-13.296180309202866
20
2.6681300285447351
30
0
0
SPLINE
5
215
100
AcDbEntity
8
0
100
AcDbSpline
70
4
71
3
72
8
73
4
74
0
42
0.000000001
43
0.0000000001
44
0.0000000001
40
-1
40
-1
40
-1
40
-1
40
0
40
0
40
0
40
0
41
1
41
1
41
1
41
1
10
-13.296180309202866
20
2.6681300285447351
30
0
10
-13.483894054590824
20
2.7301703494060359
30
0
10
-13.707288996076157
20
2.7821389418776032
30
0
10
-13.792613512503609
20
2.7836268108442663
30
0
0
SPLINE
5
216
100
AcDbEntity
8
0
100
AcDbSpline
70
4
71
3
72
8
73
4
74
0
42
0.000000001
43
0.0000000001
44
0.0000000001
40
-1
40
-1
40
-1
40
-1
40
0
40
0
40
0
40
0
41
1
41
1
41
1
41
1
10
-13.792613512503609
20
2.7836268108442663
30
0
10
-14.08895313760401
20
2.7887809415467402
30
0
10
-14.122956666065257
20
2.8538885615085485
30
0
10
-14.039962190590089
20
3.2572498383714432
30
0
0
SPLINE
5
217
100
AcDbEntity
8
0
100
AcDbSpline
70
4
71
3
72
8
73
4
74
0
42
0.000000001
43
0.0000000001
44
0.0000000001
40
-1
40
-1
40
-1
40
-1
40
0
40
0
40
0
40
0
41
1
41
1
41
1
41
1
10
-14.039962190590089
20
3.2572498383714432
30
0
10
-13.96112230307569
20
3.6404180628226523
30
0
10
-13.880852726086268
20
3.8393461436657672
30
0
10
-13.805079183910218
20
3.8393461436657672
30
0
0
SPLINE
5
218
100
AcDbEntity
8
0
100
AcDbSpline
70
4
71
3
72
8
73
4
74
0
42
0.000000001
43
0.0000000001
44
0.0000000001
40
-1
40
-1
40
-1
40
-1
40
0
40
0
40
0
40
0
41
1
41
1
41
1
41
1
10
-13.805079183910218
20
3.8393461436657672
30
0
10
-13.780206974350801
20
3.8393461436657672
30
0
10
-13.690435064980043
20
3.7265618609439244
30
0
10
-13.605586475869496
20
3.5887165237553553
30
0
0
SPLINE
5
219
100
AcDbEntity
8
0
100
AcDbSpline
70
4
71
3
72
8
73
4
74
0
42
0.000000001
43
0.0000000001
44
0.0000000001
40
-1
40
-1
40
-1
40
-1
40
0
40
0
40
0
40
0
41
1
41
1
41
1
41
1
10
-13.605586475869496
20
3.5887165237553553
30
0
10
-13.452912044646499
20
3.3406811369150269
30
0
10
-13.288257406955374
20
3.2495892207174348
30
0
10
-13.068384709119973
20
3.2915127901396968
30
0
0
SPLINE
5
220
100
AcDbEntity
8
0
100
AcDbSpline
70
4
71
3
72
8
73
4
74
0
42
0.000000001
43
0.0000000001
44
0.0000000001
40
-1
40
-1
40
-1
40
-1
40
0
40
0
40
0
40
0
41
1
41
1
41
1
41
1
10
-13.068384709119973
20
3.2915127901396968
30
0
10
-12.895503872815075
20
3.3244786253729108
30
0
10
-12.894464272062724
20
3.5693170014592246
30
0
10
-13.066337935528649
20
3.7735747052419066
30
0
0
SPLINE
5
221
100
AcDbEntity
8
0
100
AcDbSpline
70
4
71
3
72
8
73
4
74
0
42
0.000000001
43
0.0000000001
44
0.0000000001
40
-1
40
-1
40
-1
40
-1
40
0
40
0
40
0
40
0
41
1
41
1
41
1
41
1
10
-13.066337935528649
20
3.7735747052419066
30
0
10
-13.2085925151742
20
3.94263477034138
30
0
10
-13.939769475879729
20
5.3860546053894698
30
0
10
-14.089830598789481
20
5.7940549813894515
30
0
0
SPLINE
5
222
100
AcDbEntity
8
0
100
AcDbSpline
70
4
71
3
72
8
73
4
74
0
42
0.000000001
43
0.0000000001
44
0.0000000001
40
-1
40
-1
40
-1
40
-1
40
0
40
0
40
0
40
0
41
1
41
1
41
1
41
1
10
-14.089830598789481
20
5.7940549813894515
30
0
10
-14.396191402885236
20
6.6270174396094017
30
0
10
-14.758064979632127
20
8.123880383425508
30
0
10
-14.8210123283058
20
8.8185263459507759
30
0
0
LINE
5
223
100
AcDbEntity
8
0
100
AcDbLine
10
-14.8210123283058
20
8.8185263459507759
30
0
11
-14.86367792468708
21
9.2893567578789842
31
0
0
LINE
5
224
100
AcDbEntity
8
0
100
AcDbLine
10
-14.86367792468708
20
9.2893567578789842
30
0
11
-14.613735013530512
21
9.4168690358464957
31
0
0
SPLINE
5
225
100
AcDbEntity
8
0
100
AcDbSpline
70
4
71
3
72
8
73
4
74
0
42
0.000000001
43
0.0000000001
44
0.0000000001
40
-1
40
-1
40
-1
40
-1
40
0
40
0
40
0
40
0
41
1
41
1
41
1
41
1
10
-14.613735013530514
20
9.4168690358464957
30
0
10
-14.068601760674078
20
9.6949746360079878
30
0
10
-12.86082031193509
20
9.9477444982012173
30
0
10
-11.74482511824481
20
10.017285204673962
30
0
0
SPLINE
5
226
100
AcDbEntity
8
0
100
AcDbSpline
70
4
71
3
72
8
73
4
74
0
42
0.000000001
43
0.0000000001
44
0.0000000001
40
-1
40
-1
40
-1
40
-1
40
0
40
0
40
0
40
0
41
1
41
1
41
1
41
1
10
-11.74482511824481
20
10.017285204673962
30
0
10
-11.062229940587368
20
10.059819181877421
30
0
10
-9.5085046506663868
20
9.9569654707459065
30
0
10
-9.321461400075588
20
9.8568624096784099
30
0
0
SPLINE
5
227
100
AcDbEntity
8
0
100
AcDbSpline
70
4
71
3
72
8
73
4
74
0
42
0.000000001
43
0.0000000001
44
0.0000000001
40
-1
40
-1
40
-1
40
-1
40
0
40
0
40
0
40
0
41
1
41
1
41
1
41
1
10
-9.321461400075588
20
9.8568624096784099
30
0
10
-9.2617568427395192
20
9.8249094698571184
30
0
10
-9.0495743291850275
20
9.7912817236861738
30
0
10
-8.8499442793935366
20
9.7821427746870793
30
0
0
LINE
5
228
100
AcDbEntity
8
0
100
AcDbLine
10
-8.8499442793935366
20
9.7821427746870775
30
0
11
-8.4869805524999151
21
9.7655206077953896
31
0
0
LINE
5
229
100
AcDbEntity
8
0
100
AcDbLine
10
-8.4869805524999151
20
9.7655206077953896
30
0
11
-8.4869805524999151
21
9.9516835359142455
31
0
0
SPLINE
5
230
100
AcDbEntity
8
0
100
AcDbSpline
70
4
71
3
72
8
73
4
74
0
42
0.000000001
43
0.0000000001
44
0.0000000001
40
-1
40
-1
40
-1
40
-1
40
0
40
0
40
0
40
0
41
1
41
1
41
1
41
1
10
-8.4869805524999151
20
9.9516835359142455
30
0
10
-8.4869805524999151
20
10.122145631386154
30
0
10
-8.5157631869076198
20
10.147462294111254
30
0
10
-8.8282786182097119
20
10.251861099938919
30
0
0
SPLINE
5
231
100
AcDbEntity
8
0
100
AcDbSpline
70
4
71
3
72
8
73
4
74
0
42
0.000000001
43
0.0000000001
44
0.0000000001
40
-1
40
-1
40
-1
40
-1
40
0
40
0
40
0
40
0
41
1
41
1
41
1
41
1
10
-8.8282786182097119
20
10.251861099938919
30
0
10
-9.0159914098355127
20
10.314569054310901
30
0
10
-9.4581984656364231
20
10.398341799707094
30
0
10
-9.8109588449624923
20
10.438024028057775
30
0
0
LINE
5
232
100
AcDbEntity
8
0
100
AcDbLine
10
-9.8109588449624905
20
10.438024028057775
30
0
11
-10.452341006005469
21
10.510172320270819
31
0
0
LINE
5
233
100
AcDbEntity
8
0
100
AcDbLine
10
-10.452341006005469
20
10.510172320270819
30
0
11
-10.152256910672293
21
10.722199370593536
31
0
0
SPLINE
5
234
100
AcDbEntity
8
0
100
AcDbSpline
70
4
71
3
72
8
73
4
74
0
42
0.000000001
43
0.0000000001
44
0.0000000001
40
-1
40
-1
40
-1
40
-1
40
0
40
0
40
0
40
0
41
1
41
1
41
1
41
1
10
-10.152256910672291
20
10.722199370593536
30
0
10
-9.4839777030082111
20
11.194378402213321
30
0
10
-9.0421216316814892
20
11.488526281874369
30
0
10
-8.9230072295162124
20
11.540523487210681
30
0
0
SPLINE
5
235
100
AcDbEntity
8
0
100
AcDbSpline
70
4
71
3
72
8
73
4
74
0
42
0.000000001
43
0.0000000001
44
0.0000000001
40
-1
40
-1
40
-1
40
-1
40
0
40
0
40
0
40
0
41
1
41
1
41
1
41
1
10
-8.9230072295162124
20
11.540523487210681
30
0
10
-8.8538413515716101
20
11.570715782088081
30
0
10
-8.61574225889456
20
11.705869602466441
30
0
10
-8.3938981346783272
20
11.84086509832655
30
0
0
SPLINE
5
236
100
AcDbEntity
8
0
100
AcDbSpline
70
4
71
3
72
8
73
4
74
0
42
0.000000001
43
0.0000000001
44
0.0000000001
40
-1
40
-1
40
-1
40
-1
40
0
40
0
40
0
40
0
41
1
41
1
41
1
41
1
10
-8.3938981346783272
20
11.84086509832655
30
0
10
-7.4476268245495714
20
12.416685648620454
30
0
10
-5.4900013821463585
20
13.270514515335719
30
0
10
-4.5775657383390183
20
13.505380354296745
30
0
0
SPLINE
5
237
100
AcDbEntity
8
0
100
AcDbSpline
70
4
71
3
72
8
73
4
74
0
42
0.000000001
43
0.0000000001
44
0.0000000001
40
-1
40
-1
40
-1
40
-1
40
0
40
0
40
0
40
0
41
1
41
1
41
1
41
1
10
-4.5775657383390183
20
13.505380354296745
30
0
10
-4.0292478736366233
20
13.64652189350377
30
0
10
-3.7001484259291617
20
13.724604493864629
30
0
10
-3.5313458766123795
20
13.753610308617329
30
0
0
SPLINE
5
238
100
AcDbEntity
8
0
100
AcDbSpline
70
4
71
3
72
8
73
4
74
0
42
0.000000001
43
0.0000000001
44
0.0000000001
40
-1
40
-1
40
-1
40
-1
40
0
40
0
40
0
40
0
41
1
41
1
41
1
41
1
10
-3.5313458766123795
20
13.753610308617329
30
0
10
-3.3565269956021848
20
13.783650001549436
30
0
10
-3.3544458865731697
20
13.78051593909786
30
0
10
-3.3916674085559073
20
13.543357255908713
30
0
0
SPLINE
5
239
100
AcDbEntity
8
0
100
AcDbSpline
70
4
71
3
72
8
73
4
74
0
42
0.000000001
43
0.0000000001
44
0.0000000001
40
-1
40
-1
40
-1
40
-1
40
0
40
0
40
0
40
0
41
1
41
1
41
1
41
1
10
-3.3916674085559073
20
13.543357255908713
30
0
10
-3.412440348359731
20
13.410948363021422
30
0
10
-3.4083315409825543
20
13.162989277153745
30
0
10
-3.382528459556815
20
12.992340244298841
30
0
0
SPLINE
5
240
100
AcDbEntity
8
0
100
AcDbSpline
70
4
71
3
72
8
73
4
74
0
42
0.000000001
43
0.0000000001
44
0.0000000001
40
-1
40
-1
40
-1
40
-1
40
0
40
0
40
0
40
0
41
1
41
1
41
1
41
1
10
-3.382528459556815
20
12.992340244298841
30
0
10
-3.3382033170204095
20
12.699199537476771
30
0
10
-3.3245034773811932
20
12.680996032926917
30
0
10
-3.1343690836359306
20
12.662622758712917
30
0
0
LINE
5
241
100
AcDbEntity
8
0
100
AcDbLine
10
-3.1343690836359306
20
12.662622758712915
30
0
11
-2.9331233607485863
21
12.643179363357515
31
0
0
LINE
5
242
100
AcDbEntity
8
0
100
AcDbLine
10
-2.9331233607485863
20
12.643179363357515
30
0
11
-2.9331233607485863
21
13.070436197329913
31
0
0
SPLINE
5
243
100
AcDbEntity
8
0
100
AcDbSpline
70
4
71
3
72
8
73
4
74
0
42
0.000000001
43
0.0000000001
44
0.0000000001
40
-1
40
-1
40
-1
40
-1
40
0
40
0
40
0
40
0
41
1
41
1
41
1
41
1
10
-2.9331233607485863
20
13.070436197329913
30
0
10
-2.9331233607485863
20
13.305426025371494
30
0
10
-2.8870471108898754
20
13.635307558048613
30
0
10
-2.8307293629772867
20
13.803503514632833
30
0
0
SPLINE
5
244
100
AcDbEntity
8
0
100
AcDbSpline
70
4
71
3
72
8
73
4
74
0
42
0.000000001
43
0.0000000001
44
0.0000000001
40
-1
40
-1
40
-1
40
-1
40
0
40
0
40
0
40
0
41
1
41
1
41
1
41
1
10
-2.8307293629772867
20
13.803503514632833
30
0
10
-2.5422735358758919
20
14.665012074245269
30
0
10
-1.7210690575412269
20
15.397215283032937
30
0
10
-0.46411926202691411
20
15.913620265924685
30
0
0
SPLINE
5
245
100
AcDbEntity
8
0
100
AcDbSpline
70
4
71
3
72
8
73
4
74
0
42
0.000000001
43
0.0000000001
44
0.0000000001
40
-1
40
-1
40
-1
40
-1
40
0
40
0
40
0
40
0
41
1
41
1
41
1
41
1
10
-0.46411926202691411
20
15.913620265924685
30
0
10
-0.040732794892157642
20
16.087563593273725
30
0
10
1.0814523152043121
20
16.057394188688114
30
0
10
1.5683612495940791
20
15.858979231886066
30
0
0
SPLINE
5
246
100
AcDbEntity
8
0
100
AcDbSpline
70
4
71
3
72
8
73
4
74
0
42
0.000000001
43
0.0000000001
44
0.0000000001
40
-1
40
-1
40
-1
40
-1
40
0
40
0
40
0
40
0
41
1
41
1
41
1
41
1
10
1.5683612495940791
20
15.858979231886066
30
0
10
1.7717338620940293
20
15.776103022918505
30
0
10
2.104135234392901
20
15.64378759872271
30
0
10
2.3070290582894737
20
15.564945803683994
30
0
0
SPLINE
5
247
100
AcDbEntity
8
0
100
AcDbSpline
70
4
71
3
72
8
73
4
74
0
42
0.000000001
43
0.0000000001
44
0.0000000001
40
-1
40
-1
40
-1
40
-1
40
0
40
0
40
0
40
0
41
1
41
1
41
1
41
1
10
2.3070290582894737
20
15.564945803683994
30
0
10
2.5099228821860464
20
15.486104008645274
30
0
10
2.8450157712951274
20
15.310470614752049
30
0
10
3.0516788632405856
20
15.174649160863005
30
0
0
SPLINE
5
248
100
AcDbEntity
8
0
100
AcDbSpline
70
4
71
3
72
8
73
4
74
0
42
0.000000001
43
0.0000000001
44
0.0000000001
40
-1
40
-1
40
-1
40
-1
40
0
40
0
40
0
40
0
41
1
41
1
41
1
41
1
10
3.0516788632405856
20
15.174649160863005
30
0
10
3.4243576114768048
20
14.929723038658146
30
0
10
4.3272174832166366
20
14.055384470494694
30
0
10
4.3272174832166366
20
13.939406992067468
30
0
0
SPLINE
5
249
100
AcDbEntity
8
0
100
AcDbSpline
70
4
71
3
72
8
73
4
74
0
42
0.000000001
43
0.0000000001
44
0.0000000001
40
-1
40
-1
40
-1
40
-1
40
0
40
0
40
0
40
0
41
1
41
1
41
1
41
1
10
4.3272174832166366
20
13.939406992067468
30
0
10
4.3272174832166366
20
13.906193178673147
30
0
10
4.3900475191448551
20
13.800699453887963
30
0
10
4.4668387255436182
20
13.704979883699178
30
0
0
SPLINE
5
250
100
AcDbEntity
8
0
100
AcDbSpline
70
4
71
3
72
8
73
4
74
0
42
0.000000001
43
0.0000000001
44
0.0000000001
40
-1
40
-1
40
-1
40
-1
40
0
40
0
40
0
40
0
41
1
41
1
41
1
41
1
10
4.4668387255436182
20
13.704979883699178
30
0
10
4.7698852061399144
20
13.327236658403351
30
0
10
4.8240340989049413
20
13.240986038920365
30
0
10
4.8921098267028151
20
13.027604646333121
30
0
0
SPLINE
5
251
100
AcDbEntity
8
0
100
AcDbSpline
70
4
71
3
72
8
73
4
74
0
42
0.000000001
43
0.0000000001
44
0.0000000001
40
-1
40
-1
40
-1
40
-1
40
0
40
0
40
0
40
0
41
1
41
1
41
1
41
1
10
4.8921098267028151
20
13.027604646333121
30
0
10
4.9309622819759369
20
12.905820663887271
30
0
10
4.9873010126560002
20
12.779649375514076
30
0
10
5.0173082776747302
20
12.747227184710992
30
0
0
SPLINE
5
252
100
AcDbEntity
8
0
100
AcDbSpline
70
4
71
3
72
8
73
4
74
0
42
0.000000001
43
0.0000000001
44
0.0000000001
40
-1
40
-1
40
-1
40
-1
40
0
40
0
40
0
40
0
41
1
41
1
41
1
41
1
10
5.0173082776747302
20
12.747227184710992
30
0
10
5.0473155426934602
20
12.714804993907904
30
0
10
5.0718672881677485
20
12.622213763597752
30
0
10
5.0718672881677485
20
12.54147207434006
30
0
0
SPLINE
5
253
100
AcDbEntity
8
0
100
AcDbSpline
70
4
71
3
72
8
73
4
74
0
42
0.000000001
43
0.0000000001
44
0.0000000001
40
-1
40
-1
40
-1
40
-1
40
0
40
0
40
0
40
0
41
1
41
1
41
1
41
1
10
5.0718672881677485
20
12.54147207434006
30
0
10
5.0718672881677485
20
12.460728477558053
30
0
10
5.1018917209053205
20
12.338562990248958
30
0
10
5.1385905812254107
20
12.26999130612886
30
0
0
SPLINE
5
254
100
AcDbEntity
8
0
100
AcDbSpline
70
4
71
3
72
8
73
4
74
0
42
0.000000001
43
0.0000000001
44
0.0000000001
40
-1
40
-1
40
-1
40
-1
40
0
40
0
40
0
40
0
41
1
41
1
41
1
41
1
10
5.1385905812254107
20
12.26999130612886
30
0
10
5.2423141234451265
20
12.076183020550527
30
0
10
5.2215449986899376
20
11.39200745899708
30
0
10
5.0978935499384903
20
10.929324083423522
30
0
0
SPLINE
5
255
100
AcDbEntity
8
0
100
AcDbSpline
70
4
71
3
72
8
73
4
74
0
42
0.000000001
43
0.0000000001
44
0.0000000001
40
-1
40
-1
40
-1
40
-1
40
0
40
0
40
0
40
0
41
1
41
1
41
1
41
1
10
5.0978935499384903
20
10.929324083423522
30
0
10
4.9070953377311755
20
10.215393050061095
30
0
10
4.5154271849268168
20
9.6632162636669516
30
0
10
3.9153715381951182
20
9.262185981518499
30
0
0
SPLINE
5
256
100
AcDbEntity
8
0
100
AcDbSpline
70
4
71
3
72
8
73
4
74
0
42
0.000000001
43
0.0000000001
44
0.0000000001
40
-1
40
-1
40
-1
40
-1
40
0
40
0
40
0
40
0
41
1
41
1
41
1
41
1
10
3.9153715381951182
20
9.262185981518499
30
0
10
3.2992736119638666
20
8.8504373202371092
30
0
10
2.725425441812952
20
8.7692225649489952
30
0
10
2.198599653581601
20
9.0192169792620991
30
0
0
SPLINE
5
257
100
AcDbEntity
8
0
100
AcDbSpline
70
4
71
3
72
8
73
4
74
0
42
0.000000001
43
0.0000000001
44
0.0000000001
40
-1
40
-1
40
-1
40
-1
40
0
40
0
40
0
40
0
41
1
41
1
41
1
41
1
10
2.198599653581601
20
9.0192169792620991
30
0
10
1.9081275732779401
20
9.1570546863533977
30
0
10
1.4602027133391138
20
9.6173135985210187
30
0
10
1.2954155027080105
20
9.9472657095978398
30
0
0
LINE
5
258
100
AcDbEntity
8
0
100
AcDbLine
10
1.2954155027080108
20
9.9472657095978381
30
0
11
1.1552849513885932
21
10.227851091370443
31
0
0
LINE
5
259
100
AcDbEntity
8
0
100
AcDbLine
10
1.1552849513885932
20
10.227851091370443
30
0
11
1.2752243578206413
21
10.498992320253356
31
0
0
SPLINE
5
260
100
AcDbEntity
8
0
100
AcDbSpline
70
4
71
3
72
8
73
4
74
0
42
0.000000001
43
0.0000000001
44
0.0000000001
40
-1
40
-1
40
-1
40
-1
40
0
40
0
40
0
40
0
41
1
41
1
41
1
41
1
10
1.2752243578206413
20
10.498992320253354
30
0
10
1.4601283198907788
20
10.916997661291997
30
0
10
1.6241258154549598
20
11.037635221623789
30
0
10
2.0074695321432623
20
11.037635221623789
30
0
0
SPLINE
5
261
100
AcDbEntity
8
0
100
AcDbSpline
70
4
71
3
72
8
73
4
74
0
42
0.000000001
43
0.0000000001
44
0.0000000001
40
-1
40
-1
40
-1
40
-1
40
0
40
0
40
0
40
0
41
1
41
1
41
1
41
1
10
2.0074695321432623
20
11.037635221623789
30
0
10
2.2907197253856459
20
11.037635221623789
30
0
10
2.3609051750772769
20
11.010985199401642
30
0
10
2.5517987635004058
20
10.830949239386536
30
0
0
SPLINE
5
262
100
AcDbEntity
8
0
100
AcDbSpline
70
4
71
3
72
8
73
4
74
0
42
0.000000001
43
0.0000000001
44
0.0000000001
40
-1
40
-1
40
-1
40
-1
40
0
40
0
40
0
40
0
41
1
41
1
41
1
41
1
10
2.5517987635004058
20
10.830949239386536
30
0
10
2.881123299077184
20
10.520354685070892
30
0
10
2.9210172626269681
20
10.360467904408202
30
0
10
2.7419217120997708
20
10.069002003935786
30
0
0
SPLINE
5
263
100
AcDbEntity
8
0
100
AcDbSpline
70
4
71
3
72
8
73
4
74
0
42
0.000000001
43
0.0000000001
44
0.0000000001
40
-1
40
-1
40
-1
40
-1
40
0
40
0
40
0
40
0
41
1
41
1
41
1
41
1
10
2.7419217120997708
20
10.069002003935786
30
0
10
2.4145371287526052
20
9.5362094796432437
30
0
10
2.6840378867235515
20
9.347891049047039
30
0
10
3.1455748401830474
20
9.7869421058667339
30
0
0
SPLINE
5
264
100
AcDbEntity
8
0
100
AcDbSpline
70
4
71
3
72
8
73
4
74
0
42
0.000000001
43
0.0000000001
44
0.0000000001
40
-1
40
-1
40
-1
40
-1
40
0
40
0
40
0
40
0
41
1
41
1
41
1
41
1
10
3.1455748401830474
20
9.7869421058667339
30
0
10
3.3836415049467217
20
10.013409115263364
30
0
10
3.3964047501466643
20
10.044280488797348
30
0
10
3.3964047501466643
20
10.393675995229579
30
0
0
SPLINE
5
265
100
AcDbEntity
8
0
100
AcDbSpline
70
4
71
3
72
8
73
4
74
0
42
0.000000001
43
0.0000000001
44
0.0000000001
40
-1
40
-1
40
-1
40
-1
40
0
40
0
40
0
40
0
41
1
41
1
41
1
41
1
10
3.3964047501466643
20
10.393675995229579
30
0
10
3.3964047501466643
20
10.785006516229965
30
0
10
3.3349233339100204
20
10.917402056447042
30
0
10
3.0082140141708047
20
11.229623729004437
30
0
0
SPLINE
5
266
100
AcDbEntity
8
0
100
AcDbSpline
70
4
71
3
72
8
73
4
74
0
42
0.000000001
43
0.0000000001
44
0.0000000001
40
-1
40
-1
40
-1
40
-1
40
0
40
0
40
0
40
0
41
1
41
1
41
1
41
1
10
3.0082140141708047
20
11.229623729004437
30
0
10
2.7795304615187044
20
11.448166882391423
30
0
10
2.4770810360333906
20
11.550290011709814
30
0
10
2.0338963740204141
20
11.558627800496089
30
0
0
SPLINE
5
267
100
AcDbEntity
8
0
100
AcDbSpline
70
4
71
3
72
8
73
4
74
0
42
0.000000001
43
0.0000000001
44
0.0000000001
40
-1
40
-1
40
-1
40
-1
40
0
40
0
40
0
40
0
41
1
41
1
41
1
41
1
10
2.0338963740204141
20
11.558627800496089
30
0
10
1.5241372058464364
20
11.568211202660862
30
0
10
1.1411501962052739
20
11.398468243856176
30
0
10
0.90802401942065458
20
11.059628976990009
30
0
0
SPLINE
5
268
100
AcDbEntity
8
0
100
AcDbSpline
70
4
71
3
72
8
73
4
74
0
42
0.000000001
43
0.0000000001
44
0.0000000001
40
-1
40
-1
40
-1
40
-1
40
0
40
0
40
0
40
0
41
1
41
1
41
1
41
1
10
0.90802401942065458
20
11.059628976990009
30
0
10
0.67344240158274893
20
10.718676173181446
30
0
10
0.54067680164831877
20
10.665309365386078
30
0
10
-0.072954695642040157
20
10.665309365386078
30
0
0
SPLINE
5
269
100
AcDbEntity
8
0
100
AcDbSpline
70
4
71
3
72
8
73
4
74
0
42
0.000000001
43
0.0000000001
44
0.0000000001
40
-1
40
-1
40
-1
40
-1
40
0
40
0
40
0
40
0
41
1
41
1
41
1
41
1
10
-0.072954695642040157
20
10.665309365386078
30
0
10
-0.9735942090777705
20
10.665309365386078
30
0
10
-1.8633646489595801
20
11.117858064267466
30
0
10
-2.3674069667577902
20
11.832300314146643
30
0
0
SPLINE
5
270
100
AcDbEntity
8
0
100
AcDbSpline
70
4
71
3
72
8
73
4
74
0
42
0.000000001
43
0.0000000001
44
0.0000000001
40
-1
40
-1
40
-1
40
-1
40
0
40
0
40
0
40
0
41
1
41
1
41
1
41
1
10
-2.3674069667577902
20
11.832300314146643
30
0
10
-2.4789494511497612
20
11.99040355957365
30
0
10
-2.5497434010982767
20
12.033097768819673
30
0
10
-2.6760920892328821
20
12.018463242265502
30
0
0
SPLINE
5
271
100
AcDbEntity
8
0
100
AcDbSpline
70
4
71
3
72
8
73
4
74
0
42
0.000000001
43
0.0000000001
44
0.0000000001
40
-1
40
-1
40
-1
40
-1
40
0
40
0
40
0
40
0
41
1
41
1
41
1
41
1
10
-2.6760920892328821
20
12.018463242265502
30
0
10
-2.8016853977382583
20
12.003918369354194
30
0
10
-2.8445283938809474
20
11.960655717861929
30
0
10
-2.8592220536889212
20
11.833542112476515
30
0
0
SPLINE
5
272
100
AcDbEntity
8
0
100
AcDbSpline
70
4
71
3
72
8
73
4
74
0
42
0.000000001
43
0.0000000001
44
0.0000000001
40
-1
40
-1
40
-1
40
-1
40
0
40
0
40
0
40
0
41
1
41
1
41
1
41
1
10
-2.8592220536889212
20
11.833542112476515
30
0
10
-2.8830699226905199
20
11.627216652335029
30
0
10
-2.6912054043904288
20
11.244449007990234
30
0
10
-2.4578846601255533
20
11.03287404093046
30
0
0
SPLINE
5
273
100
AcDbEntity
8
0
100
AcDbSpline
70
4
71
3
72
8
73
4
74
0
42
0.000000001
43
0.0000000001
44
0.0000000001
40
-1
40
-1
40
-1
40
-1
40
0
40
0
40
0
40
0
41
1
41
1
41
1
41
1
10
-2.4578846601255533
20
11.03287404093046
30
0
10
-2.2020455913074999
20
10.800880933589688
30
0
10
-1.7404132616321899
20
10.479148344791533
30
0
10
-1.66338170716958
20
10.479148344791533
30
0
0
SPLINE
5
274
100
AcDbEntity
8
0
100
AcDbSpline
70
4
71
3
72
8
73
4
74
0
42
0.000000001
43
0.0000000001
44
0.0000000001
40
-1
40
-1
40
-1
40
-1
40
0
40
0
40
0
40
0
41
1
41
1
41
1
41
1
10
-1.66338170716958
20
10.479148344791533
30
0
10
-1.6269365475835551
20
10.479148344791533
30
0
10
-1.4858350663871667
20
10.417565829766131
30
0
10
-1.3498209525421867
20
10.342298735296044
30
0
0
SPLINE
5
275
100
AcDbEntity
8
0
100
AcDbSpline
70
4
71
3
72
8
73
4
74
0
42
0.000000001
43
0.0000000001
44
0.0000000001
40
-1
40
-1
40
-1
40
-1
40
0
40
0
40
0
40
0
41
1
41
1
41
1
41
1
10
-1.3498209525421867
20
10.342298735296044
30
0
10
-1.132904917396953
20
10.222262045123864
30
0
10
-0.9957939770701385
20
10.203533971387046
30
0
10
-0.23376471807378785
20
10.189864652136894
30
0
0
LINE
5
276
100
AcDbEntity
8
0
100
AcDbLine
10
-0.23376471807378807
20
10.189864652136894
30
0
11
0.63499434146466971
21
10.174278270948918
31
0
0
LINE
5
277
100
AcDbEntity
8
0
100
AcDbLine
10
0.63499434146466971
20
10.174278270948918
30
0
11
0.67004510077552926
21
9.96990039313431
31
0
0
SPLINE
5
278
100
AcDbEntity
8
0
100
AcDbSpline
70
4
71
3
72
8
73
4
74
0
42
0.000000001
43
0.0000000001
44
0.0000000001
40
-1
40
-1
40
-1
40
-1
40
0
40
0
40
0
40
0
41
1
41
1
41
1
41
1
10
0.67004510077552926
20
9.96990039313431
30
0
10
0.72216438766807833
20
9.6659993416443424
30
0
10
0.79079902009060898
20
9.5504872991502801
30
0
10
1.3017942640215097
20
8.9066539693609403
30
0
0
SPLINE
5
279
100
AcDbEntity
8
0
100
AcDbSpline
70
4
71
3
72
8
73
4
74
0
42
0.000000001
43
0.0000000001
44
0.0000000001
40
-1
40
-1
40
-1
40
-1
40
0
40
0
40
0
40
0
41
1
41
1
41
1
41
1
10
1.3017942640215097
20
8.9066539693609403
30
0
10
1.6337626283005902
20
8.4883872974909647
30
0
10
2.602054399135989
20
8.2321915216257757
30
0
10
3.2950312778845525
20
8.3792711840292498
30
0
0
SPLINE
5
280
100
AcDbEntity
8
0
100
AcDbSpline
70
4
71
3
72
8
73
4
74
0
42
0.000000001
43
0.0000000001
44
0.0000000001
40
-1
40
-1
40
-1
40
-1
40
0
40
0
40
0
40
0
41
1
41
1
41
1
41
1
10
3.2950312778845525
20
8.3792711840292498
30
0
10
3.8449075899533147
20
8.4959811517939077
30
0
10
4.387102301600585
20
8.7992412751136193
30
0
10
4.8281810567684413
20
9.2367949253450643
30
0
0
SPLINE
5
281
100
AcDbEntity
8
0
100
AcDbSpline
70
4
71
3
72
8
73
4
74
0
42
0.000000001
43
0.0000000001
44
0.0000000001
40
-1
40
-1
40
-1
40
-1
40
0
40
0
40
0
40
0
41
1
41
1
41
1
41
1
10
4.8281810567684413
20
9.2367949253450643
30
0
10
5.4282386110244563
20
9.83205314842143
30
0
10
5.7544634195873456
20
10.598471620869439
30
0
10
5.7544634195873456
20
11.412959706086632
30
0
0
SPLINE
5
282
100
AcDbEntity
8
0
100
AcDbSpline
70
4
71
3
72
8
73
4
74
0
42
0.000000001
43
0.0000000001
44
0.0000000001
40
-1
40
-1
40
-1
40
-1
40
0
40
0
40
0
40
0
41
1
41
1
41
1
41
1
10
5.7544634195873456
20
11.412959706086632
30
0
10
5.7544634195873456
20
11.816910407963244
30
0
10
5.5898631463392334
20
12.867130348181032
30
0
10
5.5003315850323231
20
13.034418323190721
30
0
0
SPLINE
5
283
100
AcDbEntity
8
0
100
AcDbSpline
70
4
71
3
72
8
73
4
74
0
42
0.000000001
43
0.0000000001
44
0.0000000001
40
-1
40
-1
40
-1
40
-1
40
0
40
0
40
0
40
0
41
1
41
1
41
1
41
1
10
5.5003315850323231
20
13.034418323190721
30
0
10
5.416055253216645
20
13.191893993117688
30
0
10
5.4283854903968054
20
13.209532870469932
30
0
10
5.6227564956484288
20
13.209532870469932
30
0
0
SPLINE
5
284
100
AcDbEntity
8
0
100
AcDbSpline
70
4
71
3
72
8
73
4
74
0
42
0.000000001
43
0.0000000001
44
0.0000000001
40
-1
40
-1
40
-1
40
-1
40
0
40
0
40
0
40
0
41
1
41
1
41
1
41
1
10
5.6227564956484288
20
13.209532870469932
30
0
10
5.720967292594219
20
13.209532870469932
30
0
10
5.8304000550924373
20
13.244568369586261
30
0
10
5.8659410481525676
20
13.287394198010105
30
0
0
SPLINE
5
285
100
AcDbEntity
8
0
100
AcDbSpline
70
4
71
3
72
8
73
4
74
0
42
0.000000001
43
0.0000000001
44
0.0000000001
40
-1
40
-1
40
-1
40
-1
40
0
40
0
40
0
40
0
41
1
41
1
41
1
41
1
10
5.8659410481525676
20
13.287394198010105
30
0
10
5.9014820412126978
20
13.330218118909629
30
0
10
6.3028232498247005
20
13.551872444456396
30
0
10
6.7578116723065529
20
13.779958941997513
30
0
0
SPLINE
5
286
100
AcDbEntity
8
0
100
AcDbSpline
70
4
71
3
72
8
73
4
74
0
42
0.000000001
43
0.0000000001
44
0.0000000001
40
-1
40
-1
40
-1
40
-1
40
0
40
0
40
0
40
0
41
1
41
1
41
1
41
1
10
6.7578116723065529
20
13.779958941997513
30
0
10
7.866562088643767
20
14.335777192311356
30
0
10
9.018273767631273
20
14.735088795050878
30
0
10
9.8619984780434322
20
14.856214681607627
30
0
0
LINE
5
287
100
AcDbEntity
8
0
100
AcDbLine
10
9.8619984780434322
20
14.856214681607629
30
0
11
10.15320114016021
21
14.8980218920466
31
0
0
LINE
5
288
100
AcDbEntity
8
0
100
AcDbLine
10
10.15320114016021
20
14.8980218920466
30
0
11
10.253796342501298
21
14.658804990120238
31
0
0
SPLINE
5
289
100
AcDbEntity
8
0
100
AcDbSpline
70
4
71
3
72
8
73
4
74
0
42
0.000000001
43
0.0000000001
44
0.0000000001
40
-1
40
-1
40
-1
40
-1
40
0
40
0
40
0
40
0
41
1
41
1
41
1
41
1
10
10.253796342501298
20
14.658804990120235
30
0
10
10.774973951232267
20
13.419417770985515
30
0
10
11.054731467451621
20
11.516339893929421
30
0
10
10.902804785760591
20
10.243891463345678
30
0
0
LINE
5
290
100
AcDbEntity
8
0
100
AcDbLine
10
10.902804785760594
20
10.243891463345678
30
0
11
10.833035176369901
21
9.6595309266879834
31
0
0
LINE
5
291
100
AcDbEntity
8
0
100
AcDbLine
10
10.833035176369901
20
9.6595309266879834
30
0
11
11.117256299489249
21
9.3091740280003723
31
0
0
SPLINE
5
292
100
AcDbEntity
8
0
100
AcDbSpline
70
4
71
3
72
8
73
4
74
0
42
0.000000001
43
0.0000000001
44
0.0000000001
40
-1
40
-1
40
-1
40
-1
40
0
40
0
40
0
40
0
41
1
41
1
41
1
41
1
10
11.117256299489249
20
9.3091740280003741
30
0
10
11.725161408782263
20
8.5598221756097317
30
0
10
12.332208132132969
20
7.736254274647254
30
0
10
12.332208132132969
20
7.660872728718191
30
0
0
SPLINE
5
293
100
AcDbEntity
8
0
100
AcDbSpline
70
4
71
3
72
8
73
4
74
0
42
0.000000001
43
0.0000000001
44
0.0000000001
40
-1
40
-1
40
-1
40
-1
40
0
40
0
40
0
40
0
41
1
41
1
41
1
41
1
10
12.332208132132969
20
7.660872728718191
30
0
10
12.332208132132969
20
7.6174021570754613
30
0
10
12.383673138185047
20
7.535260344969652
30
0
10
12.44657566003729
20
7.4783360043244995
30
0
0
SPLINE
5
294
100
AcDbEntity
8
0
100
AcDbSpline
70
4
71
3
72
8
73
4
74
0
42
0.000000001
43
0.0000000001
44
0.0000000001
40
-1
40
-1
40
-1
40
-1
40
0
40
0
40
0
40
0
41
1
41
1
41
1
41
1
10
12.44657566003729
20
7.4783360043244995
30
0
10
12.509478181889527
20
7.4214097561550307
30
0
10
12.636896991165543
20
7.2285933832211402
30
0
10
12.72972475449091
20
7.0498526322167621
30
0
0
SPLINE
5
295
100
AcDbEntity
8
0
100
AcDbSpline
70
4
71
3
72
8
73
4
74
0
42
0.000000001
43
0.0000000001
44
0.0000000001
40
-1
40
-1
40
-1
40
-1
40
0
40
0
40
0
40
0
41
1
41
1
41
1
41
1
10
12.72972475449091
20
7.0498526322167621
30
0
10
12.822556332864913
20
6.8711118812123839
30
0
10
12.924257899309417
20
6.6829822955234874
30
0
10
12.955732050527331
20
6.6317881579243121
30
0
0
SPLINE
5
296
100
AcDbEntity
8
0
100
AcDbSpline
70
4
71
3
72
8
73
4
74
0
42
0.000000001
43
0.0000000001
44
0.0000000001
40
-1
40
-1
40
-1
40
-1
40
0
40
0
40
0
40
0
41
1
41
1
41
1
41
1
10
12.955732050527331
20
6.6317881579243121
30
0
10
13.278088399776898
20
6.1074535964499654
30
0
10
13.992486776596804
20
4.4508145083815132
30
0
10
14.264209800396163
20
3.5975254710477422
30
0
0
SPLINE
5
297
100
AcDbEntity
8
0
100
AcDbSpline
70
4
71
3
72
8
73
4
74
0
42
0.000000001
43
0.0000000001
44
0.0000000001
40
-1
40
-1
40
-1
40
-1
40
0
40
0
40
0
40
0
41
1
41
1
41
1
41
1
10
14.264209800396163
20
3.5975254710477422
30
0
10
14.44827445176716
20
3.0195074527415322
30
0
10
14.689080321448952
20
1.92081922717247
30
0
10
14.689705989424677
20
1.6559785511060943
30
0
0
SPLINE
5
298
100
AcDbEntity
8
0
100
AcDbSpline
70
4
71
3
72
8
73
4
74
0
42
0.000000001
43
0.0000000001
44
0.0000000001
40
-1
40
-1
40
-1
40
-1
40
0
40
0
40
0
40
0
41
1
41
1
41
1
41
1
10
14.689705989424677
20
1.6559785511060943
30
0
10
14.690015008363906
20
1.5302154729365691
30
0
10
14.717067518216783
20
1.3568329577365024
30
0
10
14.749819710726575
20
1.2706853445665978
30
0
0
SPLINE
5
299
100
AcDbEntity
8
0
100
AcDbSpline
70
4
71
3
72
8
73
4
74
0
42
0.000000001
43
0.0000000001
44
0.0000000001
40
-1
40
-1
40
-1
40
-1
40
0
40
0
40
0
40
0
41
1
41
1
41
1
41
1
10
14.749819710726575
20
1.2706853445665978
30
0
10
14.78257190323637
20
1.1845377313966887
30
0
10
14.837188139458878
20
0.62361494601260059
30
0
10
14.871187852871488
20
0.024190689829577394
30
0
0
SPLINE
5
300
100
AcDbEntity
8
0
100
AcDbSpline
70
4
71
3
72
8
73
4
74
0
42
0.000000001
43
0.0000000001
44
0.0000000001
40
-1
40
-1
40
-1
40
-1
40
0
40
0
40
0
40
0
41
1
41
1
41
1
41
1
10
14.871187852871488
20
0.024190689829577394
30
0
10
14.92881034741638
20
-0.99171098041478611
30
0
10
14.922824536112032
20
-1.134710448305829
30
0
10
14.782991558585943
20
-2.0830666825122313
30
0
0
SPLINE
5
301
100
AcDbEntity
8
0
100
AcDbSpline
70
4
71
3
72
8
73
4
74
0
42
0.000000001
43
0.0000000001
44
0.0000000001
40
-1
40
-1
40
-1
40
-1
40
0
40
0
40
0
40
0
41
1
41
1
41
1
41
1
10
14.782991558585943
20
-2.0830666825122313
30
0
10
14.626566934557225
20
-3.1439515911821037
30
0
10
14.374506671409634
20
-4.2485912926178226
30
0
10
14.221210387259546
20
-4.5450320165069868
30
0
0
SPLINE
5
302
100
AcDbEntity
8
0
100
AcDbSpline
70
4
71
3
72
8
73
4
74
0
42
0.000000001
43
0.0000000001
44
0.0000000001
40
-1
40
-1
40
-1
40
-1
40
0
40
0
40
0
40
0
41
1
41
1
41
1
41
1
10
14.221210387259546
20
-4.5450320165069868
30
0
10
14.172022965241053
20
-4.6401449939632133
30
0
10
14.131781832265711
20
-4.7686320168563157
30
0
10
14.131781832265711
20
-4.8305617013072766
30
0
0
SPLINE
5
303
100
AcDbEntity
8
0
100
AcDbSpline
70
4
71
3
72
8
73
4
74
0
42
0.000000001
43
0.0000000001
44
0.0000000001
40
-1
40
-1
40
-1
40
-1
40
0
40
0
40
0
40
0
41
1
41
1
41
1
41
1
10
14.131781832265711
20
-4.8305617013072766
30
0
10
14.131781832265711
20
-4.8924913857582375
30
0
10
14.075933335334918
20
-5.0473594699449009
30
0
10
14.007674485202685
20
-5.1747172384428008
30
0
0
SPLINE
5
304
100
AcDbEntity
8
0
100
AcDbSpline
70
4
71
3
72
8
73
4
74
0
42
0.000000001
43
0.0000000001
44
0.0000000001
40
-1
40
-1
40
-1
40
-1
40
0
40
0
40
0
40
0
41
1
41
1
41
1
41
1
10
14.007674485202685
20
-5.1747172384428008
30
0
10
13.93941563507045
20
-5.3020750069407008
30
0
10
13.883567138139657
20
-5.4477221185826785
30
0
10
13.883567138139657
20
-5.4983783343246717
30
0
0
SPLINE
5
305
100
AcDbEntity
8
0
100
AcDbSpline
70
4
71
3
72
8
73
4
74
0
42
0.000000001
43
0.0000000001
44
0.0000000001
40
-1
40
-1
40
-1
40
-1
40
-0.70544241894081861
40
-0.70544241894081861
40
-0.70544241894081861
40
-0.70544241894081861
41
1
41
1
41
1
41
1
10
13.883567138139657
20
-5.4983783343246717
30
0
10
13.883567138139657
20
-5.5816370827229411
30
0
10
13.783696269015717
20
-5.8219631596951
30
0
10
13.62816642690273
20
-6.1389675678982272
30
0
0
ARC
5
306
100
AcDbEntity
8
0
100
AcDbCircle
10
10.762225485084276
20
-11.410246605932898
30
0
40
6.0000000149012465
210
0
220
-0
230
1
100
AcDbArc
50
55.604316920278002
51
61.467523100609746
0
SPLINE
5
307
100
AcDbEntity
8
0
100
AcDbSpline
70
4
71
3
72
8
73
4
74
0
42
0.000000001
43
0.0000000001
44
0.0000000001
40
-0.69333083607395296
40
-0.69333083607395296
40
-0.69333083607395296
40
-0.69333083607395296
40
0
40
0
40
0
40
0
41
1
41
1
41
1
41
1
10
14.151654497983268
20
-6.4593102151747281
30
0
10
14.231425129134365
20
-6.2356599210966923
30
0
10
14.341726852952604
20
-5.9270672475768746
30
0
10
14.439198451070503
20
-5.6549403001041565
30
0
0
SPLINE
5
308
100
AcDbEntity
8
0
100
AcDbSpline
70
4
71
3
72
8
73
4
74
0
42
0.000000001
43
0.0000000001
44
0.0000000001
40
-1
40
-1
40
-1
40
-1
40
0
40
0
40
0
40
0
41
1
41
1
41
1
41
1
10
14.439198451070503
20
-5.6549403001041565
30
0
10
15.178234411958931
20
-3.5916551783002504
30
0
10
15.503959449150972
20
-1.2510389112072406
30
0
10
15.309567461131866
20
0.59946568816903856
30
0
0
SPLINE
5
309
100
AcDbEntity
8
0
100
AcDbSpline
70
4
71
3
72
8
73
4
74
0
42
0.000000001
43
0.0000000001
44
0.0000000001
40
-1
40
-1
40
-1
40
-1
40
0
40
0
40
0
40
0
41
1
41
1
41
1
41
1
10
15.309567461131866
20
0.59946568816903856
30
0
10
15.209994691824281
20
1.5473641165395424
30
0
10
14.918952261750068
20
3.1562387957294158
30
0
10
14.716876765785161
20
3.8758332687867547
30
0
0
SPLINE
5
310
100
AcDbEntity
8
0
100
AcDbSpline
70
4
71
3
72
8
73
4
74
0
42
0.000000001
43
0.0000000001
44
0.0000000001
40
-1
40
-1
40
-1
40
-1
40
0
40
0
40
0
40
0
41
1
41
1
41
1
41
1
10
14.716876765785161
20
3.8758332687867547
30
0
10
14.668112814164873
20
4.0494828373910963
30
0
10
14.628215035566452
20
4.2284124333027817
30
0
10
14.628215035566452
20
4.2734528974577746
30
0
0
SPLINE
5
311
100
AcDbEntity
8
0
100
AcDbSpline
70
4
71
3
72
8
73
4
74
0
42
0.000000001
43
0.0000000001
44
0.0000000001
40
-1
40
-1
40
-1
40
-1
40
0
40
0
40
0
40
0
41
1
41
1
41
1
41
1
10
14.628215035566452
20
4.2734528974577746
30
0
10
14.628215035566452
20
4.3468391729520528
30
0
10
14.792826753960462
20
4.585832894533417
30
0
10
15.312642390329639
20
5.2671433545638724
30
0
0
SPLINE
5
312
100
AcDbEntity
8
0
100
AcDbSpline
70
4
71
3
72
8
73
4
74
0
42
0.000000001
43
0.0000000001
44
0.0000000001
40
-1
40
-1
40
-1
40
-1
40
0
40
0
40
0
40
0
41
1
41
1
41
1
41
1
10
15.312642390329639
20
5.2671433545638724
30
0
10
15.461360616120761
20
5.4620656343428919
30
0
10
15.671730027812668
20
5.8725209941378731
30
0
10
15.948454580369201
20
6.507682718385599
30
0
0
SPLINE
5
313
100
AcDbEntity
8
0
100
AcDbSpline
70
4
71
3
72
8
73
4
74
0
42
0.000000001
43
0.0000000001
44
0.0000000001
40
-1
40
-1
40
-1
40
-1
40
0
40
0
40
0
40
0
41
1
41
1
41
1
41
1
10
15.948454580369201
20
6.507682718385599
30
0
10
16.132160617168747
20
6.9293505061114224
30
0
10
16.259918965773053
20
7.683194578266801
30
0
10
16.222768022190017
20
8.1263220145502935
30
0
0
SPLINE
5
314
100
AcDbEntity
8
0
100
AcDbSpline
70
4
71
3
72
8
73
4
74
0
42
0.000000001
43
0.0000000001
44
0.0000000001
40
-1
40
-1
40
-1
40
-1
40
0
40
0
40
0
40
0
41
1
41
1
41
1
41
1
10
16.222768022190017
20
8.1263220145502935
30
0
10
16.15971671344111
20
8.8784054417617817
30
0
10
15.937673252933831
20
9.0519043159451407
30
0
10
15.038199236855325
20
9.0519043159451407
30
0
0
SPLINE
5
315
100
AcDbEntity
8
0
100
AcDbSpline
70
4
71
3
72
8
73
4
74
0
42
0.000000001
43
0.0000000001
44
0.0000000001
40
-1
40
-1
40
-1
40
-1
40
0
40
0
40
0
40
0
41
1
41
1
41
1
41
1
10
15.038199236855325
20
9.0519043159451407
30
0
10
14.555870268348841
20
9.0519043159451407
30
0
10
14.367002470749558
20
9.0220477453473933
30
0
10
13.995710492691241
20
8.8871056601681389
30
0
0
SPLINE
5
316
100
AcDbEntity
8
0
100
AcDbSpline
70
4
71
3
72
8
73
4
74
0
42
0.000000001
43
0.0000000001
44
0.0000000001
40
-1
40
-1
40
-1
40
-1
40
0
40
0
40
0
40
0
41
1
41
1
41
1
41
1
10
13.995710492691241
20
8.8871056601681389
30
0
10
13.746316948537753
20
8.7964658272334937
30
0
10
13.498182370432982
20
8.6847688333719084
30
0
10
13.44429862354791
20
8.6388890585177691
30
0
0
SPLINE
5
317
100
AcDbEntity
8
0
100
AcDbSpline
70
4
71
3
72
8
73
4
74
0
42
0.000000001
43
0.0000000001
44
0.0000000001
40
-1
40
-1
40
-1
40
-1
40
0
40
0
40
0
40
0
41
1
41
1
41
1
41
1
10
13.44429862354791
20
8.6388890585177691
30
0
10
13.390414876662842
20
8.5930073761393153
30
0
10
13.317463516712667
20
8.5554692051200831
30
0
10
13.282181946959541
20
8.5554692051200831
30
0
0
SPLINE
5
318
100
AcDbEntity
8
0
100
AcDbSpline
70
4
71
3
72
8
73
4
74
0
42
0.000000001
43
0.0000000001
44
0.0000000001
40
-1
40
-1
40
-1
40
-1
40
0
40
0
40
0
40
0
41
1
41
1
41
1
41
1
10
13.282181946959541
20
8.5554692051200831
30
0
10
13.246896562157783
20
8.5554692051200831
30
0
10
13.11261829544058
20
8.4716964597238906
30
0
10
12.983776473024653
20
8.3693062770012219
30
0
0
SPLINE
5
319
100
AcDbEntity
8
0
100
AcDbSpline
70
4
71
3
72
8
73
4
74
0
42
0.000000001
43
0.0000000001
44
0.0000000001
40
-1
40
-1
40
-1
40
-1
40
0
40
0
40
0
40
0
41
1
41
1
41
1
41
1
10
12.983776473024653
20
8.3693062770012219
30
0
10
12.854938465657355
20
8.2669180018028712
30
0
10
12.732418178825441
20
8.1847494843566402
30
0
10
12.71151552736811
20
8.1867123268780482
30
0
0
SPLINE
5
320
100
AcDbEntity
8
0
100
AcDbSpline
70
4
71
3
72
8
73
4
74
0
42
0.000000001
43
0.0000000001
44
0.0000000001
40
-1
40
-1
40
-1
40
-1
40
0
40
0
40
0
40
0
41
1
41
1
41
1
41
1
10
12.71151552736811
20
8.1867123268780482
30
0
10
12.673601574058582
20
8.1902717672521455
30
0
10
12.254449810905875
20
8.7246112937651521
30
0
10
11.900726131800106
20
9.2203139152527758
30
0
0
SPLINE
5
321
100
AcDbEntity
8
0
100
AcDbSpline
70
4
71
3
72
8
73
4
74
0
42
0.000000001
43
0.0000000001
44
0.0000000001
40
-1
40
-1
40
-1
40
-1
40
0
40
0
40
0
40
0
41
1
41
1
41
1
41
1
10
11.900726131800106
20
9.2203139152527758
30
0
10
11.798097508537907
20
9.364137433648434
30
0
10
11.647261930755764
20
9.5256208121638117
30
0
10
11.565535958950894
20
9.5791688347692237
30
0
0
SPLINE
5
322
100
AcDbEntity
8
0
100
AcDbSpline
70
4
71
3
72
8
73
4
74
0
42
0.000000001
43
0.0000000001
44
0.0000000001
40
-1
40
-1
40
-1
40
-1
40
0
40
0
40
0
40
0
41
1
41
1
41
1
41
1
10
11.565535958950894
20
9.5791688347692237
30
0
10
11.417485366670462
20
9.6761759838714667
30
0
10
11.416829178305674
20
9.6817726602153087
30
0
10
11.385099418829384
20
11.117247656486269
30
0
0
SPLINE
5
323
100
AcDbEntity
8
0
100
AcDbSpline
70
4
71
3
72
8
73
4
74
0
42
0.000000001
43
0.0000000001
44
0.0000000001
40
-1
40
-1
40
-1
40
-1
40
0
40
0
40
0
40
0
41
1
41
1
41
1
41
1
10
11.385099418829384
20
11.117247656486269
30
0
10
11.353323878769501
20
12.55491821324522
30
0
10
11.2701252981925
20
13.280519480374387
30
0
10
11.052694231481883
20
14.016238256476875
30
0
0
SPLINE
5
324
100
AcDbEntity
8
0
100
AcDbSpline
70
4
71
3
72
8
73
4
74
0
42
0.000000001
43
0.0000000001
44
0.0000000001
40
-1
40
-1
40
-1
40
-1
40
0
40
0
40
0
40
0
41
1
41
1
41
1
41
1
10
11.052694231481883
20
14.016238256476875
30
0
10
10.71005326865345
20
15.175625813312923
30
0
10
10.571788276115313
20
15.381430519316073
30
0
10
10.135514574700061
20
15.381430519316073
30
0
0
SPLINE
5
325
100
AcDbEntity
8
0
100
AcDbSpline
70
4
71
3
72
8
73
4
74
0
42
0.000000001
43
0.0000000001
44
0.0000000001
40
-1
40
-1
40
-1
40
-1
40
0
40
0
40
0
40
0
41
1
41
1
41
1
41
1
10
10.135514574700061
20
15.381430519316073
30
0
10
9.7206852616479456
20
15.381430519316073
30
0
10
8.6887584796228712
20
15.15656392282076
30
0
10
7.9759872210447158
20
14.910848085548981
30
0
0
SPLINE
5
326
100
AcDbEntity
8
0
100
AcDbSpline
70
4
71
3
72
8
73
4
74
0
42
0.000000001
43
0.0000000001
44
0.0000000001
40
-1
40
-1
40
-1
40
-1
40
0
40
0
40
0
40
0
41
1
41
1
41
1
41
1
10
7.9759872210447158
20
14.910848085548981
30
0
10
7.3857629546389036
20
14.707376281784583
30
0
10
6.6373476966875389
20
14.389815448666038
30
0
10
5.7311324896754501
20
13.958327725760228
30
0
0
SPLINE
5
327
100
AcDbEntity
8
0
100
AcDbSpline
70
4
71
3
72
8
73
4
74
0
42
0.000000001
43
0.0000000001
44
0.0000000001
40
-1
40
-1
40
-1
40
-1
40
0
40
0
40
0
40
0
41
1
41
1
41
1
41
1
10
5.7311324896754501
20
13.958327725760228
30
0
10
5.4169784949857069
20
13.808745391453851
30
0
10
5.340900702681215
20
13.794293987234042
30
0
10
5.1816147921781397
20
13.853932734981198
30
0
0
SPLINE
5
328
100
AcDbEntity
8
0
100
AcDbSpline
70
4
71
3
72
8
73
4
74
0
42
0.000000001
43
0.0000000001
44
0.0000000001
40
-1
40
-1
40
-1
40
-1
40
0
40
0
40
0
40
0
41
1
41
1
41
1
41
1
10
5.1816147921781397
20
13.853932734981198
30
0
10
5.0799323009767994
20
13.892005012808974
30
0
10
4.9382127819019539
20
14.006929537813635
30
0
10
4.8666844350916882
20
14.109319720536302
30
0
0
SPLINE
5
329
100
AcDbEntity
8
0
100
AcDbSpline
70
4
71
3
72
8
73
4
74
0
42
0.000000001
43
0.0000000001
44
0.0000000001
40
-1
40
-1
40
-1
40
-1
40
0
40
0
40
0
40
0
41
1
41
1
41
1
41
1
10
4.8666844350916882
20
14.109319720536302
30
0
10
4.3544264100634411
20
14.842606403135591
30
0
10
3.5754030169337359
20
15.517963479775068
30
0
10
2.7994946110124408
20
15.901429278019608
30
0
0
SPLINE
5
330
100
AcDbEntity
8
0
100
AcDbSpline
70
4
71
3
72
8
73
4
74
0
42
0.000000001
43
0.0000000001
44
0.0000000001
40
-1
40
-1
40
-1
40
-1
40
0
40
0
40
0
40
0
41
1
41
1
41
1
41
1
10
2.7994946110124408
20
15.901429278019608
30
0
10
1.8033796905004085
20
16.393721246029802
30
0
10
1.6334459792640965
20
16.440405996145394
30
0
10
0.69705183004481697
20
16.479029548500563
30
0
0
SPLINE
5
331
100
AcDbEntity
8
0
100
AcDbSpline
70
4
71
3
72
8
73
4
74
0
42
0.000000001
43
0.0000000001
44
0.0000000001
40
-1
40
-1
40
-1
40
-1
40
0
40
0
40
0
40
0
41
1
41
1
41
1
41
1
10
0.69705183004481697
20
16.479029548500563
30
0
10
-0.33018625721094708
20
16.521401386137139
30
0
10
-0.70013152310199889
20
16.449695639565466
30
0
10
-1.4873210278295179
20
16.055648803938759
30
0
0
SPLINE
5
332
100
AcDbEntity
8
0
100
AcDbSpline
70
4
71
3
72
8
73
4
74
0
42
0.000000001
43
0.0000000001
44
0.0000000001
40
-1
40
-1
40
-1
40
-1
40
0
40
0
40
0
40
0
41
1
41
1
41
1
41
1
10
-1.4873210278295179
20
16.055648803938759
30
0
10
-1.9888206157141841
20
15.804609066300355
30
0
10
-2.809008383588294
20
15.19097756901
30
0
10
-2.809008383588294
20
15.066812996217482
30
0
0
SPLINE
5
333
100
AcDbEntity
8
0
100
AcDbSpline
70
4
71
3
72
8
73
4
74
0
42
0.000000001
43
0.0000000001
44
0.0000000001
40
-1
40
-1
40
-1
40
-1
40
0
40
0
40
0
40
0
41
1
41
1
41
1
41
1
10
-2.809008383588294
20
15.066812996217482
30
0
10
-2.809008383588294
20
15.03179466482
30
0
10
-2.9027593886827208
20
14.856586648849293
30
0
10
-3.0173443743590922
20
14.677460577933035
30
0
0
SPLINE
5
334
100
AcDbEntity
8
0
100
AcDbSpline
70
4
71
3
72
8
73
4
74
0
42
0.000000001
43
0.0000000001
44
0.0000000001
40
-1
40
-1
40
-1
40
-1
40
0
40
0
40
0
40
0
41
1
41
1
41
1
41
1
10
-3.0173443743590922
20
14.677460577933035
30
0
10
-3.2087816072123454
20
14.378196718055838
30
0
10
-3.2565212182748149
20
14.343203184474467
30
0
10
-3.60592244727999
20
14.246062508670088
30
0
0
SPLINE
5
335
100
AcDbEntity
8
0
100
AcDbSpline
70
4
71
3
72
8
73
4
74
0
42
0.000000001
43
0.0000000001
44
0.0000000001
40
-1
40
-1
40
-1
40
-1
40
0
40
0
40
0
40
0
41
1
41
1
41
1
41
1
10
-3.60592244727999
20
14.246062508670088
30
0
10
-3.8150557832149756
20
14.187917352462541
30
0
10
-4.0393100644047752
20
14.140345603539902
30
0
10
-4.1042669899456019
20
14.140345603539902
30
0
0
SPLINE
5
336
100
AcDbEntity
8
0
100
AcDbSpline
70
4
71
3
72
8
73
4
74
0
42
0.000000001
43
0.0000000001
44
0.0000000001
40
-1
40
-1
40
-1
40
-1
40
0
40
0
40
0
40
0
41
1
41
1
41
1
41
1
10
-4.1042669899456019
20
14.140345603539902
30
0
10
-4.2838699419409192
20
14.140345603539902
30
0
10
-5.2377808869562053
20
13.856559395964654
30
0
10
-6.0358261125674311
20
13.565713440895015
30
0
0
SPLINE
5
337
100
AcDbEntity
8
0
100
AcDbSpline
70
4
71
3
72
8
73
4
74
0
42
0.000000001
43
0.0000000001
44
0.0000000001
40
-1
40
-1
40
-1
40
-1
40
0
40
0
40
0
40
0
41
1
41
1
41
1
41
1
10
-6.0358261125674311
20
13.565713440895015
30
0
10
-7.1185846025715964
20
13.171101978070698
30
0
10
-9.1069755509092403
20
12.145283088906215
30
0
10
-9.9762668097319267
20
11.53282281154603
30
0
0
SPLINE
5
338
100
AcDbEntity
8
0
100
AcDbSpline
70
4
71
3
72
8
73
4
74
0
42
0.000000001
43
0.0000000001
44
0.0000000001
40
-1
40
-1
40
-1
40
-1
40
0
40
0
40
0
40
0
41
1
41
1
41
1
41
1
10
-9.9762668097319267
20
11.53282281154603
30
0
10
-10.385824679336118
20
11.244267793180192
30
0
10
-10.748841816910595
20
10.977759940861418
30
0
10
-10.782971241976711
20
10.940582291937954
30
0
0
SPLINE
5
339
100
AcDbEntity
8
0
100
AcDbSpline
70
4
71
3
72
8
73
4
74
0
42
0.000000001
43
0.0000000001
44
0.0000000001
40
-1
40
-1
40
-1
40
-1
40
0
40
0
40
0
40
0
41
1
41
1
41
1
41
1
10
-10.782971241976711
20
10.940582291937954
30
0
10
-10.817101620804985
20
10.903402735490175
30
0
10
-10.956722863131972
20
10.789390007108675
30
0
10
-11.093242470920755
20
10.687217282158059
30
0
0
SPLINE
5
340
100
AcDbEntity
8
0
100
AcDbSpline
70
4
71
3
72
8
73
4
74
0
42
0.000000001
43
0.0000000001
44
0.0000000001
40
-1
40
-1
40
-1
40
-1
40
0
40
0
40
0
40
0
41
1
41
1
41
1
41
1
10
-11.093242470920755
20
10.687217282158059
30
0
10
-11.326802609487316
20
10.512417476391027
30
0
10
-11.401917102012106
20
10.495354671382287
30
0
10
-12.365353269700524
20
10.398238793394015
30
0
0
SPLINE
5
341
100
AcDbEntity
8
0
100
AcDbSpline
70
4
71
3
72
8
73
4
74
0
42
0.000000001
43
0.0000000001
44
0.0000000001
40
-1
40
-1
40
-1
40
-1
40
0
40
0
40
0
40
0
41
1
41
1
41
1
41
1
10
-12.365353269700524
20
10.398238793394015
30
0
10
-12.928495459626557
20
10.341472777267114
30
0
10
-13.58471815984986
20
10.236167897389237
30
0
10
-13.823626996599149
20
10.164229432850981
30
0
0
LINE
5
342
100
AcDbEntity
8
0
100
AcDbLine
10
-13.823626996599147
20
10.164229432850981
30
0
11
-14.671759041943977
21
9.9088519849174528
31
0
0
SPLINE
5
343
100
AcDbEntity
8
0
100
AcDbSpline
70
4
71
3
72
8
73
4
74
0
42
0.000000001
43
0.0000000001
44
0.0000000001
40
-1
40
-1
40
-1
40
-1
40
0
40
0
40
0
40
0
41
1
41
1
41
1
41
1
10
-14.671759041943977
20
9.9088519849174528
30
0
10
-14.899322877822447
20
9.8403337114782108
30
0
10
-15.146411655720842
20
9.7275360760861531
30
0
10
-15.220846115826895
20
9.6581899370936686
30
0
0
SPLINE
5
344
100
AcDbEntity
8
0
100
AcDbSpline
70
4
71
3
72
8
73
4
74
0
42
0.000000001
43
0.0000000001
44
0.0000000001
40
-1
40
-1
40
-1
40
-1
40
0
40
0
40
0
40
0
41
1
41
1
41
1
41
1
10
-15.220846115826895
20
9.6581899370936686
30
0
10
-15.348571082755665
20
9.5391966627224711
30
0
10
-15.353889737430412
20
9.496800027269785
30
0
10
-15.315439292906937
20
8.9041646501282479
30
0
0
SPLINE
5
345
100
AcDbEntity
8
0
100
AcDbSpline
70
4
71
3
72
8
73
4
74
0
42
0.000000001
43
0.0000000001
44
0.0000000001
40
-1
40
-1
40
-1
40
-1
40
0
40
0
40
0
40
0
41
1
41
1
41
1
41
1
10
-15.315439292906937
20
8.9041646501282479
30
0
10
-15.240829340563792
20
7.7542098010359961
30
0
10
-14.896962316481105
20
6.3917948936012392
30
0
10
-14.338899863809209
20
5.0350777612990827
30
0
0
LINE
5
346
100
AcDbEntity
8
0
100
AcDbLine
10
-14.338899863809207
20
5.0350777612990818
30
0
11
-14.154332579780888
21
4.5863746314392264
31
0
0
LINE
5
347
100
AcDbEntity
8
0
100
AcDbLine
10
-14.154332579780888
20
4.5863746314392264
30
0
11
-14.311920793642514
21
4.1042669357534258
31
0
0
SPLINE
5
348
100
AcDbEntity
8
0
100
AcDbSpline
70
4
71
3
72
8
73
4
74
0
42
0.000000001
43
0.0000000001
44
0.0000000001
40
-1
40
-1
40
-1
40
-1
40
0
40
0
40
0
40
0
41
1
41
1
41
1
41
1
10
-14.311920793642511
20
4.1042669357534267
30
0
10
-14.398593929761535
20
3.8391057956019203
30
0
10
-14.513694900765453
20
3.4607674227194263
30
0
10
-14.567700729206759
20
3.263510333177333
30
0
0
LINE
5
349
100
AcDbEntity
8
0
100
AcDbLine
10
-14.567700729206759
20
3.2635103331773325
30
0
11
-14.665892450909389
21
2.9048614262870402
31
0
0
LINE
5
350
100
AcDbEntity
8
0
100
AcDbLine
10
-14.665892450909389
20
2.9048614262870402
30
0
11
-14.958382691939626
21
2.9357900255505105
31
0
0
SPLINE
5
351
100
AcDbEntity
8
0
100
AcDbSpline
70
4
71
3
72
8
73
4
74
0
42
0.000000001
43
0.0000000001
44
0.0000000001
40
-1
40
-1
40
-1
40
-1
40
0
40
0
40
0
40
0
41
1
41
1
41
1
41
1
10
-14.958382691939626
20
2.9357900255505109
30
0
10
-15.78377275550519
20
3.0230707081642638
30
0
10
-16.034370901264381
20
3.0294570995750236
30
0
10
-16.466764221339329
20
2.9742266405226925
30
0
0
SPLINE
5
352
100
AcDbEntity
8
0
100
AcDbSpline
70
4
71
3
72
8
73
4
74
0
42
0.000000001
43
0.0000000001
44
0.0000000001
40
-1
40
-1
40
-1
40
-1
40
0
40
0
40
0
40
0
41
1
41
1
41
1
41
1
10
-16.466764221339329
20
2.9742266405226925
30
0
10
-17.34261927133419
20
2.862357969472642
30
0
10
-17.950230145001424
20
2.5434962047704257
30
0
10
-17.950230145001424
20
2.1957316316285835
30
0
0
SPLINE
5
353
100
AcDbEntity
8
0
100
AcDbSpline
70
4
71
3
72
8
73
4
74
0
42
0.000000001
43
0.0000000001
44
0.0000000001
40
-1
40
-1
40
-1
40
-1
40
0
40
0
40
0
40
0
41
1
41
1
41
1
41
1
10
-17.950230145001424
20
2.1957316316285835
30
0
10
-17.950230145001424
20
1.9529724570469664
30
0
10
-17.597566095653324
20
1.0899931961867093
30
0
10
-17.347997536143819
20
0.72205083082770738
30
0
0
SPLINE
5
354
100
AcDbEntity
8
0
100
AcDbSpline
70
4
71
3
72
8
73
4
74
0
42
0.000000001
43
0.0000000001
44
0.0000000001
40
-1
40
-1
40
-1
40
-1
40
0
40
0
40
0
40
0
41
1
41
1
41
1
41
1
10
-17.347997536143819
20
0.72205083082770738
30
0
10
-17.104920281882471
20
0.36367660743894969
30
0
10
-16.52102804244441
20
-0.31591326565825639
30
0
10
-16.096261004585777
20
-0.73483994094164728
30
0
0
SPLINE
5
355
100
AcDbEntity
8
0
100
AcDbSpline
70
4
71
3
72
8
73
4
74
0
42
0.000000001
43
0.0000000001
44
0.0000000001
40
-1
40
-1
40
-1
40
-1
40
0
40
0
40
0
40
0
41
1
41
1
41
1
41
1
10
-16.096261004585777
20
-0.73483994094164728
30
0
10
-15.839702322219424
20
-0.98786922644188646
30
0
10
-15.321109885818034
20
-1.3732043985163367
30
0
10
-15.237134465963242
20
-1.3732043985163367
30
0
0
SPLINE
5
356
100
AcDbEntity
8
0
100
AcDbSpline
70
4
71
3
72
8
73
4
74
0
42
0.000000001
43
0.0000000001
44
0.0000000001
40
-1
40
-1
40
-1
40
-1
40
0
40
0
40
0
40
0
41
1
41
1
41
1
41
1
10
-15.237134465963242
20
-1.3732043985163367
30
0
10
-15.215935671355819
20
-1.3732043985163367
30
0
10
-15.147524696159365
20
-1.4194160826015034
30
0
10
-15.085110023651005
20
-1.4759016926539203
30
0
0
SPLINE
5
357
100
AcDbEntity
8
0
100
AcDbSpline
70
4
71
3
72
8
73
4
74
0
42
0.000000001
43
0.0000000001
44
0.0000000001
40
-1
40
-1
40
-1
40
-1
40
0
40
0
40
0
40
0
41
1
41
1
41
1
41
1
10
-15.085110023651005
20
-1.4759016926539203
30
0
10
-15.006044094505128
20
-1.5474567448046095
30
0
10
-14.971629017672656
20
-1.6664519267001232
30
0
10
-14.971629017672656
20
-1.8682794445039175
30
0
0
SPLINE
5
358
100
AcDbEntity
8
0
100
AcDbSpline
70
4
71
3
72
8
73
4
74
0
42
0.000000001
43
0.0000000001
44
0.0000000001
40
-1
40
-1
40
-1
40
-1
40
0
40
0
40
0
40
0
41
1
41
1
41
1
41
1
10
-14.971629017672656
20
-1.8682794445039175
30
0
10
-14.971629017672656
20
-2.1779240517100806
30
0
10
-14.727963292159746
20
-3.5197720319671699
30
0
10
-14.5600868458985
20
-4.1346128996740195
30
0
0
SPLINE
5
359
100
AcDbEntity
8
0
100
AcDbSpline
70
4
71
3
72
8
73
4
74
0
42
0.000000001
43
0.0000000001
44
0.0000000001
40
-1
40
-1
40
-1
40
-1
40
0
40
0
40
0
40
0
41
1
41
1
41
1
41
1
10
-14.5600868458985
20
-4.1346128996740195
30
0
10
-14.38731378471747
20
-4.7673883110021364
30
0
10
-14.163353262272372
20
-5.4836789519437446
30
0
10
-14.076137435485371
20
-5.6824277255011335
30
0
0
SPLINE
5
360
100
AcDbEntity
8
0
100
AcDbSpline
70
4
71
3
72
8
73
4
74
0
42
0.000000001
43
0.0000000001
44
0.0000000001
40
-1
40
-1
40
-1
40
-1
40
0
40
0
40
0
40
0
41
1
41
1
41
1
41
1
10
-14.076137435485371
20
-5.6824277255011335
30
0
10
-14.030352083084887
20
-5.7867616755020457
30
0
10
-13.92856563180831
20
-6.0396726944946799
30
0
10
-13.849945109590276
20
-6.2444530599400139
30
0
0
LINE
5
361
100
AcDbEntity
8
0
100
AcDbLine
10
-13.849945109590276
20
-6.2444530599400139
30
0
11
-13.843287802049424
21
-6.261746321598439
31
0
0
SPLINE
5
362
100
AcDbEntity
8
0
100
AcDbSpline
70
4
71
3
72
8
73
4
74
0
42
0.000000001
43
0.0000000001
44
0.0000000001
40
-1
40
-1
40
-1
40
-1
40
0
40
0
40
0
40
0
41
1
41
1
41
1
41
1
10
14.717994575034474
20
5.4542333395004228
30
0
10
14.562920478221653
20
5.2145147586788854
30
0
10
14.416453131123692
20
5.0195505133649121
30
0
10
14.392509885906284
20
5.0209887866993519
30
0
0
SPLINE
5
363
100
AcDbEntity
8
0
100
AcDbSpline
70
4
71
3
72
8
73
4
74
0
42
0.000000001
43
0.0000000001
44
0.0000000001
40
-1
40
-1
40
-1
40
-1
40
0
40
0
40
0
40
0
41
1
41
1
41
1
41
1
10
14.392509885906284
20
5.0209887866993519
30
0
10
14.368566640688872
20
5.0224232449851636
30
0
10
14.195870834242651
20
5.3505365026211305
30
0
10
14.008738883771144
20
5.7501266039108234
30
0
0
SPLINE
5
364
100
AcDbEntity
8
0
100
AcDbSpline
70
4
71
3
72
8
73
4
74
0
42
0.000000001
43
0.0000000001
44
0.0000000001
40
-1
40
-1
40
-1
40
-1
40
0
40
0
40
0
40
0
41
1
41
1
41
1
41
1
10
14.008738883771144
20
5.7501266039108234
30
0
10
13.821610748348272
20
6.1497167052005208
30
0
10
13.535955166943111
20
6.7342775319114212
30
0
10
13.373952941813716
20
7.0491506632683887
30
0
0
LINE
5
365
100
AcDbEntity
8
0
100
AcDbLine
10
13.373952941813718
20
7.0491506632683878
30
0
11
13.079404482046257
21
7.6216483062034044
31
0
0
LINE
5
366
100
AcDbEntity
8
0
100
AcDbLine
10
13.079404482046257
20
7.6216483062034044
30
0
11
13.217757220702941
21
7.6953397855882821
31
0
0
SPLINE
5
367
100
AcDbEntity
8
0
100
AcDbSpline
70
4
71
3
72
8
73
4
74
0
42
0.000000001
43
0.0000000001
44
0.0000000001
40
-1
40
-1
40
-1
40
-1
40
0
40
0
40
0
40
0
41
1
41
1
41
1
41
1
10
13.217757220702943
20
7.6953397855882821
30
0
10
13.293852180726283
20
7.7358689547353743
30
0
10
13.495733109210931
20
7.8707499991365104
30
0
10
13.666380234541515
20
7.9950748039715869
30
0
0
SPLINE
5
368
100
AcDbEntity
8
0
100
AcDbSpline
70
4
71
3
72
8
73
4
74
0
42
0.000000001
43
0.0000000001
44
0.0000000001
40
-1
40
-1
40
-1
40
-1
40
0
40
0
40
0
40
0
41
1
41
1
41
1
41
1
10
13.666380234541515
20
7.9950748039715869
30
0
10
14.282064227996148
20
8.443623424361828
30
0
10
15.010742331847403
20
8.622984120768983
30
0
10
15.34024045213696
20
8.4070905186572489
30
0
0
SPLINE
5
369
100
AcDbEntity
8
0
100
AcDbSpline
70
4
71
3
72
8
73
4
74
0
42
0.000000001
43
0.0000000001
44
0.0000000001
40
-1
40
-1
40
-1
40
-1
40
0
40
0
40
0
40
0
41
1
41
1
41
1
41
1
10
15.34024045213696
20
8.4070905186572489
30
0
10
15.562520445659453
20
8.2614472220639037
30
0
10
15.639347895020226
20
8.0275713882230058
30
0
10
15.594349396400187
20
7.6335436278394608
30
0
0
SPLINE
5
370
100
AcDbEntity
8
0
100
AcDbSpline
70
4
71
3
72
8
73
4
74
0
42
0.000000001
43
0.0000000001
44
0.0000000001
40
-1
40
-1
40
-1
40
-1
40
0
40
0
40
0
40
0
41
1
41
1
41
1
41
1
10
15.594349396400187
20
7.6335436278394608
30
0
10
15.517418940726341
20
6.9598689876469022
30
0
10
15.230626474828703
20
6.2466837962921229
30
0
10
14.717994575034474
20
5.4542333395004228
30
0
0
SPLINE
5
371
100
AcDbEntity
8
0
100
AcDbSpline
70
4
71
3
72
8
73
4
74
0
42
0.000000001
43
0.0000000001
44
0.0000000001
40
-1
40
-1
40
-1
40
-1
40
0
40
0
40
0
40
0
41
1
41
1
41
1
41
1
10
2.9917196514083022
20
-1.608776021474374
30
0
10
3.1526155124342825
20
-1.5929969803304589
30
0
10
3.18194369879643
20
-1.5622095378663881
30
0
10
3.1984342465102999
20
-1.391776055259224
30
0
0
SPLINE
5
372
100
AcDbEntity
8
0
100
AcDbSpline
70
4
71
3
72
8
73
4
74
0
42
0.000000001
43
0.0000000001
44
0.0000000001
40
-1
40
-1
40
-1
40
-1
40
0
40
0
40
0
40
0
41
1
41
1
41
1
41
1
10
3.1984342465102999
20
-1.391776055259224
30
0
10
3.2090686945733227
20
-1.2818568740603675
30
0
10
3.1489130077364624
20
-1.0229829340551833
30
0
10
3.0637286943462572
20
-0.81209086070062497
30
0
0
LINE
5
373
100
AcDbEntity
8
0
100
AcDbLine
10
3.0637286943462572
20
-0.81209086070062508
30
0
11
2.909806742220443
21
-0.43102091299727835
31
0
0
LINE
5
374
100
AcDbEntity
8
0
100
AcDbLine
10
2.909806742220443
20
-0.43102091299727835
30
0
11
3.2543571368894275
21
-0.27328009719035595
31
0
0
SPLINE
5
375
100
AcDbEntity
8
0
100
AcDbSpline
70
4
71
3
72
8
73
4
74
0
42
0.000000001
43
0.0000000001
44
0.0000000001
40
-1
40
-1
40
-1
40
-1
40
0
40
0
40
0
40
0
41
1
41
1
41
1
41
1
10
3.2543571368894275
20
-0.27328009719035595
30
0
10
3.4438601400860147
20
-0.18652207623925499
30
0
10
3.7976830104562298
20
-0.062239236939132248
30
0
10
4.0406310299451542
20
0.0029065335090017186
30
0
0
SPLINE
5
376
100
AcDbEntity
8
0
100
AcDbSpline
70
4
71
3
72
8
73
4
74
0
42
0.000000001
43
0.0000000001
44
0.0000000001
40
-1
40
-1
40
-1
40
-1
40
0
40
0
40
0
40
0
41
1
41
1
41
1
41
1
10
4.0406310299451542
20
0.0029065335090017186
30
0
10
4.5468708157556703
20
0.13865359394970689
30
0
10
5.8800052249361867
20
0.29888182146500242
30
0
10
6.1603330909260956
20
0.25767166613701598
30
0
0
SPLINE
5
377
100
AcDbEntity
8
0
100
AcDbSpline
70
4
71
3
72
8
73
4
74
0
42
0.000000001
43
0.0000000001
44
0.0000000001
40
-1
40
-1
40
-1
40
-1
40
0
40
0
40
0
40
0
41
1
41
1
41
1
41
1
10
6.1603330909260956
20
0.25767166613701598
30
0
10
6.3466829564279426
20
0.23027961695584853
30
0
10
6.3501279453430648
20
0.22292038814380355
30
0
10
6.4395755755800632
20
-0.33892945405797459
30
0
0
LINE
5
378
100
AcDbEntity
8
0
100
AcDbLine
10
6.4395755755800641
20
-0.33892945405797453
30
0
11
6.5301410150663761
21
-0.90779517069487736
31
0
0
LINE
5
379
100
AcDbEntity
8
0
100
AcDbLine
10
6.5301410150663761
20
-0.90779517069487736
30
0
11
6.9786800978350305
21
-0.94531235894663179
31
0
0
LINE
5
380
100
AcDbEntity
8
0
100
AcDbLine
10
6.9786800978350305
20
-0.94531235894663179
30
0
11
6.971605090146106
21
-0.27498542392907066
31
0
0
SPLINE
5
381
100
AcDbEntity
8
0
100
AcDbSpline
70
4
71
3
72
8
73
4
74
0
42
0.000000001
43
0.0000000001
44
0.0000000001
40
-1
40
-1
40
-1
40
-1
40
0
40
0
40
0
40
0
41
1
41
1
41
1
41
1
10
6.9716050901461069
20
-0.27498542392907055
30
0
10
6.9651252300438493
20
0.33841717044333919
30
0
10
6.9790158221146914
20
0.42484709721204883
30
0
10
7.1351733927391336
20
0.74282377063152882
30
0
0
SPLINE
5
382
100
AcDbEntity
8
0
100
AcDbSpline
70
4
71
3
72
8
73
4
74
0
42
0.000000001
43
0.0000000001
44
0.0000000001
40
-1
40
-1
40
-1
40
-1
40
0
40
0
40
0
40
0
41
1
41
1
41
1
41
1
10
7.1351733927391336
20
0.74282377063152882
30
0
10
7.3730760104116122
20
1.2272510158858729
30
0
10
7.364125906319825
20
1.3571801271620565
30
0
10
7.0928587808320431
20
1.3571801271620565
30
0
0
SPLINE
5
383
100
AcDbEntity
8
0
100
AcDbSpline
70
4
71
3
72
8
73
4
74
0
42
0.000000001
43
0.0000000001
44
0.0000000001
40
-1
40
-1
40
-1
40
-1
40
0
40
0
40
0
40
0
41
1
41
1
41
1
41
1
10
7.0928587808320431
20
1.3571801271620565
30
0
10
6.8679292360342981
20
1.3571801271620565
30
0
10
6.697917316301023
20
1.1893866582085666
30
0
10
6.5628207216521517
20
0.83405684362852561
30
0
0
SPLINE
5
384
100
AcDbEntity
8
0
100
AcDbSpline
70
4
71
3
72
8
73
4
74
0
42
0.000000001
43
0.0000000001
44
0.0000000001
40
-1
40
-1
40
-1
40
-1
40
0
40
0
40
0
40
0
41
1
41
1
41
1
41
1
10
6.5628207216521517
20
0.83405684362852561
30
0
10
6.500179530631236
20
0.66930015338648285
30
0
10
6.4936786877614994
20
0.66760245674502894
30
0
10
6.0803563189192156
20
0.7080953829301162
30
0
0
SPLINE
5
385
100
AcDbEntity
8
0
100
AcDbSpline
70
4
71
3
72
8
73
4
74
0
42
0.000000001
43
0.0000000001
44
0.0000000001
40
-1
40
-1
40
-1
40
-1
40
0
40
0
40
0
40
0
41
1
41
1
41
1
41
1
10
6.0803563189192156
20
0.7080953829301162
30
0
10
5.1989179452507273
20
0.79444519367754207
30
0
10
3.7507731724713222
20
0.557160613883525
30
0
10
2.9383929016235744
20
0.19326983017221355
30
0
0
LINE
5
386
100
AcDbEntity
8
0
100
AcDbLine
10
2.9383929016235744
20
0.19326983017221352
30
0
11
2.5734587021112798
21
0.029806441416579121
31
0
0
LINE
5
387
100
AcDbEntity
8
0
100
AcDbLine
10
2.5734587021112798
20
0.029806441416579121
30
0
11
2.3929458610171173
21
0.23183615679789771
31
0
0
SPLINE
5
388
100
AcDbEntity
8
0
100
AcDbSpline
70
4
71
3
72
8
73
4
74
0
42
0.000000001
43
0.0000000001
44
0.0000000001
40
-1
40
-1
40
-1
40
-1
40
0
40
0
40
0
40
0
41
1
41
1
41
1
41
1
10
2.3929458610171173
20
0.23183615679789771
30
0
10
2.2483364426031693
20
0.39368196493336338
30
0
10
2.1728137398747061
20
0.43003556335221127
30
0
10
2.0132302555782999
20
0.41460369163385469
30
0
0
SPLINE
5
389
100
AcDbEntity
8
0
100
AcDbSpline
70
4
71
3
72
8
73
4
74
0
42
0.000000001
43
0.0000000001
44
0.0000000001
40
-1
40
-1
40
-1
40
-1
40
0
40
0
40
0
40
0
41
1
41
1
41
1
41
1
10
2.0132302555782999
20
0.41460369163385469
30
0
10
1.8498374452223665
20
0.39880557524677673
30
0
10
1.8106034850859976
20
0.36575580894365078
30
0
10
1.7949770458873804
20
0.2307488679376446
30
0
0
SPLINE
5
390
100
AcDbEntity
8
0
100
AcDbSpline
70
4
71
3
72
8
73
4
74
0
42
0.000000001
43
0.0000000001
44
0.0000000001
40
-1
40
-1
40
-1
40
-1
40
0
40
0
40
0
40
0
41
1
41
1
41
1
41
1
10
1.7949770458873804
20
0.2307488679376446
30
0
10
1.7808689960444912
20
0.10886569422734915
30
0
10
1.8458564419743784
20
-0.012582563938843272
30
0
10
2.045417820890485
20
-0.23727748324569475
30
0
0
SPLINE
5
391
100
AcDbEntity
8
0
100
AcDbSpline
70
4
71
3
72
8
73
4
74
0
42
0.000000001
43
0.0000000001
44
0.0000000001
40
-1
40
-1
40
-1
40
-1
40
0
40
0
40
0
40
0
41
1
41
1
41
1
41
1
10
2.045417820890485
20
-0.23727748324569475
30
0
10
2.194487031155794
20
-0.4051243628800405
30
0
10
2.4242330748520402
20
-0.78345129061663688
30
0
10
2.5595662025161214
20
-1.083939781104859
30
0
0
SPLINE
5
392
100
AcDbEntity
8
0
100
AcDbSpline
70
4
71
3
72
8
73
4
74
0
42
0.000000001
43
0.0000000001
44
0.0000000001
40
-1
40
-1
40
-1
40
-1
40
0
40
0
40
0
40
0
41
1
41
1
41
1
41
1
10
2.5595662025161214
20
-1.083939781104859
30
0
10
2.7947010024057395
20
-1.6060253714103601
30
0
10
2.8115196443020007
20
-1.6264473267399948
30
0
10
2.9917196514083022
20
-1.608776021474374
30
0
0
SPLINE
5
393
100
AcDbEntity
8
0
100
AcDbSpline
70
4
71
3
72
8
73
4
74
0
42
0.000000001
43
0.0000000001
44
0.0000000001
40
-1
40
-1
40
-1
40
-1
40
0
40
0
40
0
40
0
41
1
41
1
41
1
41
1
10
-11.751278273006641
20
6.138099882114636
30
0
10
-11.798916785280349
20
6.0563395748720739
30
0
10
-11.939065458080773
20
5.8411975373409408
30
0
10
-12.062720721880853
20
5.6600037100658795
30
0
0
LINE
5
394
100
AcDbEntity
8
0
100
AcDbLine
10
-12.062720721880853
20
5.6600037100658787
30
0
11
-12.287547260365523
21
5.3305628155058109
31
0
0
LINE
5
395
100
AcDbEntity
8
0
100
AcDbLine
10
-12.287547260365523
20
5.3305628155058109
30
0
11
-12.423131227477191
21
5.624365433265619
31
0
0
SPLINE
5
396
100
AcDbEntity
8
0
100
AcDbSpline
70
4
71
3
72
8
73
4
74
0
42
0.000000001
43
0.0000000001
44
0.0000000001
40
-1
40
-1
40
-1
40
-1
40
0
40
0
40
0
40
0
41
1
41
1
41
1
41
1
10
-12.423131227477191
20
5.624365433265619
30
0
10
-12.497703029334012
20
5.7859556331427076
30
0
10
-12.665865604242697
20
6.1275989607537484
30
0
10
-12.796825732411804
20
6.3835734637982577
30
0
0
SPLINE
5
397
100
AcDbEntity
8
0
100
AcDbSpline
70
4
71
3
72
8
73
4
74
0
42
0.000000001
43
0.0000000001
44
0.0000000001
40
-1
40
-1
40
-1
40
-1
40
0
40
0
40
0
40
0
41
1
41
1
41
1
41
1
10
-12.796825732411804
20
6.3835734637982577
30
0
10
-13.052436852074072
20
6.8831865101341672
30
0
10
-13.180210460872907
20
7.2427357685017224
30
0
10
-13.320808355649804
20
7.8580382570931029
30
0
0
SPLINE
5
398
100
AcDbEntity
8
0
100
AcDbSpline
70
4
71
3
72
8
73
4
74
0
42
0.000000001
43
0.0000000001
44
0.0000000001
40
-1
40
-1
40
-1
40
-1
40
0
40
0
40
0
40
0
41
1
41
1
41
1
41
1
10
-13.320808355649804
20
7.8580382570931029
30
0
10
-13.427185264193406
20
8.3235791040923868
30
0
10
-13.428456629150178
20
8.3223392132868312
30
0
10
-12.701971224500435
20
8.4613386026867232
30
0
0
SPLINE
5
399
100
AcDbEntity
8
0
100
AcDbSpline
70
4
71
3
72
8
73
4
74
0
42
0.000000001
43
0.0000000001
44
0.0000000001
40
-1
40
-1
40
-1
40
-1
40
0
40
0
40
0
40
0
41
1
41
1
41
1
41
1
10
-12.701971224500435
20
8.4613386026867232
30
0
10
-11.967394101701212
20
8.601884994307083
30
0
10
-10.069348273791354
20
8.5806428035214655
30
0
10
-10.069348273791354
20
8.4318749820981189
30
0
0
SPLINE
5
400
100
AcDbEntity
8
0
100
AcDbSpline
70
4
71
3
72
8
73
4
74
0
42
0.000000001
43
0.0000000001
44
0.0000000001
40
-1
40
-1
40
-1
40
-1
40
0
40
0
40
0
40
0
41
1
41
1
41
1
41
1
10
-10.069348273791354
20
8.4318749820981189
30
0
10
-10.069348273791354
20
8.4068482630690866
30
0
10
-10.156225515012222
20
8.277815688221537
30
0
10
-10.262408809837726
20
8.1451359268813395
30
0
0
SPLINE
5
401
100
AcDbEntity
8
0
100
AcDbSpline
70
4
71
3
72
8
73
4
74
0
42
0.000000001
43
0.0000000001
44
0.0000000001
40
-1
40
-1
40
-1
40
-1
40
0
40
0
40
0
40
0
41
1
41
1
41
1
41
1
10
-10.262408809837726
20
8.1451359268813395
30
0
10
-10.599301448139176
20
7.7241739231525219
30
0
10
-11.661176361929176
20
6.2927371558590384
30
0
10
-11.751278273006641
20
6.138099882114636
30
0
0
LINE
5
402
100
AcDbEntity
8
0
100
AcDbLine
10
-12.46645587350973
20
4.5158267521275093
30
0
11
-12.252178898256009
21
4.5344022239190265
31
0
0
SPLINE
5
403
100
AcDbEntity
8
0
100
AcDbSpline
70
4
71
3
72
8
73
4
74
0
42
0.000000001
43
0.0000000001
44
0.0000000001
40
-1
40
-1
40
-1
40
-1
40
0
40
0
40
0
40
0
41
1
41
1
41
1
41
1
10
-12.252178898256009
20
4.5344022239190274
30
0
10
-12.087579578770056
20
4.5486705058044841
30
0
10
-12.014609143576717
20
4.5961335258410996
30
0
10
-11.937436432314708
20
4.7391368087807706
30
0
0
SPLINE
5
404
100
AcDbEntity
8
0
100
AcDbSpline
70
4
71
3
72
8
73
4
74
0
42
0.000000001
43
0.0000000001
44
0.0000000001
40
-1
40
-1
40
-1
40
-1
40
0
40
0
40
0
40
0
41
1
41
1
41
1
41
1
10
-11.937436432314708
20
4.7391368087807706
30
0
10
-11.715389156758796
20
5.1505936188417767
30
0
10
-11.330325806899406
20
5.7552120637379156
30
0
10
-11.028467713952129
20
6.1663827451514841
30
0
0
SPLINE
5
405
100
AcDbEntity
8
0
100
AcDbSpline
70
4
71
3
72
8
73
4
74
0
42
0.000000001
43
0.0000000001
44
0.0000000001
40
-1
40
-1
40
-1
40
-1
40
0
40
0
40
0
40
0
41
1
41
1
41
1
41
1
10
-11.028467713952129
20
6.1663827451514841
30
0
10
-10.853073714360589
20
6.405292535662932
30
0
10
-10.638879716414625
20
6.7124592687823004
30
0
10
-10.552481263797134
20
6.8489788765710813
30
0
0
SPLINE
5
406
100
AcDbEntity
8
0
100
AcDbSpline
70
4
71
3
72
8
73
4
74
0
42
0.000000001
43
0.0000000001
44
0.0000000001
40
-1
40
-1
40
-1
40
-1
40
0
40
0
40
0
40
0
41
1
41
1
41
1
41
1
10
-10.552481263797134
20
6.8489788765710813
30
0
10
-10.466082811179643
20
6.9854984843598666
30
0
10
-10.126561604370416
20
7.4017927760868485
30
0
10
-9.7979905408985513
20
7.7740766667896066
30
0
0
SPLINE
5
407
100
AcDbEntity
8
0
100
AcDbSpline
70
4
71
3
72
8
73
4
74
0
42
0.000000001
43
0.0000000001
44
0.0000000001
40
-1
40
-1
40
-1
40
-1
40
0
40
0
40
0
40
0
41
1
41
1
41
1
41
1
10
-9.7979905408985513
20
7.7740766667896066
30
0
10
-8.9651539792834747
20
8.7177175008862697
30
0
10
-8.9843446276669798
20
8.8178415447212508
30
0
10
-10.018923822253782
20
8.9268241314808314
30
0
0
SPLINE
5
408
100
AcDbEntity
8
0
100
AcDbSpline
70
4
71
3
72
8
73
4
74
0
42
0.000000001
43
0.0000000001
44
0.0000000001
40
-1
40
-1
40
-1
40
-1
40
0
40
0
40
0
40
0
41
1
41
1
41
1
41
1
10
-10.018923822253782
20
8.9268241314808314
30
0
10
-11.239588690224632
20
9.0554084381140676
30
0
10
-12.946035145714356
20
8.9701897892861702
30
0
10
-13.537767310092153
20
8.7510991764204249
30
0
0
SPLINE
5
409
100
AcDbEntity
8
0
100
AcDbSpline
70
4
71
3
72
8
73
4
74
0
42
0.000000001
43
0.0000000001
44
0.0000000001
40
-1
40
-1
40
-1
40
-1
40
0
40
0
40
0
40
0
41
1
41
1
41
1
41
1
10
-13.537767310092153
20
8.7510991764204249
30
0
10
-13.823032802774641
20
8.6454776475060502
30
0
10
-13.823666100847634
20
8.6445849261260541
30
0
10
-13.842368423006182
20
8.3215666659387555
30
0
0
SPLINE
5
410
100
AcDbEntity
8
0
100
AcDbSpline
70
4
71
3
72
8
73
4
74
0
42
0.000000001
43
0.0000000001
44
0.0000000001
40
-1
40
-1
40
-1
40
-1
40
0
40
0
40
0
40
0
41
1
41
1
41
1
41
1
10
-13.842368423006182
20
8.3215666659387555
30
0
10
-13.882922389969385
20
7.6211122918705421
30
0
10
-13.658928485848755
20
6.8896091445069363
30
0
10
-13.005727304142368
20
5.5893223040520246
30
0
0
LINE
5
411
100
AcDbEntity
8
0
100
AcDbLine
10
-13.005727304142368
20
5.5893223040520246
30
0
11
-12.46645587350973
21
4.5158267521275093
31
0
0
SPLINE
5
412
100
AcDbEntity
8
0
100
AcDbSpline
70
4
71
3
72
8
73
4
74
0
42
0.000000001
43
0.0000000001
44
0.0000000001
40
-1
40
-1
40
-1
40
-1
40
0
40
0
40
0
40
0
41
1
41
1
41
1
41
1
10
9.9729896879080115
20
12.061531326277507
30
0
10
10.001381279830888
20
11.686103835501589
30
0
10
10.006275987226353
20
11.346125776618624
30
0
10
9.9838663915591965
20
11.306025800442686
30
0
0
SPLINE
5
413
100
AcDbEntity
8
0
100
AcDbSpline
70
4
71
3
72
8
73
4
74
0
42
0.000000001
43
0.0000000001
44
0.0000000001
40
-1
40
-1
40
-1
40
-1
40
0
40
0
40
0
40
0
41
1
41
1
41
1
41
1
10
9.9838663915591965
20
11.306025800442686
30
0
10
9.9563637059676893
20
11.256802135462184
30
0
10
9.8677210509921451
20
11.297121476934491
30
0
10
9.7110102983159905
20
11.430133147505712
30
0
0
SPLINE
5
414
100
AcDbEntity
8
0
100
AcDbSpline
70
4
71
3
72
8
73
4
74
0
42
0.000000001
43
0.0000000001
44
0.0000000001
40
-1
40
-1
40
-1
40
-1
40
0
40
0
40
0
40
0
41
1
41
1
41
1
41
1
10
9.7110102983159905
20
11.430133147505712
30
0
10
9.109613661989977
20
11.94059046957943
30
0
10
8.9812849636151171
20
12.040134626022274
30
0
10
8.8166770602697397
20
12.123869220932137
30
0
0
SPLINE
5
415
100
AcDbEntity
8
0
100
AcDbSpline
70
4
71
3
72
8
73
4
74
0
42
0.000000001
43
0.0000000001
44
0.0000000001
40
-1
40
-1
40
-1
40
-1
40
0
40
0
40
0
40
0
41
1
41
1
41
1
41
1
10
8.8166770602697397
20
12.123869220932137
30
0
10
8.719498233979035
20
12.173300806063111
30
0
10
8.5562160600334458
20
12.281924778251238
30
0
10
8.4538258773107788
20
12.365253070481748
30
0
0
LINE
5
416
100
AcDbEntity
8
0
100
AcDbLine
10
8.4538258773107788
20
12.365253070481748
30
0
11
8.2676629491919211
21
12.516760096823209
31
0
0
LINE
5
417
100
AcDbEntity
8
0
100
AcDbLine
10
8.2676629491919211
20
12.516760096823209
30
0
11
8.4531811340918885
21
12.711413415673638
31
0
0
SPLINE
5
418
100
AcDbEntity
8
0
100
AcDbSpline
70
4
71
3
72
8
73
4
74
0
42
0.000000001
43
0.0000000001
44
0.0000000001
40
-1
40
-1
40
-1
40
-1
40
0
40
0
40
0
40
0
41
1
41
1
41
1
41
1
10
8.4531811340918885
20
12.711413415673638
30
0
10
8.6505145246066348
20
12.918463735055292
30
0
10
9.7180376178970107
20
13.672494744593656
30
0
10
9.7576950484315805
20
13.632839221583403
30
0
0
SPLINE
5
419
100
AcDbEntity
8
0
100
AcDbSpline
70
4
71
3
72
8
73
4
74
0
42
0.000000001
43
0.0000000001
44
0.0000000001
40
-1
40
-1
40
-1
40
-1
40
0
40
0
40
0
40
0
41
1
41
1
41
1
41
1
10
9.7576950484315805
20
13.632839221583403
30
0
10
9.8050016514742655
20
13.58553643358935
30
0
10
9.922711161980633
20
12.726427539566739
30
0
10
9.9729896879080115
20
12.061531326277507
30
0
0
SPLINE
5
420
100
AcDbEntity
8
0
100
AcDbSpline
70
4
71
3
72
8
73
4
74
0
42
0.000000001
43
0.0000000001
44
0.0000000001
40
-1
40
-1
40
-1
40
-1
40
0
40
0
40
0
40
0
41
1
41
1
41
1
41
1
10
10.198573513546233
20
10.417098486308657
30
0
10
10.398398130817977
20
10.417098486308657
30
0
10
10.398703334708577
20
10.417594442630875
30
0
10
10.438383655534942
20
10.804936330286008
30
0
0
SPLINE
5
421
100
AcDbEntity
8
0
100
AcDbSpline
70
4
71
3
72
8
73
4
74
0
42
0.000000001
43
0.0000000001
44
0.0000000001
40
-1
40
-1
40
-1
40
-1
40
0
40
0
40
0
40
0
41
1
41
1
41
1
41
1
10
10.438383655534942
20
10.804936330286008
30
0
10
10.516412845214944
20
11.566639402624283
30
0
10
10.24249998350054
20
13.994889244329549
30
0
10
10.061617082689027
20
14.145009500493103
30
0
0
SPLINE
5
422
100
AcDbEntity
8
0
100
AcDbSpline
70
4
71
3
72
8
73
4
74
0
42
0.000000001
43
0.0000000001
44
0.0000000001
40
-1
40
-1
40
-1
40
-1
40
0
40
0
40
0
40
0
41
1
41
1
41
1
41
1
10
10.061617082689027
20
14.145009500493103
30
0
10
9.7997025489237579
20
14.362383341474235
30
0
10
8.8113646050490182
20
13.841156137111042
30
0
10
7.7712297458911772
20
12.937113600295142
30
0
0
SPLINE
5
423
100
AcDbEntity
8
0
100
AcDbSpline
70
4
71
3
72
8
73
4
74
0
42
0.000000001
43
0.0000000001
44
0.0000000001
40
-1
40
-1
40
-1
40
-1
40
0
40
0
40
0
40
0
41
1
41
1
41
1
41
1
10
7.7712297458911772
20
12.937113600295142
30
0
10
7.6688414706928265
20
12.848119960845409
30
0
10
7.5501629378338109
20
12.775273514732625
30
0
10
7.5075011565011662
20
12.775231549197667
30
0
0
SPLINE
5
424
100
AcDbEntity
8
0
100
AcDbSpline
70
4
71
3
72
8
73
4
74
0
42
0.000000001
43
0.0000000001
44
0.0000000001
40
-1
40
-1
40
-1
40
-1
40
0
40
0
40
0
40
0
41
1
41
1
41
1
41
1
10
7.5075011565011662
20
12.775231549197667
30
0
10
7.4238276023694194
20
12.775147618127756
30
0
10
7.4020207843861963
20
12.478331111948293
30
0
10
7.4774233130827383
20
12.365844403019782
30
0
0
SPLINE
5
425
100
AcDbEntity
8
0
100
AcDbSpline
70
4
71
3
72
8
73
4
74
0
42
0.000000001
43
0.0000000001
44
0.0000000001
40
-1
40
-1
40
-1
40
-1
40
0
40
0
40
0
40
0
41
1
41
1
41
1
41
1
10
7.4774233130827383
20
12.365844403019782
30
0
10
7.5024977202196741
20
12.328437851178368
30
0
10
7.5972215627153838
20
12.279687252228296
30
0
10
7.687920528903831
20
12.257508467003401
30
0
0
SPLINE
5
426
100
AcDbEntity
8
0
100
AcDbSpline
70
4
71
3
72
8
73
4
74
0
42
0.000000001
43
0.0000000001
44
0.0000000001
40
-1
40
-1
40
-1
40
-1
40
0
40
0
40
0
40
0
41
1
41
1
41
1
41
1
10
7.687920528903831
20
12.257508467003401
30
0
10
7.9015441770792405
20
12.205272821127565
30
0
10
9.357118757070392
20
11.0788358393302
30
0
10
9.7956662274705977
20
10.626369163994408
30
0
0
SPLINE
5
427
100
AcDbEntity
8
0
100
AcDbSpline
70
4
71
3
72
8
73
4
74
0
42
0.000000001
43
0.0000000001
44
0.0000000001
40
-1
40
-1
40
-1
40
-1
40
0
40
0
40
0
40
0
41
1
41
1
41
1
41
1
10
9.7956662274705977
20
10.626369163994408
30
0
10
9.9434230610063388
20
10.473921728165045
30
0
10
10.052823395591176
20
10.417098486308657
30
0
10
10.198573513546233
20
10.417098486308657
30
0
0
SPLINE
5
428
100
AcDbEntity
8
0
100
AcDbSpline
70
4
71
3
72
8
73
4
74
0
42
0.000000001
43
0.0000000001
44
0.0000000001
40
-1
40
-1
40
-1
40
-1
40
0
40
0
40
0
40
0
41
1
41
1
41
1
41
1
10
10.984896022261692
20
-9.4607641226522254
30
0
10
11.181974266896315
20
-9.1459186833111126
30
0
10
11.364218548449632
20
-8.8883178693047462
30
0
10
11.389888540659854
20
-8.8883178693047462
30
0
0
SPLINE
5
429
100
AcDbEntity
8
0
100
AcDbSpline
70
4
71
3
72
8
73
4
74
0
42
0.000000001
43
0.0000000001
44
0.0000000001
40
-1
40
-1
40
-1
40
-1
40
0
40
0
40
0
40
0
41
1
41
1
41
1
41
1
10
11.389888540659854
20
-8.8883178693047462
30
0
10
11.415554914830288
20
-8.8883178693047462
30
0
10
11.339594169734664
20
-9.1123887258151726
30
0
10
11.22108165883434
20
-9.38625285474183
30
0
0
SPLINE
5
430
100
AcDbEntity
8
0
100
AcDbSpline
70
4
71
3
72
8
73
4
74
0
42
0.000000001
43
0.0000000001
44
0.0000000001
40
-1
40
-1
40
-1
40
-1
40
0
40
0
40
0
40
0
41
1
41
1
41
1
41
1
10
11.22108165883434
20
-9.38625285474183
30
0
10
10.882339066773206
20
-10.169033850462931
30
0
10
10.884488182400114
20
-10.143637472510768
30
0
10
11.165197416455337
20
-10.046925460280299
30
0
0
SPLINE
5
431
100
AcDbEntity
8
0
100
AcDbSpline
70
4
71
3
72
8
73
4
74
0
42
0.000000001
43
0.0000000001
44
0.0000000001
40
-1
40
-1
40
-1
40
-1
40
0
40
0
40
0
40
0
41
1
41
1
41
1
41
1
10
11.165197416455337
20
-10.046925460280299
30
0
10
11.54435351281359
20
-9.9162947774054686
30
0
10
11.855258906838717
20
-9.8949144236045896
30
0
10
12.216798767527965
20
-9.9746080812390314
30
0
0
LINE
5
432
100
AcDbEntity
8
0
100
AcDbLine
10
12.216798767527965
20
-9.9746080812390332
30
0
11
12.554749008878163
21
-10.049102163460493
31
0
0
LINE
5
433
100
AcDbEntity
8
0
100
AcDbLine
10
12.554749008878163
20
-10.049102163460493
30
0
11
12.156402829548387
21
-10.089784759465953
31
0
0
SPLINE
5
434
100
AcDbEntity
8
0
100
AcDbSpline
70
4
71
3
72
8
73
4
74
0
42
0.000000001
43
0.0000000001
44
0.0000000001
40
-1
40
-1
40
-1
40
-1
40
0
40
0
40
0
40
0
41
1
41
1
41
1
41
1
10
12.156402829548387
20
-10.089784759465953
30
0
10
11.413138064259973
20
-10.165693042984834
30
0
10
10.750454280861046
20
-10.508197944157946
30
0
10
10.651175269409556
20
-10.867754666795019
30
0
0
SPLINE
5
435
100
AcDbEntity
8
0
100
AcDbSpline
70
4
71
3
72
8
73
4
74
0
42
0.000000001
43
0.0000000001
44
0.0000000001
40
-1
40
-1
40
-1
40
-1
40
0
40
0
40
0
40
0
41
1
41
1
41
1
41
1
10
10.651175269409556
20
-10.867754666795019
30
0
10
10.620031183018366
20
-10.980547056809606
30
0
10
10.600497386268124
20
-11.078779550255909
30
0
10
10.607766028177963
20
-11.086049096675691
30
0
0
SPLINE
5
436
100
AcDbEntity
8
0
100
AcDbSpline
70
4
71
3
72
8
73
4
74
0
42
0.000000001
43
0.0000000001
44
0.0000000001
40
-1
40
-1
40
-1
40
-1
40
0
40
0
40
0
40
0
41
1
41
1
41
1
41
1
10
10.607766028177963
20
-11.086049096675691
30
0
10
10.615034670087802
20
-11.093318643095479
30
0
10
10.774394850058373
20
-11.047261901257844
30
0
10
10.961892525366341
20
-10.983700630729295
30
0
0
SPLINE
5
437
100
AcDbEntity
8
0
100
AcDbSpline
70
4
71
3
72
8
73
4
74
0
42
0.000000001
43
0.0000000001
44
0.0000000001
40
-1
40
-1
40
-1
40
-1
40
0
40
0
40
0
40
0
41
1
41
1
41
1
41
1
10
10.961892525366341
20
-10.983700630729295
30
0
10
11.471811815306214
20
-10.810840639844802
30
0
10
12.09386501202145
20
-10.854438923654687
30
0
10
12.584919842569633
20
-11.097454967069309
30
0
0
SPLINE
5
438
100
AcDbEntity
8
0
100
AcDbSpline
70
4
71
3
72
8
73
4
74
0
42
0.000000001
43
0.0000000001
44
0.0000000001
40
-1
40
-1
40
-1
40
-1
40
0
40
0
40
0
40
0
41
1
41
1
41
1
41
1
10
12.584919842569633
20
-11.097454967069309
30
0
10
12.865223856169949
20
-11.236171516588369
30
0
10
12.905561381631783
20
-11.269384669476423
30
0
10
12.753922098543047
20
-11.236604324596563
30
0
0
SPLINE
5
439
100
AcDbEntity
8
0
100
AcDbSpline
70
4
71
3
72
8
73
4
74
0
42
0.000000001
43
0.0000000001
44
0.0000000001
40
-1
40
-1
40
-1
40
-1
40
0
40
0
40
0
40
0
41
1
41
1
41
1
41
1
10
12.753922098543047
20
-11.236604324596563
30
0
10
12.644375090207474
20
-11.212922897498196
30
0
10
12.285863528810674
20
-11.19342980369543
30
0
10
11.957226121843725
20
-11.193296388478696
30
0
0
SPLINE
5
440
100
AcDbEntity
8
0
100
AcDbSpline
70
4
71
3
72
8
73
4
74
0
42
0.000000001
43
0.0000000001
44
0.0000000001
40
-1
40
-1
40
-1
40
-1
40
0
40
0
40
0
40
0
41
1
41
1
41
1
41
1
10
11.957226121843725
20
-11.193296388478696
30
0
10
11.386462256992047
20
-11.193056241088568
30
0
10
11.340165820019266
20
-11.202375859296389
30
0
10
10.923374873911804
20
-11.401410106684878
30
0
0
SPLINE
5
441
100
AcDbEntity
8
0
100
AcDbSpline
70
4
71
3
72
8
73
4
74
0
42
0.000000001
43
0.0000000001
44
0.0000000001
40
-1
40
-1
40
-1
40
-1
40
0
40
0
40
0
40
0
41
1
41
1
41
1
41
1
10
10.923374873911804
20
-11.401410106684878
30
0
10
10.683390295574426
20
-11.51601061207748
30
0
10
10.462270176628756
20
-11.656855021239757
30
0
10
10.431990801744009
20
-11.714397682601053
30
0
0
SPLINE
5
442
100
AcDbEntity
8
0
100
AcDbSpline
70
4
71
3
72
8
73
4
74
0
42
0.000000001
43
0.0000000001
44
0.0000000001
40
-1
40
-1
40
-1
40
-1
40
0
40
0
40
0
40
0
41
1
41
1
41
1
41
1
10
10.431990801744009
20
-11.714397682601053
30
0
10
10.401711426859261
20
-11.771940343962338
30
0
10
10.358251533070799
20
-11.95732870208094
30
0
10
10.335410847965356
20
-12.12637256551178
30
0
0
SPLINE
5
443
100
AcDbEntity
8
0
100
AcDbSpline
70
4
71
3
72
8
73
4
74
0
42
0.000000001
43
0.0000000001
44
0.0000000001
40
-1
40
-1
40
-1
40
-1
40
0
40
0
40
0
40
0
41
1
41
1
41
1
41
1
10
10.335410847965356
20
-12.12637256551178
30
0
10
10.296828071794852
20
-12.411942636005961
30
0
10
10.301404892111403
20
-12.430614434779589
30
0
10
10.399992857965694
20
-12.38983957875984
30
0
0
SPLINE
5
444
100
AcDbEntity
8
0
100
AcDbSpline
70
4
71
3
72
8
73
4
74
0
42
0.000000001
43
0.0000000001
44
0.0000000001
40
-1
40
-1
40
-1
40
-1
40
0
40
0
40
0
40
0
41
1
41
1
41
1
41
1
10
10.399992857965694
20
-12.38983957875984
30
0
10
11.12565947778398
20
-12.089715943266981
30
0
10
12.005414793619318
20
-12.064276148837511
30
0
10
12.611653538473968
20
-12.325884846405661
30
0
0
SPLINE
5
445
100
AcDbEntity
8
0
100
AcDbSpline
70
4
71
3
72
8
73
4
74
0
42
0.000000001
43
0.0000000001
44
0.0000000001
40
-1
40
-1
40
-1
40
-1
40
0
40
0
40
0
40
0
41
1
41
1
41
1
41
1
10
12.611653538473968
20
-12.325884846405661
30
0
10
12.762413637897154
20
-12.390942176381557
30
0
10
12.718226518113731
20
-12.396353407121428
30
0
10
12.233742047798639
20
-12.372166811219344
30
0
0
SPLINE
5
446
100
AcDbEntity
8
0
100
AcDbSpline
70
4
71
3
72
8
73
4
74
0
42
0.000000001
43
0.0000000001
44
0.0000000001
40
-1
40
-1
40
-1
40
-1
40
0
40
0
40
0
40
0
41
1
41
1
41
1
41
1
10
12.233742047798639
20
-12.372166811219344
30
0
10
11.567552383856849
20
-12.338908885089058
30
0
10
11.084804572634201
20
-12.463707740100066
30
0
10
10.554960737648287
20
-12.806162440971288
30
0
0
SPLINE
5
447
100
AcDbEntity
8
0
100
AcDbSpline
70
4
71
3
72
8
73
4
74
0
42
0.000000001
43
0.0000000001
44
0.0000000001
40
-1
40
-1
40
-1
40
-1
40
0
40
0
40
0
40
0
41
1
41
1
41
1
41
1
10
10.554960737648287
20
-12.806162440971288
30
0
10
10.179353938310216
20
-13.048931100916237
30
0
10
10.138227680177234
20
-13.140755593664398
30
0
10
10.1368347348635
20
-13.739627105025317
30
0
0
SPLINE
5
448
100
AcDbEntity
8
0
100
AcDbSpline
70
4
71
3
72
8
73
4
74
0
42
0.000000001
43
0.0000000001
44
0.0000000001
40
-1
40
-1
40
-1
40
-1
40
0
40
0
40
0
40
0
41
1
41
1
41
1
41
1
10
10.1368347348635
20
-13.739627105025317
30
0
10
10.136487403045011
20
-13.888296881967953
30
0
10
10.11265899308075
20
-14.009935379234687
30
0
10
10.083873868623456
20
-14.009935379234687
30
0
0
SPLINE
5
449
100
AcDbEntity
8
0
100
AcDbSpline
70
4
71
3
72
8
73
4
74
0
42
0.000000001
43
0.0000000001
44
0.0000000001
40
-1
40
-1
40
-1
40
-1
40
0
40
0
40
0
40
0
41
1
41
1
41
1
41
1
10
10.083873868623456
20
-14.009935379234687
30
0
10
10.002182148522749
20
-14.009935379234687
30
0
10
9.8552463171427274
20
-13.503048911136982
30
0
10
9.8347247955336581
20
-13.150457367323551
30
0
0
SPLINE
5
450
100
AcDbEntity
8
0
100
AcDbSpline
70
4
71
3
72
8
73
4
74
0
42
0.000000001
43
0.0000000001
44
0.0000000001
40
-1
40
-1
40
-1
40
-1
40
0
40
0
40
0
40
0
41
1
41
1
41
1
41
1
10
9.8347247955336581
20
-13.150457367323551
30
0
10
9.8145831681010609
20
-12.804372868047121
30
0
10
9.7045006898786479
20
-12.615387726136277
30
0
10
9.3863338900232307
20
-12.380649305474009
30
0
0
SPLINE
5
451
100
AcDbEntity
8
0
100
AcDbSpline
70
4
71
3
72
8
73
4
74
0
42
0.000000001
43
0.0000000001
44
0.0000000001
40
-1
40
-1
40
-1
40
-1
40
0
40
0
40
0
40
0
41
1
41
1
41
1
41
1
10
9.3863338900232307
20
-12.380649305474009
30
0
10
9.2060542040682414
20
-12.247645640761139
30
0
10
9.0660794812171019
20
-12.19267404891562
30
0
10
8.6041715791038076
20
-12.073477728497641
30
0
0
SPLINE
5
452
100
AcDbEntity
8
0
100
AcDbSpline
70
4
71
3
72
8
73
4
74
0
42
0.000000001
43
0.0000000001
44
0.0000000001
40
-1
40
-1
40
-1
40
-1
40
0
40
0
40
0
40
0
41
1
41
1
41
1
41
1
10
8.6041715791038076
20
-12.073477728497641
30
0
10
8.2705521313654007
20
-11.987386019774441
30
0
10
8.3946400415604394
20
-11.906425143708477
30
0
10
8.8620111837353832
20
-11.905252898821077
30
0
0
SPLINE
5
453
100
AcDbEntity
8
0
100
AcDbSpline
70
4
71
3
72
8
73
4
74
0
42
0.000000001
43
0.0000000001
44
0.0000000001
40
-1
40
-1
40
-1
40
-1
40
0
40
0
40
0
40
0
41
1
41
1
41
1
41
1
10
8.8620111837353832
20
-11.905252898821077
30
0
10
9.1325030734633827
20
-11.904574968618062
30
0
10
9.2812587788507095
20
-11.940496224278402
30
0
10
9.5322530522262205
20
-12.06710093339257
30
0
0
SPLINE
5
454
100
AcDbEntity
8
0
100
AcDbSpline
70
4
71
3
72
8
73
4
74
0
42
0.000000001
43
0.0000000001
44
0.0000000001
40
-1
40
-1
40
-1
40
-1
40
0
40
0
40
0
40
0
41
1
41
1
41
1
41
1
10
9.5322530522262205
20
-12.06710093339257
30
0
10
9.7096817228377752
20
-12.156596313034974
30
0
10
9.8671026334884449
20
-12.209990891793158
30
0
10
9.8820813181607914
20
-12.185755452354098
30
0
0
SPLINE
5
455
100
AcDbEntity
8
0
100
AcDbSpline
70
4
71
3
72
8
73
4
74
0
42
0.000000001
43
0.0000000001
44
0.0000000001
40
-1
40
-1
40
-1
40
-1
40
0
40
0
40
0
40
0
41
1
41
1
41
1
41
1
10
9.8820813181607914
20
-12.185755452354098
30
0
10
9.8970600028331379
20
-12.161520012915039
30
0
10
9.9249767977442005
20
-11.991856560172568
30
0
10
9.9441162281588724
20
-11.808725858874155
30
0
0
SPLINE
5
456
100
AcDbEntity
8
0
100
AcDbSpline
70
4
71
3
72
8
73
4
74
0
42
0.000000001
43
0.0000000001
44
0.0000000001
40
-1
40
-1
40
-1
40
-1
40
0
40
0
40
0
40
0
41
1
41
1
41
1
41
1
10
9.9441162281588724
20
-11.808725858874155
30
0
10
9.9776228945237477
20
-11.488159394137352
30
0
10
9.9720076967915006
20
-11.469005943818559
30
0
10
9.7933778369743418
20
-11.294361354814576
30
0
0
SPLINE
5
457
100
AcDbEntity
8
0
100
AcDbSpline
70
4
71
3
72
8
73
4
74
0
42
0.000000001
43
0.0000000001
44
0.0000000001
40
-1
40
-1
40
-1
40
-1
40
0
40
0
40
0
40
0
41
1
41
1
41
1
41
1
10
9.7933778369743418
20
-11.294361354814576
30
0
10
9.5690376626280926
20
-11.075026738498327
30
0
10
9.2856908775762115
20
-10.934180520316158
30
0
10
8.9886208676542445
20
-10.894335500518824
30
0
0
SPLINE
5
458
100
AcDbEntity
8
0
100
AcDbSpline
70
4
71
3
72
8
73
4
74
0
42
0.000000001
43
0.0000000001
44
0.0000000001
40
-1
40
-1
40
-1
40
-1
40
0
40
0
40
0
40
0
41
1
41
1
41
1
41
1
10
8.9886208676542445
20
-10.894335500518824
30
0
10
8.695624770519963
20
-10.855036804727657
30
0
10
8.66162243270578
20
-10.781141508089114
30
0
10
8.9146862248331349
20
-10.733666042404346
30
0
0
SPLINE
5
459
100
AcDbEntity
8
0
100
AcDbSpline
70
4
71
3
72
8
73
4
74
0
42
0.000000001
43
0.0000000001
44
0.0000000001
40
-1
40
-1
40
-1
40
-1
40
0
40
0
40
0
40
0
41
1
41
1
41
1
41
1
10
8.9146862248331349
20
-10.733666042404346
30
0
10
9.2242674163002647
20
-10.67558836341119
30
0
10
9.5986187558360925
20
-10.736893786139445
30
0
10
9.9049798919026522
20
-10.895839700555667
30
0
0
LINE
5
460
100
AcDbEntity
8
0
100
AcDbLine
10
9.9049798919026504
20
-10.895839700555667
30
0
11
10.18055150947605
21
-11.03881106485122
31
0
0
LINE
5
461
100
AcDbEntity
8
0
100
AcDbLine
10
10.18055150947605
20
-11.03881106485122
30
0
11
10.272138568363918
21
-10.805655536590919
31
0
0
SPLINE
5
462
100
AcDbEntity
8
0
100
AcDbSpline
70
4
71
3
72
8
73
4
74
0
42
0.000000001
43
0.0000000001
44
0.0000000001
40
-1
40
-1
40
-1
40
-1
40
0
40
0
40
0
40
0
41
1
41
1
41
1
41
1
10
10.272138568363918
20
-10.805655536590919
30
0
10
10.361547567306673
20
-10.578047820072033
30
0
10
10.360310197703306
20
-10.567340231355171
30
0
10
10.220216079539561
20
-10.355643297005908
30
0
0
SPLINE
5
463
100
AcDbEntity
8
0
100
AcDbSpline
70
4
71
3
72
8
73
4
74
0
42
0.000000001
43
0.0000000001
44
0.0000000001
40
-1
40
-1
40
-1
40
-1
40
0
40
0
40
0
40
0
41
1
41
1
41
1
41
1
10
10.220216079539561
20
-10.355643297005908
30
0
10
10.140655384866886
20
-10.235420357801509
30
0
10
9.9508602543011992
20
-10.069381276404577
30
0
10
9.7942895829978749
20
-9.9830335913672243
30
0
0
SPLINE
5
464
100
AcDbEntity
8
0
100
AcDbSpline
70
4
71
3
72
8
73
4
74
0
42
0.000000001
43
0.0000000001
44
0.0000000001
40
-1
40
-1
40
-1
40
-1
40
0
40
0
40
0
40
0
41
1
41
1
41
1
41
1
10
9.7942895829978749
20
-9.9830335913672243
30
0
10
9.6389635173774657
20
-9.8973697158475282
30
0
10
9.5115144482305958
20
-9.8080751374126898
30
0
10
9.5110549571790592
20
-9.784600843091491
30
0
0
SPLINE
5
465
100
AcDbEntity
8
0
100
AcDbSpline
70
4
71
3
72
8
73
4
74
0
42
0.000000001
43
0.0000000001
44
0.0000000001
40
-1
40
-1
40
-1
40
-1
40
0
40
0
40
0
40
0
41
1
41
1
41
1
41
1
10
9.5110549571790592
20
-9.784600843091491
30
0
10
9.5091337780580343
20
-9.6844779238622678
30
0
10
9.8805870677333374
20
-9.7548763850573739
30
0
10
10.197002736337204
20
-9.9146019870453053
30
0
0
SPLINE
5
466
100
AcDbEntity
8
0
100
AcDbSpline
70
4
71
3
72
8
73
4
74
0
42
0.000000001
43
0.0000000001
44
0.0000000001
40
-1
40
-1
40
-1
40
-1
40
0
40
0
40
0
40
0
41
1
41
1
41
1
41
1
10
10.197002736337204
20
-9.9146019870453053
30
0
10
10.385144422725281
20
-10.009576887928358
30
0
10
10.558766915492557
20
-10.075116773959367
30
0
10
10.582826880002489
20
-10.060246630480298
30
0
0
SPLINE
5
467
100
AcDbEntity
8
0
100
AcDbSpline
70
4
71
3
72
8
73
4
74
0
42
0.000000001
43
0.0000000001
44
0.0000000001
40
-1
40
-1
40
-1
40
-1
40
0
40
0
40
0
40
0
41
1
41
1
41
1
41
1
10
10.582826880002489
20
-10.060246630480298
30
0
10
10.606890462552183
20
-10.04537648700123
30
0
10
10.787821395666839
20
-9.7756095619933348
30
0
10
10.984896022261692
20
-9.4607641226522254
30
0
0
SPLINE
5
468
100
AcDbEntity
8
0
100
AcDbSpline
70
4
71
3
72
8
73
4
74
0
42
0.000000001
43
0.0000000001
44
0.0000000001
40
-1
40
-1
40
-1
40
-1
40
0
40
0
40
0
40
0
41
1
41
1
41
1
41
1
10
7.9999336102452467
20
-10.785564109460214
30
0
10
7.808040016609521
20
-11.176029745903048
30
0
10
7.7777316974065691
20
-11.293539155275498
30
0
10
7.7569822392916166
20
-11.72750041364958
30
0
0
SPLINE
5
469
100
AcDbEntity
8
0
100
AcDbSpline
70
4
71
3
72
8
73
4
74
0
42
0.000000001
43
0.0000000001
44
0.0000000001
40
-1
40
-1
40
-1
40
-1
40
0
40
0
40
0
40
0
41
1
41
1
41
1
41
1
10
7.7569822392916166
20
-11.72750041364958
30
0
10
7.7369165906943138
20
-12.147210665601239
30
0
10
7.7526297374411701
20
-12.268297864057111
30
0
10
7.8593402025924242
20
-12.516360620704191
30
0
0
SPLINE
5
470
100
AcDbEntity
8
0
100
AcDbSpline
70
4
71
3
72
8
73
4
74
0
42
0.000000001
43
0.0000000001
44
0.0000000001
40
-1
40
-1
40
-1
40
-1
40
0
40
0
40
0
40
0
41
1
41
1
41
1
41
1
10
7.8593402025924242
20
-12.516360620704191
30
0
10
8.071871095110037
20
-13.010401238577455
30
0
10
8.6853567736358794
20
-13.505675608014309
30
0
10
9.3521397961009267
20
-13.72151610241696
30
0
0
SPLINE
5
471
100
AcDbEntity
8
0
100
AcDbSpline
70
4
71
3
72
8
73
4
74
0
42
0.000000001
43
0.0000000001
44
0.0000000001
40
-1
40
-1
40
-1
40
-1
40
0
40
0
40
0
40
0
41
1
41
1
41
1
41
1
10
9.3521397961009267
20
-13.72151610241696
30
0
10
9.5254909358850171
20
-13.777630994831673
30
0
10
9.5744972846499721
20
-13.828107172255603
30
0
10
9.6221287783000697
20
-13.99959230802525
30
0
0
SPLINE
5
472
100
AcDbEntity
8
0
100
AcDbSpline
70
4
71
3
72
8
73
4
74
0
42
0.000000001
43
0.0000000001
44
0.0000000001
40
-1
40
-1
40
-1
40
-1
40
0
40
0
40
0
40
0
41
1
41
1
41
1
41
1
10
9.6221287783000697
20
-13.99959230802525
30
0
10
9.6541339581579422
20
-14.114826874888585
30
0
10
9.6806143912779596
20
-14.234716954433605
30
0
10
9.6809544870168995
20
-14.266015712025219
30
0
0
SPLINE
5
473
100
AcDbEntity
8
0
100
AcDbSpline
70
4
71
3
72
8
73
4
74
0
42
0.000000001
43
0.0000000001
44
0.0000000001
40
-1
40
-1
40
-1
40
-1
40
0
40
0
40
0
40
0
41
1
41
1
41
1
41
1
10
9.6809544870168995
20
-14.266015712025219
30
0
10
9.6813018188353972
20
-14.297314469616836
30
0
10
9.7075181350517781
20
-14.416267476859886
30
0
10
9.7392049274093573
20
-14.530355125114252
30
0
0
SPLINE
5
474
100
AcDbEntity
8
0
100
AcDbSpline
70
4
71
3
72
8
73
4
74
0
42
0.000000001
43
0.0000000001
44
0.0000000001
40
-1
40
-1
40
-1
40
-1
40
0
40
0
40
0
40
0
41
1
41
1
41
1
41
1
10
9.7392049274093573
20
-14.530355125114252
30
0
10
9.7915000743306368
20
-14.718626156424325
30
0
10
9.8216962343005321
20
-14.74297285058649
30
0
10
10.066102057244084
20
-14.79393474985034
30
0
0
SPLINE
5
475
100
AcDbEntity
8
0
100
AcDbSpline
70
4
71
3
72
8
73
4
74
0
42
0.000000001
43
0.0000000001
44
0.0000000001
40
-1
40
-1
40
-1
40
-1
40
0
40
0
40
0
40
0
41
1
41
1
41
1
41
1
10
10.066109293323642
20
-14.793935654360283
30
0
10
10.214213751551293
20
-14.824817432867722
30
0
10
10.409605989650341
20
-14.85311231293538
30
0
10
10.500317482912429
20
-14.856810854096318
30
0
0
LINE
5
476
100
AcDbEntity
8
0
100
AcDbLine
10
10.500317482912429
20
-14.856810854096318
30
0
11
10.665245826098149
21
-14.863538599059659
31
0
0
LINE
5
477
100
AcDbEntity
8
0
100
AcDbLine
10
10.665245826098149
20
-14.863538599059659
30
0
11
10.630433047374153
21
-14.412119394256781
31
0
0
LINE
5
478
100
AcDbEntity
8
0
100
AcDbLine
10
10.630433047374153
20
-14.412119394256781
30
0
11
10.595620268650174
21
-13.960699284943953
31
0
0
LINE
5
479
100
AcDbEntity
8
0
100
AcDbLine
10
10.595620268650174
20
-13.960699284943953
30
0
11
10.920759031153793
21
-13.923332170138156
31
0
0
SPLINE
5
480
100
AcDbEntity
8
0
100
AcDbSpline
70
4
71
3
72
8
73
4
74
0
42
0.000000001
43
0.0000000001
44
0.0000000001
40
-1
40
-1
40
-1
40
-1
40
0
40
0
40
0
40
0
41
1
41
1
41
1
41
1
10
10.920759031153802
20
-13.92333217013816
30
0
10
12.495626620899705
20
-13.742339730347318
30
0
10
13.578704918022906
20
-13.195245081709771
30
0
10
13.777259322886115
20
-12.48043077219938
30
0
0
SPLINE
5
481
100
AcDbEntity
8
0
100
AcDbSpline
70
4
71
3
72
8
73
4
74
0
42
0.000000001
43
0.0000000001
44
0.0000000001
40
-1
40
-1
40
-1
40
-1
40
0
40
0
40
0
40
0
41
1
41
1
41
1
41
1
10
13.777259322886115
20
-12.48043077219938
30
0
10
13.937115174305985
20
-11.904930893281019
30
0
10
13.770620219897278
20
-11.08503514102849
30
0
10
13.290911562086416
20
-10.085441302714951
30
0
0
SPLINE
5
482
100
AcDbEntity
8
0
100
AcDbSpline
70
4
71
3
72
8
73
4
74
0
42
0.000000001
43
0.0000000001
44
0.0000000001
40
-1
40
-1
40
-1
40
-1
40
0
40
0
40
0
40
0
41
1
41
1
41
1
41
1
10
13.290911562086416
20
-10.085441302714951
30
0
10
12.946029156525549
20
-9.3667950368268826
30
0
10
12.048198113969679
20
-7.9778094415015044
30
0
10
11.928549538579709
20
-7.9778094415015044
30
0
0
SPLINE
5
483
100
AcDbEntity
8
0
100
AcDbSpline
70
4
71
3
72
8
73
4
74
0
42
0.000000001
43
0.0000000001
44
0.0000000001
40
-1
40
-1
40
-1
40
-1
40
0
40
0
40
0
40
0
41
1
41
1
41
1
41
1
10
11.928549538579709
20
-7.9778094415015044
30
0
10
11.82848903053662
20
-7.9778094415015044
30
0
10
11.07721030714452
20
-8.301802416033599
30
0
10
10.478102718688227
20
-8.6033212581150487
30
0
0
SPLINE
5
484
100
AcDbEntity
8
0
100
AcDbSpline
70
4
71
3
72
8
73
4
74
0
42
0.000000001
43
0.0000000001
44
0.0000000001
40
-1
40
-1
40
-1
40
-1
40
0
40
0
40
0
40
0
41
1
41
1
41
1
41
1
10
10.478102718688227
20
-8.6033212581150487
30
0
10
9.310962885411076
20
-9.1907183824540937
30
0
10
8.3814703767760523
20
-10.009219154245512
30
0
10
7.9999336102452467
20
-10.785564109460214
30
0
0
LINE
5
485
100
AcDbEntity
8
0
100
AcDbLine
10
4.0842679137915994
20
-16.014527507330452
30
0
11
3.4226835572916681
21
-15.405342748684831
31
0
0
SPLINE
5
486
100
AcDbEntity
8
0
100
AcDbSpline
70
4
71
3
72
8
73
4
74
0
42
0.000000001
43
0.0000000001
44
0.0000000001
40
-1
40
-1
40
-1
40
-1
40
0
40
0
40
0
40
0
41
1
41
1
41
1
41
1
10
3.4226835572916681
20
-15.405342748684831
30
0
10
2.6213392242493327
20
-14.667466930274141
30
0
10
2.0575085955242045
20
-13.942578518607514
30
0
10
2.0575085955242045
20
-13.650201992702442
30
0
0
SPLINE
5
487
100
AcDbEntity
8
0
100
AcDbSpline
70
4
71
3
72
8
73
4
74
0
42
0.000000001
43
0.0000000001
44
0.0000000001
40
-1
40
-1
40
-1
40
-1
40
0
40
0
40
0
40
0
41
1
41
1
41
1
41
1
10
2.0575085955242045
20
-13.650201992702442
30
0
10
2.0575085955242045
20
-13.328688018319523
30
0
10
2.4469461630561185
20
-12.809592198183996
30
0
10
3.3086575130879492
20
-11.982501705333458
30
0
0
SPLINE
5
488
100
AcDbEntity
8
0
100
AcDbSpline
70
4
71
3
72
8
73
4
74
0
42
0.000000001
43
0.0000000001
44
0.0000000001
40
-1
40
-1
40
-1
40
-1
40
0
40
0
40
0
40
0
41
1
41
1
41
1
41
1
10
3.3086575130879492
20
-11.982501705333458
30
0
10
3.7399007988874544
20
-11.568584743834966
30
0
10
4.041413078639744
20
-11.24961897409872
30
0
10
3.9786886055279957
20
-11.273689359210056
30
0
0
SPLINE
5
489
100
AcDbEntity
8
0
100
AcDbSpline
70
4
71
3
72
8
73
4
74
0
42
0.000000001
43
0.0000000001
44
0.0000000001
40
-1
40
-1
40
-1
40
-1
40
0
40
0
40
0
40
0
41
1
41
1
41
1
41
1
10
3.9786886055279957
20
-11.273689359210056
30
0
10
3.5013526506493875
20
-11.456859298020255
30
0
10
2.2986905406955405
20
-11.806789300179705
30
0
10
1.8836779979286256
20
-11.883258060398404
30
0
0
SPLINE
5
490
100
AcDbEntity
8
0
100
AcDbSpline
70
4
71
3
72
8
73
4
74
0
42
0.000000001
43
0.0000000001
44
0.0000000001
40
-1
40
-1
40
-1
40
-1
40
0
40
0
40
0
40
0
41
1
41
1
41
1
41
1
10
1.8836779979286256
20
-11.883258060398404
30
0
10
0.94529552305763431
20
-12.056161815804845
30
0
10
0.76890449334586997
20
-11.847290347450169
30
0
10
0.2852689461737512
20
-9.9905270923388212
30
0
0
LINE
5
491
100
AcDbEntity
8
0
100
AcDbLine
10
0.28526894617375143
20
-9.990527092338823
30
0
11
0.0047390041070904942
21
-8.9135269922647531
31
0
0
LINE
5
492
100
AcDbEntity
8
0
100
AcDbLine
10
0.0047390041070904942
20
-8.9135269922647531
30
0
11
-0.052972206504007247
21
-9.2948128115585771
31
0
0
SPLINE
5
493
100
AcDbEntity
8
0
100
AcDbSpline
70
4
71
3
72
8
73
4
74
0
42
0.000000001
43
0.0000000001
44
0.0000000001
40
-1
40
-1
40
-1
40
-1
40
0
40
0
40
0
40
0
41
1
41
1
41
1
41
1
10
-0.052972206504007247
20
-9.2948128115585771
30
0
10
-0.13268063477037906
20
-9.8214496178299804
30
0
10
-0.45362970006175729
20
-10.911432845033779
30
0
10
-0.66718979160149239
20
-11.380781816825998
30
0
0
SPLINE
5
494
100
AcDbEntity
8
0
100
AcDbSpline
70
4
71
3
72
8
73
4
74
0
42
0.000000001
43
0.0000000001
44
0.0000000001
40
-1
40
-1
40
-1
40
-1
40
0
40
0
40
0
40
0
41
1
41
1
41
1
41
1
10
-0.66718979160149239
20
-11.380781816825998
30
0
10
-0.97744104381527031
20
-12.062630758551101
30
0
10
-1.4334107184655132
20
-12.089552589553048
30
0
10
-3.1647433685576498
20
-11.528243876415125
30
0
0
LINE
5
495
100
AcDbEntity
8
0
100
AcDbLine
10
-3.1647433685576494
20
-11.528243876415123
30
0
11
-3.9636006343008923
21
-11.269249565029597
31
0
0
LINE
5
496
100
AcDbEntity
8
0
100
AcDbLine
10
-3.9636006343008923
20
-11.269249565029597
30
0
11
-3.1207428195123299
21
-12.129996167716799
31
0
0
SPLINE
5
497
100
AcDbEntity
8
0
100
AcDbSpline
70
4
71
3
72
8
73
4
74
0
42
0.000000001
43
0.0000000001
44
0.0000000001
40
-1
40
-1
40
-1
40
-1
40
0
40
0
40
0
40
0
41
1
41
1
41
1
41
1
10
-3.1207428195123388
20
-12.129996167716799
30
0
10
-2.1829130262633711
20
-13.087729224466806
30
0
10
-1.9041426170597475
20
-13.480227938991497
30
0
10
-1.9714047041080551
20
-13.748222279312635
30
0
0
SPLINE
5
498
100
AcDbEntity
8
0
100
AcDbSpline
70
4
71
3
72
8
73
4
74
0
42
0.000000001
43
0.0000000001
44
0.0000000001
40
-1
40
-1
40
-1
40
-1
40
0
40
0
40
0
40
0
41
1
41
1
41
1
41
1
10
-1.9714047041080551
20
-13.748222279312635
30
0
10
-2.019700763193546
20
-13.940648412544764
30
0
10
-3.3890880882085384
20
-15.497963996131219
30
0
10
-3.8012235073988698
20
-15.82915540126081
30
0
0
LINE
5
499
100
AcDbEntity
8
0
100
AcDbLine
10
-3.8012235073988698
20
-15.82915540126081
30
0
11
-4.0583146131545789
21
-16.035753171659401
31
0
0
LINE
5
500
100
AcDbEntity
8
0
100
AcDbLine
10
-4.0583146131545789
20
-16.035753171659401
30
0
11
-3.635207485569536
21
-15.876056306074782
31
0
0
SPLINE
5
501
100
AcDbEntity
8
0
100
AcDbSpline
70
4
71
3
72
8
73
4
74
0
42
0.000000001
43
0.0000000001
44
0.0000000001
40
-1
40
-1
40
-1
40
-1
40
0
40
0
40
0
40
0
41
1
41
1
41
1
41
1
10
-3.635207485569536
20
-15.876056306074787
30
0
10
-2.9398753132115907
20
-15.613610791418996
30
0
10
-1.797026315878254
20
-15.337064558919927
30
0
10
-1.4077794968707469
20
-15.337064558919927
30
0
0
SPLINE
5
502
100
AcDbEntity
8
0
100
AcDbSpline
70
4
71
3
72
8
73
4
74
0
42
0.000000001
43
0.0000000001
44
0.0000000001
40
-1
40
-1
40
-1
40
-1
40
0
40
0
40
0
40
0
41
1
41
1
41
1
41
1
10
-1.4077794968707469
20
-15.337064558919927
30
0
10
-0.97713780257133287
20
-15.337064558919927
30
0
10
-0.8775719638146029
20
-15.425015524385532
30
0
10
-0.60148426142229816
20
-16.049302430627613
30
0
0
SPLINE
5
503
100
AcDbEntity
8
0
100
AcDbSpline
70
4
71
3
72
8
73
4
74
0
42
0.000000001
43
0.0000000001
44
0.0000000001
40
-1
40
-1
40
-1
40
-1
40
0
40
0
40
0
40
0
41
1
41
1
41
1
41
1
10
-0.60148426142229816
20
-16.049302430627613
30
0
10
-0.4033478999272333
20
-16.497324250093914
30
0
10
-0.025122921939448872
20
-17.876934962369351
30
0
10
-0.012584874700021231
20
-18.19736313745944
30
0
0
SPLINE
5
504
100
AcDbEntity
8
0
100
AcDbSpline
70
4
71
3
72
8
73
4
74
0
42
0.000000001
43
0.0000000001
44
0.0000000001
40
-0.99999617644110306
40
-0.99999617644110306
40
-0.99999617644110306
40
-0.99999617644110306
40
0
40
0
40
0
40
0
41
1
41
1
41
1
41
1
10
-0.012582385190757944
20
-18.197363040083225
30
0
10
-0.0087449647301602179
20
-18.295470090243452
30
0
10
0.054617579178710421
20
-18.116107943712919
30
0
10
0.12822177323275952
20
-17.798778199984273
30
0
0
SPLINE
5
505
100
AcDbEntity
8
0
100
AcDbSpline
70
4
71
3
72
8
73
4
74
0
42
0.000000001
43
0.0000000001
44
0.0000000001
40
-1
40
-1
40
-1
40
-1
40
0
40
0
40
0
40
0
41
1
41
1
41
1
41
1
10
0.12822177323275952
20
-17.798778199984273
30
0
10
0.32667849442908015
20
-16.94319648041969
30
0
10
0.73815974400043061
20
-15.757154558402448
30
0
10
0.91417172215726872
20
-15.533391254926951
30
0
0
SPLINE
5
506
100
AcDbEntity
8
0
100
AcDbSpline
70
4
71
3
72
8
73
4
74
0
42
0.000000001
43
0.0000000001
44
0.0000000001
40
-1
40
-1
40
-1
40
-1
40
0
40
0
40
0
40
0
41
1
41
1
41
1
41
1
10
0.91417172215726872
20
-15.533391254926951
30
0
10
1.0371409375633789
20
-15.377061834446426
30
0
10
1.1362788148871328
20
-15.337063336172978
30
0
10
1.4007760989273343
20
-15.337063336172978
30
0
0
SPLINE
5
507
100
AcDbEntity
8
0
100
AcDbSpline
70
4
71
3
72
8
73
4
74
0
42
0.000000001
43
0.0000000001
44
0.0000000001
40
-1
40
-1
40
-1
40
-1
40
0
40
0
40
0
40
0
41
1
41
1
41
1
41
1
10
1.4007760989273343
20
-15.337063336172978
30
0
10
1.7368970083914004
20
-15.337063336172978
30
0
10
2.8723129270072967
20
-15.605374367954523
30
0
10
3.6565045658157214
20
-15.870114978638048
30
0
0
LINE
5
508
100
AcDbEntity
8
0
100
AcDbLine
10
3.6565045658157209
20
-15.870114978638048
30
0
11
4.0842679137915994
21
-16.014527507330452
31
0
0
SPLINE
5
509
100
AcDbEntity
8
0
100
AcDbSpline
70
4
71
3
72
8
73
4
74
0
42
0.000000001
43
0.0000000001
44
0.0000000001
40
-1
40
-1
40
-1
40
-1
40
0
40
0
40
0
40
0
41
1
41
1
41
1
41
1
10
-10.345845121681879
20
-12.544838047252703
30
0
10
-10.44556689075095
20
-12.638523569210612
30
0
10
-10.548392937947767
20
-12.675528880038808
30
0
10
-10.693807383602017
20
-12.670060212917495
30
0
0
SPLINE
5
510
100
AcDbEntity
8
0
100
AcDbSpline
70
4
71
3
72
8
73
4
74
0
42
0.000000001
43
0.0000000001
44
0.0000000001
40
-1
40
-1
40
-1
40
-1
40
0
40
0
40
0
40
0
41
1
41
1
41
1
41
1
10
-10.693807383602017
20
-12.670060212917495
30
0
10
-11.085257579118872
20
-12.655342027109015
30
0
10
-11.280998958056292
20
-12.842036497586719
30
0
10
-11.283713844653157
20
-13.232699769452317
30
0
0
SPLINE
5
511
100
AcDbEntity
8
0
100
AcDbSpline
70
4
71
3
72
8
73
4
74
0
42
0.000000001
43
0.0000000001
44
0.0000000001
40
-1
40
-1
40
-1
40
-1
40
0
40
0
40
0
40
0
41
1
41
1
41
1
41
1
10
-11.283713844653157
20
-13.232699769452317
30
0
10
-11.285648139168361
20
-13.511015670195764
30
0
10
-11.427913533452635
20
-13.708841040044121
30
0
10
-11.655418135837905
20
-13.749565695761973
30
0
0
SPLINE
5
512
100
AcDbEntity
8
0
100
AcDbSpline
70
4
71
3
72
8
73
4
74
0
42
0.000000001
43
0.0000000001
44
0.0000000001
40
-1
40
-1
40
-1
40
-1
40
0
40
0
40
0
40
0
41
1
41
1
41
1
41
1
10
-11.655418135837905
20
-13.749565695761973
30
0
10
-11.737584271404222
20
-13.764273027451125
30
0
10
-11.77430240032521
20
-13.822742359250025
30
0
10
-11.787467994814842
20
-13.959837122439524
30
0
0
SPLINE
5
513
100
AcDbEntity
8
0
100
AcDbSpline
70
4
71
3
72
8
73
4
74
0
42
0.000000001
43
0.0000000001
44
0.0000000001
40
-1
40
-1
40
-1
40
-1
40
0
40
0
40
0
40
0
41
1
41
1
41
1
41
1
10
-11.787467994814842
20
-13.959837122439524
30
0
10
-11.797498105583662
20
-14.064280885671149
30
0
10
-11.791899641285383
20
-14.185709536630874
30
0
10
-11.775027365045311
20
-14.229677765007857
30
0
0
SPLINE
5
514
100
AcDbEntity
8
0
100
AcDbSpline
70
4
71
3
72
8
73
4
74
0
42
0.000000001
43
0.0000000001
44
0.0000000001
40
-1
40
-1
40
-1
40
-1
40
0
40
0
40
0
40
0
41
1
41
1
41
1
41
1
10
-11.775027365045311
20
-14.229677765007857
30
0
10
-11.750068317651065
20
-14.294721075079625
30
0
10
-11.527705402042363
20
-14.309621971896785
30
0
10
-10.582061963847591
20
-14.309621971896785
30
0
0
SPLINE
5
515
100
AcDbEntity
8
0
100
AcDbSpline
70
4
71
3
72
8
73
4
74
0
42
0.000000001
43
0.0000000001
44
0.0000000001
40
-1
40
-1
40
-1
40
-1
40
0
40
0
40
0
40
0
41
1
41
1
41
1
41
1
10
-10.582061963847591
20
-14.309621971896785
30
0
10
-9.5720988235362441
20
-14.309621971896785
30
0
10
-9.4152228801268283
20
-14.297762037511287
30
0
10
-9.3850484283955797
20
-14.219125752001357
30
0
0
SPLINE
5
516
100
AcDbEntity
8
0
100
AcDbSpline
70
4
71
3
72
8
73
4
74
0
42
0.000000001
43
0.0000000001
44
0.0000000001
40
-1
40
-1
40
-1
40
-1
40
0
40
0
40
0
40
0
41
1
41
1
41
1
41
1
10
-9.3850484283955797
20
-14.219125752001357
30
0
10
-9.3659483441634812
20
-14.1693523788039
30
0
10
-9.3650293620603957
20
-14.104831875479768
30
0
10
-9.3830055926870966
20
-14.075746453721067
30
0
0
SPLINE
5
517
100
AcDbEntity
8
0
100
AcDbSpline
70
4
71
3
72
8
73
4
74
0
42
0.000000001
43
0.0000000001
44
0.0000000001
40
-1
40
-1
40
-1
40
-1
40
0
40
0
40
0
40
0
41
1
41
1
41
1
41
1
10
-9.3830055926870966
20
-14.075746453721067
30
0
10
-9.4399666541544054
20
-13.983582317488942
30
0
10
-9.2895023294829056
20
-13.628451814262753
30
0
10
-9.1653370836876586
20
-13.562001086718155
30
0
0
SPLINE
5
518
100
AcDbEntity
8
0
100
AcDbSpline
70
4
71
3
72
8
73
4
74
0
42
0.000000001
43
0.0000000001
44
0.0000000001
40
-1
40
-1
40
-1
40
-1
40
0
40
0
40
0
40
0
41
1
41
1
41
1
41
1
10
-9.1653370836876586
20
-13.562001086718155
30
0
10
-9.0997040331324204
20
-13.52687715657343
30
0
10
-8.9044474715249748
20
-13.499408998594586
30
0
10
-8.7314337139499969
20
-13.500962946678342
30
0
0
SPLINE
5
519
100
AcDbEntity
8
0
100
AcDbSpline
70
4
71
3
72
8
73
4
74
0
42
0.000000001
43
0.0000000001
44
0.0000000001
40
-1
40
-1
40
-1
40
-1
40
0
40
0
40
0
40
0
41
1
41
1
41
1
41
1
10
-8.7314337139499969
20
-13.500962946678342
30
0
10
-8.3966655385827309
20
-13.503971346752031
30
0
10
-8.1351581461283047
20
-13.405377953838077
30
0
10
-8.0771826767588202
20
-13.254295848874836
30
0
0
SPLINE
5
520
100
AcDbEntity
8
0
100
AcDbSpline
70
4
71
3
72
8
73
4
74
0
42
0.000000001
43
0.0000000001
44
0.0000000001
40
-1
40
-1
40
-1
40
-1
40
0
40
0
40
0
40
0
41
1
41
1
41
1
41
1
10
-8.0771826767588202
20
-13.254295848874836
30
0
10
-8.0577411400228698
20
-13.203630628872617
30
0
10
-8.0418335236380507
20
-12.813810360274815
30
0
10
-8.0418335236380507
20
-12.388030394344053
30
0
0
SPLINE
5
521
100
AcDbEntity
8
0
100
AcDbSpline
70
4
71
3
72
8
73
4
74
0
42
0.000000001
43
0.0000000001
44
0.0000000001
40
-1
40
-1
40
-1
40
-1
40
0
40
0
40
0
40
0
41
1
41
1
41
1
41
1
10
-8.0418335236380507
20
-12.388030394344053
30
0
10
-8.0418335236380507
20
-11.322550242690962
30
0
10
-8.0131714125331417
20
-11.350465228582149
30
0
10
-9.1071164921233567
20
-11.350465228582149
30
0
0
SPLINE
5
522
100
AcDbEntity
8
0
100
AcDbSpline
70
4
71
3
72
8
73
4
74
0
42
0.000000001
43
0.0000000001
44
0.0000000001
40
-1
40
-1
40
-1
40
-1
40
0
40
0
40
0
40
0
41
1
41
1
41
1
41
1
10
-9.1071164921233567
20
-11.350465228582149
30
0
10
-9.8995391115923361
20
-11.350465228582149
30
0
10
-9.9292694489410884
20
-11.354803258273488
30
0
10
-10.064612628624065
20
-11.490146890211438
30
0
0
SPLINE
5
523
100
AcDbEntity
8
0
100
AcDbSpline
70
4
71
3
72
8
73
4
74
0
42
0.000000001
43
0.0000000001
44
0.0000000001
40
-1
40
-1
40
-1
40
-1
40
0
40
0
40
0
40
0
41
1
41
1
41
1
41
1
10
-10.064612628624065
20
-11.490146890211438
30
0
10
-10.185810629548078
20
-11.611343986625503
30
0
10
-10.204293385743412
20
-11.68156471161662
30
0
10
-10.204293385743412
20
-12.020840964544689
30
0
0
SPLINE
5
524
100
AcDbEntity
8
0
100
AcDbSpline
70
4
71
3
72
8
73
4
74
0
42
0.000000001
43
0.0000000001
44
0.0000000001
40
-1
40
-1
40
-1
40
-1
40
0
40
0
40
0
40
0
41
1
41
1
41
1
41
1
10
-10.204293385743412
20
-12.020840964544689
30
0
10
-10.204293385743412
20
-12.363820281183425
30
0
10
-10.221683493926413
20
-12.428194253896642
30
0
10
-10.345845121681879
20
-12.544838047252703
30
0
0
SPLINE
5
525
100
AcDbEntity
8
0
100
AcDbSpline
70
4
71
3
72
8
73
4
74
0
42
0.000000001
43
0.0000000001
44
0.0000000001
40
-1
40
-1
40
-1
40
-1
40
0
40
0
40
0
40
0
41
1
41
1
41
1
41
1
10
-10.660362676168301
20
-11.406933784384957
30
0
10
-10.719538430233451
20
-11.375265082226246
30
0
10
-11.240558318460847
20
-11.350463419562256
30
0
10
-11.846718823205345
20
-11.350463419562256
30
0
0
LINE
5
526
100
AcDbEntity
8
0
100
AcDbLine
10
-11.846718823205345
20
-11.350463419562253
30
0
11
-12.927559814982111
21
-11.350463419562256
31
0
0
LINE
5
527
100
AcDbEntity
8
0
100
AcDbLine
10
-12.927559814982111
20
-11.350463419562256
30
0
11
-13.045503841382647
21
-11.50040584199607
31
0
0
SPLINE
5
528
100
AcDbEntity
8
0
100
AcDbSpline
70
4
71
3
72
8
73
4
74
0
42
0.000000001
43
0.0000000001
44
0.0000000001
40
-1
40
-1
40
-1
40
-1
40
0
40
0
40
0
40
0
41
1
41
1
41
1
41
1
10
-13.045503841382647
20
-11.500405841996081
30
0
10
-13.151326077768903
20
-11.634937224004339
30
0
10
-13.163447867783182
20
-11.72772909013759
30
0
10
-13.163447867783182
20
-12.403242442581956
30
0
0
SPLINE
5
529
100
AcDbEntity
8
0
100
AcDbSpline
70
4
71
3
72
8
73
4
74
0
42
0.000000001
43
0.0000000001
44
0.0000000001
40
-1
40
-1
40
-1
40
-1
40
0
40
0
40
0
40
0
41
1
41
1
41
1
41
1
10
-13.163447867783182
20
-12.403242442581956
30
0
10
-13.163447867783182
20
-13.078755795026321
30
0
10
-13.151326077768903
20
-13.17154585213968
30
0
10
-13.045503841382647
20
-13.306077234147931
30
0
0
SPLINE
5
530
100
AcDbEntity
8
0
100
AcDbSpline
70
4
71
3
72
8
73
4
74
0
42
0.000000001
43
0.0000000001
44
0.0000000001
40
-0.99999506012719974
40
-0.99999506012719974
40
-0.99999506012719974
40
-0.99999506012719974
40
0
40
0
40
0
40
0
41
1
41
1
41
1
41
1
10
-13.045501943563613
20
-13.306075741326755
30
0
10
-12.932700310872038
20
-13.44948011426051
30
0
10
-12.903712991553576
20
-13.456016038541975
30
0
10
-12.380515818901435
20
-13.456016038541975
30
0
0
SPLINE
5
531
100
AcDbEntity
8
0
100
AcDbSpline
70
4
71
3
72
8
73
4
74
0
42
0.000000001
43
0.0000000001
44
0.0000000001
40
-1
40
-1
40
-1
40
-1
40
0
40
0
40
0
40
0
41
1
41
1
41
1
41
1
10
-12.380515818901435
20
-13.456016038541975
30
0
10
-11.897174196900561
20
-13.456016038541975
30
0
10
-11.81813495221059
20
-13.441607195134345
30
0
10
-11.701763868602637
20
-13.332282696244985
30
0
0
SPLINE
5
532
100
AcDbEntity
8
0
100
AcDbSpline
70
4
71
3
72
8
73
4
74
0
42
0.000000001
43
0.0000000001
44
0.0000000001
40
-1
40
-1
40
-1
40
-1
40
0
40
0
40
0
40
0
41
1
41
1
41
1
41
1
10
-11.701763868602637
20
-13.332282696244985
30
0
10
-11.603973228263971
20
-13.240413430254602
30
0
10
-11.570055914384525
20
-13.1459753560233
30
0
10
-11.570055914384525
20
-12.965561802596607
30
0
0
SPLINE
5
533
100
AcDbEntity
8
0
100
AcDbSpline
70
4
71
3
72
8
73
4
74
0
42
0.000000001
43
0.0000000001
44
0.0000000001
40
-1
40
-1
40
-1
40
-1
40
0
40
0
40
0
40
0
41
1
41
1
41
1
41
1
10
-11.570055914384525
20
-12.965561802596607
30
0
10
-11.570055914384525
20
-12.602361261650202
30
0
10
-11.393936974171858
20
-12.424950681237522
30
0
10
-10.997639057610229
20
-12.388949376447144
30
0
0
SPLINE
5
534
100
AcDbEntity
8
0
100
AcDbSpline
70
4
71
3
72
8
73
4
74
0
42
0.000000001
43
0.0000000001
44
0.0000000001
40
-1
40
-1
40
-1
40
-1
40
0
40
0
40
0
40
0
41
1
41
1
41
1
41
1
10
-10.997639057610229
20
-12.388949376447144
30
0
10
-10.647355370918863
20
-12.357128716617844
30
0
10
-10.511461796934974
20
-12.265955923284327
30
0
10
-10.459120067751581
20
-12.027642879323434
30
0
0
SPLINE
5
535
100
AcDbEntity
8
0
100
AcDbSpline
70
4
71
3
72
8
73
4
74
0
42
0.000000001
43
0.0000000001
44
0.0000000001
40
-1
40
-1
40
-1
40
-1
40
0
40
0
40
0
40
0
41
1
41
1
41
1
41
1
10
-10.459120067751581
20
-12.027642879323434
30
0
10
-10.413217092604427
20
-11.818646811666905
30
0
10
-10.522838723010381
20
-11.480535567546685
30
0
10
-10.660362676168301
20
-11.406933784384957
30
0
0
SPLINE
5
536
100
AcDbEntity
8
0
100
AcDbSpline
70
4
71
3
72
8
73
4
74
0
42
0.000000001
43
0.0000000001
44
0.0000000001
40
-1
40
-1
40
-1
40
-1
40
0
40
0
40
0
40
0
41
1
41
1
41
1
41
1
10
-12.59437995907648
20
-11.065929917463876
30
0
10
-12.206483583129531
20
-11.065929917463876
30
0
10
-12.134859058705352
20
-11.050477269580888
30
0
10
-12.084220521746481
20
-10.955858293360791
30
0
0
SPLINE
5
537
100
AcDbEntity
8
0
100
AcDbSpline
70
4
71
3
72
8
73
4
74
0
42
0.000000001
43
0.0000000001
44
0.0000000001
40
-1
40
-1
40
-1
40
-1
40
0
40
0
40
0
40
0
41
1
41
1
41
1
41
1
10
-12.084220521746481
20
-10.955858293360791
30
0
10
-12.051119075836505
20
-10.894007903391291
30
0
10
-12.025311598114802
20
-10.471607186611248
30
0
10
-12.025311598114802
20
-9.991669687784551
30
0
0
SPLINE
5
538
100
AcDbEntity
8
0
100
AcDbSpline
70
4
71
3
72
8
73
4
74
0
42
0.000000001
43
0.0000000001
44
0.0000000001
40
-1
40
-1
40
-1
40
-1
40
0
40
0
40
0
40
0
41
1
41
1
41
1
41
1
10
-12.025311598114802
20
-9.991669687784551
30
0
10
-12.025311598114802
20
-8.9900171848385177
30
0
10
-12.041666946921891
20
-8.9603772984841612
30
0
10
-12.59437995907648
20
-8.9603772984841612
30
0
0
SPLINE
5
539
100
AcDbEntity
8
0
100
AcDbSpline
70
4
71
3
72
8
73
4
74
0
42
0.000000001
43
0.0000000001
44
0.0000000001
40
-1
40
-1
40
-1
40
-1
40
0
40
0
40
0
40
0
41
1
41
1
41
1
41
1
10
-12.59437995907648
20
-8.9603772984841612
30
0
10
-13.147093197358553
20
-8.9603772984841612
30
0
10
-13.163448546165641
20
-8.9900171848385177
30
0
10
-13.163448546165641
20
-9.991669687784551
30
0
0
SPLINE
5
540
100
AcDbEntity
8
0
100
AcDbSpline
70
4
71
3
72
8
73
4
74
0
42
0.000000001
43
0.0000000001
44
0.0000000001
40
-1
40
-1
40
-1
40
-1
40
0
40
0
40
0
40
0
41
1
41
1
41
1
41
1
10
-13.163448546165641
20
-9.991669687784551
30
0
10
-13.163448546165641
20
-10.471607186611248
30
0
10
-13.137641294571425
20
-10.894007903391291
30
0
10
-13.104539396406478
20
-10.955858293360791
30
0
0
SPLINE
5
541
100
AcDbEntity
8
0
100
AcDbSpline
70
4
71
3
72
8
73
4
74
0
42
0.000000001
43
0.0000000001
44
0.0000000001
40
-1
40
-1
40
-1
40
-1
40
0
40
0
40
0
40
0
41
1
41
1
41
1
41
1
10
-13.104539396406478
20
-10.955858293360791
30
0
10
-13.053900859447607
20
-11.050477269580888
30
0
10
-12.982276335023428
20
-11.065929917463876
30
0
10
-12.59437995907648
20
-11.065929917463876
30
0
0
SPLINE
5
542
100
AcDbEntity
8
0
100
AcDbSpline
70
4
71
3
72
8
73
4
74
0
42
0.000000001
43
0.0000000001
44
0.0000000001
40
-1
40
-1
40
-1
40
-1
40
0
40
0
40
0
40
0
41
1
41
1
41
1
41
1
10
-11.808233281853814
20
-8.90347005535852
30
0
10
-11.882701585541874
20
-9.2456877746244217
30
0
10
-11.820964711570337
20
-10.959275531929155
30
0
10
-11.732138669286478
20
-11.015566803782949
30
0
0
SPLINE
5
543
100
AcDbEntity
8
0
100
AcDbSpline
70
4
71
3
72
8
73
4
74
0
42
0.000000001
43
0.0000000001
44
0.0000000001
40
-1
40
-1
40
-1
40
-1
40
0
40
0
40
0
40
0
41
1
41
1
41
1
41
1
10
-11.732138669286478
20
-11.015566803782949
30
0
10
-11.613968515399947
20
-11.090454800085009
30
0
10
-10.863353250051766
20
-11.076252184944607
30
0
10
-10.784742290820271
20
-10.997641225713103
30
0
0
SPLINE
5
544
100
AcDbEntity
8
0
100
AcDbSpline
70
4
71
3
72
8
73
4
74
0
42
0.000000001
43
0.0000000001
44
0.0000000001
40
-1
40
-1
40
-1
40
-1
40
0
40
0
40
0
40
0
41
1
41
1
41
1
41
1
10
-10.784742290820271
20
-10.997641225713103
30
0
10
-10.678616591347808
20
-10.891516883005558
30
0
10
-10.689286190647021
20
-8.826139882207702
30
0
10
-10.79641951419708
20
-8.7372265547142458
30
0
0
SPLINE
5
545
100
AcDbEntity
8
0
100
AcDbSpline
70
4
71
3
72
8
73
4
74
0
42
0.000000001
43
0.0000000001
44
0.0000000001
40
-1
40
-1
40
-1
40
-1
40
0
40
0
40
0
40
0
41
1
41
1
41
1
41
1
10
-10.79641951419708
20
-8.7372265547142458
30
0
10
-10.84655288235224
20
-8.6956209063109533
30
0
10
-11.042122856655276
20
-8.6770983516780831
30
0
10
-11.320638654096342
20
-8.6875789083990043
30
0
0
LINE
5
546
100
AcDbEntity
8
0
100
AcDbLine
10
-11.320638654096342
20
-8.6875789083990043
30
0
11
-11.764891878868017
21
-8.7042960611836904
31
0
0
LINE
5
547
100
AcDbEntity
8
0
100
AcDbLine
10
-11.764891878868017
20
-8.7042960611836904
30
0
11
-11.808233281853814
21
-8.90347005535852
31
0
0
SPLINE
5
548
100
AcDbEntity
8
0
100
AcDbSpline
70
4
71
3
72
8
73
4
74
0
42
0.000000001
43
0.0000000001
44
0.0000000001
40
-1
40
-1
40
-1
40
-1
40
0
40
0
40
0
40
0
41
1
41
1
41
1
41
1
10
-10.4333284189539
20
-10.919958293684132
30
0
10
-10.380146400032547
20
-11.059837138481207
30
0
10
-10.358856497226066
20
-11.065928108443991
30
0
10
-9.923168981623899
20
-11.065928108443991
30
0
0
SPLINE
5
549
100
AcDbEntity
8
0
100
AcDbSpline
70
4
71
3
72
8
73
4
74
0
42
0.000000001
43
0.0000000001
44
0.0000000001
40
-1
40
-1
40
-1
40
-1
40
0
40
0
40
0
40
0
41
1
41
1
41
1
41
1
10
-9.923168981623899
20
-11.065928108443991
30
0
10
-9.5319010448607617
20
-11.065928108443991
30
0
10
-9.4602946106354651
20
-11.0505803837145
30
0
10
-9.4095990895501185
20
-10.955856484340906
30
0
0
SPLINE
5
550
100
AcDbEntity
8
0
100
AcDbSpline
70
4
71
3
72
8
73
4
74
0
42
0.000000001
43
0.0000000001
44
0.0000000001
40
-1
40
-1
40
-1
40
-1
40
0
40
0
40
0
40
0
41
1
41
1
41
1
41
1
10
-9.4095990895501185
20
-10.955856484340906
30
0
10
-9.3230908539977158
20
-10.794215130291608
30
0
10
-9.3314137022472625
20
-8.831694477773695
30
0
10
-9.4189784054142383
20
-8.7441297746067193
30
0
0
SPLINE
5
551
100
AcDbEntity
8
0
100
AcDbSpline
70
4
71
3
72
8
73
4
74
0
42
0.000000001
43
0.0000000001
44
0.0000000001
40
-1
40
-1
40
-1
40
-1
40
0
40
0
40
0
40
0
41
1
41
1
41
1
41
1
10
-9.4189784054142383
20
-8.7441297746067193
30
0
10
-9.4604547088955453
20
-8.7026534711254122
30
0
10
-9.6620939449226988
20
-8.6758419873658923
30
0
10
-9.9325482974880241
20
-8.6758419873658923
30
0
0
SPLINE
5
552
100
AcDbEntity
8
0
100
AcDbSpline
70
4
71
3
72
8
73
4
74
0
42
0.000000001
43
0.0000000001
44
0.0000000001
40
-1
40
-1
40
-1
40
-1
40
0
40
0
40
0
40
0
41
1
41
1
41
1
41
1
10
-9.9325482974880241
20
-8.6758419873658923
30
0
10
-10.358166808393779
20
-8.6758419873658923
30
0
10
-10.3802811720142
20
-8.6822875252267107
30
0
10
-10.4333284189539
20
-8.8218136111456324
30
0
0
SPLINE
5
553
100
AcDbEntity
8
0
100
AcDbSpline
70
4
71
3
72
8
73
4
74
0
42
0.000000001
43
0.0000000001
44
0.0000000001
40
-1
40
-1
40
-1
40
-1
40
0
40
0
40
0
40
0
41
1
41
1
41
1
41
1
10
-10.4333284189539
20
-8.8218136111456324
30
0
10
-10.463852916033467
20
-8.902097913773499
30
0
10
-10.488826887841789
20
-9.374180648246643
30
0
10
-10.488826887841789
20
-9.8708850479049417
30
0
0
SPLINE
5
554
100
AcDbEntity
8
0
100
AcDbSpline
70
4
71
3
72
8
73
4
74
0
42
0.000000001
43
0.0000000001
44
0.0000000001
40
-1
40
-1
40
-1
40
-1
40
0
40
0
40
0
40
0
41
1
41
1
41
1
41
1
10
-10.488826887841789
20
-9.8708850479049417
30
0
10
-10.488826887841789
20
-10.367592161093068
30
0
10
-10.463852916033467
20
-10.839673991056266
30
0
10
-10.4333284189539
20
-10.919958293684132
30
0
0
SPLINE
5
555
100
AcDbEntity
8
0
100
AcDbSpline
70
4
71
3
72
8
73
4
74
0
42
0.000000001
43
0.0000000001
44
0.0000000001
40
-1
40
-1
40
-1
40
-1
40
0
40
0
40
0
40
0
41
1
41
1
41
1
41
1
10
-8.6015216642256593
20
-11.065929917463876
30
0
10
-8.2228983242244151
20
-11.065929917463876
30
0
10
-8.1512195292036012
20
-11.050175163259595
30
0
10
-8.1007415427597813
20
-10.955858293360791
30
0
0
SPLINE
5
556
100
AcDbEntity
8
0
100
AcDbSpline
70
4
71
3
72
8
73
4
74
0
42
0.000000001
43
0.0000000001
44
0.0000000001
40
-1
40
-1
40
-1
40
-1
40
0
40
0
40
0
40
0
41
1
41
1
41
1
41
1
10
-8.1007415427597813
20
-10.955858293360791
30
0
10
-8.0678689378656383
20
-10.894434832084844
30
0
10
-8.0418326191281082
20
-10.479443860765908
30
0
10
-8.0418326191281082
20
-10.016895565612266
30
0
0
SPLINE
5
557
100
AcDbEntity
8
0
100
AcDbSpline
70
4
71
3
72
8
73
4
74
0
42
0.000000001
43
0.0000000001
44
0.0000000001
40
-1
40
-1
40
-1
40
-1
40
0
40
0
40
0
40
0
41
1
41
1
41
1
41
1
10
-8.0418326191281082
20
-10.016895565612266
30
0
10
-8.0418326191281047
20
-9.0112795000917068
30
0
10
-8.0686395803379067
20
-8.9603772984841612
30
0
10
-8.5982382931289987
20
-8.9603772984841612
30
0
0
SPLINE
5
558
100
AcDbEntity
8
0
100
AcDbSpline
70
4
71
3
72
8
73
4
74
0
42
0.000000001
43
0.0000000001
44
0.0000000001
40
-1
40
-1
40
-1
40
-1
40
0
40
0
40
0
40
0
41
1
41
1
41
1
41
1
10
-8.5982382931289987
20
-8.9603772984841612
30
0
10
-9.1690491924977575
20
-8.9603772984841612
30
0
10
-9.1799693410514553
20
-8.9805198304267009
30
0
10
-9.1799693410514589
20
-10.03345262013687
30
0
0
SPLINE
5
559
100
AcDbEntity
8
0
100
AcDbSpline
70
4
71
3
72
8
73
4
74
0
42
0.000000001
43
0.0000000001
44
0.0000000001
40
-1
40
-1
40
-1
40
-1
40
0
40
0
40
0
40
0
41
1
41
1
41
1
41
1
10
-9.1799693410514589
20
-10.03345262013687
30
0
10
-9.1799693410514589
20
-10.654388747071287
30
0
10
-9.1590109411394476
20
-10.950311838384291
30
0
10
-9.1116815538106337
20
-10.997641225713103
30
0
0
SPLINE
5
560
100
AcDbEntity
8
0
100
AcDbSpline
70
4
71
3
72
8
73
4
74
0
42
0.000000001
43
0.0000000001
44
0.0000000001
40
-1
40
-1
40
-1
40
-1
40
0
40
0
40
0
40
0
41
1
41
1
41
1
41
1
10
-9.1116815538106337
20
-10.997641225713103
30
0
10
-9.0702938923038374
20
-11.039029791729845
30
0
10
-8.8693235413802558
20
-11.065929917463876
30
0
10
-8.6015216642256593
20
-11.065929917463876
30
0
0
ENDSEC
0
SECTION
2
OBJECTS
0
DICTIONARY
5
C
100
AcDbDictionary
3
ACAD_GROUP
350
D
3
ACAD_MLINESTYLE
350
17
0
DICTIONARY
5
D
100
AcDbDictionary
0
DICTIONARY
5
1A
330
C
100
AcDbDictionary
0
DICTIONARY
5
17
100
AcDbDictionary
0
ENDSEC
0
EOF
