0
SECTION
2
HEADER
9
$INSUNITS
70
4
9
$ACADVER
1
AC1014
9
$HANDSEED
5
FFFF
0
ENDSEC
0
SECTION
2
TABLES
0
TABLE
2
VPORT
5
8
100
AcDbSymbolTable
0
ENDTAB
0
TABLE
2
LTYPE
5
5
100
AcDbSymbolTable
0
LTYPE
5
14
100
AcDbSymbolTableRecord
100
AcDbLinetypeTableRecord
2
BYBLOCK
70
0
0
LTYPE
5
15
100
AcDbSymbolTableRecord
100
AcDbLinetypeTableRecord
2
BYLAYER
70
0
0
ENDTAB
0
TABLE
2
LAYER
5
2
100
AcDbSymbolTable
70
2
0
LAYER
5
50
100
AcDbSymbolTableRecord
100
AcDbLayerTableRecord
2
0
70
0
6
CONTINUOUS
0
ENDTAB
0
TABLE
2
STYLE
5
3
100
AcDbSymbolTable
70
1
0
STYLE
5
11
100
AcDbSymbolTableRecord
100
AcDbTextStyleTableRecord
2
STANDARD
70
0
0
ENDTAB
0
TABLE
2
VIEW
5
6
100
AcDbSymbolTable
70
0
0
ENDTAB
0
TABLE
2
UCS
5
7
100
AcDbSymbolTable
70
0
0
ENDTAB
0
TABLE
2
APPID
5
9
100
AcDbSymbolTable
70
2
0
APPID
5
12
100
AcDbSymbolTableRecord
100
AcDbRegAppTableRecord
2
ACAD
70
0
0
ENDTAB
0
TABLE
2
DIMSTYLE
5
A
100
AcDbSymbolTable
70
1
0
ENDTAB
0
TABLE
2
BLOCK_RECORD
5
1
100
AcDbSymbolTable
70
1
0
BLOCK_RECORD
5
1F
100
AcDbSymbolTableRecord
100
AcDbBlockTableRecord
2
*MODEL_SPACE
0
BLOCK_RECORD
5
1B
100
AcDbSymbolTableRecord
100
AcDbBlockTableRecord
2
*PAPER_SPACE
0
ENDTAB
0
ENDSEC
0
SECTION
2
BLOCKS
0
BLOCK
5
20
100
AcDbEntity
100
AcDbBlockBegin
2
*MODEL_SPACE
0
ENDBLK
5
21
100
AcDbEntity
100
AcDbBlockEnd
0
BLOCK
5
1C
100
AcDbEntity
100
AcDbBlockBegin
2
*PAPER_SPACE
0
ENDBLK
5
1D
100
AcDbEntity
100
AcDbBlockEnd
0
ENDSEC
0
SECTION
2
ENTITIES
0
CIRCLE
5
100
100
AcDbEntity
8
0
100
AcDbCircle
10
0
20
0
30
0
40
20.684999999999999
210
0
220
-0
230
1
0
CIRCLE
5
101
100
AcDbEntity
8
0
100
AcDbCircle
10
0
20
0
30
0
40
20.284999999999997
210
0
220
0
230
1
0
CIRCLE
5
102
100
AcDbEntity
8
0
100
AcDbCircle
10
10.762225485084315
20
-11.410246605932821
30
0
40
3.9999999999999991
210
0
220
0
230
1
0
CIRCLE
5
103
100
AcDbEntity
8
0
100
AcDbCircle
10
-7.6245580763737788
20
-16.799570721358347
30
0
40
1.2361663706911485
210
0
220
0
230
1
0
CIRCLE
5
104
100
AcDbEntity
8
0
100
AcDbCircle
10
-10.762225485084318
20
-11.410246605932821
30
0
40
4
210
0
220
0
230
1
0
CIRCLE
5
105
100
AcDbEntity
8
0
100
AcDbCircle
10
7.6245580763737788
20
-16.799570721358347
30
0
40
1.2361663706911474
210
0
220
0
230
1
0
CIRCLE
5
106
100
AcDbEntity
8
0
100
AcDbCircle
10
-2.2204460492503131e-15
20
-13.684999985098836
30
0
40
6.0000000000000009
210
0
220
0
230
1
0
LWPOLYLINE
5
107
100
AcDbEntity
8
0
100
AcDbPolyline
90
8
70
1
43
0.0
10
-7.0912547358069062
20
-8.0155486949308337
42
0.39342646008747972
10
-4.3733405668804402
20
-8.2192985209961584
42
-0.35082988103369228
10
4.3733405668804375
20
-8.2192985209961602
42
0.39342646008747967
10
7.0912547358069045
20
-8.0155486949308354
42
-0.45861202855152039
10
14.664806964496393
20
-8.2845694080185126
42
0.5650239788083784
10
18.060822820097421
20
-7.8298086861077394
42
1.5234526665911512
10
-18.060822820097421
20
-7.8298086861077376
42
0.56502397880837796
10
-14.664806964496398
20
-8.2845694080185126
42
-0.45861202855152039
0
SPLINE
5
108
100
AcDbEntity
8
0
100
AcDbSpline
70
4
71
3
72
8
73
4
74
0
42
0.000000001
43
0.0000000001
44
0.0000000001
40
-1
40
-1
40
-1
40
-1
40
0
40
0
40
0
40
0
41
1
41
1
41
1
41
1
10
0.31196663781104306
20
-17.364119263308499
30
0
10
0.12779160100680809
20
-17.548291854618828
30
0
10
-0.74781749087437621
20
-17.432720258268567
30
0
10
-1.2881493686879431
20
-17.152919073384925
30
0
0
SPLINE
5
109
100
AcDbEntity
8
0
100
AcDbSpline
70
4
71
3
72
8
73
4
74
0
42
0.000000001
43
0.0000000001
44
0.0000000001
40
-1
40
-1
40
-1
40
-1
40
0
40
0
40
0
40
0
41
1
41
1
41
1
41
1
10
-1.2881493686879431
20
-17.152919073384925
30
0
10
-1.5808749888476381
20
-17.001337579316605
30
0
10
-1.9805078204601356
20
-16.596005524163736
30
0
10
-1.9805078204601356
20
-16.450690608221223
30
0
0
SPLINE
5
110
100
AcDbEntity
8
0
100
AcDbSpline
70
4
71
3
72
8
73
4
74
0
42
0.000000001
43
0.0000000001
44
0.0000000001
40
-1
40
-1
40
-1
40
-1
40
0
40
0
40
0
40
0
41
1
41
1
41
1
41
1
10
-1.9805078204601356
20
-16.450690608221223
30
0
10
-1.9805078204601356
20
-16.207442220702053
30
0
10
-1.7745776698969973
20
-16.12558664878906
30
0
10
-1.2654307303313539
20
-16.166456965638844
30
0
0
SPLINE
5
111
100
AcDbEntity
8
0
100
AcDbSpline
70
4
71
3
72
8
73
4
74
0
42
0.000000001
43
0.0000000001
44
0.0000000001
40
-1
40
-1
40
-1
40
-1
40
0
40
0
40
0
40
0
41
1
41
1
41
1
41
1
10
-1.2654307303313539
20
-16.166456965638844
30
0
10
-0.72405218112740144
20
-16.209913392290783
30
0
10
-0.22276016797740716
20
-16.429189825828207
30
0
10
0.15426162701022594
20
-16.787459573569517
30
0
0
SPLINE
5
112
100
AcDbEntity
8
0
100
AcDbSpline
70
4
71
3
72
8
73
4
74
0
42
0.000000001
43
0.0000000001
44
0.0000000001
40
-1
40
-1
40
-1
40
-1
40
0
40
0
40
0
40
0
41
1
41
1
41
1
41
1
10
0.15426162701022594
20
-16.787459573569517
30
0
10
0.41761197441003262
20
-17.037709410132265
30
0
10
0.46502031920882647
20
-17.211066804657669
30
0
10
0.31196663781104306
20
-17.364119263308499
30
0
0
SPLINE
5
113
100
AcDbEntity
8
0
100
AcDbSpline
70
4
71
3
72
8
73
4
74
0
42
0.000000001
43
0.0000000001
44
0.0000000001
40
-1
40
-1
40
-1
40
-1
40
0
40
0
40
0
40
0
41
1
41
1
41
1
41
1
10
1.939941710850217
20
-11.044681786792497
30
0
10
2.2969691476889365
20
-10.722127866127432
30
0
10
2.5719502640902414
20
-10.572774217004522
30
0
10
3.2485352801896683
20
-10.333939334606351
30
0
0
LINE
5
114
100
AcDbEntity
8
0
100
AcDbLine
10
3.2485352801896683
20
-10.333939334606351
30
0
11
3.7506783252178266
21
-10.156682294366275
31
0
0
LINE
5
115
100
AcDbEntity
8
0
100
AcDbLine
10
3.7506783252178266
20
-10.156682294366275
30
0
11
3.2891060240363634
21
-10.195756090257746
31
0
0
SPLINE
5
116
100
AcDbEntity
8
0
100
AcDbSpline
70
4
71
3
72
8
73
4
74
0
42
0.000000001
43
0.0000000001
44
0.0000000001
40
-1
40
-1
40
-1
40
-1
40
0
40
0
40
0
40
0
41
1
41
1
41
1
41
1
10
3.2891060240363634
20
-10.195756090257746
30
0
10
1.115844502536647
20
-10.379731207935421
30
0
10
-0.60064277681880718
20
-10.853809764935571
30
0
10
-1.8781296637152289
20
-11.622898033400586
30
0
0
SPLINE
5
117
100
AcDbEntity
8
0
100
AcDbSpline
70
4
71
3
72
8
73
4
74
0
42
0.000000001
43
0.0000000001
44
0.0000000001
40
-1
40
-1
40
-1
40
-1
40
0
40
0
40
0
40
0
41
1
41
1
41
1
41
1
10
-1.8781296637152289
20
-11.622898033400586
30
0
10
-2.4372086977873142
20
-11.959482975332703
30
0
10
-3.1825365474931644
20
-12.761790221599256
30
0
10
-3.4337768090865373
20
-13.297479940611925
30
0
0
SPLINE
5
118
100
AcDbEntity
8
0
100
AcDbSpline
70
4
71
3
72
8
73
4
74
0
42
0.000000001
43
0.0000000001
44
0.0000000001
40
-1
40
-1
40
-1
40
-1
40
0
40
0
40
0
40
0
41
1
41
1
41
1
41
1
10
-3.4337768090865373
20
-13.297479940611925
30
0
10
-3.6120630965729328
20
-13.67762952230118
30
0
10
-3.6344687117099683
20
-13.820061812305823
30
0
10
-3.6344687117099683
20
-14.573435948325216
30
0
0
SPLINE
5
119
100
AcDbEntity
8
0
100
AcDbSpline
70
4
71
3
72
8
73
4
74
0
42
0.000000001
43
0.0000000001
44
0.0000000001
40
-1
40
-1
40
-1
40
-1
40
0
40
0
40
0
40
0
41
1
41
1
41
1
41
1
10
-3.6344687117099683
20
-14.573435948325216
30
0
10
-3.6344687117099683
20
-15.376722614899821
30
0
10
-3.6211260969765391
20
-15.448566946148413
30
0
10
-3.3816242061163981
20
-15.934868693048003
30
0
0
SPLINE
5
120
100
AcDbEntity
8
0
100
AcDbSpline
70
4
71
3
72
8
73
4
74
0
42
0.000000001
43
0.0000000001
44
0.0000000001
40
-1
40
-1
40
-1
40
-1
40
0
40
0
40
0
40
0
41
1
41
1
41
1
41
1
10
-3.3816242061163981
20
-15.934868693048003
30
0
10
-2.8713865762701252
20
-16.970887511986458
30
0
10
-1.6066015847046122
20
-17.734927058289237
30
0
10
-0.10974900374332908
20
-17.911363329638206
30
0
0
SPLINE
5
121
100
AcDbEntity
8
0
100
AcDbSpline
70
4
71
3
72
8
73
4
74
0
42
0.000000001
43
0.0000000001
44
0.0000000001
40
-1
40
-1
40
-1
40
-1
40
0
40
0
40
0
40
0
41
1
41
1
41
1
41
1
10
-0.1097441127555232
20
-17.911363329638206
30
0
10
0.95126276288127531
20
-18.036424665078108
30
0
10
1.8901172180754955
20
-17.867637898656959
30
0
10
2.5239990196450313
20
-17.437870468427764
30
0
0
SPLINE
5
122
100
AcDbEntity
8
0
100
AcDbSpline
70
4
71
3
72
8
73
4
74
0
42
0.000000001
43
0.0000000001
44
0.0000000001
40
-1
40
-1
40
-1
40
-1
40
0
40
0
40
0
40
0
41
1
41
1
41
1
41
1
10
2.5239990196450313
20
-17.437870468427764
30
0
10
3.0193093547088923
20
-17.102054022954587
30
0
10
3.2122343686971844
20
-16.718473413319778
30
0
10
3.2120338381971569
20
-16.069806155614192
30
0
0
SPLINE
5
123
100
AcDbEntity
8
0
100
AcDbSpline
70
4
71
3
72
8
73
4
74
0
42
0.000000001
43
0.0000000001
44
0.0000000001
40
-1
40
-1
40
-1
40
-1
40
0
40
0
40
0
40
0
41
1
41
1
41
1
41
1
10
3.2120338381971569
20
-16.069806155614192
30
0
10
3.2118430896727412
20
-15.415796716478035
30
0
10
2.9178849405860641
20
-14.813678212464422
30
0
10
2.1619778842568937
20
-13.918968590455771
30
0
0
SPLINE
5
124
100
AcDbEntity
8
0
100
AcDbSpline
70
4
71
3
72
8
73
4
74
0
42
0.000000001
43
0.0000000001
44
0.0000000001
40
-1
40
-1
40
-1
40
-1
40
0
40
0
40
0
40
0
41
1
41
1
41
1
41
1
10
2.1619778842568937
20
-13.918968590455771
30
0
10
1.5214639032230926
20
-13.160841025662904
30
0
10
1.2989386310358642
20
-12.717131834694111
30
0
10
1.3051159486342234
20
-12.210393706622675
30
0
0
SPLINE
5
125
100
AcDbEntity
8
0
100
AcDbSpline
70
4
71
3
72
8
73
4
74
0
42
0.000000001
43
0.0000000001
44
0.0000000001
40
-1
40
-1
40
-1
40
-1
40
0
40
0
40
0
40
0
41
1
41
1
41
1
41
1
10
1.3051159486342234
20
-12.210393706622675
30
0
10
1.3102563768178088
20
-11.788924448579003
30
0
10
1.4982414931225385
20
-11.443732590856143
30
0
10
1.939941710850217
20
-11.044681786792497
30
0
0
LINE
5
126
100
AcDbEntity
8
0
100
AcDbLine
10
-9.5469265392259395
20
-12.789393643282224
30
0
11
-9.3853738271511666
21
-12.789165254521366
31
0
0
LINE
5
127
100
AcDbEntity
8
0
100
AcDbLine
10
-9.3853738271511666
20
-12.789165254521366
30
0
11
-9.5327004068269936
21
-12.964252148887955
31
0
0
SPLINE
5
128
100
AcDbEntity
8
0
100
AcDbSpline
70
4
71
3
72
8
73
4
74
0
42
0.000000001
43
0.0000000001
44
0.0000000001
40
-1
40
-1
40
-1
40
-1
40
0
40
0
40
0
40
0
41
1
41
1
41
1
41
1
10
-9.5327004068269936
20
-12.964252148887955
30
0
10
-9.7412966810882864
20
-13.212156616294827
30
0
10
-9.7509857916082243
20
-13.508204982235075
30
0
10
-9.5625890334159394
20
-13.877495588634311
30
0
0
SPLINE
5
129
100
AcDbEntity
8
0
100
AcDbSpline
70
4
71
3
72
8
73
4
74
0
42
0.000000001
43
0.0000000001
44
0.0000000001
40
-1
40
-1
40
-1
40
-1
40
0
40
0
40
0
40
0
41
1
41
1
41
1
41
1
10
-9.5625890334159394
20
-13.877495588634311
30
0
10
-9.3467964780403214
20
-14.30048242785805
30
0
10
-9.4547804931926969
20
-14.554250833231762
30
0
10
-9.9368824843153405
20
-14.757116132487983
30
0
0
SPLINE
5
130
100
AcDbEntity
8
0
100
AcDbSpline
70
4
71
3
72
8
73
4
74
0
42
0.000000001
43
0.0000000001
44
0.0000000001
40
-1
40
-1
40
-1
40
-1
40
0
40
0
40
0
40
0
41
1
41
1
41
1
41
1
10
-9.9368842933352308
20
-14.757117941507879
30
0
10
-10.264143227147557
20
-14.894825962439398
30
0
10
-11.052752884947683
20
-14.91687067879413
30
0
10
-11.437381266467025
20
-14.799062781140165
30
0
0
SPLINE
5
131
100
AcDbEntity
8
0
100
AcDbSpline
70
4
71
3
72
8
73
4
74
0
42
0.000000001
43
0.0000000001
44
0.0000000001
40
-1
40
-1
40
-1
40
-1
40
0
40
0
40
0
40
0
41
1
41
1
41
1
41
1
10
-11.437381266467025
20
-14.799062781140165
30
0
10
-11.81084799527763
20
-14.684674835584396
30
0
10
-12.127021255216505
20
-14.393562832663434
30
0
10
-12.127021255216505
20
-14.164090468895022
30
0
0
SPLINE
5
132
100
AcDbEntity
8
0
100
AcDbSpline
70
4
71
3
72
8
73
4
74
0
42
0.000000001
43
0.0000000001
44
0.0000000001
40
-1
40
-1
40
-1
40
-1
40
0
40
0
40
0
40
0
41
1
41
1
41
1
41
1
10
-12.127021255216505
20
-14.164090468895022
30
0
10
-12.127021255216505
20
-14.077317211929032
30
0
10
-12.063001850401331
20
-13.919548064949932
30
0
10
-11.984754504167316
20
-13.813489751468296
30
0
0
SPLINE
5
133
100
AcDbEntity
8
0
100
AcDbSpline
70
4
71
3
72
8
73
4
74
0
42
0.000000001
43
0.0000000001
44
0.0000000001
40
-1
40
-1
40
-1
40
-1
40
0
40
0
40
0
40
0
41
1
41
1
41
1
41
1
10
-11.984754504167316
20
-13.813489751468296
30
0
10
-11.906507157933301
20
-13.707432342496602
30
0
10
-11.842487753118128
20
-13.573252814856559
30
0
10
-11.842487753118128
20
-13.515313525884828
30
0
0
SPLINE
5
134
100
AcDbEntity
8
0
100
AcDbSpline
70
4
71
3
72
8
73
4
74
0
42
0.000000001
43
0.0000000001
44
0.0000000001
40
-1
40
-1
40
-1
40
-1
40
0
40
0
40
0
40
0
41
1
41
1
41
1
41
1
10
-11.842487753118128
20
-13.515313525884828
30
0
10
-11.842487753118128
20
-13.45737333240316
30
0
10
-11.906507157933301
20
-13.345948561423878
30
0
10
-11.984754504167316
20
-13.267701215189863
30
0
0
SPLINE
5
135
100
AcDbEntity
8
0
100
AcDbSpline
70
4
71
3
72
8
73
4
74
0
42
0.000000001
43
0.0000000001
44
0.0000000001
40
-1
40
-1
40
-1
40
-1
40
0
40
0
40
0
40
0
41
1
41
1
41
1
41
1
10
-11.984754504167316
20
-13.267701215189863
30
0
10
-12.164449876698491
20
-13.088005842658688
30
0
10
-12.162917636853386
20
-13.073700565639633
30
0
10
-11.963976101734154
20
-13.073700565639633
30
0
0
SPLINE
5
136
100
AcDbEntity
8
0
100
AcDbSpline
70
4
71
3
72
8
73
4
74
0
42
0.000000001
43
0.0000000001
44
0.0000000001
40
-1
40
-1
40
-1
40
-1
40
0
40
0
40
0
40
0
41
1
41
1
41
1
41
1
10
-11.963976101734154
20
-13.073700565639633
30
0
10
-11.773209527488643
20
-13.073700565639633
30
0
10
-11.52453622662938
20
-13.251487874443978
30
0
10
-11.468541634037216
20
-13.427905302938164
30
0
0
LINE
5
137
100
AcDbEntity
8
0
100
AcDbLine
10
-11.468541634037216
20
-13.427905302938161
30
0
11
-11.42930941972693
21
-13.551513822862891
31
0
0
LINE
5
138
100
AcDbEntity
8
0
100
AcDbLine
10
-11.42930941972693
20
-13.551513822862891
30
0
11
-11.32291010599641
21
-13.420116567810535
31
0
0
SPLINE
5
139
100
AcDbEntity
8
0
100
AcDbSpline
70
4
71
3
72
8
73
4
74
0
42
0.000000001
43
0.0000000001
44
0.0000000001
40
-1
40
-1
40
-1
40
-1
40
0
40
0
40
0
40
0
41
1
41
1
41
1
41
1
10
-11.32291010599641
20
-13.420116567810535
30
0
10
-11.166824252023059
20
-13.227358714923337
30
0
10
-11.191864705312264
20
-13.057061200710137
30
0
10
-11.415685690950671
20
-12.789166159031314
30
0
0
SPLINE
5
140
100
AcDbEntity
8
0
100
AcDbSpline
70
4
71
3
72
8
73
4
74
0
42
0.000000001
43
0.0000000001
44
0.0000000001
40
-1
40
-1
40
-1
40
-1
40
0
40
0
40
0
40
0
41
1
41
1
41
1
41
1
10
-11.415685690950671
20
-12.789166159031314
30
0
10
-11.525230890266357
20
-12.658048849806619
30
0
10
-11.614858780615553
20
-12.52631330803521
30
0
10
-11.614858780615553
20
-12.496421967916437
30
0
0
SPLINE
5
141
100
AcDbEntity
8
0
100
AcDbSpline
70
4
71
3
72
8
73
4
74
0
42
0.000000001
43
0.0000000001
44
0.0000000001
40
-1
40
-1
40
-1
40
-1
40
0
40
0
40
0
40
0
41
1
41
1
41
1
41
1
10
-11.614858780615553
20
-12.496421967916437
30
0
10
-11.614858780615553
20
-12.254325358859868
30
0
10
-11.11731318670936
20
-11.814592874788211
30
0
10
-10.752802915364072
20
-11.734548267295505
30
0
0
SPLINE
5
142
100
AcDbEntity
8
0
100
AcDbSpline
70
4
71
3
72
8
73
4
74
0
42
0.000000001
43
0.0000000001
44
0.0000000001
40
-1
40
-1
40
-1
40
-1
40
0
40
0
40
0
40
0
41
1
41
1
41
1
41
1
10
-10.752802915364072
20
-11.734548267295505
30
0
10
-10.526004282990073
20
-11.684734643405541
30
0
10
-10.50110855129191
20
-11.72414956872451
30
0
10
-10.63762804615704
20
-11.916878477293498
30
0
0
SPLINE
5
143
100
AcDbEntity
8
0
100
AcDbSpline
70
4
71
3
72
8
73
4
74
0
42
0.000000001
43
0.0000000001
44
0.0000000001
40
-1
40
-1
40
-1
40
-1
40
0
40
0
40
0
40
0
41
1
41
1
41
1
41
1
10
-10.63762804615704
20
-11.916878477293498
30
0
10
-10.834293834257206
20
-12.194514638814042
30
0
10
-10.839366326023057
20
-12.305929460183943
30
0
10
-10.662143883678731
20
-12.455427768235271
30
0
0
SPLINE
5
144
100
AcDbEntity
8
0
100
AcDbSpline
70
4
71
3
72
8
73
4
74
0
42
0.000000001
43
0.0000000001
44
0.0000000001
40
-1
40
-1
40
-1
40
-1
40
0
40
0
40
0
40
0
41
1
41
1
41
1
41
1
10
-10.662143883678731
20
-12.455427768235271
30
0
10
-10.41592542280744
20
-12.663129029906997
30
0
10
-10.306112488548331
20
-12.852603963952504
30
0
10
-10.304734015393699
20
-13.072151140105595
30
0
0
SPLINE
5
145
100
AcDbEntity
8
0
100
AcDbSpline
70
4
71
3
72
8
73
4
74
0
42
0.000000001
43
0.0000000001
44
0.0000000001
40
-1
40
-1
40
-1
40
-1
40
0
40
0
40
0
40
0
41
1
41
1
41
1
41
1
10
-10.304734015393699
20
-13.072151140105595
30
0
10
-10.303476746571567
20
-13.271803167785819
30
0
10
-10.302937658644954
20
-13.27222557392966
30
0
10
-10.205147470561258
20
-13.150178238168252
30
0
0
SPLINE
5
146
100
AcDbEntity
8
0
100
AcDbSpline
70
4
71
3
72
8
73
4
74
0
42
0.000000001
43
0.0000000001
44
0.0000000001
40
-1
40
-1
40
-1
40
-1
40
0
40
0
40
0
40
0
41
1
41
1
41
1
41
1
10
-10.205147470561258
20
-13.150178238168252
30
0
10
-10.060646579950433
20
-12.96983207073238
30
0
10
-9.7318952047305363
20
-12.789622032043081
30
0
10
-9.546926539225943
20
-12.789393643282224
30
0
0
SPLINE
5
147
100
AcDbEntity
8
0
100
AcDbSpline
70
4
71
3
72
8
73
4
74
0
42
0.000000001
43
0.0000000001
44
0.0000000001
40
-1
40
-1
40
-1
40
-1
40
0
40
0
40
0
40
0
41
1
41
1
41
1
41
1
10
-8.3101068779041842
20
-10.856906791199252
30
0
10
-8.5986654492532821
20
-11.139481577013939
30
0
10
-9.0719430413624416
20
-11.33174692423664
30
0
10
-9.3990662986831666
20
-11.299289489406782
30
0
0
LINE
5
148
100
AcDbEntity
8
0
100
AcDbLine
10
-9.3990662986831666
20
-11.299289489406778
30
0
11
-9.582055896430326
21
-11.281133261301228
31
0
0
LINE
5
149
100
AcDbEntity
8
0
100
AcDbLine
10
-9.582055896430326
20
-11.281133261301228
30
0
11
-9.5710878088495974
21
-10.708800071696754
31
0
0
SPLINE
5
150
100
AcDbEntity
8
0
100
AcDbSpline
70
4
71
3
72
8
73
4
74
0
42
0.000000001
43
0.0000000001
44
0.0000000001
40
-1
40
-1
40
-1
40
-1
40
0
40
0
40
0
40
0
41
1
41
1
41
1
41
1
10
-9.5710878088495974
20
-10.70880007169675
30
0
10
-9.5512211524399717
20
-9.6719978600725867
30
0
10
-9.8104356121864011
20
-8.9011640839465667
30
0
10
-10.348065468770113
20
-8.398273740781379
30
0
0
SPLINE
5
151
100
AcDbEntity
8
0
100
AcDbSpline
70
4
71
3
72
8
73
4
74
0
42
0.000000001
43
0.0000000001
44
0.0000000001
40
-1
40
-1
40
-1
40
-1
40
0
40
0
40
0
40
0
41
1
41
1
41
1
41
1
10
-10.348065468770113
20
-8.398273740781379
30
0
10
-10.620760744721656
20
-8.1432001275585009
30
0
10
-10.974056901781456
20
-7.9182878506726828
30
0
10
-11.023839320078345
20
-7.9680698167146025
30
0
0
SPLINE
5
152
100
AcDbEntity
8
0
100
AcDbSpline
70
4
71
3
72
8
73
4
74
0
42
0.000000001
43
0.0000000001
44
0.0000000001
40
-1
40
-1
40
-1
40
-1
40
0
40
0
40
0
40
0
41
1
41
1
41
1
41
1
10
-11.023839320078345
20
-7.9680698167146025
30
0
10
-11.037245966468049
20
-7.9814780459967105
30
0
10
-10.983901588011754
20
-8.1306129671780436
30
0
10
-10.905292437800146
20
-8.2994802250423216
30
0
0
SPLINE
5
153
100
AcDbEntity
8
0
100
AcDbSpline
70
4
71
3
72
8
73
4
74
0
42
0.000000001
43
0.0000000001
44
0.0000000001
40
-1
40
-1
40
-1
40
-1
40
0
40
0
40
0
40
0
41
1
41
1
41
1
41
1
10
-10.905292437800146
20
-8.2994802250423216
30
0
10
-10.826683287588539
20
-8.4683474829065997
30
0
10
-10.762094041508657
20
-8.6453234462911901
30
0
10
-10.761811834406135
20
-8.6927597919208832
30
0
0
SPLINE
5
154
100
AcDbEntity
8
0
100
AcDbSpline
70
4
71
3
72
8
73
4
74
0
42
0.000000001
43
0.0000000001
44
0.0000000001
40
-1
40
-1
40
-1
40
-1
40
0
40
0
40
0
40
0
41
1
41
1
41
1
41
1
10
-10.761811834406135
20
-8.6927597919208832
30
0
10
-10.760596173041424
20
-8.8814145615746867
30
0
10
-10.982107040282894
20
-9.1553279862932868
30
0
10
-11.420076182218754
20
-9.5067488681117229
30
0
0
SPLINE
5
155
100
AcDbEntity
8
0
100
AcDbSpline
70
4
71
3
72
8
73
4
74
0
42
0.000000001
43
0.0000000001
44
0.0000000001
40
-1
40
-1
40
-1
40
-1
40
0
40
0
40
0
40
0
41
1
41
1
41
1
41
1
10
-11.420076182218754
20
-9.5067488681117229
30
0
10
-11.948127278495701
20
-9.9304480089163505
30
0
10
-12.15884372406569
20
-10.163178869757953
30
0
10
-12.305291120075964
20
-10.484437736856869
30
0
0
SPLINE
5
156
100
AcDbEntity
8
0
100
AcDbSpline
70
4
71
3
72
8
73
4
74
0
42
0.000000001
43
0.0000000001
44
0.0000000001
40
-1
40
-1
40
-1
40
-1
40
0
40
0
40
0
40
0
41
1
41
1
41
1
41
1
10
-12.305291120075964
20
-10.484437736856869
30
0
10
-12.432188438157009
20
-10.762808812706899
30
0
10
-12.44091153205677
20
-11.186077406778189
30
0
10
-12.325449028687551
20
-11.46241966682387
30
0
0
SPLINE
5
157
100
AcDbEntity
8
0
100
AcDbSpline
70
4
71
3
72
8
73
4
74
0
42
0.000000001
43
0.0000000001
44
0.0000000001
40
-1
40
-1
40
-1
40
-1
40
0
40
0
40
0
40
0
41
1
41
1
41
1
41
1
10
-12.325449028687551
20
-11.46241966682387
30
0
10
-12.278090697040533
20
-11.575765616924173
30
0
10
-12.249792198933104
20
-11.67895392035355
30
0
10
-12.26256568836202
20
-11.691727409782469
30
0
0
SPLINE
5
158
100
AcDbEntity
8
0
100
AcDbSpline
70
4
71
3
72
8
73
4
74
0
42
0.000000001
43
0.0000000001
44
0.0000000001
40
-1
40
-1
40
-1
40
-1
40
0
40
0
40
0
40
0
41
1
41
1
41
1
41
1
10
-12.26256568836202
20
-11.691727409782469
30
0
10
-12.322335705460365
20
-11.751497426880814
30
0
10
-12.728402781671978
20
-11.308210670984277
30
0
10
-12.846819414518244
20
-11.053920363372889
30
0
0
SPLINE
5
159
100
AcDbEntity
8
0
100
AcDbSpline
70
4
71
3
72
8
73
4
74
0
42
0.000000001
43
0.0000000001
44
0.0000000001
40
-1
40
-1
40
-1
40
-1
40
0
40
0
40
0
40
0
41
1
41
1
41
1
41
1
10
-12.846819414518244
20
-11.053920363372889
30
0
10
-13.030802164183889
20
-10.658828158566589
30
0
10
-13.02381030231691
20
-10.538093718988865
30
0
10
-12.780873403522385
20
-9.9153689236402229
30
0
0
SPLINE
5
160
100
AcDbEntity
8
0
100
AcDbSpline
70
4
71
3
72
8
73
4
74
0
42
0.000000001
43
0.0000000001
44
0.0000000001
40
-1
40
-1
40
-1
40
-1
40
0
40
0
40
0
40
0
41
1
41
1
41
1
41
1
10
-12.780873403522385
20
-9.9153689236402229
30
0
10
-12.70116979627856
20
-9.7110645490631207
30
0
10
-13.247155515724781
20
-10.285419770647376
30
0
10
-13.400535075945736
20
-10.56723069781437
30
0
0
SPLINE
5
161
100
AcDbEntity
8
0
100
AcDbSpline
70
4
71
3
72
8
73
4
74
0
42
0.000000001
43
0.0000000001
44
0.0000000001
40
-1
40
-1
40
-1
40
-1
40
0
40
0
40
0
40
0
41
1
41
1
41
1
41
1
10
-13.400535075945736
20
-10.56723069781437
30
0
10
-13.481123293914777
20
-10.715294453094536
30
0
10
-13.574839569210777
20
-10.9659893336786
30
0
10
-13.608798490547645
20
-11.124331487707217
30
0
0
SPLINE
5
162
100
AcDbEntity
8
0
100
AcDbSpline
70
4
71
3
72
8
73
4
74
0
42
0.000000001
43
0.0000000001
44
0.0000000001
40
-1
40
-1
40
-1
40
-1
40
0
40
0
40
0
40
0
41
1
41
1
41
1
41
1
10
-13.608798490547645
20
-11.124331487707217
30
0
10
-13.717580283470614
20
-11.631568453408207
30
0
10
-13.513553593446318
20
-12.356664779706822
30
0
10
-13.11481666582074
20
-12.879896647002225
30
0
0
SPLINE
5
163
100
AcDbEntity
8
0
100
AcDbSpline
70
4
71
3
72
8
73
4
74
0
42
0.000000001
43
0.0000000001
44
0.0000000001
40
-1
40
-1
40
-1
40
-1
40
0
40
0
40
0
40
0
41
1
41
1
41
1
41
1
10
-13.11481666582074
20
-12.879896647002225
30
0
10
-13.041012272431566
20
-12.976747501509095
30
0
10
-12.980623570531534
20
-13.083521734611395
30
0
10
-12.980623570531534
20
-13.117173122567308
30
0
0
SPLINE
5
164
100
AcDbEntity
8
0
100
AcDbSpline
70
4
71
3
72
8
73
4
74
0
42
0.000000001
43
0.0000000001
44
0.0000000001
40
-1
40
-1
40
-1
40
-1
40
0
40
0
40
0
40
0
41
1
41
1
41
1
41
1
10
-12.980623570531534
20
-13.117173122567308
30
0
10
-12.980623570531534
20
-13.216323693606755
30
0
10
-13.388959157682653
20
-13.02950756654158
30
0
10
-13.720159945830851
20
-12.77883122841137
30
0
0
LINE
5
165
100
AcDbEntity
8
0
100
AcDbLine
10
-13.720159945830851
20
-12.778831228411372
30
0
11
-14.019635952203817
21
-12.552166011254112
31
0
0
LINE
5
166
100
AcDbEntity
8
0
100
AcDbLine
10
-14.019635952203817
20
-12.552166011254112
30
0
11
-13.981700805153201
21
-12.713345612976998
31
0
0
SPLINE
5
167
100
AcDbEntity
8
0
100
AcDbSpline
70
4
71
3
72
8
73
4
74
0
42
0.000000001
43
0.0000000001
44
0.0000000001
40
-1
40
-1
40
-1
40
-1
40
0
40
0
40
0
40
0
41
1
41
1
41
1
41
1
10
-13.981700805153201
20
-12.713345612976998
30
0
10
-13.833771821854683
20
-13.341877362166009
30
0
10
-13.135909837714404
20
-14.2254714182036
30
0
10
-12.540773047912189
20
-14.537764330482798
30
0
0
SPLINE
5
168
100
AcDbEntity
8
0
100
AcDbSpline
70
4
71
3
72
8
73
4
74
0
42
0.000000001
43
0.0000000001
44
0.0000000001
40
-1
40
-1
40
-1
40
-1
40
0
40
0
40
0
40
0
41
1
41
1
41
1
41
1
10
-12.540773047912189
20
-14.537764330482798
30
0
10
-12.216442917298478
20
-14.707954208012662
30
0
10
-11.777726650148885
20
-14.865995612484909
30
0
10
-11.50104429436427
20
-14.912311044166518
30
0
0
SPLINE
5
169
100
AcDbEntity
8
0
100
AcDbSpline
70
4
71
3
72
8
73
4
74
0
42
0.000000001
43
0.0000000001
44
0.0000000001
40
-1
40
-1
40
-1
40
-1
40
0
40
0
40
0
40
0
41
1
41
1
41
1
41
1
10
-11.50104429436427
20
-14.912311044166518
30
0
10
-11.147739092205033
20
-14.971452426853794
30
0
10
-10.193264018917215
20
-14.943489501935584
30
0
10
-9.8566126538465824
20
-14.86413413102019
30
0
0
SPLINE
5
170
100
AcDbEntity
8
0
100
AcDbSpline
70
4
71
3
72
8
73
4
74
0
42
0.000000001
43
0.0000000001
44
0.0000000001
40
-1
40
-1
40
-1
40
-1
40
0
40
0
40
0
40
0
41
1
41
1
41
1
41
1
10
-9.8566126538465824
20
-14.86413413102019
30
0
10
-8.685811364316196
20
-14.588151865932213
30
0
10
-7.6733789118577711
20
-13.536317151294037
30
0
10
-7.2604882126287684
20
-12.166971858764803
30
0
0
SPLINE
5
171
100
AcDbEntity
8
0
100
AcDbSpline
70
4
71
3
72
8
73
4
74
0
42
0.000000001
43
0.0000000001
44
0.0000000001
40
-1
40
-1
40
-1
40
-1
40
0
40
0
40
0
40
0
41
1
41
1
41
1
41
1
10
-7.2604882126287684
20
-12.166971858764803
30
0
10
-7.219778029070012
20
-12.031957468446466
30
0
10
-7.2244036929235378
20
-12.032980016938136
30
0
10
-7.4451095463148675
20
-12.207781990672366
30
0
0
SPLINE
5
172
100
AcDbEntity
8
0
100
AcDbSpline
70
4
71
3
72
8
73
4
74
0
42
0.000000001
43
0.0000000001
44
0.0000000001
40
-1
40
-1
40
-1
40
-1
40
0
40
0
40
0
40
0
41
1
41
1
41
1
41
1
10
-7.4451095463148675
20
-12.207781990672366
30
0
10
-7.7539146682500615
20
-12.45236057501522
30
0
10
-8.1689562921258663
20
-12.650580311199153
30
0
10
-8.5304617814372463
20
-12.726137192604794
30
0
0
SPLINE
5
173
100
AcDbEntity
8
0
100
AcDbSpline
70
4
71
3
72
8
73
4
74
0
42
0.000000001
43
0.0000000001
44
0.0000000001
40
-1
40
-1
40
-1
40
-1
40
0
40
0
40
0
40
0
41
1
41
1
41
1
41
1
10
-8.5304617814372463
20
-12.726137192604794
30
0
10
-9.0577422352419177
20
-12.836341327414678
30
0
10
-9.0757474101868283
20
-12.787600000063307
30
0
10
-8.622956968308868
20
-12.475752106676543
30
0
0
SPLINE
5
174
100
AcDbEntity
8
0
100
AcDbSpline
70
4
71
3
72
8
73
4
74
0
42
0.000000001
43
0.0000000001
44
0.0000000001
40
-1
40
-1
40
-1
40
-1
40
0
40
0
40
0
40
0
41
1
41
1
41
1
41
1
10
-8.622956968308868
20
-12.475752106676543
30
0
10
-8.1239768216315156
20
-12.132090789540047
30
0
10
-7.7845847914306177
20
-11.661338589194493
30
0
10
-7.7129855932848734
20
-11.213582649664744
30
0
0
SPLINE
5
175
100
AcDbEntity
8
0
100
AcDbSpline
70
4
71
3
72
8
73
4
74
0
42
0.000000001
43
0.0000000001
44
0.0000000001
40
-1
40
-1
40
-1
40
-1
40
0
40
0
40
0
40
0
41
1
41
1
41
1
41
1
10
-7.7129855932848734
20
-11.213582649664744
30
0
10
-7.6775921191768415
20
-10.992245448332509
30
0
10
-7.7503165276929042
20
-10.617555822077644
30
0
10
-7.8600299658581729
20
-10.455983663039072
30
0
0
SPLINE
5
176
100
AcDbEntity
8
0
100
AcDbSpline
70
4
71
3
72
8
73
4
74
0
42
0.000000001
43
0.0000000001
44
0.0000000001
40
-1
40
-1
40
-1
40
-1
40
0
40
0
40
0
40
0
41
1
41
1
41
1
41
1
10
-7.8600299658581729
20
-10.455983663039072
30
0
10
-7.9098901720102521
20
-10.382560520591287
30
0
10
-7.9269419934742036
20
-10.386539459834863
30
0
10
-7.9819832325854101
20
-10.484437284601892
30
0
0
SPLINE
5
177
100
AcDbEntity
8
0
100
AcDbSpline
70
4
71
3
72
8
73
4
74
0
42
0.000000001
43
0.0000000001
44
0.0000000001
40
-1
40
-1
40
-1
40
-1
40
0
40
0
40
0
40
0
41
1
41
1
41
1
41
1
10
-7.9819832325854101
20
-10.484437284601892
30
0
10
-8.0171777145057632
20
-10.547034799785129
30
0
10
-8.164833535801197
20
-10.714645919464703
30
0
10
-8.3101068779041842
20
-10.856906791199252
30
0
0
SPLINE
5
178
100
AcDbEntity
8
0
100
AcDbSpline
70
4
71
3
72
8
73
4
74
0
42
0.000000001
43
0.0000000001
44
0.0000000001
40
-1
40
-1
40
-1
40
-1
40
0
40
0
40
0
40
0
41
1
41
1
41
1
41
1
10
13.626807662152661
20
-10.137476867571031
30
0
10
13.626807662152661
20
-10.125993661577205
30
0
10
12.903379704445722
20
-10.340134129540139
30
0
10
12.019189576355046
20
-10.613344523904779
30
0
0
SPLINE
5
179
100
AcDbEntity
8
0
100
AcDbSpline
70
4
71
3
72
8
73
4
74
0
42
0.000000001
43
0.0000000001
44
0.0000000001
40
-1
40
-1
40
-1
40
-1
40
0
40
0
40
0
40
0
41
1
41
1
41
1
41
1
10
12.019189576355046
20
-10.613344523904779
30
0
10
11.13499944826437
20
-10.886555370524388
30
0
10
10.39694737378313
20
-11.101878937494053
30
0
10
10.379073352780095
20
-11.091842042900652
30
0
0
SPLINE
5
180
100
AcDbEntity
8
0
100
AcDbSpline
70
4
71
3
72
8
73
4
74
0
42
0.000000001
43
0.0000000001
44
0.0000000001
40
-1
40
-1
40
-1
40
-1
40
0
40
0
40
0
40
0
41
1
41
1
41
1
41
1
10
10.379073352780095
20
-11.091842042900652
30
0
10
10.354107973816241
20
-11.077823043278872
30
0
10
10.692590067013498
20
-8.869222319911092
30
0
10
10.9191318185634
20
-7.5679531592957971
30
0
0
SPLINE
5
181
100
AcDbEntity
8
0
100
AcDbSpline
70
4
71
3
72
8
73
4
74
0
42
0.000000001
43
0.0000000001
44
0.0000000001
40
-1
40
-1
40
-1
40
-1
40
0
40
0
40
0
40
0
41
1
41
1
41
1
41
1
10
10.9191318185634
20
-7.5679531592957971
30
0
10
10.935478122271046
20
-7.4740568865209411
30
0
10
10.36054265755773
20
-8.5857995560239218
30
0
10
9.6414961460194455
20
-10.03849272636128
30
0
0
SPLINE
5
182
100
AcDbEntity
8
0
100
AcDbSpline
70
4
71
3
72
8
73
4
74
0
42
0.000000001
43
0.0000000001
44
0.0000000001
40
-1
40
-1
40
-1
40
-1
40
0
40
0
40
0
40
0
41
1
41
1
41
1
41
1
10
9.6414961460194455
20
-10.03849272636128
30
0
10
8.9224496344811595
20
-11.491185444443669
30
0
10
8.3406156985525755
20
-12.685859464925574
30
0
10
8.3485317434548225
20
-12.693323480983313
30
0
0
SPLINE
5
183
100
AcDbEntity
8
0
100
AcDbSpline
70
4
71
3
72
8
73
4
74
0
42
0.000000001
43
0.0000000001
44
0.0000000001
40
-1
40
-1
40
-1
40
-1
40
0
40
0
40
0
40
0
41
1
41
1
41
1
41
1
10
8.3485317434548225
20
-12.693323480983313
30
0
10
8.3564477883570696
20
-12.700787497041063
30
0
10
9.13098575883118
20
-12.481258411086852
30
0
10
10.069727333898397
20
-12.205482374266104
30
0
0
SPLINE
5
184
100
AcDbEntity
8
0
100
AcDbSpline
70
4
71
3
72
8
73
4
74
0
42
0.000000001
43
0.0000000001
44
0.0000000001
40
-1
40
-1
40
-1
40
-1
40
0
40
0
40
0
40
0
41
1
41
1
41
1
41
1
10
10.069727333898397
20
-12.205482374266104
30
0
10
11.008468908965611
20
-11.929705885190391
30
0
10
11.79170442093357
20
-11.713448411703563
30
0
10
11.810250492824981
20
-11.724910813968679
30
0
0
SPLINE
5
185
100
AcDbEntity
8
0
100
AcDbSpline
70
4
71
3
72
8
73
4
74
0
42
0.000000001
43
0.0000000001
44
0.0000000001
40
-1
40
-1
40
-1
40
-1
40
0
40
0
40
0
40
0
41
1
41
1
41
1
41
1
10
11.810250492824981
20
-11.724910813968679
30
0
10
11.828797469226338
20
-11.736372763978821
30
0
10
11.711387103692751
20
-12.444663747773216
30
0
10
11.54933917242364
20
-13.298890174949594
30
0
0
SPLINE
5
186
100
AcDbEntity
8
0
100
AcDbSpline
70
4
71
3
72
8
73
4
74
0
42
0.000000001
43
0.0000000001
44
0.0000000001
40
-1
40
-1
40
-1
40
-1
40
0
40
0
40
0
40
0
41
1
41
1
41
1
41
1
10
11.54933917242364
20
-13.298890174949594
30
0
10
11.387291693409502
20
-14.153116602125969
30
0
10
11.238873822486264
20
-14.954461759937367
30
0
10
11.219522736744704
20
-15.07965679030384
30
0
0
SPLINE
5
187
100
AcDbEntity
8
0
100
AcDbSpline
70
4
71
3
72
8
73
4
74
0
42
0.000000001
43
0.0000000001
44
0.0000000001
40
-1
40
-1
40
-1
40
-1
40
0
40
0
40
0
40
0
41
1
41
1
41
1
41
1
10
11.219522736744704
20
-15.07965679030384
30
0
10
11.189919483043083
20
-15.271176821332691
30
0
10
11.223595745022457
20
-15.226041775127976
30
0
10
11.431820717951751
20
-14.79512238369551
30
0
0
SPLINE
5
188
100
AcDbEntity
8
0
100
AcDbSpline
70
4
71
3
72
8
73
4
74
0
42
0.000000001
43
0.0000000001
44
0.0000000001
40
-1
40
-1
40
-1
40
-1
40
0
40
0
40
0
40
0
41
1
41
1
41
1
41
1
10
11.431820717951751
20
-14.79512238369551
30
0
10
11.852771957546558
20
-13.923968957427451
30
0
10
13.626807662152661
20
-10.159559121088439
30
0
10
13.626807662152661
20
-10.137476867571031
30
0
0
ARC
5
189
100
AcDbEntity
8
0
100
AcDbCircle
10
-10.762225485084249
20
-11.410246605932937
30
0
40
6.000000014901266
210
0
220
0
230
1
100
AcDbArc
50
106.69473946756065
51
123.70291545464445
0
SPLINE
5
190
100
AcDbEntity
8
0
100
AcDbSpline
70
4
71
3
72
8
73
4
74
0
42
0.000000001
43
0.0000000001
44
0.0000000001
40
0.89549038132997816
40
0.89549038132997816
40
0.89549038132997816
40
0.89549038132997816
40
1
40
1
40
1
40
1
41
1
41
1
41
1
41
1
10
-12.485860954342446
20
-5.6631533451679577
30
0
10
-12.411930742091101
20
-5.5783643476299973
30
0
10
-12.344224794918009
20
-5.4842719765561068
30
0
10
-12.283755601481797
20
-5.3796583078812787
30
0
0
LINE
5
191
100
AcDbEntity
8
0
100
AcDbLine
10
-12.283755601481797
20
-5.3796583078812787
30
0
11
-13.310768000518094
21
-5.9665230395486191
31
0
0
SPLINE
5
192
100
AcDbEntity
8
0
100
AcDbSpline
70
4
71
3
72
8
73
4
74
0
42
0.000000001
43
0.0000000001
44
0.0000000001
40
0
40
0
40
0
40
0
40
1
40
1
40
1
40
1
41
1
41
1
41
1
41
1
10
-13.310768000518094
20
-5.9665230395486191
30
0
10
-13.208360278298032
20
-5.5911757776227322
30
0
10
-13.092356716850173
20
-5.2341161251881907
30
0
10
-13.210169754618867
20
-4.8417010858352683
30
0
0
SPLINE
5
193
100
AcDbEntity
8
0
100
AcDbSpline
70
4
71
3
72
8
73
4
74
0
42
0.000000001
43
0.0000000001
44
0.0000000001
40
0
40
0
40
0
40
0
40
1
40
1
40
1
40
1
41
1
41
1
41
1
41
1
10
-13.210169754618867
20
-4.8417010858352683
30
0
10
-13.344463922255343
20
-4.3942173272783736
30
0
10
-13.955731817432415
20
-4.0088420586364926
30
0
10
-13.399384569359022
20
-3.5603796140071875
30
0
0
SPLINE
5
194
100
AcDbEntity
8
0
100
AcDbSpline
70
4
71
3
72
8
73
4
74
0
42
0.000000001
43
0.0000000001
44
0.0000000001
40
0
40
0
40
0
40
0
40
1
40
1
40
1
40
1
41
1
41
1
41
1
41
1
10
-13.399384569359022
20
-3.5603796140071875
30
0
10
-12.91644424128188
20
-3.1711417788633955
30
0
10
-12.349582375739093
20
-3.7171710456910612
30
0
10
-11.892512975865833
20
-3.9192485664862575
30
0
0
SPLINE
5
195
100
AcDbEntity
8
0
100
AcDbSpline
70
4
71
3
72
8
73
4
74
0
42
0.000000001
43
0.0000000001
44
0.0000000001
40
0
40
0
40
0
40
0
40
1
40
1
40
1
40
1
41
1
41
1
41
1
41
1
10
-11.892512975865833
20
-3.9192485664862575
30
0
10
-11.035055647282297
20
-4.2983625006014847
30
0
10
-10.105805032043078
20
-4.5304676331254967
30
0
10
-9.2027191094781386
20
-4.1404950783221572
30
0
0
SPLINE
5
196
100
AcDbEntity
8
0
100
AcDbSpline
70
4
71
3
72
8
73
4
74
0
42
0.000000001
43
0.0000000001
44
0.0000000001
40
0
40
0
40
0
40
0
40
1
40
1
40
1
40
1
41
1
41
1
41
1
41
1
10
-9.2027191094781386
20
-4.1404950783221572
30
0
10
-8.6808499211288943
20
-3.9151392131505247
30
0
10
-8.3644811869599351
20
-3.4791007228409887
30
0
10
-8.236152914754765
20
-2.9343928232321259
30
0
0
SPLINE
5
197
100
AcDbEntity
8
0
100
AcDbSpline
70
4
71
3
72
8
73
4
74
0
42
0.000000001
43
0.0000000001
44
0.0000000001
40
0
40
0
40
0
40
0
40
1
40
1
40
1
40
1
41
1
41
1
41
1
41
1
10
-8.236152914754765
20
-2.9343928232321259
30
0
10
-8.0796070359705432
20
-2.2696224238642904
30
0
10
-8.2424558504905416
20
-1.3936772359013938
30
0
10
-7.2467000616154831
20
-1.4925640151080755
30
0
0
SPLINE
5
198
100
AcDbEntity
8
0
100
AcDbSpline
70
4
71
3
72
8
73
4
74
0
42
0.000000001
43
0.0000000001
44
0.0000000001
40
0
40
0
40
0
40
0
40
1
40
1
40
1
40
1
41
1
41
1
41
1
41
1
10
-7.2467000616154831
20
-1.4925640151080755
30
0
10
-6.9846667372014295
20
-1.518582398445163
30
0
10
-6.9180561503322879
20
-1.7555287835434918
30
0
10
-6.8152080898901657
20
-1.9562849371198876
30
0
0
SPLINE
5
199
100
AcDbEntity
8
0
100
AcDbSpline
70
4
71
3
72
8
73
4
74
0
42
0.000000001
43
0.0000000001
44
0.0000000001
40
0
40
0
40
0
40
0
40
1
40
1
40
1
40
1
41
1
41
1
41
1
41
1
10
-6.8152080898901657
20
-1.9562849371198876
30
0
10
-6.5556200704466523
20
-2.4627972859057179
30
0
10
-6.6807191369312813
20
-3.0257476682705997
30
0
10
-7.2465043949115255
20
-3.2767298782661669
30
0
0
SPLINE
5
200
100
AcDbEntity
8
0
100
AcDbSpline
70
4
71
3
72
8
73
4
74
0
42
0.000000001
43
0.0000000001
44
0.0000000001
40
0
40
0
40
0
40
0
40
1
40
1
40
1
40
1
41
1
41
1
41
1
41
1
10
-7.2465043949115255
20
-3.2767298782661669
30
0
10
-6.8038146468779059
20
-3.4236413753343431
30
0
10
-6.5329276685242288
20
-2.7149542012302685
30
0
10
-6.378826918434239
20
-2.3964341909756337
30
0
0
SPLINE
5
201
100
AcDbEntity
8
0
100
AcDbSpline
70
4
71
3
72
8
73
4
74
0
42
0.000000001
43
0.0000000001
44
0.0000000001
40
0
40
0
40
0
40
0
40
1
40
1
40
1
40
1
41
1
41
1
41
1
41
1
10
-6.378826918434239
20
-2.3964341909756337
30
0
10
-6.1001153872379703
20
-1.8203293652628716
30
0
10
-5.9676800532890928
20
-1.2143435897111088
30
0
10
-5.8651239064161187
20
-0.58693671698371475
30
0
0
SPLINE
5
202
100
AcDbEntity
8
0
100
AcDbSpline
70
4
71
3
72
8
73
4
74
0
42
0.000000001
43
0.0000000001
44
0.0000000001
40
0
40
0
40
0
40
0
40
1
40
1
40
1
40
1
41
1
41
1
41
1
41
1
10
-5.8651239064161187
20
-0.58693671698371475
30
0
10
-5.8285441042493682
20
-0.36314477523326394
30
0
10
-5.8540706766819124
20
0.082775059902446824
30
0
10
-5.6884788265039976
20
0.25159558697197548
30
0
0
SPLINE
5
203
100
AcDbEntity
8
0
100
AcDbSpline
70
4
71
3
72
8
73
4
74
0
42
0.000000001
43
0.0000000001
44
0.0000000001
40
0
40
0
40
0
40
0
40
1
40
1
40
1
40
1
41
1
41
1
41
1
41
1
10
-5.6884788265039976
20
0.25159558697197548
30
0
10
-5.5546237631554138
20
0.38804191207567618
30
0
10
-5.2271055523870587
20
0.42266539975546857
30
0
10
-5.045763413922093
20
0.43567459142401344
30
0
0
SPLINE
5
204
100
AcDbEntity
8
0
100
AcDbSpline
70
4
71
3
72
8
73
4
74
0
42
0.000000001
43
0.0000000001
44
0.0000000001
40
0
40
0
40
0
40
0
40
1
40
1
40
1
40
1
41
1
41
1
41
1
41
1
10
-5.045763413922093
20
0.43567459142401344
30
0
10
-4.228408945834409
20
0.49421524882722112
30
0
10
-3.9496491149292323
20
-0.50633895747886015
30
0
10
-3.5617805941605249
20
-1.0759892498293544
30
0
0
SPLINE
5
205
100
AcDbEntity
8
0
100
AcDbSpline
70
4
71
3
72
8
73
4
74
0
42
0.000000001
43
0.0000000001
44
0.0000000001
40
0
40
0
40
0
40
0
40
1
40
1
40
1
40
1
41
1
41
1
41
1
41
1
10
-3.5617805941605249
20
-1.0759892498293544
30
0
10
-2.8587652866028899
20
-2.1085284400090654
30
0
10
-1.6278665955558014
20
-3.0544553229910942
30
0
10
-0.3019451020144226
20
-2.7387740664306337
30
0
0
SPLINE
5
206
100
AcDbEntity
8
0
100
AcDbSpline
70
4
71
3
72
8
73
4
74
0
42
0.000000001
43
0.0000000001
44
0.0000000001
40
0
40
0
40
0
40
0
40
1
40
1
40
1
40
1
41
1
41
1
41
1
41
1
10
-0.3019451020144226
20
-2.7387740664306337
30
0
10
-0.64120084715190595
20
-3.4706422803880965
30
0
10
-1.3889155962616095
20
-4.1503298862025284
30
0
10
-1.8839833819053164
20
-4.792799217055852
30
0
0
SPLINE
5
207
100
AcDbEntity
8
0
100
AcDbSpline
70
4
71
3
72
8
73
4
74
0
42
0.000000001
43
0.0000000001
44
0.0000000001
40
0
40
0
40
0
40
0
40
0.34077552777283499
40
0.34077552777283499
40
0.34077552777283499
40
0.34077552777283499
41
1
41
1
41
1
41
1
10
-1.8839833819053164
20
-4.792799217055852
30
0
10
-2.2642123509445939
20
-5.2862887583325513
30
0
10
-2.6422549771328923
20
-5.7814477186589395
30
0
10
-3.0199245294740114
20
-6.2768925294324589
30
0
0
ARC
5
208
100
AcDbEntity
8
0
100
AcDbCircle
10
1.2073675392798577e-12
20
-13.684999985101991
30
0
40
8.0000000149045398
210
0
220
0
230
1
100
AcDbArc
50
109.2182426963728
51
112.17832887575719
0
SPLINE
5
209
100
AcDbEntity
8
0
100
AcDbSpline
70
4
71
3
72
8
73
4
74
0
42
0.000000001
43
0.0000000001
44
0.0000000001
40
0.56601556961639021
40
0.56601556961639021
40
0.56601556961639021
40
0.56601556961639021
40
1
40
1
40
1
40
1
41
1
41
1
41
1
41
1
10
-2.6333385240095857
20
-6.1308270683338506
30
0
10
-2.1818294723465756
20
-5.5333196374917968
30
0
10
-1.7277172107903973
20
-4.9378380964935396
30
0
10
-1.2604884330466004
20
-4.3526457325686696
30
0
0
SPLINE
5
210
100
AcDbEntity
8
0
100
AcDbSpline
70
4
71
3
72
8
73
4
74
0
42
0.000000001
43
0.0000000001
44
0.0000000001
40
0
40
0
40
0
40
0
40
1
40
1
40
1
40
1
41
1
41
1
41
1
41
1
10
-1.2604884330466004
20
-4.3526457325686696
30
0
10
-0.82801848035411352
20
-3.8109711957000814
30
0
10
-0.42909884516691754
20
-3.1614592737147529
30
0
10
0.091206772313763285
20
-2.7002823714070123
30
0
0
SPLINE
5
211
100
AcDbEntity
8
0
100
AcDbSpline
70
4
71
3
72
8
73
4
74
0
42
0.000000001
43
0.0000000001
44
0.0000000001
40
0
40
0
40
0
40
0
40
1
40
1
40
1
40
1
41
1
41
1
41
1
41
1
10
0.091206772313763285
20
-2.7002823714070123
30
0
10
0.45897344780992277
20
-2.374327731507222
30
0
10
0.99483016134750191
20
-2.1318053741750242
30
0
10
1.4097422884715116
20
-1.8584741485086642
30
0
0
SPLINE
5
212
100
AcDbEntity
8
0
100
AcDbSpline
70
4
71
3
72
8
73
4
74
0
42
0.000000001
43
0.0000000001
44
0.0000000001
40
0
40
0
40
0
40
0
40
1
40
1
40
1
40
1
41
1
41
1
41
1
41
1
10
1.4097422884715116
20
-1.8584741485086642
30
0
10
1.4118491429270996
20
-2.6165567650597898
30
0
10
1.5779268106150224
20
-3.7098830779357206
30
0
10
1.1027140834100435
20
-4.3811108310867786
30
0
0
SPLINE
5
213
100
AcDbEntity
8
0
100
AcDbSpline
70
4
71
3
72
8
73
4
74
0
42
0.000000001
43
0.0000000001
44
0.0000000001
40
0
40
0
40
0
40
0
40
1
40
1
40
1
40
1
41
1
41
1
41
1
41
1
10
1.1027140834100435
20
-4.3811108310867786
30
0
10
0.93227886534208881
20
-4.6218718355307331
30
0
10
0.43999906581531523
20
-4.7478515784594855
30
0
10
0.1871081359364557
20
-4.9005830141743889
30
0
0
SPLINE
5
214
100
AcDbEntity
8
0
100
AcDbSpline
70
4
71
3
72
8
73
4
74
0
42
0.000000001
43
0.0000000001
44
0.0000000001
40
0
40
0
40
0
40
0
40
0.70256220455278395
40
0.70256220455278395
40
0.70256220455278395
40
0.70256220455278395
41
1
41
1
41
1
41
1
10
0.1871081359364557
20
-4.9005830141743889
30
0
10
-0.21015069508208867
20
-5.1404788464160065
30
0
10
-0.5985026023604425
20
-5.4239452391075513
30
0
10
-0.94828479214153261
20
-5.741401544126906
30
0
0
ARC
5
215
100
AcDbEntity
8
0
100
AcDbCircle
10
1.2073675392798577e-12
20
-13.684999985101991
30
0
40
8.0000000149043977
210
0
220
0
230
1
100
AcDbArc
50
94.13220566347124
51
96.807595360695203
0
SPLINE
5
216
100
AcDbEntity
8
0
100
AcDbSpline
70
4
71
3
72
8
73
4
74
0
42
0.000000001
43
0.0000000001
44
0.0000000001
40
0.73889248969498311
40
0.73889248969498311
40
0.73889248969498311
40
0.73889248969498311
40
1
40
1
40
1
40
1
41
1
41
1
41
1
41
1
10
-0.57646471588013637
20
-5.705796474110798
30
0
10
-0.10517675065339946
20
-5.3080774773815387
30
0
10
0.41981443591163653
20
-4.9765074736719708
30
0
10
1.0185019544475749
20
-4.7438973482764357
30
0
0
LINE
5
217
100
AcDbEntity
8
0
100
AcDbLine
10
1.0185019544475749
20
-4.7438973482764357
30
0
11
0.87178647663597841
21
-5.52638224695575
31
0
0
SPLINE
5
218
100
AcDbEntity
8
0
100
AcDbSpline
70
4
71
3
72
8
73
4
74
0
42
0.000000001
43
0.0000000001
44
0.0000000001
40
0
40
0
40
0
40
0
40
1
40
1
40
1
40
1
41
1
41
1
41
1
41
1
10
0.87178647663597841
20
-5.52638224695575
30
0
10
1.1683974568892586
20
-5.2134861560912649
30
0
10
1.1912851729630236
20
-4.9380029492339883
30
0
10
1.3164836592864182
20
-4.5482771812644707
30
0
0
SPLINE
5
219
100
AcDbEntity
8
0
100
AcDbSpline
70
4
71
3
72
8
73
4
74
0
42
0.000000001
43
0.0000000001
44
0.0000000001
40
0
40
0
40
0
40
0
40
1
40
1
40
1
40
1
41
1
41
1
41
1
41
1
10
1.3164836592864182
20
-4.5482771812644707
30
0
10
1.6096212911299834
20
-3.6357525436874427
30
0
10
1.6781885450387035
20
-2.8559075590247751
30
0
10
1.6550060949748358
20
-1.9073887091823893
30
0
0
SPLINE
5
220
100
AcDbEntity
8
0
100
AcDbSpline
70
4
71
3
72
8
73
4
74
0
42
0.000000001
43
0.0000000001
44
0.0000000001
40
0
40
0
40
0
40
0
40
1
40
1
40
1
40
1
41
1
41
1
41
1
41
1
10
1.6550060949748358
20
-1.9073887091823893
30
0
10
1.6444337470139603
20
-1.4767767087959505
30
0
10
1.7619127411754465
20
-1.0664618678333992
30
0
10
1.7513502646879253
20
-0.63584845723648309
30
0
0
SPLINE
5
221
100
AcDbEntity
8
0
100
AcDbSpline
70
4
71
3
72
8
73
4
74
0
42
0.000000001
43
0.0000000001
44
0.0000000001
40
0
40
0
40
0
40
0
40
1
40
1
40
1
40
1
41
1
41
1
41
1
41
1
10
1.7513502646879253
20
-0.63584845723648309
30
0
10
1.7369703484338173
20
-0.047418391937479321
30
0
10
1.5684939127211583
20
0.57167387980587847
30
0
10
1.3757576261386939
20
1.124744327555065
30
0
0
SPLINE
5
222
100
AcDbEntity
8
0
100
AcDbSpline
70
4
71
3
72
8
73
4
74
0
42
0.000000001
43
0.0000000001
44
0.0000000001
40
0
40
0
40
0
40
0
40
1
40
1
40
1
40
1
41
1
41
1
41
1
41
1
10
1.3757576261386939
20
1.124744327555065
30
0
10
0.52206696974450129
20
3.5743151847965282
30
0
10
-1.2090361986159603
20
5.5702890210547418
30
0
10
-1.327044726812302
20
8.2649255502272325
30
0
0
SPLINE
5
223
100
AcDbEntity
8
0
100
AcDbSpline
70
4
71
3
72
8
73
4
74
0
42
0.000000001
43
0.0000000001
44
0.0000000001
40
0
40
0
40
0
40
0
40
1
40
1
40
1
40
1
41
1
41
1
41
1
41
1
10
-1.327044726812302
20
8.2649255502272325
30
0
10
-1.3428482505449346
20
8.6265803735075153
30
0
10
-1.4232901817918631
20
9.4518094569097961
30
0
10
-1.182822501127534
20
9.746659789380077
30
0
0
SPLINE
5
224
100
AcDbEntity
8
0
100
AcDbSpline
70
4
71
3
72
8
73
4
74
0
42
0.000000001
43
0.0000000001
44
0.0000000001
40
0
40
0
40
0
40
0
40
1
40
1
40
1
40
1
41
1
41
1
41
1
41
1
10
-1.182822501127534
20
9.746659789380077
30
0
10
-1.0044160683271741
20
9.9653643968276242
30
0
10
-0.5002503097783606
20
10.047428070125374
30
0
10
-0.25303547707737462
20
10.206370072789683
30
0
0
SPLINE
5
225
100
AcDbEntity
8
0
100
AcDbSpline
70
4
71
3
72
8
73
4
74
0
42
0.000000001
43
0.0000000001
44
0.0000000001
40
0
40
0
40
0
40
0
40
1
40
1
40
1
40
1
41
1
41
1
41
1
41
1
10
-0.25303547707737462
20
10.206370072789683
30
0
10
0.56965170193655323
20
10.73528149971831
30
0
10
1.0308779616110586
20
11.584669603941151
30
0
10
0.84909760023975211
20
12.568596018489638
30
0
0
SPLINE
5
226
100
AcDbEntity
8
0
100
AcDbSpline
70
4
71
3
72
8
73
4
74
0
42
0.000000001
43
0.0000000001
44
0.0000000001
40
0
40
0
40
0
40
0
40
1
40
1
40
1
40
1
41
1
41
1
41
1
41
1
10
0.84909760023975211
20
12.568596018489638
30
0
10
0.73690760047965931
20
13.17602972765069
30
0
10
0.37324745789827585
20
13.697688442085948
30
0
10
-0.20412867256128342
20
13.943833982691249
30
0
0
SPLINE
5
227
100
AcDbEntity
8
0
100
AcDbSpline
70
4
71
3
72
8
73
4
74
0
42
0.000000001
43
0.0000000001
44
0.0000000001
40
0
40
0
40
0
40
0
40
1
40
1
40
1
40
1
41
1
41
1
41
1
41
1
10
-0.20412867256128342
20
13.943833982691249
30
0
10
-1.1687373188635319
20
14.355069338543951
30
0
10
-2.1114376402696653
20
13.802668740772276
30
0
10
-2.1114376402696653
20
12.764217595712084
30
0
0
SPLINE
5
228
100
AcDbEntity
8
0
100
AcDbSpline
70
4
71
3
72
8
73
4
74
0
42
0.000000001
43
0.0000000001
44
0.0000000001
40
0
40
0
40
0
40
0
40
1
40
1
40
1
40
1
41
1
41
1
41
1
41
1
10
-2.1114376402696653
20
12.764217595712084
30
0
10
-2.029814657746595
20
13.03287890937732
30
0
10
-2.0351953158291236
20
13.315503069547507
30
0
10
-1.8476429629673718
20
13.54459035164651
30
0
0
SPLINE
5
229
100
AcDbEntity
8
0
100
AcDbSpline
70
4
71
3
72
8
73
4
74
0
42
0.000000001
43
0.0000000001
44
0.0000000001
40
0
40
0
40
0
40
0
40
1
40
1
40
1
40
1
41
1
41
1
41
1
41
1
10
-1.8476429629673718
20
13.54459035164651
30
0
10
-1.300245791975102
20
14.213082296468357
30
0
10
-0.17048316584866052
20
13.963479272321228
30
0
10
0.30795823824793178
20
13.35089582704358
30
0
0
SPLINE
5
230
100
AcDbEntity
8
0
100
AcDbSpline
70
4
71
3
72
8
73
4
74
0
42
0.000000001
43
0.0000000001
44
0.0000000001
40
0
40
0
40
0
40
0
40
1
40
1
40
1
40
1
41
1
41
1
41
1
41
1
10
0.30795823824793178
20
13.35089582704358
30
0
10
0.84943887117566286
20
12.657559851661011
30
0
10
0.77241317481405058
20
11.567943802555266
30
0
10
0.21992866951887846
20
10.906010041565892
30
0
0
SPLINE
5
231
100
AcDbEntity
8
0
100
AcDbSpline
70
4
71
3
72
8
73
4
74
0
42
0.000000001
43
0.0000000001
44
0.0000000001
40
0
40
0
40
0
40
0
40
1
40
1
40
1
40
1
41
1
41
1
41
1
41
1
10
0.21992866951887846
20
10.906010041565892
30
0
10
-0.6907387208573379
20
9.8148829519319261
30
0
10
-2.3769443130934342
20
9.8335647152521464
30
0
10
-3.3295238640100266
20
10.857104647260281
30
0
0
SPLINE
5
232
100
AcDbEntity
8
0
100
AcDbSpline
70
4
71
3
72
8
73
4
74
0
42
0.000000001
43
0.0000000001
44
0.0000000001
40
0
40
0
40
0
40
0
40
1
40
1
40
1
40
1
41
1
41
1
41
1
41
1
10
-3.3295238640100266
20
10.857104647260281
30
0
10
-4.2080102512560362
20
11.801026916046444
30
0
10
-4.4827608537694861
20
13.440568643533259
30
0
10
-3.8567719476787032
20
14.573715422256623
30
0
0
SPLINE
5
233
100
AcDbEntity
8
0
100
AcDbSpline
70
4
71
3
72
8
73
4
74
0
42
0.000000001
43
0.0000000001
44
0.0000000001
40
0
40
0
40
0
40
0
40
1
40
1
40
1
40
1
41
1
41
1
41
1
41
1
10
-3.8567719476787032
20
14.573715422256623
30
0
10
-2.1670930070328911
20
17.632087540271122
30
0
10
2.9633232260019304
20
15.736092691235557
30
0
10
2.3389454853833747
20
12.372979024451247
30
0
0
SPLINE
5
234
100
AcDbEntity
8
0
100
AcDbSpline
70
4
71
3
72
8
73
4
74
0
42
0.000000001
43
0.0000000001
44
0.0000000001
40
0
40
0
40
0
40
0
40
1
40
1
40
1
40
1
41
1
41
1
41
1
41
1
10
2.3389454853833747
20
12.372979024451247
30
0
10
2.8212501610871188
20
12.975121271342562
30
0
10
2.4408162699635683
20
13.677504804605615
30
0
10
2.2900407961830038
20
14.32919303391262
30
0
0
SPLINE
5
235
100
AcDbEntity
8
0
100
AcDbSpline
70
4
71
3
72
8
73
4
74
0
42
0.000000001
43
0.0000000001
44
0.0000000001
40
0
40
0
40
0
40
0
40
1
40
1
40
1
40
1
41
1
41
1
41
1
41
1
10
2.2900407961830038
20
14.32919303391262
30
0
10
3.5230907633157682
20
14.723472724071367
30
0
10
4.7239131903725191
20
14.883158612763335
30
0
10
5.9579418435776921
20
14.475869730936044
30
0
0
SPLINE
5
236
100
AcDbEntity
8
0
100
AcDbSpline
70
4
71
3
72
8
73
4
74
0
42
0.000000001
43
0.0000000001
44
0.0000000001
40
0
40
0
40
0
40
0
40
1
40
1
40
1
40
1
41
1
41
1
41
1
41
1
10
5.9579418435776921
20
14.475869730936044
30
0
10
6.3032135466184824
20
14.361915557866755
30
0
10
6.8429335317632116
20
14.274399305752048
30
0
10
7.0338591080906721
20
13.937950232020345
30
0
0
LINE
5
237
100
AcDbEntity
8
0
100
AcDbLine
10
7.0338591080906721
20
13.937950232020341
30
0
11
6.2024695202109896
21
13.693423613044903
31
0
0
LINE
5
238
100
AcDbEntity
8
0
100
AcDbLine
10
6.2024695202109896
20
13.693423613044903
30
0
11
6.2024695202109914
21
13.644518218739295
31
0
0
SPLINE
5
239
100
AcDbEntity
8
0
100
AcDbSpline
70
4
71
3
72
8
73
4
74
0
42
0.000000001
43
0.0000000001
44
0.0000000001
40
0
40
0
40
0
40
0
40
1
40
1
40
1
40
1
41
1
41
1
41
1
41
1
10
6.2024695202109914
20
13.644518218739295
30
0
10
6.8871436302790778
20
13.519296111390375
30
0
10
7.8926857510492905
20
13.882657994455457
30
0
10
8.4032101486478048
20
14.337682853548671
30
0
0
SPLINE
5
240
100
AcDbEntity
8
0
100
AcDbSpline
70
4
71
3
72
8
73
4
74
0
42
0.000000001
43
0.0000000001
44
0.0000000001
40
0
40
0
40
0
40
0
40
1
40
1
40
1
40
1
41
1
41
1
41
1
41
1
10
8.4032101486478048
20
14.337682853548671
30
0
10
8.7170835153742168
20
14.617426306262931
30
0
10
9.009489247979193
20
15.108230496799766
30
0
10
9.3820499339986263
20
15.29854562826614
30
0
0
SPLINE
5
241
100
AcDbEntity
8
0
100
AcDbSpline
70
4
71
3
72
8
73
4
74
0
42
0.000000001
43
0.0000000001
44
0.0000000001
40
0
40
0
40
0
40
0
40
1
40
1
40
1
40
1
41
1
41
1
41
1
41
1
10
9.3820499339986263
20
15.29854562826614
30
0
10
9.7414547664597073
20
15.482141283076508
30
0
10
10.385049445275252
20
15.049632020766918
30
0
10
10.432634177467301
20
14.671530088946662
30
0
0
SPLINE
5
242
100
AcDbEntity
8
0
100
AcDbSpline
70
4
71
3
72
8
73
4
74
0
42
0.000000001
43
0.0000000001
44
0.0000000001
40
0
40
0
40
0
40
0
40
1
40
1
40
1
40
1
41
1
41
1
41
1
41
1
10
10.432634177467301
20
14.671530088946662
30
0
10
10.473568357040509
20
14.346231196919597
30
0
10
10.122867343655667
20
13.866464900078006
30
0
10
9.9681319988501382
20
13.595612471881061
30
0
0
SPLINE
5
243
100
AcDbEntity
8
0
100
AcDbSpline
70
4
71
3
72
8
73
4
74
0
42
0.000000001
43
0.0000000001
44
0.0000000001
40
0
40
0
40
0
40
0
40
1
40
1
40
1
40
1
41
1
41
1
41
1
41
1
10
9.9681319988501382
20
13.595612471881061
30
0
10
9.5178602541763091
20
12.807317153475758
30
0
10
9.0811349913635162
20
12.219905260142571
30
0
10
9.3813152143390823
20
11.297061407385645
30
0
0
LINE
5
244
100
AcDbEntity
8
0
100
AcDbLine
10
9.3813152143390823
20
11.297061407385643
30
0
11
9.430221313749934
21
11.297061407385645
31
0
0
LINE
5
245
100
AcDbEntity
8
0
100
AcDbLine
10
9.430221313749934
20
11.297061407385645
30
0
11
9.4791260029503057
21
12.030641616864584
31
0
0
SPLINE
5
246
100
AcDbEntity
8
0
100
AcDbSpline
70
4
71
3
72
8
73
4
74
0
42
0.000000001
43
0.0000000001
44
0.0000000001
40
0
40
0
40
0
40
0
40
1
40
1
40
1
40
1
41
1
41
1
41
1
41
1
10
9.4791260029503057
20
12.030641616864584
30
0
10
9.985345027956507
20
11.794575203105136
30
0
10
10.372918814735108
20
11.168195668711673
30
0
10
10.667916514200444
20
10.710197380823542
30
0
0
SPLINE
5
247
100
AcDbEntity
8
0
100
AcDbSpline
70
4
71
3
72
8
73
4
74
0
42
0.000000001
43
0.0000000001
44
0.0000000001
40
0
40
0
40
0
40
0
40
1
40
1
40
1
40
1
41
1
41
1
41
1
41
1
10
10.667916514200444
20
10.710197380823542
30
0
10
11.563714645286346
20
9.3193780010397376
30
0
10
12.022203686421161
20
7.6151738924604828
30
0
10
12.022203686421161
20
5.966379068915872
30
0
0
SPLINE
5
248
100
AcDbEntity
8
0
100
AcDbSpline
70
4
71
3
72
8
73
4
74
0
42
0.000000001
43
0.0000000001
44
0.0000000001
40
0
40
0
40
0
40
0
40
1
40
1
40
1
40
1
41
1
41
1
41
1
41
1
10
12.022203686421161
20
5.966379068915872
30
0
10
12.022203686421161
20
5.3164751084173929
30
0
10
12.144760848517437
20
4.3470738618023486
30
0
10
11.579954629162224
20
3.8827169348645185
30
0
0
SPLINE
5
249
100
AcDbEntity
8
0
100
AcDbSpline
70
4
71
3
72
8
73
4
74
0
42
0.000000001
43
0.0000000001
44
0.0000000001
40
0
40
0
40
0
40
0
40
1
40
1
40
1
40
1
41
1
41
1
41
1
41
1
10
11.579954629162224
20
3.8827169348645185
30
0
10
11.065763684318375
20
3.4599301924259129
30
0
10
10.235985967016163
20
3.6297294055678497
30
0
10
9.6747475801727525
20
3.8567972662609584
30
0
0
SPLINE
5
250
100
AcDbEntity
8
0
100
AcDbSpline
70
4
71
3
72
8
73
4
74
0
42
0.000000001
43
0.0000000001
44
0.0000000001
40
0
40
0
40
0
40
0
40
1
40
1
40
1
40
1
41
1
41
1
41
1
41
1
10
9.6747475801727525
20
3.8567972662609584
30
0
10
8.1616157098107713
20
4.4690937337061349
30
0
10
6.696803291300391
20
4.9778060108391635
30
0
10
5.1265508454875297
20
5.4284190264489034
30
0
0
SPLINE
5
251
100
AcDbEntity
8
0
100
AcDbSpline
70
4
71
3
72
8
73
4
74
0
42
0.000000001
43
0.0000000001
44
0.0000000001
40
0
40
0
40
0
40
0
40
1
40
1
40
1
40
1
41
1
41
1
41
1
41
1
10
5.1265508454875297
20
5.4284190264489034
30
0
10
4.3830427542366106
20
5.641793743391168
30
0
10
3.581728725242026
20
5.8403499686203624
30
0
10
3.2192425828843874
20
6.6021484897835876
30
0
0
LINE
5
252
100
AcDbEntity
8
0
100
AcDbLine
10
3.2192425828843869
20
6.6021484897835876
30
0
11
3.1703378936840165
21
6.6021484897835876
31
0
0
SPLINE
5
253
100
AcDbEntity
8
0
100
AcDbSpline
70
4
71
3
72
8
73
4
74
0
42
0.000000001
43
0.0000000001
44
0.0000000001
40
0
40
0
40
0
40
0
40
1
40
1
40
1
40
1
41
1
41
1
41
1
41
1
10
3.1703378936840165
20
6.6021484897835876
30
0
10
3.5254401739737395
20
5.7794133636133749
30
0
10
4.3355087896217999
20
5.5023634129139554
30
0
10
5.1265508454875297
20
5.2496226704511066
30
0
0
SPLINE
5
254
100
AcDbEntity
8
0
100
AcDbSpline
70
4
71
3
72
8
73
4
74
0
42
0.000000001
43
0.0000000001
44
0.0000000001
40
0
40
0
40
0
40
0
40
1
40
1
40
1
40
1
41
1
41
1
41
1
41
1
10
5.1265508454875297
20
5.2496226704511066
30
0
10
6.4479730624957394
20
4.8274225755717541
30
0
10
7.8777220076568888
20
4.5182423893193686
30
0
10
9.0878842587158903
20
3.814543129679433
30
0
0
LINE
5
255
100
AcDbEntity
8
0
100
AcDbLine
10
9.0878842587158903
20
3.8145431296794325
30
0
11
9.0878842587158903
21
3.7656384404790599
31
0
0
SPLINE
5
256
100
AcDbEntity
8
0
100
AcDbSpline
70
4
71
3
72
8
73
4
74
0
42
0.000000001
43
0.0000000001
44
0.0000000001
40
0
40
0
40
0
40
0
40
1
40
1
40
1
40
1
41
1
41
1
41
1
41
1
10
9.0878842587158903
20
3.7656384404790599
30
0
10
8.5637654321000589
20
3.7548249465262806
30
0
10
8.0500638302924177
20
3.6466519313155477
30
0
10
7.5229144613572707
20
3.6697342564354107
30
0
0
SPLINE
5
257
100
AcDbEntity
8
0
100
AcDbSpline
70
4
71
3
72
8
73
4
74
0
42
0.000000001
43
0.0000000001
44
0.0000000001
40
0
40
0
40
0
40
0
40
1
40
1
40
1
40
1
41
1
41
1
41
1
41
1
10
7.5229144613572707
20
3.6697342564354107
30
0
10
5.971392431126155
20
3.7377120423639187
30
0
10
4.2381873440467821
20
4.2539097167193463
30
0
10
3.0236224158724201
20
5.2327988594369357
30
0
0
LINE
5
258
100
AcDbEntity
8
0
100
AcDbLine
10
3.0236224158724196
20
5.2327988594369366
30
0
11
3.8061073145517299
21
4.4992186499579994
31
0
0
SPLINE
5
259
100
AcDbEntity
8
0
100
AcDbSpline
70
4
71
3
72
8
73
4
74
0
42
0.000000001
43
0.0000000001
44
0.0000000001
40
0
40
0
40
0
40
0
40
1
40
1
40
1
40
1
41
1
41
1
41
1
41
1
10
3.8061073145517299
20
4.4992186499579994
30
0
10
3.6164537480763048
20
4.0730572738432036
30
0
10
3.3061975712284619
20
3.726417666637809
30
0
10
3.1427555869257451
20
3.2765859076334203
30
0
0
SPLINE
5
260
100
AcDbEntity
8
0
100
AcDbSpline
70
4
71
3
72
8
73
4
74
0
42
0.000000001
43
0.0000000001
44
0.0000000001
40
0
40
0
40
0
40
0
40
1
40
1
40
1
40
1
41
1
41
1
41
1
41
1
10
3.1427555869257451
20
3.2765859076334203
30
0
10
2.7595816568415454
20
2.221844363672727
30
0
10
2.6811386989485642
20
0.86755719145200638
30
0
10
2.787409340223157
20
-0.24459966194967153
30
0
0
SPLINE
5
261
100
AcDbEntity
8
0
100
AcDbSpline
70
4
71
3
72
8
73
4
74
0
42
0.000000001
43
0.0000000001
44
0.0000000001
40
0
40
0
40
0
40
0
40
1
40
1
40
1
40
1
41
1
41
1
41
1
41
1
10
2.787409340223157
20
-0.24459966194967153
30
0
10
2.9140264982884023
20
-1.5695445847343614
30
0
10
3.4542823634151443
20
-2.8614285330499589
30
0
10
3.8870942921487828
20
-4.1081236967772883
30
0
0
SPLINE
5
262
100
AcDbEntity
8
0
100
AcDbSpline
70
4
71
3
72
8
73
4
74
0
42
0.000000001
43
0.0000000001
44
0.0000000001
40
0
40
0
40
0
40
0
40
0.45671164363839334
40
0.45671164363839334
40
0.45671164363839334
40
0.45671164363839334
41
1
41
1
41
1
41
1
10
3.8870942921487828
20
-4.1081236967772883
30
0
10
4.2404891208305955
20
-5.1260707578138316
30
0
10
4.574420371661736
20
-6.1907072855417802
30
0
10
4.7825582261323829
20
-7.2719556961458851
30
0
0
ARC
5
263
100
AcDbEntity
8
0
100
AcDbCircle
10
1.2073675392798577e-12
20
-13.684999985101991
30
0
40
8.0000000149028736
210
0
220
-0
230
1
100
AcDbArc
50
51.335210240401082
51
53.286090252348437
0
ARC
5
264
100
AcDbEntity
8
0
100
AcDbCircle
10
5.6228664404720785
20
-6.6576695345768355
30
0
40
0.99999999999999645
210
0
220
0
230
1
100
AcDbArc
50
231.33521024038009
51
235.36527915553751
0
SPLINE
5
265
100
AcDbEntity
8
0
100
AcDbSpline
70
4
71
3
72
8
73
4
74
0
42
0.000000001
43
0.0000000001
44
0.0000000001
40
0.68444100363058591
40
0.68444100363058591
40
0.68444100363058591
40
0.68444100363058591
40
1
40
1
40
1
40
1
41
1
41
1
41
1
41
1
10
5.0545239847908441
20
-7.4804616426273585
30
0
10
4.8954982583331077
20
-6.5684553450120289
30
0
10
4.6441306074497923
20
-5.6638725880012721
30
0
10
4.3602029853191304
20
-4.792799217055852
30
0
0
SPLINE
5
266
100
AcDbEntity
8
0
100
AcDbSpline
70
4
71
3
72
8
73
4
74
0
42
0.000000001
43
0.0000000001
44
0.0000000001
40
0
40
0
40
0
40
0
40
1
40
1
40
1
40
1
41
1
41
1
41
1
41
1
10
4.3602029853191304
20
-4.792799217055852
30
0
10
3.8964820633073183
20
-3.370094273237183
30
0
10
3.2440369035257266
20
-1.9361400804277307
30
0
10
3.0649444033273432
20
-0.44022405959307731
30
0
0
SPLINE
5
267
100
AcDbEntity
8
0
100
AcDbSpline
70
4
71
3
72
8
73
4
74
0
42
0.000000001
43
0.0000000001
44
0.0000000001
40
0
40
0
40
0
40
0
40
1
40
1
40
1
40
1
41
1
41
1
41
1
41
1
10
3.0649444033273432
20
-0.44022405959307731
30
0
10
2.9257608596839524
20
0.72235486948435179
30
0
10
2.9876747405528703
20
2.1133681532090165
30
0
10
3.3698192169874175
20
3.2276769878016109
30
0
0
SPLINE
5
268
100
AcDbEntity
8
0
100
AcDbSpline
70
4
71
3
72
8
73
4
74
0
42
0.000000001
43
0.0000000001
44
0.0000000001
40
0
40
0
40
0
40
0
40
1
40
1
40
1
40
1
41
1
41
1
41
1
41
1
10
3.3698192169874175
20
3.2276769878016109
30
0
10
3.4737926253917628
20
3.5309892882509808
30
0
10
3.7102496674538865
20
4.1812345196853729
30
0
10
4.0525387753316444
20
4.2831532514218518
30
0
0
SPLINE
5
269
100
AcDbEntity
8
0
100
AcDbSpline
70
4
71
3
72
8
73
4
74
0
42
0.000000001
43
0.0000000001
44
0.0000000001
40
0
40
0
40
0
40
0
40
1
40
1
40
1
40
1
41
1
41
1
41
1
41
1
10
4.0525387753316444
20
4.2831532514218518
30
0
10
4.2166153543499014
20
4.3320099934659373
30
0
10
4.4422165961448767
20
4.1780079581094771
30
0
10
4.5885908030205602
20
4.1153100002142518
30
0
0
SPLINE
5
270
100
AcDbEntity
8
0
100
AcDbSpline
70
4
71
3
72
8
73
4
74
0
42
0.000000001
43
0.0000000001
44
0.0000000001
40
0
40
0
40
0
40
0
40
1
40
1
40
1
40
1
41
1
41
1
41
1
41
1
10
4.5885908030205602
20
4.1153100002142518
30
0
10
4.9851151957092181
20
3.945510787072315
30
0
10
5.4004193613463825
20
3.8159618014212815
30
0
10
5.8112235453451389
20
3.6846500526715298
30
0
0
SPLINE
5
271
100
AcDbEntity
8
0
100
AcDbSpline
70
4
71
3
72
8
73
4
74
0
42
0.000000001
43
0.0000000001
44
0.0000000001
40
0
40
0
40
0
40
0
40
1
40
1
40
1
40
1
41
1
41
1
41
1
41
1
10
5.8112235453451389
20
3.6846500526715298
30
0
10
5.9655203146917035
20
3.6353533249580017
30
0
10
6.189212131498147
20
3.6147642519649681
30
0
10
6.2751404866135285
20
3.458560878050827
30
0
0
SPLINE
5
272
100
AcDbEntity
8
0
100
AcDbSpline
70
4
71
3
72
8
73
4
74
0
42
0.000000001
43
0.0000000001
44
0.0000000001
40
0
40
0
40
0
40
0
40
1
40
1
40
1
40
1
41
1
41
1
41
1
41
1
10
6.2751404866135285
20
3.458560878050827
30
0
10
6.4775099209778713
20
3.0907441400826641
30
0
10
6.4107547875346338
20
2.4235777931110536
30
0
10
6.4960936746698028
20
2.005045655687514
30
0
0
SPLINE
5
273
100
AcDbEntity
8
0
100
AcDbSpline
70
4
71
3
72
8
73
4
74
0
42
0.000000001
43
0.0000000001
44
0.0000000001
40
0
40
0
40
0
40
0
40
1
40
1
40
1
40
1
41
1
41
1
41
1
41
1
10
6.4960936746698028
20
2.005045655687514
30
0
10
6.671175536265979
20
1.146462979141758
30
0
10
6.9772744126218029
20
0.30607342798525616
30
0
10
7.3424018792065615
20
-0.48912733858297086
30
0
0
SPLINE
5
274
100
AcDbEntity
8
0
100
AcDbSpline
70
4
71
3
72
8
73
4
74
0
42
0.000000001
43
0.0000000001
44
0.0000000001
40
0
40
0
40
0
40
0
40
0.69928178346363945
40
0.69928178346363945
40
0.69928178346363945
40
0.69928178346363945
41
1
41
1
41
1
41
1
10
7.3424018792065615
20
-0.48912733858297086
30
0
10
8.1381345151101065
20
-2.2224165017380071
30
0
10
9.2083588837052073
20
-3.8069812965977343
30
0
10
10.196873964947708
20
-5.4369411694518499
30
0
0
ARC
5
275
100
AcDbEntity
8
0
100
AcDbCircle
10
10.762225485084528
20
-11.410246605935594
30
0
40
6.0000000149039421
210
0
220
0
230
1
100
AcDbArc
50
92.411082480200648
51
95.406730062670789
0
SPLINE
5
276
100
AcDbEntity
8
0
100
AcDbSpline
70
4
71
3
72
8
73
4
74
0
42
0.000000001
43
0.0000000001
44
0.0000000001
40
0.36398121774113212
40
0.36398121774113212
40
0.36398121774113212
40
0.36398121774113212
40
1
40
1
40
1
40
1
41
1
41
1
41
1
41
1
10
10.509812030180557
20
-5.4155583215766212
30
0
10
9.5872930414430648
20
-3.8946249320796769
30
0
10
8.5594280022833829
20
-2.4304104584863784
30
0
10
7.7801001872498476
20
-0.83147144466940937
30
0
0
SPLINE
5
277
100
AcDbEntity
8
0
100
AcDbSpline
70
4
71
3
72
8
73
4
74
0
42
0.000000001
43
0.0000000001
44
0.0000000001
40
0
40
0
40
0
40
0
40
1
40
1
40
1
40
1
41
1
41
1
41
1
41
1
10
7.7801001872498476
20
-0.83147144466940937
30
0
10
7.0777208846182305
20
0.60962123358461406
30
0
10
6.8320692702331893
20
1.9736896256875047
30
0
10
6.5448009344031188
20
3.5211037127933675
30
0
0
SPLINE
5
278
100
AcDbEntity
8
0
100
AcDbSpline
70
4
71
3
72
8
73
4
74
0
42
0.000000001
43
0.0000000001
44
0.0000000001
40
0
40
0
40
0
40
0
40
1
40
1
40
1
40
1
41
1
41
1
41
1
41
1
10
6.5448009344031188
20
3.5211037127933675
30
0
10
7.3732093373302465
20
3.4163984051504337
30
0
10
8.1614648172895237
20
3.4073025475610463
30
0
10
8.9900692394732307
20
3.5211037127933675
30
0
0
SPLINE
5
279
100
AcDbEntity
8
0
100
AcDbSpline
70
4
71
3
72
8
73
4
74
0
42
0.000000001
43
0.0000000001
44
0.0000000001
40
0
40
0
40
0
40
0
40
1
40
1
40
1
40
1
41
1
41
1
41
1
41
1
10
8.9900692394732307
20
3.5211037127933675
30
0
10
9.8013590973960838
20
3.6325117508428661
30
0
10
10.649377887243837
20
3.16380291436692
30
0
10
11.435334724122384
20
3.5056506263647602
30
0
0
SPLINE
5
280
100
AcDbEntity
8
0
100
AcDbSpline
70
4
71
3
72
8
73
4
74
0
42
0.000000001
43
0.0000000001
44
0.0000000001
40
0
40
0
40
0
40
0
40
1
40
1
40
1
40
1
41
1
41
1
41
1
41
1
10
11.435334724122384
20
3.5056506263647602
30
0
10
12.265356407837462
20
3.8667195071910276
30
0
10
12.266725722212545
20
4.8028665805013642
30
0
10
12.266725722212545
20
5.5751302736290631
30
0
0
SPLINE
5
281
100
AcDbEntity
8
0
100
AcDbSpline
70
4
71
3
72
8
73
4
74
0
42
0.000000001
43
0.0000000001
44
0.0000000001
40
0
40
0
40
0
40
0
40
1
40
1
40
1
40
1
41
1
41
1
41
1
41
1
10
12.266725722212545
20
5.5751302736290631
30
0
10
12.266725722212545
20
7.3633547225456457
30
0
10
11.936224563728537
20
9.1758362019110749
30
0
10
10.961197987512863
20
10.710191739981628
30
0
0
SPLINE
5
282
100
AcDbEntity
8
0
100
AcDbSpline
70
4
71
3
72
8
73
4
74
0
42
0.000000001
43
0.0000000001
44
0.0000000001
40
0
40
0
40
0
40
0
40
1
40
1
40
1
40
1
41
1
41
1
41
1
41
1
10
10.961197987512863
20
10.710191739981628
30
0
10
10.697353247738564
20
11.12534924372898
30
0
10
10.409398139405234
20
11.531116861002078
30
0
10
10.065251784326662
20
11.88391979310583
30
0
0
SPLINE
5
283
100
AcDbEntity
8
0
100
AcDbSpline
70
4
71
3
72
8
73
4
74
0
42
0.000000001
43
0.0000000001
44
0.0000000001
40
0
40
0
40
0
40
0
40
1
40
1
40
1
40
1
41
1
41
1
41
1
41
1
10
10.065251784326662
20
11.88391979310583
30
0
10
9.9285614928101005
20
12.024033723112726
30
0
10
9.6548861757868707
20
12.21016740423263
30
0
10
9.6376731466805019
20
12.421878425362323
30
0
0
SPLINE
5
284
100
AcDbEntity
8
0
100
AcDbSpline
70
4
71
3
72
8
73
4
74
0
42
0.000000001
43
0.0000000001
44
0.0000000001
40
0
40
0
40
0
40
0
40
1
40
1
40
1
40
1
41
1
41
1
41
1
41
1
10
9.6376731466805019
20
12.421878425362323
30
0
10
9.6206490857783145
20
12.630880432161904
30
0
10
9.8481118054055372
20
12.886532906711214
30
0
10
9.9474399804921418
20
13.057648198782656
30
0
0
SPLINE
5
285
100
AcDbEntity
8
0
100
AcDbSpline
70
4
71
3
72
8
73
4
74
0
42
0.000000001
43
0.0000000001
44
0.0000000001
40
0
40
0
40
0
40
0
40
1
40
1
40
1
40
1
41
1
41
1
41
1
41
1
10
9.9474399804921418
20
13.057648198782656
30
0
10
10.213484648613637
20
13.516111151023612
30
0
10
10.691729328348414
20
14.123539924447986
30
0
10
10.718528968290855
20
14.671524448104748
30
0
0
SPLINE
5
286
100
AcDbEntity
8
0
100
AcDbSpline
70
4
71
3
72
8
73
4
74
0
42
0.000000001
43
0.0000000001
44
0.0000000001
40
0
40
0
40
0
40
0
40
1
40
1
40
1
40
1
41
1
41
1
41
1
41
1
10
10.718528968290855
20
14.671524448104748
30
0
10
10.748557990230147
20
15.284738962571735
30
0
10
9.7705008716951536
20
15.667760589924207
30
0
10
9.2835016053069008
20
15.551820664224213
30
0
0
SPLINE
5
287
100
AcDbEntity
8
0
100
AcDbSpline
70
4
71
3
72
8
73
4
74
0
42
0.000000001
43
0.0000000001
44
0.0000000001
40
0
40
0
40
0
40
0
40
1
40
1
40
1
40
1
41
1
41
1
41
1
41
1
10
9.2835016053069008
20
15.551820664224213
30
0
10
8.543119950687867
20
17.116838585015426
30
0
10
6.3983773701606701
20
17.774246033092606
30
0
10
5.0294663152729786
20
16.521442608779214
30
0
0
SPLINE
5
288
100
AcDbEntity
8
0
100
AcDbSpline
70
4
71
3
72
8
73
4
74
0
42
0.000000001
43
0.0000000001
44
0.0000000001
40
0
40
0
40
0
40
0
40
1
40
1
40
1
40
1
41
1
41
1
41
1
41
1
10
5.0294663152729786
20
16.521442608779214
30
0
10
4.7856747685097041
20
16.298341317610841
30
0
10
4.5883397855553039
20
16.009750733180425
30
0
10
4.4760545965878817
20
15.698541606601413
30
0
0
SPLINE
5
289
100
AcDbEntity
8
0
100
AcDbSpline
70
4
71
3
72
8
73
4
74
0
42
0.000000001
43
0.0000000001
44
0.0000000001
40
0
40
0
40
0
40
0
40
1
40
1
40
1
40
1
41
1
41
1
41
1
41
1
10
4.4760545965878817
20
15.698541606601413
30
0
10
4.3982941805667242
20
15.482962025575272
30
0
10
4.3792704412053514
20
15.153912326226751
30
0
10
4.1837461685059534
20
15.006883076583584
30
0
0
SPLINE
5
290
100
AcDbEntity
8
0
100
AcDbSpline
70
4
71
3
72
8
73
4
74
0
42
0.000000001
43
0.0000000001
44
0.0000000001
40
0
40
0
40
0
40
0
40
1
40
1
40
1
40
1
41
1
41
1
41
1
41
1
10
4.1837461685059534
20
15.006883076583584
30
0
10
3.9807886763718781
20
14.854269040891054
30
0
10
3.6097933239841051
20
14.851823735920513
30
0
10
3.3659510096435885
20
14.818245214205641
30
0
0
SPLINE
5
291
100
AcDbEntity
8
0
100
AcDbSpline
70
4
71
3
72
8
73
4
74
0
42
0.000000001
43
0.0000000001
44
0.0000000001
40
0
40
0
40
0
40
0
40
1
40
1
40
1
40
1
41
1
41
1
41
1
41
1
10
3.3659510096435885
20
14.818245214205641
30
0
10
2.9285417947484915
20
14.758003842964786
30
0
10
2.5138736340373447
20
14.661249302002318
30
0
10
2.094419218960557
20
14.524811790714109
30
0
0
SPLINE
5
292
100
AcDbEntity
8
0
100
AcDbSpline
70
4
71
3
72
8
73
4
74
0
42
0.000000001
43
0.0000000001
44
0.0000000001
40
0
40
0
40
0
40
0
40
1
40
1
40
1
40
1
41
1
41
1
41
1
41
1
10
2.094419218960557
20
14.524811790714109
30
0
10
0.68061411347469791
20
17.496671373922315
30
0
10
-4.3144310799466412
20
16.73029231284707
30
0
10
-4.4569906674766981
20
13.351083737589903
30
0
0
SPLINE
5
293
100
AcDbEntity
8
0
100
AcDbSpline
70
4
71
3
72
8
73
4
74
0
42
0.000000001
43
0.0000000001
44
0.0000000001
40
0
40
0
40
0
40
0
40
1
40
1
40
1
40
1
41
1
41
1
41
1
41
1
10
-4.4569906674766981
20
13.351083737589903
30
0
10
-4.5044773900404609
20
12.225331397513045
30
0
10
-3.9606995242424805
20
10.863073363112541
30
0
10
-2.9917375581916361
20
10.255864229970268
30
0
0
SPLINE
5
294
100
AcDbEntity
8
0
100
AcDbSpline
70
4
71
3
72
8
73
4
74
0
42
0.000000001
43
0.0000000001
44
0.0000000001
40
0
40
0
40
0
40
0
40
1
40
1
40
1
40
1
41
1
41
1
41
1
41
1
10
-2.9917375581916361
20
10.255864229970268
30
0
10
-2.6820694391135271
20
10.061807986379483
30
0
10
-2.3183592340601389
20
9.9549006350736295
30
0
10
-1.964724982879027
20
9.873277652550561
30
0
0
SPLINE
5
295
100
AcDbEntity
8
0
100
AcDbSpline
70
4
71
3
72
8
73
4
74
0
42
0.000000001
43
0.0000000001
44
0.0000000001
40
0
40
0
40
0
40
0
40
1
40
1
40
1
40
1
41
1
41
1
41
1
41
1
10
-1.964724982879027
20
9.873277652550561
30
0
10
-1.8338052726424303
20
9.843103378931934
30
0
10
-1.6085474170990843
20
9.8445699978300674
30
0
10
-1.5342603494876417
20
9.7108630065817749
30
0
0
SPLINE
5
296
100
AcDbEntity
8
0
100
AcDbSpline
70
4
71
3
72
8
73
4
74
0
42
0.000000001
43
0.0000000001
44
0.0000000001
40
0
40
0
40
0
40
0
40
1
40
1
40
1
40
1
41
1
41
1
41
1
41
1
10
-1.5342603494876417
20
9.7108630065817749
30
0
10
-1.4127305257252987
20
9.4923537132855653
30
0
10
-1.5730912001314568
20
9.0017844990697888
30
0
10
-1.5734832386446118
20
8.7539809034938312
30
0
0
SPLINE
5
297
100
AcDbEntity
8
0
100
AcDbSpline
70
4
71
3
72
8
73
4
74
0
42
0.000000001
43
0.0000000001
44
0.0000000001
40
0
40
0
40
0
40
0
40
1
40
1
40
1
40
1
41
1
41
1
41
1
41
1
10
-1.5734832386446118
20
8.7539809034938312
30
0
10
-1.5745923691863251
20
8.0253893135842667
30
0
10
-1.495723527728694
20
7.3113221865029061
30
0
10
-1.322597628066855
20
6.6021456693626295
30
0
0
SPLINE
5
298
100
AcDbEntity
8
0
100
AcDbSpline
70
4
71
3
72
8
73
4
74
0
42
0.000000001
43
0.0000000001
44
0.0000000001
40
0
40
0
40
0
40
0
40
1
40
1
40
1
40
1
41
1
41
1
41
1
41
1
10
-1.322597628066855
20
6.6021456693626295
30
0
10
-0.82845776091831302
20
4.5775614829069733
30
0
10
0.49418569836468862
20
2.9422165418055868
30
0
10
1.1489323216479685
20
0.9780302599539481
30
0
0
SPLINE
5
299
100
AcDbEntity
8
0
100
AcDbSpline
70
4
71
3
72
8
73
4
74
0
42
0.000000001
43
0.0000000001
44
0.0000000001
40
0
40
0
40
0
40
0
40
1
40
1
40
1
40
1
41
1
41
1
41
1
41
1
10
1.1489323216479685
20
0.9780302599539481
30
0
10
1.3722320999412574
20
0.30812528423216579
30
0
10
1.7369703484338173
20
-0.73233646841842637
30
0
10
1.3943879167764317
20
-1.4183319457053134
30
0
0
SPLINE
5
300
100
AcDbEntity
8
0
100
AcDbSpline
70
4
71
3
72
8
73
4
74
0
42
0.000000001
43
0.0000000001
44
0.0000000001
40
0
40
0
40
0
40
0
40
1
40
1
40
1
40
1
41
1
41
1
41
1
41
1
10
1.3943879167764317
20
-1.4183319457053134
30
0
10
1.2058089306859854
20
-1.7959299035556464
30
0
10
0.74350668041602175
20
-2.0325350177180646
30
0
10
0.38273182847462062
20
-2.2128981175579998
30
0
0
SPLINE
5
301
100
AcDbEntity
8
0
100
AcDbSpline
70
4
71
3
72
8
73
4
74
0
42
0.000000001
43
0.0000000001
44
0.0000000001
40
0
40
0
40
0
40
0
40
1
40
1
40
1
40
1
41
1
41
1
41
1
41
1
10
0.38273182847462062
20
-2.2128981175579998
30
0
10
-1.0565028974733526
20
-2.9324918595064675
30
0
10
-2.390300416539807
20
-2.2503589487214937
30
0
10
-3.2908417905717444
20
-1.0270902014708971
30
0
0
SPLINE
5
302
100
AcDbEntity
8
0
100
AcDbSpline
70
4
71
3
72
8
73
4
74
0
42
0.000000001
43
0.0000000001
44
0.0000000001
40
0
40
0
40
0
40
0
40
1
40
1
40
1
40
1
41
1
41
1
41
1
41
1
10
-3.2908417905717444
20
-1.0270902014708971
30
0
10
-3.6295115932552138
20
-0.56698928975861485
30
0
10
-3.8452815526960151
20
0.096070524298224047
30
0
10
-4.2678236236165192
20
0.4779738547408674
30
0
0
SPLINE
5
303
100
AcDbEntity
8
0
100
AcDbSpline
70
4
71
3
72
8
73
4
74
0
42
0.000000001
43
0.0000000001
44
0.0000000001
40
0
40
0
40
0
40
0
40
1
40
1
40
1
40
1
41
1
41
1
41
1
41
1
10
-4.2678236236165192
20
0.4779738547408674
30
0
10
-4.6017501833539551
20
0.77976876871485912
30
0
10
-5.5623499538170984
20
0.78167537328243331
30
0
10
-5.8972541419690838
20
0.45337414314562841
30
0
0
SPLINE
5
304
100
AcDbEntity
8
0
100
AcDbSpline
70
4
71
3
72
8
73
4
74
0
42
0.000000001
43
0.0000000001
44
0.0000000001
40
0
40
0
40
0
40
0
40
1
40
1
40
1
40
1
41
1
41
1
41
1
41
1
10
-5.8972541419690838
20
0.45337414314562841
30
0
10
-6.0666130168889607
20
0.28738813913883776
30
0
10
-6.0480292631970292
20
-0.12097073988937446
30
0
10
-6.0791321604160604
20
-0.34241327098185392
30
0
0
SPLINE
5
305
100
AcDbEntity
8
0
100
AcDbSpline
70
4
71
3
72
8
73
4
74
0
42
0.000000001
43
0.0000000001
44
0.0000000001
40
0
40
0
40
0
40
0
40
1
40
1
40
1
40
1
41
1
41
1
41
1
41
1
10
-6.0791321604160604
20
-0.34241327098185392
30
0
10
-6.1593375288551417
20
-0.91299148182751422
30
0
10
-6.2859522190520494
20
-1.4579927052160047
30
0
10
-6.4640170283638776
20
-2.0051952671621764
30
0
0
LINE
5
306
100
AcDbEntity
8
0
100
AcDbLine
10
-6.4640170283638776
20
-2.005195267162176
30
0
11
-6.5618281695277219
21
-2.0051952671621764
31
0
0
SPLINE
5
307
100
AcDbEntity
8
0
100
AcDbSpline
70
4
71
3
72
8
73
4
74
0
42
0.000000001
43
0.0000000001
44
0.0000000001
40
0
40
0
40
0
40
0
40
1
40
1
40
1
40
1
41
1
41
1
41
1
41
1
10
-6.5618281695277219
20
-2.0051952671621764
30
0
10
-6.7947642685764649
20
-1.151796524337132
30
0
10
-7.4260823600672943
20
-1.0877320724877793
30
0
10
-8.1685144607227578
20
-1.4725178731494459
30
0
0
SPLINE
5
308
100
AcDbEntity
8
0
100
AcDbSpline
70
4
71
3
72
8
73
4
74
0
42
0.000000001
43
0.0000000001
44
0.0000000001
40
0
40
0
40
0
40
0
40
1
40
1
40
1
40
1
41
1
41
1
41
1
41
1
10
-8.1685144607227578
20
-1.4725178731494459
30
0
10
-8.4571554601778018
20
-1.6221186416010247
30
0
10
-8.3609098289219315
20
-2.1257471099573477
30
0
10
-8.3996428462137658
20
-2.39643842160707
30
0
0
SPLINE
5
309
100
AcDbEntity
8
0
100
AcDbSpline
70
4
71
3
72
8
73
4
74
0
42
0.000000001
43
0.0000000001
44
0.0000000001
40
0
40
0
40
0
40
0
40
1
40
1
40
1
40
1
41
1
41
1
41
1
41
1
10
-8.3996428462137658
20
-2.39643842160707
30
0
10
-8.4967684488085187
20
-3.0745592835793589
30
0
10
-8.6820214534843014
20
-3.6965382561731808
30
0
10
-9.3983378662796291
20
-3.9438525087129328
30
0
0
SPLINE
5
310
100
AcDbEntity
8
0
100
AcDbSpline
70
4
71
3
72
8
73
4
74
0
42
0.000000001
43
0.0000000001
44
0.0000000001
40
0
40
0
40
0
40
0
40
1
40
1
40
1
40
1
41
1
41
1
41
1
41
1
10
-9.3983378662796291
20
-3.9438525087129328
30
0
10
-10.283231632975014
20
-4.2494140948762649
30
0
10
-11.072368406345493
20
-4.0093370425146135
30
0
10
-11.892510860550111
20
-3.6392710188324839
30
0
0
SPLINE
5
311
100
AcDbEntity
8
0
100
AcDbSpline
70
4
71
3
72
8
73
4
74
0
42
0.000000001
43
0.0000000001
44
0.0000000001
40
0
40
0
40
0
40
0
40
1
40
1
40
1
40
1
41
1
41
1
41
1
41
1
10
-11.892510860550111
20
-3.6392710188324839
30
0
10
-12.4585414951537
20
-3.3838861317215585
30
0
10
-12.949551223867847
20
-2.900408160899306
30
0
10
-13.553189880353663
20
-3.3568425253662548
30
0
0
SPLINE
5
312
100
AcDbEntity
8
0
100
AcDbSpline
70
4
71
3
72
8
73
4
74
0
42
0.000000001
43
0.0000000001
44
0.0000000001
40
0
40
0
40
0
40
0
40
1
40
1
40
1
40
1
41
1
41
1
41
1
41
1
10
-13.553189880353663
20
-3.3568425253662548
30
0
10
-14.502687063715838
20
-4.0748709336830569
30
0
10
-12.980801664358239
20
-4.9377561624001665
30
0
10
-13.555047480107094
20
-5.8178558304341221
30
0
0
SPLINE
5
313
100
AcDbEntity
8
0
100
AcDbSpline
70
4
71
3
72
8
73
4
74
0
42
0.000000001
43
0.0000000001
44
0.0000000001
40
0
40
0
40
0
40
0
40
1
40
1
40
1
40
1
41
1
41
1
41
1
41
1
10
-13.555047480107094
20
-5.8178558304341221
30
0
10
-13.775219411558016
20
-6.1553022755270792
30
0
10
-14.171254813763088
20
-6.1747180534016088
30
0
10
-14.533398980079573
20
-6.2186348281378478
30
0
0
SPLINE
5
314
100
AcDbEntity
8
0
100
AcDbSpline
70
4
71
3
72
8
73
4
74
0
42
0.000000001
43
0.0000000001
44
0.0000000001
40
0
40
0
40
0
40
0
40
1
40
1
40
1
40
1
41
1
41
1
41
1
41
1
10
-14.533398980079573
20
-6.2186348281378478
30
0
10
-15.373886188311744
20
-6.3205535598743223
30
0
10
-16.499931852168224
20
-6.235216082949635
30
0
10
-16.826668453778609
20
-7.1891614227151113
30
0
0
SPLINE
5
315
100
AcDbEntity
8
0
100
AcDbSpline
70
4
71
3
72
8
73
4
74
0
42
0.000000001
43
0.0000000001
44
0.0000000001
40
0
40
0
40
0
40
0
40
0.29162629271904106
40
0.29162629271904106
40
0.29162629271904106
40
0.29162629271904106
41
1
41
1
41
1
41
1
10
-16.826668453778609
20
-7.1891614227151113
30
0
10
-16.903312815409098
20
-7.4129052308884491
30
0
10
-16.881284389715269
20
-7.6294202208202115
30
0
10
-16.813040030598149
20
-7.8437400668943003
30
0
0
ARC
5
316
100
AcDbEntity
8
0
100
AcDbCircle
10
-16.225839551608988
20
-7.0342985325788838
30
0
40
0.99999999999999845
210
0
220
0
230
1
100
AcDbArc
50
234.04140364451695
51
257.35039776778092
0
SPLINE
5
317
100
AcDbEntity
8
0
100
AcDbSpline
70
4
71
3
72
8
73
4
74
0
42
0.000000001
43
0.0000000001
44
0.0000000001
40
0.47537303049049778
40
0.47537303049049778
40
0.47537303049049778
40
0.47537303049049778
40
1
40
1
40
1
40
1
41
1
41
1
41
1
41
1
10
-16.444827584026619
20
-8.0100260773667991
30
0
10
-16.62134355015947
20
-7.6205355906276235
30
0
10
-16.705751495592217
20
-7.2382295585419936
30
0
10
-16.333852069164585
20
-6.8497040174791346
30
0
0
SPLINE
5
318
100
AcDbEntity
8
0
100
AcDbSpline
70
4
71
3
72
8
73
4
74
0
42
0.000000001
43
0.0000000001
44
0.0000000001
40
0
40
0
40
0
40
0
40
1
40
1
40
1
40
1
41
1
41
1
41
1
41
1
10
-16.333852069164585
20
-6.8497040174791346
30
0
10
-16.055776190341714
20
-6.5591583524959285
30
0
10
-15.499086789950859
20
-6.6124643086011803
30
0
10
-15.120265827062633
20
-6.5597450000551794
30
0
0
SPLINE
5
319
100
AcDbEntity
8
0
100
AcDbSpline
70
4
71
3
72
8
73
4
74
0
42
0.000000001
43
0.0000000001
44
0.0000000001
40
0
40
0
40
0
40
0
40
0.32398029168401327
40
0.32398029168401327
40
0.32398029168401327
40
0.32398029168401327
41
1
41
1
41
1
41
1
10
-15.120265827062633
20
-6.5597450000551794
30
0
10
-14.790861339099656
20
-6.5139390846799659
30
0
10
-14.43790035411129
20
-6.4790156177911475
30
0
10
-14.091546054063473
20
-6.4186912643798628
30
0
0
SPLINE
5
320
100
AcDbEntity
8
0
100
AcDbSpline
70
4
71
3
72
8
73
4
74
0
42
0.000000001
43
0.0000000001
44
0.0000000001
40
0
40
0
40
0
40
0
40
1
40
1
40
1
40
1
41
1
41
1
41
1
41
1
10
4.6407742315845502
20
15.099036277029469
30
0
10
4.5260902745923914
20
15.256154348715533
30
0
10
4.7036174411591114
20
15.6003453017005
30
0
10
4.7736978509117716
20
15.747447706012263
30
0
0
SPLINE
5
321
100
AcDbEntity
8
0
100
AcDbSpline
70
4
71
3
72
8
73
4
74
0
42
0.000000001
43
0.0000000001
44
0.0000000001
40
0
40
0
40
0
40
0
40
1
40
1
40
1
40
1
41
1
41
1
41
1
41
1
10
4.7736978509117716
20
15.747447706012263
30
0
10
5.0745154890238346
20
16.379113943215092
30
0
10
5.6624562112866332
20
16.759472299939862
30
0
10
6.3491835878121083
20
16.857590426297346
30
0
0
SPLINE
5
322
100
AcDbEntity
8
0
100
AcDbSpline
70
4
71
3
72
8
73
4
74
0
42
0.000000001
43
0.0000000001
44
0.0000000001
40
0
40
0
40
0
40
0
40
1
40
1
40
1
40
1
41
1
41
1
41
1
41
1
10
6.3491835878121083
20
16.857590426297346
30
0
10
7.0047594148570251
20
16.951254843547765
30
0
10
7.841235631934369
20
16.882183439392811
30
0
10
8.3535679193669274
20
16.423064915555443
30
0
0
SPLINE
5
323
100
AcDbEntity
8
0
100
AcDbSpline
70
4
71
3
72
8
73
4
74
0
42
0.000000001
43
0.0000000001
44
0.0000000001
40
0
40
0
40
0
40
0
40
1
40
1
40
1
40
1
41
1
41
1
41
1
41
1
10
8.3535679193669274
20
16.423064915555443
30
0
10
8.5666986698963292
20
16.232070062638204
30
0
10
9.0555551834853887
20
15.718182489323647
30
0
10
9.0335967961172692
20
15.405109945872981
30
0
0
SPLINE
5
324
100
AcDbEntity
8
0
100
AcDbSpline
70
4
71
3
72
8
73
4
74
0
42
0.000000001
43
0.0000000001
44
0.0000000001
40
0
40
0
40
0
40
0
40
1
40
1
40
1
40
1
41
1
41
1
41
1
41
1
10
9.0335967961172692
20
15.405109945872981
30
0
10
9.0012225941514412
20
14.942881026547925
30
0
10
8.047127772075191
20
14.223776980188285
30
0
10
7.6207224295475351
20
14.149724712621591
30
0
0
SPLINE
5
325
100
AcDbEntity
8
0
100
AcDbSpline
70
4
71
3
72
8
73
4
74
0
42
0.000000001
43
0.0000000001
44
0.0000000001
40
0
40
0
40
0
40
0
40
1
40
1
40
1
40
1
41
1
41
1
41
1
41
1
10
7.6207224295475351
20
14.149724712621591
30
0
10
7.2881680046061419
20
14.091972362876131
30
0
10
7.0735692249681286
20
14.298245259846276
30
0
10
6.7893328416678544
20
14.42504221974759
30
0
0
SPLINE
5
326
100
AcDbEntity
8
0
100
AcDbSpline
70
4
71
3
72
8
73
4
74
0
42
0.000000001
43
0.0000000001
44
0.0000000001
40
0
40
0
40
0
40
0
40
1
40
1
40
1
40
1
41
1
41
1
41
1
41
1
10
6.7893328416678544
20
14.42504221974759
30
0
10
6.3368118112800609
20
14.626918785549529
30
0
10
5.8511325019001292
20
14.772769099232274
30
0
10
5.3710771119103491
20
14.89281220859716
30
0
0
SPLINE
5
327
100
AcDbEntity
8
0
100
AcDbSpline
70
4
71
3
72
8
73
4
74
0
42
0.000000001
43
0.0000000001
44
0.0000000001
40
0
40
0
40
0
40
0
40
1
40
1
40
1
40
1
41
1
41
1
41
1
41
1
10
5.3710771119103491
20
14.89281220859716
30
0
10
5.194185950269647
20
14.937042050059727
30
0
10
4.7533047971753151
20
14.944857083981589
30
0
10
4.6407742315845502
20
15.099036277029469
30
0
0
SPLINE
5
328
100
AcDbEntity
8
0
100
AcDbSpline
70
4
71
3
72
8
73
4
74
0
42
0.000000001
43
0.0000000001
44
0.0000000001
40
0
40
0
40
0
40
0
40
1
40
1
40
1
40
1
41
1
41
1
41
1
41
1
10
3.7102031305080807
20
8.8517902818945764
30
0
10
3.7016445631111816
20
9.0473625017502588
30
0
10
3.6440346446240968
20
9.4532281286516451
30
0
10
3.8312457265499367
20
9.5838051577418515
30
0
0
SPLINE
5
329
100
AcDbEntity
8
0
100
AcDbSpline
70
4
71
3
72
8
73
4
74
0
42
0.000000001
43
0.0000000001
44
0.0000000001
40
0
40
0
40
0
40
0
40
1
40
1
40
1
40
1
41
1
41
1
41
1
41
1
10
3.8312457265499367
20
9.5838051577418515
30
0
10
4.0387990946349923
20
9.728614030985872
30
0
10
4.5616952687655505
20
9.5501095885572234
30
0
10
4.7842137904534869
20
9.4875597027622902
30
0
0
SPLINE
5
330
100
AcDbEntity
8
0
100
AcDbSpline
70
4
71
3
72
8
73
4
74
0
42
0.000000001
43
0.0000000001
44
0.0000000001
40
0
40
0
40
0
40
0
40
1
40
1
40
1
40
1
41
1
41
1
41
1
41
1
10
4.7842137904534869
20
9.4875597027622902
30
0
10
4.6816096964242266
20
8.7255165100809613
30
0
10
4.4828095047821703
20
8.241157862814589
30
0
10
4.7353091012531152
20
7.4824406515479236
30
0
0
SPLINE
5
331
100
AcDbEntity
8
0
100
AcDbSpline
70
4
71
3
72
8
73
4
74
0
42
0.000000001
43
0.0000000001
44
0.0000000001
40
0
40
0
40
0
40
0
40
1
40
1
40
1
40
1
41
1
41
1
41
1
41
1
10
4.7353091012531152
20
7.4824406515479236
30
0
10
3.9223058375983078
20
7.5196088640370267
30
0
10
3.7414054475658798
20
8.1396798218527913
30
0
10
3.7102031305080807
20
8.8517902818945764
30
0
0
SPLINE
5
332
100
AcDbEntity
8
0
100
AcDbSpline
70
4
71
3
72
8
73
4
74
0
42
0.000000001
43
0.0000000001
44
0.0000000001
40
0
40
0
40
0
40
0
40
1
40
1
40
1
40
1
41
1
41
1
41
1
41
1
10
5.6156061987541284
20
8.8028848875889647
30
0
10
5.7944025547519251
20
8.6712805201648244
30
0
10
6.4405412532715411
20
7.8552460090854614
30
0
10
5.8545085457867962
20
7.7720090406692037
30
0
0
SPLINE
5
333
100
AcDbEntity
8
0
100
AcDbSpline
70
4
71
3
72
8
73
4
74
0
42
0.000000001
43
0.0000000001
44
0.0000000001
40
0
40
0
40
0
40
0
40
1
40
1
40
1
40
1
41
1
41
1
41
1
41
1
10
5.8545085457867962
20
7.7720090406692037
30
0
10
5.4357789788961997
20
7.7125891170323531
30
0
10
5.5235645812123906
20
8.5978247716307372
30
0
10
5.6156061987541284
20
8.8028848875889647
30
0
0
SPLINE
5
334
100
AcDbEntity
8
0
100
AcDbSpline
70
4
71
3
72
8
73
4
74
0
42
0.000000001
43
0.0000000001
44
0.0000000001
40
0
40
0
40
0
40
0
40
1
40
1
40
1
40
1
41
1
41
1
41
1
41
1
10
4.7353091012531152
20
9.7594729617920422
30
0
10
4.173189332860348
20
9.9270228892200141
30
0
10
3.5922912017295472
20
9.8221208572152658
30
0
10
3.0236224158724201
20
9.9277075464075573
30
0
0
LINE
5
335
100
AcDbEntity
8
0
100
AcDbLine
10
3.0236224158724196
20
9.9277075464075573
30
0
11
3.5126749487180597
21
9.6342751805738853
31
0
0
SPLINE
5
336
100
AcDbEntity
8
0
100
AcDbSpline
70
4
71
3
72
8
73
4
74
0
42
0.000000001
43
0.0000000001
44
0.0000000001
40
0
40
0
40
0
40
0
40
1
40
1
40
1
40
1
41
1
41
1
41
1
41
1
10
3.5126749487180597
20
9.6342751805738853
30
0
10
3.3913912066842977
20
8.9808999869814095
30
0
10
3.3741274100006868
20
7.8397421550796098
30
0
10
4.0019235008202774
20
7.4320672281336986
30
0
0
SPLINE
5
337
100
AcDbEntity
8
0
100
AcDbSpline
70
4
71
3
72
8
73
4
74
0
42
0.000000001
43
0.0000000001
44
0.0000000001
40
0
40
0
40
0
40
0
40
1
40
1
40
1
40
1
41
1
41
1
41
1
41
1
10
4.0019235008202774
20
7.4320672281336986
30
0
10
4.4245156342127849
20
7.157610654505115
30
0
10
5.0359786672648843
20
7.1762924178253362
30
0
10
5.5177939999324259
20
7.0704610571149429
30
0
0
SPLINE
5
338
100
AcDbEntity
8
0
100
AcDbSpline
70
4
71
3
72
8
73
4
74
0
42
0.000000001
43
0.0000000001
44
0.0000000001
40
0
40
0
40
0
40
0
40
1
40
1
40
1
40
1
41
1
41
1
41
1
41
1
10
5.5177939999324259
20
7.0704610571149429
30
0
10
5.8086823460620263
20
7.0065418569449234
30
0
10
6.8154978868947547
20
6.6465003144525898
30
0
10
7.0411950230023006
20
6.9250655363116671
30
0
0
SPLINE
5
339
100
AcDbEntity
8
0
100
AcDbSpline
70
4
71
3
72
8
73
4
74
0
42
0.000000001
43
0.0000000001
44
0.0000000001
40
0
40
0
40
0
40
0
40
1
40
1
40
1
40
1
41
1
41
1
41
1
41
1
10
7.0411950230023006
20
6.9250655363116671
30
0
10
7.2205314896135437
20
7.146460120247859
30
0
10
6.6093603701305899
20
7.8721664195174412
30
0
10
6.4864619370984027
20
8.0693039730047857
30
0
0
SPLINE
5
340
100
AcDbEntity
8
0
100
AcDbSpline
70
4
71
3
72
8
73
4
74
0
42
0.000000001
43
0.0000000001
44
0.0000000001
40
0
40
0
40
0
40
0
40
1
40
1
40
1
40
1
41
1
41
1
41
1
41
1
10
6.4864619370984027
20
8.0693039730047857
30
0
10
6.0704244620121717
20
8.7367643488612661
30
0
10
5.5264978190086573
20
9.5236512195506968
30
0
10
4.7353091012531152
20
9.7594729617920422
30
0
0
SPLINE
5
341
100
AcDbEntity
8
0
100
AcDbSpline
70
4
71
3
72
8
73
4
74
0
42
0.000000001
43
0.0000000001
44
0.0000000001
40
0
40
0
40
0
40
0
40
1
40
1
40
1
40
1
41
1
41
1
41
1
41
1
10
0.72629435641489382
20
5.7485523174914865
30
0
10
0.52901014103773569
20
5.733876257036794
30
0
10
0.42533005641301802
20
5.9612416721409662
30
0
10
0.36859940415957304
20
6.1131417887785151
30
0
0
SPLINE
5
342
100
AcDbEntity
8
0
100
AcDbSpline
70
4
71
3
72
8
73
4
74
0
42
0.000000001
43
0.0000000001
44
0.0000000001
40
0
40
0
40
0
40
0
40
1
40
1
40
1
40
1
41
1
41
1
41
1
41
1
10
0.36859940415957304
20
6.1131417887785151
30
0
10
0.25469952419372444
20
6.417821288287251
30
0
10
-0.033549613024472791
20
7.6079818190177111
30
0
10
0.57659487322978764
20
7.5943366224231497
30
0
0
SPLINE
5
343
100
AcDbEntity
8
0
100
AcDbSpline
70
4
71
3
72
8
73
4
74
0
42
0.000000001
43
0.0000000001
44
0.0000000001
40
0
40
0
40
0
40
0
40
1
40
1
40
1
40
1
41
1
41
1
41
1
41
1
10
0.57659487322978764
20
7.5943366224231497
30
0
10
1.1372938545649869
20
7.5817674164240456
30
0
10
1.3743869015531307
20
5.7968210017658421
30
0
10
0.72629435641489382
20
5.7485523174914865
30
0
0
SPLINE
5
344
100
AcDbEntity
8
0
100
AcDbSpline
70
4
71
3
72
8
73
4
74
0
42
0.000000001
43
0.0000000001
44
0.0000000001
40
0
40
0
40
0
40
0
40
1
40
1
40
1
40
1
41
1
41
1
41
1
41
1
10
1.1268272723900363
20
7.3846305680419384
30
0
10
0.99253433868772944
20
7.642410697651405
30
0
10
0.81080192447270827
20
7.9215625670697349
30
0
10
0.48054473240156437
20
7.8473720988761038
30
0
0
SPLINE
5
345
100
AcDbEntity
8
0
100
AcDbSpline
70
4
71
3
72
8
73
4
74
0
42
0.000000001
43
0.0000000001
44
0.0000000001
40
0
40
0
40
0
40
0
40
1
40
1
40
1
40
1
41
1
41
1
41
1
41
1
10
0.48054473240156437
20
7.8473720988761038
30
0
10
-0.30668481943425752
20
7.670530294602167
30
0
10
-0.054481367163898842
20
6.4918629792753517
30
0
10
0.16040862093802399
20
5.9663748382844357
30
0
0
SPLINE
5
346
100
AcDbEntity
8
0
100
AcDbSpline
70
4
71
3
72
8
73
4
74
0
42
0.000000001
43
0.0000000001
44
0.0000000001
40
0
40
0
40
0
40
0
40
1
40
1
40
1
40
1
41
1
41
1
41
1
41
1
10
0.16040862093802399
20
5.9663748382844357
30
0
10
0.27401658733472445
20
5.6884956838233798
30
0
10
0.48289202774381756
20
5.4100270613821122
30
0
10
0.82283101985836327
20
5.4987434026144282
30
0
0
SPLINE
5
347
100
AcDbEntity
8
0
100
AcDbSpline
70
4
71
3
72
8
73
4
74
0
42
0.000000001
43
0.0000000001
44
0.0000000001
40
0
40
0
40
0
40
0
40
1
40
1
40
1
40
1
41
1
41
1
41
1
41
1
10
0.82283101985836327
20
5.4987434026144282
30
0
10
1.5761710985686994
20
5.6952943085425183
30
0
10
1.3826507349599249
20
6.8934740011616702
30
0
10
1.1268272723900363
20
7.3846305680419384
30
0
0
LINE
5
348
100
AcDbEntity
8
0
100
AcDbLine
10
1.9477023309384802
20
2.8364352435671969
30
0
11
1.8009868531268847
21
3.9612571972805499
31
0
0
SPLINE
5
349
100
AcDbEntity
8
0
100
AcDbSpline
70
4
71
3
72
8
73
4
74
0
42
0.000000001
43
0.0000000001
44
0.0000000001
40
0
40
0
40
0
40
0
40
1
40
1
40
1
40
1
41
1
41
1
41
1
41
1
10
1.8009868531268847
20
3.9612571972805499
30
0
10
2.3389440751728974
20
3.9006153262636678
30
0
10
2.2442639538249964
20
3.1912907370231003
30
0
10
2.045511709339225
20
2.8364352435671969
30
0
0
LINE
5
350
100
AcDbEntity
8
0
100
AcDbLine
10
2.0455117093392245
20
2.8364352435671969
30
0
11
1.9477023309384802
21
2.8364352435671969
31
0
0
SPLINE
5
351
100
AcDbEntity
8
0
100
AcDbSpline
70
4
71
3
72
8
73
4
74
0
42
0.000000001
43
0.0000000001
44
0.0000000001
40
0
40
0
40
0
40
0
40
1
40
1
40
1
40
1
41
1
41
1
41
1
41
1
10
2.0453664576598918
20
2.6184167035176698
30
0
10
2.6786412161902984
20
2.7228780447477385
30
0
10
2.5924703048725339
20
4.3172902164863984
30
0
10
1.8506248517763235
20
4.2119954408632543
30
0
0
SPLINE
5
352
100
AcDbEntity
8
0
100
AcDbSpline
70
4
71
3
72
8
73
4
74
0
42
0.000000001
43
0.0000000001
44
0.0000000001
40
0
40
0
40
0
40
0
40
1
40
1
40
1
40
1
41
1
41
1
41
1
41
1
10
1.8506248517763235
20
4.2119954408632543
30
0
10
1.2886052083275623
20
4.1321817583847071
30
0
10
1.4795787318113085
20
2.5251044863343752
30
0
10
2.0453664576598918
20
2.6184167035176698
30
0
0
SPLINE
5
353
100
AcDbEntity
8
0
100
AcDbSpline
70
4
71
3
72
8
73
4
74
0
42
0.000000001
43
0.0000000001
44
0.0000000001
40
0
40
0
40
0
40
0
40
1
40
1
40
1
40
1
41
1
41
1
41
1
41
1
10
7.2294835057340778
20
7.9714938894988032
30
0
10
7.0412457905795449
20
8.8835298891448637
30
0
10
6.6368961399430564
20
9.6117787979080376
30
0
10
5.7623230867762025
20
10.025518335018781
30
0
0
SPLINE
5
354
100
AcDbEntity
8
0
100
AcDbSpline
70
4
71
3
72
8
73
4
74
0
42
0.000000001
43
0.0000000001
44
0.0000000001
40
0
40
0
40
0
40
0
40
1
40
1
40
1
40
1
41
1
41
1
41
1
41
1
10
5.7623230867762025
20
10.025518335018781
30
0
10
6.2948524086886408
20
9.3291063380289465
30
0
10
6.8529601282687231
20
8.8158933741522674
30
0
10
7.1805774063232271
20
7.9714938894988032
30
0
0
LINE
5
355
100
AcDbEntity
8
0
100
AcDbLine
10
7.1805774063232262
20
7.9714938894988032
30
0
11
7.2294835057340778
21
7.9714938894988032
31
0
0
LWPOLYLINE
5
356
100
AcDbEntity
8
0
100
AcDbPolyline
90
3
70
1
43
0.0
10
10.506139988473393
20
5.0371758720040107
10
10.261612311840093
20
5.0860805612043825
10
10.506139988473393
20
4.7437435061703397
0
ARC
5
357
100
AcDbEntity
8
0
100
AcDbCircle
10
-10.762225485083663
20
-11.410246605930745
30
0
40
6.0000000148989727
210
0
220
-0
230
1
100
AcDbArc
50
71.749574513044536
51
74.26295916085239
0
SPLINE
5
358
100
AcDbEntity
8
0
100
AcDbSpline
70
4
71
3
72
8
73
4
74
0
42
0.000000001
43
0.0000000001
44
0.0000000001
40
0.29734672348206881
40
0.29734672348206881
40
0.29734672348206881
40
0.29734672348206881
40
1
40
1
40
1
40
1
41
1
41
1
41
1
41
1
10
-8.8832003259277634
20
-5.7120657883323069
30
0
10
-8.9018168452262874
20
-5.4780203778760761
30
0
10
-8.9025647440967539
20
-5.2574240763953428
30
0
10
-8.6970370221118074
20
-5.063339636184323
30
0
0
SPLINE
5
359
100
AcDbEntity
8
0
100
AcDbSpline
70
4
71
3
72
8
73
4
74
0
42
0.000000001
43
0.0000000001
44
0.0000000001
40
0
40
0
40
0
40
0
40
1
40
1
40
1
40
1
41
1
41
1
41
1
41
1
10
-8.6970370221118074
20
-5.063339636184323
30
0
10
-8.5392194860281716
20
-4.9143734624482827
30
0
10
-8.1969788541356277
20
-4.7549435269582485
30
0
10
-7.9800831941799846
20
-4.8474716671152329
30
0
0
SPLINE
5
360
100
AcDbEntity
8
0
100
AcDbSpline
70
4
71
3
72
8
73
4
74
0
42
0.000000001
43
0.0000000001
44
0.0000000001
40
0
40
0
40
0
40
0
40
1
40
1
40
1
40
1
41
1
41
1
41
1
41
1
10
-7.9800831941799846
20
-4.8474716671152329
30
0
10
-7.7121312163856723
20
-4.9617635855942366
30
0
10
-7.4734245360569629
20
-5.2804302577386864
30
0
10
-7.2465029847010465
20
-5.4647052814472996
30
0
0
SPLINE
5
361
100
AcDbEntity
8
0
100
AcDbSpline
70
4
71
3
72
8
73
4
74
0
42
0.000000001
43
0.0000000001
44
0.0000000001
40
0
40
0
40
0
40
0
40
1
40
1
40
1
40
1
41
1
41
1
41
1
41
1
10
-7.2465029847010465
20
-5.4647052814472996
30
0
10
-6.8540378828761206
20
-5.783421310958512
30
0
10
-6.4188303590913236
20
-5.9992427430817985
30
0
10
-5.9260583961073863
20
-6.1132385173602177
30
0
0
SPLINE
5
362
100
AcDbEntity
8
0
100
AcDbSpline
70
4
71
3
72
8
73
4
74
0
42
0.000000001
43
0.0000000001
44
0.0000000001
40
0
40
0
40
0
40
0
40
1
40
1
40
1
40
1
41
1
41
1
41
1
41
1
10
-5.9260583961073863
20
-6.1132385173602177
30
0
10
-6.1641791339820831
20
-5.9138516781589034
30
0
10
-6.4601548144145848
20
-5.7888985684588512
30
0
10
-6.7085450575497951
20
-5.5995848627088574
30
0
0
SPLINE
5
363
100
AcDbEntity
8
0
100
AcDbSpline
70
4
71
3
72
8
73
4
74
0
42
0.000000001
43
0.0000000001
44
0.0000000001
40
0
40
0
40
0
40
0
40
1
40
1
40
1
40
1
41
1
41
1
41
1
41
1
10
-6.7085450575497951
20
-5.5995848627088574
30
0
10
-7.360893970466198
20
-5.1023164436127111
30
0
10
-7.8165446104594576
20
-4.1771238853030512
30
0
10
-8.7136149276737065
20
-4.7122465842863237
30
0
0
SPLINE
5
364
100
AcDbEntity
8
0
100
AcDbSpline
70
4
71
3
72
8
73
4
74
0
42
0.000000001
43
0.0000000001
44
0.0000000001
40
0
40
0
40
0
40
0
40
1
40
1
40
1
40
1
41
1
41
1
41
1
41
1
10
-8.7136149276737065
20
-4.7122465842863237
30
0
10
-8.8475179381785765
20
-4.7921096241316352
30
0
10
-8.9754543481469025
20
-4.8958376559126382
30
0
10
-9.0472476348025879
20
-5.0375172721038108
30
0
0
SPLINE
5
365
100
AcDbEntity
8
0
100
AcDbSpline
70
4
71
3
72
8
73
4
74
0
42
0.000000001
43
0.0000000001
44
0.0000000001
40
0
40
0
40
0
40
0
40
0.48119738226291398
40
0.48119738226291398
40
0.48119738226291398
40
0.48119738226291398
41
1
41
1
41
1
41
1
10
-9.0472476348025879
20
-5.0375172721038108
30
0
10
-9.1310489536254735
20
-5.2028610546488006
30
0
10
-9.1425911831393396
20
-5.4162640106675823
30
0
10
-9.1348889523973611
20
-5.6351469541349264
30
0
0
CIRCLE
5
366
100
AcDbEntity
8
0
100
AcDbCircle
10
0
20
0
30
0
40
20.684999999999999
210
0
220
-0
230
1
0
ENDSEC
0
SECTION
2
OBJECTS
0
DICTIONARY
5
C
100
AcDbDictionary
3
ACAD_GROUP
350
D
3
ACAD_MLINESTYLE
350
17
0
DICTIONARY
5
D
100
AcDbDictionary
0
DICTIONARY
5
1A
330
C
100
AcDbDictionary
0
DICTIONARY
5
17
100
AcDbDictionary
0
ENDSEC
0
EOF
