0
SECTION
2
HEADER
9
$INSUNITS
70
4
9
$ACADVER
1
AC1014
9
$HANDSEED
5
FFFF
0
ENDSEC
0
SECTION
2
TABLES
0
TABLE
2
VPORT
5
8
100
AcDbSymbolTable
0
ENDTAB
0
TABLE
2
LTYPE
5
5
100
AcDbSymbolTable
0
LTYPE
5
14
100
AcDbSymbolTableRecord
100
AcDbLinetypeTableRecord
2
BYBLOCK
70
0
0
LTYPE
5
15
100
AcDbSymbolTableRecord
100
AcDbLinetypeTableRecord
2
BYLAYER
70
0
0
ENDTAB
0
TABLE
2
LAYER
5
2
100
AcDbSymbolTable
70
2
0
LAYER
5
50
100
AcDbSymbolTableRecord
100
AcDbLayerTableRecord
2
0
70
0
6
CONTINUOUS
0
ENDTAB
0
TABLE
2
STYLE
5
3
100
AcDbSymbolTable
70
1
0
STYLE
5
11
100
AcDbSymbolTableRecord
100
AcDbTextStyleTableRecord
2
STANDARD
70
0
0
ENDTAB
0
TABLE
2
VIEW
5
6
100
AcDbSymbolTable
70
0
0
ENDTAB
0
TABLE
2
UCS
5
7
100
AcDbSymbolTable
70
0
0
ENDTAB
0
TABLE
2
APPID
5
9
100
AcDbSymbolTable
70
2
0
APPID
5
12
100
AcDbSymbolTableRecord
100
AcDbRegAppTableRecord
2
ACAD
70
0
0
ENDTAB
0
TABLE
2
DIMSTYLE
5
A
100
AcDbSymbolTable
70
1
0
ENDTAB
0
TABLE
2
BLOCK_RECORD
5
1
100
AcDbSymbolTable
70
1
0
BLOCK_RECORD
5
1F
100
AcDbSymbolTableRecord
100
AcDbBlockTableRecord
2
*MODEL_SPACE
0
BLOCK_RECORD
5
1B
100
AcDbSymbolTableRecord
100
AcDbBlockTableRecord
2
*PAPER_SPACE
0
ENDTAB
0
ENDSEC
0
SECTION
2
BLOCKS
0
BLOCK
5
20
100
AcDbEntity
100
AcDbBlockBegin
2
*MODEL_SPACE
0
ENDBLK
5
21
100
AcDbEntity
100
AcDbBlockEnd
0
BLOCK
5
1C
100
AcDbEntity
100
AcDbBlockBegin
2
*PAPER_SPACE
0
ENDBLK
5
1D
100
AcDbEntity
100
AcDbBlockEnd
0
ENDSEC
0
SECTION
2
ENTITIES
0
CIRCLE
5
100
100
AcDbEntity
8
0
100
AcDbCircle
10
0
20
0
30
0
40
20.684999999999999
210
0
220
-0
230
1
0
CIRCLE
5
101
100
AcDbEntity
8
0
100
AcDbCircle
10
0
20
0
30
0
40
20.284999999999997
210
0
220
0
230
1
0
CIRCLE
5
102
100
AcDbEntity
8
0
100
AcDbCircle
10
-7.6245580763737788
20
-16.799570721358347
30
0
40
1.2361663706911485
210
0
220
0
230
1
0
LWPOLYLINE
5
103
100
AcDbEntity
8
0
100
AcDbPolyline
90
8
70
1
43
0.0
10
-7.0912547358069062
20
-8.0155486949308337
42
0.39342646008747972
10
-4.3733405668804419
20
-8.2192985209961584
42
-0.35082988103369228
10
4.3733405668804375
20
-8.2192985209961602
42
0.39342646008747967
10
7.0912547358069045
20
-8.0155486949308354
42
-0.45861202855152039
10
14.664806964496393
20
-8.2845694080185126
42
0.5650239788083784
10
18.060822820097421
20
-7.8298086861077394
42
1.5234526665911512
10
-18.060822820097421
20
-7.8298086861077376
42
0.56502397880837796
10
-14.664806964496398
20
-8.2845694080185126
42
-0.45861202855152039
0
ARC
5
104
100
AcDbEntity
8
0
100
AcDbCircle
10
-10.762225485083663
20
-11.410246605930745
30
0
40
6.0000000148992738
210
0
220
-0
230
1
100
AcDbArc
50
42.760833570167563
51
47.530622803504414
0
CIRCLE
5
105
100
AcDbEntity
8
0
100
AcDbCircle
10
0
20
0
30
0
40
20.684999999999999
210
0
220
-0
230
1
0
ARC
5
106
100
AcDbEntity
8
0
100
AcDbCircle
10
-10.762225485084349
20
-11.410246605932929
30
0
40
6.0000000149012607
210
0
220
-0
230
1
100
AcDbArc
50
42.760833570178434
51
47.530622803513673
0
ARC
5
107
100
AcDbEntity
8
0
100
AcDbCircle
10
10.762225485084196
20
-11.410246605932667
30
0
40
6.0000000149010067
210
0
220
-0
230
1
100
AcDbArc
50
89.643325266289324
51
94.652560947089015
0
ARC
5
108
100
AcDbEntity
8
0
100
AcDbCircle
10
-10.762225485084091
20
-11.410246605933054
30
0
40
6.0000000149014552
210
0
220
0
230
1
100
AcDbArc
50
129.12810648315684
51
137.04505041488036
0
CIRCLE
5
109
100
AcDbEntity
8
0
100
AcDbCircle
10
-2.2204460492503131e-15
20
-13.684999985098836
30
0
40
6.0000000000000009
210
0
220
0
230
1
0
CIRCLE
5
110
100
AcDbEntity
8
0
100
AcDbCircle
10
7.6245580763737788
20
-16.799570721358347
30
0
40
1.2361663706911474
210
0
220
0
230
1
0
CIRCLE
5
111
100
AcDbEntity
8
0
100
AcDbCircle
10
-10.762225485084318
20
-11.410246605932821
30
0
40
4
210
0
220
0
230
1
0
CIRCLE
5
112
100
AcDbEntity
8
0
100
AcDbCircle
10
10.762225485084315
20
-11.410246605932821
30
0
40
3.9999999999999991
210
0
220
0
230
1
0
ARC
5
113
100
AcDbEntity
8
0
100
AcDbCircle
10
-16.225839551608988
20
-7.0342985325788838
30
0
40
0.99999999999999778
210
0
220
0
230
1
100
AcDbArc
50
251.82704894444566
51
287.17102973448988
0
SPLINE
5
114
100
AcDbEntity
8
0
100
AcDbSpline
70
4
71
3
72
8
73
4
74
0
42
0.000000001
43
0.0000000001
44
0.0000000001
40
0.75760414188863379
40
0.75760414188863379
40
0.75760414188863379
40
0.75760414188863379
40
1
40
1
40
1
40
1
41
1
41
1
41
1
41
1
10
-15.930614553416723
20
-7.9897262904142803
30
0
10
-16.046603119899615
20
-7.3040402116968259
30
0
10
-16.144215582593908
20
-6.6167444105118705
30
0
10
-16.194904291104606
20
-5.9252361476091897
30
0
0
SPLINE
5
115
100
AcDbEntity
8
0
100
AcDbSpline
70
4
71
3
72
8
73
4
74
0
42
0.000000001
43
0.0000000001
44
0.0000000001
40
0
40
0
40
0
40
0
40
1
40
1
40
1
40
1
41
1
41
1
41
1
41
1
10
-16.194904291104606
20
-5.9252361476091897
30
0
10
-16.314901633345762
20
-4.2882289285659381
30
0
10
-16.210126954737046
20
-2.6189387450569246
30
0
10
-15.278554528256901
20
-1.2063984972533204
30
0
0
LINE
5
116
100
AcDbEntity
8
0
100
AcDbLine
10
-15.278554528256898
20
-1.2063984972533195
30
0
11
-15.171307342281033
21
-1.2064021670230662
31
0
0
SPLINE
5
117
100
AcDbEntity
8
0
100
AcDbSpline
70
4
71
3
72
8
73
4
74
0
42
0.000000001
43
0.0000000001
44
0.0000000001
40
0
40
0
40
0
40
0
40
1
40
1
40
1
40
1
41
1
41
1
41
1
41
1
10
-15.171307342281033
20
-1.2064021670230662
30
0
10
-15.054194897782363
20
-1.7005935449091991
30
0
10
-14.68333714155877
20
-2.2035244794481956
30
0
10
-14.651323905169424
20
-2.7078499264911127
30
0
0
SPLINE
5
118
100
AcDbEntity
8
0
100
AcDbSpline
70
4
71
3
72
8
73
4
74
0
42
0.000000001
43
0.0000000001
44
0.0000000001
40
0
40
0
40
0
40
0
40
1
40
1
40
1
40
1
41
1
41
1
41
1
41
1
10
-14.651323905169424
20
-2.7078499264911127
30
0
10
-14.6208125220491
20
-3.1891714218739553
30
0
10
-14.952311080291967
20
-3.7807419748858484
30
0
10
-15.039233246523192
20
-4.2629221963895247
30
0
0
SPLINE
5
119
100
AcDbEntity
8
0
100
AcDbSpline
70
4
71
3
72
8
73
4
74
0
42
0.000000001
43
0.0000000001
44
0.0000000001
40
0
40
0
40
0
40
0
40
1
40
1
40
1
40
1
41
1
41
1
41
1
41
1
10
-15.039233246523192
20
-4.2629221963895247
30
0
10
-15.20648437891365
20
-5.1905500791126924
30
0
10
-15.230990183842746
20
-6.2182360688770411
30
0
10
-15.166481595063516
20
-7.1585723642346188
30
0
0
SPLINE
5
120
100
AcDbEntity
8
0
100
AcDbSpline
70
4
71
3
72
8
73
4
74
0
42
0.000000001
43
0.0000000001
44
0.0000000001
40
0
40
0
40
0
40
0
40
0.045722287993286717
40
0.045722287993286717
40
0.045722287993286717
40
0.045722287993286717
41
1
41
1
41
1
41
1
10
-15.166481595063516
20
-7.1585723642346188
30
0
10
-15.162752414381897
20
-7.2129943830092191
30
0
10
-15.158431233135001
20
-7.2673718979329882
30
0
10
-15.15356379105434
20
-7.3217079842082011
30
0
0
SPLINE
5
121
100
AcDbEntity
8
0
100
AcDbSpline
70
4
71
3
72
8
73
4
74
0
42
0.000000001
43
0.0000000001
44
0.0000000001
40
0.73364692421048672
40
0.73364692421048672
40
0.73364692421048672
40
0.73364692421048672
40
1
40
1
40
1
40
1
41
1
41
1
41
1
41
1
10
-14.548564024206531
20
-6.7558249827908634
30
0
10
-14.612489241389696
20
-5.6451206552078217
30
0
10
-14.571270322605493
20
-4.5300476941416221
30
0
10
-14.313339028898451
20
-3.4049428736977072
30
0
0
SPLINE
5
122
100
AcDbEntity
8
0
100
AcDbSpline
70
4
71
3
72
8
73
4
74
0
42
0.000000001
43
0.0000000001
44
0.0000000001
40
0
40
0
40
0
40
0
40
0.47355135676992755
40
0.47355135676992755
40
0.47355135676992755
40
0.47355135676992755
41
1
41
1
41
1
41
1
10
-14.313339028898451
20
-3.4049428736977072
30
0
10
-13.689857146818177
20
-4.158007373179859
30
0
10
-13.104783123244189
20
-4.9206917364320013
30
0
10
-12.50161075933703
20
-5.6679004785623679
30
0
0
ARC
5
123
100
AcDbEntity
8
0
100
AcDbCircle
10
-10.762225485084091
20
-11.410246605933054
30
0
40
6.0000000149014134
210
0
220
0
230
1
100
AcDbArc
50
101.23449987068116
51
106.85182229094846
0
SPLINE
5
124
100
AcDbEntity
8
0
100
AcDbSpline
70
4
71
3
72
8
73
4
74
0
42
0.000000001
43
0.0000000001
44
0.0000000001
40
0.005163991349311634
40
0.005163991349311634
40
0.005163991349311634
40
0.005163991349311634
40
1
40
1
40
1
40
1
41
1
41
1
41
1
41
1
10
-11.931175396275011
20
-5.5252184595310609
30
0
10
-13.340644633256435
20
-3.9408218178599275
30
0
10
-14.436907963444911
20
-2.1392108151078553
30
0
10
-14.988082160902408
20
-0.080313136373506566
30
0
0
SPLINE
5
125
100
AcDbEntity
8
0
100
AcDbSpline
70
4
71
3
72
8
73
4
74
0
42
0.000000001
43
0.0000000001
44
0.0000000001
40
0
40
0
40
0
40
0
40
1
40
1
40
1
40
1
41
1
41
1
41
1
41
1
10
-14.988082160902408
20
-0.080313136373506566
30
0
10
-15.140157419224705
20
0.48787914846410541
30
0
10
-15.234052147975532
20
1.0582145788340558
30
0
10
-15.342691552849228
20
1.6356280776038412
30
0
0
SPLINE
5
126
100
AcDbEntity
8
0
100
AcDbSpline
70
4
71
3
72
8
73
4
74
0
42
0.000000001
43
0.0000000001
44
0.0000000001
40
0
40
0
40
0
40
0
40
1
40
1
40
1
40
1
41
1
41
1
41
1
41
1
10
-15.342691552849228
20
1.6356280776038412
30
0
10
-15.392453630620714
20
1.9000973739723959
30
0
10
-15.491550257988141
20
2.2392116218830571
30
0
10
-15.38580400783886
20
2.4936009781986046
30
0
0
SPLINE
5
127
100
AcDbEntity
8
0
100
AcDbSpline
70
4
71
3
72
8
73
4
74
0
42
0.000000001
43
0.0000000001
44
0.0000000001
40
0
40
0
40
0
40
0
40
1
40
1
40
1
40
1
41
1
41
1
41
1
41
1
10
-15.38580400783886
20
2.4936009781986046
30
0
10
-15.106534071358791
20
2.3466734893891328
30
0
10
-14.83214538736366
20
2.186501801562164
30
0
10
-14.52783340085019
20
2.0951814162889715
30
0
0
SPLINE
5
128
100
AcDbEntity
8
0
100
AcDbSpline
70
4
71
3
72
8
73
4
74
0
42
0.000000001
43
0.0000000001
44
0.0000000001
40
0
40
0
40
0
40
0
40
1
40
1
40
1
40
1
41
1
41
1
41
1
41
1
10
-14.52783340085019
20
2.0951814162889715
30
0
10
-14.373559950449341
20
2.0489037848924108
30
0
10
-14.109251206507222
20
2.0586635375349838
30
0
10
-14.000395743939663
20
1.9251958467156571
30
0
0
SPLINE
5
129
100
AcDbEntity
8
0
100
AcDbSpline
70
4
71
3
72
8
73
4
74
0
42
0.000000001
43
0.0000000001
44
0.0000000001
40
0
40
0
40
0
40
0
40
1
40
1
40
1
40
1
41
1
41
1
41
1
41
1
10
-14.000395743939663
20
1.9251958467156571
30
0
10
-13.871700588676518
20
1.7673829033936794
30
0
10
-13.872505185693583
20
1.4535799748716149
30
0
10
-13.82998172874837
20
1.2602684313429213
30
0
0
SPLINE
5
130
100
AcDbEntity
8
0
100
AcDbSpline
70
4
71
3
72
8
73
4
74
0
42
0.000000001
43
0.0000000001
44
0.0000000001
40
0
40
0
40
0
40
0
40
1
40
1
40
1
40
1
41
1
41
1
41
1
41
1
10
-13.82998172874837
20
1.2602684313429213
30
0
10
-13.735068638892704
20
0.82886864871556387
30
0
10
-13.594039387509358
20
0.38395860876403454
30
0
10
-13.431240144543423
20
-0.026688625943132038
30
0
0
SPLINE
5
131
100
AcDbEntity
8
0
100
AcDbSpline
70
4
71
3
72
8
73
4
74
0
42
0.000000001
43
0.0000000001
44
0.0000000001
40
0
40
0
40
0
40
0
40
1
40
1
40
1
40
1
41
1
41
1
41
1
41
1
10
-13.431240144543423
20
-0.026688625943132038
30
0
10
-12.90031712381553
20
-1.3659802695934342
30
0
10
-12.116829539778866
20
-2.6736348282534683
30
0
10
-11.263041094138302
20
-3.8339316176011806
30
0
0
SPLINE
5
132
100
AcDbEntity
8
0
100
AcDbSpline
70
4
71
3
72
8
73
4
74
0
42
0.000000001
43
0.0000000001
44
0.0000000001
40
0
40
0
40
0
40
0
40
0.92278147325291815
40
0.92278147325291815
40
0.92278147325291815
40
0.92278147325291815
41
1
41
1
41
1
41
1
10
-11.263041094138302
20
-3.8339316176011806
30
0
10
-10.839125328428276
20
-4.4100066006329097
30
0
10
-10.397949160668102
20
-4.9748038085222506
30
0
10
-9.8855373164703249
20
-5.4746406525506428
30
0
0
ARC
5
133
100
AcDbEntity
8
0
100
AcDbCircle
10
-10.762225485084091
20
-11.410246605933054
30
0
40
6.0000000149013282
210
0
220
-0
230
1
100
AcDbArc
50
78.149700237795543
51
81.598166001995125
0
SPLINE
5
134
100
AcDbEntity
8
0
100
AcDbSpline
70
4
71
3
72
8
73
4
74
0
42
0.000000001
43
0.0000000001
44
0.0000000001
40
0.47880929951753998
40
0.47880929951753998
40
0.47880929951753998
40
0.47880929951753998
40
1
40
1
40
1
40
1
41
1
41
1
41
1
41
1
10
-9.5300935791396029
20
-5.5381216800506428
30
0
10
-10.000861555441425
20
-5.0731607506025425
30
0
10
-10.416149992187043
20
-4.5414286283743568
30
0
10
-10.774804835109371
20
-4.0484278244377903
30
0
0
SPLINE
5
135
100
AcDbEntity
8
0
100
AcDbSpline
70
4
71
3
72
8
73
4
74
0
42
0.000000001
43
0.0000000001
44
0.0000000001
40
0
40
0
40
0
40
0
40
1
40
1
40
1
40
1
41
1
41
1
41
1
41
1
10
-10.774804835109371
20
-4.0484278244377903
30
0
10
-12.077472176683015
20
-2.2577911995843181
30
0
10
-13.393008483317512
20
-0.29057075915214448
30
0
10
-13.723488680455542
20
1.9573650483192617
30
0
0
SPLINE
5
136
100
AcDbEntity
8
0
100
AcDbSpline
70
4
71
3
72
8
73
4
74
0
42
0.000000001
43
0.0000000001
44
0.0000000001
40
0
40
0
40
0
40
0
40
1
40
1
40
1
40
1
41
1
41
1
41
1
41
1
10
-13.723488680455542
20
1.9573650483192617
30
0
10
-12.483934956435988
20
2.0105592782467774
30
0
10
-10.782258137465853
20
2.7913660954831432
30
0
10
-11.132471603976795
20
4.316784790939634
30
0
0
SPLINE
5
137
100
AcDbEntity
8
0
100
AcDbSpline
70
4
71
3
72
8
73
4
74
0
42
0.000000001
43
0.0000000001
44
0.0000000001
40
0
40
0
40
0
40
0
40
1
40
1
40
1
40
1
41
1
41
1
41
1
41
1
10
-11.132471603976795
20
4.316784790939634
30
0
10
-11.337205305843526
20
5.2086452628221069
30
0
10
-12.186434062573245
20
5.6266375416782166
30
0
10
-12.972763883279084
20
5.889713242985291
30
0
0
SPLINE
5
138
100
AcDbEntity
8
0
100
AcDbSpline
70
4
71
3
72
8
73
4
74
0
42
0.000000001
43
0.0000000001
44
0.0000000001
40
0
40
0
40
0
40
0
40
1
40
1
40
1
40
1
41
1
41
1
41
1
41
1
10
-12.972763883279084
20
5.889713242985291
30
0
10
-13.347589578041791
20
6.0151377159612789
30
0
10
-13.979485395920346
20
6.2309174247669574
30
0
10
-13.919535119888309
20
6.7298262916630662
30
0
0
SPLINE
5
139
100
AcDbEntity
8
0
100
AcDbSpline
70
4
71
3
72
8
73
4
74
0
42
0.000000001
43
0.0000000001
44
0.0000000001
40
0
40
0
40
0
40
0
40
1
40
1
40
1
40
1
41
1
41
1
41
1
41
1
10
-13.919535119888309
20
6.7298262916630662
30
0
10
-13.861461013639506
20
7.2129175335064772
30
0
10
-13.564067460541869
20
7.5526198620191209
30
0
10
-13.264206904731704
20
7.9093214814430439
30
0
0
SPLINE
5
140
100
AcDbEntity
8
0
100
AcDbSpline
70
4
71
3
72
8
73
4
74
0
42
0.000000001
43
0.0000000001
44
0.0000000001
40
0
40
0
40
0
40
0
40
1
40
1
40
1
40
1
41
1
41
1
41
1
41
1
10
-13.264206904731704
20
7.9093214814430439
30
0
10
-12.625983486366607
20
8.6685720711845917
30
0
10
-11.945880655646928
20
9.2946756162384716
30
0
10
-11.095953725222811
20
9.8104227628982059
30
0
0
SPLINE
5
141
100
AcDbEntity
8
0
100
AcDbSpline
70
4
71
3
72
8
73
4
74
0
42
0.000000001
43
0.0000000001
44
0.0000000001
40
0
40
0
40
0
40
0
40
1
40
1
40
1
40
1
41
1
41
1
41
1
41
1
10
-11.095953725222811
20
9.8104227628982059
30
0
10
-8.7071510536793664
20
11.26012585148886
30
0
10
-6.2640789096724898
20
12.110428015869626
30
0
10
-3.4814649895794081
20
12.452167984034377
30
0
0
SPLINE
5
142
100
AcDbEntity
8
0
100
AcDbSpline
70
4
71
3
72
8
73
4
74
0
42
0.000000001
43
0.0000000001
44
0.0000000001
40
0
40
0
40
0
40
0
40
1
40
1
40
1
40
1
41
1
41
1
41
1
41
1
10
-3.4814649895794081
20
12.452167984034377
30
0
10
-2.9338656176779865
20
12.519411009996457
30
0
10
-2.3654072745337085
20
12.393504879741155
30
0
10
-1.821292349007213
20
12.46182406568159
30
0
0
SPLINE
5
143
100
AcDbEntity
8
0
100
AcDbSpline
70
4
71
3
72
8
73
4
74
0
42
0.000000001
43
0.0000000001
44
0.0000000001
40
0
40
0
40
0
40
0
40
1
40
1
40
1
40
1
41
1
41
1
41
1
41
1
10
-1.821292349007213
20
12.46182406568159
30
0
10
-1.531406227369827
20
12.498179557124265
30
0
10
-1.3611527646049737
20
12.907646502136505
30
0
10
-1.1665008376761299
20
13.095488483217668
30
0
0
SPLINE
5
144
100
AcDbEntity
8
0
100
AcDbSpline
70
4
71
3
72
8
73
4
74
0
42
0.000000001
43
0.0000000001
44
0.0000000001
40
0
40
0
40
0
40
0
40
1
40
1
40
1
40
1
41
1
41
1
41
1
41
1
10
-1.1665008376761299
20
13.095488483217668
30
0
10
-0.72705875464787129
20
13.519540240008165
30
0
10
-0.048510988858547766
20
13.731244669509625
30
0
10
0.54027053914549983
20
13.494927323674574
30
0
0
SPLINE
5
145
100
AcDbEntity
8
0
100
AcDbSpline
70
4
71
3
72
8
73
4
74
0
42
0.000000001
43
0.0000000001
44
0.0000000001
40
0
40
0
40
0
40
0
40
1
40
1
40
1
40
1
41
1
41
1
41
1
41
1
10
0.54027053914549983
20
13.494927323674574
30
0
10
1.5100989390761299
20
13.105784022243324
30
0
10
1.7622873509858161
20
11.70289458079292
30
0
10
1.9693797973575333
20
10.805189541866875
30
0
0
SPLINE
5
146
100
AcDbEntity
8
0
100
AcDbSpline
70
4
71
3
72
8
73
4
74
0
42
0.000000001
43
0.0000000001
44
0.0000000001
40
0
40
0
40
0
40
0
40
1
40
1
40
1
40
1
41
1
41
1
41
1
41
1
10
1.9693797973575333
20
10.805189541866875
30
0
10
2.4836264669118946
20
8.5763966295603069
30
0
10
2.6597240379991005
20
6.5301917348600158
30
0
10
2.2795358921933562
20
4.2631639502790097
30
0
0
SPLINE
5
147
100
AcDbEntity
8
0
100
AcDbSpline
70
4
71
3
72
8
73
4
74
0
42
0.000000001
43
0.0000000001
44
0.0000000001
40
0
40
0
40
0
40
0
40
1
40
1
40
1
40
1
41
1
41
1
41
1
41
1
10
2.2795358921933562
20
4.2631639502790097
30
0
10
2.2083790567959283
20
3.8389504942590258
30
0
10
2.223874659553311
20
3.3363938762342427
30
0
10
2.0803793228998724
20
2.9307356934983364
30
0
0
SPLINE
5
148
100
AcDbEntity
8
0
100
AcDbSpline
70
4
71
3
72
8
73
4
74
0
42
0.000000001
43
0.0000000001
44
0.0000000001
40
0
40
0
40
0
40
0
40
1
40
1
40
1
40
1
41
1
41
1
41
1
41
1
10
2.0803793228998724
20
2.9307356934983364
30
0
10
2.0137252949822115
20
2.7422508146295943
30
0
10
1.8240605851397551
20
2.7949083407315856
30
0
10
1.6663559000253159
20
2.8196811214097872
30
0
0
SPLINE
5
149
100
AcDbEntity
8
0
100
AcDbSpline
70
4
71
3
72
8
73
4
74
0
42
0.000000001
43
0.0000000001
44
0.0000000001
40
0
40
0
40
0
40
0
40
1
40
1
40
1
40
1
41
1
41
1
41
1
41
1
10
1.6663559000253159
20
2.8196811214097872
30
0
10
1.1965097746418385
20
2.8934673468310557
30
0
10
0.86511855716407737
20
2.8392006266949332
30
0
10
0.43302335316963259
20
2.6420807796111223
30
0
0
SPLINE
5
150
100
AcDbEntity
8
0
100
AcDbSpline
70
4
71
3
72
8
73
4
74
0
42
0.000000001
43
0.0000000001
44
0.0000000001
40
0
40
0
40
0
40
0
40
1
40
1
40
1
40
1
41
1
41
1
41
1
41
1
10
0.43302335316963259
20
2.6420807796111223
30
0
10
-0.65783221813745074
20
2.1444581670113916
30
0
10
-1.6709877545879204
20
1.4862877151856146
30
0
10
-2.7307420272878224
20
0.92678361022440203
30
0
0
SPLINE
5
151
100
AcDbEntity
8
0
100
AcDbSpline
70
4
71
3
72
8
73
4
74
0
42
0.000000001
43
0.0000000001
44
0.0000000001
40
0
40
0
40
0
40
0
40
1
40
1
40
1
40
1
41
1
41
1
41
1
41
1
10
-2.7307420272878224
20
0.92678361022440203
30
0
10
-3.6146115755458563
20
0.46015403802431187
30
0
10
-4.4972499160537183
20
0.011543035282777225
30
0
10
-4.5003031644833547
20
-1.0991513112774509
30
0
0
LINE
5
152
100
AcDbEntity
8
0
100
AcDbLine
10
-4.5003031644833547
20
-1.0991513112774509
30
0
11
-4.3930578133923603
21
-1.0991513112774509
31
0
0
SPLINE
5
153
100
AcDbEntity
8
0
100
AcDbSpline
70
4
71
3
72
8
73
4
74
0
42
0.000000001
43
0.0000000001
44
0.0000000001
40
0
40
0
40
0
40
0
40
1
40
1
40
1
40
1
41
1
41
1
41
1
41
1
10
-4.3930578133923603
20
-1.0991513112774509
30
0
10
-4.2787334764590934
20
0.3005208889077382
30
0
10
-2.2224458893784815
20
0.9266771869017365
30
0
10
-1.1220452469590358
20
1.5158357837473035
30
0
0
SPLINE
5
154
100
AcDbEntity
8
0
100
AcDbSpline
70
4
71
3
72
8
73
4
74
0
42
0.000000001
43
0.0000000001
44
0.0000000001
40
0
40
0
40
0
40
0
40
1
40
1
40
1
40
1
41
1
41
1
41
1
41
1
10
-1.1220452469590358
20
1.5158357837473035
30
0
10
-0.461890367142479
20
1.869319932545408
30
0
10
0.31693202210310911
20
2.3042582906514619
30
0
10
1.0765046341399698
20
2.3768628502141453
30
0
0
SPLINE
5
155
100
AcDbEntity
8
0
100
AcDbSpline
70
4
71
3
72
8
73
4
74
0
42
0.000000001
43
0.0000000001
44
0.0000000001
40
0
40
0
40
0
40
0
40
1
40
1
40
1
40
1
41
1
41
1
41
1
41
1
10
1.0765046341399698
20
2.3768628502141453
30
0
10
2.1787823637850856
20
2.4821788198605699
30
0
10
3.47506797576842
20
1.9303959104473867
30
0
10
4.5620097376401558
20
1.7472202709603435
30
0
0
SPLINE
5
156
100
AcDbEntity
8
0
100
AcDbSpline
70
4
71
3
72
8
73
4
74
0
42
0.000000001
43
0.0000000001
44
0.0000000001
40
0
40
0
40
0
40
0
40
1
40
1
40
1
40
1
41
1
41
1
41
1
41
1
10
4.5620097376401558
20
1.7472202709603435
30
0
10
7.2277231424374655
20
1.2979643061857438
30
0
10
9.8927943375290219
20
0.84415140482760886
30
0
10
12.551858119544477
20
0.34867377264509614
30
0
0
LINE
5
157
100
AcDbEntity
8
0
100
AcDbLine
10
12.551858119544477
20
0.34867377264509614
30
0
11
12.551858119544477
21
0.29505109709959676
31
0
0
SPLINE
5
158
100
AcDbEntity
8
0
100
AcDbSpline
70
4
71
3
72
8
73
4
74
0
42
0.000000001
43
0.0000000001
44
0.0000000001
40
0
40
0
40
0
40
0
40
1
40
1
40
1
40
1
41
1
41
1
41
1
41
1
10
12.551858119544477
20
0.29505109709959676
30
0
10
10.28102661862054
20
0.29505109709959676
30
0
10
7.8833733798893846
20
0.3164476896104107
30
0
10
5.6344705880895996
20
0.69374038708564623
30
0
0
SPLINE
5
159
100
AcDbEntity
8
0
100
AcDbSpline
70
4
71
3
72
8
73
4
74
0
42
0.000000001
43
0.0000000001
44
0.0000000001
40
0
40
0
40
0
40
0
40
1
40
1
40
1
40
1
41
1
41
1
41
1
41
1
10
5.6344705880895996
20
0.69374038708564623
30
0
10
4.7429330559448779
20
0.84329451359164587
30
0
10
3.8393293208714896
20
0.99992762593991813
30
0
10
2.9533129573113692
20
1.1770986046781662
30
0
0
SPLINE
5
160
100
AcDbEntity
8
0
100
AcDbSpline
70
4
71
3
72
8
73
4
74
0
42
0.000000001
43
0.0000000001
44
0.0000000001
40
0
40
0
40
0
40
0
40
1
40
1
40
1
40
1
41
1
41
1
41
1
41
1
10
2.9533129573113692
20
1.1770986046781662
30
0
10
2.4207284483304514
20
1.2835934878558675
30
0
10
1.8392387528140075
20
1.4952456231384303
30
0
10
1.2909953363219584
20
1.4036564272312546
30
0
0
SPLINE
5
161
100
AcDbEntity
8
0
100
AcDbSpline
70
4
71
3
72
8
73
4
74
0
42
0.000000001
43
0.0000000001
44
0.0000000001
40
0
40
0
40
0
40
0
40
1
40
1
40
1
40
1
41
1
41
1
41
1
41
1
10
1.2909953363219584
20
1.4036564272312546
30
0
10
0.88753534566460068
20
1.3363060605040689
30
0
10
0.57437554429072835
20
1.0831506642660038
30
0
10
0.21853265098764174
20
0.9047466428927109
30
0
0
SPLINE
5
162
100
AcDbEntity
8
0
100
AcDbSpline
70
4
71
3
72
8
73
4
74
0
42
0.000000001
43
0.0000000001
44
0.0000000001
40
0
40
0
40
0
40
0
40
1
40
1
40
1
40
1
41
1
41
1
41
1
41
1
10
0.21853265098764174
20
0.9047466428927109
30
0
10
-0.62281527521005131
20
0.48300018958525648
30
0
10
-1.4234085734806645
20
0.018730279332586086
30
0
10
-2.1945097671782277
20
-0.52505987157128509
30
0
0
SPLINE
5
163
100
AcDbEntity
8
0
100
AcDbSpline
70
4
71
3
72
8
73
4
74
0
42
0.000000001
43
0.0000000001
44
0.0000000001
40
0
40
0
40
0
40
0
40
1
40
1
40
1
40
1
41
1
41
1
41
1
41
1
10
-2.1945097671782277
20
-0.52505987157128509
30
0
10
-2.4998933264578693
20
-0.74040929987410742
30
0
10
-2.8913421607327727
20
-0.94160442626213925
30
0
10
-3.0989722283724475
20
-1.2608230174885726
30
0
0
SPLINE
5
164
100
AcDbEntity
8
0
100
AcDbSpline
70
4
71
3
72
8
73
4
74
0
42
0.000000001
43
0.0000000001
44
0.0000000001
40
0
40
0
40
0
40
0
40
1
40
1
40
1
40
1
41
1
41
1
41
1
41
1
10
-3.0989722283724475
20
-1.2608230174885726
30
0
10
-3.3948107165397268
20
-1.7157625381590869
30
0
10
-3.4555655895888293
20
-2.4458962572842324
30
0
10
-3.4278423140339109
20
-2.9759596344488504
30
0
0
LINE
5
165
100
AcDbEntity
8
0
100
AcDbLine
10
-3.4278423140339109
20
-2.9759596344488504
30
0
11
-3.3742196384884138
21
-2.9759596344488504
31
0
0
SPLINE
5
166
100
AcDbEntity
8
0
100
AcDbSpline
70
4
71
3
72
8
73
4
74
0
42
0.000000001
43
0.0000000001
44
0.0000000001
40
0
40
0
40
0
40
0
40
1
40
1
40
1
40
1
41
1
41
1
41
1
41
1
10
-3.3742196384884138
20
-2.9759596344488504
30
0
10
-3.2508328051645363
20
-2.4764617695083269
30
0
10
-3.1672336154393643
20
-1.8458522059261506
30
0
10
-2.8574004603412928
20
-1.421692879009937
30
0
0
SPLINE
5
167
100
AcDbEntity
8
0
100
AcDbSpline
70
4
71
3
72
8
73
4
74
0
42
0.000000001
43
0.0000000001
44
0.0000000001
40
0
40
0
40
0
40
0
40
1
40
1
40
1
40
1
41
1
41
1
41
1
41
1
10
-2.8574004603412928
20
-1.421692879009937
30
0
10
-2.5715896180081277
20
-1.0304036797190363
30
0
10
-2.0654935070622082
20
-0.83897014085844823
30
0
10
-1.6582793419535058
20
-0.60447552378469105
30
0
0
SPLINE
5
168
100
AcDbEntity
8
0
100
AcDbSpline
70
4
71
3
72
8
73
4
74
0
42
0.000000001
43
0.0000000001
44
0.0000000001
40
0
40
0
40
0
40
0
40
1
40
1
40
1
40
1
41
1
41
1
41
1
41
1
10
-1.6582793419535058
20
-0.60447552378469105
30
0
10
-0.74765166758405721
20
-0.079988361750880088
30
0
10
0.43892250803819088
20
0.8668911330658835
30
0
10
1.5054860385039492
20
0.98282282914840646
30
0
0
SPLINE
5
169
100
AcDbEntity
8
0
100
AcDbSpline
70
4
71
3
72
8
73
4
74
0
42
0.000000001
43
0.0000000001
44
0.0000000001
40
0
40
0
40
0
40
0
40
1
40
1
40
1
40
1
41
1
41
1
41
1
41
1
10
1.5054860385039492
20
0.98282282914840646
30
0
10
2.4078035192809555
20
1.0809543070723304
30
0
10
3.3534463016929283
20
0.65057472043468234
30
0
10
4.2402663448276767
20
0.52487960193984051
30
0
0
SPLINE
5
170
100
AcDbEntity
8
0
100
AcDbSpline
70
4
71
3
72
8
73
4
74
0
42
0.000000001
43
0.0000000001
44
0.0000000001
40
0
40
0
40
0
40
0
40
1
40
1
40
1
40
1
41
1
41
1
41
1
41
1
10
4.2402663448276767
20
0.52487960193984051
30
0
10
6.219387848549891
20
0.24421561167706773
30
0
10
8.1934707584092514
20
0.014548576705699645
30
0
10
10.192434707154359
20
-0.026688625943132038
30
0
0
LINE
5
171
100
AcDbEntity
8
0
100
AcDbLine
10
10.192434707154359
20
-0.026688625943132059
30
0
11
10.192434707154359
21
-0.080311301488631415
31
0
0
SPLINE
5
172
100
AcDbEntity
8
0
100
AcDbSpline
70
4
71
3
72
8
73
4
74
0
42
0.000000001
43
0.0000000001
44
0.0000000001
40
0
40
0
40
0
40
0
40
1
40
1
40
1
40
1
41
1
41
1
41
1
41
1
10
10.192434707154359
20
-0.080311301488631415
30
0
10
9.6307324101145966
20
-0.15602599091203206
30
0
10
9.0542849782307542
20
-0.36794601938613614
30
0
10
8.5301170861649478
20
-0.57948806157628319
30
0
0
SPLINE
5
173
100
AcDbEntity
8
0
100
AcDbSpline
70
4
71
3
72
8
73
4
74
0
42
0.000000001
43
0.0000000001
44
0.0000000001
40
0
40
0
40
0
40
0
40
1
40
1
40
1
40
1
41
1
41
1
41
1
41
1
10
8.5301170861649478
20
-0.57948806157628319
30
0
10
8.2645743821453443
20
-0.68662698934460753
30
0
10
7.9611761682989179
20
-0.90251403891539184
30
0
10
7.6721469378974927
20
-0.91774174848123113
30
0
0
SPLINE
5
174
100
AcDbEntity
8
0
100
AcDbSpline
70
4
71
3
72
8
73
4
74
0
42
0.000000001
43
0.0000000001
44
0.0000000001
40
0
40
0
40
0
40
0
40
1
40
1
40
1
40
1
41
1
41
1
41
1
41
1
10
7.6721469378974927
20
-0.91774174848123113
30
0
10
6.7356180286525902
20
-0.96691482820829844
30
0
10
5.6666948362394098
20
-0.55460702269054085
30
0
10
4.7228740945068992
20
-0.46478757324392994
30
0
0
SPLINE
5
175
100
AcDbEntity
8
0
100
AcDbSpline
70
4
71
3
72
8
73
4
74
0
42
0.000000001
43
0.0000000001
44
0.0000000001
40
0
40
0
40
0
40
0
40
1
40
1
40
1
40
1
41
1
41
1
41
1
41
1
10
4.7228740945068992
20
-0.46478757324392994
30
0
10
4.2180642378573596
20
-0.41674111282924198
30
0
10
3.7227480755437226
20
-0.50312749267738432
30
0
10
3.2214263350388572
20
-0.50908169409214832
30
0
0
SPLINE
5
176
100
AcDbEntity
8
0
100
AcDbSpline
70
4
71
3
72
8
73
4
74
0
42
0.000000001
43
0.0000000001
44
0.0000000001
40
0
40
0
40
0
40
0
40
1
40
1
40
1
40
1
41
1
41
1
41
1
41
1
10
3.2214263350388572
20
-0.50908169409214832
30
0
10
1.4242997223875342
20
-0.53047645171809155
30
0
10
-0.6554211794135667
20
-0.71016856227263947
30
0
10
-2.2481361124934729
20
-1.6353817365021728
30
0
0
SPLINE
5
177
100
AcDbEntity
8
0
100
AcDbSpline
70
4
71
3
72
8
73
4
74
0
42
0.000000001
43
0.0000000001
44
0.0000000001
40
0
40
0
40
0
40
0
40
1
40
1
40
1
40
1
41
1
41
1
41
1
41
1
10
-2.2481361124934729
20
-1.6353817365021728
30
0
10
-1.3320918579772156
20
-1.6025116088768643
30
0
10
-0.32735477332673124
20
-1.1634438423628168
30
0
10
0.59389137980612405
20
-1.0153924865682784
30
0
0
SPLINE
5
178
100
AcDbEntity
8
0
100
AcDbSpline
70
4
71
3
72
8
73
4
74
0
42
0.000000001
43
0.0000000001
44
0.0000000001
40
0
40
0
40
0
40
0
40
1
40
1
40
1
40
1
41
1
41
1
41
1
41
1
10
0.59389137980612405
20
-1.0153924865682784
30
0
10
2.7735125885492806
20
-0.66517902005733376
30
0
10
5.2063405703069598
20
-0.50125407522145782
30
0
10
7.3504090497396346
20
-1.1527739868229503
30
0
0
SPLINE
5
179
100
AcDbEntity
8
0
100
AcDbSpline
70
4
71
3
72
8
73
4
74
0
42
0.000000001
43
0.0000000001
44
0.0000000001
40
0
40
0
40
0
40
0
40
1
40
1
40
1
40
1
41
1
41
1
41
1
41
1
10
7.3504090497396346
20
-1.1527739868229503
30
0
10
6.910913755050041
20
-1.5737699722171072
30
0
10
6.3880339521654861
20
-1.8906289014961208
30
0
10
5.9570103209372149
20
-2.3324838581331342
30
0
0
SPLINE
5
180
100
AcDbEntity
8
0
100
AcDbSpline
70
4
71
3
72
8
73
4
74
0
42
0.000000001
43
0.0000000001
44
0.0000000001
40
0
40
0
40
0
40
0
40
1
40
1
40
1
40
1
41
1
41
1
41
1
41
1
10
5.9570103209372149
20
-2.3324838581331342
30
0
10
4.998712337552158
20
-3.3148078240528411
30
0
10
4.2253046935685079
20
-4.6127026300703067
30
0
10
3.822274065971567
20
-5.9252361476091897
30
0
0
SPLINE
5
181
100
AcDbEntity
8
0
100
AcDbSpline
70
4
71
3
72
8
73
4
74
0
42
0.000000001
43
0.0000000001
44
0.0000000001
40
0
40
0
40
0
40
0
40
0.23971729528432956
40
0.23971729528432956
40
0.23971729528432956
40
0.23971729528432956
41
1
41
1
41
1
41
1
10
3.822274065971567
20
-5.9252361476091897
30
0
10
3.7560479426612376
20
-6.1409328946887651
30
0
10
3.72016781323333
20
-6.3644872805481478
30
0
10
3.6989051061949945
20
-6.5914746800207489
30
0
0
ARC
5
182
100
AcDbEntity
8
0
100
AcDbCircle
10
-5.2957638274619967e-13
20
-13.684999985099818
30
0
40
8.0000000149022767
210
0
220
-0
230
1
100
AcDbArc
50
59.293500902162329
51
62.460298121738774
0
SPLINE
5
183
100
AcDbEntity
8
0
100
AcDbSpline
70
4
71
3
72
8
73
4
74
0
42
0.000000001
43
0.0000000001
44
0.0000000001
40
0.58695127493644594
40
0.58695127493644594
40
0.58695127493644594
40
0.58695127493644594
40
1
40
1
40
1
40
1
41
1
41
1
41
1
41
1
10
4.0851235934803398
20
-6.8066451335075895
30
0
10
4.130535844154319
20
-6.4804626517527497
30
0
10
4.2028309948967131
20
-6.1546106858525729
30
0
10
4.3338418036105031
20
-5.8179907965181954
30
0
0
SPLINE
5
184
100
AcDbEntity
8
0
100
AcDbSpline
70
4
71
3
72
8
73
4
74
0
42
0.000000001
43
0.0000000001
44
0.0000000001
40
0
40
0
40
0
40
0
40
1
40
1
40
1
40
1
41
1
41
1
41
1
41
1
10
4.3338418036105031
20
-5.8179907965181954
30
0
10
5.3096225700710242
20
-3.3110022728250366
30
0
10
7.0448144786995304
20
-1.4640585358560232
30
0
10
9.6562079516993826
20
-0.70105468910556912
30
0
0
SPLINE
5
185
100
AcDbEntity
8
0
100
AcDbSpline
70
4
71
3
72
8
73
4
74
0
42
0.000000001
43
0.0000000001
44
0.0000000001
40
0
40
0
40
0
40
0
40
1
40
1
40
1
40
1
41
1
41
1
41
1
41
1
10
9.6562079516993826
20
-0.70105468910556912
30
0
10
10.236838921094989
20
-0.5313920592700061
30
0
10
11.03389456132934
20
-0.16342975137692672
30
0
10
11.640265295731528
20
-0.29480567344037034
30
0
0
SPLINE
5
186
100
AcDbEntity
8
0
100
AcDbSpline
70
4
71
3
72
8
73
4
74
0
42
0.000000001
43
0.0000000001
44
0.0000000001
40
0
40
0
40
0
40
0
40
0.6184640524999101
40
0.6184640524999101
40
0.6184640524999101
40
0.6184640524999101
41
1
41
1
41
1
41
1
10
11.640265295731528
20
-0.29480567344037034
30
0
10
11.311211151815934
20
-2.060755528450366
30
0
10
10.920584637472576
20
-3.7926366953798358
30
0
10
10.275545701237602
20
-5.4300172652796688
30
0
0
SPLINE
5
187
100
AcDbEntity
8
0
100
AcDbSpline
70
4
71
3
72
8
73
4
74
0
42
0.000000001
43
0.0000000001
44
0.0000000001
40
0.3588415997125598
40
0.3588415997125598
40
0.3588415997125598
40
0.3588415997125598
40
1
40
1
40
1
40
1
41
1
41
1
41
1
41
1
10
10.799576134709078
20
-5.4103628480766295
30
0
10
11.462402840138331
20
-3.7374715391759494
30
0
10
11.87741577804797
20
-1.9384764820080203
30
0
10
12.015627694319754
20
-0.18755848746450088
30
0
0
SPLINE
5
188
100
AcDbEntity
8
0
100
AcDbSpline
70
4
71
3
72
8
73
4
74
0
42
0.000000001
43
0.0000000001
44
0.0000000001
40
0
40
0
40
0
40
0
40
1
40
1
40
1
40
1
41
1
41
1
41
1
41
1
10
12.015627694319754
20
-0.18755848746450088
30
0
10
12.328196662764332
20
-0.18755848746450088
30
0
10
13.888953406001097
20
-0.10948230120880531
30
0
10
13.187399853666832
20
0.54225412680776852
30
0
0
SPLINE
5
189
100
AcDbEntity
8
0
100
AcDbSpline
70
4
71
3
72
8
73
4
74
0
42
0.000000001
43
0.0000000001
44
0.0000000001
40
0
40
0
40
0
40
0
40
1
40
1
40
1
40
1
41
1
41
1
41
1
41
1
10
13.187399853666832
20
0.54225412680776852
30
0
10
12.930222389785882
20
0.7810900814924171
30
0
10
12.245615834143999
20
0.80259309732590101
30
0
10
12.101584711107476
20
1.1143051745345156
30
0
0
SPLINE
5
190
100
AcDbEntity
8
0
100
AcDbSpline
70
4
71
3
72
8
73
4
74
0
42
0.000000001
43
0.0000000001
44
0.0000000001
40
0
40
0
40
0
40
0
40
1
40
1
40
1
40
1
41
1
41
1
41
1
41
1
10
12.101584711107476
20
1.1143051745345156
30
0
10
12.002702765270259
20
1.3283683485409625
30
0
10
12.073914647213893
20
1.6756863667213961
30
0
10
12.086890953039848
20
1.9037460425435127
30
0
0
SPLINE
5
191
100
AcDbEntity
8
0
100
AcDbSpline
70
4
71
3
72
8
73
4
74
0
42
0.000000001
43
0.0000000001
44
0.0000000001
40
0
40
0
40
0
40
0
40
1
40
1
40
1
40
1
41
1
41
1
41
1
41
1
10
12.086890953039848
20
1.9037460425435127
30
0
10
12.119871173757574
20
2.4807310956953144
30
0
10
11.878778310678424
20
3.3567188959788852
30
0
10
12.06925036986525
20
3.8878033865756523
30
0
0
SPLINE
5
192
100
AcDbEntity
8
0
100
AcDbSpline
70
4
71
3
72
8
73
4
74
0
42
0.000000001
43
0.0000000001
44
0.0000000001
40
0
40
0
40
0
40
0
40
1
40
1
40
1
40
1
41
1
41
1
41
1
41
1
10
12.06925036986525
20
3.8878033865756523
30
0
10
12.939877553990659
20
2.3975631039154344
30
0
10
13.407791545602255
20
0.90619436705796641
30
0
10
13.910671103364788
20
-0.72378891268922274
30
0
0
SPLINE
5
193
100
AcDbEntity
8
0
100
AcDbSpline
70
4
71
3
72
8
73
4
74
0
42
0.000000001
43
0.0000000001
44
0.0000000001
40
0
40
0
40
0
40
0
40
1
40
1
40
1
40
1
41
1
41
1
41
1
41
1
10
13.910671103364788
20
-0.72378891268922274
30
0
10
14.033736831835789
20
-1.1227442609819427
30
0
10
14.103715671144377
20
-1.5457788034706477
30
0
10
14.173800933775631
20
-1.957121459544906
30
0
0
SPLINE
5
194
100
AcDbEntity
8
0
100
AcDbSpline
70
4
71
3
72
8
73
4
74
0
42
0.000000001
43
0.0000000001
44
0.0000000001
40
0
40
0
40
0
40
0
40
1
40
1
40
1
40
1
41
1
41
1
41
1
41
1
10
14.173800933775631
20
-1.957121459544906
30
0
10
14.196109464068613
20
-2.0882845349630141
30
0
10
14.201415951123009
20
-2.3145735468821238
30
0
10
14.338423134863469
20
-2.3849285375897944
30
0
0
SPLINE
5
195
100
AcDbEntity
8
0
100
AcDbSpline
70
4
71
3
72
8
73
4
74
0
42
0.000000001
43
0.0000000001
44
0.0000000001
40
0
40
0
40
0
40
0
40
1
40
1
40
1
40
1
41
1
41
1
41
1
41
1
10
14.338423134863469
20
-2.3849285375897944
30
0
10
14.577904969023617
20
-2.5079942660607957
30
0
10
15.183952763688051
20
-2.0125680106547428
30
0
10
15.393889281613816
20
-1.8960454816429273
30
0
0
SPLINE
5
196
100
AcDbEntity
8
0
100
AcDbSpline
70
4
71
3
72
8
73
4
74
0
42
0.000000001
43
0.0000000001
44
0.0000000001
40
0
40
0
40
0
40
0
40
1
40
1
40
1
40
1
41
1
41
1
41
1
41
1
10
15.393889281613816
20
-1.8960454816429273
30
0
10
16.348433090547523
20
-1.3663032093311811
30
0
10
17.374941084223035
20
-0.91779862991231198
30
0
10
18.396784800549906
20
-0.53208748063709344
30
0
0
SPLINE
5
197
100
AcDbEntity
8
0
100
AcDbSpline
70
4
71
3
72
8
73
4
74
0
42
0.000000001
43
0.0000000001
44
0.0000000001
40
0
40
0
40
0
40
0
40
0.051782187034228815
40
0.051782187034228815
40
0.051782187034228815
40
0.051782187034228815
41
1
41
1
41
1
41
1
10
18.396784800549906
20
-0.53208748063709344
30
0
10
18.491190680351544
20
-0.49645377324353784
30
0
10
18.585621721293645
20
-0.46189572182491417
30
0
10
18.680088927954674
20
-0.42837208558076634
30
0
0
ARC
5
198
100
AcDbEntity
8
0
100
AcDbCircle
10
4.9960036108132044e-15
20
-1.7763568394002505e-14
30
0
40
18.684999999999988
210
-0
220
0
230
1
100
AcDbArc
50
-1.3136774484455691
51
0.48151105383803561
0
SPLINE
5
199
100
AcDbEntity
8
0
100
AcDbSpline
70
4
71
3
72
8
73
4
74
0
42
0.000000001
43
0.0000000001
44
0.0000000001
40
0.52788070065577408
40
0.52788070065577408
40
0.52788070065577408
40
0.52788070065577408
40
1
40
1
40
1
40
1
41
1
41
1
41
1
41
1
10
18.684340176455208
20
0.15702601854920162
30
0
10
17.336401532190436
20
-0.29058325724657158
30
0
10
16.026136525075522
20
-0.85147038734147773
30
0
10
14.804032511073849
20
-1.4745100400959332
30
0
0
SPLINE
5
200
100
AcDbEntity
8
0
100
AcDbSpline
70
4
71
3
72
8
73
4
74
0
42
0.000000001
43
0.0000000001
44
0.0000000001
40
0
40
0
40
0
40
0
40
1
40
1
40
1
40
1
41
1
41
1
41
1
41
1
10
14.804032511073849
20
-1.4745100400959332
30
0
10
14.287750954194687
20
1.026687586936208
30
0
10
13.09361521800842
20
3.2095253488627495
30
0
10
11.922055905306674
20
5.4428774913589422
30
0
0
SPLINE
5
201
100
AcDbEntity
8
0
100
AcDbSpline
70
4
71
3
72
8
73
4
74
0
42
0.000000001
43
0.0000000001
44
0.0000000001
40
0
40
0
40
0
40
0
40
1
40
1
40
1
40
1
41
1
41
1
41
1
41
1
10
11.922055905306674
20
5.4428774913589422
30
0
10
11.492267151598323
20
6.2622389095589659
30
0
10
10.791840218576434
20
7.6647533464133311
30
0
10
9.9243249991966174
20
8.07041152914924
30
0
0
LINE
5
202
100
AcDbEntity
8
0
100
AcDbLine
10
9.9243249991966156
20
8.07041152914924
30
0
11
9.9243249991966174
21
8.1776587151251086
31
0
0
SPLINE
5
203
100
AcDbEntity
8
0
100
AcDbSpline
70
4
71
3
72
8
73
4
74
0
42
0.000000001
43
0.0000000001
44
0.0000000001
40
0
40
0
40
0
40
0
40
1
40
1
40
1
40
1
41
1
41
1
41
1
41
1
10
9.9243249991966174
20
8.1776587151251086
30
0
10
10.65638901720877
20
8.4592337257276142
30
0
10
11.308070398679133
20
9.1386929705778854
30
0
10
11.854759667683261
20
9.6788927105053801
30
0
0
SPLINE
5
204
100
AcDbEntity
8
0
100
AcDbSpline
70
4
71
3
72
8
73
4
74
0
42
0.000000001
43
0.0000000001
44
0.0000000001
40
0
40
0
40
0
40
0
40
0.99375220410564102
40
0.99375220410564102
40
0.99375220410564102
40
0.99375220410564102
41
1
41
1
41
1
41
1
10
11.854759667683261
20
9.6788927105053801
30
0
10
12.66164893825022
20
10.476188963783725
30
0
10
13.482306001556699
20
11.273486123076333
30
0
10
14.167646695386765
20
12.182241670345226
30
0
0
ARC
5
205
100
AcDbEntity
8
0
100
AcDbCircle
10
4.9960036108132044e-15
20
-1.7763568394002505e-14
30
0
40
18.684999999999985
210
0
220
-0
230
1
100
AcDbArc
50
40.691033543333802
51
42.212362841872007
0
SPLINE
5
206
100
AcDbEntity
8
0
100
AcDbSpline
70
4
71
3
72
8
73
4
74
0
42
0.000000001
43
0.0000000001
44
0.0000000001
40
0.24561357541647796
40
0.24561357541647796
40
0.24561357541647796
40
0.24561357541647796
40
1
40
1
40
1
40
1
41
1
41
1
41
1
41
1
10
13.839225379925956
20
12.554085625150577
30
0
10
13.041925391834454
20
11.4712986488056
30
0
10
11.883326486994259
20
10.503898298648425
30
0
10
10.965901067453965
20
9.6855423332872341
30
0
0
SPLINE
5
207
100
AcDbEntity
8
0
100
AcDbSpline
70
4
71
3
72
8
73
4
74
0
42
0.000000001
43
0.0000000001
44
0.0000000001
40
0
40
0
40
0
40
0
40
1
40
1
40
1
40
1
41
1
41
1
41
1
41
1
10
10.965901067453965
20
9.6855423332872341
30
0
10
10.662341383738664
20
9.4146913073283667
30
0
10
9.8907025687731398
20
8.6071272814230237
30
0
10
9.441717249517394
20
8.7040247992694653
30
0
0
SPLINE
5
208
100
AcDbEntity
8
0
100
AcDbSpline
70
4
71
3
72
8
73
4
74
0
42
0.000000001
43
0.0000000001
44
0.0000000001
40
0
40
0
40
0
40
0
40
1
40
1
40
1
40
1
41
1
41
1
41
1
41
1
10
9.441717249517394
20
8.7040247992694653
30
0
10
9.1630899814642941
20
8.7641897568317102
30
0
10
8.9013546635573704
20
9.1460398496117001
30
0
10
8.6909924523409323
20
9.3263214169318864
30
0
0
SPLINE
5
209
100
AcDbEntity
8
0
100
AcDbSpline
70
4
71
3
72
8
73
4
74
0
42
0.000000001
43
0.0000000001
44
0.0000000001
40
0
40
0
40
0
40
0
40
1
40
1
40
1
40
1
41
1
41
1
41
1
41
1
10
8.6909924523409323
20
9.3263214169318864
30
0
10
8.1011375166858421
20
9.8316656838008569
30
0
10
7.5091926471597414
20
10.317973937548874
30
0
10
6.867804969830158
20
10.757576573003572
30
0
0
SPLINE
5
210
100
AcDbEntity
8
0
100
AcDbSpline
70
4
71
3
72
8
73
4
74
0
42
0.000000001
43
0.0000000001
44
0.0000000001
40
0
40
0
40
0
40
0
40
1
40
1
40
1
40
1
41
1
41
1
41
1
41
1
10
6.867804969830158
20
10.757576573003572
30
0
10
5.925753057115779
20
11.403199623342594
30
0
10
4.8989239585873934
20
12.023618695058126
30
0
10
3.811284940463695
20
12.386273139733159
30
0
0
SPLINE
5
211
100
AcDbEntity
8
0
100
AcDbSpline
70
4
71
3
72
8
73
4
74
0
42
0.000000001
43
0.0000000001
44
0.0000000001
40
0
40
0
40
0
40
0
40
1
40
1
40
1
40
1
41
1
41
1
41
1
41
1
10
3.811284940463695
20
12.386273139733159
30
0
10
3.2378393802330274
20
12.57743924412342
30
0
10
2.5374142820960133
20
12.550305884055359
30
0
10
1.9937287196299369
20
12.78351287066908
30
0
0
SPLINE
5
212
100
AcDbEntity
8
0
100
AcDbSpline
70
4
71
3
72
8
73
4
74
0
42
0.000000001
43
0.0000000001
44
0.0000000001
40
0
40
0
40
0
40
0
40
1
40
1
40
1
40
1
41
1
41
1
41
1
41
1
10
1.9937287196299369
20
12.78351287066908
30
0
10
1.7573588502153803
20
12.884860672415781
30
0
10
1.6794973454898932
20
13.18820682140392
30
0
10
1.5307468985585237
20
13.378890809793651
30
0
0
SPLINE
5
213
100
AcDbEntity
8
0
100
AcDbSpline
70
4
71
3
72
8
73
4
74
0
42
0.000000001
43
0.0000000001
44
0.0000000001
40
0
40
0
40
0
40
0
40
1
40
1
40
1
40
1
41
1
41
1
41
1
41
1
10
1.5307468985585237
20
13.378890809793651
30
0
10
1.2992027763614811
20
13.675694906125649
30
0
10
0.95134897179796063
20
13.909438367204285
30
0
10
0.59389688446074507
20
14.022583102524449
30
0
0
LINE
5
214
100
AcDbEntity
8
0
100
AcDbLine
10
0.59389688446074496
20
14.022583102524449
30
0
11
1.0856221770767878
21
18.044319548691796
31
0
0
LINE
5
215
100
AcDbEntity
8
0
100
AcDbLine
10
1.0856221770767878
20
18.044319548691796
30
0
11
1.1518422504419179
21
18.64946338182672
31
0
0
ARC
5
216
100
AcDbEntity
8
0
100
AcDbCircle
10
4.9960036108132044e-15
20
-1.7763568394002505e-14
30
0
40
18.684999999999985
210
0
220
-0
230
1
100
AcDbArc
50
86.465744174881522
51
88.098178256390938
0
SPLINE
5
217
100
AcDbEntity
8
0
100
AcDbSpline
70
4
71
3
72
8
73
4
74
0
42
0.000000001
43
0.0000000001
44
0.0000000001
40
0.1681268254147836
40
0.1681268254147836
40
0.1681268254147836
40
0.1681268254147836
40
1
40
1
40
1
40
1
41
1
41
1
41
1
41
1
10
0.62009827875044887
20
18.674707578023529
30
0
10
0.51186107111558954
20
17.6791843296281
30
0
10
0.46268219952089046
20
16.678979709369393
30
0
10
0.32578167184838414
20
15.684897971186549
30
0
0
SPLINE
5
218
100
AcDbEntity
8
0
100
AcDbSpline
70
4
71
3
72
8
73
4
74
0
42
0.000000001
43
0.0000000001
44
0.0000000001
40
0
40
0
40
0
40
0
40
1
40
1
40
1
40
1
41
1
41
1
41
1
41
1
10
0.32578167184838414
20
15.684897971186549
30
0
10
0.27923798214515738
20
15.346857589648151
30
0
10
0.28132791601616525
20
14.568731997933305
30
0
10
0.026080751022219406
20
14.323030821494161
30
0
0
SPLINE
5
219
100
AcDbEntity
8
0
100
AcDbSpline
70
4
71
3
72
8
73
4
74
0
42
0.000000001
43
0.0000000001
44
0.0000000001
40
0
40
0
40
0
40
0
40
1
40
1
40
1
40
1
41
1
41
1
41
1
41
1
10
0.026080751022219406
20
14.323030821494161
30
0
10
-0.16379864035044323
20
14.140283168903881
30
0
10
-0.65300280115018872
20
14.20988585681339
30
0
10
-0.90755087500729914
20
14.08580199659816
30
0
0
SPLINE
5
220
100
AcDbEntity
8
0
100
AcDbSpline
70
4
71
3
72
8
73
4
74
0
42
0.000000001
43
0.0000000001
44
0.0000000001
40
0
40
0
40
0
40
0
40
1
40
1
40
1
40
1
41
1
41
1
41
1
41
1
10
-0.90755087500729914
20
14.08580199659816
30
0
10
-1.2393182438841444
20
13.924074555759006
30
0
10
-1.474078919264572
20
13.538309506740624
30
0
10
-1.8191436988202514
20
13.432082058033249
30
0
0
SPLINE
5
221
100
AcDbEntity
8
0
100
AcDbSpline
70
4
71
3
72
8
73
4
74
0
42
0.000000001
43
0.0000000001
44
0.0000000001
40
0
40
0
40
0
40
0
40
1
40
1
40
1
40
1
41
1
41
1
41
1
41
1
10
-1.8191436988202514
20
13.432082058033249
30
0
10
-2.1922014820072633
20
13.317274917017619
30
0
10
-2.6636017548786639
20
13.358243079671865
30
0
10
-3.0524762456759347
20
13.316577890126268
30
0
0
SPLINE
5
222
100
AcDbEntity
8
0
100
AcDbSpline
70
4
71
3
72
8
73
4
74
0
42
0.000000001
43
0.0000000001
44
0.0000000001
40
0
40
0
40
0
40
0
40
1
40
1
40
1
40
1
41
1
41
1
41
1
41
1
10
-3.0524762456759347
20
13.316577890126268
30
0
10
-3.8683523000585929
20
13.229225672752797
30
0
10
-4.7177957383185216
20
13.137798405435717
30
0
10
-5.5191413393873017
20
12.956123013693439
30
0
0
SPLINE
5
223
100
AcDbEntity
8
0
100
AcDbSpline
70
4
71
3
72
8
73
4
74
0
42
0.000000001
43
0.0000000001
44
0.0000000001
40
0
40
0
40
0
40
0
40
1
40
1
40
1
40
1
41
1
41
1
41
1
41
1
10
-5.5191413393873017
20
12.956123013693439
30
0
10
-7.9811953674113623
20
12.397959980214209
30
0
10
-10.538054227083546
20
11.292250557134277
30
0
10
-12.490151546387676
20
9.6686476308137479
30
0
0
SPLINE
5
224
100
AcDbEntity
8
0
100
AcDbSpline
70
4
71
3
72
8
73
4
74
0
42
0.000000001
43
0.0000000001
44
0.0000000001
40
0
40
0
40
0
40
0
40
1
40
1
40
1
40
1
41
1
41
1
41
1
41
1
10
-12.490151546387676
20
9.6686476308137479
30
0
10
-13.207200701479325
20
9.0722508718631225
30
0
10
-13.654471320820711
20
8.3057621200165226
30
0
10
-14.288081838613627
20
7.6563853539473703
30
0
0
SPLINE
5
225
100
AcDbEntity
8
0
100
AcDbSpline
70
4
71
3
72
8
73
4
74
0
42
0.000000001
43
0.0000000001
44
0.0000000001
40
0
40
0
40
0
40
0
40
1
40
1
40
1
40
1
41
1
41
1
41
1
41
1
10
-14.288081838613627
20
7.6563853539473703
30
0
10
-14.487560430202421
20
7.4518672510532884
30
0
10
-14.81267680013376
20
7.4636637259055316
30
0
10
-15.064062908632474
20
7.3551844147370549
30
0
0
SPLINE
5
226
100
AcDbEntity
8
0
100
AcDbSpline
70
4
71
3
72
8
73
4
74
0
42
0.000000001
43
0.0000000001
44
0.0000000001
40
0
40
0
40
0
40
0
40
1
40
1
40
1
40
1
41
1
41
1
41
1
41
1
10
-15.064062908632474
20
7.3551844147370549
30
0
10
-15.479589102218494
20
7.1758684555815915
30
0
10
-15.859936883008238
20
6.813536491923089
30
0
10
-16.062633403944076
20
6.408092073274954
30
0
0
SPLINE
5
227
100
AcDbEntity
8
0
100
AcDbSpline
70
4
71
3
72
8
73
4
74
0
42
0.000000001
43
0.0000000001
44
0.0000000001
40
0
40
0
40
0
40
0
40
1
40
1
40
1
40
1
41
1
41
1
41
1
41
1
10
-16.062633403944076
20
6.408092073274954
30
0
10
-16.251311863166983
20
6.0307452466959477
30
0
10
-16.102802244875267
20
5.7169973647200933
30
0
10
-16.155186831852319
20
5.3356293879406369
30
0
0
SPLINE
5
228
100
AcDbEntity
8
0
100
AcDbSpline
70
4
71
3
72
8
73
4
74
0
42
0.000000001
43
0.0000000001
44
0.0000000001
40
0
40
0
40
0
40
0
40
1
40
1
40
1
40
1
41
1
41
1
41
1
41
1
10
-16.155186831852319
20
5.3356293879406369
30
0
10
-16.183740392812528
20
5.1277323445518563
30
0
10
-16.383589172424571
20
4.9837003040728955
30
0
10
-16.470678771900509
20
4.7993980452734775
30
0
0
SPLINE
5
229
100
AcDbEntity
8
0
100
AcDbSpline
70
4
71
3
72
8
73
4
74
0
42
0.000000001
43
0.0000000001
44
0.0000000001
40
0
40
0
40
0
40
0
40
1
40
1
40
1
40
1
41
1
41
1
41
1
41
1
10
-16.470678771900509
20
4.7993980452734775
30
0
10
-16.597406471857955
20
4.5311736570111378
30
0
10
-16.58427878802993
20
4.1775289557866007
30
0
10
-16.560502808559299
20
3.8878033865756523
30
0
0
SPLINE
5
230
100
AcDbEntity
8
0
100
AcDbSpline
70
4
71
3
72
8
73
4
74
0
42
0.000000001
43
0.0000000001
44
0.0000000001
40
0
40
0
40
0
40
0
40
1
40
1
40
1
40
1
41
1
41
1
41
1
41
1
10
-16.560502808559299
20
3.8878033865756523
30
0
10
-16.518317429152045
20
3.3736108461250613
30
0
10
-16.088908496612522
20
3.0905881113572997
30
0
10
-15.954636208776131
20
2.639134871946589
30
0
0
SPLINE
5
231
100
AcDbEntity
8
0
100
AcDbSpline
70
4
71
3
72
8
73
4
74
0
42
0.000000001
43
0.0000000001
44
0.0000000001
40
0
40
0
40
0
40
0
40
1
40
1
40
1
40
1
41
1
41
1
41
1
41
1
10
-15.954636208776131
20
2.639134871946589
30
0
10
-15.82073915489639
20
2.1890220159360263
30
0
10
-15.862941048267507
20
1.6229224172967349
30
0
10
-15.799665043402108
20
1.153023080251927
30
0
0
SPLINE
5
232
100
AcDbEntity
8
0
100
AcDbSpline
70
4
71
3
72
8
73
4
74
0
42
0.000000001
43
0.0000000001
44
0.0000000001
40
0
40
0
40
0
40
0
40
1
40
1
40
1
40
1
41
1
41
1
41
1
41
1
10
-15.799665043402108
20
1.153023080251927
30
0
10
-15.747222198830322
20
0.76377243805556994
30
0
10
-15.585280305821565
20
0.36229595794655012
30
0
10
-15.568388814396608
20
-0.026686791058261328
30
0
0
SPLINE
5
233
100
AcDbEntity
8
0
100
AcDbSpline
70
4
71
3
72
8
73
4
74
0
42
0.000000001
43
0.0000000001
44
0.0000000001
40
0
40
0
40
0
40
0
40
1
40
1
40
1
40
1
41
1
41
1
41
1
41
1
10
-15.568388814396608
20
-0.026686791058261328
30
0
10
-15.549996387145061
20
-0.44998739185363679
30
0
10
-16.009439632737777
20
-0.97259930154665053
30
0
10
-16.166029166570301
20
-1.3672646890049389
30
0
0
SPLINE
5
234
100
AcDbEntity
8
0
100
AcDbSpline
70
4
71
3
72
8
73
4
74
0
42
0.000000001
43
0.0000000001
44
0.0000000001
40
0
40
0
40
0
40
0
40
1
40
1
40
1
40
1
41
1
41
1
41
1
41
1
10
-16.166029166570301
20
-1.3672646890049389
30
0
10
-16.528666638560253
20
-2.2811639631039782
30
0
10
-16.862122560242014
20
-3.3255822680305025
30
0
10
-16.886462766811267
20
-4.3165393672804031
30
0
0
SPLINE
5
235
100
AcDbEntity
8
0
100
AcDbSpline
70
4
71
3
72
8
73
4
74
0
42
0.000000001
43
0.0000000001
44
0.0000000001
40
0
40
0
40
0
40
0
40
0.39163768049040887
40
0.39163768049040887
40
0.39163768049040887
40
0.39163768049040887
41
1
41
1
41
1
41
1
10
-16.886462766811267
20
-4.3165393672804031
30
0
10
-16.916964170632063
20
-5.5582982624091919
30
0
10
-16.750976257275237
20
-6.7745853403161078
30
0
10
-16.537725960044042
20
-7.9844179294093447
30
0
0
SPLINE
5
236
100
AcDbEntity
8
0
100
AcDbSpline
70
4
71
3
72
8
73
4
74
0
42
0.000000001
43
0.0000000001
44
0.0000000001
40
0
40
0
40
0
40
0
40
1
40
1
40
1
40
1
41
1
41
1
41
1
41
1
10
4.2869237973930652
20
3.5124409879874241
30
0
10
4.1536175764426142
20
3.357417069673283
30
0
10
4.0097993000514265
20
3.1051194821136185
30
0
10
3.8019563857664185
20
3.0468857408808159
30
0
0
SPLINE
5
237
100
AcDbEntity
8
0
100
AcDbSpline
70
4
71
3
72
8
73
4
74
0
42
0.000000001
43
0.0000000001
44
0.0000000001
40
0
40
0
40
0
40
0
40
1
40
1
40
1
40
1
41
1
41
1
41
1
41
1
10
3.8019563857664185
20
3.0468857408808159
30
0
10
3.4294362238473619
20
2.9424275799127875
30
0
10
2.8959397770842754
20
3.1214747284342703
30
0
10
2.5243297180625168
20
3.1907021823871284
30
0
0
LINE
5
238
100
AcDbEntity
8
0
100
AcDbLine
10
2.5243297180625173
20
3.1907021823871284
30
0
11
2.9533147921962444
21
8.0704096942643666
31
0
0
SPLINE
5
239
100
AcDbEntity
8
0
100
AcDbSpline
70
4
71
3
72
8
73
4
74
0
42
0.000000001
43
0.0000000001
44
0.0000000001
40
0
40
0
40
0
40
0
40
1
40
1
40
1
40
1
41
1
41
1
41
1
41
1
10
2.9533147921962444
20
8.0704096942643666
30
0
10
3.3368277493929144
20
8.0624728997436979
30
0
10
4.0076543196342129
20
8.0284770702484458
30
0
10
4.3266050176691051
20
7.7975219460958218
30
0
0
SPLINE
5
240
100
AcDbEntity
8
0
100
AcDbSpline
70
4
71
3
72
8
73
4
74
0
42
0.000000001
43
0.0000000001
44
0.0000000001
40
0
40
0
40
0
40
0
40
1
40
1
40
1
40
1
41
1
41
1
41
1
41
1
10
4.3266050176691051
20
7.7975219460958218
30
0
10
4.8651969397261219
20
7.4075217534286093
30
0
10
5.1386204742777508
20
6.3136615581410416
30
0
10
5.3311806324507138
20
5.7109908690864302
30
0
0
SPLINE
5
241
100
AcDbEntity
8
0
100
AcDbSpline
70
4
71
3
72
8
73
4
74
0
42
0.000000001
43
0.0000000001
44
0.0000000001
40
0
40
0
40
0
40
0
40
1
40
1
40
1
40
1
41
1
41
1
41
1
41
1
10
5.3311806324507138
20
5.7109908690864302
30
0
10
5.3975667671768335
20
5.5031479548014195
30
0
10
5.543528189100364
20
5.2365878071194167
30
0
10
5.4946780491110436
20
5.0138896648979063
30
0
0
SPLINE
5
242
100
AcDbEntity
8
0
100
AcDbSpline
70
4
71
3
72
8
73
4
74
0
42
0.000000001
43
0.0000000001
44
0.0000000001
40
0
40
0
40
0
40
0
40
1
40
1
40
1
40
1
41
1
41
1
41
1
41
1
10
5.4946780491110436
20
5.0138896648979063
30
0
10
5.3806748170306573
20
4.4943878850656116
30
0
10
4.626894936539685
20
3.9078586782438807
30
0
10
4.2869237973930652
20
3.5124409879874241
30
0
0
LINE
5
243
100
AcDbEntity
8
0
100
AcDbLine
10
2.4707070425170206
20
2.6544699222775314
30
0
11
2.4707070425170197
21
2.9225860523323322
31
0
0
SPLINE
5
244
100
AcDbEntity
8
0
100
AcDbSpline
70
4
71
3
72
8
73
4
74
0
42
0.000000001
43
0.0000000001
44
0.0000000001
40
0
40
0
40
0
40
0
40
1
40
1
40
1
40
1
41
1
41
1
41
1
41
1
10
2.4707070425170197
20
2.9225860523323322
30
0
10
2.9676342337496608
20
2.8597394105273466
30
0
10
3.8855005289453803
20
2.8861755143434475
30
0
10
4.0794019879609333
20
2.3327311166772358
30
0
0
LINE
5
245
100
AcDbEntity
8
0
100
AcDbLine
10
4.0794019879609342
20
2.3327311166772358
30
0
11
2.4707070425170206
21
2.6544699222775314
31
0
0
SPLINE
5
246
100
AcDbEntity
8
0
100
AcDbSpline
70
4
71
3
72
8
73
4
74
0
42
0.000000001
43
0.0000000001
44
0.0000000001
40
0
40
0
40
0
40
0
40
1
40
1
40
1
40
1
41
1
41
1
41
1
41
1
10
-13.723485928128232
20
3.9414260621211517
30
0
10
-14.357954254599544
20
4.3301400004919843
30
0
10
-15.024330311579977
20
4.2797880072336429
30
0
10
-15.460178772583328
20
5.0138887474554679
30
0
0
SPLINE
5
247
100
AcDbEntity
8
0
100
AcDbSpline
70
4
71
3
72
8
73
4
74
0
42
0.000000001
43
0.0000000001
44
0.0000000001
40
0
40
0
40
0
40
0
40
1
40
1
40
1
40
1
41
1
41
1
41
1
41
1
10
-15.460178772583328
20
5.0138887474554679
30
0
10
-16.012282328128173
20
5.9438753746836204
30
0
10
-15.28166741044493
20
7.0976849285607901
30
0
10
-14.206094595249894
20
6.9443234159421134
30
0
0
SPLINE
5
248
100
AcDbEntity
8
0
100
AcDbSpline
70
4
71
3
72
8
73
4
74
0
42
0.000000001
43
0.0000000001
44
0.0000000001
40
0
40
0
40
0
40
0
40
1
40
1
40
1
40
1
41
1
41
1
41
1
41
1
10
-14.206094595249894
20
6.9443234159421134
30
0
10
-14.466059249253814
20
5.5430970682690006
30
0
10
-12.143319772698739
20
5.7235387292944058
30
0
10
-11.600116784954416
20
4.6920967301938399
30
0
0
SPLINE
5
249
100
AcDbEntity
8
0
100
AcDbSpline
70
4
71
3
72
8
73
4
74
0
42
0.000000001
43
0.0000000001
44
0.0000000001
40
0
40
0
40
0
40
0
40
1
40
1
40
1
40
1
41
1
41
1
41
1
41
1
10
-11.600116784954416
20
4.6920967301938399
30
0
10
-11.127857785962178
20
3.7954105110938507
30
0
10
-11.720876063139322
20
2.8364675656757354
30
0
10
-12.597400567248418
20
2.5169810812577564
30
0
0
SPLINE
5
250
100
AcDbEntity
8
0
100
AcDbSpline
70
4
71
3
72
8
73
4
74
0
42
0.000000001
43
0.0000000001
44
0.0000000001
40
0
40
0
40
0
40
0
40
1
40
1
40
1
40
1
41
1
41
1
41
1
41
1
10
-12.597400567248418
20
2.5169810812577564
30
0
10
-13.573395097796713
20
2.1611904821735672
30
0
10
-14.735194199134668
20
2.3460294447985097
30
0
10
-15.492245220634011
20
3.0856008942709101
30
0
0
SPLINE
5
251
100
AcDbEntity
8
0
100
AcDbSpline
70
4
71
3
72
8
73
4
74
0
42
0.000000001
43
0.0000000001
44
0.0000000001
40
0
40
0
40
0
40
0
40
1
40
1
40
1
40
1
41
1
41
1
41
1
41
1
10
-15.492245220634011
20
3.0856008942709101
30
0
10
-15.90991685335846
20
3.4935655272929078
30
0
10
-16.481775238173483
20
4.7605205045720673
30
0
10
-15.600296544905724
20
5.0138887474554679
30
0
0
SPLINE
5
252
100
AcDbEntity
8
0
100
AcDbSpline
70
4
71
3
72
8
73
4
74
0
42
0.000000001
43
0.0000000001
44
0.0000000001
40
0
40
0
40
0
40
0
40
1
40
1
40
1
40
1
41
1
41
1
41
1
41
1
10
-15.600296544905724
20
5.0138887474554679
30
0
10
-15.152811244034128
20
4.3780249910377966
30
0
10
-14.516786476468802
20
3.9578886492069087
30
0
10
-13.723485928128232
20
3.9414260621211517
30
0
0
SPLINE
5
253
100
AcDbEntity
8
0
100
AcDbSpline
70
4
71
3
72
8
73
4
74
0
42
0.000000001
43
0.0000000001
44
0.0000000001
40
0
40
0
40
0
40
0
40
1
40
1
40
1
40
1
41
1
41
1
41
1
41
1
10
4.7228777642766495
20
8.0167879361613039
30
0
10
5.0772197217531456
20
8.2705864595475589
30
0
10
5.749438969613494
20
8.5858903238962103
30
0
10
5.874220315441292
20
9.0358417100378965
30
0
0
SPLINE
5
254
100
AcDbEntity
8
0
100
AcDbSpline
70
4
71
3
72
8
73
4
74
0
42
0.000000001
43
0.0000000001
44
0.0000000001
40
0
40
0
40
0
40
0
40
1
40
1
40
1
40
1
41
1
41
1
41
1
41
1
10
5.874220315441292
20
9.0358417100378965
30
0
10
6.0792760396033341
20
9.7750365493899984
30
0
10
5.0140519750952883
20
10.485275070552138
30
0
10
5.1518628384103771
20
11.180552857897542
30
0
0
SPLINE
5
255
100
AcDbEntity
8
0
100
AcDbSpline
70
4
71
3
72
8
73
4
74
0
42
0.000000001
43
0.0000000001
44
0.0000000001
40
0
40
0
40
0
40
0
40
1
40
1
40
1
40
1
41
1
41
1
41
1
41
1
10
5.1518628384103771
20
11.180552857897542
30
0
10
6.6202257887228999
20
10.322529497968755
30
0
10
7.8913092569676158
20
9.3010078039371979
30
0
10
9.1199775264746599
20
8.1261241385657446
30
0
0
SPLINE
5
256
100
AcDbEntity
8
0
100
AcDbSpline
70
4
71
3
72
8
73
4
74
0
42
0.000000001
43
0.0000000001
44
0.0000000001
40
0
40
0
40
0
40
0
40
1
40
1
40
1
40
1
41
1
41
1
41
1
41
1
10
9.1199775264746599
20
8.1261241385657446
30
0
10
10.171098665844372
20
7.1210659490623822
30
0
10
11.136849951585903
20
6.0153560672612354
30
0
10
11.56304600071179
20
4.5849045907641788
30
0
0
SPLINE
5
257
100
AcDbEntity
8
0
100
AcDbSpline
70
4
71
3
72
8
73
4
74
0
42
0.000000001
43
0.0000000001
44
0.0000000001
40
0
40
0
40
0
40
0
40
1
40
1
40
1
40
1
41
1
41
1
41
1
41
1
10
11.56304600071179
20
4.5849045907641788
30
0
10
11.893417022199841
20
3.476192837309855
30
0
10
11.747510646822521
20
2.2330454912653908
30
0
10
11.747510646822521
20
1.0994004047064276
30
0
0
SPLINE
5
258
100
AcDbEntity
8
0
100
AcDbSpline
70
4
71
3
72
8
73
4
74
0
42
0.000000001
43
0.0000000001
44
0.0000000001
40
0
40
0
40
0
40
0
40
1
40
1
40
1
40
1
41
1
41
1
41
1
41
1
10
11.747510646822521
20
1.0994004047064276
30
0
10
10.787014471358919
20
1.102033464500014
30
0
10
9.7950390110041816
20
1.3379684661995306
30
0
10
8.8518604789774269
20
1.5035035225119753
30
0
0
SPLINE
5
259
100
AcDbEntity
8
0
100
AcDbSpline
70
4
71
3
72
8
73
4
74
0
42
0.000000001
43
0.0000000001
44
0.0000000001
40
0
40
0
40
0
40
0
40
1
40
1
40
1
40
1
41
1
41
1
41
1
41
1
10
8.8518604789774269
20
1.5035035225119753
30
0
10
7.8920065132195782
20
1.6719872388162615
30
0
10
6.9083981278883622
20
1.7365504154204769
30
0
10
5.9562103111323328
20
1.9643403631661771
30
0
0
SPLINE
5
260
100
AcDbEntity
8
0
100
AcDbSpline
70
4
71
3
72
8
73
4
74
0
42
0.000000001
43
0.0000000001
44
0.0000000001
40
0
40
0
40
0
40
0
40
1
40
1
40
1
40
1
41
1
41
1
41
1
41
1
10
5.9562103111323328
20
1.9643403631661771
30
0
10
5.4112366594850014
20
2.0947529706709878
30
0
10
4.3897177177807567
20
2.03587426740512
30
0
10
4.1991392352712564
20
2.708094432707906
30
0
0
SPLINE
5
261
100
AcDbEntity
8
0
100
AcDbSpline
70
4
71
3
72
8
73
4
74
0
42
0.000000001
43
0.0000000001
44
0.0000000001
40
0
40
0
40
0
40
0
40
1
40
1
40
1
40
1
41
1
41
1
41
1
41
1
10
4.1991392352712564
20
2.708094432707906
30
0
10
4.1237456507007364
20
2.9741187940068192
30
0
10
4.4419972575987909
20
3.2245934234445839
30
0
10
4.5923055217878339
20
3.4051956368964298
30
0
0
SPLINE
5
262
100
AcDbEntity
8
0
100
AcDbSpline
70
4
71
3
72
8
73
4
74
0
42
0.000000001
43
0.0000000001
44
0.0000000001
40
0
40
0
40
0
40
0
40
1
40
1
40
1
40
1
41
1
41
1
41
1
41
1
10
4.5923055217878339
20
3.4051956368964298
30
0
10
4.9630018081425487
20
3.8506423806734769
30
0
10
5.701392509198806
20
4.4441982791185808
30
0
10
5.8445135293380313
20
5.0138905823403412
30
0
0
SPLINE
5
263
100
AcDbEntity
8
0
100
AcDbSpline
70
4
71
3
72
8
73
4
74
0
42
0.000000001
43
0.0000000001
44
0.0000000001
40
0
40
0
40
0
40
0
40
1
40
1
40
1
40
1
41
1
41
1
41
1
41
1
10
5.8445135293380313
20
5.0138905823403412
30
0
10
5.9202300536463026
20
5.3153603321846372
30
0
10
5.7397342635171267
20
5.6502901251410975
30
0
10
5.6371531897747751
20
5.9254843235957289
30
0
0
SPLINE
5
264
100
AcDbEntity
8
0
100
AcDbSpline
70
4
71
3
72
8
73
4
74
0
42
0.000000001
43
0.0000000001
44
0.0000000001
40
0
40
0
40
0
40
0
40
1
40
1
40
1
40
1
41
1
41
1
41
1
41
1
10
5.6371531897747751
20
5.9254843235957289
30
0
10
5.3743462991016777
20
6.6304140640973834
30
0
10
4.9295958941341533
20
7.2993103354516737
30
0
10
4.7228777642766495
20
8.0167879361613039
30
0
0
SPLINE
5
265
100
AcDbEntity
8
0
100
AcDbSpline
70
4
71
3
72
8
73
4
74
0
42
0.000000001
43
0.0000000001
44
0.0000000001
40
0
40
0
40
0
40
0
40
1
40
1
40
1
40
1
41
1
41
1
41
1
41
1
10
2.9526707476056169
20
8.5389686479090265
30
0
10
2.7610225272148226
20
8.7608621931134749
30
0
10
2.7711033847102717
20
9.2917842963989301
30
0
10
2.7147448958182663
20
9.5718588298960654
30
0
0
SPLINE
5
266
100
AcDbEntity
8
0
100
AcDbSpline
70
4
71
3
72
8
73
4
74
0
42
0.000000001
43
0.0000000001
44
0.0000000001
40
0
40
0
40
0
40
0
40
1
40
1
40
1
40
1
41
1
41
1
41
1
41
1
10
2.7147448958182663
20
9.5718588298960654
30
0
10
2.5406840469407332
20
10.436585024268041
30
0
10
2.171809801265483
20
11.323673419315552
30
0
10
2.0953428090439163
20
12.199392867686363
30
0
0
SPLINE
5
267
100
AcDbEntity
8
0
100
AcDbSpline
70
4
71
3
72
8
73
4
74
0
42
0.000000001
43
0.0000000001
44
0.0000000001
40
0
40
0
40
0
40
0
40
1
40
1
40
1
40
1
41
1
41
1
41
1
41
1
10
2.0953428090439163
20
12.199392867686363
30
0
10
3.5620451885458504
20
12.08265565714434
30
0
10
4.4782490780461082
20
11.473066993395113
30
0
10
5.13856359284667
20
10.161712848108721
30
0
0
SPLINE
5
268
100
AcDbEntity
8
0
100
AcDbSpline
70
4
71
3
72
8
73
4
74
0
42
0.000000001
43
0.0000000001
44
0.0000000001
40
0
40
0
40
0
40
0
40
1
40
1
40
1
40
1
41
1
41
1
41
1
41
1
10
5.13856359284667
20
10.161712848108721
30
0
10
5.2816314013245647
20
9.8776712935149078
30
0
10
5.6751169578091387
20
9.3089973513979825
30
0
10
5.5235793207548012
20
8.9828080325368198
30
0
0
SPLINE
5
269
100
AcDbEntity
8
0
100
AcDbSpline
70
4
71
3
72
8
73
4
74
0
42
0.000000001
43
0.0000000001
44
0.0000000001
40
0
40
0
40
0
40
0
40
1
40
1
40
1
40
1
41
1
41
1
41
1
41
1
10
5.5235793207548012
20
8.9828080325368198
30
0
10
5.1844669077290151
20
8.2530504648107588
30
0
10
4.2374809895895815
20
8.2395374551592777
30
0
10
3.5967924033968357
20
8.3593847955620184
30
0
0
SPLINE
5
270
100
AcDbEntity
8
0
100
AcDbSpline
70
4
71
3
72
8
73
4
74
0
42
0.000000001
43
0.0000000001
44
0.0000000001
40
0
40
0
40
0
40
0
40
1
40
1
40
1
40
1
41
1
41
1
41
1
41
1
10
3.5967924033968357
20
8.3593847955620184
30
0
10
3.4122745456247694
20
8.3939182463252298
30
0
10
3.0847439259210185
20
8.3860897100121008
30
0
10
2.9526707476056169
20
8.5389686479090265
30
0
0
SPLINE
5
271
100
AcDbEntity
8
0
100
AcDbSpline
70
4
71
3
72
8
73
4
74
0
42
0.000000001
43
0.0000000001
44
0.0000000001
40
0
40
0
40
0
40
0
40
1
40
1
40
1
40
1
41
1
41
1
41
1
41
1
10
-8.1418523822873929
20
5.603745517995435
30
0
10
-8.0669404549961854
20
6.624730508201468
30
0
10
-7.4389584465529772
20
7.4840410398690738
30
0
10
-6.591605859606493
20
8.0064373505894419
30
0
0
SPLINE
5
272
100
AcDbEntity
8
0
100
AcDbSpline
70
4
71
3
72
8
73
4
74
0
42
0.000000001
43
0.0000000001
44
0.0000000001
40
0
40
0
40
0
40
0
40
1
40
1
40
1
40
1
41
1
41
1
41
1
41
1
10
-6.591605859606493
20
8.0064373505894419
30
0
10
-6.2006396000533393
20
8.2474733322375116
30
0
10
-5.8180385806388379
20
8.4275406767487056
30
0
10
-5.3582733127508098
20
8.4840588006247142
30
0
0
SPLINE
5
273
100
AcDbEntity
8
0
100
AcDbSpline
70
4
71
3
72
8
73
4
74
0
42
0.000000001
43
0.0000000001
44
0.0000000001
40
0
40
0
40
0
40
0
40
1
40
1
40
1
40
1
41
1
41
1
41
1
41
1
10
-5.3582733127508098
20
8.4840588006247142
30
0
10
-4.8247768659877206
20
8.5495871266724333
30
0
10
-4.1974921137964731
20
8.5112462897965457
30
0
10
-3.6959556917613989
20
8.3056547792514195
30
0
0
SPLINE
5
274
100
AcDbEntity
8
0
100
AcDbSpline
70
4
71
3
72
8
73
4
74
0
42
0.000000001
43
0.0000000001
44
0.0000000001
40
0
40
0
40
0
40
0
40
1
40
1
40
1
40
1
41
1
41
1
41
1
41
1
10
-3.6959556917613989
20
8.3056547792514195
30
0
10
-0.79505041363837181
20
7.1165622241401794
30
0
10
-1.7866497225940248
20
2.6591369519534824
30
0
10
-4.7147957015502184
20
2.3420624237018295
30
0
0
SPLINE
5
275
100
AcDbEntity
8
0
100
AcDbSpline
70
4
71
3
72
8
73
4
74
0
42
0.000000001
43
0.0000000001
44
0.0000000001
40
0
40
0
40
0
40
0
40
1
40
1
40
1
40
1
41
1
41
1
41
1
41
1
10
-4.7147957015502184
20
2.3420624237018295
30
0
10
-6.5203407660015245
20
2.1464994764332523
30
0
10
-8.2752127323416129
20
3.7860810389541344
30
0
10
-8.1418523822873929
20
5.603745517995435
30
0
0
SPLINE
5
276
100
AcDbEntity
8
0
100
AcDbSpline
70
4
71
3
72
8
73
4
74
0
42
0.000000001
43
0.0000000001
44
0.0000000001
40
0
40
0
40
0
40
0
40
1
40
1
40
1
40
1
41
1
41
1
41
1
41
1
10
-2.1790104946510991
20
3.3536628952219383
30
0
10
-0.62849607877865532
20
5.7012311164438589
30
0
10
-2.3404161425555503
20
9.2423437822015391
30
0
10
-5.3046506372053104
20
8.8520211085177962
30
0
0
SPLINE
5
277
100
AcDbEntity
8
0
100
AcDbSpline
70
4
71
3
72
8
73
4
74
0
42
0.000000001
43
0.0000000001
44
0.0000000001
40
0
40
0
40
0
40
0
40
1
40
1
40
1
40
1
41
1
41
1
41
1
41
1
10
-5.3046506372053104
20
8.8520211085177962
30
0
10
-6.0311898168631135
20
8.7563034216450664
30
0
10
-6.6558470139153965
20
8.5892674295060338
30
0
10
-7.2350834708070817
20
8.1065523390617056
30
0
0
SPLINE
5
278
100
AcDbEntity
8
0
100
AcDbSpline
70
4
71
3
72
8
73
4
74
0
42
0.000000001
43
0.0000000001
44
0.0000000001
40
0
40
0
40
0
40
0
40
1
40
1
40
1
40
1
41
1
41
1
41
1
41
1
10
-7.2350834708070817
20
8.1065523390617056
30
0
10
-8.1908098630418138
20
7.310140743417981
30
0
10
-8.7608232711164504
20
5.9261274507439188
30
0
10
-8.5582354671093732
20
4.6921508592976107
30
0
0
SPLINE
5
279
100
AcDbEntity
8
0
100
AcDbSpline
70
4
71
3
72
8
73
4
74
0
42
0.000000001
43
0.0000000001
44
0.0000000001
40
0
40
0
40
0
40
0
40
1
40
1
40
1
40
1
41
1
41
1
41
1
41
1
10
-8.5582354671093732
20
4.6921508592976107
30
0
10
-8.2703860676816614
20
2.9387275345652109
30
0
10
-6.3759867032272499
20
1.7284530684733701
30
0
10
-4.6611711911198466
20
1.9734569886605557
30
0
0
SPLINE
5
280
100
AcDbEntity
8
0
100
AcDbSpline
70
4
71
3
72
8
73
4
74
0
42
0.000000001
43
0.0000000001
44
0.0000000001
40
0
40
0
40
0
40
0
40
1
40
1
40
1
40
1
41
1
41
1
41
1
41
1
10
-4.6611711911198466
20
1.9734569886605557
30
0
10
-3.7473251286821396
20
2.1040292311493713
30
0
10
-2.7012462529450265
20
2.5629899020203384
30
0
10
-2.1790104946510991
20
3.3536628952219383
30
0
0
SPLINE
5
281
100
AcDbEntity
8
0
100
AcDbSpline
70
4
71
3
72
8
73
4
74
0
42
0.000000001
43
0.0000000001
44
0.0000000001
40
0
40
0
40
0
40
0
40
1
40
1
40
1
40
1
41
1
41
1
41
1
41
1
10
-5.0901581001384493
20
5.7646135446319269
30
0
10
-5.0315482075065603
20
5.9357248160751785
30
0
10
-5.0390547215243764
20
5.9944420494721706
30
0
10
-5.1974034512294427
20
6.0863523502322225
30
0
0
SPLINE
5
282
100
AcDbEntity
8
0
100
AcDbSpline
70
4
71
3
72
8
73
4
74
0
42
0.000000001
43
0.0000000001
44
0.0000000001
40
0
40
0
40
0
40
0
40
1
40
1
40
1
40
1
41
1
41
1
41
1
41
1
10
-5.1974034512294427
20
6.0863523502322225
30
0
10
-5.2560133438613299
20
5.9152410787889709
30
0
10
-5.2485068298435156
20
5.8565238453919788
30
0
10
-5.0901581001384493
20
5.7646135446319269
30
0
0
SPLINE
5
283
100
AcDbEntity
8
0
100
AcDbSpline
70
4
71
3
72
8
73
4
74
0
42
0.000000001
43
0.0000000001
44
0.0000000001
40
0
40
0
40
0
40
0
40
1
40
1
40
1
40
1
41
1
41
1
41
1
41
1
10
-1.4437794653471481
20
-2.7727846672822265
30
0
10
-1.7512547933826705
20
-2.7069343189391937
30
0
10
-2.1003948522425708
20
-2.5764703346579187
30
0
10
-2.4089967995904704
20
-2.6542235811758674
30
0
0
LINE
5
284
100
AcDbEntity
8
0
100
AcDbLine
10
-2.4089967995904709
20
-2.6542235811758674
30
0
11
-2.4089967995904704
21
-2.7078462567213646
31
0
0
LINE
5
285
100
AcDbEntity
8
0
100
AcDbLine
10
-2.4089967995904704
20
-2.7078462567213646
30
0
11
-0.58580931707969408
21
-3.3651588998687454
31
0
0
LINE
5
286
100
AcDbEntity
8
0
100
AcDbLine
10
-0.58580931707969408
20
-3.3651588998687454
30
0
11
2.2562181752199018
21
-4.9600188133658696
31
0
0
SPLINE
5
287
100
AcDbEntity
8
0
100
AcDbSpline
70
4
71
3
72
8
73
4
74
0
42
0.000000001
43
0.0000000001
44
0.0000000001
40
0
40
0
40
0
40
0
40
1
40
1
40
1
40
1
41
1
41
1
41
1
41
1
10
2.2562181752199018
20
-4.9600188133658696
30
0
10
2.120121094376739
20
-4.5018627395119681
30
0
10
1.7258300234326596
20
-4.2698342077083007
30
0
10
1.3446235165220766
20
-4.021882544971711
30
0
0
SPLINE
5
288
100
AcDbEntity
8
0
100
AcDbSpline
70
4
71
3
72
8
73
4
74
0
42
0.000000001
43
0.0000000001
44
0.0000000001
40
0
40
0
40
0
40
0
40
1
40
1
40
1
40
1
41
1
41
1
41
1
41
1
10
1.3446235165220766
20
-4.021882544971711
30
0
10
0.51180230033190943
20
-3.4801804930539726
30
0
10
-0.46671244459024708
20
-2.9820220940711595
30
0
10
-1.4437794653471481
20
-2.7727846672822265
30
0
0
SPLINE
5
289
100
AcDbEntity
8
0
100
AcDbSpline
70
4
71
3
72
8
73
4
74
0
42
0.000000001
43
0.0000000001
44
0.0000000001
40
0
40
0
40
0
40
0
40
1
40
1
40
1
40
1
41
1
41
1
41
1
41
1
10
-8.1418523822873929
20
5.603745517995435
30
0
10
-8.0669404549961854
20
6.624730508201468
30
0
10
-7.4389584465529772
20
7.4840410398690738
30
0
10
-6.591605859606493
20
8.0064373505894419
30
0
0
SPLINE
5
290
100
AcDbEntity
8
0
100
AcDbSpline
70
4
71
3
72
8
73
4
74
0
42
0.000000001
43
0.0000000001
44
0.0000000001
40
0
40
0
40
0
40
0
40
1
40
1
40
1
40
1
41
1
41
1
41
1
41
1
10
-6.591605859606493
20
8.0064373505894419
30
0
10
-6.2006396000533393
20
8.2474733322375116
30
0
10
-5.8180385806388379
20
8.4275406767487056
30
0
10
-5.3582733127508098
20
8.4840588006247142
30
0
0
SPLINE
5
291
100
AcDbEntity
8
0
100
AcDbSpline
70
4
71
3
72
8
73
4
74
0
42
0.000000001
43
0.0000000001
44
0.0000000001
40
0
40
0
40
0
40
0
40
1
40
1
40
1
40
1
41
1
41
1
41
1
41
1
10
-5.3582733127508098
20
8.4840588006247142
30
0
10
-4.8247768659877206
20
8.5495871266724333
30
0
10
-4.1974921137964731
20
8.5112462897965457
30
0
10
-3.6959556917613989
20
8.3056547792514195
30
0
0
SPLINE
5
292
100
AcDbEntity
8
0
100
AcDbSpline
70
4
71
3
72
8
73
4
74
0
42
0.000000001
43
0.0000000001
44
0.0000000001
40
0
40
0
40
0
40
0
40
1
40
1
40
1
40
1
41
1
41
1
41
1
41
1
10
-3.6959556917613989
20
8.3056547792514195
30
0
10
-0.79505041363837181
20
7.1165622241401794
30
0
10
-1.7866497225940248
20
2.6591369519534824
30
0
10
-4.7147957015502184
20
2.3420624237018295
30
0
0
SPLINE
5
293
100
AcDbEntity
8
0
100
AcDbSpline
70
4
71
3
72
8
73
4
74
0
42
0.000000001
43
0.0000000001
44
0.0000000001
40
0
40
0
40
0
40
0
40
1
40
1
40
1
40
1
41
1
41
1
41
1
41
1
10
-4.7147957015502184
20
2.3420624237018295
30
0
10
-6.5203407660015245
20
2.1464994764332523
30
0
10
-8.2752127323416129
20
3.7860810389541344
30
0
10
-8.1418523822873929
20
5.603745517995435
30
0
0
SPLINE
5
294
100
AcDbEntity
8
0
100
AcDbSpline
70
4
71
3
72
8
73
4
74
0
42
0.000000001
43
0.0000000001
44
0.0000000001
40
0
40
0
40
0
40
0
40
1
40
1
40
1
40
1
41
1
41
1
41
1
41
1
10
-2.1790104946510991
20
3.3536628952219383
30
0
10
-0.62849607877865532
20
5.7012311164438589
30
0
10
-2.3404161425555503
20
9.2423437822015391
30
0
10
-5.3046506372053104
20
8.8520211085177962
30
0
0
SPLINE
5
295
100
AcDbEntity
8
0
100
AcDbSpline
70
4
71
3
72
8
73
4
74
0
42
0.000000001
43
0.0000000001
44
0.0000000001
40
0
40
0
40
0
40
0
40
1
40
1
40
1
40
1
41
1
41
1
41
1
41
1
10
-5.3046506372053104
20
8.8520211085177962
30
0
10
-6.0311898168631135
20
8.7563034216450664
30
0
10
-6.6558470139153965
20
8.5892674295060338
30
0
10
-7.2350834708070817
20
8.1065523390617056
30
0
0
SPLINE
5
296
100
AcDbEntity
8
0
100
AcDbSpline
70
4
71
3
72
8
73
4
74
0
42
0.000000001
43
0.0000000001
44
0.0000000001
40
0
40
0
40
0
40
0
40
1
40
1
40
1
40
1
41
1
41
1
41
1
41
1
10
-7.2350834708070817
20
8.1065523390617056
30
0
10
-8.1908098630418138
20
7.310140743417981
30
0
10
-8.7608232711164504
20
5.9261274507439188
30
0
10
-8.5582354671093732
20
4.6921508592976107
30
0
0
SPLINE
5
297
100
AcDbEntity
8
0
100
AcDbSpline
70
4
71
3
72
8
73
4
74
0
42
0.000000001
43
0.0000000001
44
0.0000000001
40
0
40
0
40
0
40
0
40
1
40
1
40
1
40
1
41
1
41
1
41
1
41
1
10
-8.5582354671093732
20
4.6921508592976107
30
0
10
-8.2703860676816614
20
2.9387275345652109
30
0
10
-6.3759867032272499
20
1.7284530684733701
30
0
10
-4.6611711911198466
20
1.9734569886605557
30
0
0
SPLINE
5
298
100
AcDbEntity
8
0
100
AcDbSpline
70
4
71
3
72
8
73
4
74
0
42
0.000000001
43
0.0000000001
44
0.0000000001
40
0
40
0
40
0
40
0
40
1
40
1
40
1
40
1
41
1
41
1
41
1
41
1
10
-4.6611711911198466
20
1.9734569886605557
30
0
10
-3.7473251286821396
20
2.1040292311493713
30
0
10
-2.7012462529450265
20
2.5629899020203384
30
0
10
-2.1790104946510991
20
3.3536628952219383
30
0
0
SPLINE
5
299
100
AcDbEntity
8
0
100
AcDbSpline
70
4
71
3
72
8
73
4
74
0
42
0.000000001
43
0.0000000001
44
0.0000000001
40
0
40
0
40
0
40
0
40
1
40
1
40
1
40
1
41
1
41
1
41
1
41
1
10
-5.0901581001384493
20
5.7646135446319269
30
0
10
-5.0315482075065603
20
5.9357248160751785
30
0
10
-5.0390547215243764
20
5.9944420494721706
30
0
10
-5.1974034512294427
20
6.0863523502322225
30
0
0
SPLINE
5
300
100
AcDbEntity
8
0
100
AcDbSpline
70
4
71
3
72
8
73
4
74
0
42
0.000000001
43
0.0000000001
44
0.0000000001
40
0
40
0
40
0
40
0
40
1
40
1
40
1
40
1
41
1
41
1
41
1
41
1
10
-5.1974034512294427
20
6.0863523502322225
30
0
10
-5.2560133438613299
20
5.9152410787889709
30
0
10
-5.2485068298435156
20
5.8565238453919788
30
0
10
-5.0901581001384493
20
5.7646135446319269
30
0
0
SPLINE
5
301
100
AcDbEntity
8
0
100
AcDbSpline
70
4
71
3
72
8
73
4
74
0
42
0.000000001
43
0.0000000001
44
0.0000000001
40
0
40
0
40
0
40
0
40
1
40
1
40
1
40
1
41
1
41
1
41
1
41
1
10
-1.4437794653471481
20
-2.7727846672822265
30
0
10
-1.7512547933826705
20
-2.7069343189391937
30
0
10
-2.1003948522425708
20
-2.5764703346579187
30
0
10
-2.4089967995904704
20
-2.6542235811758674
30
0
0
LINE
5
302
100
AcDbEntity
8
0
100
AcDbLine
10
-2.4089967995904709
20
-2.6542235811758674
30
0
11
-2.4089967995904704
21
-2.7078462567213646
31
0
0
LINE
5
303
100
AcDbEntity
8
0
100
AcDbLine
10
-2.4089967995904704
20
-2.7078462567213646
30
0
11
-0.58580931707969408
21
-3.3651588998687454
31
0
0
LINE
5
304
100
AcDbEntity
8
0
100
AcDbLine
10
-0.58580931707969408
20
-3.3651588998687454
30
0
11
2.2562181752199018
21
-4.9600188133658696
31
0
0
SPLINE
5
305
100
AcDbEntity
8
0
100
AcDbSpline
70
4
71
3
72
8
73
4
74
0
42
0.000000001
43
0.0000000001
44
0.0000000001
40
0
40
0
40
0
40
0
40
1
40
1
40
1
40
1
41
1
41
1
41
1
41
1
10
2.2562181752199018
20
-4.9600188133658696
30
0
10
2.120121094376739
20
-4.5018627395119681
30
0
10
1.7258300234326596
20
-4.2698342077083007
30
0
10
1.3446235165220766
20
-4.021882544971711
30
0
0
SPLINE
5
306
100
AcDbEntity
8
0
100
AcDbSpline
70
4
71
3
72
8
73
4
74
0
42
0.000000001
43
0.0000000001
44
0.0000000001
40
0
40
0
40
0
40
0
40
1
40
1
40
1
40
1
41
1
41
1
41
1
41
1
10
1.3446235165220766
20
-4.021882544971711
30
0
10
0.51180230033190943
20
-3.4801804930539726
30
0
10
-0.46671244459024708
20
-2.9820220940711595
30
0
10
-1.4437794653471481
20
-2.7727846672822265
30
0
0
SPLINE
5
307
100
AcDbEntity
8
0
100
AcDbSpline
70
4
71
3
72
8
73
4
74
0
42
0.000000001
43
0.0000000001
44
0.0000000001
40
0
40
0
40
0
40
0
40
1
40
1
40
1
40
1
41
1
41
1
41
1
41
1
10
-8.1418523822873929
20
5.603745517995435
30
0
10
-8.0669404549961854
20
6.624730508201468
30
0
10
-7.4389584465529772
20
7.4840410398690738
30
0
10
-6.591605859606493
20
8.0064373505894419
30
0
0
SPLINE
5
308
100
AcDbEntity
8
0
100
AcDbSpline
70
4
71
3
72
8
73
4
74
0
42
0.000000001
43
0.0000000001
44
0.0000000001
40
0
40
0
40
0
40
0
40
1
40
1
40
1
40
1
41
1
41
1
41
1
41
1
10
-6.591605859606493
20
8.0064373505894419
30
0
10
-6.2006396000533393
20
8.2474733322375116
30
0
10
-5.8180385806388379
20
8.4275406767487056
30
0
10
-5.3582733127508098
20
8.4840588006247142
30
0
0
SPLINE
5
309
100
AcDbEntity
8
0
100
AcDbSpline
70
4
71
3
72
8
73
4
74
0
42
0.000000001
43
0.0000000001
44
0.0000000001
40
0
40
0
40
0
40
0
40
1
40
1
40
1
40
1
41
1
41
1
41
1
41
1
10
-5.3582733127508098
20
8.4840588006247142
30
0
10
-4.8247768659877206
20
8.5495871266724333
30
0
10
-4.1974921137964731
20
8.5112462897965457
30
0
10
-3.6959556917613989
20
8.3056547792514195
30
0
0
SPLINE
5
310
100
AcDbEntity
8
0
100
AcDbSpline
70
4
71
3
72
8
73
4
74
0
42
0.000000001
43
0.0000000001
44
0.0000000001
40
0
40
0
40
0
40
0
40
1
40
1
40
1
40
1
41
1
41
1
41
1
41
1
10
-3.6959556917613989
20
8.3056547792514195
30
0
10
-0.79505041363837181
20
7.1165622241401794
30
0
10
-1.7866497225940248
20
2.6591369519534824
30
0
10
-4.7147957015502184
20
2.3420624237018295
30
0
0
SPLINE
5
311
100
AcDbEntity
8
0
100
AcDbSpline
70
4
71
3
72
8
73
4
74
0
42
0.000000001
43
0.0000000001
44
0.0000000001
40
0
40
0
40
0
40
0
40
1
40
1
40
1
40
1
41
1
41
1
41
1
41
1
10
-4.7147957015502184
20
2.3420624237018295
30
0
10
-6.5203407660015245
20
2.1464994764332523
30
0
10
-8.2752127323416129
20
3.7860810389541344
30
0
10
-8.1418523822873929
20
5.603745517995435
30
0
0
SPLINE
5
312
100
AcDbEntity
8
0
100
AcDbSpline
70
4
71
3
72
8
73
4
74
0
42
0.000000001
43
0.0000000001
44
0.0000000001
40
0
40
0
40
0
40
0
40
1
40
1
40
1
40
1
41
1
41
1
41
1
41
1
10
-2.1790104946510991
20
3.3536628952219383
30
0
10
-0.62849607877865532
20
5.7012311164438589
30
0
10
-2.3404161425555503
20
9.2423437822015391
30
0
10
-5.3046506372053104
20
8.8520211085177962
30
0
0
SPLINE
5
313
100
AcDbEntity
8
0
100
AcDbSpline
70
4
71
3
72
8
73
4
74
0
42
0.000000001
43
0.0000000001
44
0.0000000001
40
0
40
0
40
0
40
0
40
1
40
1
40
1
40
1
41
1
41
1
41
1
41
1
10
-5.3046506372053104
20
8.8520211085177962
30
0
10
-6.0311898168631135
20
8.7563034216450664
30
0
10
-6.6558470139153965
20
8.5892674295060338
30
0
10
-7.2350834708070817
20
8.1065523390617056
30
0
0
SPLINE
5
314
100
AcDbEntity
8
0
100
AcDbSpline
70
4
71
3
72
8
73
4
74
0
42
0.000000001
43
0.0000000001
44
0.0000000001
40
0
40
0
40
0
40
0
40
1
40
1
40
1
40
1
41
1
41
1
41
1
41
1
10
-7.2350834708070817
20
8.1065523390617056
30
0
10
-8.1908098630418138
20
7.310140743417981
30
0
10
-8.7608232711164504
20
5.9261274507439188
30
0
10
-8.5582354671093732
20
4.6921508592976107
30
0
0
SPLINE
5
315
100
AcDbEntity
8
0
100
AcDbSpline
70
4
71
3
72
8
73
4
74
0
42
0.000000001
43
0.0000000001
44
0.0000000001
40
0
40
0
40
0
40
0
40
1
40
1
40
1
40
1
41
1
41
1
41
1
41
1
10
-8.5582354671093732
20
4.6921508592976107
30
0
10
-8.2703860676816614
20
2.9387275345652109
30
0
10
-6.3759867032272499
20
1.7284530684733701
30
0
10
-4.6611711911198466
20
1.9734569886605557
30
0
0
SPLINE
5
316
100
AcDbEntity
8
0
100
AcDbSpline
70
4
71
3
72
8
73
4
74
0
42
0.000000001
43
0.0000000001
44
0.0000000001
40
0
40
0
40
0
40
0
40
1
40
1
40
1
40
1
41
1
41
1
41
1
41
1
10
-4.6611711911198466
20
1.9734569886605557
30
0
10
-3.7473251286821396
20
2.1040292311493713
30
0
10
-2.7012462529450265
20
2.5629899020203384
30
0
10
-2.1790104946510991
20
3.3536628952219383
30
0
0
SPLINE
5
317
100
AcDbEntity
8
0
100
AcDbSpline
70
4
71
3
72
8
73
4
74
0
42
0.000000001
43
0.0000000001
44
0.0000000001
40
0
40
0
40
0
40
0
40
1
40
1
40
1
40
1
41
1
41
1
41
1
41
1
10
-5.0901581001384493
20
5.7646135446319269
30
0
10
-5.0315482075065603
20
5.9357248160751785
30
0
10
-5.0390547215243764
20
5.9944420494721706
30
0
10
-5.1974034512294427
20
6.0863523502322225
30
0
0
SPLINE
5
318
100
AcDbEntity
8
0
100
AcDbSpline
70
4
71
3
72
8
73
4
74
0
42
0.000000001
43
0.0000000001
44
0.0000000001
40
0
40
0
40
0
40
0
40
1
40
1
40
1
40
1
41
1
41
1
41
1
41
1
10
-5.1974034512294427
20
6.0863523502322225
30
0
10
-5.2560133438613299
20
5.9152410787889709
30
0
10
-5.2485068298435156
20
5.8565238453919788
30
0
10
-5.0901581001384493
20
5.7646135446319269
30
0
0
SPLINE
5
319
100
AcDbEntity
8
0
100
AcDbSpline
70
4
71
3
72
8
73
4
74
0
42
0.000000001
43
0.0000000001
44
0.0000000001
40
0
40
0
40
0
40
0
40
1
40
1
40
1
40
1
41
1
41
1
41
1
41
1
10
-1.4437794653471481
20
-2.7727846672822265
30
0
10
-1.7512547933826705
20
-2.7069343189391937
30
0
10
-2.1003948522425708
20
-2.5764703346579187
30
0
10
-2.4089967995904704
20
-2.6542235811758674
30
0
0
LINE
5
320
100
AcDbEntity
8
0
100
AcDbLine
10
-2.4089967995904709
20
-2.6542235811758674
30
0
11
-2.4089967995904704
21
-2.7078462567213646
31
0
0
LINE
5
321
100
AcDbEntity
8
0
100
AcDbLine
10
-2.4089967995904704
20
-2.7078462567213646
30
0
11
-0.58580931707969408
21
-3.3651588998687454
31
0
0
LINE
5
322
100
AcDbEntity
8
0
100
AcDbLine
10
-0.58580931707969408
20
-3.3651588998687454
30
0
11
2.2562181752199018
21
-4.9600188133658696
31
0
0
SPLINE
5
323
100
AcDbEntity
8
0
100
AcDbSpline
70
4
71
3
72
8
73
4
74
0
42
0.000000001
43
0.0000000001
44
0.0000000001
40
0
40
0
40
0
40
0
40
1
40
1
40
1
40
1
41
1
41
1
41
1
41
1
10
2.2562181752199018
20
-4.9600188133658696
30
0
10
2.120121094376739
20
-4.5018627395119681
30
0
10
1.7258300234326596
20
-4.2698342077083007
30
0
10
1.3446235165220766
20
-4.021882544971711
30
0
0
SPLINE
5
324
100
AcDbEntity
8
0
100
AcDbSpline
70
4
71
3
72
8
73
4
74
0
42
0.000000001
43
0.0000000001
44
0.0000000001
40
0
40
0
40
0
40
0
40
1
40
1
40
1
40
1
41
1
41
1
41
1
41
1
10
1.3446235165220766
20
-4.021882544971711
30
0
10
0.51180230033190943
20
-3.4801804930539726
30
0
10
-0.46671244459024708
20
-2.9820220940711595
30
0
10
-1.4437794653471481
20
-2.7727846672822265
30
0
0
SPLINE
5
325
100
AcDbEntity
8
0
100
AcDbSpline
70
4
71
3
72
8
73
4
74
0
42
0.000000001
43
0.0000000001
44
0.0000000001
40
0
40
0
40
0
40
0
40
1
40
1
40
1
40
1
41
1
41
1
41
1
41
1
10
-8.1418523822873929
20
5.603745517995435
30
0
10
-8.0669404549961854
20
6.624730508201468
30
0
10
-7.4389584465529772
20
7.4840410398690738
30
0
10
-6.591605859606493
20
8.0064373505894419
30
0
0
SPLINE
5
326
100
AcDbEntity
8
0
100
AcDbSpline
70
4
71
3
72
8
73
4
74
0
42
0.000000001
43
0.0000000001
44
0.0000000001
40
0
40
0
40
0
40
0
40
1
40
1
40
1
40
1
41
1
41
1
41
1
41
1
10
-6.591605859606493
20
8.0064373505894419
30
0
10
-6.2006396000533393
20
8.2474733322375116
30
0
10
-5.8180385806388379
20
8.4275406767487056
30
0
10
-5.3582733127508098
20
8.4840588006247142
30
0
0
SPLINE
5
327
100
AcDbEntity
8
0
100
AcDbSpline
70
4
71
3
72
8
73
4
74
0
42
0.000000001
43
0.0000000001
44
0.0000000001
40
0
40
0
40
0
40
0
40
1
40
1
40
1
40
1
41
1
41
1
41
1
41
1
10
-5.3582733127508098
20
8.4840588006247142
30
0
10
-4.8247768659877206
20
8.5495871266724333
30
0
10
-4.1974921137964731
20
8.5112462897965457
30
0
10
-3.6959556917613989
20
8.3056547792514195
30
0
0
SPLINE
5
328
100
AcDbEntity
8
0
100
AcDbSpline
70
4
71
3
72
8
73
4
74
0
42
0.000000001
43
0.0000000001
44
0.0000000001
40
0
40
0
40
0
40
0
40
1
40
1
40
1
40
1
41
1
41
1
41
1
41
1
10
-3.6959556917613989
20
8.3056547792514195
30
0
10
-0.79505041363837181
20
7.1165622241401794
30
0
10
-1.7866497225940248
20
2.6591369519534824
30
0
10
-4.7147957015502184
20
2.3420624237018295
30
0
0
SPLINE
5
329
100
AcDbEntity
8
0
100
AcDbSpline
70
4
71
3
72
8
73
4
74
0
42
0.000000001
43
0.0000000001
44
0.0000000001
40
0
40
0
40
0
40
0
40
1
40
1
40
1
40
1
41
1
41
1
41
1
41
1
10
-4.7147957015502184
20
2.3420624237018295
30
0
10
-6.5203407660015245
20
2.1464994764332523
30
0
10
-8.2752127323416129
20
3.7860810389541344
30
0
10
-8.1418523822873929
20
5.603745517995435
30
0
0
SPLINE
5
330
100
AcDbEntity
8
0
100
AcDbSpline
70
4
71
3
72
8
73
4
74
0
42
0.000000001
43
0.0000000001
44
0.0000000001
40
0
40
0
40
0
40
0
40
1
40
1
40
1
40
1
41
1
41
1
41
1
41
1
10
-2.1790104946510991
20
3.3536628952219383
30
0
10
-0.62849607877865532
20
5.7012311164438589
30
0
10
-2.3404161425555503
20
9.2423437822015391
30
0
10
-5.3046506372053104
20
8.8520211085177962
30
0
0
SPLINE
5
331
100
AcDbEntity
8
0
100
AcDbSpline
70
4
71
3
72
8
73
4
74
0
42
0.000000001
43
0.0000000001
44
0.0000000001
40
0
40
0
40
0
40
0
40
1
40
1
40
1
40
1
41
1
41
1
41
1
41
1
10
-5.3046506372053104
20
8.8520211085177962
30
0
10
-6.0311898168631135
20
8.7563034216450664
30
0
10
-6.6558470139153965
20
8.5892674295060338
30
0
10
-7.2350834708070817
20
8.1065523390617056
30
0
0
SPLINE
5
332
100
AcDbEntity
8
0
100
AcDbSpline
70
4
71
3
72
8
73
4
74
0
42
0.000000001
43
0.0000000001
44
0.0000000001
40
0
40
0
40
0
40
0
40
1
40
1
40
1
40
1
41
1
41
1
41
1
41
1
10
-7.2350834708070817
20
8.1065523390617056
30
0
10
-8.1908098630418138
20
7.310140743417981
30
0
10
-8.7608232711164504
20
5.9261274507439188
30
0
10
-8.5582354671093732
20
4.6921508592976107
30
0
0
SPLINE
5
333
100
AcDbEntity
8
0
100
AcDbSpline
70
4
71
3
72
8
73
4
74
0
42
0.000000001
43
0.0000000001
44
0.0000000001
40
0
40
0
40
0
40
0
40
1
40
1
40
1
40
1
41
1
41
1
41
1
41
1
10
-8.5582354671093732
20
4.6921508592976107
30
0
10
-8.2703860676816614
20
2.9387275345652109
30
0
10
-6.3759867032272499
20
1.7284530684733701
30
0
10
-4.6611711911198466
20
1.9734569886605557
30
0
0
SPLINE
5
334
100
AcDbEntity
8
0
100
AcDbSpline
70
4
71
3
72
8
73
4
74
0
42
0.000000001
43
0.0000000001
44
0.0000000001
40
0
40
0
40
0
40
0
40
1
40
1
40
1
40
1
41
1
41
1
41
1
41
1
10
-4.6611711911198466
20
1.9734569886605557
30
0
10
-3.7473251286821396
20
2.1040292311493713
30
0
10
-2.7012462529450265
20
2.5629899020203384
30
0
10
-2.1790104946510991
20
3.3536628952219383
30
0
0
SPLINE
5
335
100
AcDbEntity
8
0
100
AcDbSpline
70
4
71
3
72
8
73
4
74
0
42
0.000000001
43
0.0000000001
44
0.0000000001
40
0
40
0
40
0
40
0
40
1
40
1
40
1
40
1
41
1
41
1
41
1
41
1
10
-5.0901581001384493
20
5.7646135446319269
30
0
10
-5.0315482075065603
20
5.9357248160751785
30
0
10
-5.0390547215243764
20
5.9944420494721706
30
0
10
-5.1974034512294427
20
6.0863523502322225
30
0
0
SPLINE
5
336
100
AcDbEntity
8
0
100
AcDbSpline
70
4
71
3
72
8
73
4
74
0
42
0.000000001
43
0.0000000001
44
0.0000000001
40
0
40
0
40
0
40
0
40
1
40
1
40
1
40
1
41
1
41
1
41
1
41
1
10
-5.1974034512294427
20
6.0863523502322225
30
0
10
-5.2560133438613299
20
5.9152410787889709
30
0
10
-5.2485068298435156
20
5.8565238453919788
30
0
10
-5.0901581001384493
20
5.7646135446319269
30
0
0
SPLINE
5
337
100
AcDbEntity
8
0
100
AcDbSpline
70
4
71
3
72
8
73
4
74
0
42
0.000000001
43
0.0000000001
44
0.0000000001
40
0
40
0
40
0
40
0
40
1
40
1
40
1
40
1
41
1
41
1
41
1
41
1
10
-1.4437794653471481
20
-2.7727846672822265
30
0
10
-1.7512547933826705
20
-2.7069343189391937
30
0
10
-2.1003948522425708
20
-2.5764703346579187
30
0
10
-2.4089967995904704
20
-2.6542235811758674
30
0
0
LINE
5
338
100
AcDbEntity
8
0
100
AcDbLine
10
-2.4089967995904709
20
-2.6542235811758674
30
0
11
-2.4089967995904704
21
-2.7078462567213646
31
0
0
LINE
5
339
100
AcDbEntity
8
0
100
AcDbLine
10
-2.4089967995904704
20
-2.7078462567213646
30
0
11
-0.58580931707969408
21
-3.3651588998687454
31
0
0
LINE
5
340
100
AcDbEntity
8
0
100
AcDbLine
10
-0.58580931707969408
20
-3.3651588998687454
30
0
11
2.2562181752199018
21
-4.9600188133658696
31
0
0
SPLINE
5
341
100
AcDbEntity
8
0
100
AcDbSpline
70
4
71
3
72
8
73
4
74
0
42
0.000000001
43
0.0000000001
44
0.0000000001
40
0
40
0
40
0
40
0
40
1
40
1
40
1
40
1
41
1
41
1
41
1
41
1
10
2.2562181752199018
20
-4.9600188133658696
30
0
10
2.120121094376739
20
-4.5018627395119681
30
0
10
1.7258300234326596
20
-4.2698342077083007
30
0
10
1.3446235165220766
20
-4.021882544971711
30
0
0
SPLINE
5
342
100
AcDbEntity
8
0
100
AcDbSpline
70
4
71
3
72
8
73
4
74
0
42
0.000000001
43
0.0000000001
44
0.0000000001
40
0
40
0
40
0
40
0
40
1
40
1
40
1
40
1
41
1
41
1
41
1
41
1
10
1.3446235165220766
20
-4.021882544971711
30
0
10
0.51180230033190943
20
-3.4801804930539726
30
0
10
-0.46671244459024708
20
-2.9820220940711595
30
0
10
-1.4437794653471481
20
-2.7727846672822265
30
0
0
SPLINE
5
343
100
AcDbEntity
8
0
100
AcDbSpline
70
4
71
3
72
8
73
4
74
0
42
0.000000001
43
0.0000000001
44
0.0000000001
40
0
40
0
40
0
40
0
40
1
40
1
40
1
40
1
41
1
41
1
41
1
41
1
10
-8.1418523822873929
20
5.603745517995435
30
0
10
-8.0669404549961854
20
6.624730508201468
30
0
10
-7.4389584465529772
20
7.4840410398690738
30
0
10
-6.591605859606493
20
8.0064373505894419
30
0
0
SPLINE
5
344
100
AcDbEntity
8
0
100
AcDbSpline
70
4
71
3
72
8
73
4
74
0
42
0.000000001
43
0.0000000001
44
0.0000000001
40
0
40
0
40
0
40
0
40
1
40
1
40
1
40
1
41
1
41
1
41
1
41
1
10
-6.591605859606493
20
8.0064373505894419
30
0
10
-6.2006396000533393
20
8.2474733322375116
30
0
10
-5.8180385806388379
20
8.4275406767487056
30
0
10
-5.3582733127508098
20
8.4840588006247142
30
0
0
SPLINE
5
345
100
AcDbEntity
8
0
100
AcDbSpline
70
4
71
3
72
8
73
4
74
0
42
0.000000001
43
0.0000000001
44
0.0000000001
40
0
40
0
40
0
40
0
40
1
40
1
40
1
40
1
41
1
41
1
41
1
41
1
10
-5.3582733127508098
20
8.4840588006247142
30
0
10
-4.8247768659877206
20
8.5495871266724333
30
0
10
-4.1974921137964731
20
8.5112462897965457
30
0
10
-3.6959556917613989
20
8.3056547792514195
30
0
0
SPLINE
5
346
100
AcDbEntity
8
0
100
AcDbSpline
70
4
71
3
72
8
73
4
74
0
42
0.000000001
43
0.0000000001
44
0.0000000001
40
0
40
0
40
0
40
0
40
1
40
1
40
1
40
1
41
1
41
1
41
1
41
1
10
-3.6959556917613989
20
8.3056547792514195
30
0
10
-0.79505041363837181
20
7.1165622241401794
30
0
10
-1.7866497225940248
20
2.6591369519534824
30
0
10
-4.7147957015502184
20
2.3420624237018295
30
0
0
SPLINE
5
347
100
AcDbEntity
8
0
100
AcDbSpline
70
4
71
3
72
8
73
4
74
0
42
0.000000001
43
0.0000000001
44
0.0000000001
40
0
40
0
40
0
40
0
40
1
40
1
40
1
40
1
41
1
41
1
41
1
41
1
10
-4.7147957015502184
20
2.3420624237018295
30
0
10
-6.5203407660015245
20
2.1464994764332523
30
0
10
-8.2752127323416129
20
3.7860810389541344
30
0
10
-8.1418523822873929
20
5.603745517995435
30
0
0
SPLINE
5
348
100
AcDbEntity
8
0
100
AcDbSpline
70
4
71
3
72
8
73
4
74
0
42
0.000000001
43
0.0000000001
44
0.0000000001
40
0
40
0
40
0
40
0
40
1
40
1
40
1
40
1
41
1
41
1
41
1
41
1
10
-2.1790104946510991
20
3.3536628952219383
30
0
10
-0.62849607877865532
20
5.7012311164438589
30
0
10
-2.3404161425555503
20
9.2423437822015391
30
0
10
-5.3046506372053104
20
8.8520211085177962
30
0
0
SPLINE
5
349
100
AcDbEntity
8
0
100
AcDbSpline
70
4
71
3
72
8
73
4
74
0
42
0.000000001
43
0.0000000001
44
0.0000000001
40
0
40
0
40
0
40
0
40
1
40
1
40
1
40
1
41
1
41
1
41
1
41
1
10
-5.3046506372053104
20
8.8520211085177962
30
0
10
-6.0311898168631135
20
8.7563034216450664
30
0
10
-6.6558470139153965
20
8.5892674295060338
30
0
10
-7.2350834708070817
20
8.1065523390617056
30
0
0
SPLINE
5
350
100
AcDbEntity
8
0
100
AcDbSpline
70
4
71
3
72
8
73
4
74
0
42
0.000000001
43
0.0000000001
44
0.0000000001
40
0
40
0
40
0
40
0
40
1
40
1
40
1
40
1
41
1
41
1
41
1
41
1
10
-7.2350834708070817
20
8.1065523390617056
30
0
10
-8.1908098630418138
20
7.310140743417981
30
0
10
-8.7608232711164504
20
5.9261274507439188
30
0
10
-8.5582354671093732
20
4.6921508592976107
30
0
0
SPLINE
5
351
100
AcDbEntity
8
0
100
AcDbSpline
70
4
71
3
72
8
73
4
74
0
42
0.000000001
43
0.0000000001
44
0.0000000001
40
0
40
0
40
0
40
0
40
1
40
1
40
1
40
1
41
1
41
1
41
1
41
1
10
-8.5582354671093732
20
4.6921508592976107
30
0
10
-8.2703860676816614
20
2.9387275345652109
30
0
10
-6.3759867032272499
20
1.7284530684733701
30
0
10
-4.6611711911198466
20
1.9734569886605557
30
0
0
SPLINE
5
352
100
AcDbEntity
8
0
100
AcDbSpline
70
4
71
3
72
8
73
4
74
0
42
0.000000001
43
0.0000000001
44
0.0000000001
40
0
40
0
40
0
40
0
40
1
40
1
40
1
40
1
41
1
41
1
41
1
41
1
10
-4.6611711911198466
20
1.9734569886605557
30
0
10
-3.7473251286821396
20
2.1040292311493713
30
0
10
-2.7012462529450265
20
2.5629899020203384
30
0
10
-2.1790104946510991
20
3.3536628952219383
30
0
0
SPLINE
5
353
100
AcDbEntity
8
0
100
AcDbSpline
70
4
71
3
72
8
73
4
74
0
42
0.000000001
43
0.0000000001
44
0.0000000001
40
0
40
0
40
0
40
0
40
1
40
1
40
1
40
1
41
1
41
1
41
1
41
1
10
-5.0901581001384493
20
5.7646135446319269
30
0
10
-5.0315482075065603
20
5.9357248160751785
30
0
10
-5.0390547215243764
20
5.9944420494721706
30
0
10
-5.1974034512294427
20
6.0863523502322225
30
0
0
SPLINE
5
354
100
AcDbEntity
8
0
100
AcDbSpline
70
4
71
3
72
8
73
4
74
0
42
0.000000001
43
0.0000000001
44
0.0000000001
40
0
40
0
40
0
40
0
40
1
40
1
40
1
40
1
41
1
41
1
41
1
41
1
10
-5.1974034512294427
20
6.0863523502322225
30
0
10
-5.2560133438613299
20
5.9152410787889709
30
0
10
-5.2485068298435156
20
5.8565238453919788
30
0
10
-5.0901581001384493
20
5.7646135446319269
30
0
0
SPLINE
5
355
100
AcDbEntity
8
0
100
AcDbSpline
70
4
71
3
72
8
73
4
74
0
42
0.000000001
43
0.0000000001
44
0.0000000001
40
0
40
0
40
0
40
0
40
1
40
1
40
1
40
1
41
1
41
1
41
1
41
1
10
-1.4437794653471481
20
-2.7727846672822265
30
0
10
-1.7512547933826705
20
-2.7069343189391937
30
0
10
-2.1003948522425708
20
-2.5764703346579187
30
0
10
-2.4089967995904704
20
-2.6542235811758674
30
0
0
LINE
5
356
100
AcDbEntity
8
0
100
AcDbLine
10
-2.4089967995904709
20
-2.6542235811758674
30
0
11
-2.4089967995904704
21
-2.7078462567213646
31
0
0
LINE
5
357
100
AcDbEntity
8
0
100
AcDbLine
10
-2.4089967995904704
20
-2.7078462567213646
30
0
11
-0.58580931707969408
21
-3.3651588998687454
31
0
0
LINE
5
358
100
AcDbEntity
8
0
100
AcDbLine
10
-0.58580931707969408
20
-3.3651588998687454
30
0
11
2.2562181752199018
21
-4.9600188133658696
31
0
0
SPLINE
5
359
100
AcDbEntity
8
0
100
AcDbSpline
70
4
71
3
72
8
73
4
74
0
42
0.000000001
43
0.0000000001
44
0.0000000001
40
0
40
0
40
0
40
0
40
1
40
1
40
1
40
1
41
1
41
1
41
1
41
1
10
2.2562181752199018
20
-4.9600188133658696
30
0
10
2.120121094376739
20
-4.5018627395119681
30
0
10
1.7258300234326596
20
-4.2698342077083007
30
0
10
1.3446235165220766
20
-4.021882544971711
30
0
0
SPLINE
5
360
100
AcDbEntity
8
0
100
AcDbSpline
70
4
71
3
72
8
73
4
74
0
42
0.000000001
43
0.0000000001
44
0.0000000001
40
0
40
0
40
0
40
0
40
1
40
1
40
1
40
1
41
1
41
1
41
1
41
1
10
1.3446235165220766
20
-4.021882544971711
30
0
10
0.51180230033190943
20
-3.4801804930539726
30
0
10
-0.46671244459024708
20
-2.9820220940711595
30
0
10
-1.4437794653471481
20
-2.7727846672822265
30
0
0
ARC
5
361
100
AcDbEntity
8
0
100
AcDbCircle
10
-5.6228664404720794
20
-6.6576695345768346
30
0
40
0.99999999999999734
210
0
220
0
230
1
100
AcDbArc
50
222.76083357017757
51
230.23208363635931
0
SPLINE
5
362
100
AcDbEntity
8
0
100
AcDbSpline
70
4
71
3
72
8
73
4
74
0
42
0.000000001
43
0.0000000001
44
0.0000000001
40
0.53712940754002214
40
0.53712940754002214
40
0.53712940754002214
40
0.53712940754002214
40
1
40
1
40
1
40
1
41
1
41
1
41
1
41
1
10
-6.2625458276700279
20
-7.4263113767855842
30
0
10
-6.2542538809668642
20
-7.2998438780839425
30
0
10
-6.225657053248006
20
-7.1696658051933877
30
0
10
-6.2175902665154688
20
-7.0513215084890035
30
0
0
SPLINE
5
363
100
AcDbEntity
8
0
100
AcDbSpline
70
4
71
3
72
8
73
4
74
0
42
0.000000001
43
0.0000000001
44
0.0000000001
40
0
40
0
40
0
40
0
40
1
40
1
40
1
40
1
41
1
41
1
41
1
41
1
10
-6.2175902665154688
20
-7.0513215084890035
30
0
10
-6.1674520373449004
20
-6.3174904963435941
30
0
10
-6.0104427735975463
20
-5.5894485459743315
30
0
10
-6.0019711101362283
20
-4.8527716273900001
30
0
0
SPLINE
5
364
100
AcDbEntity
8
0
100
AcDbSpline
70
4
71
3
72
8
73
4
74
0
42
0.000000001
43
0.0000000001
44
0.0000000001
40
0
40
0
40
0
40
0
40
1
40
1
40
1
40
1
41
1
41
1
41
1
41
1
10
-6.0019711101362283
20
-4.8527716273900001
30
0
10
-5.9919416294172407
20
-3.9830582159316341
30
0
10
-6.1621437154056347
20
-3.1253559608557246
30
0
10
-6.3341660071886192
20
-2.2788611825876393
30
0
0
SPLINE
5
365
100
AcDbEntity
8
0
100
AcDbSpline
70
4
71
3
72
8
73
4
74
0
42
0.000000001
43
0.0000000001
44
0.0000000001
40
0
40
0
40
0
40
0
40
1
40
1
40
1
40
1
41
1
41
1
41
1
41
1
10
-6.3341660071886192
20
-2.2788611825876393
30
0
10
-6.7241671172982675
20
-0.36022298895323601
30
0
10
-7.3050136856665215
20
1.6689835322782098
30
0
10
-9.3800161810152112
20
2.3327301992348026
30
0
0
LINE
5
366
100
AcDbEntity
8
0
100
AcDbLine
10
-9.3800161810152112
20
2.3327301992348031
30
0
11
-9.4336388565607088
21
2.1182376621679389
31
0
0
SPLINE
5
367
100
AcDbEntity
8
0
100
AcDbSpline
70
4
71
3
72
8
73
4
74
0
42
0.000000001
43
0.0000000001
44
0.0000000001
40
0
40
0
40
0
40
0
40
1
40
1
40
1
40
1
41
1
41
1
41
1
41
1
10
-9.4336388565607088
20
2.1182376621679389
30
0
10
-8.7377174833458966
20
2.0555534076742665
30
0
10
-8.2112991049826416
20
1.4442486678470257
30
0
10
-7.8684325175055125
20
0.88490603275469315
30
0
0
SPLINE
5
368
100
AcDbEntity
8
0
100
AcDbSpline
70
4
71
3
72
8
73
4
74
0
42
0.000000001
43
0.0000000001
44
0.0000000001
40
0
40
0
40
0
40
0
40
1
40
1
40
1
40
1
41
1
41
1
41
1
41
1
10
-7.8684325175055125
20
0.88490603275469315
30
0
10
-7.0641400913297625
20
-0.42719995660864818
30
0
10
-6.791250508276347
20
-2.0114946030036984
30
0
10
-6.606947332034494
20
-3.5121937294433225
30
0
0
SPLINE
5
369
100
AcDbEntity
8
0
100
AcDbSpline
70
4
71
3
72
8
73
4
74
0
42
0.000000001
43
0.0000000001
44
0.0000000001
40
0
40
0
40
0
40
0
40
0.64005157101361032
40
0.64005157101361032
40
0.64005157101361032
40
0.64005157101361032
41
1
41
1
41
1
41
1
10
-6.606947332034494
20
-3.5121937294433225
30
0
10
-6.4668811923350553
20
-4.6526997473296685
30
0
10
-6.5797061097458425
20
-5.8231042338322458
30
0
10
-6.7110491183460406
20
-6.9844167148959837
30
0
0
ARC
5
370
100
AcDbEntity
8
0
100
AcDbCircle
10
-6.3976601794024646e-14
20
-13.684999985098054
30
0
40
8.0000000149003796
210
0
220
0
230
1
100
AcDbArc
50
92.040408570531696
51
96.512846933144147
0
LINE
5
371
100
AcDbEntity
8
0
100
AcDbLine
10
-0.28483456804681068
20
-5.6900722488860689
30
0
11
-1.7119056872687493
21
-4.4768202307573501
31
0
0
LINE
5
372
100
AcDbEntity
8
0
100
AcDbLine
10
-1.7119056872687493
20
-4.4768202307573501
30
0
11
-3.2133534467367952
21
-3.4049465434674531
31
0
0
SPLINE
5
373
100
AcDbEntity
8
0
100
AcDbSpline
70
4
71
3
72
8
73
4
74
0
42
0.000000001
43
0.0000000001
44
0.0000000001
40
0
40
0
40
0
40
0
40
1
40
1
40
1
40
1
41
1
41
1
41
1
41
1
10
-3.2133534467367952
20
-3.4049465434674531
30
0
10
-2.7635626130215463
20
-4.0434919841278605
30
0
10
-2.0639411944591601
20
-4.63157625587995
30
0
10
-1.4974131502018873
20
-5.1724195816768503
30
0
0
SPLINE
5
374
100
AcDbEntity
8
0
100
AcDbSpline
70
4
71
3
72
8
73
4
74
0
42
0.000000001
43
0.0000000001
44
0.0000000001
40
0
40
0
40
0
40
0
40
0.89494051450801593
40
0.89494051450801593
40
0.89494051450801593
40
0.89494051450801593
41
1
41
1
41
1
41
1
10
-1.4974131502018873
20
-5.1724195816768503
30
0
10
-1.344374804497892
20
-5.3185002953929059
30
0
10
-0.98299662747574745
20
-5.5079149063211377
30
0
10
-0.90740792869631992
20
-5.7366283852453384
30
0
0
ARC
5
375
100
AcDbEntity
8
0
100
AcDbCircle
10
-6.3976601794024646e-14
20
-13.684999985098054
30
0
40
8.0000000149003796
210
0
220
0
230
1
100
AcDbArc
50
92.040408570531696
51
96.512846933144147
0
LINE
5
376
100
AcDbEntity
8
0
100
AcDbLine
10
-0.28483456804681068
20
-5.6900722488860689
30
0
11
-1.7119056872687493
21
-4.4768202307573501
31
0
0
LINE
5
377
100
AcDbEntity
8
0
100
AcDbLine
10
-1.7119056872687493
20
-4.4768202307573501
30
0
11
-3.2133534467367952
21
-3.4049465434674531
31
0
0
SPLINE
5
378
100
AcDbEntity
8
0
100
AcDbSpline
70
4
71
3
72
8
73
4
74
0
42
0.000000001
43
0.0000000001
44
0.0000000001
40
0
40
0
40
0
40
0
40
1
40
1
40
1
40
1
41
1
41
1
41
1
41
1
10
-3.2133534467367952
20
-3.4049465434674531
30
0
10
-2.7635626130215463
20
-4.0434919841278605
30
0
10
-2.0639411944591601
20
-4.63157625587995
30
0
10
-1.4974131502018873
20
-5.1724195816768503
30
0
0
SPLINE
5
379
100
AcDbEntity
8
0
100
AcDbSpline
70
4
71
3
72
8
73
4
74
0
42
0.000000001
43
0.0000000001
44
0.0000000001
40
0
40
0
40
0
40
0
40
0.89494051450801593
40
0.89494051450801593
40
0.89494051450801593
40
0.89494051450801593
41
1
41
1
41
1
41
1
10
-1.4974131502018873
20
-5.1724195816768503
30
0
10
-1.344374804497892
20
-5.3185002953929059
30
0
10
-0.98299662747574745
20
-5.5079149063211377
30
0
10
-0.90740792869631992
20
-5.7366283852453384
30
0
0
ARC
5
380
100
AcDbEntity
8
0
100
AcDbCircle
10
-5.6228664404720794
20
-6.6576695345768346
30
0
40
0.99999999999999734
210
0
220
0
230
1
100
AcDbArc
50
222.76083357017757
51
230.23208363635931
0
SPLINE
5
381
100
AcDbEntity
8
0
100
AcDbSpline
70
4
71
3
72
8
73
4
74
0
42
0.000000001
43
0.0000000001
44
0.0000000001
40
0.53712940754002214
40
0.53712940754002214
40
0.53712940754002214
40
0.53712940754002214
40
1
40
1
40
1
40
1
41
1
41
1
41
1
41
1
10
-6.2625458276700279
20
-7.4263113767855842
30
0
10
-6.2542538809668642
20
-7.2998438780839425
30
0
10
-6.225657053248006
20
-7.1696658051933877
30
0
10
-6.2175902665154688
20
-7.0513215084890035
30
0
0
SPLINE
5
382
100
AcDbEntity
8
0
100
AcDbSpline
70
4
71
3
72
8
73
4
74
0
42
0.000000001
43
0.0000000001
44
0.0000000001
40
0
40
0
40
0
40
0
40
1
40
1
40
1
40
1
41
1
41
1
41
1
41
1
10
-6.2175902665154688
20
-7.0513215084890035
30
0
10
-6.1674520373449004
20
-6.3174904963435941
30
0
10
-6.0104427735975463
20
-5.5894485459743315
30
0
10
-6.0019711101362283
20
-4.8527716273900001
30
0
0
SPLINE
5
383
100
AcDbEntity
8
0
100
AcDbSpline
70
4
71
3
72
8
73
4
74
0
42
0.000000001
43
0.0000000001
44
0.0000000001
40
0
40
0
40
0
40
0
40
1
40
1
40
1
40
1
41
1
41
1
41
1
41
1
10
-6.0019711101362283
20
-4.8527716273900001
30
0
10
-5.9919416294172407
20
-3.9830582159316341
30
0
10
-6.1621437154056347
20
-3.1253559608557246
30
0
10
-6.3341660071886192
20
-2.2788611825876393
30
0
0
SPLINE
5
384
100
AcDbEntity
8
0
100
AcDbSpline
70
4
71
3
72
8
73
4
74
0
42
0.000000001
43
0.0000000001
44
0.0000000001
40
0
40
0
40
0
40
0
40
1
40
1
40
1
40
1
41
1
41
1
41
1
41
1
10
-6.3341660071886192
20
-2.2788611825876393
30
0
10
-6.7241671172982675
20
-0.36022298895323601
30
0
10
-7.3050136856665215
20
1.6689835322782098
30
0
10
-9.3800161810152112
20
2.3327301992348026
30
0
0
LINE
5
385
100
AcDbEntity
8
0
100
AcDbLine
10
-9.3800161810152112
20
2.3327301992348031
30
0
11
-9.4336388565607088
21
2.1182376621679389
31
0
0
SPLINE
5
386
100
AcDbEntity
8
0
100
AcDbSpline
70
4
71
3
72
8
73
4
74
0
42
0.000000001
43
0.0000000001
44
0.0000000001
40
0
40
0
40
0
40
0
40
1
40
1
40
1
40
1
41
1
41
1
41
1
41
1
10
-9.4336388565607088
20
2.1182376621679389
30
0
10
-8.7377174833458966
20
2.0555534076742665
30
0
10
-8.2112991049826416
20
1.4442486678470257
30
0
10
-7.8684325175055125
20
0.88490603275469315
30
0
0
SPLINE
5
387
100
AcDbEntity
8
0
100
AcDbSpline
70
4
71
3
72
8
73
4
74
0
42
0.000000001
43
0.0000000001
44
0.0000000001
40
0
40
0
40
0
40
0
40
1
40
1
40
1
40
1
41
1
41
1
41
1
41
1
10
-7.8684325175055125
20
0.88490603275469315
30
0
10
-7.0641400913297625
20
-0.42719995660864818
30
0
10
-6.791250508276347
20
-2.0114946030036984
30
0
10
-6.606947332034494
20
-3.5121937294433225
30
0
0
SPLINE
5
388
100
AcDbEntity
8
0
100
AcDbSpline
70
4
71
3
72
8
73
4
74
0
42
0.000000001
43
0.0000000001
44
0.0000000001
40
0
40
0
40
0
40
0
40
0.64005157101361032
40
0.64005157101361032
40
0.64005157101361032
40
0.64005157101361032
41
1
41
1
41
1
41
1
10
-6.606947332034494
20
-3.5121937294433225
30
0
10
-6.4668811923350553
20
-4.6526997473296685
30
0
10
-6.5797061097458425
20
-5.8231042338322458
30
0
10
-6.7110491183460406
20
-6.9844167148959837
30
0
0
ARC
5
389
100
AcDbEntity
8
0
100
AcDbCircle
10
-6.3976601794024646e-14
20
-13.684999985098054
30
0
40
8.0000000149003796
210
0
220
0
230
1
100
AcDbArc
50
92.040408570531696
51
96.512846933144147
0
LINE
5
390
100
AcDbEntity
8
0
100
AcDbLine
10
-0.28483456804681068
20
-5.6900722488860689
30
0
11
-1.7119056872687493
21
-4.4768202307573501
31
0
0
LINE
5
391
100
AcDbEntity
8
0
100
AcDbLine
10
-1.7119056872687493
20
-4.4768202307573501
30
0
11
-3.2133534467367952
21
-3.4049465434674531
31
0
0
SPLINE
5
392
100
AcDbEntity
8
0
100
AcDbSpline
70
4
71
3
72
8
73
4
74
0
42
0.000000001
43
0.0000000001
44
0.0000000001
40
0
40
0
40
0
40
0
40
1
40
1
40
1
40
1
41
1
41
1
41
1
41
1
10
-3.2133534467367952
20
-3.4049465434674531
30
0
10
-2.7635626130215463
20
-4.0434919841278605
30
0
10
-2.0639411944591601
20
-4.63157625587995
30
0
10
-1.4974131502018873
20
-5.1724195816768503
30
0
0
SPLINE
5
393
100
AcDbEntity
8
0
100
AcDbSpline
70
4
71
3
72
8
73
4
74
0
42
0.000000001
43
0.0000000001
44
0.0000000001
40
0
40
0
40
0
40
0
40
0.89494051450801593
40
0.89494051450801593
40
0.89494051450801593
40
0.89494051450801593
41
1
41
1
41
1
41
1
10
-1.4974131502018873
20
-5.1724195816768503
30
0
10
-1.344374804497892
20
-5.3185002953929059
30
0
10
-0.98299662747574745
20
-5.5079149063211377
30
0
10
-0.90740792869631992
20
-5.7366283852453384
30
0
0
ARC
5
394
100
AcDbEntity
8
0
100
AcDbCircle
10
4.9960036108132044e-15
20
-1.7763568394002505e-14
30
0
40
18.684999999999988
210
0
220
-0
230
1
100
AcDbArc
50
56.135018778780001
51
57.542479395470416
0
LINE
5
395
100
AcDbEntity
8
0
100
AcDbLine
10
10.027756788560902
20
15.766208129714311
30
0
11
9.6025852761538868
21
13.379105261963247
31
0
0
LINE
5
396
100
AcDbEntity
8
0
100
AcDbLine
10
9.6025852761538868
20
13.379105261963247
30
0
11
9.870702323651118
21
13.968959968257732
31
0
0
LINE
5
397
100
AcDbEntity
8
0
100
AcDbLine
10
9.870702323651118
20
13.968959968257732
30
0
11
12.622358625309275
21
13.776983985404048
31
0
0
ARC
5
398
100
AcDbEntity
8
0
100
AcDbCircle
10
4.9960036108132044e-15
20
-1.7763568394002505e-14
30
0
40
18.684999999999985
210
0
220
-0
230
1
100
AcDbArc
50
47.504343622598284
51
50.635413365211413
0
SPLINE
5
399
100
AcDbEntity
8
0
100
AcDbSpline
70
4
71
3
72
8
73
4
74
0
42
0.000000001
43
0.0000000001
44
0.0000000001
40
0.54862668605940479
40
0.54862668605940479
40
0.54862668605940479
40
0.54862668605940479
40
1
40
1
40
1
40
1
41
1
41
1
41
1
41
1
10
11.851013212280241
20
14.44585445179198
30
0
10
11.330260728780722
20
14.483275164637417
30
0
10
10.809642794744455
20
14.505190852203674
30
0
10
10.299687397784844
20
14.505190852203674
30
0
0
SPLINE
5
400
100
AcDbEntity
8
0
100
AcDbSpline
70
4
71
3
72
8
73
4
74
0
42
0.000000001
43
0.0000000001
44
0.0000000001
40
0
40
0
40
0
40
0
40
0.26192112104499937
40
0.26192112104499937
40
0.26192112104499937
40
0.26192112104499937
41
1
41
1
41
1
41
1
10
10.299687397784844
20
14.505190852203674
30
0
10
10.314223477272497
20
14.843718378273129
30
0
10
10.35482335361908
20
15.180274119753163
30
0
10
10.41198655803181
20
15.515146177698863
30
0
0
ARC
5
401
100
AcDbEntity
8
0
100
AcDbCircle
10
4.9960036108132044e-15
20
-1.7763568394002505e-14
30
0
40
18.684999999999988
210
0
220
-0
230
1
100
AcDbArc
50
56.135018778780001
51
57.542479395470416
0
LINE
5
402
100
AcDbEntity
8
0
100
AcDbLine
10
10.027756788560902
20
15.766208129714311
30
0
11
9.6025852761538868
21
13.379105261963247
31
0
0
LINE
5
403
100
AcDbEntity
8
0
100
AcDbLine
10
9.6025852761538868
20
13.379105261963247
30
0
11
9.870702323651118
21
13.968959968257732
31
0
0
LINE
5
404
100
AcDbEntity
8
0
100
AcDbLine
10
9.870702323651118
20
13.968959968257732
30
0
11
12.622358625309275
21
13.776983985404048
31
0
0
ARC
5
405
100
AcDbEntity
8
0
100
AcDbCircle
10
4.9960036108132044e-15
20
-1.7763568394002505e-14
30
0
40
18.684999999999985
210
0
220
-0
230
1
100
AcDbArc
50
47.504343622598284
51
50.635413365211413
0
SPLINE
5
406
100
AcDbEntity
8
0
100
AcDbSpline
70
4
71
3
72
8
73
4
74
0
42
0.000000001
43
0.0000000001
44
0.0000000001
40
0.54862668605940479
40
0.54862668605940479
40
0.54862668605940479
40
0.54862668605940479
40
1
40
1
40
1
40
1
41
1
41
1
41
1
41
1
10
11.851013212280241
20
14.44585445179198
30
0
10
11.330260728780722
20
14.483275164637417
30
0
10
10.809642794744455
20
14.505190852203674
30
0
10
10.299687397784844
20
14.505190852203674
30
0
0
SPLINE
5
407
100
AcDbEntity
8
0
100
AcDbSpline
70
4
71
3
72
8
73
4
74
0
42
0.000000001
43
0.0000000001
44
0.0000000001
40
0
40
0
40
0
40
0
40
0.26192112104499937
40
0.26192112104499937
40
0.26192112104499937
40
0.26192112104499937
41
1
41
1
41
1
41
1
10
10.299687397784844
20
14.505190852203674
30
0
10
10.314223477272497
20
14.843718378273129
30
0
10
10.35482335361908
20
15.180274119753163
30
0
10
10.41198655803181
20
15.515146177698863
30
0
0
SPLINE
5
408
100
AcDbEntity
8
0
100
AcDbSpline
70
4
71
3
72
8
73
4
74
0
42
0.000000001
43
0.0000000001
44
0.0000000001
40
-1
40
-1
40
-1
40
-1
40
0
40
0
40
0
40
0
41
1
41
1
41
1
41
1
10
-11.996069067735963
20
-13.705778069985172
30
0
10
-11.917821721501948
20
-13.599720661013478
30
0
10
-11.853802316686775
20
-13.465541133373438
30
0
10
-11.853802316686775
20
-13.407601844401707
30
0
0
SPLINE
5
409
100
AcDbEntity
8
0
100
AcDbSpline
70
4
71
3
72
8
73
4
74
0
42
0.000000001
43
0.0000000001
44
0.0000000001
40
-1
40
-1
40
-1
40
-1
40
0
40
0
40
0
40
0
41
1
41
1
41
1
41
1
10
-11.853802316686775
20
-13.407601844401707
30
0
10
-11.853802316686775
20
-13.349661650920037
30
0
10
-11.917821721501948
20
-13.238236879940754
30
0
10
-11.996069067735963
20
-13.159989533706739
30
0
0
SPLINE
5
410
100
AcDbEntity
8
0
100
AcDbSpline
70
4
71
3
72
8
73
4
74
0
42
0.000000001
43
0.0000000001
44
0.0000000001
40
-1
40
-1
40
-1
40
-1
40
0
40
0
40
0
40
0
41
1
41
1
41
1
41
1
10
-11.996069067735963
20
-13.159989533706739
30
0
10
-12.175764440267137
20
-12.980294161175564
30
0
10
-12.174232200422033
20
-12.965988884156513
30
0
10
-11.975290665302802
20
-12.965988884156513
30
0
0
SPLINE
5
411
100
AcDbEntity
8
0
100
AcDbSpline
70
4
71
3
72
8
73
4
74
0
42
0.000000001
43
0.0000000001
44
0.0000000001
40
-1
40
-1
40
-1
40
-1
40
0
40
0
40
0
40
0
41
1
41
1
41
1
41
1
10
-11.975290665302802
20
-12.965988884156513
30
0
10
-11.784524091057289
20
-12.965988884156513
30
0
10
-11.535850790198028
20
-13.143776192960853
30
0
10
-11.479856197605862
20
-13.32019362145504
30
0
0
LINE
5
412
100
AcDbEntity
8
0
100
AcDbLine
10
-11.479856197605862
20
-13.320193621455038
30
0
11
-11.440623983295577
21
-13.443802141379768
31
0
0
LINE
5
413
100
AcDbEntity
8
0
100
AcDbLine
10
-11.440623983295577
20
-13.443802141379768
30
0
11
-11.334224669565058
21
-13.31240488632741
31
0
0
SPLINE
5
414
100
AcDbEntity
8
0
100
AcDbSpline
70
4
71
3
72
8
73
4
74
0
42
0.000000001
43
0.0000000001
44
0.0000000001
40
-1
40
-1
40
-1
40
-1
40
0
40
0
40
0
40
0
41
1
41
1
41
1
41
1
10
-11.334224669565058
20
-13.31240488632741
30
0
10
-11.178138815591705
20
-13.119647033440213
30
0
10
-11.203179268880913
20
-12.949349519227017
30
0
10
-11.427000254519317
20
-12.68145447754819
30
0
0
SPLINE
5
415
100
AcDbEntity
8
0
100
AcDbSpline
70
4
71
3
72
8
73
4
74
0
42
0.000000001
43
0.0000000001
44
0.0000000001
40
-1
40
-1
40
-1
40
-1
40
0
40
0
40
0
40
0
41
1
41
1
41
1
41
1
10
-11.427000254519317
20
-12.68145447754819
30
0
10
-11.536545453835005
20
-12.550337168323495
30
0
10
-11.626173344184201
20
-12.418601626552089
30
0
10
-11.626173344184201
20
-12.388710286433312
30
0
0
SPLINE
5
416
100
AcDbEntity
8
0
100
AcDbSpline
70
4
71
3
72
8
73
4
74
0
42
0.000000001
43
0.0000000001
44
0.0000000001
40
-1
40
-1
40
-1
40
-1
40
0
40
0
40
0
40
0
41
1
41
1
41
1
41
1
10
-11.626173344184201
20
-12.388710286433312
30
0
10
-11.626173344184201
20
-12.146613677376745
30
0
10
-11.128627750278008
20
-11.706881193305087
30
0
10
-10.76411747893272
20
-11.626836585812384
30
0
0
SPLINE
5
417
100
AcDbEntity
8
0
100
AcDbSpline
70
4
71
3
72
8
73
4
74
0
42
0.000000001
43
0.0000000001
44
0.0000000001
40
-1
40
-1
40
-1
40
-1
40
0
40
0
40
0
40
0
41
1
41
1
41
1
41
1
10
-10.76411747893272
20
-11.626836585812384
30
0
10
-10.537318846558721
20
-11.577022961922419
30
0
10
-10.512423114860558
20
-11.616437887241386
30
0
10
-10.648942609725687
20
-11.809166795810375
30
0
0
SPLINE
5
418
100
AcDbEntity
8
0
100
AcDbSpline
70
4
71
3
72
8
73
4
74
0
42
0.000000001
43
0.0000000001
44
0.0000000001
40
-1
40
-1
40
-1
40
-1
40
0
40
0
40
0
40
0
41
1
41
1
41
1
41
1
10
-10.648942609725687
20
-11.809166795810375
30
0
10
-10.845608397825854
20
-12.086802957330921
30
0
10
-10.850680889591704
20
-12.198217778700823
30
0
10
-10.673458447247377
20
-12.34771608675215
30
0
0
SPLINE
5
419
100
AcDbEntity
8
0
100
AcDbSpline
70
4
71
3
72
8
73
4
74
0
42
0.000000001
43
0.0000000001
44
0.0000000001
40
-1
40
-1
40
-1
40
-1
40
0
40
0
40
0
40
0
41
1
41
1
41
1
41
1
10
-10.673458447247377
20
-12.34771608675215
30
0
10
-10.427239986376087
20
-12.555417348423873
30
0
10
-10.31742705211698
20
-12.744892282469383
30
0
10
-10.316048578962347
20
-12.964439458622472
30
0
0
SPLINE
5
420
100
AcDbEntity
8
0
100
AcDbSpline
70
4
71
3
72
8
73
4
74
0
42
0.000000001
43
0.0000000001
44
0.0000000001
40
-1
40
-1
40
-1
40
-1
40
0
40
0
40
0
40
0
41
1
41
1
41
1
41
1
10
-10.316048578962347
20
-12.964439458622472
30
0
10
-10.314791310140215
20
-13.164091486302695
30
0
10
-10.3142522222136
20
-13.164513892446536
30
0
10
-10.216462034129904
20
-13.042466556685127
30
0
0
SPLINE
5
421
100
AcDbEntity
8
0
100
AcDbSpline
70
4
71
3
72
8
73
4
74
0
42
0.000000001
43
0.0000000001
44
0.0000000001
40
-1
40
-1
40
-1
40
-1
40
0
40
0
40
0
40
0
41
1
41
1
41
1
41
1
10
-10.216462034129904
20
-13.042466556685127
30
0
10
-10.071961143519079
20
-12.862120389249259
30
0
10
-9.7432097682991845
20
-12.681910350559956
30
0
10
-9.5582411027945913
20
-12.681681961799104
30
0
0
LINE
5
422
100
AcDbEntity
8
0
100
AcDbLine
10
-9.5582411027945913
20
-12.681681961799104
30
0
11
-9.3966883907198131
21
-12.681453573038244
31
0
0
LINE
5
423
100
AcDbEntity
8
0
100
AcDbLine
10
-9.3966883907198131
20
-12.681453573038244
30
0
11
-9.5440149703956401
21
-12.85654046740483
31
0
0
SPLINE
5
424
100
AcDbEntity
8
0
100
AcDbSpline
70
4
71
3
72
8
73
4
74
0
42
0.000000001
43
0.0000000001
44
0.0000000001
40
-1
40
-1
40
-1
40
-1
40
0
40
0
40
0
40
0
41
1
41
1
41
1
41
1
10
-9.5440149703956401
20
-12.85654046740483
30
0
10
-9.7526112446569346
20
-13.104444934811706
30
0
10
-9.7623003551768726
20
-13.400493300751952
30
0
10
-9.5739035969845876
20
-13.769783907151186
30
0
0
SPLINE
5
425
100
AcDbEntity
8
0
100
AcDbSpline
70
4
71
3
72
8
73
4
74
0
42
0.000000001
43
0.0000000001
44
0.0000000001
40
-1
40
-1
40
-1
40
-1
40
0
40
0
40
0
40
0
41
1
41
1
41
1
41
1
10
-9.5739035969845876
20
-13.769783907151186
30
0
10
-9.3581110416089697
20
-14.192770746374928
30
0
10
-9.4660950567613433
20
-14.446539151748642
30
0
10
-9.9481970478839887
20
-14.649404451004862
30
0
0
SPLINE
5
426
100
AcDbEntity
8
0
100
AcDbSpline
70
4
71
3
72
8
73
4
74
0
42
0.000000001
43
0.0000000001
44
0.0000000001
40
-1
40
-1
40
-1
40
-1
40
0
40
0
40
0
40
0
41
1
41
1
41
1
41
1
10
-9.9481988569038791
20
-14.649406260024755
30
0
10
-10.275457790716205
20
-14.787114280956274
30
0
10
-11.06406744851633
20
-14.809158997311007
30
0
10
-11.448695830035671
20
-14.691351099657041
30
0
0
SPLINE
5
427
100
AcDbEntity
8
0
100
AcDbSpline
70
4
71
3
72
8
73
4
74
0
42
0.000000001
43
0.0000000001
44
0.0000000001
40
-1
40
-1
40
-1
40
-1
40
0
40
0
40
0
40
0
41
1
41
1
41
1
41
1
10
-11.448695830035671
20
-14.691351099657041
30
0
10
-11.822162558846276
20
-14.576963154101271
30
0
10
-12.138335818785153
20
-14.28585115118031
30
0
10
-12.138335818785153
20
-14.056378787411901
30
0
0
SPLINE
5
428
100
AcDbEntity
8
0
100
AcDbSpline
70
4
71
3
72
8
73
4
74
0
42
0.000000001
43
0.0000000001
44
0.0000000001
40
-1
40
-1
40
-1
40
-1
40
0
40
0
40
0
40
0
41
1
41
1
41
1
41
1
10
-12.138335818785153
20
-14.056378787411901
30
0
10
-12.138335818785153
20
-13.969605530445911
30
0
10
-12.074316413969978
20
-13.811836383466808
30
0
10
-11.996069067735963
20
-13.705778069985172
30
0
0
SPLINE
5
429
100
AcDbEntity
8
0
100
AcDbSpline
70
4
71
3
72
8
73
4
74
0
42
0.000000001
43
0.0000000001
44
0.0000000001
40
-1
40
-1
40
-1
40
-1
40
0
40
0
40
0
40
0
41
1
41
1
41
1
41
1
10
-13.993015368721849
20
-12.605633931493877
30
0
10
-13.845086385423331
20
-13.234165680682889
30
0
10
-13.147224401283051
20
-14.11775973672048
30
0
10
-12.552087611480838
20
-14.430052648999677
30
0
0
SPLINE
5
430
100
AcDbEntity
8
0
100
AcDbSpline
70
4
71
3
72
8
73
4
74
0
42
0.000000001
43
0.0000000001
44
0.0000000001
40
-1
40
-1
40
-1
40
-1
40
0
40
0
40
0
40
0
41
1
41
1
41
1
41
1
10
-12.552087611480838
20
-14.430052648999677
30
0
10
-12.227757480867126
20
-14.600242526529538
30
0
10
-11.789041213717532
20
-14.758283931001785
30
0
10
-11.512358857932918
20
-14.804599362683394
30
0
0
SPLINE
5
431
100
AcDbEntity
8
0
100
AcDbSpline
70
4
71
3
72
8
73
4
74
0
42
0.000000001
43
0.0000000001
44
0.0000000001
40
-1
40
-1
40
-1
40
-1
40
0
40
0
40
0
40
0
41
1
41
1
41
1
41
1
10
-11.512358857932918
20
-14.804599362683394
30
0
10
-11.159053655773681
20
-14.863740745370674
30
0
10
-10.204578582485864
20
-14.835777820452464
30
0
10
-9.8679272174152288
20
-14.756422449537068
30
0
0
SPLINE
5
432
100
AcDbEntity
8
0
100
AcDbSpline
70
4
71
3
72
8
73
4
74
0
42
0.000000001
43
0.0000000001
44
0.0000000001
40
-1
40
-1
40
-1
40
-1
40
0
40
0
40
0
40
0
41
1
41
1
41
1
41
1
10
-9.8679272174152288
20
-14.756422449537068
30
0
10
-8.6971259278848478
20
-14.48044018444909
30
0
10
-7.6846934754264229
20
-13.428605469810915
30
0
10
-7.2718027761974202
20
-12.059260177281681
30
0
0
SPLINE
5
433
100
AcDbEntity
8
0
100
AcDbSpline
70
4
71
3
72
8
73
4
74
0
42
0.000000001
43
0.0000000001
44
0.0000000001
40
-1
40
-1
40
-1
40
-1
40
0
40
0
40
0
40
0
41
1
41
1
41
1
41
1
10
-7.2718027761974202
20
-12.059260177281681
30
0
10
-7.2310925926386638
20
-11.924245786963343
30
0
10
-7.2357182564921896
20
-11.925268335455016
30
0
10
-7.4564241098835193
20
-12.100070309189244
30
0
0
SPLINE
5
434
100
AcDbEntity
8
0
100
AcDbSpline
70
4
71
3
72
8
73
4
74
0
42
0.000000001
43
0.0000000001
44
0.0000000001
40
-1
40
-1
40
-1
40
-1
40
0
40
0
40
0
40
0
41
1
41
1
41
1
41
1
10
-7.4564241098835193
20
-12.100070309189244
30
0
10
-7.7652292318187133
20
-12.344648893532097
30
0
10
-8.1802708556945181
20
-12.542868629716031
30
0
10
-8.5417763450058981
20
-12.618425511121671
30
0
0
SPLINE
5
435
100
AcDbEntity
8
0
100
AcDbSpline
70
4
71
3
72
8
73
4
74
0
42
0.000000001
43
0.0000000001
44
0.0000000001
40
-1
40
-1
40
-1
40
-1
40
0
40
0
40
0
40
0
41
1
41
1
41
1
41
1
10
-8.5417763450058981
20
-12.618425511121671
30
0
10
-9.0690567988105641
20
-12.728629645931555
30
0
10
-9.0870619737554748
20
-12.679888318580183
30
0
10
-8.6342715318775198
20
-12.368040425193421
30
0
0
SPLINE
5
436
100
AcDbEntity
8
0
100
AcDbSpline
70
4
71
3
72
8
73
4
74
0
42
0.000000001
43
0.0000000001
44
0.0000000001
40
-1
40
-1
40
-1
40
-1
40
0
40
0
40
0
40
0
41
1
41
1
41
1
41
1
10
-8.6342715318775198
20
-12.368040425193421
30
0
10
-8.1352913852001674
20
-12.024379108056923
30
0
10
-7.7958993549992694
20
-11.553626907711369
30
0
10
-7.7243001568535252
20
-11.105870968181621
30
0
0
SPLINE
5
437
100
AcDbEntity
8
0
100
AcDbSpline
70
4
71
3
72
8
73
4
74
0
42
0.000000001
43
0.0000000001
44
0.0000000001
40
-1
40
-1
40
-1
40
-1
40
0
40
0
40
0
40
0
41
1
41
1
41
1
41
1
10
-7.7243001568535252
20
-11.105870968181621
30
0
10
-7.6889066827454933
20
-10.884533766849387
30
0
10
-7.761631091261556
20
-10.509844140594522
30
0
10
-7.8713445294268247
20
-10.34827198155595
30
0
0
SPLINE
5
438
100
AcDbEntity
8
0
100
AcDbSpline
70
4
71
3
72
8
73
4
74
0
42
0.000000001
43
0.0000000001
44
0.0000000001
40
-1
40
-1
40
-1
40
-1
40
0
40
0
40
0
40
0
41
1
41
1
41
1
41
1
10
-7.8713445294268247
20
-10.34827198155595
30
0
10
-7.9212047355789039
20
-10.274848839108163
30
0
10
-7.9382565570428554
20
-10.27882777835174
30
0
10
-7.9932977961540619
20
-10.376725603118771
30
0
0
SPLINE
5
439
100
AcDbEntity
8
0
100
AcDbSpline
70
4
71
3
72
8
73
4
74
0
42
0.000000001
43
0.0000000001
44
0.0000000001
40
-1
40
-1
40
-1
40
-1
40
0
40
0
40
0
40
0
41
1
41
1
41
1
41
1
10
-7.9932977961540619
20
-10.376725603118771
30
0
10
-8.028492278074415
20
-10.439323118302006
30
0
10
-8.1761480993698488
20
-10.60693423798158
30
0
10
-8.321421441472836
20
-10.74919510971613
30
0
0
SPLINE
5
440
100
AcDbEntity
8
0
100
AcDbSpline
70
4
71
3
72
8
73
4
74
0
42
0.000000001
43
0.0000000001
44
0.0000000001
40
-1
40
-1
40
-1
40
-1
40
0
40
0
40
0
40
0
41
1
41
1
41
1
41
1
10
-8.321421441472836
20
-10.74919510971613
30
0
10
-8.6099800128219339
20
-11.031769895530816
30
0
10
-9.0832576049310898
20
-11.224035242753519
30
0
10
-9.4103808622518148
20
-11.191577807923657
30
0
0
LINE
5
441
100
AcDbEntity
8
0
100
AcDbLine
10
-9.410380862251813
20
-11.191577807923656
30
0
11
-9.5933704599989724
21
-11.173421579818106
31
0
0
LINE
5
442
100
AcDbEntity
8
0
100
AcDbLine
10
-9.5933704599989724
20
-11.173421579818106
30
0
11
-9.5824023724182439
21
-10.601088390213626
31
0
0
SPLINE
5
443
100
AcDbEntity
8
0
100
AcDbSpline
70
4
71
3
72
8
73
4
74
0
42
0.000000001
43
0.0000000001
44
0.0000000001
40
-1
40
-1
40
-1
40
-1
40
0
40
0
40
0
40
0
41
1
41
1
41
1
41
1
10
-9.5824023724182439
20
-10.601088390213626
30
0
10
-9.56253571600862
20
-9.5642861785894659
30
0
10
-9.8217501757550494
20
-8.7934524024634442
30
0
10
-10.359380032338761
20
-8.2905620592982565
30
0
0
SPLINE
5
444
100
AcDbEntity
8
0
100
AcDbSpline
70
4
71
3
72
8
73
4
74
0
42
0.000000001
43
0.0000000001
44
0.0000000001
40
-1
40
-1
40
-1
40
-1
40
0
40
0
40
0
40
0
41
1
41
1
41
1
41
1
10
-10.359380032338761
20
-8.2905620592982565
30
0
10
-10.632075308290304
20
-8.0354884460753784
30
0
10
-10.985371465350102
20
-7.8105761691895603
30
0
10
-11.035153883646993
20
-7.86035813523148
30
0
0
SPLINE
5
445
100
AcDbEntity
8
0
100
AcDbSpline
70
4
71
3
72
8
73
4
74
0
42
0.000000001
43
0.0000000001
44
0.0000000001
40
-1
40
-1
40
-1
40
-1
40
0
40
0
40
0
40
0
41
1
41
1
41
1
41
1
10
-11.035153883646993
20
-7.86035813523148
30
0
10
-11.048560530036697
20
-7.873766364513588
30
0
10
-10.995216151580403
20
-8.0229012856949211
30
0
10
-10.916607001368792
20
-8.1917685435591991
30
0
0
SPLINE
5
446
100
AcDbEntity
8
0
100
AcDbSpline
70
4
71
3
72
8
73
4
74
0
42
0.000000001
43
0.0000000001
44
0.0000000001
40
-1
40
-1
40
-1
40
-1
40
0
40
0
40
0
40
0
41
1
41
1
41
1
41
1
10
-10.916607001368792
20
-8.1917685435591991
30
0
10
-10.837997851157187
20
-8.3606358014234772
30
0
10
-10.773408605077304
20
-8.5376117648080694
30
0
10
-10.773126397974782
20
-8.5850481104377607
30
0
0
SPLINE
5
447
100
AcDbEntity
8
0
100
AcDbSpline
70
4
71
3
72
8
73
4
74
0
42
0.000000001
43
0.0000000001
44
0.0000000001
40
-1
40
-1
40
-1
40
-1
40
0
40
0
40
0
40
0
41
1
41
1
41
1
41
1
10
-10.773126397974782
20
-8.5850481104377607
30
0
10
-10.771910736610071
20
-8.773702880091566
30
0
10
-10.993421603851541
20
-9.0476163048101643
30
0
10
-11.431390745787402
20
-9.3990371866286004
30
0
0
SPLINE
5
448
100
AcDbEntity
8
0
100
AcDbSpline
70
4
71
3
72
8
73
4
74
0
42
0.000000001
43
0.0000000001
44
0.0000000001
40
-1
40
-1
40
-1
40
-1
40
0
40
0
40
0
40
0
41
1
41
1
41
1
41
1
10
-11.431390745787402
20
-9.3990371866286004
30
0
10
-11.959441842064349
20
-9.822736327433228
30
0
10
-12.170158287634338
20
-10.055467188274832
30
0
10
-12.31660568364461
20
-10.376726055373746
30
0
0
SPLINE
5
449
100
AcDbEntity
8
0
100
AcDbSpline
70
4
71
3
72
8
73
4
74
0
42
0.000000001
43
0.0000000001
44
0.0000000001
40
-1
40
-1
40
-1
40
-1
40
0
40
0
40
0
40
0
41
1
41
1
41
1
41
1
10
-12.31660568364461
20
-10.376726055373746
30
0
10
-12.443503001725658
20
-10.655097131223776
30
0
10
-12.452226095625418
20
-11.078365725295068
30
0
10
-12.336763592256199
20
-11.354707985340745
30
0
0
SPLINE
5
450
100
AcDbEntity
8
0
100
AcDbSpline
70
4
71
3
72
8
73
4
74
0
42
0.000000001
43
0.0000000001
44
0.0000000001
40
-1
40
-1
40
-1
40
-1
40
0
40
0
40
0
40
0
41
1
41
1
41
1
41
1
10
-12.336763592256199
20
-11.354707985340745
30
0
10
-12.289405260609181
20
-11.468053935441048
30
0
10
-12.261106762501752
20
-11.571242238870427
30
0
10
-12.273880251930667
20
-11.584015728299345
30
0
0
SPLINE
5
451
100
AcDbEntity
8
0
100
AcDbSpline
70
4
71
3
72
8
73
4
74
0
42
0.000000001
43
0.0000000001
44
0.0000000001
40
-1
40
-1
40
-1
40
-1
40
0
40
0
40
0
40
0
41
1
41
1
41
1
41
1
10
-12.273880251930667
20
-11.584015728299345
30
0
10
-12.333650269029013
20
-11.643785745397693
30
0
10
-12.739717345240624
20
-11.200498989501156
30
0
10
-12.858133978086892
20
-10.946208681889766
30
0
0
SPLINE
5
452
100
AcDbEntity
8
0
100
AcDbSpline
70
4
71
3
72
8
73
4
74
0
42
0.000000001
43
0.0000000001
44
0.0000000001
40
-1
40
-1
40
-1
40
-1
40
0
40
0
40
0
40
0
41
1
41
1
41
1
41
1
10
-12.858133978086892
20
-10.946208681889766
30
0
10
-13.042116727752537
20
-10.551116477083466
30
0
10
-13.035124865885557
20
-10.430382037505744
30
0
10
-12.792187967091033
20
-9.8076572421570987
30
0
0
SPLINE
5
453
100
AcDbEntity
8
0
100
AcDbSpline
70
4
71
3
72
8
73
4
74
0
42
0.000000001
43
0.0000000001
44
0.0000000001
40
-1
40
-1
40
-1
40
-1
40
0
40
0
40
0
40
0
41
1
41
1
41
1
41
1
10
-12.792187967091033
20
-9.8076572421570987
30
0
10
-12.712484359847206
20
-9.6033528675799964
30
0
10
-13.25847007929343
20
-10.177708089164256
30
0
10
-13.411849639514383
20
-10.459519016331246
30
0
0
SPLINE
5
454
100
AcDbEntity
8
0
100
AcDbSpline
70
4
71
3
72
8
73
4
74
0
42
0.000000001
43
0.0000000001
44
0.0000000001
40
-1
40
-1
40
-1
40
-1
40
0
40
0
40
0
40
0
41
1
41
1
41
1
41
1
10
-13.411849639514383
20
-10.459519016331246
30
0
10
-13.492437857483424
20
-10.607582771611415
30
0
10
-13.586154132779424
20
-10.858277652195479
30
0
10
-13.620113054116292
20
-11.016619806224096
30
0
0
SPLINE
5
455
100
AcDbEntity
8
0
100
AcDbSpline
70
4
71
3
72
8
73
4
74
0
42
0.000000001
43
0.0000000001
44
0.0000000001
40
-1
40
-1
40
-1
40
-1
40
0
40
0
40
0
40
0
41
1
41
1
41
1
41
1
10
-13.620113054116292
20
-11.016619806224096
30
0
10
-13.72889484703926
20
-11.523856771925086
30
0
10
-13.524868157014964
20
-12.248953098223701
30
0
10
-13.126131229389388
20
-12.772184965519102
30
0
0
SPLINE
5
456
100
AcDbEntity
8
0
100
AcDbSpline
70
4
71
3
72
8
73
4
74
0
42
0.000000001
43
0.0000000001
44
0.0000000001
40
-1
40
-1
40
-1
40
-1
40
0
40
0
40
0
40
0
41
1
41
1
41
1
41
1
10
-13.126131229389388
20
-12.772184965519102
30
0
10
-13.052326836000212
20
-12.869035820025974
30
0
10
-12.991938134100183
20
-12.975810053128271
30
0
10
-12.991938134100183
20
-13.009461441084188
30
0
0
SPLINE
5
457
100
AcDbEntity
8
0
100
AcDbSpline
70
4
71
3
72
8
73
4
74
0
42
0.000000001
43
0.0000000001
44
0.0000000001
40
-1
40
-1
40
-1
40
-1
40
0
40
0
40
0
40
0
41
1
41
1
41
1
41
1
10
-12.991938134100183
20
-13.009461441084188
30
0
10
-12.991938134100183
20
-13.108612012123633
30
0
10
-13.400273721251299
20
-12.921795885058458
30
0
10
-13.731474509399497
20
-12.671119546928246
30
0
0
LINE
5
458
100
AcDbEntity
8
0
100
AcDbLine
10
-13.731474509399497
20
-12.671119546928249
30
0
11
-14.030950515772464
21
-12.444454329770988
31
0
0
LINE
5
459
100
AcDbEntity
8
0
100
AcDbLine
10
-14.030950515772464
20
-12.444454329770988
30
0
11
-13.993015368721849
21
-12.605633931493877
31
0
0
SPLINE
5
460
100
AcDbEntity
8
0
100
AcDbSpline
70
4
71
3
72
8
73
4
74
0
42
0.000000001
43
0.0000000001
44
0.0000000001
40
-1
40
-1
40
-1
40
-1
40
0
40
0
40
0
40
0
41
1
41
1
41
1
41
1
10
-1.5499759670572111
20
-16.087600107834334
30
0
10
-1.0085974178532586
20
-16.131056534486277
30
0
10
-0.50730540470325991
20
-16.350332968023697
30
0
10
-0.1302836097156268
20
-16.708602715765011
30
0
0
SPLINE
5
461
100
AcDbEntity
8
0
100
AcDbSpline
70
4
71
3
72
8
73
4
74
0
42
0.000000001
43
0.0000000001
44
0.0000000001
40
-1
40
-1
40
-1
40
-1
40
0
40
0
40
0
40
0
41
1
41
1
41
1
41
1
10
-0.1302836097156268
20
-16.708602715765011
30
0
10
0.13306673768418431
20
-16.958852552327762
30
0
10
0.18047508248297817
20
-17.132209946853166
30
0
10
0.027421401085194752
20
-17.285262405503996
30
0
0
SPLINE
5
462
100
AcDbEntity
8
0
100
AcDbSpline
70
4
71
3
72
8
73
4
74
0
42
0.000000001
43
0.0000000001
44
0.0000000001
40
-1
40
-1
40
-1
40
-1
40
0
40
0
40
0
40
0
41
1
41
1
41
1
41
1
10
0.027421401085194752
20
-17.285262405503996
30
0
10
-0.15675363571904022
20
-17.469434996814325
30
0
10
-1.032362727600229
20
-17.353863400464064
30
0
10
-1.5726946054137958
20
-17.074062215580422
30
0
0
SPLINE
5
463
100
AcDbEntity
8
0
100
AcDbSpline
70
4
71
3
72
8
73
4
74
0
42
0.000000001
43
0.0000000001
44
0.0000000001
40
-1
40
-1
40
-1
40
-1
40
0
40
0
40
0
40
0
41
1
41
1
41
1
41
1
10
-1.5726946054137958
20
-17.074062215580422
30
0
10
-1.8654202255734909
20
-16.922480721512102
30
0
10
-2.2650530571859884
20
-16.517148666359226
30
0
10
-2.2650530571859884
20
-16.371833750416712
30
0
0
SPLINE
5
464
100
AcDbEntity
8
0
100
AcDbSpline
70
4
71
3
72
8
73
4
74
0
42
0.000000001
43
0.0000000001
44
0.0000000001
40
-1
40
-1
40
-1
40
-1
40
0
40
0
40
0
40
0
41
1
41
1
41
1
41
1
10
-2.2650530571859884
20
-16.371833750416712
30
0
10
-2.2650530571859884
20
-16.128585362897546
30
0
10
-2.0591229066228545
20
-16.04672979098455
30
0
10
-1.5499759670572111
20
-16.087600107834334
30
0
0
SPLINE
5
465
100
AcDbEntity
8
0
100
AcDbSpline
70
4
71
3
72
8
73
4
74
0
42
0.000000001
43
0.0000000001
44
0.0000000001
40
-1
40
-1
40
-1
40
-1
40
0
40
0
40
0
40
0
41
1
41
1
41
1
41
1
10
1.0205707119083707
20
-12.131536848818163
30
0
10
1.0257111400919561
20
-11.710067590774496
30
0
10
1.2136962563966858
20
-11.364875733051637
30
0
10
1.6553964741243643
20
-10.965824928987988
30
0
0
SPLINE
5
466
100
AcDbEntity
8
0
100
AcDbSpline
70
4
71
3
72
8
73
4
74
0
42
0.000000001
43
0.0000000001
44
0.0000000001
40
-1
40
-1
40
-1
40
-1
40
0
40
0
40
0
40
0
41
1
41
1
41
1
41
1
10
1.6553964741243643
20
-10.965824928987988
30
0
10
2.0124239109630837
20
-10.643271008322923
30
0
10
2.2874050273643887
20
-10.493917359200013
30
0
10
2.96399004346382
20
-10.255082476801839
30
0
0
LINE
5
467
100
AcDbEntity
8
0
100
AcDbLine
10
2.96399004346382
20
-10.255082476801839
30
0
11
3.4661330884919783
21
-10.077825436561758
31
0
0
LINE
5
468
100
AcDbEntity
8
0
100
AcDbLine
10
3.4661330884919783
20
-10.077825436561758
30
0
11
3.0045607873105151
21
-10.116899232453228
31
0
0
SPLINE
5
469
100
AcDbEntity
8
0
100
AcDbSpline
70
4
71
3
72
8
73
4
74
0
42
0.000000001
43
0.0000000001
44
0.0000000001
40
-1
40
-1
40
-1
40
-1
40
0
40
0
40
0
40
0
41
1
41
1
41
1
41
1
10
3.0045607873105151
20
-10.116899232453228
30
0
10
0.83129926581079427
20
-10.300874350130913
30
0
10
-0.88518801354466436
20
-10.774952907131063
30
0
10
-2.1626749004410861
20
-11.544041175596078
30
0
0
SPLINE
5
470
100
AcDbEntity
8
0
100
AcDbSpline
70
4
71
3
72
8
73
4
74
0
42
0.000000001
43
0.0000000001
44
0.0000000001
40
-1
40
-1
40
-1
40
-1
40
0
40
0
40
0
40
0
41
1
41
1
41
1
41
1
10
-2.1626749004410861
20
-11.544041175596078
30
0
10
-2.7217539345131669
20
-11.880626117528191
30
0
10
-3.4670817842190171
20
-12.682933363794744
30
0
10
-3.71832204581239
20
-13.218623082807412
30
0
0
SPLINE
5
471
100
AcDbEntity
8
0
100
AcDbSpline
70
4
71
3
72
8
73
4
74
0
42
0.000000001
43
0.0000000001
44
0.0000000001
40
-1
40
-1
40
-1
40
-1
40
0
40
0
40
0
40
0
41
1
41
1
41
1
41
1
10
-3.71832204581239
20
-13.218623082807412
30
0
10
-3.89660833329879
20
-13.598772664496671
30
0
10
-3.9190139484358255
20
-13.741204954501317
30
0
10
-3.9190139484358255
20
-14.494579090520707
30
0
0
SPLINE
5
472
100
AcDbEntity
8
0
100
AcDbSpline
70
4
71
3
72
8
73
4
74
0
42
0.000000001
43
0.0000000001
44
0.0000000001
40
-1
40
-1
40
-1
40
-1
40
0
40
0
40
0
40
0
41
1
41
1
41
1
41
1
10
-3.9190139484358255
20
-14.494579090520707
30
0
10
-3.9190139484358255
20
-15.297865757095312
30
0
10
-3.9056713337023963
20
-15.369710088343904
30
0
10
-3.6661694428422509
20
-15.856011835243496
30
0
0
SPLINE
5
473
100
AcDbEntity
8
0
100
AcDbSpline
70
4
71
3
72
8
73
4
74
0
42
0.000000001
43
0.0000000001
44
0.0000000001
40
-1
40
-1
40
-1
40
-1
40
0
40
0
40
0
40
0
41
1
41
1
41
1
41
1
10
-3.6661694428422509
20
-15.856011835243496
30
0
10
-3.1559318129959735
20
-16.892030654181951
30
0
10
-1.891146821430465
20
-17.656070200484734
30
0
10
-0.39429424046917738
20
-17.832506471833703
30
0
0
SPLINE
5
474
100
AcDbEntity
8
0
100
AcDbSpline
70
4
71
3
72
8
73
4
74
0
42
0.000000001
43
0.0000000001
44
0.0000000001
40
-1
40
-1
40
-1
40
-1
40
0
40
0
40
0
40
0
41
1
41
1
41
1
41
1
10
-0.39428934948137151
20
-17.832506471833703
30
0
10
0.66671752615542701
20
-17.957567807273605
30
0
10
1.6055719813496472
20
-17.788781040852456
30
0
10
2.239453782919183
20
-17.359013610623258
30
0
0
SPLINE
5
475
100
AcDbEntity
8
0
100
AcDbSpline
70
4
71
3
72
8
73
4
74
0
42
0.000000001
43
0.0000000001
44
0.0000000001
40
-1
40
-1
40
-1
40
-1
40
0
40
0
40
0
40
0
41
1
41
1
41
1
41
1
10
2.239453782919183
20
-17.359013610623258
30
0
10
2.734764117983044
20
-17.023197165150084
30
0
10
2.9276891319713361
20
-16.639616555515264
30
0
10
2.9274886014713086
20
-15.990949297809678
30
0
0
SPLINE
5
476
100
AcDbEntity
8
0
100
AcDbSpline
70
4
71
3
72
8
73
4
74
0
42
0.000000001
43
0.0000000001
44
0.0000000001
40
-1
40
-1
40
-1
40
-1
40
0
40
0
40
0
40
0
41
1
41
1
41
1
41
1
10
2.9274886014713086
20
-15.990949297809678
30
0
10
2.9272978529468929
20
-15.336939858673521
30
0
10
2.6333397038602113
20
-14.734821354659914
30
0
10
1.877432647531041
20
-13.840111732651263
30
0
0
SPLINE
5
477
100
AcDbEntity
8
0
100
AcDbSpline
70
4
71
3
72
8
73
4
74
0
42
0.000000001
43
0.0000000001
44
0.0000000001
40
-1
40
-1
40
-1
40
-1
40
0
40
0
40
0
40
0
41
1
41
1
41
1
41
1
10
1.877432647531041
20
-13.840111732651263
30
0
10
1.2369186664972398
20
-13.081984167858391
30
0
10
1.0143933943100114
20
-12.638274976889598
30
0
10
1.0205707119083707
20
-12.131536848818163
30
0
0
SPLINE
5
478
100
AcDbEntity
8
0
100
AcDbSpline
70
4
71
3
72
8
73
4
74
0
42
0.000000001
43
0.0000000001
44
0.0000000001
40
-1
40
-1
40
-1
40
-1
40
0
40
0
40
0
40
0
41
1
41
1
41
1
41
1
10
10.194800478686599
20
-11.215002554518385
30
0
10
10.169835099722746
20
-11.200983554896604
30
0
10
10.508317192920003
20
-8.9923828315288201
30
0
10
10.734858944469906
20
-7.6911136709135253
30
0
0
SPLINE
5
479
100
AcDbEntity
8
0
100
AcDbSpline
70
4
71
3
72
8
73
4
74
0
42
0.000000001
43
0.0000000001
44
0.0000000001
40
-1
40
-1
40
-1
40
-1
40
0
40
0
40
0
40
0
41
1
41
1
41
1
41
1
10
10.734858944469906
20
-7.6911136709135253
30
0
10
10.751205248177554
20
-7.5972173981386693
30
0
10
10.176269783464235
20
-8.7089600676416481
30
0
10
9.4572232719259475
20
-10.161653237979014
30
0
0
SPLINE
5
480
100
AcDbEntity
8
0
100
AcDbSpline
70
4
71
3
72
8
73
4
74
0
42
0.000000001
43
0.0000000001
44
0.0000000001
40
-1
40
-1
40
-1
40
-1
40
0
40
0
40
0
40
0
41
1
41
1
41
1
41
1
10
9.4572232719259475
20
-10.161653237979014
30
0
10
8.7381767603876614
20
-11.614345956061403
30
0
10
8.1563428244590774
20
-12.809019976543308
30
0
10
8.1642588693613245
20
-12.816483992601047
30
0
0
SPLINE
5
481
100
AcDbEntity
8
0
100
AcDbSpline
70
4
71
3
72
8
73
4
74
0
42
0.000000001
43
0.0000000001
44
0.0000000001
40
-1
40
-1
40
-1
40
-1
40
0
40
0
40
0
40
0
41
1
41
1
41
1
41
1
10
8.1642588693613245
20
-12.816483992601047
30
0
10
8.1721749142635716
20
-12.823948008658794
30
0
10
8.946712884737682
20
-12.604418922704586
30
0
10
9.8854544598048992
20
-12.328642885883836
30
0
0
SPLINE
5
482
100
AcDbEntity
8
0
100
AcDbSpline
70
4
71
3
72
8
73
4
74
0
42
0.000000001
43
0.0000000001
44
0.0000000001
40
-1
40
-1
40
-1
40
-1
40
0
40
0
40
0
40
0
41
1
41
1
41
1
41
1
10
9.8854544598048992
20
-12.328642885883836
30
0
10
10.824196034872116
20
-12.052866396808124
30
0
10
11.607431546840075
20
-11.836608923321297
30
0
10
11.625977618731484
20
-11.84807132558641
30
0
0
SPLINE
5
483
100
AcDbEntity
8
0
100
AcDbSpline
70
4
71
3
72
8
73
4
74
0
42
0.000000001
43
0.0000000001
44
0.0000000001
40
-1
40
-1
40
-1
40
-1
40
0
40
0
40
0
40
0
41
1
41
1
41
1
41
1
10
11.625977618731484
20
-11.84807132558641
30
0
10
11.644524595132841
20
-11.859533275596554
30
0
10
11.527114229599253
20
-12.567824259390949
30
0
10
11.365066298330145
20
-13.422050686567326
30
0
0
SPLINE
5
484
100
AcDbEntity
8
0
100
AcDbSpline
70
4
71
3
72
8
73
4
74
0
42
0.000000001
43
0.0000000001
44
0.0000000001
40
-1
40
-1
40
-1
40
-1
40
0
40
0
40
0
40
0
41
1
41
1
41
1
41
1
10
11.365066298330145
20
-13.422050686567326
30
0
10
11.203018819316007
20
-14.276277113743703
30
0
10
11.054600948392768
20
-15.0776222715551
30
0
10
11.035249862651211
20
-15.202817301921572
30
0
0
SPLINE
5
485
100
AcDbEntity
8
0
100
AcDbSpline
70
4
71
3
72
8
73
4
74
0
42
0.000000001
43
0.0000000001
44
0.0000000001
40
-1
40
-1
40
-1
40
-1
40
0
40
0
40
0
40
0
41
1
41
1
41
1
41
1
10
11.035249862651211
20
-15.202817301921572
30
0
10
11.005646608949586
20
-15.394337332950423
30
0
10
11.039322870928963
20
-15.349202286745708
30
0
10
11.247547843858253
20
-14.918282895313242
30
0
0
SPLINE
5
486
100
AcDbEntity
8
0
100
AcDbSpline
70
4
71
3
72
8
73
4
74
0
42
0.000000001
43
0.0000000001
44
0.0000000001
40
-1
40
-1
40
-1
40
-1
40
0
40
0
40
0
40
0
41
1
41
1
41
1
41
1
10
11.247547843858253
20
-14.918282895313242
30
0
10
11.66849908345306
20
-14.047129469045183
30
0
10
13.442534788059163
20
-10.282719632706172
30
0
10
13.442534788059163
20
-10.260637379188765
30
0
0
SPLINE
5
487
100
AcDbEntity
8
0
100
AcDbSpline
70
4
71
3
72
8
73
4
74
0
42
0.000000001
43
0.0000000001
44
0.0000000001
40
-1
40
-1
40
-1
40
-1
40
0
40
0
40
0
40
0
41
1
41
1
41
1
41
1
10
13.442534788059163
20
-10.260637379188765
30
0
10
13.442534788059163
20
-10.249154173194936
30
0
10
12.719106830352228
20
-10.463294641157873
30
0
10
11.834916702261552
20
-10.736505035522512
30
0
0
SPLINE
5
488
100
AcDbEntity
8
0
100
AcDbSpline
70
4
71
3
72
8
73
4
74
0
42
0.000000001
43
0.0000000001
44
0.0000000001
40
-1
40
-1
40
-1
40
-1
40
0
40
0
40
0
40
0
41
1
41
1
41
1
41
1
10
11.834916702261552
20
-10.736505035522512
30
0
10
10.950726574170876
20
-11.009715882142119
30
0
10
10.212674499689633
20
-11.225039449111787
30
0
10
10.194800478686599
20
-11.215002554518385
30
0
0
SPLINE
5
489
100
AcDbEntity
8
0
100
AcDbSpline
70
4
71
3
72
8
73
4
74
0
42
0.000000001
43
0.0000000001
44
0.0000000001
40
-1
40
-1
40
-1
40
-1
40
0
40
0
40
0
40
0
41
1
41
1
41
1
41
1
10
-11.996069067735963
20
-13.705778069985172
30
0
10
-11.917821721501948
20
-13.599720661013478
30
0
10
-11.853802316686775
20
-13.465541133373438
30
0
10
-11.853802316686775
20
-13.407601844401707
30
0
0
SPLINE
5
490
100
AcDbEntity
8
0
100
AcDbSpline
70
4
71
3
72
8
73
4
74
0
42
0.000000001
43
0.0000000001
44
0.0000000001
40
-1
40
-1
40
-1
40
-1
40
0
40
0
40
0
40
0
41
1
41
1
41
1
41
1
10
-11.853802316686775
20
-13.407601844401707
30
0
10
-11.853802316686775
20
-13.349661650920037
30
0
10
-11.917821721501948
20
-13.238236879940754
30
0
10
-11.996069067735963
20
-13.159989533706739
30
0
0
SPLINE
5
491
100
AcDbEntity
8
0
100
AcDbSpline
70
4
71
3
72
8
73
4
74
0
42
0.000000001
43
0.0000000001
44
0.0000000001
40
-1
40
-1
40
-1
40
-1
40
0
40
0
40
0
40
0
41
1
41
1
41
1
41
1
10
-11.996069067735963
20
-13.159989533706739
30
0
10
-12.175764440267137
20
-12.980294161175564
30
0
10
-12.174232200422033
20
-12.965988884156513
30
0
10
-11.975290665302802
20
-12.965988884156513
30
0
0
SPLINE
5
492
100
AcDbEntity
8
0
100
AcDbSpline
70
4
71
3
72
8
73
4
74
0
42
0.000000001
43
0.0000000001
44
0.0000000001
40
-1
40
-1
40
-1
40
-1
40
0
40
0
40
0
40
0
41
1
41
1
41
1
41
1
10
-11.975290665302802
20
-12.965988884156513
30
0
10
-11.784524091057289
20
-12.965988884156513
30
0
10
-11.535850790198028
20
-13.143776192960853
30
0
10
-11.479856197605862
20
-13.32019362145504
30
0
0
LINE
5
493
100
AcDbEntity
8
0
100
AcDbLine
10
-11.479856197605862
20
-13.320193621455038
30
0
11
-11.440623983295577
21
-13.443802141379768
31
0
0
LINE
5
494
100
AcDbEntity
8
0
100
AcDbLine
10
-11.440623983295577
20
-13.443802141379768
30
0
11
-11.334224669565058
21
-13.31240488632741
31
0
0
SPLINE
5
495
100
AcDbEntity
8
0
100
AcDbSpline
70
4
71
3
72
8
73
4
74
0
42
0.000000001
43
0.0000000001
44
0.0000000001
40
-1
40
-1
40
-1
40
-1
40
0
40
0
40
0
40
0
41
1
41
1
41
1
41
1
10
-11.334224669565058
20
-13.31240488632741
30
0
10
-11.178138815591705
20
-13.119647033440213
30
0
10
-11.203179268880913
20
-12.949349519227017
30
0
10
-11.427000254519317
20
-12.68145447754819
30
0
0
SPLINE
5
496
100
AcDbEntity
8
0
100
AcDbSpline
70
4
71
3
72
8
73
4
74
0
42
0.000000001
43
0.0000000001
44
0.0000000001
40
-1
40
-1
40
-1
40
-1
40
0
40
0
40
0
40
0
41
1
41
1
41
1
41
1
10
-11.427000254519317
20
-12.68145447754819
30
0
10
-11.536545453835005
20
-12.550337168323495
30
0
10
-11.626173344184201
20
-12.418601626552089
30
0
10
-11.626173344184201
20
-12.388710286433312
30
0
0
SPLINE
5
497
100
AcDbEntity
8
0
100
AcDbSpline
70
4
71
3
72
8
73
4
74
0
42
0.000000001
43
0.0000000001
44
0.0000000001
40
-1
40
-1
40
-1
40
-1
40
0
40
0
40
0
40
0
41
1
41
1
41
1
41
1
10
-11.626173344184201
20
-12.388710286433312
30
0
10
-11.626173344184201
20
-12.146613677376745
30
0
10
-11.128627750278008
20
-11.706881193305087
30
0
10
-10.76411747893272
20
-11.626836585812384
30
0
0
SPLINE
5
498
100
AcDbEntity
8
0
100
AcDbSpline
70
4
71
3
72
8
73
4
74
0
42
0.000000001
43
0.0000000001
44
0.0000000001
40
-1
40
-1
40
-1
40
-1
40
0
40
0
40
0
40
0
41
1
41
1
41
1
41
1
10
-10.76411747893272
20
-11.626836585812384
30
0
10
-10.537318846558721
20
-11.577022961922419
30
0
10
-10.512423114860558
20
-11.616437887241386
30
0
10
-10.648942609725687
20
-11.809166795810375
30
0
0
SPLINE
5
499
100
AcDbEntity
8
0
100
AcDbSpline
70
4
71
3
72
8
73
4
74
0
42
0.000000001
43
0.0000000001
44
0.0000000001
40
-1
40
-1
40
-1
40
-1
40
0
40
0
40
0
40
0
41
1
41
1
41
1
41
1
10
-10.648942609725687
20
-11.809166795810375
30
0
10
-10.845608397825854
20
-12.086802957330921
30
0
10
-10.850680889591704
20
-12.198217778700823
30
0
10
-10.673458447247377
20
-12.34771608675215
30
0
0
SPLINE
5
500
100
AcDbEntity
8
0
100
AcDbSpline
70
4
71
3
72
8
73
4
74
0
42
0.000000001
43
0.0000000001
44
0.0000000001
40
-1
40
-1
40
-1
40
-1
40
0
40
0
40
0
40
0
41
1
41
1
41
1
41
1
10
-10.673458447247377
20
-12.34771608675215
30
0
10
-10.427239986376087
20
-12.555417348423873
30
0
10
-10.31742705211698
20
-12.744892282469383
30
0
10
-10.316048578962347
20
-12.964439458622472
30
0
0
SPLINE
5
501
100
AcDbEntity
8
0
100
AcDbSpline
70
4
71
3
72
8
73
4
74
0
42
0.000000001
43
0.0000000001
44
0.0000000001
40
-1
40
-1
40
-1
40
-1
40
0
40
0
40
0
40
0
41
1
41
1
41
1
41
1
10
-10.316048578962347
20
-12.964439458622472
30
0
10
-10.314791310140215
20
-13.164091486302695
30
0
10
-10.3142522222136
20
-13.164513892446536
30
0
10
-10.216462034129904
20
-13.042466556685127
30
0
0
SPLINE
5
502
100
AcDbEntity
8
0
100
AcDbSpline
70
4
71
3
72
8
73
4
74
0
42
0.000000001
43
0.0000000001
44
0.0000000001
40
-1
40
-1
40
-1
40
-1
40
0
40
0
40
0
40
0
41
1
41
1
41
1
41
1
10
-10.216462034129904
20
-13.042466556685127
30
0
10
-10.071961143519079
20
-12.862120389249259
30
0
10
-9.7432097682991845
20
-12.681910350559956
30
0
10
-9.5582411027945913
20
-12.681681961799104
30
0
0
LINE
5
503
100
AcDbEntity
8
0
100
AcDbLine
10
-9.5582411027945913
20
-12.681681961799104
30
0
11
-9.3966883907198131
21
-12.681453573038244
31
0
0
LINE
5
504
100
AcDbEntity
8
0
100
AcDbLine
10
-9.3966883907198131
20
-12.681453573038244
30
0
11
-9.5440149703956401
21
-12.85654046740483
31
0
0
SPLINE
5
505
100
AcDbEntity
8
0
100
AcDbSpline
70
4
71
3
72
8
73
4
74
0
42
0.000000001
43
0.0000000001
44
0.0000000001
40
-1
40
-1
40
-1
40
-1
40
0
40
0
40
0
40
0
41
1
41
1
41
1
41
1
10
-9.5440149703956401
20
-12.85654046740483
30
0
10
-9.7526112446569346
20
-13.104444934811706
30
0
10
-9.7623003551768726
20
-13.400493300751952
30
0
10
-9.5739035969845876
20
-13.769783907151186
30
0
0
SPLINE
5
506
100
AcDbEntity
8
0
100
AcDbSpline
70
4
71
3
72
8
73
4
74
0
42
0.000000001
43
0.0000000001
44
0.0000000001
40
-1
40
-1
40
-1
40
-1
40
0
40
0
40
0
40
0
41
1
41
1
41
1
41
1
10
-9.5739035969845876
20
-13.769783907151186
30
0
10
-9.3581110416089697
20
-14.192770746374928
30
0
10
-9.4660950567613433
20
-14.446539151748642
30
0
10
-9.9481970478839887
20
-14.649404451004862
30
0
0
SPLINE
5
507
100
AcDbEntity
8
0
100
AcDbSpline
70
4
71
3
72
8
73
4
74
0
42
0.000000001
43
0.0000000001
44
0.0000000001
40
-1
40
-1
40
-1
40
-1
40
0
40
0
40
0
40
0
41
1
41
1
41
1
41
1
10
-9.9481988569038791
20
-14.649406260024755
30
0
10
-10.275457790716205
20
-14.787114280956274
30
0
10
-11.06406744851633
20
-14.809158997311007
30
0
10
-11.448695830035671
20
-14.691351099657041
30
0
0
SPLINE
5
508
100
AcDbEntity
8
0
100
AcDbSpline
70
4
71
3
72
8
73
4
74
0
42
0.000000001
43
0.0000000001
44
0.0000000001
40
-1
40
-1
40
-1
40
-1
40
0
40
0
40
0
40
0
41
1
41
1
41
1
41
1
10
-11.448695830035671
20
-14.691351099657041
30
0
10
-11.822162558846276
20
-14.576963154101271
30
0
10
-12.138335818785153
20
-14.28585115118031
30
0
10
-12.138335818785153
20
-14.056378787411901
30
0
0
SPLINE
5
509
100
AcDbEntity
8
0
100
AcDbSpline
70
4
71
3
72
8
73
4
74
0
42
0.000000001
43
0.0000000001
44
0.0000000001
40
-1
40
-1
40
-1
40
-1
40
0
40
0
40
0
40
0
41
1
41
1
41
1
41
1
10
-12.138335818785153
20
-14.056378787411901
30
0
10
-12.138335818785153
20
-13.969605530445911
30
0
10
-12.074316413969978
20
-13.811836383466808
30
0
10
-11.996069067735963
20
-13.705778069985172
30
0
0
SPLINE
5
510
100
AcDbEntity
8
0
100
AcDbSpline
70
4
71
3
72
8
73
4
74
0
42
0.000000001
43
0.0000000001
44
0.0000000001
40
-1
40
-1
40
-1
40
-1
40
0
40
0
40
0
40
0
41
1
41
1
41
1
41
1
10
-13.993015368721849
20
-12.605633931493877
30
0
10
-13.845086385423331
20
-13.234165680682889
30
0
10
-13.147224401283051
20
-14.11775973672048
30
0
10
-12.552087611480838
20
-14.430052648999677
30
0
0
SPLINE
5
511
100
AcDbEntity
8
0
100
AcDbSpline
70
4
71
3
72
8
73
4
74
0
42
0.000000001
43
0.0000000001
44
0.0000000001
40
-1
40
-1
40
-1
40
-1
40
0
40
0
40
0
40
0
41
1
41
1
41
1
41
1
10
-12.552087611480838
20
-14.430052648999677
30
0
10
-12.227757480867126
20
-14.600242526529538
30
0
10
-11.789041213717532
20
-14.758283931001785
30
0
10
-11.512358857932918
20
-14.804599362683394
30
0
0
SPLINE
5
512
100
AcDbEntity
8
0
100
AcDbSpline
70
4
71
3
72
8
73
4
74
0
42
0.000000001
43
0.0000000001
44
0.0000000001
40
-1
40
-1
40
-1
40
-1
40
0
40
0
40
0
40
0
41
1
41
1
41
1
41
1
10
-11.512358857932918
20
-14.804599362683394
30
0
10
-11.159053655773681
20
-14.863740745370674
30
0
10
-10.204578582485864
20
-14.835777820452464
30
0
10
-9.8679272174152288
20
-14.756422449537068
30
0
0
SPLINE
5
513
100
AcDbEntity
8
0
100
AcDbSpline
70
4
71
3
72
8
73
4
74
0
42
0.000000001
43
0.0000000001
44
0.0000000001
40
-1
40
-1
40
-1
40
-1
40
0
40
0
40
0
40
0
41
1
41
1
41
1
41
1
10
-9.8679272174152288
20
-14.756422449537068
30
0
10
-8.6971259278848478
20
-14.48044018444909
30
0
10
-7.6846934754264229
20
-13.428605469810915
30
0
10
-7.2718027761974202
20
-12.059260177281681
30
0
0
SPLINE
5
514
100
AcDbEntity
8
0
100
AcDbSpline
70
4
71
3
72
8
73
4
74
0
42
0.000000001
43
0.0000000001
44
0.0000000001
40
-1
40
-1
40
-1
40
-1
40
0
40
0
40
0
40
0
41
1
41
1
41
1
41
1
10
-7.2718027761974202
20
-12.059260177281681
30
0
10
-7.2310925926386638
20
-11.924245786963343
30
0
10
-7.2357182564921896
20
-11.925268335455016
30
0
10
-7.4564241098835193
20
-12.100070309189244
30
0
0
SPLINE
5
515
100
AcDbEntity
8
0
100
AcDbSpline
70
4
71
3
72
8
73
4
74
0
42
0.000000001
43
0.0000000001
44
0.0000000001
40
-1
40
-1
40
-1
40
-1
40
0
40
0
40
0
40
0
41
1
41
1
41
1
41
1
10
-7.4564241098835193
20
-12.100070309189244
30
0
10
-7.7652292318187133
20
-12.344648893532097
30
0
10
-8.1802708556945181
20
-12.542868629716031
30
0
10
-8.5417763450058981
20
-12.618425511121671
30
0
0
SPLINE
5
516
100
AcDbEntity
8
0
100
AcDbSpline
70
4
71
3
72
8
73
4
74
0
42
0.000000001
43
0.0000000001
44
0.0000000001
40
-1
40
-1
40
-1
40
-1
40
0
40
0
40
0
40
0
41
1
41
1
41
1
41
1
10
-8.5417763450058981
20
-12.618425511121671
30
0
10
-9.0690567988105641
20
-12.728629645931555
30
0
10
-9.0870619737554748
20
-12.679888318580183
30
0
10
-8.6342715318775198
20
-12.368040425193421
30
0
0
SPLINE
5
517
100
AcDbEntity
8
0
100
AcDbSpline
70
4
71
3
72
8
73
4
74
0
42
0.000000001
43
0.0000000001
44
0.0000000001
40
-1
40
-1
40
-1
40
-1
40
0
40
0
40
0
40
0
41
1
41
1
41
1
41
1
10
-8.6342715318775198
20
-12.368040425193421
30
0
10
-8.1352913852001674
20
-12.024379108056923
30
0
10
-7.7958993549992694
20
-11.553626907711369
30
0
10
-7.7243001568535252
20
-11.105870968181621
30
0
0
SPLINE
5
518
100
AcDbEntity
8
0
100
AcDbSpline
70
4
71
3
72
8
73
4
74
0
42
0.000000001
43
0.0000000001
44
0.0000000001
40
-1
40
-1
40
-1
40
-1
40
0
40
0
40
0
40
0
41
1
41
1
41
1
41
1
10
-7.7243001568535252
20
-11.105870968181621
30
0
10
-7.6889066827454933
20
-10.884533766849387
30
0
10
-7.761631091261556
20
-10.509844140594522
30
0
10
-7.8713445294268247
20
-10.34827198155595
30
0
0
SPLINE
5
519
100
AcDbEntity
8
0
100
AcDbSpline
70
4
71
3
72
8
73
4
74
0
42
0.000000001
43
0.0000000001
44
0.0000000001
40
-1
40
-1
40
-1
40
-1
40
0
40
0
40
0
40
0
41
1
41
1
41
1
41
1
10
-7.8713445294268247
20
-10.34827198155595
30
0
10
-7.9212047355789039
20
-10.274848839108163
30
0
10
-7.9382565570428554
20
-10.27882777835174
30
0
10
-7.9932977961540619
20
-10.376725603118771
30
0
0
SPLINE
5
520
100
AcDbEntity
8
0
100
AcDbSpline
70
4
71
3
72
8
73
4
74
0
42
0.000000001
43
0.0000000001
44
0.0000000001
40
-1
40
-1
40
-1
40
-1
40
0
40
0
40
0
40
0
41
1
41
1
41
1
41
1
10
-7.9932977961540619
20
-10.376725603118771
30
0
10
-8.028492278074415
20
-10.439323118302006
30
0
10
-8.1761480993698488
20
-10.60693423798158
30
0
10
-8.321421441472836
20
-10.74919510971613
30
0
0
SPLINE
5
521
100
AcDbEntity
8
0
100
AcDbSpline
70
4
71
3
72
8
73
4
74
0
42
0.000000001
43
0.0000000001
44
0.0000000001
40
-1
40
-1
40
-1
40
-1
40
0
40
0
40
0
40
0
41
1
41
1
41
1
41
1
10
-8.321421441472836
20
-10.74919510971613
30
0
10
-8.6099800128219339
20
-11.031769895530816
30
0
10
-9.0832576049310898
20
-11.224035242753519
30
0
10
-9.4103808622518148
20
-11.191577807923657
30
0
0
LINE
5
522
100
AcDbEntity
8
0
100
AcDbLine
10
-9.410380862251813
20
-11.191577807923656
30
0
11
-9.5933704599989724
21
-11.173421579818106
31
0
0
LINE
5
523
100
AcDbEntity
8
0
100
AcDbLine
10
-9.5933704599989724
20
-11.173421579818106
30
0
11
-9.5824023724182439
21
-10.601088390213626
31
0
0
SPLINE
5
524
100
AcDbEntity
8
0
100
AcDbSpline
70
4
71
3
72
8
73
4
74
0
42
0.000000001
43
0.0000000001
44
0.0000000001
40
-1
40
-1
40
-1
40
-1
40
0
40
0
40
0
40
0
41
1
41
1
41
1
41
1
10
-9.5824023724182439
20
-10.601088390213626
30
0
10
-9.56253571600862
20
-9.5642861785894659
30
0
10
-9.8217501757550494
20
-8.7934524024634442
30
0
10
-10.359380032338761
20
-8.2905620592982565
30
0
0
SPLINE
5
525
100
AcDbEntity
8
0
100
AcDbSpline
70
4
71
3
72
8
73
4
74
0
42
0.000000001
43
0.0000000001
44
0.0000000001
40
-1
40
-1
40
-1
40
-1
40
0
40
0
40
0
40
0
41
1
41
1
41
1
41
1
10
-10.359380032338761
20
-8.2905620592982565
30
0
10
-10.632075308290304
20
-8.0354884460753784
30
0
10
-10.985371465350102
20
-7.8105761691895603
30
0
10
-11.035153883646993
20
-7.86035813523148
30
0
0
SPLINE
5
526
100
AcDbEntity
8
0
100
AcDbSpline
70
4
71
3
72
8
73
4
74
0
42
0.000000001
43
0.0000000001
44
0.0000000001
40
-1
40
-1
40
-1
40
-1
40
0
40
0
40
0
40
0
41
1
41
1
41
1
41
1
10
-11.035153883646993
20
-7.86035813523148
30
0
10
-11.048560530036697
20
-7.873766364513588
30
0
10
-10.995216151580403
20
-8.0229012856949211
30
0
10
-10.916607001368792
20
-8.1917685435591991
30
0
0
SPLINE
5
527
100
AcDbEntity
8
0
100
AcDbSpline
70
4
71
3
72
8
73
4
74
0
42
0.000000001
43
0.0000000001
44
0.0000000001
40
-1
40
-1
40
-1
40
-1
40
0
40
0
40
0
40
0
41
1
41
1
41
1
41
1
10
-10.916607001368792
20
-8.1917685435591991
30
0
10
-10.837997851157187
20
-8.3606358014234772
30
0
10
-10.773408605077304
20
-8.5376117648080694
30
0
10
-10.773126397974782
20
-8.5850481104377607
30
0
0
SPLINE
5
528
100
AcDbEntity
8
0
100
AcDbSpline
70
4
71
3
72
8
73
4
74
0
42
0.000000001
43
0.0000000001
44
0.0000000001
40
-1
40
-1
40
-1
40
-1
40
0
40
0
40
0
40
0
41
1
41
1
41
1
41
1
10
-10.773126397974782
20
-8.5850481104377607
30
0
10
-10.771910736610071
20
-8.773702880091566
30
0
10
-10.993421603851541
20
-9.0476163048101643
30
0
10
-11.431390745787402
20
-9.3990371866286004
30
0
0
SPLINE
5
529
100
AcDbEntity
8
0
100
AcDbSpline
70
4
71
3
72
8
73
4
74
0
42
0.000000001
43
0.0000000001
44
0.0000000001
40
-1
40
-1
40
-1
40
-1
40
0
40
0
40
0
40
0
41
1
41
1
41
1
41
1
10
-11.431390745787402
20
-9.3990371866286004
30
0
10
-11.959441842064349
20
-9.822736327433228
30
0
10
-12.170158287634338
20
-10.055467188274832
30
0
10
-12.31660568364461
20
-10.376726055373746
30
0
0
SPLINE
5
530
100
AcDbEntity
8
0
100
AcDbSpline
70
4
71
3
72
8
73
4
74
0
42
0.000000001
43
0.0000000001
44
0.0000000001
40
-1
40
-1
40
-1
40
-1
40
0
40
0
40
0
40
0
41
1
41
1
41
1
41
1
10
-12.31660568364461
20
-10.376726055373746
30
0
10
-12.443503001725658
20
-10.655097131223776
30
0
10
-12.452226095625418
20
-11.078365725295068
30
0
10
-12.336763592256199
20
-11.354707985340745
30
0
0
SPLINE
5
531
100
AcDbEntity
8
0
100
AcDbSpline
70
4
71
3
72
8
73
4
74
0
42
0.000000001
43
0.0000000001
44
0.0000000001
40
-1
40
-1
40
-1
40
-1
40
0
40
0
40
0
40
0
41
1
41
1
41
1
41
1
10
-12.336763592256199
20
-11.354707985340745
30
0
10
-12.289405260609181
20
-11.468053935441048
30
0
10
-12.261106762501752
20
-11.571242238870427
30
0
10
-12.273880251930667
20
-11.584015728299345
30
0
0
SPLINE
5
532
100
AcDbEntity
8
0
100
AcDbSpline
70
4
71
3
72
8
73
4
74
0
42
0.000000001
43
0.0000000001
44
0.0000000001
40
-1
40
-1
40
-1
40
-1
40
0
40
0
40
0
40
0
41
1
41
1
41
1
41
1
10
-12.273880251930667
20
-11.584015728299345
30
0
10
-12.333650269029013
20
-11.643785745397693
30
0
10
-12.739717345240624
20
-11.200498989501156
30
0
10
-12.858133978086892
20
-10.946208681889766
30
0
0
SPLINE
5
533
100
AcDbEntity
8
0
100
AcDbSpline
70
4
71
3
72
8
73
4
74
0
42
0.000000001
43
0.0000000001
44
0.0000000001
40
-1
40
-1
40
-1
40
-1
40
0
40
0
40
0
40
0
41
1
41
1
41
1
41
1
10
-12.858133978086892
20
-10.946208681889766
30
0
10
-13.042116727752537
20
-10.551116477083466
30
0
10
-13.035124865885557
20
-10.430382037505744
30
0
10
-12.792187967091033
20
-9.8076572421570987
30
0
0
SPLINE
5
534
100
AcDbEntity
8
0
100
AcDbSpline
70
4
71
3
72
8
73
4
74
0
42
0.000000001
43
0.0000000001
44
0.0000000001
40
-1
40
-1
40
-1
40
-1
40
0
40
0
40
0
40
0
41
1
41
1
41
1
41
1
10
-12.792187967091033
20
-9.8076572421570987
30
0
10
-12.712484359847206
20
-9.6033528675799964
30
0
10
-13.25847007929343
20
-10.177708089164256
30
0
10
-13.411849639514383
20
-10.459519016331246
30
0
0
SPLINE
5
535
100
AcDbEntity
8
0
100
AcDbSpline
70
4
71
3
72
8
73
4
74
0
42
0.000000001
43
0.0000000001
44
0.0000000001
40
-1
40
-1
40
-1
40
-1
40
0
40
0
40
0
40
0
41
1
41
1
41
1
41
1
10
-13.411849639514383
20
-10.459519016331246
30
0
10
-13.492437857483424
20
-10.607582771611415
30
0
10
-13.586154132779424
20
-10.858277652195479
30
0
10
-13.620113054116292
20
-11.016619806224096
30
0
0
SPLINE
5
536
100
AcDbEntity
8
0
100
AcDbSpline
70
4
71
3
72
8
73
4
74
0
42
0.000000001
43
0.0000000001
44
0.0000000001
40
-1
40
-1
40
-1
40
-1
40
0
40
0
40
0
40
0
41
1
41
1
41
1
41
1
10
-13.620113054116292
20
-11.016619806224096
30
0
10
-13.72889484703926
20
-11.523856771925086
30
0
10
-13.524868157014964
20
-12.248953098223701
30
0
10
-13.126131229389388
20
-12.772184965519102
30
0
0
SPLINE
5
537
100
AcDbEntity
8
0
100
AcDbSpline
70
4
71
3
72
8
73
4
74
0
42
0.000000001
43
0.0000000001
44
0.0000000001
40
-1
40
-1
40
-1
40
-1
40
0
40
0
40
0
40
0
41
1
41
1
41
1
41
1
10
-13.126131229389388
20
-12.772184965519102
30
0
10
-13.052326836000212
20
-12.869035820025974
30
0
10
-12.991938134100183
20
-12.975810053128271
30
0
10
-12.991938134100183
20
-13.009461441084188
30
0
0
SPLINE
5
538
100
AcDbEntity
8
0
100
AcDbSpline
70
4
71
3
72
8
73
4
74
0
42
0.000000001
43
0.0000000001
44
0.0000000001
40
-1
40
-1
40
-1
40
-1
40
0
40
0
40
0
40
0
41
1
41
1
41
1
41
1
10
-12.991938134100183
20
-13.009461441084188
30
0
10
-12.991938134100183
20
-13.108612012123633
30
0
10
-13.400273721251299
20
-12.921795885058458
30
0
10
-13.731474509399497
20
-12.671119546928246
30
0
0
LINE
5
539
100
AcDbEntity
8
0
100
AcDbLine
10
-13.731474509399497
20
-12.671119546928249
30
0
11
-14.030950515772464
21
-12.444454329770988
31
0
0
LINE
5
540
100
AcDbEntity
8
0
100
AcDbLine
10
-14.030950515772464
20
-12.444454329770988
30
0
11
-13.993015368721849
21
-12.605633931493877
31
0
0
SPLINE
5
541
100
AcDbEntity
8
0
100
AcDbSpline
70
4
71
3
72
8
73
4
74
0
42
0.000000001
43
0.0000000001
44
0.0000000001
40
-1
40
-1
40
-1
40
-1
40
0
40
0
40
0
40
0
41
1
41
1
41
1
41
1
10
-1.5499759670572111
20
-16.087600107834334
30
0
10
-1.0085974178532586
20
-16.131056534486277
30
0
10
-0.50730540470325991
20
-16.350332968023697
30
0
10
-0.1302836097156268
20
-16.708602715765011
30
0
0
SPLINE
5
542
100
AcDbEntity
8
0
100
AcDbSpline
70
4
71
3
72
8
73
4
74
0
42
0.000000001
43
0.0000000001
44
0.0000000001
40
-1
40
-1
40
-1
40
-1
40
0
40
0
40
0
40
0
41
1
41
1
41
1
41
1
10
-0.1302836097156268
20
-16.708602715765011
30
0
10
0.13306673768418431
20
-16.958852552327762
30
0
10
0.18047508248297817
20
-17.132209946853166
30
0
10
0.027421401085194752
20
-17.285262405503996
30
0
0
SPLINE
5
543
100
AcDbEntity
8
0
100
AcDbSpline
70
4
71
3
72
8
73
4
74
0
42
0.000000001
43
0.0000000001
44
0.0000000001
40
-1
40
-1
40
-1
40
-1
40
0
40
0
40
0
40
0
41
1
41
1
41
1
41
1
10
0.027421401085194752
20
-17.285262405503996
30
0
10
-0.15675363571904022
20
-17.469434996814325
30
0
10
-1.032362727600229
20
-17.353863400464064
30
0
10
-1.5726946054137958
20
-17.074062215580422
30
0
0
SPLINE
5
544
100
AcDbEntity
8
0
100
AcDbSpline
70
4
71
3
72
8
73
4
74
0
42
0.000000001
43
0.0000000001
44
0.0000000001
40
-1
40
-1
40
-1
40
-1
40
0
40
0
40
0
40
0
41
1
41
1
41
1
41
1
10
-1.5726946054137958
20
-17.074062215580422
30
0
10
-1.8654202255734909
20
-16.922480721512102
30
0
10
-2.2650530571859884
20
-16.517148666359226
30
0
10
-2.2650530571859884
20
-16.371833750416712
30
0
0
SPLINE
5
545
100
AcDbEntity
8
0
100
AcDbSpline
70
4
71
3
72
8
73
4
74
0
42
0.000000001
43
0.0000000001
44
0.0000000001
40
-1
40
-1
40
-1
40
-1
40
0
40
0
40
0
40
0
41
1
41
1
41
1
41
1
10
-2.2650530571859884
20
-16.371833750416712
30
0
10
-2.2650530571859884
20
-16.128585362897546
30
0
10
-2.0591229066228545
20
-16.04672979098455
30
0
10
-1.5499759670572111
20
-16.087600107834334
30
0
0
SPLINE
5
546
100
AcDbEntity
8
0
100
AcDbSpline
70
4
71
3
72
8
73
4
74
0
42
0.000000001
43
0.0000000001
44
0.0000000001
40
-1
40
-1
40
-1
40
-1
40
0
40
0
40
0
40
0
41
1
41
1
41
1
41
1
10
1.0205707119083707
20
-12.131536848818163
30
0
10
1.0257111400919561
20
-11.710067590774496
30
0
10
1.2136962563966858
20
-11.364875733051637
30
0
10
1.6553964741243643
20
-10.965824928987988
30
0
0
SPLINE
5
547
100
AcDbEntity
8
0
100
AcDbSpline
70
4
71
3
72
8
73
4
74
0
42
0.000000001
43
0.0000000001
44
0.0000000001
40
-1
40
-1
40
-1
40
-1
40
0
40
0
40
0
40
0
41
1
41
1
41
1
41
1
10
1.6553964741243643
20
-10.965824928987988
30
0
10
2.0124239109630837
20
-10.643271008322923
30
0
10
2.2874050273643887
20
-10.493917359200013
30
0
10
2.96399004346382
20
-10.255082476801839
30
0
0
LINE
5
548
100
AcDbEntity
8
0
100
AcDbLine
10
2.96399004346382
20
-10.255082476801839
30
0
11
3.4661330884919783
21
-10.077825436561758
31
0
0
LINE
5
549
100
AcDbEntity
8
0
100
AcDbLine
10
3.4661330884919783
20
-10.077825436561758
30
0
11
3.0045607873105151
21
-10.116899232453228
31
0
0
SPLINE
5
550
100
AcDbEntity
8
0
100
AcDbSpline
70
4
71
3
72
8
73
4
74
0
42
0.000000001
43
0.0000000001
44
0.0000000001
40
-1
40
-1
40
-1
40
-1
40
0
40
0
40
0
40
0
41
1
41
1
41
1
41
1
10
3.0045607873105151
20
-10.116899232453228
30
0
10
0.83129926581079427
20
-10.300874350130913
30
0
10
-0.88518801354466436
20
-10.774952907131063
30
0
10
-2.1626749004410861
20
-11.544041175596078
30
0
0
SPLINE
5
551
100
AcDbEntity
8
0
100
AcDbSpline
70
4
71
3
72
8
73
4
74
0
42
0.000000001
43
0.0000000001
44
0.0000000001
40
-1
40
-1
40
-1
40
-1
40
0
40
0
40
0
40
0
41
1
41
1
41
1
41
1
10
-2.1626749004410861
20
-11.544041175596078
30
0
10
-2.7217539345131669
20
-11.880626117528191
30
0
10
-3.4670817842190171
20
-12.682933363794744
30
0
10
-3.71832204581239
20
-13.218623082807412
30
0
0
SPLINE
5
552
100
AcDbEntity
8
0
100
AcDbSpline
70
4
71
3
72
8
73
4
74
0
42
0.000000001
43
0.0000000001
44
0.0000000001
40
-1
40
-1
40
-1
40
-1
40
0
40
0
40
0
40
0
41
1
41
1
41
1
41
1
10
-3.71832204581239
20
-13.218623082807412
30
0
10
-3.89660833329879
20
-13.598772664496671
30
0
10
-3.9190139484358255
20
-13.741204954501317
30
0
10
-3.9190139484358255
20
-14.494579090520707
30
0
0
SPLINE
5
553
100
AcDbEntity
8
0
100
AcDbSpline
70
4
71
3
72
8
73
4
74
0
42
0.000000001
43
0.0000000001
44
0.0000000001
40
-1
40
-1
40
-1
40
-1
40
0
40
0
40
0
40
0
41
1
41
1
41
1
41
1
10
-3.9190139484358255
20
-14.494579090520707
30
0
10
-3.9190139484358255
20
-15.297865757095312
30
0
10
-3.9056713337023963
20
-15.369710088343904
30
0
10
-3.6661694428422509
20
-15.856011835243496
30
0
0
SPLINE
5
554
100
AcDbEntity
8
0
100
AcDbSpline
70
4
71
3
72
8
73
4
74
0
42
0.000000001
43
0.0000000001
44
0.0000000001
40
-1
40
-1
40
-1
40
-1
40
0
40
0
40
0
40
0
41
1
41
1
41
1
41
1
10
-3.6661694428422509
20
-15.856011835243496
30
0
10
-3.1559318129959735
20
-16.892030654181951
30
0
10
-1.891146821430465
20
-17.656070200484734
30
0
10
-0.39429424046917738
20
-17.832506471833703
30
0
0
SPLINE
5
555
100
AcDbEntity
8
0
100
AcDbSpline
70
4
71
3
72
8
73
4
74
0
42
0.000000001
43
0.0000000001
44
0.0000000001
40
-1
40
-1
40
-1
40
-1
40
0
40
0
40
0
40
0
41
1
41
1
41
1
41
1
10
-0.39428934948137151
20
-17.832506471833703
30
0
10
0.66671752615542701
20
-17.957567807273605
30
0
10
1.6055719813496472
20
-17.788781040852456
30
0
10
2.239453782919183
20
-17.359013610623258
30
0
0
SPLINE
5
556
100
AcDbEntity
8
0
100
AcDbSpline
70
4
71
3
72
8
73
4
74
0
42
0.000000001
43
0.0000000001
44
0.0000000001
40
-1
40
-1
40
-1
40
-1
40
0
40
0
40
0
40
0
41
1
41
1
41
1
41
1
10
2.239453782919183
20
-17.359013610623258
30
0
10
2.734764117983044
20
-17.023197165150084
30
0
10
2.9276891319713361
20
-16.639616555515264
30
0
10
2.9274886014713086
20
-15.990949297809678
30
0
0
SPLINE
5
557
100
AcDbEntity
8
0
100
AcDbSpline
70
4
71
3
72
8
73
4
74
0
42
0.000000001
43
0.0000000001
44
0.0000000001
40
-1
40
-1
40
-1
40
-1
40
0
40
0
40
0
40
0
41
1
41
1
41
1
41
1
10
2.9274886014713086
20
-15.990949297809678
30
0
10
2.9272978529468929
20
-15.336939858673521
30
0
10
2.6333397038602113
20
-14.734821354659914
30
0
10
1.877432647531041
20
-13.840111732651263
30
0
0
SPLINE
5
558
100
AcDbEntity
8
0
100
AcDbSpline
70
4
71
3
72
8
73
4
74
0
42
0.000000001
43
0.0000000001
44
0.0000000001
40
-1
40
-1
40
-1
40
-1
40
0
40
0
40
0
40
0
41
1
41
1
41
1
41
1
10
1.877432647531041
20
-13.840111732651263
30
0
10
1.2369186664972398
20
-13.081984167858391
30
0
10
1.0143933943100114
20
-12.638274976889598
30
0
10
1.0205707119083707
20
-12.131536848818163
30
0
0
SPLINE
5
559
100
AcDbEntity
8
0
100
AcDbSpline
70
4
71
3
72
8
73
4
74
0
42
0.000000001
43
0.0000000001
44
0.0000000001
40
-1
40
-1
40
-1
40
-1
40
0
40
0
40
0
40
0
41
1
41
1
41
1
41
1
10
10.194800478686599
20
-11.215002554518385
30
0
10
10.169835099722746
20
-11.200983554896604
30
0
10
10.508317192920003
20
-8.9923828315288201
30
0
10
10.734858944469906
20
-7.6911136709135253
30
0
0
SPLINE
5
560
100
AcDbEntity
8
0
100
AcDbSpline
70
4
71
3
72
8
73
4
74
0
42
0.000000001
43
0.0000000001
44
0.0000000001
40
-1
40
-1
40
-1
40
-1
40
0
40
0
40
0
40
0
41
1
41
1
41
1
41
1
10
10.734858944469906
20
-7.6911136709135253
30
0
10
10.751205248177554
20
-7.5972173981386693
30
0
10
10.176269783464235
20
-8.7089600676416481
30
0
10
9.4572232719259475
20
-10.161653237979014
30
0
0
SPLINE
5
561
100
AcDbEntity
8
0
100
AcDbSpline
70
4
71
3
72
8
73
4
74
0
42
0.000000001
43
0.0000000001
44
0.0000000001
40
-1
40
-1
40
-1
40
-1
40
0
40
0
40
0
40
0
41
1
41
1
41
1
41
1
10
9.4572232719259475
20
-10.161653237979014
30
0
10
8.7381767603876614
20
-11.614345956061403
30
0
10
8.1563428244590774
20
-12.809019976543308
30
0
10
8.1642588693613245
20
-12.816483992601047
30
0
0
SPLINE
5
562
100
AcDbEntity
8
0
100
AcDbSpline
70
4
71
3
72
8
73
4
74
0
42
0.000000001
43
0.0000000001
44
0.0000000001
40
-1
40
-1
40
-1
40
-1
40
0
40
0
40
0
40
0
41
1
41
1
41
1
41
1
10
8.1642588693613245
20
-12.816483992601047
30
0
10
8.1721749142635716
20
-12.823948008658794
30
0
10
8.946712884737682
20
-12.604418922704586
30
0
10
9.8854544598048992
20
-12.328642885883836
30
0
0
SPLINE
5
563
100
AcDbEntity
8
0
100
AcDbSpline
70
4
71
3
72
8
73
4
74
0
42
0.000000001
43
0.0000000001
44
0.0000000001
40
-1
40
-1
40
-1
40
-1
40
0
40
0
40
0
40
0
41
1
41
1
41
1
41
1
10
9.8854544598048992
20
-12.328642885883836
30
0
10
10.824196034872116
20
-12.052866396808124
30
0
10
11.607431546840075
20
-11.836608923321297
30
0
10
11.625977618731484
20
-11.84807132558641
30
0
0
SPLINE
5
564
100
AcDbEntity
8
0
100
AcDbSpline
70
4
71
3
72
8
73
4
74
0
42
0.000000001
43
0.0000000001
44
0.0000000001
40
-1
40
-1
40
-1
40
-1
40
0
40
0
40
0
40
0
41
1
41
1
41
1
41
1
10
11.625977618731484
20
-11.84807132558641
30
0
10
11.644524595132841
20
-11.859533275596554
30
0
10
11.527114229599253
20
-12.567824259390949
30
0
10
11.365066298330145
20
-13.422050686567326
30
0
0
SPLINE
5
565
100
AcDbEntity
8
0
100
AcDbSpline
70
4
71
3
72
8
73
4
74
0
42
0.000000001
43
0.0000000001
44
0.0000000001
40
-1
40
-1
40
-1
40
-1
40
0
40
0
40
0
40
0
41
1
41
1
41
1
41
1
10
11.365066298330145
20
-13.422050686567326
30
0
10
11.203018819316007
20
-14.276277113743703
30
0
10
11.054600948392768
20
-15.0776222715551
30
0
10
11.035249862651211
20
-15.202817301921572
30
0
0
SPLINE
5
566
100
AcDbEntity
8
0
100
AcDbSpline
70
4
71
3
72
8
73
4
74
0
42
0.000000001
43
0.0000000001
44
0.0000000001
40
-1
40
-1
40
-1
40
-1
40
0
40
0
40
0
40
0
41
1
41
1
41
1
41
1
10
11.035249862651211
20
-15.202817301921572
30
0
10
11.005646608949586
20
-15.394337332950423
30
0
10
11.039322870928963
20
-15.349202286745708
30
0
10
11.247547843858253
20
-14.918282895313242
30
0
0
SPLINE
5
567
100
AcDbEntity
8
0
100
AcDbSpline
70
4
71
3
72
8
73
4
74
0
42
0.000000001
43
0.0000000001
44
0.0000000001
40
-1
40
-1
40
-1
40
-1
40
0
40
0
40
0
40
0
41
1
41
1
41
1
41
1
10
11.247547843858253
20
-14.918282895313242
30
0
10
11.66849908345306
20
-14.047129469045183
30
0
10
13.442534788059163
20
-10.282719632706172
30
0
10
13.442534788059163
20
-10.260637379188765
30
0
0
SPLINE
5
568
100
AcDbEntity
8
0
100
AcDbSpline
70
4
71
3
72
8
73
4
74
0
42
0.000000001
43
0.0000000001
44
0.0000000001
40
-1
40
-1
40
-1
40
-1
40
0
40
0
40
0
40
0
41
1
41
1
41
1
41
1
10
13.442534788059163
20
-10.260637379188765
30
0
10
13.442534788059163
20
-10.249154173194936
30
0
10
12.719106830352228
20
-10.463294641157873
30
0
10
11.834916702261552
20
-10.736505035522512
30
0
0
SPLINE
5
569
100
AcDbEntity
8
0
100
AcDbSpline
70
4
71
3
72
8
73
4
74
0
42
0.000000001
43
0.0000000001
44
0.0000000001
40
-1
40
-1
40
-1
40
-1
40
0
40
0
40
0
40
0
41
1
41
1
41
1
41
1
10
11.834916702261552
20
-10.736505035522512
30
0
10
10.950726574170876
20
-11.009715882142119
30
0
10
10.212674499689633
20
-11.225039449111787
30
0
10
10.194800478686599
20
-11.215002554518385
30
0
0
SPLINE
5
570
100
AcDbEntity
8
0
100
AcDbSpline
70
4
71
3
72
8
73
4
74
0
42
0.000000001
43
0.0000000001
44
0.0000000001
40
-1
40
-1
40
-1
40
-1
40
0
40
0
40
0
40
0
41
1
41
1
41
1
41
1
10
-11.996069067735963
20
-13.705778069985172
30
0
10
-11.917821721501948
20
-13.599720661013478
30
0
10
-11.853802316686775
20
-13.465541133373438
30
0
10
-11.853802316686775
20
-13.407601844401707
30
0
0
SPLINE
5
571
100
AcDbEntity
8
0
100
AcDbSpline
70
4
71
3
72
8
73
4
74
0
42
0.000000001
43
0.0000000001
44
0.0000000001
40
-1
40
-1
40
-1
40
-1
40
0
40
0
40
0
40
0
41
1
41
1
41
1
41
1
10
-11.853802316686775
20
-13.407601844401707
30
0
10
-11.853802316686775
20
-13.349661650920037
30
0
10
-11.917821721501948
20
-13.238236879940754
30
0
10
-11.996069067735963
20
-13.159989533706739
30
0
0
SPLINE
5
572
100
AcDbEntity
8
0
100
AcDbSpline
70
4
71
3
72
8
73
4
74
0
42
0.000000001
43
0.0000000001
44
0.0000000001
40
-1
40
-1
40
-1
40
-1
40
0
40
0
40
0
40
0
41
1
41
1
41
1
41
1
10
-11.996069067735963
20
-13.159989533706739
30
0
10
-12.175764440267137
20
-12.980294161175564
30
0
10
-12.174232200422033
20
-12.965988884156513
30
0
10
-11.975290665302802
20
-12.965988884156513
30
0
0
SPLINE
5
573
100
AcDbEntity
8
0
100
AcDbSpline
70
4
71
3
72
8
73
4
74
0
42
0.000000001
43
0.0000000001
44
0.0000000001
40
-1
40
-1
40
-1
40
-1
40
0
40
0
40
0
40
0
41
1
41
1
41
1
41
1
10
-11.975290665302802
20
-12.965988884156513
30
0
10
-11.784524091057289
20
-12.965988884156513
30
0
10
-11.535850790198028
20
-13.143776192960853
30
0
10
-11.479856197605862
20
-13.32019362145504
30
0
0
LINE
5
574
100
AcDbEntity
8
0
100
AcDbLine
10
-11.479856197605862
20
-13.320193621455038
30
0
11
-11.440623983295577
21
-13.443802141379768
31
0
0
LINE
5
575
100
AcDbEntity
8
0
100
AcDbLine
10
-11.440623983295577
20
-13.443802141379768
30
0
11
-11.334224669565058
21
-13.31240488632741
31
0
0
SPLINE
5
576
100
AcDbEntity
8
0
100
AcDbSpline
70
4
71
3
72
8
73
4
74
0
42
0.000000001
43
0.0000000001
44
0.0000000001
40
-1
40
-1
40
-1
40
-1
40
0
40
0
40
0
40
0
41
1
41
1
41
1
41
1
10
-11.334224669565058
20
-13.31240488632741
30
0
10
-11.178138815591705
20
-13.119647033440213
30
0
10
-11.203179268880913
20
-12.949349519227017
30
0
10
-11.427000254519317
20
-12.68145447754819
30
0
0
SPLINE
5
577
100
AcDbEntity
8
0
100
AcDbSpline
70
4
71
3
72
8
73
4
74
0
42
0.000000001
43
0.0000000001
44
0.0000000001
40
-1
40
-1
40
-1
40
-1
40
0
40
0
40
0
40
0
41
1
41
1
41
1
41
1
10
-11.427000254519317
20
-12.68145447754819
30
0
10
-11.536545453835005
20
-12.550337168323495
30
0
10
-11.626173344184201
20
-12.418601626552089
30
0
10
-11.626173344184201
20
-12.388710286433312
30
0
0
SPLINE
5
578
100
AcDbEntity
8
0
100
AcDbSpline
70
4
71
3
72
8
73
4
74
0
42
0.000000001
43
0.0000000001
44
0.0000000001
40
-1
40
-1
40
-1
40
-1
40
0
40
0
40
0
40
0
41
1
41
1
41
1
41
1
10
-11.626173344184201
20
-12.388710286433312
30
0
10
-11.626173344184201
20
-12.146613677376745
30
0
10
-11.128627750278008
20
-11.706881193305087
30
0
10
-10.76411747893272
20
-11.626836585812384
30
0
0
SPLINE
5
579
100
AcDbEntity
8
0
100
AcDbSpline
70
4
71
3
72
8
73
4
74
0
42
0.000000001
43
0.0000000001
44
0.0000000001
40
-1
40
-1
40
-1
40
-1
40
0
40
0
40
0
40
0
41
1
41
1
41
1
41
1
10
-10.76411747893272
20
-11.626836585812384
30
0
10
-10.537318846558721
20
-11.577022961922419
30
0
10
-10.512423114860558
20
-11.616437887241386
30
0
10
-10.648942609725687
20
-11.809166795810375
30
0
0
SPLINE
5
580
100
AcDbEntity
8
0
100
AcDbSpline
70
4
71
3
72
8
73
4
74
0
42
0.000000001
43
0.0000000001
44
0.0000000001
40
-1
40
-1
40
-1
40
-1
40
0
40
0
40
0
40
0
41
1
41
1
41
1
41
1
10
-10.648942609725687
20
-11.809166795810375
30
0
10
-10.845608397825854
20
-12.086802957330921
30
0
10
-10.850680889591704
20
-12.198217778700823
30
0
10
-10.673458447247377
20
-12.34771608675215
30
0
0
SPLINE
5
581
100
AcDbEntity
8
0
100
AcDbSpline
70
4
71
3
72
8
73
4
74
0
42
0.000000001
43
0.0000000001
44
0.0000000001
40
-1
40
-1
40
-1
40
-1
40
0
40
0
40
0
40
0
41
1
41
1
41
1
41
1
10
-10.673458447247377
20
-12.34771608675215
30
0
10
-10.427239986376087
20
-12.555417348423873
30
0
10
-10.31742705211698
20
-12.744892282469383
30
0
10
-10.316048578962347
20
-12.964439458622472
30
0
0
SPLINE
5
582
100
AcDbEntity
8
0
100
AcDbSpline
70
4
71
3
72
8
73
4
74
0
42
0.000000001
43
0.0000000001
44
0.0000000001
40
-1
40
-1
40
-1
40
-1
40
0
40
0
40
0
40
0
41
1
41
1
41
1
41
1
10
-10.316048578962347
20
-12.964439458622472
30
0
10
-10.314791310140215
20
-13.164091486302695
30
0
10
-10.3142522222136
20
-13.164513892446536
30
0
10
-10.216462034129904
20
-13.042466556685127
30
0
0
SPLINE
5
583
100
AcDbEntity
8
0
100
AcDbSpline
70
4
71
3
72
8
73
4
74
0
42
0.000000001
43
0.0000000001
44
0.0000000001
40
-1
40
-1
40
-1
40
-1
40
0
40
0
40
0
40
0
41
1
41
1
41
1
41
1
10
-10.216462034129904
20
-13.042466556685127
30
0
10
-10.071961143519079
20
-12.862120389249259
30
0
10
-9.7432097682991845
20
-12.681910350559956
30
0
10
-9.5582411027945913
20
-12.681681961799104
30
0
0
LINE
5
584
100
AcDbEntity
8
0
100
AcDbLine
10
-9.5582411027945913
20
-12.681681961799104
30
0
11
-9.3966883907198131
21
-12.681453573038244
31
0
0
LINE
5
585
100
AcDbEntity
8
0
100
AcDbLine
10
-9.3966883907198131
20
-12.681453573038244
30
0
11
-9.5440149703956401
21
-12.85654046740483
31
0
0
SPLINE
5
586
100
AcDbEntity
8
0
100
AcDbSpline
70
4
71
3
72
8
73
4
74
0
42
0.000000001
43
0.0000000001
44
0.0000000001
40
-1
40
-1
40
-1
40
-1
40
0
40
0
40
0
40
0
41
1
41
1
41
1
41
1
10
-9.5440149703956401
20
-12.85654046740483
30
0
10
-9.7526112446569346
20
-13.104444934811706
30
0
10
-9.7623003551768726
20
-13.400493300751952
30
0
10
-9.5739035969845876
20
-13.769783907151186
30
0
0
SPLINE
5
587
100
AcDbEntity
8
0
100
AcDbSpline
70
4
71
3
72
8
73
4
74
0
42
0.000000001
43
0.0000000001
44
0.0000000001
40
-1
40
-1
40
-1
40
-1
40
0
40
0
40
0
40
0
41
1
41
1
41
1
41
1
10
-9.5739035969845876
20
-13.769783907151186
30
0
10
-9.3581110416089697
20
-14.192770746374928
30
0
10
-9.4660950567613433
20
-14.446539151748642
30
0
10
-9.9481970478839887
20
-14.649404451004862
30
0
0
SPLINE
5
588
100
AcDbEntity
8
0
100
AcDbSpline
70
4
71
3
72
8
73
4
74
0
42
0.000000001
43
0.0000000001
44
0.0000000001
40
-1
40
-1
40
-1
40
-1
40
0
40
0
40
0
40
0
41
1
41
1
41
1
41
1
10
-9.9481988569038791
20
-14.649406260024755
30
0
10
-10.275457790716205
20
-14.787114280956274
30
0
10
-11.06406744851633
20
-14.809158997311007
30
0
10
-11.448695830035671
20
-14.691351099657041
30
0
0
SPLINE
5
589
100
AcDbEntity
8
0
100
AcDbSpline
70
4
71
3
72
8
73
4
74
0
42
0.000000001
43
0.0000000001
44
0.0000000001
40
-1
40
-1
40
-1
40
-1
40
0
40
0
40
0
40
0
41
1
41
1
41
1
41
1
10
-11.448695830035671
20
-14.691351099657041
30
0
10
-11.822162558846276
20
-14.576963154101271
30
0
10
-12.138335818785153
20
-14.28585115118031
30
0
10
-12.138335818785153
20
-14.056378787411901
30
0
0
SPLINE
5
590
100
AcDbEntity
8
0
100
AcDbSpline
70
4
71
3
72
8
73
4
74
0
42
0.000000001
43
0.0000000001
44
0.0000000001
40
-1
40
-1
40
-1
40
-1
40
0
40
0
40
0
40
0
41
1
41
1
41
1
41
1
10
-12.138335818785153
20
-14.056378787411901
30
0
10
-12.138335818785153
20
-13.969605530445911
30
0
10
-12.074316413969978
20
-13.811836383466808
30
0
10
-11.996069067735963
20
-13.705778069985172
30
0
0
SPLINE
5
591
100
AcDbEntity
8
0
100
AcDbSpline
70
4
71
3
72
8
73
4
74
0
42
0.000000001
43
0.0000000001
44
0.0000000001
40
-1
40
-1
40
-1
40
-1
40
0
40
0
40
0
40
0
41
1
41
1
41
1
41
1
10
-13.993015368721849
20
-12.605633931493877
30
0
10
-13.845086385423331
20
-13.234165680682889
30
0
10
-13.147224401283051
20
-14.11775973672048
30
0
10
-12.552087611480838
20
-14.430052648999677
30
0
0
SPLINE
5
592
100
AcDbEntity
8
0
100
AcDbSpline
70
4
71
3
72
8
73
4
74
0
42
0.000000001
43
0.0000000001
44
0.0000000001
40
-1
40
-1
40
-1
40
-1
40
0
40
0
40
0
40
0
41
1
41
1
41
1
41
1
10
-12.552087611480838
20
-14.430052648999677
30
0
10
-12.227757480867126
20
-14.600242526529538
30
0
10
-11.789041213717532
20
-14.758283931001785
30
0
10
-11.512358857932918
20
-14.804599362683394
30
0
0
SPLINE
5
593
100
AcDbEntity
8
0
100
AcDbSpline
70
4
71
3
72
8
73
4
74
0
42
0.000000001
43
0.0000000001
44
0.0000000001
40
-1
40
-1
40
-1
40
-1
40
0
40
0
40
0
40
0
41
1
41
1
41
1
41
1
10
-11.512358857932918
20
-14.804599362683394
30
0
10
-11.159053655773681
20
-14.863740745370674
30
0
10
-10.204578582485864
20
-14.835777820452464
30
0
10
-9.8679272174152288
20
-14.756422449537068
30
0
0
SPLINE
5
594
100
AcDbEntity
8
0
100
AcDbSpline
70
4
71
3
72
8
73
4
74
0
42
0.000000001
43
0.0000000001
44
0.0000000001
40
-1
40
-1
40
-1
40
-1
40
0
40
0
40
0
40
0
41
1
41
1
41
1
41
1
10
-9.8679272174152288
20
-14.756422449537068
30
0
10
-8.6971259278848478
20
-14.48044018444909
30
0
10
-7.6846934754264229
20
-13.428605469810915
30
0
10
-7.2718027761974202
20
-12.059260177281681
30
0
0
SPLINE
5
595
100
AcDbEntity
8
0
100
AcDbSpline
70
4
71
3
72
8
73
4
74
0
42
0.000000001
43
0.0000000001
44
0.0000000001
40
-1
40
-1
40
-1
40
-1
40
0
40
0
40
0
40
0
41
1
41
1
41
1
41
1
10
-7.2718027761974202
20
-12.059260177281681
30
0
10
-7.2310925926386638
20
-11.924245786963343
30
0
10
-7.2357182564921896
20
-11.925268335455016
30
0
10
-7.4564241098835193
20
-12.100070309189244
30
0
0
SPLINE
5
596
100
AcDbEntity
8
0
100
AcDbSpline
70
4
71
3
72
8
73
4
74
0
42
0.000000001
43
0.0000000001
44
0.0000000001
40
-1
40
-1
40
-1
40
-1
40
0
40
0
40
0
40
0
41
1
41
1
41
1
41
1
10
-7.4564241098835193
20
-12.100070309189244
30
0
10
-7.7652292318187133
20
-12.344648893532097
30
0
10
-8.1802708556945181
20
-12.542868629716031
30
0
10
-8.5417763450058981
20
-12.618425511121671
30
0
0
SPLINE
5
597
100
AcDbEntity
8
0
100
AcDbSpline
70
4
71
3
72
8
73
4
74
0
42
0.000000001
43
0.0000000001
44
0.0000000001
40
-1
40
-1
40
-1
40
-1
40
0
40
0
40
0
40
0
41
1
41
1
41
1
41
1
10
-8.5417763450058981
20
-12.618425511121671
30
0
10
-9.0690567988105641
20
-12.728629645931555
30
0
10
-9.0870619737554748
20
-12.679888318580183
30
0
10
-8.6342715318775198
20
-12.368040425193421
30
0
0
SPLINE
5
598
100
AcDbEntity
8
0
100
AcDbSpline
70
4
71
3
72
8
73
4
74
0
42
0.000000001
43
0.0000000001
44
0.0000000001
40
-1
40
-1
40
-1
40
-1
40
0
40
0
40
0
40
0
41
1
41
1
41
1
41
1
10
-8.6342715318775198
20
-12.368040425193421
30
0
10
-8.1352913852001674
20
-12.024379108056923
30
0
10
-7.7958993549992694
20
-11.553626907711369
30
0
10
-7.7243001568535252
20
-11.105870968181621
30
0
0
SPLINE
5
599
100
AcDbEntity
8
0
100
AcDbSpline
70
4
71
3
72
8
73
4
74
0
42
0.000000001
43
0.0000000001
44
0.0000000001
40
-1
40
-1
40
-1
40
-1
40
0
40
0
40
0
40
0
41
1
41
1
41
1
41
1
10
-7.7243001568535252
20
-11.105870968181621
30
0
10
-7.6889066827454933
20
-10.884533766849387
30
0
10
-7.761631091261556
20
-10.509844140594522
30
0
10
-7.8713445294268247
20
-10.34827198155595
30
0
0
SPLINE
5
600
100
AcDbEntity
8
0
100
AcDbSpline
70
4
71
3
72
8
73
4
74
0
42
0.000000001
43
0.0000000001
44
0.0000000001
40
-1
40
-1
40
-1
40
-1
40
0
40
0
40
0
40
0
41
1
41
1
41
1
41
1
10
-7.8713445294268247
20
-10.34827198155595
30
0
10
-7.9212047355789039
20
-10.274848839108163
30
0
10
-7.9382565570428554
20
-10.27882777835174
30
0
10
-7.9932977961540619
20
-10.376725603118771
30
0
0
SPLINE
5
601
100
AcDbEntity
8
0
100
AcDbSpline
70
4
71
3
72
8
73
4
74
0
42
0.000000001
43
0.0000000001
44
0.0000000001
40
-1
40
-1
40
-1
40
-1
40
0
40
0
40
0
40
0
41
1
41
1
41
1
41
1
10
-7.9932977961540619
20
-10.376725603118771
30
0
10
-8.028492278074415
20
-10.439323118302006
30
0
10
-8.1761480993698488
20
-10.60693423798158
30
0
10
-8.321421441472836
20
-10.74919510971613
30
0
0
SPLINE
5
602
100
AcDbEntity
8
0
100
AcDbSpline
70
4
71
3
72
8
73
4
74
0
42
0.000000001
43
0.0000000001
44
0.0000000001
40
-1
40
-1
40
-1
40
-1
40
0
40
0
40
0
40
0
41
1
41
1
41
1
41
1
10
-8.321421441472836
20
-10.74919510971613
30
0
10
-8.6099800128219339
20
-11.031769895530816
30
0
10
-9.0832576049310898
20
-11.224035242753519
30
0
10
-9.4103808622518148
20
-11.191577807923657
30
0
0
LINE
5
603
100
AcDbEntity
8
0
100
AcDbLine
10
-9.410380862251813
20
-11.191577807923656
30
0
11
-9.5933704599989724
21
-11.173421579818106
31
0
0
LINE
5
604
100
AcDbEntity
8
0
100
AcDbLine
10
-9.5933704599989724
20
-11.173421579818106
30
0
11
-9.5824023724182439
21
-10.601088390213626
31
0
0
SPLINE
5
605
100
AcDbEntity
8
0
100
AcDbSpline
70
4
71
3
72
8
73
4
74
0
42
0.000000001
43
0.0000000001
44
0.0000000001
40
-1
40
-1
40
-1
40
-1
40
0
40
0
40
0
40
0
41
1
41
1
41
1
41
1
10
-9.5824023724182439
20
-10.601088390213626
30
0
10
-9.56253571600862
20
-9.5642861785894659
30
0
10
-9.8217501757550494
20
-8.7934524024634442
30
0
10
-10.359380032338761
20
-8.2905620592982565
30
0
0
SPLINE
5
606
100
AcDbEntity
8
0
100
AcDbSpline
70
4
71
3
72
8
73
4
74
0
42
0.000000001
43
0.0000000001
44
0.0000000001
40
-1
40
-1
40
-1
40
-1
40
0
40
0
40
0
40
0
41
1
41
1
41
1
41
1
10
-10.359380032338761
20
-8.2905620592982565
30
0
10
-10.632075308290304
20
-8.0354884460753784
30
0
10
-10.985371465350102
20
-7.8105761691895603
30
0
10
-11.035153883646993
20
-7.86035813523148
30
0
0
SPLINE
5
607
100
AcDbEntity
8
0
100
AcDbSpline
70
4
71
3
72
8
73
4
74
0
42
0.000000001
43
0.0000000001
44
0.0000000001
40
-1
40
-1
40
-1
40
-1
40
0
40
0
40
0
40
0
41
1
41
1
41
1
41
1
10
-11.035153883646993
20
-7.86035813523148
30
0
10
-11.048560530036697
20
-7.873766364513588
30
0
10
-10.995216151580403
20
-8.0229012856949211
30
0
10
-10.916607001368792
20
-8.1917685435591991
30
0
0
SPLINE
5
608
100
AcDbEntity
8
0
100
AcDbSpline
70
4
71
3
72
8
73
4
74
0
42
0.000000001
43
0.0000000001
44
0.0000000001
40
-1
40
-1
40
-1
40
-1
40
0
40
0
40
0
40
0
41
1
41
1
41
1
41
1
10
-10.916607001368792
20
-8.1917685435591991
30
0
10
-10.837997851157187
20
-8.3606358014234772
30
0
10
-10.773408605077304
20
-8.5376117648080694
30
0
10
-10.773126397974782
20
-8.5850481104377607
30
0
0
SPLINE
5
609
100
AcDbEntity
8
0
100
AcDbSpline
70
4
71
3
72
8
73
4
74
0
42
0.000000001
43
0.0000000001
44
0.0000000001
40
-1
40
-1
40
-1
40
-1
40
0
40
0
40
0
40
0
41
1
41
1
41
1
41
1
10
-10.773126397974782
20
-8.5850481104377607
30
0
10
-10.771910736610071
20
-8.773702880091566
30
0
10
-10.993421603851541
20
-9.0476163048101643
30
0
10
-11.431390745787402
20
-9.3990371866286004
30
0
0
SPLINE
5
610
100
AcDbEntity
8
0
100
AcDbSpline
70
4
71
3
72
8
73
4
74
0
42
0.000000001
43
0.0000000001
44
0.0000000001
40
-1
40
-1
40
-1
40
-1
40
0
40
0
40
0
40
0
41
1
41
1
41
1
41
1
10
-11.431390745787402
20
-9.3990371866286004
30
0
10
-11.959441842064349
20
-9.822736327433228
30
0
10
-12.170158287634338
20
-10.055467188274832
30
0
10
-12.31660568364461
20
-10.376726055373746
30
0
0
SPLINE
5
611
100
AcDbEntity
8
0
100
AcDbSpline
70
4
71
3
72
8
73
4
74
0
42
0.000000001
43
0.0000000001
44
0.0000000001
40
-1
40
-1
40
-1
40
-1
40
0
40
0
40
0
40
0
41
1
41
1
41
1
41
1
10
-12.31660568364461
20
-10.376726055373746
30
0
10
-12.443503001725658
20
-10.655097131223776
30
0
10
-12.452226095625418
20
-11.078365725295068
30
0
10
-12.336763592256199
20
-11.354707985340745
30
0
0
SPLINE
5
612
100
AcDbEntity
8
0
100
AcDbSpline
70
4
71
3
72
8
73
4
74
0
42
0.000000001
43
0.0000000001
44
0.0000000001
40
-1
40
-1
40
-1
40
-1
40
0
40
0
40
0
40
0
41
1
41
1
41
1
41
1
10
-12.336763592256199
20
-11.354707985340745
30
0
10
-12.289405260609181
20
-11.468053935441048
30
0
10
-12.261106762501752
20
-11.571242238870427
30
0
10
-12.273880251930667
20
-11.584015728299345
30
0
0
SPLINE
5
613
100
AcDbEntity
8
0
100
AcDbSpline
70
4
71
3
72
8
73
4
74
0
42
0.000000001
43
0.0000000001
44
0.0000000001
40
-1
40
-1
40
-1
40
-1
40
0
40
0
40
0
40
0
41
1
41
1
41
1
41
1
10
-12.273880251930667
20
-11.584015728299345
30
0
10
-12.333650269029013
20
-11.643785745397693
30
0
10
-12.739717345240624
20
-11.200498989501156
30
0
10
-12.858133978086892
20
-10.946208681889766
30
0
0
SPLINE
5
614
100
AcDbEntity
8
0
100
AcDbSpline
70
4
71
3
72
8
73
4
74
0
42
0.000000001
43
0.0000000001
44
0.0000000001
40
-1
40
-1
40
-1
40
-1
40
0
40
0
40
0
40
0
41
1
41
1
41
1
41
1
10
-12.858133978086892
20
-10.946208681889766
30
0
10
-13.042116727752537
20
-10.551116477083466
30
0
10
-13.035124865885557
20
-10.430382037505744
30
0
10
-12.792187967091033
20
-9.8076572421570987
30
0
0
SPLINE
5
615
100
AcDbEntity
8
0
100
AcDbSpline
70
4
71
3
72
8
73
4
74
0
42
0.000000001
43
0.0000000001
44
0.0000000001
40
-1
40
-1
40
-1
40
-1
40
0
40
0
40
0
40
0
41
1
41
1
41
1
41
1
10
-12.792187967091033
20
-9.8076572421570987
30
0
10
-12.712484359847206
20
-9.6033528675799964
30
0
10
-13.25847007929343
20
-10.177708089164256
30
0
10
-13.411849639514383
20
-10.459519016331246
30
0
0
SPLINE
5
616
100
AcDbEntity
8
0
100
AcDbSpline
70
4
71
3
72
8
73
4
74
0
42
0.000000001
43
0.0000000001
44
0.0000000001
40
-1
40
-1
40
-1
40
-1
40
0
40
0
40
0
40
0
41
1
41
1
41
1
41
1
10
-13.411849639514383
20
-10.459519016331246
30
0
10
-13.492437857483424
20
-10.607582771611415
30
0
10
-13.586154132779424
20
-10.858277652195479
30
0
10
-13.620113054116292
20
-11.016619806224096
30
0
0
SPLINE
5
617
100
AcDbEntity
8
0
100
AcDbSpline
70
4
71
3
72
8
73
4
74
0
42
0.000000001
43
0.0000000001
44
0.0000000001
40
-1
40
-1
40
-1
40
-1
40
0
40
0
40
0
40
0
41
1
41
1
41
1
41
1
10
-13.620113054116292
20
-11.016619806224096
30
0
10
-13.72889484703926
20
-11.523856771925086
30
0
10
-13.524868157014964
20
-12.248953098223701
30
0
10
-13.126131229389388
20
-12.772184965519102
30
0
0
SPLINE
5
618
100
AcDbEntity
8
0
100
AcDbSpline
70
4
71
3
72
8
73
4
74
0
42
0.000000001
43
0.0000000001
44
0.0000000001
40
-1
40
-1
40
-1
40
-1
40
0
40
0
40
0
40
0
41
1
41
1
41
1
41
1
10
-13.126131229389388
20
-12.772184965519102
30
0
10
-13.052326836000212
20
-12.869035820025974
30
0
10
-12.991938134100183
20
-12.975810053128271
30
0
10
-12.991938134100183
20
-13.009461441084188
30
0
0
SPLINE
5
619
100
AcDbEntity
8
0
100
AcDbSpline
70
4
71
3
72
8
73
4
74
0
42
0.000000001
43
0.0000000001
44
0.0000000001
40
-1
40
-1
40
-1
40
-1
40
0
40
0
40
0
40
0
41
1
41
1
41
1
41
1
10
-12.991938134100183
20
-13.009461441084188
30
0
10
-12.991938134100183
20
-13.108612012123633
30
0
10
-13.400273721251299
20
-12.921795885058458
30
0
10
-13.731474509399497
20
-12.671119546928246
30
0
0
LINE
5
620
100
AcDbEntity
8
0
100
AcDbLine
10
-13.731474509399497
20
-12.671119546928249
30
0
11
-14.030950515772464
21
-12.444454329770988
31
0
0
LINE
5
621
100
AcDbEntity
8
0
100
AcDbLine
10
-14.030950515772464
20
-12.444454329770988
30
0
11
-13.993015368721849
21
-12.605633931493877
31
0
0
SPLINE
5
622
100
AcDbEntity
8
0
100
AcDbSpline
70
4
71
3
72
8
73
4
74
0
42
0.000000001
43
0.0000000001
44
0.0000000001
40
-1
40
-1
40
-1
40
-1
40
0
40
0
40
0
40
0
41
1
41
1
41
1
41
1
10
-1.5499759670572111
20
-16.087600107834334
30
0
10
-1.0085974178532586
20
-16.131056534486277
30
0
10
-0.50730540470325991
20
-16.350332968023697
30
0
10
-0.1302836097156268
20
-16.708602715765011
30
0
0
SPLINE
5
623
100
AcDbEntity
8
0
100
AcDbSpline
70
4
71
3
72
8
73
4
74
0
42
0.000000001
43
0.0000000001
44
0.0000000001
40
-1
40
-1
40
-1
40
-1
40
0
40
0
40
0
40
0
41
1
41
1
41
1
41
1
10
-0.1302836097156268
20
-16.708602715765011
30
0
10
0.13306673768418431
20
-16.958852552327762
30
0
10
0.18047508248297817
20
-17.132209946853166
30
0
10
0.027421401085194752
20
-17.285262405503996
30
0
0
SPLINE
5
624
100
AcDbEntity
8
0
100
AcDbSpline
70
4
71
3
72
8
73
4
74
0
42
0.000000001
43
0.0000000001
44
0.0000000001
40
-1
40
-1
40
-1
40
-1
40
0
40
0
40
0
40
0
41
1
41
1
41
1
41
1
10
0.027421401085194752
20
-17.285262405503996
30
0
10
-0.15675363571904022
20
-17.469434996814325
30
0
10
-1.032362727600229
20
-17.353863400464064
30
0
10
-1.5726946054137958
20
-17.074062215580422
30
0
0
SPLINE
5
625
100
AcDbEntity
8
0
100
AcDbSpline
70
4
71
3
72
8
73
4
74
0
42
0.000000001
43
0.0000000001
44
0.0000000001
40
-1
40
-1
40
-1
40
-1
40
0
40
0
40
0
40
0
41
1
41
1
41
1
41
1
10
-1.5726946054137958
20
-17.074062215580422
30
0
10
-1.8654202255734909
20
-16.922480721512102
30
0
10
-2.2650530571859884
20
-16.517148666359226
30
0
10
-2.2650530571859884
20
-16.371833750416712
30
0
0
SPLINE
5
626
100
AcDbEntity
8
0
100
AcDbSpline
70
4
71
3
72
8
73
4
74
0
42
0.000000001
43
0.0000000001
44
0.0000000001
40
-1
40
-1
40
-1
40
-1
40
0
40
0
40
0
40
0
41
1
41
1
41
1
41
1
10
-2.2650530571859884
20
-16.371833750416712
30
0
10
-2.2650530571859884
20
-16.128585362897546
30
0
10
-2.0591229066228545
20
-16.04672979098455
30
0
10
-1.5499759670572111
20
-16.087600107834334
30
0
0
SPLINE
5
627
100
AcDbEntity
8
0
100
AcDbSpline
70
4
71
3
72
8
73
4
74
0
42
0.000000001
43
0.0000000001
44
0.0000000001
40
-1
40
-1
40
-1
40
-1
40
0
40
0
40
0
40
0
41
1
41
1
41
1
41
1
10
1.0205707119083707
20
-12.131536848818163
30
0
10
1.0257111400919561
20
-11.710067590774496
30
0
10
1.2136962563966858
20
-11.364875733051637
30
0
10
1.6553964741243643
20
-10.965824928987988
30
0
0
SPLINE
5
628
100
AcDbEntity
8
0
100
AcDbSpline
70
4
71
3
72
8
73
4
74
0
42
0.000000001
43
0.0000000001
44
0.0000000001
40
-1
40
-1
40
-1
40
-1
40
0
40
0
40
0
40
0
41
1
41
1
41
1
41
1
10
1.6553964741243643
20
-10.965824928987988
30
0
10
2.0124239109630837
20
-10.643271008322923
30
0
10
2.2874050273643887
20
-10.493917359200013
30
0
10
2.96399004346382
20
-10.255082476801839
30
0
0
LINE
5
629
100
AcDbEntity
8
0
100
AcDbLine
10
2.96399004346382
20
-10.255082476801839
30
0
11
3.4661330884919783
21
-10.077825436561758
31
0
0
LINE
5
630
100
AcDbEntity
8
0
100
AcDbLine
10
3.4661330884919783
20
-10.077825436561758
30
0
11
3.0045607873105151
21
-10.116899232453228
31
0
0
SPLINE
5
631
100
AcDbEntity
8
0
100
AcDbSpline
70
4
71
3
72
8
73
4
74
0
42
0.000000001
43
0.0000000001
44
0.0000000001
40
-1
40
-1
40
-1
40
-1
40
0
40
0
40
0
40
0
41
1
41
1
41
1
41
1
10
3.0045607873105151
20
-10.116899232453228
30
0
10
0.83129926581079427
20
-10.300874350130913
30
0
10
-0.88518801354466436
20
-10.774952907131063
30
0
10
-2.1626749004410861
20
-11.544041175596078
30
0
0
SPLINE
5
632
100
AcDbEntity
8
0
100
AcDbSpline
70
4
71
3
72
8
73
4
74
0
42
0.000000001
43
0.0000000001
44
0.0000000001
40
-1
40
-1
40
-1
40
-1
40
0
40
0
40
0
40
0
41
1
41
1
41
1
41
1
10
-2.1626749004410861
20
-11.544041175596078
30
0
10
-2.7217539345131669
20
-11.880626117528191
30
0
10
-3.4670817842190171
20
-12.682933363794744
30
0
10
-3.71832204581239
20
-13.218623082807412
30
0
0
SPLINE
5
633
100
AcDbEntity
8
0
100
AcDbSpline
70
4
71
3
72
8
73
4
74
0
42
0.000000001
43
0.0000000001
44
0.0000000001
40
-1
40
-1
40
-1
40
-1
40
0
40
0
40
0
40
0
41
1
41
1
41
1
41
1
10
-3.71832204581239
20
-13.218623082807412
30
0
10
-3.89660833329879
20
-13.598772664496671
30
0
10
-3.9190139484358255
20
-13.741204954501317
30
0
10
-3.9190139484358255
20
-14.494579090520707
30
0
0
SPLINE
5
634
100
AcDbEntity
8
0
100
AcDbSpline
70
4
71
3
72
8
73
4
74
0
42
0.000000001
43
0.0000000001
44
0.0000000001
40
-1
40
-1
40
-1
40
-1
40
0
40
0
40
0
40
0
41
1
41
1
41
1
41
1
10
-3.9190139484358255
20
-14.494579090520707
30
0
10
-3.9190139484358255
20
-15.297865757095312
30
0
10
-3.9056713337023963
20
-15.369710088343904
30
0
10
-3.6661694428422509
20
-15.856011835243496
30
0
0
SPLINE
5
635
100
AcDbEntity
8
0
100
AcDbSpline
70
4
71
3
72
8
73
4
74
0
42
0.000000001
43
0.0000000001
44
0.0000000001
40
-1
40
-1
40
-1
40
-1
40
0
40
0
40
0
40
0
41
1
41
1
41
1
41
1
10
-3.6661694428422509
20
-15.856011835243496
30
0
10
-3.1559318129959735
20
-16.892030654181951
30
0
10
-1.891146821430465
20
-17.656070200484734
30
0
10
-0.39429424046917738
20
-17.832506471833703
30
0
0
SPLINE
5
636
100
AcDbEntity
8
0
100
AcDbSpline
70
4
71
3
72
8
73
4
74
0
42
0.000000001
43
0.0000000001
44
0.0000000001
40
-1
40
-1
40
-1
40
-1
40
0
40
0
40
0
40
0
41
1
41
1
41
1
41
1
10
-0.39428934948137151
20
-17.832506471833703
30
0
10
0.66671752615542701
20
-17.957567807273605
30
0
10
1.6055719813496472
20
-17.788781040852456
30
0
10
2.239453782919183
20
-17.359013610623258
30
0
0
SPLINE
5
637
100
AcDbEntity
8
0
100
AcDbSpline
70
4
71
3
72
8
73
4
74
0
42
0.000000001
43
0.0000000001
44
0.0000000001
40
-1
40
-1
40
-1
40
-1
40
0
40
0
40
0
40
0
41
1
41
1
41
1
41
1
10
2.239453782919183
20
-17.359013610623258
30
0
10
2.734764117983044
20
-17.023197165150084
30
0
10
2.9276891319713361
20
-16.639616555515264
30
0
10
2.9274886014713086
20
-15.990949297809678
30
0
0
SPLINE
5
638
100
AcDbEntity
8
0
100
AcDbSpline
70
4
71
3
72
8
73
4
74
0
42
0.000000001
43
0.0000000001
44
0.0000000001
40
-1
40
-1
40
-1
40
-1
40
0
40
0
40
0
40
0
41
1
41
1
41
1
41
1
10
2.9274886014713086
20
-15.990949297809678
30
0
10
2.9272978529468929
20
-15.336939858673521
30
0
10
2.6333397038602113
20
-14.734821354659914
30
0
10
1.877432647531041
20
-13.840111732651263
30
0
0
SPLINE
5
639
100
AcDbEntity
8
0
100
AcDbSpline
70
4
71
3
72
8
73
4
74
0
42
0.000000001
43
0.0000000001
44
0.0000000001
40
-1
40
-1
40
-1
40
-1
40
0
40
0
40
0
40
0
41
1
41
1
41
1
41
1
10
1.877432647531041
20
-13.840111732651263
30
0
10
1.2369186664972398
20
-13.081984167858391
30
0
10
1.0143933943100114
20
-12.638274976889598
30
0
10
1.0205707119083707
20
-12.131536848818163
30
0
0
SPLINE
5
640
100
AcDbEntity
8
0
100
AcDbSpline
70
4
71
3
72
8
73
4
74
0
42
0.000000001
43
0.0000000001
44
0.0000000001
40
-1
40
-1
40
-1
40
-1
40
0
40
0
40
0
40
0
41
1
41
1
41
1
41
1
10
10.194800478686599
20
-11.215002554518385
30
0
10
10.169835099722746
20
-11.200983554896604
30
0
10
10.508317192920003
20
-8.9923828315288201
30
0
10
10.734858944469906
20
-7.6911136709135253
30
0
0
SPLINE
5
641
100
AcDbEntity
8
0
100
AcDbSpline
70
4
71
3
72
8
73
4
74
0
42
0.000000001
43
0.0000000001
44
0.0000000001
40
-1
40
-1
40
-1
40
-1
40
0
40
0
40
0
40
0
41
1
41
1
41
1
41
1
10
10.734858944469906
20
-7.6911136709135253
30
0
10
10.751205248177554
20
-7.5972173981386693
30
0
10
10.176269783464235
20
-8.7089600676416481
30
0
10
9.4572232719259475
20
-10.161653237979014
30
0
0
SPLINE
5
642
100
AcDbEntity
8
0
100
AcDbSpline
70
4
71
3
72
8
73
4
74
0
42
0.000000001
43
0.0000000001
44
0.0000000001
40
-1
40
-1
40
-1
40
-1
40
0
40
0
40
0
40
0
41
1
41
1
41
1
41
1
10
9.4572232719259475
20
-10.161653237979014
30
0
10
8.7381767603876614
20
-11.614345956061403
30
0
10
8.1563428244590774
20
-12.809019976543308
30
0
10
8.1642588693613245
20
-12.816483992601047
30
0
0
SPLINE
5
643
100
AcDbEntity
8
0
100
AcDbSpline
70
4
71
3
72
8
73
4
74
0
42
0.000000001
43
0.0000000001
44
0.0000000001
40
-1
40
-1
40
-1
40
-1
40
0
40
0
40
0
40
0
41
1
41
1
41
1
41
1
10
8.1642588693613245
20
-12.816483992601047
30
0
10
8.1721749142635716
20
-12.823948008658794
30
0
10
8.946712884737682
20
-12.604418922704586
30
0
10
9.8854544598048992
20
-12.328642885883836
30
0
0
SPLINE
5
644
100
AcDbEntity
8
0
100
AcDbSpline
70
4
71
3
72
8
73
4
74
0
42
0.000000001
43
0.0000000001
44
0.0000000001
40
-1
40
-1
40
-1
40
-1
40
0
40
0
40
0
40
0
41
1
41
1
41
1
41
1
10
9.8854544598048992
20
-12.328642885883836
30
0
10
10.824196034872116
20
-12.052866396808124
30
0
10
11.607431546840075
20
-11.836608923321297
30
0
10
11.625977618731484
20
-11.84807132558641
30
0
0
SPLINE
5
645
100
AcDbEntity
8
0
100
AcDbSpline
70
4
71
3
72
8
73
4
74
0
42
0.000000001
43
0.0000000001
44
0.0000000001
40
-1
40
-1
40
-1
40
-1
40
0
40
0
40
0
40
0
41
1
41
1
41
1
41
1
10
11.625977618731484
20
-11.84807132558641
30
0
10
11.644524595132841
20
-11.859533275596554
30
0
10
11.527114229599253
20
-12.567824259390949
30
0
10
11.365066298330145
20
-13.422050686567326
30
0
0
SPLINE
5
646
100
AcDbEntity
8
0
100
AcDbSpline
70
4
71
3
72
8
73
4
74
0
42
0.000000001
43
0.0000000001
44
0.0000000001
40
-1
40
-1
40
-1
40
-1
40
0
40
0
40
0
40
0
41
1
41
1
41
1
41
1
10
11.365066298330145
20
-13.422050686567326
30
0
10
11.203018819316007
20
-14.276277113743703
30
0
10
11.054600948392768
20
-15.0776222715551
30
0
10
11.035249862651211
20
-15.202817301921572
30
0
0
SPLINE
5
647
100
AcDbEntity
8
0
100
AcDbSpline
70
4
71
3
72
8
73
4
74
0
42
0.000000001
43
0.0000000001
44
0.0000000001
40
-1
40
-1
40
-1
40
-1
40
0
40
0
40
0
40
0
41
1
41
1
41
1
41
1
10
11.035249862651211
20
-15.202817301921572
30
0
10
11.005646608949586
20
-15.394337332950423
30
0
10
11.039322870928963
20
-15.349202286745708
30
0
10
11.247547843858253
20
-14.918282895313242
30
0
0
SPLINE
5
648
100
AcDbEntity
8
0
100
AcDbSpline
70
4
71
3
72
8
73
4
74
0
42
0.000000001
43
0.0000000001
44
0.0000000001
40
-1
40
-1
40
-1
40
-1
40
0
40
0
40
0
40
0
41
1
41
1
41
1
41
1
10
11.247547843858253
20
-14.918282895313242
30
0
10
11.66849908345306
20
-14.047129469045183
30
0
10
13.442534788059163
20
-10.282719632706172
30
0
10
13.442534788059163
20
-10.260637379188765
30
0
0
SPLINE
5
649
100
AcDbEntity
8
0
100
AcDbSpline
70
4
71
3
72
8
73
4
74
0
42
0.000000001
43
0.0000000001
44
0.0000000001
40
-1
40
-1
40
-1
40
-1
40
0
40
0
40
0
40
0
41
1
41
1
41
1
41
1
10
13.442534788059163
20
-10.260637379188765
30
0
10
13.442534788059163
20
-10.249154173194936
30
0
10
12.719106830352228
20
-10.463294641157873
30
0
10
11.834916702261552
20
-10.736505035522512
30
0
0
SPLINE
5
650
100
AcDbEntity
8
0
100
AcDbSpline
70
4
71
3
72
8
73
4
74
0
42
0.000000001
43
0.0000000001
44
0.0000000001
40
-1
40
-1
40
-1
40
-1
40
0
40
0
40
0
40
0
41
1
41
1
41
1
41
1
10
11.834916702261552
20
-10.736505035522512
30
0
10
10.950726574170876
20
-11.009715882142119
30
0
10
10.212674499689633
20
-11.225039449111787
30
0
10
10.194800478686599
20
-11.215002554518385
30
0
0
ENDSEC
0
SECTION
2
OBJECTS
0
DICTIONARY
5
C
100
AcDbDictionary
3
ACAD_GROUP
350
D
3
ACAD_MLINESTYLE
350
17
0
DICTIONARY
5
D
100
AcDbDictionary
0
DICTIONARY
5
1A
330
C
100
AcDbDictionary
0
DICTIONARY
5
17
100
AcDbDictionary
0
ENDSEC
0
EOF
