0
SECTION
2
HEADER
9
$INSUNITS
70
4
9
$ACADVER
1
AC1014
9
$HANDSEED
5
FFFF
0
ENDSEC
0
SECTION
2
TABLES
0
TABLE
2
VPORT
5
8
100
AcDbSymbolTable
0
ENDTAB
0
TABLE
2
LTYPE
5
5
100
AcDbSymbolTable
0
LTYPE
5
14
100
AcDbSymbolTableRecord
100
AcDbLinetypeTableRecord
2
BYBLOCK
70
0
0
LTYPE
5
15
100
AcDbSymbolTableRecord
100
AcDbLinetypeTableRecord
2
BYLAYER
70
0
0
ENDTAB
0
TABLE
2
LAYER
5
2
100
AcDbSymbolTable
70
2
0
LAYER
5
50
100
AcDbSymbolTableRecord
100
AcDbLayerTableRecord
2
0
70
0
6
CONTINUOUS
0
ENDTAB
0
TABLE
2
STYLE
5
3
100
AcDbSymbolTable
70
1
0
STYLE
5
11
100
AcDbSymbolTableRecord
100
AcDbTextStyleTableRecord
2
STANDARD
70
0
0
ENDTAB
0
TABLE
2
VIEW
5
6
100
AcDbSymbolTable
70
0
0
ENDTAB
0
TABLE
2
UCS
5
7
100
AcDbSymbolTable
70
0
0
ENDTAB
0
TABLE
2
APPID
5
9
100
AcDbSymbolTable
70
2
0
APPID
5
12
100
AcDbSymbolTableRecord
100
AcDbRegAppTableRecord
2
ACAD
70
0
0
ENDTAB
0
TABLE
2
DIMSTYLE
5
A
100
AcDbSymbolTable
70
1
0
ENDTAB
0
TABLE
2
BLOCK_RECORD
5
1
100
AcDbSymbolTable
70
1
0
BLOCK_RECORD
5
1F
100
AcDbSymbolTableRecord
100
AcDbBlockTableRecord
2
*MODEL_SPACE
0
BLOCK_RECORD
5
1B
100
AcDbSymbolTableRecord
100
AcDbBlockTableRecord
2
*PAPER_SPACE
0
ENDTAB
0
ENDSEC
0
SECTION
2
BLOCKS
0
BLOCK
5
20
100
AcDbEntity
100
AcDbBlockBegin
2
*MODEL_SPACE
0
ENDBLK
5
21
100
AcDbEntity
100
AcDbBlockEnd
0
BLOCK
5
1C
100
AcDbEntity
100
AcDbBlockBegin
2
*PAPER_SPACE
0
ENDBLK
5
1D
100
AcDbEntity
100
AcDbBlockEnd
0
ENDSEC
0
SECTION
2
ENTITIES
0
SPLINE
5
100
100
AcDbEntity
8
0
100
AcDbSpline
70
4
71
3
72
8
73
4
74
0
42
0.000000001
43
0.0000000001
44
0.0000000001
40
-1
40
-1
40
-1
40
-1
40
0
40
0
40
0
40
0
41
1
41
1
41
1
41
1
10
-0.33316832617338754
20
8.0467670483044085
30
0
10
-0.57681604337381787
20
7.9892522783592446
30
0
10
-1.3752171473385832
20
7.9420471979197691
30
0
10
-1.5953887950747769
20
7.9721327839287088
30
0
0
SPLINE
5
101
100
AcDbEntity
8
0
100
AcDbSpline
70
4
71
3
72
8
73
4
74
0
42
0.000000001
43
0.0000000001
44
0.0000000001
40
-1
40
-1
40
-1
40
-1
40
0
40
0
40
0
40
0
41
1
41
1
41
1
41
1
10
-1.5953887950747769
20
7.9721327839287088
30
0
10
-1.9871322183470075
20
8.0256655318006267
30
0
10
-2.5292612426763794
20
8.1532192899358478
30
0
10
-2.5679158676295621
20
8.2009519340982742
30
0
0
SPLINE
5
102
100
AcDbEntity
8
0
100
AcDbSpline
70
4
71
3
72
8
73
4
74
0
42
0.000000001
43
0.0000000001
44
0.0000000001
40
-1
40
-1
40
-1
40
-1
40
0
40
0
40
0
40
0
41
1
41
1
41
1
41
1
10
-2.5679158676295621
20
8.2009519340982742
30
0
10
-2.6052231918812696
20
8.2470213587740542
30
0
10
-2.8604484033854041
20
9.0053111011651161
30
0
10
-2.8604484033854041
20
9.070082195233125
30
0
0
SPLINE
5
103
100
AcDbEntity
8
0
100
AcDbSpline
70
4
71
3
72
8
73
4
74
0
42
0.000000001
43
0.0000000001
44
0.0000000001
40
-1
40
-1
40
-1
40
-1
40
0
40
0
40
0
40
0
41
1
41
1
41
1
41
1
10
-2.8604484033854041
20
9.070082195233125
30
0
10
-2.8604484033854041
20
9.0825898948487289
30
0
10
-2.7261849845154074
20
9.0791230475264673
30
0
10
-2.5620858239044852
20
9.0623824491552742
30
0
0
SPLINE
5
104
100
AcDbEntity
8
0
100
AcDbSpline
70
4
71
3
72
8
73
4
74
0
42
0.000000001
43
0.0000000001
44
0.0000000001
40
-1
40
-1
40
-1
40
-1
40
0
40
0
40
0
40
0
41
1
41
1
41
1
41
1
10
-2.5620858239044852
20
9.0623824491552742
30
0
10
-2.1834148308867141
20
9.0237510535245296
30
0
10
-1.1542009846799317
20
9.1151749559521278
30
0
10
-0.58446829839245984
20
9.2380513609624213
30
0
0
SPLINE
5
105
100
AcDbEntity
8
0
100
AcDbSpline
70
4
71
3
72
8
73
4
74
0
42
0.000000001
43
0.0000000001
44
0.0000000001
40
-1
40
-1
40
-1
40
-1
40
0
40
0
40
0
40
0
41
1
41
1
41
1
41
1
10
-0.58446829839245984
20
9.2380513609624213
30
0
10
0.010437746518805469
20
9.3663567167303423
30
0
10
0.59660750136426577
20
9.5699317878944647
30
0
10
1.0397414127723525
20
9.8021351922398416
30
0
0
SPLINE
5
106
100
AcDbEntity
8
0
100
AcDbSpline
70
4
71
3
72
8
73
4
74
0
42
0.000000001
43
0.0000000001
44
0.0000000001
40
-1
40
-1
40
-1
40
-1
40
0
40
0
40
0
40
0
41
1
41
1
41
1
41
1
10
1.0397414127723525
20
9.8021351922398416
30
0
10
1.2427956309066723
20
9.9085363293619153
30
0
10
1.4248618981135786
20
9.9796619336349615
30
0
10
1.4443301351463012
20
9.9601921479807434
30
0
0
SPLINE
5
107
100
AcDbEntity
8
0
100
AcDbSpline
70
4
71
3
72
8
73
4
74
0
42
0.000000001
43
0.0000000001
44
0.0000000001
40
-1
40
-1
40
-1
40
-1
40
0
40
0
40
0
40
0
41
1
41
1
41
1
41
1
10
1.4443301351463012
20
9.9601921479807434
30
0
10
1.4637983721790238
20
9.9407233947408553
30
0
10
1.494581870275471
20
9.6619735902989472
30
0
10
1.5127348114509687
20
9.3407497440876828
30
0
0
LINE
5
108
100
AcDbEntity
8
0
100
AcDbLine
10
1.5127348114509687
20
9.340749744087681
30
0
11
1.5457421300155958
21
8.7567062465561598
31
0
0
LINE
5
109
100
AcDbEntity
8
0
100
AcDbLine
10
1.5457421300155958
20
8.7567062465561598
30
0
11
1.0970218246644614
21
8.544342232195369
31
0
0
SPLINE
5
110
100
AcDbEntity
8
0
100
AcDbSpline
70
4
71
3
72
8
73
4
74
0
42
0.000000001
43
0.0000000001
44
0.0000000001
40
-1
40
-1
40
-1
40
-1
40
0
40
0
40
0
40
0
41
1
41
1
41
1
41
1
10
1.0970218246644614
20
8.5443422321953673
30
0
10
0.67048397362128087
20
8.3424778715771009
30
0
10
0.14479305026422917
20
8.1595851566985225
30
0
10
-0.33316832617338754
20
8.0467670483044085
30
0
0
SPLINE
5
111
100
AcDbEntity
8
0
100
AcDbSpline
70
4
71
3
72
8
73
4
74
0
42
0.000000001
43
0.0000000001
44
0.0000000001
40
-1
40
-1
40
-1
40
-1
40
0
40
0
40
0
40
0
41
1
41
1
41
1
41
1
10
-1.6782885685815141
20
12.268177097223273
30
0
10
-2.0265332788612378
20
12.204006352088523
30
0
10
-2.5531327268292459
20
12.136328495472624
30
0
10
-2.8485136937233015
20
12.117780139608492
30
0
0
LINE
5
112
100
AcDbEntity
8
0
100
AcDbLine
10
-2.8485136937233007
20
12.117780139608492
30
0
11
-3.3855673692032875
21
12.084058390327069
31
0
0
LINE
5
113
100
AcDbEntity
8
0
100
AcDbLine
10
-3.3855673692032875
20
12.084058390327069
30
0
11
-3.3855673692032875
21
12.343381254309481
31
0
0
SPLINE
5
114
100
AcDbEntity
8
0
100
AcDbSpline
70
4
71
3
72
8
73
4
74
0
42
0.000000001
43
0.0000000001
44
0.0000000001
40
-1
40
-1
40
-1
40
-1
40
0
40
0
40
0
40
0
41
1
41
1
41
1
41
1
10
-3.3855673692032875
20
12.343381254309481
30
0
10
-3.3855673692032875
20
12.877930292623352
30
0
10
-3.1334579841490005
20
13.510087395205307
30
0
10
-2.8143139366067937
20
13.775779997504134
30
0
0
SPLINE
5
115
100
AcDbEntity
8
0
100
AcDbSpline
70
4
71
3
72
8
73
4
74
0
42
0.000000001
43
0.0000000001
44
0.0000000001
40
-1
40
-1
40
-1
40
-1
40
0
40
0
40
0
40
0
41
1
41
1
41
1
41
1
10
-2.8143139366067937
20
13.775779997504134
30
0
10
-2.5484496954255009
20
13.997118531537524
30
0
10
-2.0082523183087408
20
14.239236726907123
30
0
10
-1.6612186300388498
20
14.292599126414485
30
0
0
SPLINE
5
116
100
AcDbEntity
8
0
100
AcDbSpline
70
4
71
3
72
8
73
4
74
0
42
0.000000001
43
0.0000000001
44
0.0000000001
40
-1
40
-1
40
-1
40
-1
40
0
40
0
40
0
40
0
41
1
41
1
41
1
41
1
10
-1.6612186300388498
20
14.292599126414485
30
0
10
-0.90842236430108025
20
14.408356518407908
30
0
10
-0.37031252896085665
20
14.122666308628329
30
0
10
0.24596965466613829
20
13.280045092157525
30
0
0
LINE
5
117
100
AcDbEntity
8
0
100
AcDbLine
10
0.24596965466613829
20
13.280045092157525
30
0
11
0.48100290669177603
21
12.958692452258518
31
0
0
LINE
5
118
100
AcDbEntity
8
0
100
AcDbLine
10
0.48100290669177603
20
12.958692452258518
30
0
11
0.1827476983012423
21
12.81999016797397
31
0
0
SPLINE
5
119
100
AcDbEntity
8
0
100
AcDbSpline
70
4
71
3
72
8
73
4
74
0
42
0.000000001
43
0.0000000001
44
0.0000000001
40
-1
40
-1
40
-1
40
-1
40
0
40
0
40
0
40
0
41
1
41
1
41
1
41
1
10
0.18274769830124216
20
12.81999016797397
30
0
10
-0.27962318932950314
20
12.604967170504635
30
0
10
-0.98398786640300884
20
12.396115945903819
30
0
10
-1.6782885685815141
20
12.268177097223273
30
0
0
SPLINE
5
120
100
AcDbEntity
8
0
100
AcDbSpline
70
4
71
3
72
8
73
4
74
0
42
0.000000001
43
0.0000000001
44
0.0000000001
40
-1
40
-1
40
-1
40
-1
40
0
40
0
40
0
40
0
41
1
41
1
41
1
41
1
10
-1.3804194831506367
20
10.829405002262043
30
0
10
-2.1892139021818724
20
10.679596004608561
30
0
10
-3.1810719006634058
20
10.619303523906831
30
0
10
-3.2151849349761399
20
10.717875346952559
30
0
0
SPLINE
5
121
100
AcDbEntity
8
0
100
AcDbSpline
70
4
71
3
72
8
73
4
74
0
42
0.000000001
43
0.0000000001
44
0.0000000001
40
-1
40
-1
40
-1
40
-1
40
0
40
0
40
0
40
0
41
1
41
1
41
1
41
1
10
-3.2151849349761399
20
10.717875346952559
30
0
10
-3.2483873798492557
20
10.813812448626514
30
0
10
-3.3262861383384124
20
11.307279139688724
30
0
10
-3.3632878679482547
20
11.656069480942184
30
0
0
LINE
5
122
100
AcDbEntity
8
0
100
AcDbLine
10
-3.3632878679482552
20
11.656069480942184
30
0
11
-3.3949406589110924
21
11.954432576630269
31
0
0
LINE
5
123
100
AcDbEntity
8
0
100
AcDbLine
10
-3.3949406589110924
20
11.954432576630269
30
0
11
-2.9951619549035557
21
11.954432576630268
31
0
0
SPLINE
5
124
100
AcDbEntity
8
0
100
AcDbSpline
70
4
71
3
72
8
73
4
74
0
42
0.000000001
43
0.0000000001
44
0.0000000001
40
-1
40
-1
40
-1
40
-1
40
0
40
0
40
0
40
0
41
1
41
1
41
1
41
1
10
-2.9951619549035557
20
11.954432576630269
30
0
10
-1.9748619740274487
20
11.954432576630269
30
0
10
-0.42466501381129618
20
12.290691988945689
30
0
10
0.35562031589387422
20
12.681265170574147
30
0
0
SPLINE
5
125
100
AcDbEntity
8
0
100
AcDbSpline
70
4
71
3
72
8
73
4
74
0
42
0.000000001
43
0.0000000001
44
0.0000000001
40
-1
40
-1
40
-1
40
-1
40
0
40
0
40
0
40
0
41
1
41
1
41
1
41
1
10
0.35562031589387422
20
12.681265170574147
30
0
10
0.46444401324277518
20
12.735738447901269
30
0
10
0.55788680189392315
20
12.756146181974866
30
0
10
0.5830859708759828
20
12.730948045407137
30
0
0
SPLINE
5
126
100
AcDbEntity
8
0
100
AcDbSpline
70
4
71
3
72
8
73
4
74
0
42
0.000000001
43
0.0000000001
44
0.0000000001
40
-1
40
-1
40
-1
40
-1
40
0
40
0
40
0
40
0
41
1
41
1
41
1
41
1
10
0.5830859708759828
20
12.730948045407137
30
0
10
0.60660849898509506
20
12.707425259194443
30
0
10
0.72239892823709795
20
12.474750815810713
30
0
10
0.84039665932799101
20
12.213894816547315
30
0
0
LINE
5
127
100
AcDbEntity
8
0
100
AcDbLine
10
0.84039665932799101
20
12.213894816547315
30
0
11
1.0549395841335818
21
11.739610899955409
31
0
0
LINE
5
128
100
AcDbEntity
8
0
100
AcDbLine
10
1.0549395841335818
20
11.739610899955409
30
0
11
0.94709668039878236
21
11.648818835098158
31
0
0
SPLINE
5
129
100
AcDbEntity
8
0
100
AcDbSpline
70
4
71
3
72
8
73
4
74
0
42
0.000000001
43
0.0000000001
44
0.0000000001
40
-1
40
-1
40
-1
40
-1
40
0
40
0
40
0
40
0
41
1
41
1
41
1
41
1
10
0.94709668039878236
20
11.648818835098158
30
0
10
0.63110252897933483
20
11.382782180723648
30
0
10
-0.45260214559819101
20
11.001259659324671
30
0
10
-1.3804194831506367
20
10.829405002262043
30
0
0
SPLINE
5
130
100
AcDbEntity
8
0
100
AcDbSpline
70
4
71
3
72
8
73
4
74
0
42
0.000000001
43
0.0000000001
44
0.0000000001
40
-1
40
-1
40
-1
40
-1
40
0
40
0
40
0
40
0
41
1
41
1
41
1
41
1
10
9.1897398988416601
20
9.7638130047011238
30
0
10
9.2588972051933549
20
9.5698254492184116
30
0
10
9.3074082897610779
20
9.4030383978976886
30
0
10
9.2975425384175647
20
9.3931736789685019
30
0
0
SPLINE
5
131
100
AcDbEntity
8
0
100
AcDbSpline
70
4
71
3
72
8
73
4
74
0
42
0.000000001
43
0.0000000001
44
0.0000000001
40
-1
40
-1
40
-1
40
-1
40
0
40
0
40
0
40
0
41
1
41
1
41
1
41
1
10
9.2975425384175647
20
9.3931736789685019
30
0
10
9.2876767870740462
20
9.3833089600393151
30
0
10
9.2279908497915653
20
9.4152947046237827
30
0
10
9.1649062045326435
20
9.464254889425332
30
0
0
SPLINE
5
132
100
AcDbEntity
8
0
100
AcDbSpline
70
4
71
3
72
8
73
4
74
0
42
0.000000001
43
0.0000000001
44
0.0000000001
40
-1
40
-1
40
-1
40
-1
40
0
40
0
40
0
40
0
41
1
41
1
41
1
41
1
10
9.1649062045326435
20
9.464254889425332
30
0
10
8.9380538036629318
20
9.6403140538494583
30
0
10
8.184645316227094
20
10.127489728187964
30
0
10
7.8778117771633438
20
10.296526926542299
30
0
0
SPLINE
5
133
100
AcDbEntity
8
0
100
AcDbSpline
70
4
71
3
72
8
73
4
74
0
42
0.000000001
43
0.0000000001
44
0.0000000001
40
-1
40
-1
40
-1
40
-1
40
0
40
0
40
0
40
0
41
1
41
1
41
1
41
1
10
7.8778117771633438
20
10.296526926542299
30
0
10
7.0084177341670166
20
10.775479420737321
30
0
10
6.2215301148174547
20
11.119211447977852
30
0
10
5.2788965992061136
20
11.431792437620235
30
0
0
SPLINE
5
134
100
AcDbEntity
8
0
100
AcDbSpline
70
4
71
3
72
8
73
4
74
0
42
0.000000001
43
0.0000000001
44
0.0000000001
40
-1
40
-1
40
-1
40
-1
40
0
40
0
40
0
40
0
41
1
41
1
41
1
41
1
10
5.2788965992061136
20
11.431792437620235
30
0
10
5.0163391811258329
20
11.518857486743903
30
0
10
4.7844547928086207
20
11.604277383631715
30
0
10
4.7636020881585228
20
11.621613168864515
30
0
0
SPLINE
5
135
100
AcDbEntity
8
0
100
AcDbSpline
70
4
71
3
72
8
73
4
74
0
42
0.000000001
43
0.0000000001
44
0.0000000001
40
-1
40
-1
40
-1
40
-1
40
0
40
0
40
0
40
0
41
1
41
1
41
1
41
1
10
4.7636020881585228
20
11.621613168864515
30
0
10
4.6560245149066937
20
11.711039865769505
30
0
10
6.2391699460706285
20
13.004669475851705
30
0
10
6.4561875680267438
20
13.004669475851705
30
0
0
SPLINE
5
136
100
AcDbEntity
8
0
100
AcDbSpline
70
4
71
3
72
8
73
4
74
0
42
0.000000001
43
0.0000000001
44
0.0000000001
40
-1
40
-1
40
-1
40
-1
40
0
40
0
40
0
40
0
41
1
41
1
41
1
41
1
10
6.4561875680267438
20
13.004669475851705
30
0
10
6.4939574138985741
20
13.004669475851705
30
0
10
6.5487971983130722
20
13.028606260210985
30
0
10
6.5780537556145147
20
13.057862559408843
30
0
0
SPLINE
5
137
100
AcDbEntity
8
0
100
AcDbSpline
70
4
71
3
72
8
73
4
74
0
42
0.000000001
43
0.0000000001
44
0.0000000001
40
-1
40
-1
40
-1
40
-1
40
0
40
0
40
0
40
0
41
1
41
1
41
1
41
1
10
6.5780537556145147
20
13.057862559408843
30
0
10
6.6745060320394529
20
13.154313803419452
30
0
10
7.085144702390906
20
13.127830052906504
30
0
10
7.263713149845632
20
13.013641156384894
30
0
0
SPLINE
5
138
100
AcDbEntity
8
0
100
AcDbSpline
70
4
71
3
72
8
73
4
74
0
42
0.000000001
43
0.0000000001
44
0.0000000001
40
-1
40
-1
40
-1
40
-1
40
0
40
0
40
0
40
0
41
1
41
1
41
1
41
1
10
7.263713149845632
20
13.013641156384894
30
0
10
7.5404187739128892
20
12.83669463184359
30
0
10
7.6178890804548338
20
12.753085589691707
30
0
10
7.9375245572184205
20
12.286440506732145
30
0
0
SPLINE
5
139
100
AcDbEntity
8
0
100
AcDbSpline
70
4
71
3
72
8
73
4
74
0
42
0.000000001
43
0.0000000001
44
0.0000000001
40
-1
40
-1
40
-1
40
-1
40
0
40
0
40
0
40
0
41
1
41
1
41
1
41
1
10
7.9375245572184205
20
12.286440506732145
30
0
10
8.289691409540211
20
11.772300751113367
30
0
10
8.563431939649897
20
11.279629535292909
30
0
10
8.7851119447231429
20
10.760979677670765
30
0
0
SPLINE
5
140
100
AcDbEntity
8
0
100
AcDbSpline
70
4
71
3
72
8
73
4
74
0
42
0.000000001
43
0.0000000001
44
0.0000000001
40
-1
40
-1
40
-1
40
-1
40
0
40
0
40
0
40
0
41
1
41
1
41
1
41
1
10
8.7851119447231429
20
10.760979677670765
30
0
10
8.8692784906135671
20
10.564059549281893
30
0
10
8.9664596515559314
20
10.338496633911141
30
0
10
9.0010723744046928
20
10.259729098762755
30
0
0
SPLINE
5
141
100
AcDbEntity
8
0
100
AcDbSpline
70
4
71
3
72
8
73
4
74
0
42
0.000000001
43
0.0000000001
44
0.0000000001
40
-1
40
-1
40
-1
40
-1
40
0
40
0
40
0
40
0
41
1
41
1
41
1
41
1
10
9.0010723744046928
20
10.259729098762755
30
0
10
9.0356830324247905
20
10.180961563614375
30
0
10
9.1205825924899599
20
9.9577990115623383
30
0
10
9.1897398988416601
20
9.7638130047011238
30
0
0
SPLINE
5
142
100
AcDbEntity
8
0
100
AcDbSpline
70
4
71
3
72
8
73
4
74
0
42
0.000000001
43
0.0000000001
44
0.0000000001
40
-1
40
-1
40
-1
40
-1
40
0
40
0
40
0
40
0
41
1
41
1
41
1
41
1
10
11.101938490293204
20
8.2173136364101271
30
0
10
11.171917598452081
20
7.829143399136214
30
0
10
11.220798287350174
20
7.4864231379397008
30
0
10
11.210554672361646
20
7.4557036495317544
30
0
0
SPLINE
5
143
100
AcDbEntity
8
0
100
AcDbSpline
70
4
71
3
72
8
73
4
74
0
42
0.000000001
43
0.0000000001
44
0.0000000001
40
-1
40
-1
40
-1
40
-1
40
0
40
0
40
0
40
0
41
1
41
1
41
1
41
1
10
11.210554672361646
20
7.4557036495317544
30
0
10
11.200315187030441
20
7.4249841611238061
30
0
10
11.098616180977228
20
7.5277496511805584
30
0
10
10.984555045729035
20
7.6840716346388334
30
0
0
SPLINE
5
144
100
AcDbEntity
8
0
100
AcDbSpline
70
4
71
3
72
8
73
4
74
0
42
0.000000001
43
0.0000000001
44
0.0000000001
40
-1
40
-1
40
-1
40
-1
40
0
40
0
40
0
40
0
41
1
41
1
41
1
41
1
10
10.984555045729035
20
7.6840716346388334
30
0
10
10.870493910480841
20
7.8403925856827774
30
0
10
10.512128442517934
20
8.235226541253752
30
0
10
10.18818366833829
20
8.5614792776695232
30
0
0
SPLINE
5
145
100
AcDbEntity
8
0
100
AcDbSpline
70
4
71
3
72
8
73
4
74
0
42
0.000000001
43
0.0000000001
44
0.0000000001
40
-1
40
-1
40
-1
40
-1
40
0
40
0
40
0
40
0
41
1
41
1
41
1
41
1
10
10.18818366833829
20
8.5614792776695232
30
0
10
9.8642409589873061
20
8.8877320140852945
30
0
10
9.5991954223702081
20
9.1896321612701239
30
0
10
9.5991954223702081
20
9.2323679200722939
30
0
0
SPLINE
5
146
100
AcDbEntity
8
0
100
AcDbSpline
70
4
71
3
72
8
73
4
74
0
42
0.000000001
43
0.0000000001
44
0.0000000001
40
-1
40
-1
40
-1
40
-1
40
0
40
0
40
0
40
0
41
1
41
1
41
1
41
1
10
9.5991954223702081
20
9.2323679200722939
30
0
10
9.5991954223702081
20
9.3099022363027366
30
0
10
9.3306231583996677
20
10.13149601199798
30
0
10
9.2165455045221822
20
10.40293580677185
30
0
0
SPLINE
5
147
100
AcDbEntity
8
0
100
AcDbSpline
70
4
71
3
72
8
73
4
74
0
42
0.000000001
43
0.0000000001
44
0.0000000001
40
-1
40
-1
40
-1
40
-1
40
0
40
0
40
0
40
0
41
1
41
1
41
1
41
1
10
9.2165455045221822
20
10.40293580677185
30
0
10
8.5638139329522289
20
11.956068953344321
30
0
10
7.8435727883022732
20
13.050245664581027
30
0
10
7.3337232304344324
20
13.26327403756358
30
0
0
SPLINE
5
148
100
AcDbEntity
8
0
100
AcDbSpline
70
4
71
3
72
8
73
4
74
0
42
0.000000001
43
0.0000000001
44
0.0000000001
40
-1
40
-1
40
-1
40
-1
40
0
40
0
40
0
40
0
41
1
41
1
41
1
41
1
10
7.3337232304344324
20
13.26327403756358
30
0
10
7.1107403184759281
20
13.356448914695926
30
0
10
6.666663812783975
20
13.361051159678301
30
0
10
6.416493301842614
20
13.272786961309603
30
0
0
SPLINE
5
149
100
AcDbEntity
8
0
100
AcDbSpline
70
4
71
3
72
8
73
4
74
0
42
0.000000001
43
0.0000000001
44
0.0000000001
40
-1
40
-1
40
-1
40
-1
40
0
40
0
40
0
40
0
41
1
41
1
41
1
41
1
10
6.416493301842614
20
13.272786961309603
30
0
10
5.9869242823246989
20
13.121225182226288
30
0
10
5.4701492891269821
20
12.744500806428922
30
0
10
4.8202960887108333
20
12.109171868919685
30
0
0
LINE
5
150
100
AcDbEntity
8
0
100
AcDbLine
10
4.8202960887108333
20
12.109171868919686
30
0
11
4.4094333844496347
21
11.707490425300794
31
0
0
LINE
5
151
100
AcDbEntity
8
0
100
AcDbLine
10
4.4094333844496347
20
11.707490425300794
30
0
11
3.9275849680571886
21
11.816158228085769
31
0
0
LINE
5
152
100
AcDbEntity
8
0
100
AcDbLine
10
3.9275849680571886
20
11.816158228085769
30
0
11
3.4457355192504124
21
11.924823449834916
31
0
0
LINE
5
153
100
AcDbEntity
8
0
100
AcDbLine
10
3.4457355192504124
20
11.924823449834916
30
0
11
3.7143738577381131
21
12.309598076375378
31
0
0
SPLINE
5
154
100
AcDbEntity
8
0
100
AcDbSpline
70
4
71
3
72
8
73
4
74
0
42
0.000000001
43
0.0000000001
44
0.0000000001
40
-1
40
-1
40
-1
40
-1
40
0
40
0
40
0
40
0
41
1
41
1
41
1
41
1
10
3.7143738577381136
20
12.30959807637538
30
0
10
4.6648351388043068
20
13.670951743614779
30
0
10
5.842289229089177
20
14.824332512745144
30
0
10
6.9359608316146204
20
15.465315209232504
30
0
0
SPLINE
5
155
100
AcDbEntity
8
0
100
AcDbSpline
70
4
71
3
72
8
73
4
74
0
42
0.000000001
43
0.0000000001
44
0.0000000001
40
-1
40
-1
40
-1
40
-1
40
0
40
0
40
0
40
0
41
1
41
1
41
1
41
1
10
6.9359608316146204
20
15.465315209232504
30
0
10
7.2853608135303194
20
15.670093172143604
30
0
10
7.3059388959684712
20
15.664290616450081
30
0
10
7.7727801376508543
20
15.229349945169888
30
0
0
SPLINE
5
156
100
AcDbEntity
8
0
100
AcDbSpline
70
4
71
3
72
8
73
4
74
0
42
0.000000001
43
0.0000000001
44
0.0000000001
40
-1
40
-1
40
-1
40
-1
40
0
40
0
40
0
40
0
41
1
41
1
41
1
41
1
10
7.7727801376508543
20
15.229349945169888
30
0
10
8.4012313889930077
20
14.643842226013945
30
0
10
9.178278034942986
20
13.553083580522379
30
0
10
9.7487158602182777
20
12.455682123123946
30
0
0
SPLINE
5
157
100
AcDbEntity
8
0
100
AcDbSpline
70
4
71
3
72
8
73
4
74
0
42
0.000000001
43
0.0000000001
44
0.0000000001
40
-1
40
-1
40
-1
40
-1
40
0
40
0
40
0
40
0
41
1
41
1
41
1
41
1
10
9.7487158602182777
20
12.455682123123946
30
0
10
10.392696687921795
20
11.216799380166487
30
0
10
10.779715783217053
20
10.00463087422129
30
0
10
11.101938490293204
20
8.2173136364101271
30
0
0
SPLINE
5
158
100
AcDbEntity
8
0
100
AcDbSpline
70
4
71
3
72
8
73
4
74
0
42
0.000000001
43
0.0000000001
44
0.0000000001
40
-1
40
-1
40
-1
40
-1
40
0
40
0
40
0
40
0
41
1
41
1
41
1
41
1
10
-0.24150851707124055
20
6.9918925439097759
30
0
10
-0.91143804656085514
20
6.8831886066232295
30
0
10
-1.9465872427544384
20
6.9786838349636726
30
0
10
-2.0843020227317366
20
7.1618960820775808
30
0
0
SPLINE
5
159
100
AcDbEntity
8
0
100
AcDbSpline
70
4
71
3
72
8
73
4
74
0
42
0.000000001
43
0.0000000001
44
0.0000000001
40
-1
40
-1
40
-1
40
-1
40
0
40
0
40
0
40
0
41
1
41
1
41
1
41
1
10
-2.0843020227317366
20
7.1618960820775808
30
0
10
-2.1991880570301059
20
7.3147377968272966
30
0
10
-2.486205435431712
20
7.9049143516899374
30
0
10
-2.4589207895017773
20
7.9321989976198735
30
0
0
SPLINE
5
160
100
AcDbEntity
8
0
100
AcDbSpline
70
4
71
3
72
8
73
4
74
0
42
0.000000001
43
0.0000000001
44
0.0000000001
40
-1
40
-1
40
-1
40
-1
40
0
40
0
40
0
40
0
41
1
41
1
41
1
41
1
10
-2.4589207895017773
20
7.9321989976198735
30
0
10
-2.4447581297141707
20
7.94636165740748
30
0
10
-2.2983751990168888
20
7.9280486920107336
30
0
10
-2.1336245849633362
20
7.8915043219493617
30
0
0
SPLINE
5
161
100
AcDbEntity
8
0
100
AcDbSpline
70
4
71
3
72
8
73
4
74
0
42
0.000000001
43
0.0000000001
44
0.0000000001
40
-1
40
-1
40
-1
40
-1
40
0
40
0
40
0
40
0
41
1
41
1
41
1
41
1
10
-2.1336245849633362
20
7.8915043219493617
30
0
10
-1.9453906745452354
20
7.8497493567612917
30
0
10
-1.5679823242538271
20
7.8264302142753124
30
0
10
-1.1180066030766445
20
7.8287438547902592
30
0
0
SPLINE
5
162
100
AcDbEntity
8
0
100
AcDbSpline
70
4
71
3
72
8
73
4
74
0
42
0.000000001
43
0.0000000001
44
0.0000000001
40
-1
40
-1
40
-1
40
-1
40
0
40
0
40
0
40
0
41
1
41
1
41
1
41
1
10
-1.1180066030766445
20
7.8287438547902592
30
0
10
-0.49067655369755769
20
7.8319742792308054
30
0
10
-0.34334483423042572
20
7.8486746134431051
30
0
10
0.070844309004070016
20
7.9635162539252571
30
0
0
SPLINE
5
163
100
AcDbEntity
8
0
100
AcDbSpline
70
4
71
3
72
8
73
4
74
0
42
0.000000001
43
0.0000000001
44
0.0000000001
40
-1
40
-1
40
-1
40
-1
40
0
40
0
40
0
40
0
41
1
41
1
41
1
41
1
10
0.070844309004070016
20
7.9635162539252571
30
0
10
0.33087437680296317
20
8.0356138762905935
30
0
10
0.73903422034656829
20
8.180294355756665
30
0
10
0.97786882193759306
20
8.2850296923562627
30
0
0
SPLINE
5
164
100
AcDbEntity
8
0
100
AcDbSpline
70
4
71
3
72
8
73
4
74
0
42
0.000000001
43
0.0000000001
44
0.0000000001
40
-1
40
-1
40
-1
40
-1
40
0
40
0
40
0
40
0
41
1
41
1
41
1
41
1
10
0.97786882193759306
20
8.2850296923562627
30
0
10
1.2167034235286156
20
8.3897650289558605
30
0
10
1.438965710284339
20
8.4871609320789982
30
0
10
1.4717851294407924
20
8.5014655488370661
30
0
0
SPLINE
5
165
100
AcDbEntity
8
0
100
AcDbSpline
70
4
71
3
72
8
73
4
74
0
42
0.000000001
43
0.0000000001
44
0.0000000001
40
-1
40
-1
40
-1
40
-1
40
0
40
0
40
0
40
0
41
1
41
1
41
1
41
1
10
1.4717851294407924
20
8.5014655488370661
30
0
10
1.5394650508853558
20
8.530964207299041
30
0
10
1.5523155120587284
20
8.2531198302250957
30
0
10
1.5006906658698194
20
7.8764723692953638
30
0
0
LINE
5
166
100
AcDbEntity
8
0
100
AcDbLine
10
1.5006906658698196
20
7.8764723692953655
30
0
11
1.469923686402663
21
7.6520027807007507
31
0
0
LINE
5
167
100
AcDbEntity
8
0
100
AcDbLine
10
1.469923686402663
20
7.6520027807007507
30
0
11
1.0591115704436649
21
7.4469105766777632
31
0
0
SPLINE
5
168
100
AcDbEntity
8
0
100
AcDbSpline
70
4
71
3
72
8
73
4
74
0
42
0.000000001
43
0.0000000001
44
0.0000000001
40
-1
40
-1
40
-1
40
-1
40
0
40
0
40
0
40
0
41
1
41
1
41
1
41
1
10
1.0591115704436649
20
7.4469105766777632
30
0
10
0.5566571964261402
20
7.1960669315928305
30
0
10
0.15864392092398427
20
7.0568231459918662
30
0
10
-0.24150851707124055
20
6.9918925439097759
30
0
0
SPLINE
5
169
100
AcDbEntity
8
0
100
AcDbSpline
70
4
71
3
72
8
73
4
74
0
42
0.000000001
43
0.0000000001
44
0.0000000001
40
-1
40
-1
40
-1
40
-1
40
0
40
0
40
0
40
0
41
1
41
1
41
1
41
1
10
0.1661444110360244
20
6.1326254530826159
30
0
10
-0.67992429498834106
20
5.8693019835690059
30
0
10
-1.2310693936671191
20
6.0322747801452099
30
0
10
-1.7621526170730606
20
6.7028227258188711
30
0
0
LINE
5
170
100
AcDbEntity
8
0
100
AcDbLine
10
-1.7621526170730606
20
6.7028227258188711
30
0
11
-1.9056685331741789
21
6.8840269270597023
31
0
0
LINE
5
171
100
AcDbEntity
8
0
100
AcDbLine
10
-1.9056685331741789
20
6.8840269270597023
30
0
11
-1.7027908578903972
21
6.8367516424457451
31
0
0
SPLINE
5
172
100
AcDbEntity
8
0
100
AcDbSpline
70
4
71
3
72
8
73
4
74
0
42
0.000000001
43
0.0000000001
44
0.0000000001
40
-1
40
-1
40
-1
40
-1
40
0
40
0
40
0
40
0
41
1
41
1
41
1
41
1
10
-1.7027908578903972
20
6.8367516424457442
30
0
10
-1.4038077973967678
20
6.7670781289287296
30
0
10
-0.45185158037982065
20
6.7718396238216023
30
0
10
-0.067769703855209418
20
6.844925266701356
30
0
0
SPLINE
5
173
100
AcDbEntity
8
0
100
AcDbSpline
70
4
71
3
72
8
73
4
74
0
42
0.000000001
43
0.0000000001
44
0.0000000001
40
-1
40
-1
40
-1
40
-1
40
0
40
0
40
0
40
0
41
1
41
1
41
1
41
1
10
-0.067769703855209418
20
6.844925266701356
30
0
10
0.29956641222655511
20
6.914824878956777
30
0
10
0.73868319947415273
20
7.0681993195010975
30
0
10
1.1095832098252578
20
7.2561472511496135
30
0
0
SPLINE
5
174
100
AcDbEntity
8
0
100
AcDbSpline
70
4
71
3
72
8
73
4
74
0
42
0.000000001
43
0.0000000001
44
0.0000000001
40
-1
40
-1
40
-1
40
-1
40
0
40
0
40
0
40
0
41
1
41
1
41
1
41
1
10
1.1095832098252578
20
7.2561472511496135
30
0
10
1.2418117400495809
20
7.3231530060362751
30
0
10
1.3594057971371964
20
7.3685678800264354
30
0
10
1.3709079251947642
20
7.3570657519688663
30
0
0
SPLINE
5
175
100
AcDbEntity
8
0
100
AcDbSpline
70
4
71
3
72
8
73
4
74
0
42
0.000000001
43
0.0000000001
44
0.0000000001
40
-1
40
-1
40
-1
40
-1
40
0
40
0
40
0
40
0
41
1
41
1
41
1
41
1
10
1.3709079251947642
20
7.3570657519688663
30
0
10
1.4029902005191452
20
7.3249834766444852
30
0
10
1.2907646979508147
20
7.0877780248671982
30
0
10
1.114664753160628
20
6.815452934804811
30
0
0
SPLINE
5
176
100
AcDbEntity
8
0
100
AcDbSpline
70
4
71
3
72
8
73
4
74
0
42
0.000000001
43
0.0000000001
44
0.0000000001
40
-1
40
-1
40
-1
40
-1
40
0
40
0
40
0
40
0
41
1
41
1
41
1
41
1
10
1.114664753160628
20
6.815452934804811
30
0
10
0.92316841345773115
20
6.5193193378637249
30
0
10
0.55346290648716545
20
6.2531732475701691
30
0
10
0.1661444110360244
20
6.1326254530826159
30
0
0
LINE
5
177
100
AcDbEntity
8
0
100
AcDbLine
10
-1.2646311187272952
20
9.3048981240421664
30
0
11
-1.2646300863129656
21
9.3048805729985453
31
0
0
SPLINE
5
178
100
AcDbEntity
8
0
100
AcDbSpline
70
4
71
3
72
8
73
4
74
0
42
0.000000001
43
0.0000000001
44
0.0000000001
40
-1
40
-1
40
-1
40
-1
40
0
40
0
40
0
40
0
41
1
41
1
41
1
41
1
10
-1.2646300863129656
20
9.3048805729985453
30
0
10
-1.8049172834764882
20
9.2163278148244334
30
0
10
-2.8289731876874349
20
9.20889494785105
30
0
10
-2.8970268431196864
20
9.2930263916542302
30
0
0
SPLINE
5
179
100
AcDbEntity
8
0
100
AcDbSpline
70
4
71
3
72
8
73
4
74
0
42
0.000000001
43
0.0000000001
44
0.0000000001
40
-1
40
-1
40
-1
40
-1
40
0
40
0
40
0
40
0
41
1
41
1
41
1
41
1
10
-2.8970268431196864
20
9.2930263916542302
30
0
10
-2.9362121290388146
20
9.3414683044618023
30
0
10
-3.1946140794383018
20
10.39131701589492
30
0
10
-3.1946140794383018
20
10.50208371701407
30
0
0
ELLIPSE
5
180
100
AcDbEntity
8
0
100
AcDbEllipse
10
-2.9966245570861001
20
10.473398724780873
30
0
11
0.19794242789891242
21
-0.029447522415873194
31
0.0
40
0.14853210399570976
41
1.5603211900631397
42
3.1672027029246062
0
SPLINE
5
181
100
AcDbEntity
8
0
100
AcDbSpline
70
4
71
3
72
8
73
4
74
0
42
0.000000001
43
0.0000000001
44
0.0000000001
40
-1
40
-1
40
-1
40
-1
40
0
40
0
40
0
40
0
41
1
41
1
41
1
41
1
10
-2.9901774585152663
20
10.502489455846007
30
0
10
-2.6245221129637697
20
10.447656382124659
30
0
10
-1.3244285567574865
20
10.620907379569468
30
0
10
-0.51298083289652574
20
10.832601357029681
30
0
0
SPLINE
5
182
100
AcDbEntity
8
0
100
AcDbSpline
70
4
71
3
72
8
73
4
74
0
42
0.000000001
43
0.0000000001
44
0.0000000001
40
-1
40
-1
40
-1
40
-1
40
0
40
0
40
0
40
0
41
1
41
1
41
1
41
1
10
-0.51298083289652574
20
10.832601357029681
30
0
10
0.013316117672608208
20
10.969903171274726
30
0
10
0.4098200034233801
20
11.120989781662365
30
0
10
0.83156435472943713
20
11.344937484812846
30
0
0
LINE
5
183
100
AcDbEntity
8
0
100
AcDbLine
10
0.83156435472943713
20
11.344937484812846
30
0
11
1.1392640894165913
21
11.50832789298579
31
0
0
LINE
5
184
100
AcDbEntity
8
0
100
AcDbLine
10
1.1392640894165913
20
11.50832789298579
30
0
11
1.2637536418184967
21
10.994694020389019
31
0
0
SPLINE
5
185
100
AcDbEntity
8
0
100
AcDbSpline
70
4
71
3
72
8
73
4
74
0
42
0.000000001
43
0.0000000001
44
0.0000000001
40
-1
40
-1
40
-1
40
-1
40
0
40
0
40
0
40
0
41
1
41
1
41
1
41
1
10
1.2637536418184969
20
10.994694020389019
30
0
10
1.4421858105815799
20
10.258496912259147
30
0
10
1.4491277645407474
20
10.287739531967127
30
0
10
1.0404093848442719
20
10.053889426764391
30
0
0
SPLINE
5
186
100
AcDbEntity
8
0
100
AcDbSpline
70
4
71
3
72
8
73
4
74
0
42
0.000000001
43
0.0000000001
44
0.0000000001
40
-1
40
-1
40
-1
40
-1
40
0
40
0
40
0
40
0
41
1
41
1
41
1
41
1
10
1.0404093848442719
20
10.053889426764391
30
0
10
0.43017714919477701
20
9.7047418701525316
30
0
10
-0.32789888342984463
20
9.4584150377641123
30
0
10
-1.2646311187272952
20
9.3048981240421664
30
0
0
SPLINE
5
187
100
AcDbEntity
8
0
100
AcDbSpline
70
4
71
3
72
8
73
4
74
0
42
0.000000001
43
0.0000000001
44
0.0000000001
40
-1
40
-1
40
-1
40
-1
40
0
40
0
40
0
40
0
41
1
41
1
41
1
41
1
10
-9.9572575433512505
20
6.805511817215157
30
0
10
-10.374486114375125
20
6.2640548946150272
30
0
10
-10.355331473195333
20
6.2818898521766915
30
0
10
-10.355331473195333
20
6.4348358407738004
30
0
0
SPLINE
5
188
100
AcDbEntity
8
0
100
AcDbSpline
70
4
71
3
72
8
73
4
74
0
42
0.000000001
43
0.0000000001
44
0.0000000001
40
-1
40
-1
40
-1
40
-1
40
0
40
0
40
0
40
0
41
1
41
1
41
1
41
1
10
-10.355331473195333
20
6.4348358407738004
30
0
10
-10.355331473195333
20
6.7559373458868821
30
0
10
-10.248084530632887
20
7.7793376669978773
30
0
10
-10.157115148614352
20
8.3263185224740521
30
0
0
SPLINE
5
189
100
AcDbEntity
8
0
100
AcDbSpline
70
4
71
3
72
8
73
4
74
0
42
0.000000001
43
0.0000000001
44
0.0000000001
40
-1
40
-1
40
-1
40
-1
40
0
40
0
40
0
40
0
41
1
41
1
41
1
41
1
10
-10.157115148614352
20
8.3263185224740521
30
0
10
-9.9450190457723604
20
9.6015933543791139
30
0
10
-9.6498264944936452
20
10.325470662301559
30
0
10
-9.2295855965565696
20
10.60082382359569
30
0
0
SPLINE
5
190
100
AcDbEntity
8
0
100
AcDbSpline
70
4
71
3
72
8
73
4
74
0
42
0.000000001
43
0.0000000001
44
0.0000000001
40
-1
40
-1
40
-1
40
-1
40
0
40
0
40
0
40
0
41
1
41
1
41
1
41
1
10
-9.2295855965565696
20
10.60082382359569
30
0
10
-9.0349024519185939
20
10.728384808631224
30
0
10
-8.5467862481248833
20
10.698116485285762
30
0
10
-8.0244093747691601
20
10.526091479858582
30
0
0
SPLINE
5
191
100
AcDbEntity
8
0
100
AcDbSpline
70
4
71
3
72
8
73
4
74
0
42
0.000000001
43
0.0000000001
44
0.0000000001
40
-1
40
-1
40
-1
40
-1
40
0
40
0
40
0
40
0
41
1
41
1
41
1
41
1
10
-8.0244093747691601
20
10.526091479858582
30
0
10
-7.5669218069223003
20
10.375434870039646
30
0
10
-6.6317588414074091
20
9.9237252089941688
30
0
10
-6.6317588414074091
20
9.8534033392775182
30
0
0
SPLINE
5
192
100
AcDbEntity
8
0
100
AcDbSpline
70
4
71
3
72
8
73
4
74
0
42
0.000000001
43
0.0000000001
44
0.0000000001
40
-1
40
-1
40
-1
40
-1
40
0
40
0
40
0
40
0
41
1
41
1
41
1
41
1
10
-6.6317588414074091
20
9.8534033392775182
30
0
10
-6.6317588414074091
20
9.8317236707485822
30
0
10
-6.7105506382925615
20
9.7652909058154229
30
0
10
-6.8068501173965679
20
9.7057753168974941
30
0
0
SPLINE
5
193
100
AcDbEntity
8
0
100
AcDbSpline
70
4
71
3
72
8
73
4
74
0
42
0.000000001
43
0.0000000001
44
0.0000000001
40
-1
40
-1
40
-1
40
-1
40
0
40
0
40
0
40
0
41
1
41
1
41
1
41
1
10
-6.8068501173965679
20
9.7057753168974941
30
0
10
-7.0609319300295272
20
9.5487440647940751
30
0
10
-7.7522876703299062
20
9.0243591455652723
30
0
10
-8.1116411588072257
20
8.7161081016255615
30
0
0
SPLINE
5
194
100
AcDbEntity
8
0
100
AcDbSpline
70
4
71
3
72
8
73
4
74
0
42
0.000000001
43
0.0000000001
44
0.0000000001
40
-1
40
-1
40
-1
40
-1
40
0
40
0
40
0
40
0
41
1
41
1
41
1
41
1
10
-8.1116411588072257
20
8.7161081016255615
30
0
10
-8.6121109743776927
20
8.2868059612121154
30
0
10
-9.4960455408066373
20
7.4061869934059938
30
0
10
-9.4960455408066373
20
7.3368944407769838
30
0
0
SPLINE
5
195
100
AcDbEntity
8
0
100
AcDbSpline
70
4
71
3
72
8
73
4
74
0
42
0.000000001
43
0.0000000001
44
0.0000000001
40
-1
40
-1
40
-1
40
-1
40
0
40
0
40
0
40
0
41
1
41
1
41
1
41
1
10
-9.4960455408066373
20
7.3368944407769838
30
0
10
-9.4960455408066373
20
7.3017985480214884
30
0
10
-9.5282857755236066
20
7.2607115549053365
30
0
10
-9.5676896751772453
20
7.2455908146189039
30
0
0
SPLINE
5
196
100
AcDbEntity
8
0
100
AcDbSpline
70
4
71
3
72
8
73
4
74
0
42
0.000000001
43
0.0000000001
44
0.0000000001
40
-1
40
-1
40
-1
40
-1
40
0
40
0
40
0
40
0
41
1
41
1
41
1
41
1
10
-9.5676896751772453
20
7.2455908146189039
30
0
10
-9.6070938329344653
20
7.2304700743324721
30
0
10
-9.7823990767936486
20
7.0324354546736831
30
0
10
-9.9572575433512505
20
6.805511817215157
30
0
0
SPLINE
5
197
100
AcDbEntity
8
0
100
AcDbSpline
70
4
71
3
72
8
73
4
74
0
42
0.000000001
43
0.0000000001
44
0.0000000001
40
-1
40
-1
40
-1
40
-1
40
0
40
0
40
0
40
0
41
1
41
1
41
1
41
1
10
-11.407208362580976
20
4.2685796984260671
30
0
10
-11.467315395858563
20
4.097916447500987
30
0
10
-11.531408580866723
20
3.9409667561296891
30
0
10
-11.549637662599103
20
3.919802262351737
30
0
0
SPLINE
5
198
100
AcDbEntity
8
0
100
AcDbSpline
70
4
71
3
72
8
73
4
74
0
42
0.000000001
43
0.0000000001
44
0.0000000001
40
-1
40
-1
40
-1
40
-1
40
0
40
0
40
0
40
0
41
1
41
1
41
1
41
1
10
-11.549637662599103
20
3.919802262351737
30
0
10
-11.5846085041688
20
3.8791984391423218
30
0
10
-11.697773116622635
20
4.6760953154273572
30
0
10
-11.790799261565477
20
5.618061891381112
30
0
0
SPLINE
5
199
100
AcDbEntity
8
0
100
AcDbSpline
70
4
71
3
72
8
73
4
74
0
42
0.000000001
43
0.0000000001
44
0.0000000001
40
-1
40
-1
40
-1
40
-1
40
0
40
0
40
0
40
0
41
1
41
1
41
1
41
1
10
-11.790799261565477
20
5.618061891381112
30
0
10
-11.875599258173636
20
6.4767167605102056
30
0
10
-11.825449473959617
20
8.2547407207241879
30
0
10
-11.696235851684323
20
8.9707830362914684
30
0
0
SPLINE
5
200
100
AcDbEntity
8
0
100
AcDbSpline
70
4
71
3
72
8
73
4
74
0
42
0.000000001
43
0.0000000001
44
0.0000000001
40
-1
40
-1
40
-1
40
-1
40
0
40
0
40
0
40
0
41
1
41
1
41
1
41
1
10
-11.696235851684323
20
8.9707830362914684
30
0
10
-11.407151837896375
20
10.572747832081324
30
0
10
-10.808130718515001
20
12.227984174917449
30
0
10
-10.326738500204904
20
12.755030916394201
30
0
0
LINE
5
201
100
AcDbEntity
8
0
100
AcDbLine
10
-10.326738500204906
20
12.755030916394201
30
0
11
-10.140510312727638
21
12.958922422550664
31
0
0
LINE
5
202
100
AcDbEntity
8
0
100
AcDbLine
10
-10.140510312727638
20
12.958922422550664
30
0
11
-9.753726091692597
21
12.864848828743501
31
0
0
SPLINE
5
203
100
AcDbEntity
8
0
100
AcDbSpline
70
4
71
3
72
8
73
4
74
0
42
0.000000001
43
0.0000000001
44
0.0000000001
40
-1
40
-1
40
-1
40
-1
40
0
40
0
40
0
40
0
41
1
41
1
41
1
41
1
10
-9.7537260916925952
20
12.864848828743501
30
0
10
-8.6087716302252648
20
12.58637648565295
30
0
10
-7.3110441095612071
20
11.924002680442065
30
0
10
-6.063086444637495
20
10.981107447797907
30
0
0
SPLINE
5
204
100
AcDbEntity
8
0
100
AcDbSpline
70
4
71
3
72
8
73
4
74
0
42
0.000000001
43
0.0000000001
44
0.0000000001
40
-1
40
-1
40
-1
40
-1
40
0
40
0
40
0
40
0
41
1
41
1
41
1
41
1
10
-6.063086444637495
20
10.981107447797907
30
0
10
-5.464018221352287
20
10.528481519033992
30
0
10
-5.450073400988444
20
10.515872642813985
30
0
10
-5.5196023764991695
20
10.489694745046489
30
0
0
SPLINE
5
205
100
AcDbEntity
8
0
100
AcDbSpline
70
4
71
3
72
8
73
4
74
0
42
0.000000001
43
0.0000000001
44
0.0000000001
40
-1
40
-1
40
-1
40
-1
40
0
40
0
40
0
40
0
41
1
41
1
41
1
41
1
10
-5.5196023764991695
20
10.489694745046489
30
0
10
-5.5511865119090213
20
10.477804429200601
30
0
10
-5.7484999901578622
20
10.365017293236409
30
0
10
-5.9580764858259494
20
10.239058099034848
30
0
0
SPLINE
5
206
100
AcDbEntity
8
0
100
AcDbSpline
70
4
71
3
72
8
73
4
74
0
42
0.000000001
43
0.0000000001
44
0.0000000001
40
-1
40
-1
40
-1
40
-1
40
0
40
0
40
0
40
0
41
1
41
1
41
1
41
1
10
-5.9580764858259494
20
10.239058099034848
30
0
10
-6.1676529814940348
20
10.113098904833286
30
0
10
-6.3566333274731823
20
10.026791131621135
30
0
10
-6.3780316630970209
20
10.047263907797564
30
0
0
SPLINE
5
207
100
AcDbEntity
8
0
100
AcDbSpline
70
4
71
3
72
8
73
4
74
0
42
0.000000001
43
0.0000000001
44
0.0000000001
40
-1
40
-1
40
-1
40
-1
40
0
40
0
40
0
40
0
41
1
41
1
41
1
41
1
10
-6.3780316630970209
20
10.047263907797564
30
0
10
-6.4793538379195512
20
10.144199354129238
30
0
10
-7.3725362557151284
20
10.5718909281869
30
0
10
-7.7774739341328321
20
10.717374109795037
30
0
0
SPLINE
5
208
100
AcDbEntity
8
0
100
AcDbSpline
70
4
71
3
72
8
73
4
74
0
42
0.000000001
43
0.0000000001
44
0.0000000001
40
-1
40
-1
40
-1
40
-1
40
0
40
0
40
0
40
0
41
1
41
1
41
1
41
1
10
-7.7774739341328321
20
10.717374109795037
30
0
10
-8.1910245291038315
20
10.865950404737745
30
0
10
-8.2779073570981456
20
10.880306642212346
30
0
10
-8.7634848540528321
20
10.880306642212346
30
0
0
SPLINE
5
209
100
AcDbEntity
8
0
100
AcDbSpline
70
4
71
3
72
8
73
4
74
0
42
0.000000001
43
0.0000000001
44
0.0000000001
40
-1
40
-1
40
-1
40
-1
40
0
40
0
40
0
40
0
41
1
41
1
41
1
41
1
10
-8.7634848540528321
20
10.880306642212346
30
0
10
-9.2867630251191997
20
10.880306642212346
30
0
10
-9.2991623212300869
20
10.877758643644349
30
0
10
-9.4795555610142053
20
10.73317934078268
30
0
0
SPLINE
5
210
100
AcDbEntity
8
0
100
AcDbSpline
70
4
71
3
72
8
73
4
74
0
42
0.000000001
43
0.0000000001
44
0.0000000001
40
-1
40
-1
40
-1
40
-1
40
0
40
0
40
0
40
0
41
1
41
1
41
1
41
1
10
-9.4795555610142053
20
10.73317934078268
30
0
10
-10.062115995359777
20
10.266277186654788
30
0
10
-10.468096928458584
20
8.7747946618359922
30
0
10
-10.531027743982243
20
6.8703061406056065
30
0
0
SPLINE
5
211
100
AcDbEntity
8
0
100
AcDbSpline
70
4
71
3
72
8
73
4
74
0
42
0.000000001
43
0.0000000001
44
0.0000000001
40
-1
40
-1
40
-1
40
-1
40
0
40
0
40
0
40
0
41
1
41
1
41
1
41
1
10
-10.531027743982243
20
6.8703061406056065
30
0
10
-10.559151355607606
20
6.0191899609187827
30
0
10
-10.568151556586681
20
5.9519106162345059
30
0
10
-10.677029197584355
20
5.7788088026604729
30
0
0
SPLINE
5
212
100
AcDbEntity
8
0
100
AcDbSpline
70
4
71
3
72
8
73
4
74
0
42
0.000000001
43
0.0000000001
44
0.0000000001
40
-1
40
-1
40
-1
40
-1
40
0
40
0
40
0
40
0
41
1
41
1
41
1
41
1
10
-10.677029197584355
20
5.7788088026604729
30
0
10
-10.866442899478786
20
5.4776648989728312
30
0
10
-11.289670184919006
20
4.602304533559785
30
0
10
-11.407208362580976
20
4.2685796984260671
30
0
0
ARC
5
213
100
AcDbEntity
8
0
100
AcDbCircle
10
4.9960036108132044e-15
20
-1.7763568394002505e-14
30
0
40
18.684999999999988
210
0
220
-0
230
1
100
AcDbArc
50
76.41649289448452
51
76.753667279354332
0
SPLINE
5
214
100
AcDbEntity
8
0
100
AcDbSpline
70
4
71
3
72
8
73
4
74
0
42
0.000000001
43
0.0000000001
44
0.0000000001
40
-0.88533933181506852
40
-0.88533933181506852
40
-0.88533933181506852
40
-0.88533933181506852
40
0
40
0
40
0
40
0
41
1
41
1
41
1
41
1
10
4.2814451788292107
20
18.187865520194471
30
0
10
4.1108666755029848
20
18.086960059117128
30
0
10
3.6362633892314236
20
17.634995600326985
30
0
10
3.4943033866063211
20
17.426612070902319
30
0
0
SPLINE
5
215
100
AcDbEntity
8
0
100
AcDbSpline
70
4
71
3
72
8
73
4
74
0
42
0.000000001
43
0.0000000001
44
0.0000000001
40
-1
40
-1
40
-1
40
-1
40
0
40
0
40
0
40
0
41
1
41
1
41
1
41
1
10
3.4943033866063211
20
17.426612070902319
30
0
10
2.7177171974478043
20
16.286663012213474
30
0
10
2.1910527073769659
20
14.515540741799764
30
0
10
2.1190531643730393
20
12.801774249524303
30
0
0
SPLINE
5
216
100
AcDbEntity
8
0
100
AcDbSpline
70
4
71
3
72
8
73
4
74
0
42
0.000000001
43
0.0000000001
44
0.0000000001
40
-1
40
-1
40
-1
40
-1
40
0
40
0
40
0
40
0
41
1
41
1
41
1
41
1
10
2.1190531643730393
20
12.801774249524303
30
0
10
2.0977967857196611
20
12.295843220248376
30
0
10
2.0730818190586686
20
12.09763618739637
30
0
10
2.0312514876244614
20
12.09763618739637
30
0
0
SPLINE
5
217
100
AcDbEntity
8
0
100
AcDbSpline
70
4
71
3
72
8
73
4
74
0
42
0.000000001
43
0.0000000001
44
0.0000000001
40
-1
40
-1
40
-1
40
-1
40
0
40
0
40
0
40
0
41
1
41
1
41
1
41
1
10
2.0312514876244614
20
12.09763618739637
30
0
10
1.9992321895742493
20
12.09763618739637
30
0
10
1.9108306800995756
20
12.085196110919423
30
0
10
1.8348078184491778
20
12.06999174507221
30
0
0
SPLINE
5
218
100
AcDbEntity
8
0
100
AcDbSpline
70
4
71
3
72
8
73
4
74
0
42
0.000000001
43
0.0000000001
44
0.0000000001
40
-1
40
-1
40
-1
40
-1
40
0
40
0
40
0
40
0
41
1
41
1
41
1
41
1
10
1.8348078184491778
20
12.06999174507221
30
0
10
1.7087768714516383
20
12.044785349189837
30
0
10
1.6908314455565976
20
12.058473098385353
30
0
10
1.6314036118567743
20
12.225140905850886
30
0
0
SPLINE
5
219
100
AcDbEntity
8
0
100
AcDbSpline
70
4
71
3
72
8
73
4
74
0
42
0.000000001
43
0.0000000001
44
0.0000000001
40
-1
40
-1
40
-1
40
-1
40
0
40
0
40
0
40
0
41
1
41
1
41
1
41
1
10
1.6314036118567743
20
12.225140905850886
30
0
10
1.5078969178976287
20
12.571510493602601
30
0
10
1.0997432688400077
20
13.350087177590575
30
0
10
0.8594436713138176
20
13.697693339606802
30
0
0
SPLINE
5
220
100
AcDbEntity
8
0
100
AcDbSpline
70
4
71
3
72
8
73
4
74
0
42
0.000000001
43
0.0000000001
44
0.0000000001
40
-1
40
-1
40
-1
40
-1
40
0
40
0
40
0
40
0
41
1
41
1
41
1
41
1
10
0.8594436713138176
20
13.697693339606802
30
0
10
0.15618677481707977
20
14.714991833920179
30
0
10
-0.60323242885169215
20
15.104360575180165
30
0
10
-1.617792186049487
20
14.967822102280831
30
0
0
SPLINE
5
221
100
AcDbEntity
8
0
100
AcDbSpline
70
4
71
3
72
8
73
4
74
0
42
0.000000001
43
0.0000000001
44
0.0000000001
40
-1
40
-1
40
-1
40
-1
40
0
40
0
40
0
40
0
41
1
41
1
41
1
41
1
10
-1.617792186049487
20
14.967822102280831
30
0
10
-2.6868530957613301
20
14.823949228924898
30
0
10
-3.3960732174317956
20
14.387886581370889
30
0
10
-3.7828682788173076
20
13.636629903503675
30
0
0
SPLINE
5
222
100
AcDbEntity
8
0
100
AcDbSpline
70
4
71
3
72
8
73
4
74
0
42
0.000000001
43
0.0000000001
44
0.0000000001
40
-1
40
-1
40
-1
40
-1
40
0
40
0
40
0
40
0
41
1
41
1
41
1
41
1
10
-3.7828682788173076
20
13.636629903503675
30
0
10
-4.0187904395816201
20
13.178406224239074
30
0
10
-4.0596967601899099
20
12.920755613368705
30
0
10
-4.0461566462436753
20
11.978292188018333
30
0
0
SPLINE
5
223
100
AcDbEntity
8
0
100
AcDbSpline
70
4
71
3
72
8
73
4
74
0
42
0.000000001
43
0.0000000001
44
0.0000000001
40
-1
40
-1
40
-1
40
-1
40
0
40
0
40
0
40
0
41
1
41
1
41
1
41
1
10
-4.0461566462436753
20
11.978292188018333
30
0
10
-4.0343416966439261
20
11.156008243343063
30
0
10
-4.0378405488104363
20
11.118466561038304
30
0
10
-4.127398878542583
20
11.106625801080288
30
0
0
SPLINE
5
224
100
AcDbEntity
8
0
100
AcDbSpline
70
4
71
3
72
8
73
4
74
0
42
0.000000001
43
0.0000000001
44
0.0000000001
40
-1
40
-1
40
-1
40
-1
40
0
40
0
40
0
40
0
41
1
41
1
41
1
41
1
10
-4.127398878542583
20
11.106625801080288
30
0
10
-4.2059903870475939
20
11.096229388770826
30
0
10
-4.2423133042350445
20
11.161244132620865
30
0
10
-4.3540881579480555
20
11.512399735105801
30
0
0
SPLINE
5
225
100
AcDbEntity
8
0
100
AcDbSpline
70
4
71
3
72
8
73
4
74
0
42
0.000000001
43
0.0000000001
44
0.0000000001
40
-1
40
-1
40
-1
40
-1
40
0
40
0
40
0
40
0
41
1
41
1
41
1
41
1
10
-4.3540881579480555
20
11.512399735105801
30
0
10
-4.541942656099649
20
12.102564417203642
30
0
10
-4.9425462591573606
20
12.996896686459962
30
0
10
-5.2589337604367801
20
13.53243477770258
30
0
0
SPLINE
5
226
100
AcDbEntity
8
0
100
AcDbSpline
70
4
71
3
72
8
73
4
74
0
42
0.000000001
43
0.0000000001
44
0.0000000001
40
-1
40
-1
40
-1
40
-1
40
0
40
0
40
0
40
0
41
1
41
1
41
1
41
1
10
-5.2589337604367801
20
13.53243477770258
30
0
10
-5.913369848066603
20
14.640174832207959
30
0
10
-6.9250393613457941
20
15.745986465795509
30
0
10
-7.5468847095933986
20
16.033296469133955
30
0
0
SPLINE
5
227
100
AcDbEntity
8
0
100
AcDbSpline
70
4
71
3
72
8
73
4
74
0
42
0.000000001
43
0.0000000001
44
0.0000000001
40
-1
40
-1
40
-1
40
-1
40
0
40
0
40
0
40
0
41
1
41
1
41
1
41
1
10
-7.5468847095933986
20
16.033296469133955
30
0
10
-7.9620618733423072
20
16.225121568275263
30
0
10
-8.1593794812484717
20
16.282228211930349
30
0
10
-8.1593794812484717
20
16.210563751902608
30
0
0
SPLINE
5
228
100
AcDbEntity
8
0
100
AcDbSpline
70
4
71
3
72
8
73
4
74
0
42
0.000000001
43
0.0000000001
44
0.0000000001
40
-1
40
-1
40
-1
40
-1
40
0
40
0
40
0
40
0
41
1
41
1
41
1
41
1
10
-8.1593794812484717
20
16.210563751902608
30
0
10
-8.1593794812484717
20
16.182712052401573
30
0
10
-7.9801513210364732
20
15.937122751000599
30
0
10
-7.7610941645701947
20
15.664807597926146
30
0
0
SPLINE
5
229
100
AcDbEntity
8
0
100
AcDbSpline
70
4
71
3
72
8
73
4
74
0
42
0.000000001
43
0.0000000001
44
0.0000000001
40
-1
40
-1
40
-1
40
-1
40
0
40
0
40
0
40
0
41
1
41
1
41
1
41
1
10
-7.7610941645701947
20
15.664807597926146
30
0
10
-7.5420370081039181
20
15.392493864421395
30
0
10
-7.2765459847031462
20
15.04238564627488
30
0
10
-7.1711137684303727
20
14.886789966298206
30
0
0
SPLINE
5
230
100
AcDbEntity
8
0
100
AcDbSpline
70
4
71
3
72
8
73
4
74
0
42
0.000000001
43
0.0000000001
44
0.0000000001
40
-1
40
-1
40
-1
40
-1
40
0
40
0
40
0
40
0
41
1
41
1
41
1
41
1
10
-7.1711137684303727
20
14.886789966298206
30
0
10
-6.6987501424934406
20
14.189677741793806
30
0
10
-6.0720447037843863
20
12.962056058147713
30
0
10
-5.8030248882015165
20
12.206903306700276
30
0
0
LINE
5
231
100
AcDbEntity
8
0
100
AcDbLine
10
-5.8030248882015165
20
12.206903306700276
30
0
11
-5.6803880033159295
21
11.862655588501596
31
0
0
LINE
5
232
100
AcDbEntity
8
0
100
AcDbLine
10
-5.6803880033159295
20
11.862655588501596
30
0
11
-6.2458547535892306
21
12.236274461992418
31
0
0
SPLINE
5
233
100
AcDbEntity
8
0
100
AcDbSpline
70
4
71
3
72
8
73
4
74
0
42
0.000000001
43
0.0000000001
44
0.0000000001
40
-1
40
-1
40
-1
40
-1
40
0
40
0
40
0
40
0
41
1
41
1
41
1
41
1
10
-6.2458547535892315
20
12.236274461992419
30
0
10
-7.6009997391477926
20
13.131656954726573
30
0
10
-9.288671184905791
20
13.815817541453196
30
0
10
-10.143099091661696
20
13.816088292111406
30
0
0
SPLINE
5
234
100
AcDbEntity
8
0
100
AcDbSpline
70
4
71
3
72
8
73
4
74
0
42
0.000000001
43
0.0000000001
44
0.0000000001
40
-1
40
-1
40
-1
40
-1
40
0
40
0
40
0
40
0
41
1
41
1
41
1
41
1
10
-10.143099091661696
20
13.816088292111406
30
0
10
-10.434053324009584
20
13.816192307855218
30
0
10
-10.51003308236168
20
13.797070187726838
30
0
10
-10.701748552006254
20
13.675487397872828
30
0
0
SPLINE
5
235
100
AcDbEntity
8
0
100
AcDbSpline
70
4
71
3
72
8
73
4
74
0
42
0.000000001
43
0.0000000001
44
0.0000000001
40
-1
40
-1
40
-1
40
-1
40
0
40
0
40
0
40
0
41
1
41
1
41
1
41
1
10
-10.701748552006254
20
13.675487397872828
30
0
10
-11.08698053809519
20
13.431181000329456
30
0
10
-11.476117889493322
20
12.794118639159084
30
0
10
-11.862998189587007
20
11.7743898415114
30
0
0
SPLINE
5
236
100
AcDbEntity
8
0
100
AcDbSpline
70
4
71
3
72
8
73
4
74
0
42
0.000000001
43
0.0000000001
44
0.0000000001
40
-1
40
-1
40
-1
40
-1
40
0
40
0
40
0
40
0
41
1
41
1
41
1
41
1
10
-11.862998189587007
20
11.7743898415114
30
0
10
-12.720129795897151
20
9.515181307319569
30
0
10
-12.933596719129588
20
7.2544716426909979
30
0
10
-12.54693835585404
20
4.5311484730639844
30
0
0
SPLINE
5
237
100
AcDbEntity
8
0
100
AcDbSpline
70
4
71
3
72
8
73
4
74
0
42
0.000000001
43
0.0000000001
44
0.0000000001
40
-1
40
-1
40
-1
40
-1
40
0
40
0
40
0
40
0
41
1
41
1
41
1
41
1
10
-12.54693835585404
20
4.5311484730639844
30
0
10
-12.380353270586749
20
3.3578488180455746
30
0
10
-12.223748082972401
20
2.6020977824935376
30
0
10
-12.026889060606724
20
2.0214658981175848
30
0
0
SPLINE
5
238
100
AcDbEntity
8
0
100
AcDbSpline
70
4
71
3
72
8
73
4
74
0
42
0.000000001
43
0.0000000001
44
0.0000000001
40
-1
40
-1
40
-1
40
-1
40
0
40
0
40
0
40
0
41
1
41
1
41
1
41
1
10
-12.026889060606724
20
2.0214658981175848
30
0
10
-11.977288649868392
20
1.875171755052738
30
0
10
-11.893341169393752
20
1.4455294341173475
30
0
10
-11.840338759858302
20
1.066704611364313
30
0
0
SPLINE
5
239
100
AcDbEntity
8
0
100
AcDbSpline
70
4
71
3
72
8
73
4
74
0
42
0.000000001
43
0.0000000001
44
0.0000000001
40
-1
40
-1
40
-1
40
-1
40
0
40
0
40
0
40
0
41
1
41
1
41
1
41
1
10
-11.840338759858302
20
1.066704611364313
30
0
10
-11.787336414848745
20
0.68787978861127641
30
0
10
-11.729591029352477
20
0.30811546881736707
30
0
10
-11.712016949986985
20
0.22278332714766202
30
0
0
SPLINE
5
240
100
AcDbEntity
8
0
100
AcDbSpline
70
4
71
3
72
8
73
4
74
0
42
0.000000001
43
0.0000000001
44
0.0000000001
40
-1
40
-1
40
-1
40
-1
40
0
40
0
40
0
40
0
41
1
41
1
41
1
41
1
10
-11.712016949986985
20
0.22278332714766202
30
0
10
-11.692984133698207
20
0.13036882316982412
30
0
10
-11.699252179203054
20
0.067634166368986115
30
0
10
-11.72751658633276
20
0.067634166368986115
30
0
0
SPLINE
5
241
100
AcDbEntity
8
0
100
AcDbSpline
70
4
71
3
72
8
73
4
74
0
42
0.000000001
43
0.0000000001
44
0.0000000001
40
-1
40
-1
40
-1
40
-1
40
0
40
0
40
0
40
0
41
1
41
1
41
1
41
1
10
-11.72751658633276
20
0.067634166368986115
30
0
10
-11.919700255876275
20
0.067634166368986115
30
0
10
-12.697995413381467
20
-0.10686656862305188
30
0
10
-13.13963316284678
20
-0.2489763364058506
30
0
0
SPLINE
5
242
100
AcDbEntity
8
0
100
AcDbSpline
70
4
71
3
72
8
73
4
74
0
42
0.000000001
43
0.0000000001
44
0.0000000001
40
-1
40
-1
40
-1
40
-1
40
0
40
0
40
0
40
0
41
1
41
1
41
1
41
1
10
-13.13963316284678
20
-0.2489763364058506
30
0
10
-14.204443880862996
20
-0.59160884238425915
30
0
10
-15.309611416960024
20
-1.2222715252226246
30
0
10
-16.157944465715047
20
-1.9713748448997248
30
0
0
SPLINE
5
243
100
AcDbEntity
8
0
100
AcDbSpline
70
4
71
3
72
8
73
4
74
0
42
0.000000001
43
0.0000000001
44
0.0000000001
40
-1
40
-1
40
-1
40
-1
40
0
40
0
40
0
40
0
41
1
41
1
41
1
41
1
10
-16.157944465715047
20
-1.9713748448997248
30
0
10
-16.661946170710603
20
-2.4164238848911324
30
0
10
-16.94339419000562
20
-2.844388532539246
30
0
10
-16.732074720843844
20
-2.844388532539246
30
0
0
SPLINE
5
244
100
AcDbEntity
8
0
100
AcDbSpline
70
4
71
3
72
8
73
4
74
0
42
0.000000001
43
0.0000000001
44
0.0000000001
40
-1
40
-1
40
-1
40
-1
40
0
40
0
40
0
40
0
41
1
41
1
41
1
41
1
10
-16.732074720843844
20
-2.844388532539246
30
0
10
-16.694728939158317
20
-2.844388532539246
30
0
10
-16.443905426152835
20
-2.7348906686324437
30
0
10
-16.174690484261475
20
-2.6010608637813126
30
0
0
SPLINE
5
245
100
AcDbEntity
8
0
100
AcDbSpline
70
4
71
3
72
8
73
4
74
0
42
0.000000001
43
0.0000000001
44
0.0000000001
40
-1
40
-1
40
-1
40
-1
40
0
40
0
40
0
40
0
41
1
41
1
41
1
41
1
10
-16.174690484261475
20
-2.6010608637813126
30
0
10
-14.712104720349897
20
-1.8739933955772159
30
0
10
-13.222916284699659
20
-1.3873855491205589
30
0
10
-11.811343661486092
20
-1.1752946083502191
30
0
0
SPLINE
5
246
100
AcDbEntity
8
0
100
AcDbSpline
70
4
71
3
72
8
73
4
74
0
42
0.000000001
43
0.0000000001
44
0.0000000001
40
-1
40
-1
40
-1
40
-1
40
0
40
0
40
0
40
0
41
1
41
1
41
1
41
1
10
-11.811343661486092
20
-1.1752946083502191
30
0
10
-11.627552552562177
20
-1.1476795898344805
30
0
10
-11.432146846944551
20
-1.1149252127808595
30
0
10
-11.377107935616033
20
-1.102515592526665
30
0
0
SPLINE
5
247
100
AcDbEntity
8
0
100
AcDbSpline
70
4
71
3
72
8
73
4
74
0
42
0.000000001
43
0.0000000001
44
0.0000000001
40
-1
40
-1
40
-1
40
-1
40
0
40
0
40
0
40
0
41
1
41
1
41
1
41
1
10
-11.377107935616033
20
-1.102515592526665
30
0
10
-11.291956079298815
20
-1.0833106211482524
30
0
10
-11.247039087119601
20
-1.1404898564359622
30
0
10
-11.075786843818898
20
-1.486090553614936
30
0
0
SPLINE
5
248
100
AcDbEntity
8
0
100
AcDbSpline
70
4
71
3
72
8
73
4
74
0
42
0.000000001
43
0.0000000001
44
0.0000000001
40
-1
40
-1
40
-1
40
-1
40
0
40
0
40
0
40
0
41
1
41
1
41
1
41
1
10
-11.075786843818898
20
-1.486090553614936
30
0
10
-10.716212934881987
20
-2.211743614186068
30
0
10
-10.220009829636439
20
-2.8727675376596506
30
0
10
-9.511871678184475
20
-3.5694902838578191
30
0
0
SPLINE
5
249
100
AcDbEntity
8
0
100
AcDbSpline
70
4
71
3
72
8
73
4
74
0
42
0.000000001
43
0.0000000001
44
0.0000000001
40
-1
40
-1
40
-1
40
-1
40
0
40
0
40
0
40
0
41
1
41
1
41
1
41
1
10
-9.511871678184475
20
-3.5694902838578191
30
0
10
-9.134374540260632
20
-3.9409013393025871
30
0
10
-8.6409008804016914
20
-4.3567082757931841
30
0
10
-8.4458633595447257
20
-4.4677217239373501
30
0
0
SPLINE
5
250
100
AcDbEntity
8
0
100
AcDbSpline
70
4
71
3
72
8
73
4
74
0
42
0.000000001
43
0.0000000001
44
0.0000000001
40
-1
40
-1
40
-1
40
-1
40
0
40
0
40
0
40
0
41
1
41
1
41
1
41
1
10
-8.4458633595447257
20
-4.4677217239373501
30
0
10
-8.389341255978465
20
-4.4998938193085003
30
0
10
-8.4365884073019117
20
-4.5648058379326395
30
0
10
-8.6707797254409193
20
-4.7767377868960592
30
0
0
SPLINE
5
251
100
AcDbEntity
8
0
100
AcDbSpline
70
4
71
3
72
8
73
4
74
0
42
0.000000001
43
0.0000000001
44
0.0000000001
40
-1
40
-1
40
-1
40
-1
40
-0.63468232805773217
40
-0.63468232805773217
40
-0.63468232805773217
40
-0.63468232805773217
41
1
41
1
41
1
41
1
10
-8.6707797254409193
20
-4.7767377868960592
30
0
10
-8.9138660899919557
20
-4.9967181531032416
30
0
10
-9.1638271333764507
20
-5.2667671793351492
30
0
10
-9.4051470461607067
20
-5.5657330855940748
30
0
0
ARC
5
252
100
AcDbEntity
8
0
100
AcDbCircle
10
-10.762225485084455
20
-11.41024660593342
30
0
40
6.0000000149017607
210
0
220
-0
230
1
100
AcDbArc
50
72.348298612003987
51
76.927739232162367
0
SPLINE
5
253
100
AcDbEntity
8
0
100
AcDbSpline
70
4
71
3
72
8
73
4
74
0
42
0.000000001
43
0.0000000001
44
0.0000000001
40
-0.68530030617891213
40
-0.68530030617891213
40
-0.68530030617891213
40
-0.68530030617891213
40
0
40
0
40
0
40
0
41
1
41
1
41
1
41
1
10
-8.9428461517486717
20
-5.6927419911340795
30
0
10
-8.3255234894087042
20
-4.9701404614172509
30
0
10
-7.5532798177707914
20
-4.2537882975923322
30
0
10
-6.9154270677204464
20
-3.8404742677047166
30
0
0
SPLINE
5
254
100
AcDbEntity
8
0
100
AcDbSpline
70
4
71
3
72
8
73
4
74
0
42
0.000000001
43
0.0000000001
44
0.0000000001
40
-1
40
-1
40
-1
40
-1
40
0
40
0
40
0
40
0
41
1
41
1
41
1
41
1
10
-6.9154270677204464
20
-3.8404742677047166
30
0
10
-6.485257699269269
20
-3.5617347874061123
30
0
10
-6.6775510628354144
20
-3.4577045897943393
30
0
10
-7.1807503237924895
20
-3.6969356384883234
30
0
0
LINE
5
255
100
AcDbEntity
8
0
100
AcDbLine
10
-7.1807503237924895
20
-3.6969356384883234
30
0
11
-7.4671792260256353
21
-3.8331090238699872
31
0
0
LINE
5
256
100
AcDbEntity
8
0
100
AcDbLine
10
-7.4671792260256353
20
-3.8331090238699872
30
0
11
-7.8013454182856989
21
-3.602808359135965
31
0
0
SPLINE
5
257
100
AcDbEntity
8
0
100
AcDbSpline
70
4
71
3
72
8
73
4
74
0
42
0.000000001
43
0.0000000001
44
0.0000000001
40
-1
40
-1
40
-1
40
-1
40
0
40
0
40
0
40
0
41
1
41
1
41
1
41
1
10
-7.8013454182856989
20
-3.602808359135965
30
0
10
-8.7078057167875329
20
-2.9780944476707005
30
0
10
-9.6498141055216777
20
-1.9478337333326601
30
0
10
-10.070041582072452
20
-1.1215677665841439
30
0
0
LINE
5
258
100
AcDbEntity
8
0
100
AcDbLine
10
-10.070041582072452
20
-1.1215677665841439
30
0
11
-10.205739798758447
21
-0.85475473663299772
31
0
0
LINE
5
259
100
AcDbEntity
8
0
100
AcDbLine
10
-10.205739798758447
20
-0.85475473663299772
30
0
11
-10.602769183403511
21
-0.79927485533350939
31
0
0
SPLINE
5
260
100
AcDbEntity
8
0
100
AcDbSpline
70
4
71
3
72
8
73
4
74
0
42
0.000000001
43
0.0000000001
44
0.0000000001
40
-1
40
-1
40
-1
40
-1
40
0
40
0
40
0
40
0
41
1
41
1
41
1
41
1
10
-10.602769183403511
20
-0.79927485533350939
30
0
10
-11.152335978674335
20
-0.72248181259245925
30
0
10
-11.376119786049827
20
-0.72912643122440723
30
0
10
-12.017957579706533
20
-0.84129824824754396
30
0
0
SPLINE
5
261
100
AcDbEntity
8
0
100
AcDbSpline
70
4
71
3
72
8
73
4
74
0
42
0.000000001
43
0.0000000001
44
0.0000000001
40
-1
40
-1
40
-1
40
-1
40
0
40
0
40
0
40
0
41
1
41
1
41
1
41
1
10
-12.017957579706533
20
-0.84129824824754396
30
0
10
-12.98744445016119
20
-1.0107318937048415
30
0
10
-14.345143112566568
20
-1.3933136722070461
30
0
10
-15.051608752802908
20
-1.6961393788392853
30
0
0
SPLINE
5
262
100
AcDbEntity
8
0
100
AcDbSpline
70
4
71
3
72
8
73
4
74
0
42
0.000000001
43
0.0000000001
44
0.0000000001
40
-1
40
-1
40
-1
40
-1
40
0
40
0
40
0
40
0
41
1
41
1
41
1
41
1
10
-15.051608752802908
20
-1.6961393788392853
30
0
10
-15.364173740023164
20
-1.83012198101135
30
0
10
-15.287652480354652
20
-1.7424844581413446
30
0
10
-14.901963134717246
20
-1.524760664783078
30
0
0
SPLINE
5
263
100
AcDbEntity
8
0
100
AcDbSpline
70
4
71
3
72
8
73
4
74
0
42
0.000000001
43
0.0000000001
44
0.0000000001
40
-1
40
-1
40
-1
40
-1
40
0
40
0
40
0
40
0
41
1
41
1
41
1
41
1
10
-14.901963134717246
20
-1.524760664783078
30
0
10
-13.580970157112402
20
-0.77904366411045034
30
0
10
-12.264006950743596
20
-0.34900799331508914
30
0
10
-10.653697149919243
20
-0.13754889011509785
30
0
0
SPLINE
5
264
100
AcDbEntity
8
0
100
AcDbSpline
70
4
71
3
72
8
73
4
74
0
42
0.000000001
43
0.0000000001
44
0.0000000001
40
-1
40
-1
40
-1
40
-1
40
0
40
0
40
0
40
0
41
1
41
1
41
1
41
1
10
-10.653697149919243
20
-0.13754889011509785
30
0
10
-10.526704250869139
20
-0.12087230143240202
30
0
10
-10.450810957217234
20
-0.086442315920165491
30
0
10
-10.450810957217234
20
-0.045508120124946316
30
0
0
SPLINE
5
265
100
AcDbEntity
8
0
100
AcDbSpline
70
4
71
3
72
8
73
4
74
0
42
0.000000001
43
0.0000000001
44
0.0000000001
40
-1
40
-1
40
-1
40
-1
40
0
40
0
40
0
40
0
41
1
41
1
41
1
41
1
10
-10.450810957217234
20
-0.045508120124946316
30
0
10
-10.450810957217234
20
-0.0095388048457367702
30
0
10
-10.479645257057449
20
0.019891198063251014
30
0
10
-10.514886720233562
20
0.019891198063251014
30
0
0
SPLINE
5
266
100
AcDbEntity
8
0
100
AcDbSpline
70
4
71
3
72
8
73
4
74
0
42
0.000000001
43
0.0000000001
44
0.0000000001
40
-1
40
-1
40
-1
40
-1
40
0
40
0
40
0
40
0
41
1
41
1
41
1
41
1
10
-10.514886720233562
20
0.019891198063251014
30
0
10
-10.633346327685622
20
0.019891198063251014
30
0
10
-10.797169575566683
20
0.83678387510396135
30
0
10
-10.821241735255068
20
1.5475102892828185
30
0
0
SPLINE
5
267
100
AcDbEntity
8
0
100
AcDbSpline
70
4
71
3
72
8
73
4
74
0
42
0.000000001
43
0.0000000001
44
0.0000000001
40
-1
40
-1
40
-1
40
-1
40
0
40
0
40
0
40
0
41
1
41
1
41
1
41
1
10
-10.821241735255068
20
1.5475102892828185
30
0
10
-10.856691746125971
20
2.5941285762753918
30
0
10
-10.668426863277949
20
3.4391184093242444
30
0
10
-10.167119501581755
20
4.483403439929587
30
0
0
SPLINE
5
268
100
AcDbEntity
8
0
100
AcDbSpline
70
4
71
3
72
8
73
4
74
0
42
0.000000001
43
0.0000000001
44
0.0000000001
40
-1
40
-1
40
-1
40
-1
40
0
40
0
40
0
40
0
41
1
41
1
41
1
41
1
10
-10.167119501581755
20
4.483403439929587
30
0
10
-9.3867513206265532
20
6.109007942855083
30
0
10
-8.0001115034977399
20
7.6279599157689981
30
0
10
-6.1305123921567226
20
8.9051762028228136
30
0
0
SPLINE
5
269
100
AcDbEntity
8
0
100
AcDbSpline
70
4
71
3
72
8
73
4
74
0
42
0.000000001
43
0.0000000001
44
0.0000000001
40
-1
40
-1
40
-1
40
-1
40
0
40
0
40
0
40
0
41
1
41
1
41
1
41
1
10
-6.1305123921567226
20
8.9051762028228136
30
0
10
-5.749233004332611
20
9.1656465953337225
30
0
10
-5.2616061649316208
20
9.4720356800281387
30
0
10
-5.2283391941628388
20
9.4720356800281387
30
0
0
SPLINE
5
270
100
AcDbEntity
8
0
100
AcDbSpline
70
4
71
3
72
8
73
4
74
0
42
0.000000001
43
0.0000000001
44
0.0000000001
40
-1
40
-1
40
-1
40
-1
40
0
40
0
40
0
40
0
41
1
41
1
41
1
41
1
10
-5.2283391941628388
20
9.4720356800281387
30
0
10
-5.2186675367134807
20
9.4720356800281387
30
0
10
-5.1995183157089233
20
9.4290717576588978
30
0
10
-5.1857861726971901
20
9.3765590351456449
30
0
0
SPLINE
5
271
100
AcDbEntity
8
0
100
AcDbSpline
70
4
71
3
72
8
73
4
74
0
42
0.000000001
43
0.0000000001
44
0.0000000001
40
-1
40
-1
40
-1
40
-1
40
0
40
0
40
0
40
0
41
1
41
1
41
1
41
1
10
-5.1857861726971901
20
9.3765590351456449
30
0
10
-5.1080376304931407
20
9.0792448724174832
30
0
10
-4.912975847899407
20
9.4813578652265775
30
0
10
-4.9133815867313446
20
9.9381666206510459
30
0
0
SPLINE
5
272
100
AcDbEntity
8
0
100
AcDbSpline
70
4
71
3
72
8
73
4
74
0
42
0.000000001
43
0.0000000001
44
0.0000000001
40
-1
40
-1
40
-1
40
-1
40
0
40
0
40
0
40
0
41
1
41
1
41
1
41
1
10
-4.9133815867313446
20
9.9381666206510459
30
0
10
-4.9141486705790038
20
10.840888030654497
30
0
10
-5.3594103879225221
20
12.341816630391406
30
0
10
-6.0107249708236798
20
13.637185342413554
30
0
0
SPLINE
5
273
100
AcDbEntity
8
0
100
AcDbSpline
70
4
71
3
72
8
73
4
74
0
42
0.000000001
43
0.0000000001
44
0.0000000001
40
-1
40
-1
40
-1
40
-1
40
0
40
0
40
0
40
0
41
1
41
1
41
1
41
1
10
-6.0107249708236798
20
13.637185342413554
30
0
10
-6.1922466394711781
20
13.998204631413349
30
0
10
-6.3336295875652118
20
14.293583791582325
30
0
10
-6.3249149782003489
20
14.293583791582325
30
0
0
SPLINE
5
274
100
AcDbEntity
8
0
100
AcDbSpline
70
4
71
3
72
8
73
4
74
0
42
0.000000001
43
0.0000000001
44
0.0000000001
40
-1
40
-1
40
-1
40
-1
40
0
40
0
40
0
40
0
41
1
41
1
41
1
41
1
10
-6.3249149782003489
20
14.293583791582325
30
0
10
-6.2918142261387997
20
14.293583791582325
30
0
10
-5.9151507627869426
20
13.769299016543592
30
0
10
-5.7213351042902802
20
13.453451209855512
30
0
0
SPLINE
5
275
100
AcDbEntity
8
0
100
AcDbSpline
70
4
71
3
72
8
73
4
74
0
42
0.000000001
43
0.0000000001
44
0.0000000001
40
-1
40
-1
40
-1
40
-1
40
0
40
0
40
0
40
0
41
1
41
1
41
1
41
1
10
-5.7213351042902802
20
13.453451209855512
30
0
10
-5.1766410465564547
20
12.565800726147041
30
0
10
-4.7258884335954718
20
11.454150402364395
30
0
10
-4.4360112674980146
20
10.283583548079168
30
0
0
SPLINE
5
276
100
AcDbEntity
8
0
100
AcDbSpline
70
4
71
3
72
8
73
4
74
0
42
0.000000001
43
0.0000000001
44
0.0000000001
40
-1
40
-1
40
-1
40
-1
40
0
40
0
40
0
40
0
41
1
41
1
41
1
41
1
10
-4.4360112674980146
20
10.283583548079168
30
0
10
-4.2986433787358083
20
9.7288647471949083
30
0
10
-4.0923143423447241
20
9.185606777794991
30
0
10
-4.0190031169337299
20
9.185606777794991
30
0
0
SPLINE
5
277
100
AcDbEntity
8
0
100
AcDbSpline
70
4
71
3
72
8
73
4
74
0
42
0.000000001
43
0.0000000001
44
0.0000000001
40
-1
40
-1
40
-1
40
-1
40
0
40
0
40
0
40
0
41
1
41
1
41
1
41
1
10
-4.0190031169337299
20
9.185606777794991
30
0
10
-3.974099288037233
20
9.185606777794991
30
0
10
-3.9584282709125738
20
9.3091150203756321
30
0
10
-3.9584282709125738
20
9.6629879373787926
30
0
0
SPLINE
5
278
100
AcDbEntity
8
0
100
AcDbSpline
70
4
71
3
72
8
73
4
74
0
42
0.000000001
43
0.0000000001
44
0.0000000001
40
-1
40
-1
40
-1
40
-1
40
0
40
0
40
0
40
0
41
1
41
1
41
1
41
1
10
-3.9584282709125738
20
9.6629879373787926
30
0
10
-3.9584282709125738
20
10.055499993120179
30
0
10
-3.9456975698015539
20
10.140369096962596
30
0
10
-3.8868210453542873
20
10.140369096962596
30
0
0
SPLINE
5
279
100
AcDbEntity
8
0
100
AcDbSpline
70
4
71
3
72
8
73
4
74
0
42
0.000000001
43
0.0000000001
44
0.0000000001
40
-1
40
-1
40
-1
40
-1
40
0
40
0
40
0
40
0
41
1
41
1
41
1
41
1
10
-3.8868210453542873
20
10.140369096962596
30
0
10
-3.8463008477056526
20
10.140369096962596
30
0
10
-3.81521485221033
20
10.097595655037356
30
0
10
-3.81521485221033
20
10.041842183940251
30
0
0
SPLINE
5
280
100
AcDbEntity
8
0
100
AcDbSpline
70
4
71
3
72
8
73
4
74
0
42
0.000000001
43
0.0000000001
44
0.0000000001
40
-1
40
-1
40
-1
40
-1
40
0
40
0
40
0
40
0
41
1
41
1
41
1
41
1
10
-3.81521485221033
20
10.041842183940251
30
0
10
-3.81521485221033
20
9.8557546629155333
30
0
10
-3.4744375947840678
20
8.5508025648692954
30
0
10
-3.2937248227646188
20
8.0448808273223431
30
0
0
SPLINE
5
281
100
AcDbEntity
8
0
100
AcDbSpline
70
4
71
3
72
8
73
4
74
0
42
0.000000001
43
0.0000000001
44
0.0000000001
40
-1
40
-1
40
-1
40
-1
40
0
40
0
40
0
40
0
41
1
41
1
41
1
41
1
10
-3.2937248227646188
20
8.0448808273223431
30
0
10
-2.8319166009440657
20
6.7520079769444985
30
0
10
-2.1909906872448892
20
5.8699265942390388
30
0
10
-1.4473983952647007
20
5.5038562181266286
30
0
0
SPLINE
5
282
100
AcDbEntity
8
0
100
AcDbSpline
70
4
71
3
72
8
73
4
74
0
42
0.000000001
43
0.0000000001
44
0.0000000001
40
-1
40
-1
40
-1
40
-1
40
0
40
0
40
0
40
0
41
1
41
1
41
1
41
1
10
-1.4473983952647007
20
5.5038562181266286
30
0
10
-1.1515507770931999
20
5.3582124960900774
30
0
10
-1.0751965104426686
20
5.3419240951957008
30
0
10
-0.61439695742314449
20
5.3261508690523085
30
0
0
SPLINE
5
283
100
AcDbEntity
8
0
100
AcDbSpline
70
4
71
3
72
8
73
4
74
0
42
0.000000001
43
0.0000000001
44
0.0000000001
40
-1
40
-1
40
-1
40
-1
40
0
40
0
40
0
40
0
41
1
41
1
41
1
41
1
10
-0.61439695742314449
20
5.3261508690523085
30
0
10
-0.2038140374455466
20
5.3120986775980805
30
0
10
-0.035412806318879664
20
5.3284562502526089
30
0
10
0.26892435489340505
20
5.4119486295851305
30
0
0
SPLINE
5
284
100
AcDbEntity
8
0
100
AcDbSpline
70
4
71
3
72
8
73
4
74
0
42
0.000000001
43
0.0000000001
44
0.0000000001
40
-1
40
-1
40
-1
40
-1
40
0
40
0
40
0
40
0
41
1
41
1
41
1
41
1
10
0.26892435489340505
20
5.4119486295851305
30
0
10
1.2548655868460878
20
5.6824380869676538
30
0
10
1.8682859179485733
20
6.3138358488094282
30
0
10
2.1263595605909202
20
7.3238220105225249
30
0
0
SPLINE
5
285
100
AcDbEntity
8
0
100
AcDbSpline
70
4
71
3
72
8
73
4
74
0
42
0.000000001
43
0.0000000001
44
0.0000000001
40
-1
40
-1
40
-1
40
-1
40
0
40
0
40
0
40
0
41
1
41
1
41
1
41
1
10
2.1263595605909202
20
7.3238220105225249
30
0
10
2.3000178454891618
20
8.0034417809194487
30
0
10
2.2666987377966841
20
9.7008073391384944
30
0
10
2.0597182479629716
20
10.718732250846983
30
0
0
SPLINE
5
286
100
AcDbEntity
8
0
100
AcDbSpline
70
4
71
3
72
8
73
4
74
0
42
0.000000001
43
0.0000000001
44
0.0000000001
40
-1
40
-1
40
-1
40
-1
40
0
40
0
40
0
40
0
41
1
41
1
41
1
41
1
10
2.0597182479629716
20
10.718732250846983
30
0
10
1.9785632546750032
20
11.117841434161104
30
0
10
1.9787077926812913
20
11.129326011175053
30
0
10
2.0645902111892234
20
11.106866869826488
30
0
0
SPLINE
5
287
100
AcDbEntity
8
0
100
AcDbSpline
70
4
71
3
72
8
73
4
74
0
42
0.000000001
43
0.0000000001
44
0.0000000001
40
-1
40
-1
40
-1
40
-1
40
0
40
0
40
0
40
0
41
1
41
1
41
1
41
1
10
2.0645902111892234
20
11.106866869826488
30
0
10
2.113266482049847
20
11.094138749751297
30
0
10
2.1648954578960788
20
11.027214555596757
30
0
10
2.1793203509236658
20
10.958148101706154
30
0
0
SPLINE
5
288
100
AcDbEntity
8
0
100
AcDbSpline
70
4
71
3
72
8
73
4
74
0
42
0.000000001
43
0.0000000001
44
0.0000000001
40
-1
40
-1
40
-1
40
-1
40
0
40
0
40
0
40
0
41
1
41
1
41
1
41
1
10
2.1793203509236658
20
10.958148101706154
30
0
10
2.2610555610654504
20
10.56682487106649
30
0
10
2.3730735483533261
20
10.235845741845086
30
0
10
2.423782643030965
20
10.235845741845086
30
0
0
SPLINE
5
289
100
AcDbEntity
8
0
100
AcDbSpline
70
4
71
3
72
8
73
4
74
0
42
0.000000001
43
0.0000000001
44
0.0000000001
40
-1
40
-1
40
-1
40
-1
40
0
40
0
40
0
40
0
41
1
41
1
41
1
41
1
10
2.423782643030965
20
10.235845741845086
30
0
10
2.5248332928845385
20
10.235845741845086
30
0
10
2.5479438876757299
20
10.556084664784928
30
0
10
2.5146980814007258
20
11.495411357295255
30
0
0
SPLINE
5
290
100
AcDbEntity
8
0
100
AcDbSpline
70
4
71
3
72
8
73
4
74
0
42
0.000000001
43
0.0000000001
44
0.0000000001
40
-1
40
-1
40
-1
40
-1
40
0
40
0
40
0
40
0
41
1
41
1
41
1
41
1
10
2.5146980814007258
20
11.495411357295255
30
0
10
2.4623412534513989
20
12.974642737459611
30
0
10
2.6048794731814073
20
14.158809069515083
30
0
10
2.971239957720726
20
15.288250473250342
30
0
0
SPLINE
5
291
100
AcDbEntity
8
0
100
AcDbSpline
70
4
71
3
72
8
73
4
74
0
42
0.000000001
43
0.0000000001
44
0.0000000001
40
-1
40
-1
40
-1
40
-1
40
0
40
0
40
0
40
0
41
1
41
1
41
1
41
1
10
2.971239957720726
20
15.288250473250342
30
0
10
3.0763015372488045
20
15.612140271366879
30
0
10
3.1725008721627379
20
15.866901606207083
30
0
10
3.18500444212102
20
15.854397971722904
30
0
0
SPLINE
5
292
100
AcDbEntity
8
0
100
AcDbSpline
70
4
71
3
72
8
73
4
74
0
42
0.000000001
43
0.0000000001
44
0.0000000001
40
-1
40
-1
40
-1
40
-1
40
0
40
0
40
0
40
0
41
1
41
1
41
1
41
1
10
3.18500444212102
20
15.854397971722904
30
0
10
3.1975131741509544
20
15.841888981589387
30
0
10
3.1652254483747777
20
15.609110393410058
30
0
10
3.1132516461421145
20
15.337113353001229
30
0
0
SPLINE
5
293
100
AcDbEntity
8
0
100
AcDbSpline
70
4
71
3
72
8
73
4
74
0
42
0.000000001
43
0.0000000001
44
0.0000000001
40
-1
40
-1
40
-1
40
-1
40
0
40
0
40
0
40
0
41
1
41
1
41
1
41
1
10
3.1132516461421145
20
15.337113353001229
30
0
10
2.8010629739453741
20
13.703295735971977
30
0
10
2.837888160704678
20
11.65436290005365
30
0
10
3.192059961656557
20
10.952312895909422
30
0
0
SPLINE
5
294
100
AcDbEntity
8
0
100
AcDbSpline
70
4
71
3
72
8
73
4
74
0
42
0.000000001
43
0.0000000001
44
0.0000000001
40
-1
40
-1
40
-1
40
-1
40
0
40
0
40
0
40
0
41
1
41
1
41
1
41
1
10
3.192059961656557
20
10.952312895909422
30
0
10
3.3183273315358108
20
10.702018495248385
30
0
10
3.4887149278346108
20
10.574777558655345
30
0
10
3.4887149278346108
20
10.730777945049628
30
0
0
SPLINE
5
295
100
AcDbEntity
8
0
100
AcDbSpline
70
4
71
3
72
8
73
4
74
0
42
0.000000001
43
0.0000000001
44
0.0000000001
40
-1
40
-1
40
-1
40
-1
40
0
40
0
40
0
40
0
41
1
41
1
41
1
41
1
10
3.4887149278346108
20
10.730777945049628
30
0
10
3.4887149278346108
20
10.86459794196462
30
0
10
3.580480043198484
20
10.861726281503966
30
0
10
4.1443537781596191
20
10.710260775056986
30
0
0
SPLINE
5
296
100
AcDbEntity
8
0
100
AcDbSpline
70
4
71
3
72
8
73
4
74
0
42
0.000000001
43
0.0000000001
44
0.0000000001
40
-1
40
-1
40
-1
40
-1
40
0
40
0
40
0
40
0
41
1
41
1
41
1
41
1
10
4.1443537781596191
20
10.710260775056986
30
0
10
4.9750777099878052
20
10.487113193012743
30
0
10
5.7526095906731811
20
10.18711578543927
30
0
10
6.6632981420661164
20
9.7383639914510507
30
0
0
SPLINE
5
297
100
AcDbEntity
8
0
100
AcDbSpline
70
4
71
3
72
8
73
4
74
0
42
0.000000001
43
0.0000000001
44
0.0000000001
40
-1
40
-1
40
-1
40
-1
40
0
40
0
40
0
40
0
41
1
41
1
41
1
41
1
10
6.6632981420661164
20
9.7383639914510507
30
0
10
9.0051607351539928
20
8.5843833895945885
30
0
10
10.49636554051785
20
7.0649647654032286
30
0
10
11.123156669616346
20
5.1941205623794691
30
0
0
SPLINE
5
298
100
AcDbEntity
8
0
100
AcDbSpline
70
4
71
3
72
8
73
4
74
0
42
0.000000001
43
0.0000000001
44
0.0000000001
40
-1
40
-1
40
-1
40
-1
40
0
40
0
40
0
40
0
41
1
41
1
41
1
41
1
10
11.123156669616346
20
5.1941205623794691
30
0
10
11.348869285065039
20
4.5204175585113955
30
0
10
11.490586735402196
20
3.4627338547231146
30
0
10
11.365501479931517
20
3.3854277020597401
30
0
0
SPLINE
5
299
100
AcDbEntity
8
0
100
AcDbSpline
70
4
71
3
72
8
73
4
74
0
42
0.000000001
43
0.0000000001
44
0.0000000001
40
-1
40
-1
40
-1
40
-1
40
0
40
0
40
0
40
0
41
1
41
1
41
1
41
1
10
11.365501479931517
20
3.3854277020597401
30
0
10
11.339245118674892
20
3.3692002136108701
30
0
10
11.317762641283107
20
3.322462816863172
30
0
10
11.317762641283107
20
3.2815657879838578
30
0
0
SPLINE
5
300
100
AcDbEntity
8
0
100
AcDbSpline
70
4
71
3
72
8
73
4
74
0
42
0.000000001
43
0.0000000001
44
0.0000000001
40
-1
40
-1
40
-1
40
-1
40
0
40
0
40
0
40
0
41
1
41
1
41
1
41
1
10
11.317762641283107
20
3.2815657879838578
30
0
10
11.317762641283107
20
3.2274631474014304
30
0
10
11.347021263413207
20
3.2153126631442275
30
0
10
11.42517296341337
20
3.236962391657574
30
0
0
SPLINE
5
301
100
AcDbEntity
8
0
100
AcDbSpline
70
4
71
3
72
8
73
4
74
0
42
0.000000001
43
0.0000000001
44
0.0000000001
40
-1
40
-1
40
-1
40
-1
40
0
40
0
40
0
40
0
41
1
41
1
41
1
41
1
10
11.42517296341337
20
3.236962391657574
30
0
10
11.48424977624078
20
3.2533261587980866
30
0
10
11.876298794154877
20
3.311890894117504
30
0
10
12.296394379774917
20
3.3671033801053585
30
0
0
SPLINE
5
302
100
AcDbEntity
8
0
100
AcDbSpline
70
4
71
3
72
8
73
4
74
0
42
0.000000001
43
0.0000000001
44
0.0000000001
40
-1
40
-1
40
-1
40
-1
40
0
40
0
40
0
40
0
41
1
41
1
41
1
41
1
10
12.296394379774917
20
3.3671033801053585
30
0
10
12.927924290651012
20
3.4501012329735059
30
0
10
13.213153527431967
20
3.4630631948945867
30
0
10
13.943359535201182
20
3.441927608717894
30
0
0
SPLINE
5
303
100
AcDbEntity
8
0
100
AcDbSpline
70
4
71
3
72
8
73
4
74
0
42
0.000000001
43
0.0000000001
44
0.0000000001
40
-1
40
-1
40
-1
40
-1
40
0
40
0
40
0
40
0
41
1
41
1
41
1
41
1
10
13.943359535201182
20
3.441927608717894
30
0
10
14.429093959134125
20
3.4278681903633501
30
0
10
15.009110524569023
20
3.3828487310618227
30
0
10
15.232287530421686
20
3.341883562836685
30
0
0
SPLINE
5
304
100
AcDbEntity
8
0
100
AcDbSpline
70
4
71
3
72
8
73
4
74
0
42
0.000000001
43
0.0000000001
44
0.0000000001
40
-1
40
-1
40
-1
40
-1
40
0
40
0
40
0
40
0
41
1
41
1
41
1
41
1
10
15.232287530421686
20
3.341883562836685
30
0
10
15.776607337960655
20
3.2419726984041297
30
0
10
16.531638780724244
20
3.0696379686777564
30
0
10
16.511830879376745
20
3.049830067330257
30
0
0
SPLINE
5
305
100
AcDbEntity
8
0
100
AcDbSpline
70
4
71
3
72
8
73
4
74
0
42
0.000000001
43
0.0000000001
44
0.0000000001
40
-1
40
-1
40
-1
40
-1
40
0
40
0
40
0
40
0
41
1
41
1
41
1
41
1
10
16.511830879376745
20
3.049830067330257
30
0
10
16.503051227909054
20
3.0410514482768947
30
0
10
16.120044094702628
20
3.0496514596510571
30
0
10
15.660700245889295
20
3.0689410890045821
30
0
0
SPLINE
5
306
100
AcDbEntity
8
0
100
AcDbSpline
70
4
71
3
72
8
73
4
74
0
42
0.000000001
43
0.0000000001
44
0.0000000001
40
-1
40
-1
40
-1
40
-1
40
0
40
0
40
0
40
0
41
1
41
1
41
1
41
1
10
15.660700245889295
20
3.0689410890045821
30
0
10
14.705202847718279
20
3.1090689692075757
30
0
10
13.708121865138079
20
3.069477944456509
30
0
10
12.845382764917005
20
2.9571564273554296
30
0
0
SPLINE
5
307
100
AcDbEntity
8
0
100
AcDbSpline
70
4
71
3
72
8
73
4
74
0
42
0.000000001
43
0.0000000001
44
0.0000000001
40
-1
40
-1
40
-1
40
-1
40
0
40
0
40
0
40
0
41
1
41
1
41
1
41
1
10
12.845382764917005
20
2.9571564273554296
30
0
10
12.346838143969583
20
2.8922506032172723
30
0
10
12.174606655676271
20
2.8464733517970608
30
0
10
11.798599291631531
20
2.6789341866364746
30
0
0
LINE
5
308
100
AcDbEntity
8
0
100
AcDbLine
10
11.798599291631531
20
2.6789341866364746
30
0
11
11.34854304213656
21
2.4784011242975579
31
0
0
LINE
5
309
100
AcDbEntity
8
0
100
AcDbLine
10
11.34854304213656
20
2.4784011242975579
30
0
11
11.266137795094195
21
2.0964966095962478
31
0
0
SPLINE
5
310
100
AcDbEntity
8
0
100
AcDbSpline
70
4
71
3
72
8
73
4
74
0
42
0.000000001
43
0.0000000001
44
0.0000000001
40
-1
40
-1
40
-1
40
-1
40
0
40
0
40
0
40
0
41
1
41
1
41
1
41
1
10
11.266137795094195
20
2.0964966095962478
30
0
10
11.086495636735613
20
1.2639484016458358
30
0
10
10.694828612123848
20
0.37897316157161631
30
0
10
10.146375017605029
20
-0.43362260702500599
30
0
0
SPLINE
5
311
100
AcDbEntity
8
0
100
AcDbSpline
70
4
71
3
72
8
73
4
74
0
42
0.000000001
43
0.0000000001
44
0.0000000001
40
-1
40
-1
40
-1
40
-1
40
0
40
0
40
0
40
0
41
1
41
1
41
1
41
1
10
10.146375017605029
20
-0.43362260702500599
30
0
10
9.5881754318050447
20
-1.2606587548641746
30
0
10
9.6256149050910711
20
-1.2284185201472053
30
0
10
9.2877015650179828
20
-1.1730852416826676
30
0
0
SPLINE
5
312
100
AcDbEntity
8
0
100
AcDbSpline
70
4
71
3
72
8
73
4
74
0
42
0.000000001
43
0.0000000001
44
0.0000000001
40
-1
40
-1
40
-1
40
-1
40
0
40
0
40
0
40
0
41
1
41
1
41
1
41
1
10
9.2877015650179828
20
-1.1730852416826676
30
0
10
8.8670113087434999
20
-1.1041963630569329
30
0
10
8.7298798428630064
20
-1.1111796135893259
30
0
10
8.748339411094701
20
-1.2005515925347932
30
0
0
SPLINE
5
313
100
AcDbEntity
8
0
100
AcDbSpline
70
4
71
3
72
8
73
4
74
0
42
0.000000001
43
0.0000000001
44
0.0000000001
40
-1
40
-1
40
-1
40
-1
40
0
40
0
40
0
40
0
41
1
41
1
41
1
41
1
10
8.748339411094701
20
-1.2005515925347932
30
0
10
8.7583806728744271
20
-1.2491700481929047
30
0
10
8.9722700794087284
20
-1.3460827814093057
30
0
10
9.360499164299485
20
-1.477917961773656
30
0
0
SPLINE
5
314
100
AcDbEntity
8
0
100
AcDbSpline
70
4
71
3
72
8
73
4
74
0
42
0.000000001
43
0.0000000001
44
0.0000000001
40
-1
40
-1
40
-1
40
-1
40
0
40
0
40
0
40
0
41
1
41
1
41
1
41
1
10
9.360499164299485
20
-1.477917961773656
30
0
10
10.35377673248564
20
-1.8152159829056891
30
0
10
11.422998698833062
20
-2.402798080555455
30
0
10
12.248655541126503
20
-3.0650753550264254
30
0
0
SPLINE
5
315
100
AcDbEntity
8
0
100
AcDbSpline
70
4
71
3
72
8
73
4
74
0
42
0.000000001
43
0.0000000001
44
0.0000000001
40
-1
40
-1
40
-1
40
-1
40
0
40
0
40
0
40
0
41
1
41
1
41
1
41
1
10
12.248655541126503
20
-3.0650753550264254
30
0
10
12.708695237198686
20
-3.4340850147381463
30
0
10
13.403693851464698
20
-4.1193624156669273
30
0
10
13.07322008905814
20
-3.8781078348849052
30
0
0
SPLINE
5
316
100
AcDbEntity
8
0
100
AcDbSpline
70
4
71
3
72
8
73
4
74
0
42
0.000000001
43
0.0000000001
44
0.0000000001
40
-1
40
-1
40
-1
40
-1
40
0
40
0
40
0
40
0
41
1
41
1
41
1
41
1
10
13.07322008905814
20
-3.8781078348849052
30
0
10
12.00353147143327
20
-3.0972102834816684
30
0
10
10.533767846887976
20
-2.3561536010975126
30
0
10
9.5275830347402657
20
-2.0903956985922734
30
0
0
SPLINE
5
317
100
AcDbEntity
8
0
100
AcDbSpline
70
4
71
3
72
8
73
4
74
0
42
0.000000001
43
0.0000000001
44
0.0000000001
40
-1
40
-1
40
-1
40
-1
40
0
40
0
40
0
40
0
41
1
41
1
41
1
41
1
10
9.5275830347402657
20
-2.0903956985922734
30
0
10
9.3175342095159195
20
-2.0349199469501089
30
0
10
8.9577089076894989
20
-1.9748375625646641
30
0
10
8.727969876351338
20
-1.9568838773549779
30
0
0
SPLINE
5
318
100
AcDbEntity
8
0
100
AcDbSpline
70
4
71
3
72
8
73
4
74
0
42
0.000000001
43
0.0000000001
44
0.0000000001
40
-1
40
-1
40
-1
40
-1
40
0
40
0
40
0
40
0
41
1
41
1
41
1
41
1
10
8.727969876351338
20
-1.9568838773549779
30
0
10
8.3676118487303128
20
-1.9287237440726668
30
0
10
8.3102612326637235
20
-1.9344515787790106
30
0
10
8.3102612326637235
20
-1.9986202590850954
30
0
0
SPLINE
5
319
100
AcDbEntity
8
0
100
AcDbSpline
70
4
71
3
72
8
73
4
74
0
42
0.000000001
43
0.0000000001
44
0.0000000001
40
-1
40
-1
40
-1
40
-1
40
0
40
0
40
0
40
0
41
1
41
1
41
1
41
1
10
8.3102612326637235
20
-1.9986202590850954
30
0
10
8.3102612326637235
20
-2.0427332586043301
30
0
10
8.3695631118152072
20
-2.0860223914877185
30
0
10
8.4560050988903424
20
-2.1050084910280353
30
0
0
SPLINE
5
320
100
AcDbEntity
8
0
100
AcDbSpline
70
4
71
3
72
8
73
4
74
0
42
0.000000001
43
0.0000000001
44
0.0000000001
40
-1
40
-1
40
-1
40
-1
40
0
40
0
40
0
40
0
41
1
41
1
41
1
41
1
10
8.4560050988903424
20
-2.1050084910280353
30
0
10
8.5361638123492511
20
-2.1226132201939674
30
0
10
8.5936217995062325
20
-2.1619151689324578
30
0
10
8.583689973645555
20
-2.1923424840848349
30
0
0
SPLINE
5
321
100
AcDbEntity
8
0
100
AcDbSpline
70
4
71
3
72
8
73
4
74
0
42
0.000000001
43
0.0000000001
44
0.0000000001
40
-1
40
-1
40
-1
40
-1
40
0
40
0
40
0
40
0
41
1
41
1
41
1
41
1
10
8.583689973645555
20
-2.1923424840848349
30
0
10
8.5422653810432827
20
-2.3192447887774281
30
0
10
7.41271944535705
20
-3.099646781301959
30
0
10
6.8846044131516742
20
-3.3662388745863492
30
0
0
LINE
5
322
100
AcDbEntity
8
0
100
AcDbLine
10
6.884604413151675
20
-3.3662388745863492
30
0
11
6.6055696623545117
21
-3.5070952913717623
31
0
0
LINE
5
323
100
AcDbEntity
8
0
100
AcDbLine
10
6.6055696623545117
20
-3.5070952913717623
30
0
11
6.4196132579497833
21
-3.3157641379617653
31
0
0
SPLINE
5
324
100
AcDbEntity
8
0
100
AcDbSpline
70
4
71
3
72
8
73
4
74
0
42
0.000000001
43
0.0000000001
44
0.0000000001
40
-1
40
-1
40
-1
40
-1
40
0
40
0
40
0
40
0
41
1
41
1
41
1
41
1
10
6.4196132579497833
20
-3.3157641379617653
30
0
10
5.9967074405217646
20
-2.8806345348590656
30
0
10
5.439300748927705
20
-2.6534414372602444
30
0
10
4.7946385277659731
20
-2.6534414372602444
30
0
0
SPLINE
5
325
100
AcDbEntity
8
0
100
AcDbSpline
70
4
71
3
72
8
73
4
74
0
42
0.000000001
43
0.0000000001
44
0.0000000001
40
-1
40
-1
40
-1
40
-1
40
0
40
0
40
0
40
0
41
1
41
1
41
1
41
1
10
4.7946385277659731
20
-2.6534414372602444
30
0
10
4.1003285338584909
20
-2.6534414372602444
30
0
10
3.6612850480283687
20
-2.8959245910957221
30
0
10
3.3966204722992677
20
-3.4255634668531121
30
0
0
SPLINE
5
326
100
AcDbEntity
8
0
100
AcDbSpline
70
4
71
3
72
8
73
4
74
0
42
0.000000001
43
0.0000000001
44
0.0000000001
40
-1
40
-1
40
-1
40
-1
40
0
40
0
40
0
40
0
41
1
41
1
41
1
41
1
10
3.3966204722992677
20
-3.4255634668531121
30
0
10
3.2689975424038953
20
-3.6809621239647905
30
0
10
3.2500238318355446
20
-3.7692500678630925
30
0
10
3.2500238318355446
20
-4.1077333006466921
30
0
0
SPLINE
5
327
100
AcDbEntity
8
0
100
AcDbSpline
70
4
71
3
72
8
73
4
74
0
42
0.000000001
43
0.0000000001
44
0.0000000001
40
-1
40
-1
40
-1
40
-1
40
0
40
0
40
0
40
0
41
1
41
1
41
1
41
1
10
3.2500238318355446
20
-4.1077333006466921
30
0
10
3.2500238318355446
20
-4.4567430299454136
30
0
10
3.2645168642089528
20
-4.5193878666994847
30
0
10
3.3916246193533417
20
-4.7198166551910115
30
0
0
SPLINE
5
328
100
AcDbEntity
8
0
100
AcDbSpline
70
4
71
3
72
8
73
4
74
0
42
0.000000001
43
0.0000000001
44
0.0000000001
40
-1
40
-1
40
-1
40
-1
40
0
40
0
40
0
40
0
41
1
41
1
41
1
41
1
10
3.3916246193533417
20
-4.7198166551910115
30
0
10
3.4899703436606599
20
-4.8748914821378797
30
0
10
3.6097902860451181
20
-4.9834684324617617
30
0
10
3.7838770228905738
20
-5.0752624554268877
30
0
0
SPLINE
5
329
100
AcDbEntity
8
0
100
AcDbSpline
70
4
71
3
72
8
73
4
74
0
42
0.000000001
43
0.0000000001
44
0.0000000001
40
-1
40
-1
40
-1
40
-1
40
0
40
0
40
0
40
0
41
1
41
1
41
1
41
1
10
3.7838770228905738
20
-5.0752624554268877
30
0
10
4.1053440026767003
20
-5.2447704347159929
30
0
10
4.3740680315538434
20
-5.5299356618084472
30
0
10
4.4700226842714201
20
-5.8033871159055517
30
0
0
SPLINE
5
330
100
AcDbEntity
8
0
100
AcDbSpline
70
4
71
3
72
8
73
4
74
0
42
0.000000001
43
0.0000000001
44
0.0000000001
40
-1
40
-1
40
-1
40
-1
40
0
40
0
40
0
40
0
41
1
41
1
41
1
41
1
10
4.4700226842714201
20
-5.8033871159055517
30
0
10
4.5116300142102084
20
-5.9219619666072676
30
0
10
4.5579699314406152
20
-6.1854630113857478
30
0
10
4.5730029165089441
20
-6.3889477462959388
30
0
0
SPLINE
5
331
100
AcDbEntity
8
0
100
AcDbSpline
70
4
71
3
72
8
73
4
74
0
42
0.000000001
43
0.0000000001
44
0.0000000001
40
-1
40
-1
40
-1
40
-1
40
0
40
0
40
0
40
0
41
1
41
1
41
1
41
1
10
4.5730029165089441
20
-6.3889477462959388
30
0
10
4.6039887678141937
20
-6.8083970405450023
30
0
10
4.6600468011388347
20
-6.8532802211548871
30
0
10
4.8114999186138512
20
-6.5799010360609245
30
0
0
SPLINE
5
332
100
AcDbEntity
8
0
100
AcDbSpline
70
4
71
3
72
8
73
4
74
0
42
0.000000001
43
0.0000000001
44
0.0000000001
40
-1
40
-1
40
-1
40
-1
40
0
40
0
40
0
40
0
41
1
41
1
41
1
41
1
10
4.8114999186138512
20
-6.5799010360609245
30
0
10
5.0185464829647231
20
-6.2061753076868786
30
0
10
4.9930912752286671
20
-5.6959664696319834
30
0
10
4.742464437153167
20
-5.1962077294317366
30
0
0
SPLINE
5
333
100
AcDbEntity
8
0
100
AcDbSpline
70
4
71
3
72
8
73
4
74
0
42
0.000000001
43
0.0000000001
44
0.0000000001
40
-1
40
-1
40
-1
40
-1
40
0
40
0
40
0
40
0
41
1
41
1
41
1
41
1
10
4.742464437153167
20
-5.1962077294317366
30
0
10
4.6071273073793151
20
-4.9263387530619207
30
0
10
4.5547240207851081
20
-4.8860374272513818
30
0
10
4.0517007864714056
20
-4.6649644818045477
30
0
0
SPLINE
5
334
100
AcDbEntity
8
0
100
AcDbSpline
70
4
71
3
72
8
73
4
74
0
42
0.000000001
43
0.0000000001
44
0.0000000001
40
-1
40
-1
40
-1
40
-1
40
0
40
0
40
0
40
0
41
1
41
1
41
1
41
1
10
4.0517007864714056
20
-4.6649644818045477
30
0
10
3.7790339672655793
20
-4.5451280207907985
30
0
10
3.6425126582544909
20
-4.3347323043513564
30
0
10
3.7381008038846919
20
-4.1816706853492169
30
0
0
SPLINE
5
335
100
AcDbEntity
8
0
100
AcDbSpline
70
4
71
3
72
8
73
4
74
0
42
0.000000001
43
0.0000000001
44
0.0000000001
40
-1
40
-1
40
-1
40
-1
40
0
40
0
40
0
40
0
41
1
41
1
41
1
41
1
10
3.7381008038846919
20
-4.1816706853492169
30
0
10
3.8192547647583308
20
-4.0517227583812598
30
0
10
4.078292682385487
20
-3.972947480125395
30
0
10
4.3051574722271679
20
-4.0092244548751355
30
0
0
SPLINE
5
336
100
AcDbEntity
8
0
100
AcDbSpline
70
4
71
3
72
8
73
4
74
0
42
0.000000001
43
0.0000000001
44
0.0000000001
40
-1
40
-1
40
-1
40
-1
40
0
40
0
40
0
40
0
41
1
41
1
41
1
41
1
10
4.3051574722271679
20
-4.0092244548751355
30
0
10
4.451600282955626
20
-4.0326416767225259
30
0
10
4.4912129884076357
20
-4.0238042100523153
30
0
10
4.4912129884076357
20
-3.9677152042977548
30
0
0
SPLINE
5
337
100
AcDbEntity
8
0
100
AcDbSpline
70
4
71
3
72
8
73
4
74
0
42
0.000000001
43
0.0000000001
44
0.0000000001
40
-1
40
-1
40
-1
40
-1
40
0
40
0
40
0
40
0
41
1
41
1
41
1
41
1
10
4.4912129884076357
20
-3.9677152042977548
30
0
10
4.4912129884076357
20
-3.8802408028919899
30
0
10
4.3092891943783567
20
-3.8300138457067545
30
0
10
3.9780762233110645
20
-3.8260349208765021
30
0
0
SPLINE
5
338
100
AcDbEntity
8
0
100
AcDbSpline
70
4
71
3
72
8
73
4
74
0
42
0.000000001
43
0.0000000001
44
0.0000000001
40
-1
40
-1
40
-1
40
-1
40
0
40
0
40
0
40
0
41
1
41
1
41
1
41
1
10
3.9780762233110645
20
-3.8260349208765021
30
0
10
3.8402582019007037
20
-3.8243789282901686
30
0
10
3.7274762280081619
20
-3.8072532393736491
30
0
10
3.7274504176498957
20
-3.7879759989920903
30
0
0
SPLINE
5
339
100
AcDbEntity
8
0
100
AcDbSpline
70
4
71
3
72
8
73
4
74
0
42
0.000000001
43
0.0000000001
44
0.0000000001
40
-1
40
-1
40
-1
40
-1
40
0
40
0
40
0
40
0
41
1
41
1
41
1
41
1
10
3.7274504176498957
20
-3.7879759989920903
30
0
10
3.7274246072916295
20
-3.7686966937818767
30
0
10
3.7894148933600813
20
-3.6835225115047576
30
0
10
3.8652064942004194
20
-3.5986972852713928
30
0
0
SPLINE
5
340
100
AcDbEntity
8
0
100
AcDbSpline
70
4
71
3
72
8
73
4
74
0
42
0.000000001
43
0.0000000001
44
0.0000000001
40
-1
40
-1
40
-1
40
-1
40
0
40
0
40
0
40
0
41
1
41
1
41
1
41
1
10
3.8652064942004194
20
-3.5986972852713928
30
0
10
3.995304121246317
20
-3.4530938273937339
30
0
10
4.0213261244498888
20
-3.4445413070787811
30
0
10
4.330652944122118
20
-3.4450822921880331
30
0
0
SPLINE
5
341
100
AcDbEntity
8
0
100
AcDbSpline
70
4
71
3
72
8
73
4
74
0
42
0.000000001
43
0.0000000001
44
0.0000000001
40
-1
40
-1
40
-1
40
-1
40
0
40
0
40
0
40
0
41
1
41
1
41
1
41
1
10
4.330652944122118
20
-3.4450822921880331
30
0
10
4.5108567358765654
20
-3.4454167944311598
30
0
10
4.708797405831266
20
-3.463847455061595
30
0
10
4.7705233938310769
20
-3.4860381686841935
30
0
0
SPLINE
5
342
100
AcDbEntity
8
0
100
AcDbSpline
70
4
71
3
72
8
73
4
74
0
42
0.000000001
43
0.0000000001
44
0.0000000001
40
-1
40
-1
40
-1
40
-1
40
0
40
0
40
0
40
0
41
1
41
1
41
1
41
1
10
4.7705233938310769
20
-3.4860381686841935
30
0
10
4.865327936984329
20
-3.5201181657383485
30
0
10
4.8800481005104768
20
-3.5123647341153053
30
0
10
4.8653609742429094
20
-3.436096157854216
30
0
0
SPLINE
5
343
100
AcDbEntity
8
0
100
AcDbSpline
70
4
71
3
72
8
73
4
74
0
42
0.000000001
43
0.0000000001
44
0.0000000001
40
-1
40
-1
40
-1
40
-1
40
0
40
0
40
0
40
0
41
1
41
1
41
1
41
1
10
4.8653609742429094
20
-3.436096157854216
30
0
10
4.8528357235836843
20
-3.3710519901957525
30
0
10
4.7680786366961403
20
-3.3241452774978297
30
0
10
4.5621842467382523
20
-3.2683123104972678
30
0
0
LINE
5
344
100
AcDbEntity
8
0
100
AcDbLine
10
4.5621842467382523
20
-3.2683123104972682
30
0
11
4.2763923441471059
21
-3.1908151611827251
31
0
0
LINE
5
345
100
AcDbEntity
8
0
100
AcDbLine
10
4.2763923441471059
20
-3.1908151611827251
30
0
11
4.4580931366809695
21
-3.1550048377104334
31
0
0
SPLINE
5
346
100
AcDbEntity
8
0
100
AcDbSpline
70
4
71
3
72
8
73
4
74
0
42
0.000000001
43
0.0000000001
44
0.0000000001
40
-1
40
-1
40
-1
40
-1
40
0
40
0
40
0
40
0
41
1
41
1
41
1
41
1
10
4.4580931366809695
20
-3.1550048377104334
30
0
10
5.1524981127068692
20
-3.0181438643845682
30
0
10
5.8600137183174628
20
-3.4527428065213206
30
0
10
6.361645258113473
20
-4.3242780768393763
30
0
0
SPLINE
5
347
100
AcDbEntity
8
0
100
AcDbSpline
70
4
71
3
72
8
73
4
74
0
42
0.000000001
43
0.0000000001
44
0.0000000001
40
-1
40
-1
40
-1
40
-1
40
0
40
0
40
0
40
0
41
1
41
1
41
1
41
1
10
6.361645258113473
20
-4.3242780768393763
30
0
10
6.6988400378124435
20
-4.9101215887563576
30
0
10
6.8064031572636434
20
-5.2889412494377419
30
0
10
6.8021537398787624
20
-5.8757676197974806
30
0
0
SPLINE
5
348
100
AcDbEntity
8
0
100
AcDbSpline
70
4
71
3
72
8
73
4
74
0
42
0.000000001
43
0.0000000001
44
0.0000000001
40
-1
40
-1
40
-1
40
-1
40
-0.40774587253701694
40
-0.40774587253701694
40
-0.40774587253701694
40
-0.40774587253701694
41
1
41
1
41
1
41
1
10
6.8021537398787624
20
-5.8757676197974806
30
0
10
6.7989521790468572
20
-6.3182568343171077
30
0
10
6.7182928895710337
20
-6.7317549882813239
30
0
10
6.554475962381793
20
-7.1329993447833555
30
0
0
ARC
5
349
100
AcDbEntity
8
0
100
AcDbCircle
10
10.762225485084308
20
-11.410246605932814
30
0
40
6.0000000149011514
210
0
220
0
230
1
100
AcDbArc
50
115.72087896380506
51
134.53072014537764
0
SPLINE
5
350
100
AcDbEntity
8
0
100
AcDbSpline
70
4
71
3
72
8
73
4
74
0
42
0.000000001
43
0.0000000001
44
0.0000000001
40
-0.38553324372199443
40
-0.38553324372199443
40
-0.38553324372199443
40
-0.38553324372199443
40
0
40
0
40
0
40
0
41
1
41
1
41
1
41
1
10
8.1583009930737695
20
-6.0047329930814408
30
0
10
7.9805177203100381
20
-6.0375832851558551
30
0
10
7.8165513029463689
20
-6.0860215666325974
30
0
10
7.6943393616381162
20
-6.1465038242050296
30
0
0
LINE
5
351
100
AcDbEntity
8
0
100
AcDbLine
10
7.6943393616381162
20
-6.1465038242050296
30
0
11
7.4620337482740045
21
-6.2614693544068567
31
0
0
LINE
5
352
100
AcDbEntity
8
0
100
AcDbLine
10
7.4620337482740045
20
-6.2614693544068567
30
0
11
7.4387528051182592
21
-5.7105813268964045
31
0
0
SPLINE
5
353
100
AcDbEntity
8
0
100
AcDbSpline
70
4
71
3
72
8
73
4
74
0
42
0.000000001
43
0.0000000001
44
0.0000000001
40
-1
40
-1
40
-1
40
-1
40
0
40
0
40
0
40
0
41
1
41
1
41
1
41
1
10
7.4387528051182583
20
-5.7105813268964045
30
0
10
7.4223869731490844
20
-5.3233123873331323
30
0
10
7.3836342688344914
20
-5.0604390504676777
30
0
10
7.308276282013022
20
-4.8255255585043955
30
0
0
SPLINE
5
354
100
AcDbEntity
8
0
100
AcDbSpline
70
4
71
3
72
8
73
4
74
0
42
0.000000001
43
0.0000000001
44
0.0000000001
40
-1
40
-1
40
-1
40
-1
40
0
40
0
40
0
40
0
41
1
41
1
41
1
41
1
10
7.308276282013022
20
-4.8255255585043955
30
0
10
7.2493192292479662
20
-4.6417330945366686
30
0
10
7.2018550128115022
20
-4.4827825841926083
30
0
10
7.20280276916702
20
-4.4722953194220505
30
0
0
SPLINE
5
355
100
AcDbEntity
8
0
100
AcDbSpline
70
4
71
3
72
8
73
4
74
0
42
0.000000001
43
0.0000000001
44
0.0000000001
40
-1
40
-1
40
-1
40
-1
40
0
40
0
40
0
40
0
41
1
41
1
41
1
41
1
10
7.20280276916702
20
-4.4722953194220505
30
0
10
7.2037463958652186
20
-4.4618101194801563
30
0
10
7.3620155127510634
20
-4.3676415435545746
30
0
10
7.5545070998686903
20
-4.2630311290889811
30
0
0
SPLINE
5
356
100
AcDbEntity
8
0
100
AcDbSpline
70
4
71
3
72
8
73
4
74
0
42
0.000000001
43
0.0000000001
44
0.0000000001
40
-1
40
-1
40
-1
40
-1
40
0
40
0
40
0
40
0
41
1
41
1
41
1
41
1
10
7.5545070998686903
20
-4.2630311290889811
30
0
10
8.1129606595940107
20
-3.9595405476278112
30
0
10
9.1916746432972616
20
-3.1888700925838176
30
0
10
9.4082421326052224
20
-2.9386624147265517
30
0
0
SPLINE
5
357
100
AcDbEntity
8
0
100
AcDbSpline
70
4
71
3
72
8
73
4
74
0
42
0.000000001
43
0.0000000001
44
0.0000000001
40
-1
40
-1
40
-1
40
-1
40
0
40
0
40
0
40
0
41
1
41
1
41
1
41
1
10
9.4082421326052224
20
-2.9386624147265517
30
0
10
9.4213703132335347
20
-2.9234941833809103
30
0
10
9.5300071435885911
20
-2.8417083849369251
30
0
10
9.6496598348514873
20
-2.756914131133481
30
0
0
LINE
5
358
100
AcDbEntity
8
0
100
AcDbLine
10
9.6496598348514873
20
-2.7569141311334815
30
0
11
9.8672081177735471
21
-2.6027416343115806
31
0
0
LINE
5
359
100
AcDbEntity
8
0
100
AcDbLine
10
9.8672081177735471
20
-2.6027416343115806
30
0
11
10.246384993813326
21
-2.7732675741306867
31
0
0
SPLINE
5
360
100
AcDbEntity
8
0
100
AcDbSpline
70
4
71
3
72
8
73
4
74
0
42
0.000000001
43
0.0000000001
44
0.0000000001
40
-1
40
-1
40
-1
40
-1
40
0
40
0
40
0
40
0
41
1
41
1
41
1
41
1
10
10.246384993813326
20
-2.7732675741306867
30
0
10
11.30459729373889
20
-3.2491713488073559
30
0
10
12.594109635470531
20
-3.9952269813804309
30
0
10
13.131813731978813
20
-4.4426526391609533
30
0
0
SPLINE
5
361
100
AcDbEntity
8
0
100
AcDbSpline
70
4
71
3
72
8
73
4
74
0
42
0.000000001
43
0.0000000001
44
0.0000000001
40
-1
40
-1
40
-1
40
-1
40
0
40
0
40
0
40
0
41
1
41
1
41
1
41
1
10
13.131813731978813
20
-4.4426526391609533
30
0
10
13.276219589232937
20
-4.5628153431031793
30
0
10
13.544748491801592
20
-4.782424325029182
30
0
10
13.728538890940651
20
-4.9306728284219137
30
0
0
SPLINE
5
362
100
AcDbEntity
8
0
100
AcDbSpline
70
4
71
3
72
8
73
4
74
0
42
0.000000001
43
0.0000000001
44
0.0000000001
40
-1
40
-1
40
-1
40
-1
40
0
40
0
40
0
40
0
41
1
41
1
41
1
41
1
10
13.728538890940651
20
-4.9306728284219137
30
0
10
13.912331354908378
20
-5.0789213318146498
30
0
10
14.16382748585027
20
-5.2931390461060879
30
0
10
14.287417805370195
20
-5.4067108169615663
30
0
0
SPLINE
5
363
100
AcDbEntity
8
0
100
AcDbSpline
70
4
71
3
72
8
73
4
74
0
42
0.000000001
43
0.0000000001
44
0.0000000001
40
-1
40
-1
40
-1
40
-1
40
0
40
0
40
0
40
0
41
1
41
1
41
1
41
1
10
14.287417805370195
20
-5.4067108169615663
30
0
10
14.494146386107234
20
-5.5966791834551266
30
0
10
14.659433855612711
20
-5.6707177447620527
30
0
10
14.659433855612711
20
-5.5733507492401735
30
0
0
SPLINE
5
364
100
AcDbEntity
8
0
100
AcDbSpline
70
4
71
3
72
8
73
4
74
0
42
0.000000001
43
0.0000000001
44
0.0000000001
40
-1
40
-1
40
-1
40
-1
40
0
40
0
40
0
40
0
41
1
41
1
41
1
41
1
10
14.659433855612711
20
-5.5733507492401735
30
0
10
14.659433855612711
20
-5.4921141952200836
30
0
10
14.455352385219413
20
-4.9153352811260476
30
0
10
14.361555478452859
20
-4.7314746778125016
30
0
0
SPLINE
5
365
100
AcDbEntity
8
0
100
AcDbSpline
70
4
71
3
72
8
73
4
74
0
42
0.000000001
43
0.0000000001
44
0.0000000001
40
-1
40
-1
40
-1
40
-1
40
0
40
0
40
0
40
0
41
1
41
1
41
1
41
1
10
14.361555478452859
20
-4.7314746778125016
30
0
10
14.184147464705763
20
-4.3837265588258134
30
0
10
13.885067357265054
20
-4.0199656935710282
30
0
10
13.278687059483145
20
-3.41441752173961
30
0
0
SPLINE
5
366
100
AcDbEntity
8
0
100
AcDbSpline
70
4
71
3
72
8
73
4
74
0
42
0.000000001
43
0.0000000001
44
0.0000000001
40
-1
40
-1
40
-1
40
-1
40
0
40
0
40
0
40
0
41
1
41
1
41
1
41
1
10
13.278687059483145
20
-3.41441752173961
30
0
10
12.779696435544889
20
-2.9161124209168943
30
0
10
12.192737916150826
20
-2.4380942616910928
30
0
10
11.787422374088115
20
-2.1999307294149784
30
0
0
SPLINE
5
367
100
AcDbEntity
8
0
100
AcDbSpline
70
4
71
3
72
8
73
4
74
0
42
0.000000001
43
0.0000000001
44
0.0000000001
40
-1
40
-1
40
-1
40
-1
40
0
40
0
40
0
40
0
41
1
41
1
41
1
41
1
10
11.787422374088115
20
-2.1999307294149784
30
0
10
11.500875776621275
20
-2.0315563410609094
30
0
10
10.980400610462574
20
-1.7470642481120269
30
0
10
10.832127329125903
20
-1.6777644685827031
30
0
0
LINE
5
368
100
AcDbEntity
8
0
100
AcDbLine
10
10.8321273291259
20
-1.6777644685827031
30
0
11
10.656786208868729
21
-1.5958134838458171
31
0
0
LINE
5
369
100
AcDbEntity
8
0
100
AcDbLine
10
10.656786208868729
20
-1.5958134838458171
30
0
11
11.011461828013957
21
-1.0721894539786891
31
0
0
SPLINE
5
370
100
AcDbEntity
8
0
100
AcDbSpline
70
4
71
3
72
8
73
4
74
0
42
0.000000001
43
0.0000000001
44
0.0000000001
40
-1
40
-1
40
-1
40
-1
40
0
40
0
40
0
40
0
41
1
41
1
41
1
41
1
10
11.011461828013957
20
-1.0721894539786891
30
0
10
11.417570264282597
20
-0.47263135009359525
30
0
10
11.713736898482265
20
0.099616297503295481
30
0
10
11.964677590514277
20
0.76960880426707678
30
0
0
SPLINE
5
371
100
AcDbEntity
8
0
100
AcDbSpline
70
4
71
3
72
8
73
4
74
0
42
0.000000001
43
0.0000000001
44
0.0000000001
40
-1
40
-1
40
-1
40
-1
40
0
40
0
40
0
40
0
41
1
41
1
41
1
41
1
10
11.964677590514277
20
0.76960880426707678
30
0
10
12.142349902330016
20
1.2439784112484276
30
0
10
12.366761675722113
20
2.1344760355771975
30
0
10
12.36757315338599
20
2.3681774731163197
30
0
0
SPLINE
5
372
100
AcDbEntity
8
0
100
AcDbSpline
70
4
71
3
72
8
73
4
74
0
42
0.000000001
43
0.0000000001
44
0.0000000001
40
-1
40
-1
40
-1
40
-1
40
0
40
0
40
0
40
0
41
1
41
1
41
1
41
1
10
12.36757315338599
20
2.3681774731163197
30
0
10
12.367810608682035
20
2.4388328126617642
30
0
10
12.385433921305919
20
2.507407837330986
30
0
10
12.406732628946852
20
2.5205742172895329
30
0
0
SPLINE
5
373
100
AcDbEntity
8
0
100
AcDbSpline
70
4
71
3
72
8
73
4
74
0
42
0.000000001
43
0.0000000001
44
0.0000000001
40
-1
40
-1
40
-1
40
-1
40
0
40
0
40
0
40
0
41
1
41
1
41
1
41
1
10
12.406732628946852
20
2.5205742172895329
30
0
10
12.478629962932049
20
2.5650093300799215
30
0
10
13.628355469124811
20
2.6996165429220187
30
0
10
14.298875539611547
20
2.7421034898705066
30
0
0
SPLINE
5
374
100
AcDbEntity
8
0
100
AcDbSpline
70
4
71
3
72
8
73
4
74
0
42
0.000000001
43
0.0000000001
44
0.0000000001
40
-1
40
-1
40
-1
40
-1
40
0
40
0
40
0
40
0
41
1
41
1
41
1
41
1
10
14.298875539611547
20
2.7421034898705066
30
0
10
15.087604986126951
20
2.7920806027877276
30
0
10
16.217033226579495
20
2.7341332512380312
30
0
10
17.1419236695046
20
2.5962377987528718
30
0
0
SPLINE
5
375
100
AcDbEntity
8
0
100
AcDbSpline
70
4
71
3
72
8
73
4
74
0
42
0.000000001
43
0.0000000001
44
0.0000000001
40
-1
40
-1
40
-1
40
-1
40
0
40
0
40
0
40
0
41
1
41
1
41
1
41
1
10
17.1419236695046
20
2.5962377987528718
30
0
10
17.496320536780559
20
2.5433978008968072
30
0
10
17.877580824939553
20
2.4869804873851065
30
0
10
17.989168295451556
20
2.470863467269615
30
0
0
SPLINE
5
376
100
AcDbEntity
8
0
100
AcDbSpline
70
4
71
3
72
8
73
4
74
0
42
0.000000001
43
0.0000000001
44
0.0000000001
40
-1
40
-1
40
-1
40
-1
40
0
40
0
40
0
40
0
41
1
41
1
41
1
41
1
10
17.989168295451556
20
2.470863467269615
30
0
10
18.147984591932634
20
2.4479252856716371
30
0
10
18.192054230049983
20
2.4565831122483162
30
0
10
18.192054230049983
20
2.5107249845753055
30
0
0
SPLINE
5
377
100
AcDbEntity
8
0
100
AcDbSpline
70
4
71
3
72
8
73
4
74
0
42
0.000000001
43
0.0000000001
44
0.0000000001
40
-1
40
-1
40
-1
40
-1
40
0
40
0
40
0
40
0
41
1
41
1
41
1
41
1
10
18.192054230049983
20
2.5107249845753055
30
0
10
18.192054230049983
20
2.8326668749535244
30
0
10
16.547936473347598
20
3.5276531002475697
30
0
10
15.256161079403213
20
3.7517592789978016
30
0
0
SPLINE
5
378
100
AcDbEntity
8
0
100
AcDbSpline
70
4
71
3
72
8
73
4
74
0
42
0.000000001
43
0.0000000001
44
0.0000000001
40
-1
40
-1
40
-1
40
-1
40
0
40
0
40
0
40
0
41
1
41
1
41
1
41
1
10
15.256161079403213
20
3.7517592789978016
30
0
10
14.625795731892071
20
3.8611187993842977
30
0
10
13.499570040693145
20
3.8934715672633047
30
0
10
12.809582765588017
20
3.8220408845555576
30
0
0
LINE
5
379
100
AcDbEntity
8
0
100
AcDbLine
10
12.809582765588017
20
3.822040884555558
30
0
11
12.415743541224607
21
3.7812687778102476
31
0
0
LINE
5
380
100
AcDbEntity
8
0
100
AcDbLine
10
12.415743541224607
20
3.7812687778102476
30
0
11
12.415743541224609
21
3.99271032996662
31
0
0
SPLINE
5
381
100
AcDbEntity
8
0
100
AcDbSpline
70
4
71
3
72
8
73
4
74
0
42
0.000000001
43
0.0000000001
44
0.0000000001
40
-1
40
-1
40
-1
40
-1
40
0
40
0
40
0
40
0
41
1
41
1
41
1
41
1
10
12.415743541224607
20
3.99271032996662
30
0
10
12.415743541224607
20
4.1090025125833112
30
0
10
12.373738731768524
20
4.4388413401765288
30
0
10
12.322398831934866
20
4.7256842405562605
30
0
0
SPLINE
5
382
100
AcDbEntity
8
0
100
AcDbSpline
70
4
71
3
72
8
73
4
74
0
42
0.000000001
43
0.0000000001
44
0.0000000001
40
-1
40
-1
40
-1
40
-1
40
0
40
0
40
0
40
0
41
1
41
1
41
1
41
1
10
12.322398831934866
20
4.7256842405562605
30
0
10
12.269815905247135
20
5.0194690948951592
30
0
10
12.21766246292094
20
5.5838259997630324
30
0
10
12.20296914216739
20
6.0180377865257988
30
0
0
SPLINE
5
383
100
AcDbEntity
8
0
100
AcDbSpline
70
4
71
3
72
8
73
4
74
0
42
0.000000001
43
0.0000000001
44
0.0000000001
40
-1
40
-1
40
-1
40
-1
40
0
40
0
40
0
40
0
41
1
41
1
41
1
41
1
10
12.20296914216739
20
6.0180377865257988
30
0
10
12.151994717006778
20
7.5244376660078931
30
0
10
11.835053841646141
20
9.4213369094938049
30
0
10
11.398536673683072
20
10.832576579085744
30
0
0
SPLINE
5
384
100
AcDbEntity
8
0
100
AcDbSpline
70
4
71
3
72
8
73
4
74
0
42
0.000000001
43
0.0000000001
44
0.0000000001
40
-1
40
-1
40
-1
40
-1
40
0
40
0
40
0
40
0
41
1
41
1
41
1
41
1
10
11.398536673683072
20
10.832576579085744
30
0
10
10.711006544684851
20
13.055327466019977
30
0
10
9.1042601219226746
20
15.553751562690836
30
0
10
7.879771299562881
20
16.304111201556523
30
0
0
SPLINE
5
385
100
AcDbEntity
8
0
100
AcDbSpline
70
4
71
3
72
8
73
4
74
0
42
0.000000001
43
0.0000000001
44
0.0000000001
40
-1
40
-1
40
-1
40
-1
40
0
40
0
40
0
40
0
41
1
41
1
41
1
41
1
10
7.879771299562881
20
16.304111201556523
30
0
10
7.2924741482683704
20
16.664001480959879
30
0
10
6.9424423287823256
20
16.594904699898311
30
0
10
5.9710994354647751
20
15.927336624612332
30
0
0
SPLINE
5
386
100
AcDbEntity
8
0
100
AcDbSpline
70
4
71
3
72
8
73
4
74
0
42
0.000000001
43
0.0000000001
44
0.0000000001
40
-1
40
-1
40
-1
40
-1
40
0
40
0
40
0
40
0
41
1
41
1
41
1
41
1
10
5.9710994354647751
20
15.927336624612332
30
0
10
5.1084202152748777
20
15.334449724028199
30
0
10
4.2519695507416806
20
14.520097044344425
30
0
10
3.5625614600760391
20
13.637191020692372
30
0
0
SPLINE
5
387
100
AcDbEntity
8
0
100
AcDbSpline
70
4
71
3
72
8
73
4
74
0
42
0.000000001
43
0.0000000001
44
0.0000000001
40
-1
40
-1
40
-1
40
-1
40
0
40
0
40
0
40
0
41
1
41
1
41
1
41
1
10
3.5625614600760391
20
13.637191020692372
30
0
10
3.4139237364806574
20
13.446835498824823
30
0
10
3.2805182539194155
20
13.291089602563043
30
0
10
3.2661026526208037
20
13.291089602563043
30
0
0
SPLINE
5
388
100
AcDbEntity
8
0
100
AcDbSpline
70
4
71
3
72
8
73
4
74
0
42
0.000000001
43
0.0000000001
44
0.0000000001
40
-1
40
-1
40
-1
40
-1
40
0
40
0
40
0
40
0
41
1
41
1
41
1
41
1
10
3.2661026526208037
20
13.291089602563043
30
0
10
3.2306464472639185
20
13.291089602563043
30
0
10
3.2902652776149099
20
14.061802902801759
30
0
10
3.3724723011057933
20
14.666194770582869
30
0
0
SPLINE
5
389
100
AcDbEntity
8
0
100
AcDbSpline
70
4
71
3
72
8
73
4
74
0
42
0.000000001
43
0.0000000001
44
0.0000000001
40
-1
40
-1
40
-1
40
-1
40
0
40
0
40
0
40
0
41
1
41
1
41
1
41
1
10
3.3724723011057933
20
14.666194770582869
30
0
10
3.5139099671593477
20
15.706043000602323
30
0
10
3.8636537430471485
20
16.974447050611136
30
0
10
4.2239746037522714
20
17.754316898074123
30
0
0
SPLINE
5
390
100
AcDbEntity
8
0
100
AcDbSpline
70
4
71
3
72
8
73
4
74
0
42
0.000000001
43
0.0000000001
44
0.0000000001
40
-1
40
-1
40
-1
40
-1
40
-0.41851266982355828
40
-0.41851266982355828
40
-0.41851266982355828
40
-0.41851266982355828
41
1
41
1
41
1
41
1
10
4.2239746037522714
20
17.754316898074123
30
0
10
4.3349088649753007
20
17.994417545326368
30
0
10
4.3845977851231366
20
18.108728457192829
30
0
10
4.388402434764382
20
18.162355273216985
30
0
0
SPLINE
5
391
100
AcDbEntity
8
0
100
AcDbSpline
70
4
71
3
72
8
73
4
74
0
42
0.000000001
43
0.0000000001
44
0.0000000001
40
-1
40
-1
40
-1
40
-1
40
0
40
0
40
0
40
0
41
1
41
1
41
1
41
1
10
-10.167119501581755
20
4.483403439929587
30
0
10
-9.3867513206265532
20
6.109007942855083
30
0
10
-8.0001115034977399
20
7.6279599157689981
30
0
10
-6.1305123921567226
20
8.9051762028228136
30
0
0
ARC
5
392
100
AcDbEntity
8
0
100
AcDbCircle
10
-10.762225485084183
20
-11.410246605932581
30
0
40
6.0000000149008788
210
0
220
-0
230
1
100
AcDbArc
50
64.330682753260845
51
68.899165844227625
0
SPLINE
5
393
100
AcDbEntity
8
0
100
AcDbSpline
70
4
71
3
72
8
73
4
74
0
42
0.000000001
43
0.0000000001
44
0.0000000001
40
-0.045354699873882541
40
-0.045354699873882541
40
-0.045354699873882541
40
-0.045354699873882541
40
0
40
0
40
0
40
0
41
1
41
1
41
1
41
1
10
-8.1631665859893427
20
-6.0023918540141796
30
0
10
-8.1147925657379805
20
-5.9570210275676594
30
0
10
-8.0658027575709283
20
-5.9115911873227827
30
0
10
-8.0161650301318979
20
-5.8660629250895457
30
0
0
SPLINE
5
394
100
AcDbEntity
8
0
100
AcDbSpline
70
4
71
3
72
8
73
4
74
0
42
0.000000001
43
0.0000000001
44
0.0000000001
40
-1
40
-1
40
-1
40
-1
40
0
40
0
40
0
40
0
41
1
41
1
41
1
41
1
10
-8.0161650301318979
20
-5.8660629250895457
30
0
10
-7.2700799737504003
20
-5.1817456694882491
30
0
10
-7.3349976706533591
20
-5.1986628107099797
30
0
10
-6.6453144415686038
20
-5.5088269184043481
30
0
0
SPLINE
5
395
100
AcDbEntity
8
0
100
AcDbSpline
70
4
71
3
72
8
73
4
74
0
42
0.000000001
43
0.0000000001
44
0.0000000001
40
-1
40
-1
40
-1
40
-1
40
0
40
0
40
0
40
0
41
1
41
1
41
1
41
1
10
-6.6453144415686038
20
-5.5088269184043481
30
0
10
-5.7162447854331013
20
-5.9266470628396739
30
0
10
-4.581588398810239
20
-6.2235363870707827
30
0
10
-3.4162290424087196
20
-6.3537382879640747
30
0
0
SPLINE
5
396
100
AcDbEntity
8
0
100
AcDbSpline
70
4
71
3
72
8
73
4
74
0
42
0.000000001
43
0.0000000001
44
0.0000000001
40
-1
40
-1
40
-1
40
-1
40
-0.83133802015491676
40
-0.83133802015491676
40
-0.83133802015491676
40
-0.83133802015491676
41
1
41
1
41
1
41
1
10
-3.4162290424087196
20
-6.3537382879640747
30
0
10
-3.3580302399481754
20
-6.3602402665053006
30
0
10
-3.3004470400377324
20
-6.3665482925041434
30
0
10
-3.2446863595792816
20
-6.372544127701901
30
0
0
ARC
5
397
100
AcDbEntity
8
0
100
AcDbCircle
10
2.55351295663786e-14
20
-13.684999985098919
30
0
40
8.00000001490125
210
0
220
0
230
1
100
AcDbArc
50
98.386665051177829
51
113.92784122650365
0
SPLINE
5
398
100
AcDbEntity
8
0
100
AcDbSpline
70
4
71
3
72
8
73
4
74
0
42
0.000000001
43
0.0000000001
44
0.0000000001
40
-0.33047383936213032
40
-0.33047383936213032
40
-0.33047383936213032
40
-0.33047383936213032
40
0
40
0
40
0
40
0
41
1
41
1
41
1
41
1
10
-1.1668222628889291
20
-5.7705495275341834
30
0
10
-1.1679654182868129
20
-5.7353007825009463
30
0
10
-1.1777359207433604
20
-5.7070115343042431
30
0
10
-1.1943629345558371
20
-5.675943826103711
30
0
0
SPLINE
5
399
100
AcDbEntity
8
0
100
AcDbSpline
70
4
71
3
72
8
73
4
74
0
42
0.000000001
43
0.0000000001
44
0.0000000001
40
-1
40
-1
40
-1
40
-1
40
0
40
0
40
0
40
0
41
1
41
1
41
1
41
1
10
-1.1943629345558371
20
-5.675943826103711
30
0
10
-1.3249571528947701
20
-5.431928569401574
30
0
10
-1.4579579290384026
20
-5.4030168384865629
30
0
10
-3.0275353710691757
20
-5.2774442834518265
30
0
0
SPLINE
5
400
100
AcDbEntity
8
0
100
AcDbSpline
70
4
71
3
72
8
73
4
74
0
42
0.000000001
43
0.0000000001
44
0.0000000001
40
-1
40
-1
40
-1
40
-1
40
0
40
0
40
0
40
0
41
1
41
1
41
1
41
1
10
-3.0275353710691757
20
-5.2774442834518265
30
0
10
-3.7727671370064062
20
-5.2178223558578418
30
0
10
-4.473836347536535
20
-5.0954007293601933
30
0
10
-5.0860983097600512
20
-4.9179741321551429
30
0
0
SPLINE
5
401
100
AcDbEntity
8
0
100
AcDbSpline
70
4
71
3
72
8
73
4
74
0
42
0.000000001
43
0.0000000001
44
0.0000000001
40
-1
40
-1
40
-1
40
-1
40
0
40
0
40
0
40
0
41
1
41
1
41
1
41
1
10
-5.0860983097600512
20
-4.9179741321551429
30
0
10
-5.5881526232244561
20
-4.7724842398538581
30
0
10
-6.2498569077419255
20
-4.5202199926499764
30
0
10
-6.2498569077419255
20
-4.4743105921954429
30
0
0
SPLINE
5
402
100
AcDbEntity
8
0
100
AcDbSpline
70
4
71
3
72
8
73
4
74
0
42
0.000000001
43
0.0000000001
44
0.0000000001
40
-1
40
-1
40
-1
40
-1
40
0
40
0
40
0
40
0
41
1
41
1
41
1
41
1
10
-6.2498569077419255
20
-4.4743105921954429
30
0
10
-6.2498569077419255
20
-4.4556238928110092
30
0
10
-6.185410507980901
20
-4.4022666553752998
30
0
10
-6.1066429728325176
20
-4.3557378063223906
30
0
0
SPLINE
5
403
100
AcDbEntity
8
0
100
AcDbSpline
70
4
71
3
72
8
73
4
74
0
42
0.000000001
43
0.0000000001
44
0.0000000001
40
-1
40
-1
40
-1
40
-1
40
0
40
0
40
0
40
0
41
1
41
1
41
1
41
1
10
-6.1066429728325176
20
-4.3557378063223906
30
0
10
-5.9776077001328396
20
-4.2795146562918474
30
0
10
-5.9077225416780461
20
-4.1333227222457314
30
0
10
-6.0003213316139039
20
-4.1333227222457314
30
0
0
SPLINE
5
404
100
AcDbEntity
8
0
100
AcDbSpline
70
4
71
3
72
8
73
4
74
0
42
0.000000001
43
0.0000000001
44
0.0000000001
40
-1
40
-1
40
-1
40
-1
40
0
40
0
40
0
40
0
41
1
41
1
41
1
41
1
10
-6.0003213316139039
20
-4.1333227222457314
30
0
10
-6.0977301399161732
20
-4.1333227222457314
30
0
10
-6.7843945894981612
20
-4.4279944204946409
30
0
10
-7.0499057449783802
20
-4.5837341222704397
30
0
0
SPLINE
5
405
100
AcDbEntity
8
0
100
AcDbSpline
70
4
71
3
72
8
73
4
74
0
42
0.000000001
43
0.0000000001
44
0.0000000001
40
-1
40
-1
40
-1
40
-1
40
-0.43064747170303685
40
-0.43064747170303685
40
-0.43064747170303685
40
-0.43064747170303685
41
1
41
1
41
1
41
1
10
-7.0499057449783802
20
-4.5837341222704397
30
0
10
-7.4813601305207111
20
-4.8368135559351257
30
0
10
-8.059779908434697
20
-5.301720234970051
30
0
10
-8.6021631353223711
20
-5.8125568303240733
30
0
0
LINE
5
406
100
AcDbEntity
8
0
100
AcDbLine
10
-6.6217934620809862
20
-1.292901054409803
30
0
11
-6.4326918074179886
21
-1.5077340876423007
31
0
0
LINE
5
407
100
AcDbEntity
8
0
100
AcDbLine
10
-6.4326918074179886
20
-1.5077340876423007
30
0
11
-6.6157672596330883
21
-1.5011989049294019
31
0
0
SPLINE
5
408
100
AcDbEntity
8
0
100
AcDbSpline
70
4
71
3
72
8
73
4
74
0
42
0.000000001
43
0.0000000001
44
0.0000000001
40
-1
40
-1
40
-1
40
-1
40
0
40
0
40
0
40
0
41
1
41
1
41
1
41
1
10
-6.6157672596330883
20
-1.5011989049294017
30
0
10
-7.1966365993050854
20
-1.4804742196563003
30
0
10
-7.8684317014901506
20
-1.3333964741145032
30
0
10
-8.1725133401556054
20
-1.1603720916152671
30
0
0
SPLINE
5
409
100
AcDbEntity
8
0
100
AcDbSpline
70
4
71
3
72
8
73
4
74
0
42
0.000000001
43
0.0000000001
44
0.0000000001
40
-1
40
-1
40
-1
40
-1
40
0
40
0
40
0
40
0
41
1
41
1
41
1
41
1
10
-8.1725133401556054
20
-1.1603720916152671
30
0
10
-8.3286272921262565
20
-1.0715452274363746
30
0
10
-8.3858906691819097
20
-0.99193782323002244
30
0
10
-8.5233927718070994
20
-0.67258522799302778
30
0
0
SPLINE
5
410
100
AcDbEntity
8
0
100
AcDbSpline
70
4
71
3
72
8
73
4
74
0
42
0.000000001
43
0.0000000001
44
0.0000000001
40
-1
40
-1
40
-1
40
-1
40
0
40
0
40
0
40
0
41
1
41
1
41
1
41
1
10
-8.5233927718070994
20
-0.67258522799302778
30
0
10
-9.0259681964048895
20
0.49465209007591104
30
0
10
-9.1300866654419366
20
1.4284233610731101
30
0
10
-8.8720775486952537
20
2.454530672559021
30
0
0
SPLINE
5
411
100
AcDbEntity
8
0
100
AcDbSpline
70
4
71
3
72
8
73
4
74
0
42
0.000000001
43
0.0000000001
44
0.0000000001
40
-1
40
-1
40
-1
40
-1
40
0
40
0
40
0
40
0
41
1
41
1
41
1
41
1
10
-8.8720775486952537
20
2.454530672559021
30
0
10
-8.5346125345452393
20
3.7966455568506774
30
0
10
-7.4190279378521371
20
5.1806072912058294
30
0
10
-6.3845843968535405
20
5.5404501440758702
30
0
0
SPLINE
5
412
100
AcDbEntity
8
0
100
AcDbSpline
70
4
71
3
72
8
73
4
74
0
42
0.000000001
43
0.0000000001
44
0.0000000001
40
-1
40
-1
40
-1
40
-1
40
0
40
0
40
0
40
0
41
1
41
1
41
1
41
1
10
-6.3845843968535405
20
5.5404501440758702
30
0
10
-6.0233395253225037
20
5.6661125191573731
30
0
10
-5.4057983124193019
20
5.6556603564740566
30
0
10
-5.0564019439537597
20
5.5179693220263637
30
0
0
SPLINE
5
413
100
AcDbEntity
8
0
100
AcDbSpline
70
4
71
3
72
8
73
4
74
0
42
0.000000001
43
0.0000000001
44
0.0000000001
40
-1
40
-1
40
-1
40
-1
40
0
40
0
40
0
40
0
41
1
41
1
41
1
41
1
10
-5.0564019439537597
20
5.5179693220263637
30
0
10
-4.6788438935844106
20
5.3691798335243774
30
0
10
-4.2045057752401451
20
4.9926294195417249
30
0
10
-3.8898718297013035
20
4.5919256722939439
30
0
0
SPLINE
5
414
100
AcDbEntity
8
0
100
AcDbSpline
70
4
71
3
72
8
73
4
74
0
42
0.000000001
43
0.0000000001
44
0.0000000001
40
-1
40
-1
40
-1
40
-1
40
0
40
0
40
0
40
0
41
1
41
1
41
1
41
1
10
-3.8898718297013035
20
4.5919256722939439
30
0
10
-3.1303958432443468
20
3.6246928204266382
30
0
10
-2.7766493969966879
20
2.4596855173118648
30
0
10
-2.6870451248268279
20
0.63060866844814267
30
0
0
LINE
5
415
100
AcDbEntity
8
0
100
AcDbLine
10
-2.6870451248268279
20
0.6306086684481429
30
0
11
-2.6549886598607126
21
-0.023731404648932308
31
0
0
LINE
5
416
100
AcDbEntity
8
0
100
AcDbLine
10
-2.6549886598607126
20
-0.023731404648932308
30
0
11
-2.8173905313120775
21
-0.17599806461648493
31
0
0
SPLINE
5
417
100
AcDbEntity
8
0
100
AcDbSpline
70
4
71
3
72
8
73
4
74
0
42
0.000000001
43
0.0000000001
44
0.0000000001
40
-1
40
-1
40
-1
40
-1
40
0
40
0
40
0
40
0
41
1
41
1
41
1
41
1
10
-2.8173905313120775
20
-0.17599806461648493
30
0
10
-3.1634857549554241
20
-0.50049621287734603
30
0
10
-3.9480989655346033
20
-1.0303498308155068
30
0
10
-4.0825208600043519
20
-1.0303498308155068
30
0
0
SPLINE
5
418
100
AcDbEntity
8
0
100
AcDbSpline
70
4
71
3
72
8
73
4
74
0
42
0.000000001
43
0.0000000001
44
0.0000000001
40
-1
40
-1
40
-1
40
-1
40
0
40
0
40
0
40
0
41
1
41
1
41
1
41
1
10
-4.0825208600043519
20
-1.0303498308155068
30
0
10
-4.1248261020306485
20
-1.0303498308155068
30
0
10
-4.1164418652515877
20
-0.95047606371185145
30
0
10
-4.0516800629125544
20
-0.73658459234889007
30
0
0
SPLINE
5
419
100
AcDbEntity
8
0
100
AcDbSpline
70
4
71
3
72
8
73
4
74
0
42
0.000000001
43
0.0000000001
44
0.0000000001
40
-1
40
-1
40
-1
40
-1
40
0
40
0
40
0
40
0
41
1
41
1
41
1
41
1
10
-4.0516800629125544
20
-0.73658459234889007
30
0
10
-3.7205517498203755
20
0.35705397291797336
30
0
10
-3.7857559417000841
20
2.0100732059790638
30
0
10
-4.2016640547950814
20
3.0657209887073411
30
0
0
SPLINE
5
420
100
AcDbEntity
8
0
100
AcDbSpline
70
4
71
3
72
8
73
4
74
0
42
0.000000001
43
0.0000000001
44
0.0000000001
40
-1
40
-1
40
-1
40
-1
40
0
40
0
40
0
40
0
41
1
41
1
41
1
41
1
10
-4.2016640547950814
20
3.0657209887073411
30
0
10
-4.5092522887345252
20
3.8464368351883849
30
0
10
-5.0709708587804689
20
4.5779994353880511
30
0
10
-5.5437376425135128
20
4.8135881263235696
30
0
0
SPLINE
5
421
100
AcDbEntity
8
0
100
AcDbSpline
70
4
71
3
72
8
73
4
74
0
42
0.000000001
43
0.0000000001
44
0.0000000001
40
-1
40
-1
40
-1
40
-1
40
0
40
0
40
0
40
0
41
1
41
1
41
1
41
1
10
-5.5437376425135128
20
4.8135881263235696
30
0
10
-5.8549914635338656
20
4.968691860871699
30
0
10
-6.2615366110643622
20
4.9816042669049088
30
0
10
-6.5295064612729803
20
4.8448950584856458
30
0
0
SPLINE
5
422
100
AcDbEntity
8
0
100
AcDbSpline
70
4
71
3
72
8
73
4
74
0
42
0.000000001
43
0.0000000001
44
0.0000000001
40
-1
40
-1
40
-1
40
-1
40
0
40
0
40
0
40
0
41
1
41
1
41
1
41
1
10
-6.5295064612729803
20
4.8448950584856458
30
0
10
-6.9152784000568355
20
4.6480879794659806
30
0
10
-7.2688493358682873
20
4.0998708078288715
30
0
10
-7.4497783986900039
20
3.417998309362511
30
0
0
SPLINE
5
423
100
AcDbEntity
8
0
100
AcDbSpline
70
4
71
3
72
8
73
4
74
0
42
0.000000001
43
0.0000000001
44
0.0000000001
40
-1
40
-1
40
-1
40
-1
40
0
40
0
40
0
40
0
41
1
41
1
41
1
41
1
10
-7.4497783986900039
20
3.417998309362511
30
0
10
-7.5931182881477497
20
2.8777844136164621
30
0
10
-7.627508525708258
20
1.5863899805600812
30
0
10
-7.5162694950328461
20
0.92113212591657501
30
0
0
SPLINE
5
424
100
AcDbEntity
8
0
100
AcDbSpline
70
4
71
3
72
8
73
4
74
0
42
0.000000001
43
0.0000000001
44
0.0000000001
40
-1
40
-1
40
-1
40
-1
40
0
40
0
40
0
40
0
41
1
41
1
41
1
41
1
10
-7.5162694950328461
20
0.92113212591657501
30
0
10
-7.3647740485702737
20
0.01512867075604829
30
0
10
-7.0183221257756934
20
-0.84241945021060971
30
0
10
-6.6217934620809862
20
-1.292901054409803
30
0
0
SPLINE
5
425
100
AcDbEntity
8
0
100
AcDbSpline
70
4
71
3
72
8
73
4
74
0
42
0.000000001
43
0.0000000001
44
0.0000000001
40
-1
40
-1
40
-1
40
-1
40
0
40
0
40
0
40
0
41
1
41
1
41
1
41
1
10
-5.0325320084223879
20
-1.7281586768894996
30
0
10
-4.1309188952028721
20
-1.5205587384574071
30
0
10
-3.4762432874483418
20
-1.2209810073093341
30
0
10
-2.9320556289436905
20
-0.76698506472867134
30
0
0
SPLINE
5
426
100
AcDbEntity
8
0
100
AcDbSpline
70
4
71
3
72
8
73
4
74
0
42
0.000000001
43
0.0000000001
44
0.0000000001
40
-1
40
-1
40
-1
40
-1
40
0
40
0
40
0
40
0
41
1
41
1
41
1
41
1
10
-2.9320556289436905
20
-0.76698506472867134
30
0
10
-2.7220088685480026
20
-0.59174925073322449
30
0
10
-2.5071871918731414
20
-0.42626046043327204
30
0
10
-2.4546744693598899
20
-0.39922875601434038
30
0
0
SPLINE
5
427
100
AcDbEntity
8
0
100
AcDbSpline
70
4
71
3
72
8
73
4
74
0
42
0.000000001
43
0.0000000001
44
0.0000000001
40
-1
40
-1
40
-1
40
-1
40
0
40
0
40
0
40
0
41
1
41
1
41
1
41
1
10
-2.4546744693598899
20
-0.39922875601434038
30
0
10
-2.1275839287148113
20
-0.23085952973192381
30
0
10
-2.0817684779643653
20
-0.05493819262093691
30
0
10
-2.2410276801932882
20
0.42114109249193898
30
0
0
SPLINE
5
428
100
AcDbEntity
8
0
100
AcDbSpline
70
4
71
3
72
8
73
4
74
0
42
0.000000001
43
0.0000000001
44
0.0000000001
40
-1
40
-1
40
-1
40
-1
40
0
40
0
40
0
40
0
41
1
41
1
41
1
41
1
10
-2.2410276801932882
20
0.42114109249193898
30
0
10
-2.3072250546590634
20
0.61903117414443765
30
0
10
-2.335476040402471
20
0.8324353459433409
30
0
10
-2.335611286679784
20
1.1372112832461445
30
0
0
SPLINE
5
429
100
AcDbEntity
8
0
100
AcDbSpline
70
4
71
3
72
8
73
4
74
0
42
0.000000001
43
0.0000000001
44
0.0000000001
40
-1
40
-1
40
-1
40
-1
40
0
40
0
40
0
40
0
41
1
41
1
41
1
41
1
10
-2.335611286679784
20
1.1372112832461445
30
0
10
-2.3363071339386288
20
2.2112019713867559
30
0
10
-2.6784089789510923
20
3.5007246372617007
30
0
10
-3.1919700663375536
20
4.3651754804429643
30
0
0
SPLINE
5
430
100
AcDbEntity
8
0
100
AcDbSpline
70
4
71
3
72
8
73
4
74
0
42
0.000000001
43
0.0000000001
44
0.0000000001
40
-1
40
-1
40
-1
40
-1
40
0
40
0
40
0
40
0
41
1
41
1
41
1
41
1
10
-3.1919700663375536
20
4.3651754804429643
30
0
10
-3.6799417321249761
20
5.1865519329216081
30
0
10
-4.2951300727686679
20
5.7153886227440953
30
0
10
-5.0500267854621086
20
5.9624226589489986
30
0
0
SPLINE
5
431
100
AcDbEntity
8
0
100
AcDbSpline
70
4
71
3
72
8
73
4
74
0
42
0.000000001
43
0.0000000001
44
0.0000000001
40
-1
40
-1
40
-1
40
-1
40
0
40
0
40
0
40
0
41
1
41
1
41
1
41
1
10
-5.0500267854621086
20
5.9624226589489986
30
0
10
-5.3866950338524582
20
6.0725915921707108
30
0
10
-6.0436522772776833
20
6.0736756272178738
30
0
10
-6.4209749371796487
20
5.9646826139187503
30
0
0
SPLINE
5
432
100
AcDbEntity
8
0
100
AcDbSpline
70
4
71
3
72
8
73
4
74
0
42
0.000000001
43
0.0000000001
44
0.0000000001
40
-1
40
-1
40
-1
40
-1
40
0
40
0
40
0
40
0
41
1
41
1
41
1
41
1
10
-6.4209749371796487
20
5.9646826139187503
30
0
10
-7.383005969442066
20
5.6867886809569352
30
0
10
-8.3093676027883205
20
4.7944802018922372
30
0
10
-8.9004289367323146
20
3.5763758297530734
30
0
0
SPLINE
5
433
100
AcDbEntity
8
0
100
AcDbSpline
70
4
71
3
72
8
73
4
74
0
42
0.000000001
43
0.0000000001
44
0.0000000001
40
-1
40
-1
40
-1
40
-1
40
0
40
0
40
0
40
0
41
1
41
1
41
1
41
1
10
-8.9004289367323146
20
3.5763758297530734
30
0
10
-9.2731736133886766
20
2.8081965904888895
30
0
10
-9.356050673780139
20
2.4743747084080936
30
0
10
-9.3863597774916609
20
1.619112352769454
30
0
0
SPLINE
5
434
100
AcDbEntity
8
0
100
AcDbSpline
70
4
71
3
72
8
73
4
74
0
42
0.000000001
43
0.0000000001
44
0.0000000001
40
-1
40
-1
40
-1
40
-1
40
0
40
0
40
0
40
0
41
1
41
1
41
1
41
1
10
-9.3863597774916609
20
1.619112352769454
30
0
10
-9.4059784889130746
20
1.065544177656681
30
0
10
-9.3936589468092269
20
0.80712157897058212
30
0
10
-9.332077238712122
20
0.48037276746894175
30
0
0
SPLINE
5
435
100
AcDbEntity
8
0
100
AcDbSpline
70
4
71
3
72
8
73
4
74
0
42
0.000000001
43
0.0000000001
44
0.0000000001
40
-1
40
-1
40
-1
40
-1
40
0
40
0
40
0
40
0
41
1
41
1
41
1
41
1
10
-9.332077238712122
20
0.48037276746894175
30
0
10
-9.2444314565274706
20
0.015332056379182557
30
0
10
-8.9975876426629888
20
-0.71779878118871432
30
0
10
-8.8213976197224557
20
-1.0363543525624608
30
0
0
SPLINE
5
436
100
AcDbEntity
8
0
100
AcDbSpline
70
4
71
3
72
8
73
4
74
0
42
0.000000001
43
0.0000000001
44
0.0000000001
40
-1
40
-1
40
-1
40
-1
40
0
40
0
40
0
40
0
41
1
41
1
41
1
41
1
10
-8.8213976197224557
20
-1.0363543525624608
30
0
10
-8.6130107234668394
20
-1.4131195087258841
30
0
10
-8.2006972189675214
20
-1.6344526225840394
30
0
10
-7.4194383225485634
20
-1.7889348437051278
30
0
0
SPLINE
5
437
100
AcDbEntity
8
0
100
AcDbSpline
70
4
71
3
72
8
73
4
74
0
42
0.000000001
43
0.0000000001
44
0.0000000001
40
-1
40
-1
40
-1
40
-1
40
0
40
0
40
0
40
0
41
1
41
1
41
1
41
1
10
-7.4194383225485634
20
-1.7889348437051278
30
0
10
-7.0533194229626144
20
-1.8613256717403637
30
0
10
-5.4315503392754145
20
-1.8200332281724174
30
0
10
-5.0325320084223879
20
-1.7281586768894996
30
0
0
CIRCLE
5
438
100
AcDbEntity
8
0
100
AcDbCircle
10
0
20
0
30
0
40
20.284999999999997
210
0
220
0
230
1
0
CIRCLE
5
439
100
AcDbEntity
8
0
100
AcDbCircle
10
7.6245580763737788
20
-16.799570721358347
30
0
40
1.2361663706911474
210
0
220
0
230
1
0
CIRCLE
5
440
100
AcDbEntity
8
0
100
AcDbCircle
10
-2.2204460492503131e-15
20
-13.684999985098836
30
0
40
6.0000000000000009
210
0
220
0
230
1
0
CIRCLE
5
441
100
AcDbEntity
8
0
100
AcDbCircle
10
10.762225485084315
20
-11.410246605932821
30
0
40
3.9999999999999991
210
0
220
0
230
1
0
CIRCLE
5
442
100
AcDbEntity
8
0
100
AcDbCircle
10
-7.6245580763737788
20
-16.799570721358347
30
0
40
1.2361663706911485
210
0
220
0
230
1
0
ARC
5
443
100
AcDbEntity
8
0
100
AcDbCircle
10
-10.762225485084054
20
-11.410246605932866
30
0
40
4
210
0
220
-0
230
1
100
AcDbArc
50
-279.31405624002679
51
80.164835712438659
0
SPLINE
5
444
100
AcDbEntity
8
0
100
AcDbSpline
70
4
71
3
72
8
73
4
74
0
42
0.000000001
43
0.0000000001
44
0.0000000001
40
0.67007884950265695
40
0.67007884950265695
40
0.67007884950265695
40
0.67007884950265695
40
1
40
1
40
1
40
1
41
1
41
1
41
1
41
1
10
-10.114841808083131
20
-7.4629824426485047
30
0
10
-10.147749326997033
20
-7.5355716085420372
30
0
10
-10.15015561349295
20
-7.5591307176142051
30
0
10
-10.106496648294225
20
-7.5038788247177513
30
0
0
LINE
5
445
100
AcDbEntity
8
0
100
AcDbLine
10
-10.106496648294227
20
-7.5038788247177504
30
0
11
-10.078968509001815
21
-7.4690336067871765
31
0
0
LWPOLYLINE
5
446
100
AcDbEntity
8
0
100
AcDbPolyline
90
8
70
1
43
0.0
10
-7.0912547358069062
20
-8.0155486949308337
42
0.45861202855151545
10
-14.664806964496396
20
-8.2845694080185126
42
-0.56502397880837796
10
-18.060822820097421
20
-7.8298086861077341
42
-1.5234526665911512
10
18.060822820097421
20
-7.8298086861077394
42
-0.5650239788083784
10
14.664806964496393
20
-8.2845694080185126
42
0.45861202855152039
10
7.0912547358069054
20
-8.0155486949308354
42
-0.39342646008747967
10
4.3733405668804375
20
-8.2192985209961584
42
0.35082988103369228
10
-4.3733405668804384
20
-8.2192985209961602
42
-0.39342646008747972
0
SPLINE
5
447
100
AcDbEntity
8
0
100
AcDbSpline
70
4
71
3
72
8
73
4
74
0
42
0.000000001
43
0.0000000001
44
0.0000000001
40
-1
40
-1
40
-1
40
-1
40
0
40
0
40
0
40
0
41
1
41
1
41
1
41
1
10
-11.382224355642272
20
-11.351367284725239
30
0
10
-11.038669770679164
20
-11.334706211557087
30
0
10
-10.83204351907586
20
-11.12122015653862
30
0
10
-10.83204351907586
20
-10.782922583369942
30
0
0
SPLINE
5
448
100
AcDbEntity
8
0
100
AcDbSpline
70
4
71
3
72
8
73
4
74
0
42
0.000000001
43
0.0000000001
44
0.0000000001
40
-1
40
-1
40
-1
40
-1
40
0
40
0
40
0
40
0
41
1
41
1
41
1
41
1
10
-10.83204351907586
20
-10.782922583369942
30
0
10
-10.83204351907586
20
-10.625816442179769
30
0
10
-10.868748532602659
20
-10.493551762091137
30
0
10
-10.931630063908306
20
-10.424067308194424
30
0
0
SPLINE
5
449
100
AcDbEntity
8
0
100
AcDbSpline
70
4
71
3
72
8
73
4
74
0
42
0.000000001
43
0.0000000001
44
0.0000000001
40
-1
40
-1
40
-1
40
-1
40
0
40
0
40
0
40
0
41
1
41
1
41
1
41
1
10
-10.931630063908306
20
-10.424067308194424
30
0
10
-11.075273479092242
20
-10.265342094204538
30
0
10
-11.057490813593542
20
-10.237626100501029
30
0
10
-10.812006814796771
20
-10.237626100501029
30
0
0
SPLINE
5
450
100
AcDbEntity
8
0
100
AcDbSpline
70
4
71
3
72
8
73
4
74
0
42
0.000000001
43
0.0000000001
44
0.0000000001
40
-1
40
-1
40
-1
40
-1
40
0
40
0
40
0
40
0
41
1
41
1
41
1
41
1
10
-10.812006814796771
20
-10.237626100501029
30
0
10
-10.419503769705116
20
-10.237626100501029
30
0
10
-10.021664115943967
20
-10.603252537117193
30
0
10
-9.970722115898889
20
-11.010795773557383
30
0
0
SPLINE
5
451
100
AcDbEntity
8
0
100
AcDbSpline
70
4
71
3
72
8
73
4
74
0
42
0.000000001
43
0.0000000001
44
0.0000000001
40
-1
40
-1
40
-1
40
-1
40
0
40
0
40
0
40
0
41
1
41
1
41
1
41
1
10
-9.970722115898889
20
-11.010795773557383
30
0
10
-9.937443386039897
20
-11.277025612429338
30
0
10
-10.122857070436933
20
-11.678405518111234
30
0
10
-10.358322717094159
20
-11.84985899603284
30
0
0
SPLINE
5
452
100
AcDbEntity
8
0
100
AcDbSpline
70
4
71
3
72
8
73
4
74
0
42
0.000000001
43
0.0000000001
44
0.0000000001
40
-1
40
-1
40
-1
40
-1
40
0
40
0
40
0
40
0
41
1
41
1
41
1
41
1
10
-10.358326335133938
20
-11.849860805052725
30
0
10
-10.580958794705948
20
-12.011972504272887
30
0
10
-11.015912300488573
20
-12.03560192204948
30
0
10
-11.235440481932839
20
-11.897512197921603
30
0
0
SPLINE
5
453
100
AcDbEntity
8
0
100
AcDbSpline
70
4
71
3
72
8
73
4
74
0
42
0.000000001
43
0.0000000001
44
0.0000000001
40
-1
40
-1
40
-1
40
-1
40
0
40
0
40
0
40
0
41
1
41
1
41
1
41
1
10
-11.235440481932839
20
-11.897512197921603
30
0
10
-11.436252543616217
20
-11.771197384244484
30
0
10
-11.668925063566435
20
-11.496311385208621
30
0
10
-11.642393977889549
20
-11.416723555237617
30
0
0
SPLINE
5
454
100
AcDbEntity
8
0
100
AcDbSpline
70
4
71
3
72
8
73
4
74
0
42
0.000000001
43
0.0000000001
44
0.0000000001
40
-1
40
-1
40
-1
40
-1
40
0
40
0
40
0
40
0
41
1
41
1
41
1
41
1
10
-11.642393977889549
20
-11.416723555237617
30
0
10
-11.632563763818347
20
-11.387240149103576
30
0
10
-11.515491232748847
20
-11.357830912784937
30
0
10
-11.382224355642272
20
-11.351367284725239
30
0
0
SPLINE
5
455
100
AcDbEntity
8
0
100
AcDbSpline
70
4
71
3
72
8
73
4
74
0
42
0.000000001
43
0.0000000001
44
0.0000000001
40
-1
40
-1
40
-1
40
-1
40
0
40
0
40
0
40
0
41
1
41
1
41
1
41
1
10
-7.9291744295752409
20
-11.581172508153038
30
0
10
-7.9857967520685236
20
-11.686314553061422
30
0
10
-8.1425808877186334
20
-11.901741686419665
30
0
10
-8.2775808058778644
20
-12.059898868164748
30
0
0
SPLINE
5
456
100
AcDbEntity
8
0
100
AcDbSpline
70
4
71
3
72
8
73
4
74
0
42
0.000000001
43
0.0000000001
44
0.0000000001
40
-1
40
-1
40
-1
40
-1
40
0
40
0
40
0
40
0
41
1
41
1
41
1
41
1
10
-8.2775808058778644
20
-12.059898868164748
30
0
10
-8.8731752777117379
20
-12.757659547191281
30
0
10
-9.6052458279334285
20
-13.204391581464435
30
0
10
-10.323090245756159
20
-13.30814068105909
30
0
0
SPLINE
5
457
100
AcDbEntity
8
0
100
AcDbSpline
70
4
71
3
72
8
73
4
74
0
42
0.000000001
43
0.0000000001
44
0.0000000001
40
-1
40
-1
40
-1
40
-1
40
0
40
0
40
0
40
0
41
1
41
1
41
1
41
1
10
-10.323090245756159
20
-13.308137063019313
30
0
10
-10.540415040976887
20
-13.339547075334043
30
0
10
-10.743835709338718
20
-13.362555999289057
30
0
10
-10.775135371440276
20
-13.359272628192404
30
0
0
SPLINE
5
458
100
AcDbEntity
8
0
100
AcDbSpline
70
4
71
3
72
8
73
4
74
0
42
0.000000001
43
0.0000000001
44
0.0000000001
40
-1
40
-1
40
-1
40
-1
40
0
40
0
40
0
40
0
41
1
41
1
41
1
41
1
10
-10.775135371440276
20
-13.359272628192404
30
0
10
-11.48004529706407
20
-13.285294568893985
30
0
10
-11.905704058662323
20
-13.138742249730214
30
0
10
-12.425562103866676
20
-12.791039582163993
30
0
0
SPLINE
5
459
100
AcDbEntity
8
0
100
AcDbSpline
70
4
71
3
72
8
73
4
74
0
42
0.000000001
43
0.0000000001
44
0.0000000001
40
-1
40
-1
40
-1
40
-1
40
0
40
0
40
0
40
0
41
1
41
1
41
1
41
1
10
-12.425562103866676
20
-12.791039582163993
30
0
10
-12.843275650116999
20
-12.511652741646881
30
0
10
-13.491501746571304
20
-11.869088877441904
30
0
10
-13.645029646423081
20
-11.582218121648275
30
0
0
SPLINE
5
460
100
AcDbEntity
8
0
100
AcDbSpline
70
4
71
3
72
8
73
4
74
0
42
0.000000001
43
0.0000000001
44
0.0000000001
40
-1
40
-1
40
-1
40
-1
40
0
40
0
40
0
40
0
41
1
41
1
41
1
41
1
10
-13.645029646423081
20
-11.582218121648275
30
0
10
-13.715802122480021
20
-11.449982385877849
30
0
10
-13.71487952233716
20
-11.407569914604515
30
0
10
-13.637735678234799
20
-11.246807744220785
30
0
0
SPLINE
5
461
100
AcDbEntity
8
0
100
AcDbSpline
70
4
71
3
72
8
73
4
74
0
42
0.000000001
43
0.0000000001
44
0.0000000001
40
-1
40
-1
40
-1
40
-1
40
0
40
0
40
0
40
0
41
1
41
1
41
1
41
1
10
-13.637735678234799
20
-11.246807744220785
30
0
10
-13.476143167722485
20
-10.910051455996644
30
0
10
-13.012549259073607
20
-10.348200632132972
30
0
10
-12.659931484471798
20
-10.061758614052788
30
0
0
SPLINE
5
462
100
AcDbEntity
8
0
100
AcDbSpline
70
4
71
3
72
8
73
4
74
0
42
0.000000001
43
0.0000000001
44
0.0000000001
40
-1
40
-1
40
-1
40
-1
40
0
40
0
40
0
40
0
41
1
41
1
41
1
41
1
10
-12.659931484471798
20
-10.061758614052788
30
0
10
-12.359420718722918
20
-9.8176467568410288
30
0
10
-11.804550902606907
20
-9.4978346533975113
30
0
10
-11.68152669610599
20
-9.4978346533975113
30
0
0
SPLINE
5
463
100
AcDbEntity
8
0
100
AcDbSpline
70
4
71
3
72
8
73
4
74
0
42
0.000000001
43
0.0000000001
44
0.0000000001
40
-1
40
-1
40
-1
40
-1
40
0
40
0
40
0
40
0
41
1
41
1
41
1
41
1
10
-11.68152669610599
20
-9.4978346533975113
30
0
10
-11.659735242535572
20
-9.4978346533975113
30
0
10
-11.780903394631439
20
-9.6322773934312558
30
0
10
-11.950788452310173
20
-9.7965960969147261
30
0
0
SPLINE
5
464
100
AcDbEntity
8
0
100
AcDbSpline
70
4
71
3
72
8
73
4
74
0
42
0.000000001
43
0.0000000001
44
0.0000000001
40
-1
40
-1
40
-1
40
-1
40
0
40
0
40
0
40
0
41
1
41
1
41
1
41
1
10
-11.950788452310173
20
-9.7965960969147261
30
0
10
-12.398824789922562
20
-10.229954047156177
30
0
10
-12.536234322572559
20
-10.54661031540514
30
0
10
-12.537287172147353
20
-11.148132945411863
30
0
0
SPLINE
5
465
100
AcDbEntity
8
0
100
AcDbSpline
70
4
71
3
72
8
73
4
74
0
42
0.000000001
43
0.0000000001
44
0.0000000001
40
-1
40
-1
40
-1
40
-1
40
0
40
0
40
0
40
0
41
1
41
1
41
1
41
1
10
-12.537287172147353
20
-11.148132945411863
30
0
10
-12.537942037346799
20
-11.522439059450488
30
0
10
-12.510748850390918
20
-11.691338201290286
30
0
10
-12.417059710393241
20
-11.894889119084052
30
0
0
SPLINE
5
466
100
AcDbEntity
8
0
100
AcDbSpline
70
4
71
3
72
8
73
4
74
0
42
0.000000001
43
0.0000000001
44
0.0000000001
40
-1
40
-1
40
-1
40
-1
40
0
40
0
40
0
40
0
41
1
41
1
41
1
41
1
10
-12.417059710393241
20
-11.894889119084052
30
0
10
-12.251150878428243
20
-12.255350803920081
30
0
10
-11.919991697737471
20
-12.60685964933057
30
0
10
-11.575438533796207
20
-12.788235601337657
30
0
0
SPLINE
5
467
100
AcDbEntity
8
0
100
AcDbSpline
70
4
71
3
72
8
73
4
74
0
42
0.000000001
43
0.0000000001
44
0.0000000001
40
-1
40
-1
40
-1
40
-1
40
0
40
0
40
0
40
0
41
1
41
1
41
1
41
1
10
-11.575438533796207
20
-12.788235601337657
30
0
10
-11.326857492951232
20
-12.919089245913678
30
0
10
-11.220874253794948
20
-12.939516698488568
30
0
10
-10.8035840181984
20
-12.937002160844294
30
0
0
SPLINE
5
468
100
AcDbEntity
8
0
100
AcDbSpline
70
4
71
3
72
8
73
4
74
0
42
0.000000001
43
0.0000000001
44
0.0000000001
40
-1
40
-1
40
-1
40
-1
40
0
40
0
40
0
40
0
41
1
41
1
41
1
41
1
10
-10.8035840181984
20
-12.937002160844294
30
0
10
-10.221774277910827
20
-12.933496280301423
30
0
10
-9.9035387352996729
20
-12.803715384518966
30
0
10
-9.5582728175225462
20
-12.429148771616493
30
0
0
SPLINE
5
469
100
AcDbEntity
8
0
100
AcDbSpline
70
4
71
3
72
8
73
4
74
0
42
0.000000001
43
0.0000000001
44
0.0000000001
40
-1
40
-1
40
-1
40
-1
40
0
40
0
40
0
40
0
41
1
41
1
41
1
41
1
10
-9.5582728175225462
20
-12.429148771616493
30
0
10
-9.1620793718594484
20
-11.999327455256012
30
0
10
-9.0687954523166692
20
-11.760855217544982
30
0
10
-9.0683359612651238
20
-11.176587019229668
30
0
0
SPLINE
5
470
100
AcDbEntity
8
0
100
AcDbSpline
70
4
71
3
72
8
73
4
74
0
42
0.000000001
43
0.0000000001
44
0.0000000001
40
-1
40
-1
40
-1
40
-1
40
0
40
0
40
0
40
0
41
1
41
1
41
1
41
1
10
-9.0683359612651238
20
-11.176587019229668
30
0
10
-9.0679813933670772
20
-10.730792057258466
30
0
10
-9.0884992969363765
20
-10.622529453043338
30
0
10
-9.2267011802973098
20
-10.341103847112482
30
0
0
SPLINE
5
471
100
AcDbEntity
8
0
100
AcDbSpline
70
4
71
3
72
8
73
4
74
0
42
0.000000001
43
0.0000000001
44
0.0000000001
40
-1
40
-1
40
-1
40
-1
40
0
40
0
40
0
40
0
41
1
41
1
41
1
41
1
10
-9.2267011802973098
20
-10.341103847112482
30
0
10
-9.3738323858252315
20
-10.041494877777758
30
0
10
-9.6282891232663204
20
-9.7586998437917103
30
0
10
-9.8749562210698283
20
-9.6206589632008068
30
0
0
SPLINE
5
472
100
AcDbEntity
8
0
100
AcDbSpline
70
4
71
3
72
8
73
4
74
0
42
0.000000001
43
0.0000000001
44
0.0000000001
40
-1
40
-1
40
-1
40
-1
40
0
40
0
40
0
40
0
41
1
41
1
41
1
41
1
10
-9.8749562210698283
20
-9.6206589632008068
30
0
10
-9.9313506070572366
20
-9.5890997067453156
30
0
10
-9.9590032850646537
20
-9.5447904781194595
30
0
10
-9.9364050086242095
20
-9.5221931061889578
30
0
0
SPLINE
5
473
100
AcDbEntity
8
0
100
AcDbSpline
70
4
71
3
72
8
73
4
74
0
42
0.000000001
43
0.0000000001
44
0.0000000001
40
-1
40
-1
40
-1
40
-1
40
0
40
0
40
0
40
0
41
1
41
1
41
1
41
1
10
-9.9364050086242095
20
-9.5221931061889578
30
0
10
-9.9138067321837475
20
-9.4995966387683914
30
0
10
-9.7258097673867105
20
-9.5645576384352502
30
0
10
-9.5186299556976905
20
-9.6665519887385756
30
0
0
SPLINE
5
474
100
AcDbEntity
8
0
100
AcDbSpline
70
4
71
3
72
8
73
4
74
0
42
0.000000001
43
0.0000000001
44
0.0000000001
40
-1
40
-1
40
-1
40
-1
40
0
40
0
40
0
40
0
41
1
41
1
41
1
41
1
10
-9.5186299556976905
20
-9.6665519887385756
30
0
10
-9.051059821335059
20
-9.8967362018328977
30
0
10
-8.444810222361081
20
-10.459515052899096
30
0
10
-8.0908393008830792
20
-10.991967494563465
30
0
0
LINE
5
475
100
AcDbEntity
8
0
100
AcDbLine
10
-8.0908393008830792
20
-10.991967494563465
30
0
11
-7.8262231077511846
21
-11.390007949532169
31
0
0
LINE
5
476
100
AcDbEntity
8
0
100
AcDbLine
10
-7.8262231077511846
20
-11.390007949532169
30
0
11
-7.9291744295752409
21
-11.581172508153038
31
0
0
SPLINE
5
477
100
AcDbEntity
8
0
100
AcDbSpline
70
4
71
3
72
8
73
4
74
0
42
0.000000001
43
0.0000000001
44
0.0000000001
40
-1
40
-1
40
-1
40
-1
40
0
40
0
40
0
40
0
41
1
41
1
41
1
41
1
10
-8.2161247822439432
20
-12.902916608115284
30
0
10
-7.7680884446315623
20
-12.484501162148437
30
0
10
-7.1609126274749357
20
-11.652364676823993
30
0
10
-7.1613142298900634
20
-11.457299871324672
30
0
0
SPLINE
5
478
100
AcDbEntity
8
0
100
AcDbSpline
70
4
71
3
72
8
73
4
74
0
42
0.000000001
43
0.0000000001
44
0.0000000001
40
-1
40
-1
40
-1
40
-1
40
0
40
0
40
0
40
0
41
1
41
1
41
1
41
1
10
-7.1613142298900634
20
-11.457299871324672
30
0
10
-7.1617085962256422
20
-11.266927663414737
30
0
10
-7.7176312619164555
20
-10.389652513845796
30
0
10
-8.1109954004747742
20
-9.95865352553826
30
0
0
SPLINE
5
479
100
AcDbEntity
8
0
100
AcDbSpline
70
4
71
3
72
8
73
4
74
0
42
0.000000001
43
0.0000000001
44
0.0000000001
40
-1
40
-1
40
-1
40
-1
40
0
40
0
40
0
40
0
41
1
41
1
41
1
41
1
10
-8.1109954004747742
20
-9.95865352553826
30
0
10
-8.8681860008607316
20
-9.1290216282487044
30
0
10
-9.7716141509499721
20
-8.7011431992479071
30
0
10
-10.766122834358445
20
-8.7011431992479071
30
0
0
SPLINE
5
480
100
AcDbEntity
8
0
100
AcDbSpline
70
4
71
3
72
8
73
4
74
0
42
0.000000001
43
0.0000000001
44
0.0000000001
40
-1
40
-1
40
-1
40
-1
40
0
40
0
40
0
40
0
41
1
41
1
41
1
41
1
10
-10.766122834358445
20
-8.7011431992479071
30
0
10
-11.803096450616986
20
-8.7011431992479071
30
0
10
-12.48125459013754
20
-9.003886295538539
30
0
10
-13.307495479647118
20
-9.8356600723754397
30
0
0
SPLINE
5
481
100
AcDbEntity
8
0
100
AcDbSpline
70
4
71
3
72
8
73
4
74
0
42
0.000000001
43
0.0000000001
44
0.0000000001
40
-1
40
-1
40
-1
40
-1
40
0
40
0
40
0
40
0
41
1
41
1
41
1
41
1
10
-13.307495479647118
20
-9.8356600723754397
30
0
10
-13.84998074561012
20
-10.381781468313257
30
0
10
-14.3887141043255
20
-11.191920271800043
30
0
10
-14.38872134040504
20
-11.461599911598356
30
0
0
SPLINE
5
482
100
AcDbEntity
8
0
100
AcDbSpline
70
4
71
3
72
8
73
4
74
0
42
0.000000001
43
0.0000000001
44
0.0000000001
40
-1
40
-1
40
-1
40
-1
40
0
40
0
40
0
40
0
41
1
41
1
41
1
41
1
10
-14.38872134040504
20
-11.461599911598356
30
0
10
-14.388724958444827
20
-11.660814608720663
30
0
10
-13.930326554914174
20
-12.297672824199001
30
0
10
-13.425389305745759
20
-12.799959859231556
30
0
0
SPLINE
5
483
100
AcDbEntity
8
0
100
AcDbSpline
70
4
71
3
72
8
73
4
74
0
42
0.000000001
43
0.0000000001
44
0.0000000001
40
-1
40
-1
40
-1
40
-1
40
0
40
0
40
0
40
0
41
1
41
1
41
1
41
1
10
-13.425389305745759
20
-12.799959859231556
30
0
10
-12.886276052853907
20
-13.336240186978841
30
0
10
-12.276039374046857
20
-13.701488538438419
30
0
10
-11.676747265562
20
-13.846580978552613
30
0
0
SPLINE
5
484
100
AcDbEntity
8
0
100
AcDbSpline
70
4
71
3
72
8
73
4
74
0
42
0.000000001
43
0.0000000001
44
0.0000000001
40
-0.9999975219599665
40
-0.9999975219599665
40
-0.9999975219599665
40
-0.9999975219599665
40
0
40
0
40
0
40
0
41
1
41
1
41
1
41
1
10
-11.676747465879671
20
-13.846581805994642
30
0
10
-11.217012900873172
20
-13.957884544490431
30
0
10
-10.304496069701102
20
-13.957741356468381
30
0
10
-9.8728469038804612
20
-13.84629877145009
30
0
0
SPLINE
5
485
100
AcDbEntity
8
0
100
AcDbSpline
70
4
71
3
72
8
73
4
74
0
42
0.000000001
43
0.0000000001
44
0.0000000001
40
-1
40
-1
40
-1
40
-1
40
0
40
0
40
0
40
0
41
1
41
1
41
1
41
1
10
-9.8728469038804612
20
-13.84629877145009
30
0
10
-9.3236682643319835
20
-13.704509601651328
30
0
10
-8.6851131881987342
20
-13.340902031230129
30
0
10
-8.2161247822439432
20
-12.902916608115284
30
0
0
LINE
5
486
100
AcDbEntity
8
0
100
AcDbLine
10
4.0842679137915994
20
-16.014527507330452
30
0
11
3.4226835572916681
21
-15.405342748684831
31
0
0
SPLINE
5
487
100
AcDbEntity
8
0
100
AcDbSpline
70
4
71
3
72
8
73
4
74
0
42
0.000000001
43
0.0000000001
44
0.0000000001
40
-1
40
-1
40
-1
40
-1
40
0
40
0
40
0
40
0
41
1
41
1
41
1
41
1
10
3.4226835572916681
20
-15.405342748684831
30
0
10
2.6213392242493327
20
-14.667466930274141
30
0
10
2.0575085955242045
20
-13.942578518607514
30
0
10
2.0575085955242045
20
-13.650201992702442
30
0
0
SPLINE
5
488
100
AcDbEntity
8
0
100
AcDbSpline
70
4
71
3
72
8
73
4
74
0
42
0.000000001
43
0.0000000001
44
0.0000000001
40
-1
40
-1
40
-1
40
-1
40
0
40
0
40
0
40
0
41
1
41
1
41
1
41
1
10
2.0575085955242045
20
-13.650201992702442
30
0
10
2.0575085955242045
20
-13.328688018319523
30
0
10
2.4469461630561185
20
-12.809592198183996
30
0
10
3.3086575130879492
20
-11.982501705333458
30
0
0
SPLINE
5
489
100
AcDbEntity
8
0
100
AcDbSpline
70
4
71
3
72
8
73
4
74
0
42
0.000000001
43
0.0000000001
44
0.0000000001
40
-1
40
-1
40
-1
40
-1
40
0
40
0
40
0
40
0
41
1
41
1
41
1
41
1
10
3.3086575130879492
20
-11.982501705333458
30
0
10
3.7399007988874544
20
-11.568584743834966
30
0
10
4.041413078639744
20
-11.24961897409872
30
0
10
3.9786886055279957
20
-11.273689359210056
30
0
0
SPLINE
5
490
100
AcDbEntity
8
0
100
AcDbSpline
70
4
71
3
72
8
73
4
74
0
42
0.000000001
43
0.0000000001
44
0.0000000001
40
-1
40
-1
40
-1
40
-1
40
0
40
0
40
0
40
0
41
1
41
1
41
1
41
1
10
3.9786886055279957
20
-11.273689359210056
30
0
10
3.5013526506493875
20
-11.456859298020255
30
0
10
2.2986905406955405
20
-11.806789300179705
30
0
10
1.8836779979286256
20
-11.883258060398404
30
0
0
SPLINE
5
491
100
AcDbEntity
8
0
100
AcDbSpline
70
4
71
3
72
8
73
4
74
0
42
0.000000001
43
0.0000000001
44
0.0000000001
40
-1
40
-1
40
-1
40
-1
40
0
40
0
40
0
40
0
41
1
41
1
41
1
41
1
10
1.8836779979286256
20
-11.883258060398404
30
0
10
0.94529552305763431
20
-12.056161815804845
30
0
10
0.76890449334586997
20
-11.847290347450169
30
0
10
0.2852689461737512
20
-9.9905270923388212
30
0
0
LINE
5
492
100
AcDbEntity
8
0
100
AcDbLine
10
0.28526894617375143
20
-9.990527092338823
30
0
11
0.0047390041070904942
21
-8.9135269922647531
31
0
0
LINE
5
493
100
AcDbEntity
8
0
100
AcDbLine
10
0.0047390041070904942
20
-8.9135269922647531
30
0
11
-0.052972206504007247
21
-9.2948128115585771
31
0
0
SPLINE
5
494
100
AcDbEntity
8
0
100
AcDbSpline
70
4
71
3
72
8
73
4
74
0
42
0.000000001
43
0.0000000001
44
0.0000000001
40
-1
40
-1
40
-1
40
-1
40
0
40
0
40
0
40
0
41
1
41
1
41
1
41
1
10
-0.052972206504007247
20
-9.2948128115585771
30
0
10
-0.13268063477037906
20
-9.8214496178299804
30
0
10
-0.45362970006175729
20
-10.911432845033779
30
0
10
-0.66718979160149239
20
-11.380781816825998
30
0
0
SPLINE
5
495
100
AcDbEntity
8
0
100
AcDbSpline
70
4
71
3
72
8
73
4
74
0
42
0.000000001
43
0.0000000001
44
0.0000000001
40
-1
40
-1
40
-1
40
-1
40
0
40
0
40
0
40
0
41
1
41
1
41
1
41
1
10
-0.66718979160149239
20
-11.380781816825998
30
0
10
-0.97744104381527031
20
-12.062630758551101
30
0
10
-1.4334107184655132
20
-12.089552589553048
30
0
10
-3.1647433685576498
20
-11.528243876415125
30
0
0
LINE
5
496
100
AcDbEntity
8
0
100
AcDbLine
10
-3.1647433685576494
20
-11.528243876415123
30
0
11
-3.9636006343008923
21
-11.269249565029597
31
0
0
LINE
5
497
100
AcDbEntity
8
0
100
AcDbLine
10
-3.9636006343008923
20
-11.269249565029597
30
0
11
-3.1207428195123299
21
-12.129996167716799
31
0
0
SPLINE
5
498
100
AcDbEntity
8
0
100
AcDbSpline
70
4
71
3
72
8
73
4
74
0
42
0.000000001
43
0.0000000001
44
0.0000000001
40
-1
40
-1
40
-1
40
-1
40
0
40
0
40
0
40
0
41
1
41
1
41
1
41
1
10
-3.1207428195123388
20
-12.129996167716799
30
0
10
-2.1829130262633711
20
-13.087729224466806
30
0
10
-1.9041426170597475
20
-13.480227938991497
30
0
10
-1.9714047041080551
20
-13.748222279312635
30
0
0
SPLINE
5
499
100
AcDbEntity
8
0
100
AcDbSpline
70
4
71
3
72
8
73
4
74
0
42
0.000000001
43
0.0000000001
44
0.0000000001
40
-1
40
-1
40
-1
40
-1
40
0
40
0
40
0
40
0
41
1
41
1
41
1
41
1
10
-1.9714047041080551
20
-13.748222279312635
30
0
10
-2.019700763193546
20
-13.940648412544764
30
0
10
-3.3890880882085384
20
-15.497963996131219
30
0
10
-3.8012235073988698
20
-15.82915540126081
30
0
0
LINE
5
500
100
AcDbEntity
8
0
100
AcDbLine
10
-3.8012235073988698
20
-15.82915540126081
30
0
11
-4.0583146131545789
21
-16.035753171659401
31
0
0
LINE
5
501
100
AcDbEntity
8
0
100
AcDbLine
10
-4.0583146131545789
20
-16.035753171659401
30
0
11
-3.635207485569536
21
-15.876056306074782
31
0
0
SPLINE
5
502
100
AcDbEntity
8
0
100
AcDbSpline
70
4
71
3
72
8
73
4
74
0
42
0.000000001
43
0.0000000001
44
0.0000000001
40
-1
40
-1
40
-1
40
-1
40
0
40
0
40
0
40
0
41
1
41
1
41
1
41
1
10
-3.635207485569536
20
-15.876056306074787
30
0
10
-2.9398753132115907
20
-15.613610791418996
30
0
10
-1.797026315878254
20
-15.337064558919927
30
0
10
-1.4077794968707469
20
-15.337064558919927
30
0
0
SPLINE
5
503
100
AcDbEntity
8
0
100
AcDbSpline
70
4
71
3
72
8
73
4
74
0
42
0.000000001
43
0.0000000001
44
0.0000000001
40
-1
40
-1
40
-1
40
-1
40
0
40
0
40
0
40
0
41
1
41
1
41
1
41
1
10
-1.4077794968707469
20
-15.337064558919927
30
0
10
-0.97713780257133287
20
-15.337064558919927
30
0
10
-0.8775719638146029
20
-15.425015524385532
30
0
10
-0.60148426142229816
20
-16.049302430627613
30
0
0
SPLINE
5
504
100
AcDbEntity
8
0
100
AcDbSpline
70
4
71
3
72
8
73
4
74
0
42
0.000000001
43
0.0000000001
44
0.0000000001
40
-1
40
-1
40
-1
40
-1
40
0
40
0
40
0
40
0
41
1
41
1
41
1
41
1
10
-0.60148426142229816
20
-16.049302430627613
30
0
10
-0.4033478999272333
20
-16.497324250093914
30
0
10
-0.025122921939448872
20
-17.876934962369351
30
0
10
-0.012584874700021231
20
-18.19736313745944
30
0
0
SPLINE
5
505
100
AcDbEntity
8
0
100
AcDbSpline
70
4
71
3
72
8
73
4
74
0
42
0.000000001
43
0.0000000001
44
0.0000000001
40
-0.99999617644110306
40
-0.99999617644110306
40
-0.99999617644110306
40
-0.99999617644110306
40
0
40
0
40
0
40
0
41
1
41
1
41
1
41
1
10
-0.012582385190757944
20
-18.197363040083225
30
0
10
-0.0087449647301602179
20
-18.295470090243452
30
0
10
0.054617579178710421
20
-18.116107943712919
30
0
10
0.12822177323275952
20
-17.798778199984273
30
0
0
SPLINE
5
506
100
AcDbEntity
8
0
100
AcDbSpline
70
4
71
3
72
8
73
4
74
0
42
0.000000001
43
0.0000000001
44
0.0000000001
40
-1
40
-1
40
-1
40
-1
40
0
40
0
40
0
40
0
41
1
41
1
41
1
41
1
10
0.12822177323275952
20
-17.798778199984273
30
0
10
0.32667849442908015
20
-16.94319648041969
30
0
10
0.73815974400043061
20
-15.757154558402448
30
0
10
0.91417172215726872
20
-15.533391254926951
30
0
0
SPLINE
5
507
100
AcDbEntity
8
0
100
AcDbSpline
70
4
71
3
72
8
73
4
74
0
42
0.000000001
43
0.0000000001
44
0.0000000001
40
-1
40
-1
40
-1
40
-1
40
0
40
0
40
0
40
0
41
1
41
1
41
1
41
1
10
0.91417172215726872
20
-15.533391254926951
30
0
10
1.0371409375633789
20
-15.377061834446426
30
0
10
1.1362788148871328
20
-15.337063336172978
30
0
10
1.4007760989273343
20
-15.337063336172978
30
0
0
SPLINE
5
508
100
AcDbEntity
8
0
100
AcDbSpline
70
4
71
3
72
8
73
4
74
0
42
0.000000001
43
0.0000000001
44
0.0000000001
40
-1
40
-1
40
-1
40
-1
40
0
40
0
40
0
40
0
41
1
41
1
41
1
41
1
10
1.4007760989273343
20
-15.337063336172978
30
0
10
1.7368970083914004
20
-15.337063336172978
30
0
10
2.8723129270072967
20
-15.605374367954523
30
0
10
3.6565045658157214
20
-15.870114978638048
30
0
0
LINE
5
509
100
AcDbEntity
8
0
100
AcDbLine
10
3.6565045658157209
20
-15.870114978638048
30
0
11
4.0842679137915994
21
-16.014527507330452
31
0
0
SPLINE
5
510
100
AcDbEntity
8
0
100
AcDbSpline
70
4
71
3
72
8
73
4
74
0
42
0.000000001
43
0.0000000001
44
0.0000000001
40
-1
40
-1
40
-1
40
-1
40
0
40
0
40
0
40
0
41
1
41
1
41
1
41
1
10
11.154154878318119
20
-12.544838047252703
30
0
10
11.054433109249048
20
-12.638523569210612
30
0
10
10.951607062052231
20
-12.675528880038808
30
0
10
10.806192616397983
20
-12.670060212917495
30
0
0
SPLINE
5
511
100
AcDbEntity
8
0
100
AcDbSpline
70
4
71
3
72
8
73
4
74
0
42
0.000000001
43
0.0000000001
44
0.0000000001
40
-1
40
-1
40
-1
40
-1
40
0
40
0
40
0
40
0
41
1
41
1
41
1
41
1
10
10.806192616397983
20
-12.670060212917495
30
0
10
10.414742420881126
20
-12.655342027109015
30
0
10
10.219001041943708
20
-12.842036497586719
30
0
10
10.216286155346843
20
-13.232699769452317
30
0
0
SPLINE
5
512
100
AcDbEntity
8
0
100
AcDbSpline
70
4
71
3
72
8
73
4
74
0
42
0.000000001
43
0.0000000001
44
0.0000000001
40
-1
40
-1
40
-1
40
-1
40
0
40
0
40
0
40
0
41
1
41
1
41
1
41
1
10
10.216286155346843
20
-13.232699769452317
30
0
10
10.214351860831638
20
-13.511015670195764
30
0
10
10.072086466547363
20
-13.708841040044121
30
0
10
9.8445818641620946
20
-13.749565695761973
30
0
0
SPLINE
5
513
100
AcDbEntity
8
0
100
AcDbSpline
70
4
71
3
72
8
73
4
74
0
42
0.000000001
43
0.0000000001
44
0.0000000001
40
-1
40
-1
40
-1
40
-1
40
0
40
0
40
0
40
0
41
1
41
1
41
1
41
1
10
9.8445818641620946
20
-13.749565695761973
30
0
10
9.7624157285957764
20
-13.764273027451125
30
0
10
9.7256975996747901
20
-13.822742359250025
30
0
10
9.7125320051851567
20
-13.959837122439524
30
0
0
SPLINE
5
514
100
AcDbEntity
8
0
100
AcDbSpline
70
4
71
3
72
8
73
4
74
0
42
0.000000001
43
0.0000000001
44
0.0000000001
40
-1
40
-1
40
-1
40
-1
40
0
40
0
40
0
40
0
41
1
41
1
41
1
41
1
10
9.7125320051851567
20
-13.959837122439524
30
0
10
9.7025018944163381
20
-14.064280885671149
30
0
10
9.7081003587146153
20
-14.185709536630874
30
0
10
9.7249726349546872
20
-14.229677765007857
30
0
0
SPLINE
5
515
100
AcDbEntity
8
0
100
AcDbSpline
70
4
71
3
72
8
73
4
74
0
42
0.000000001
43
0.0000000001
44
0.0000000001
40
-1
40
-1
40
-1
40
-1
40
0
40
0
40
0
40
0
41
1
41
1
41
1
41
1
10
9.7249726349546872
20
-14.229677765007857
30
0
10
9.749931682348933
20
-14.294721075079625
30
0
10
9.9722945979576352
20
-14.309621971896785
30
0
10
10.917938036152409
20
-14.309621971896785
30
0
0
SPLINE
5
516
100
AcDbEntity
8
0
100
AcDbSpline
70
4
71
3
72
8
73
4
74
0
42
0.000000001
43
0.0000000001
44
0.0000000001
40
-1
40
-1
40
-1
40
-1
40
0
40
0
40
0
40
0
41
1
41
1
41
1
41
1
10
10.917938036152409
20
-14.309621971896785
30
0
10
11.927901176463756
20
-14.309621971896785
30
0
10
12.084777119873172
20
-14.297762037511287
30
0
10
12.11495157160442
20
-14.219125752001357
30
0
0
SPLINE
5
517
100
AcDbEntity
8
0
100
AcDbSpline
70
4
71
3
72
8
73
4
74
0
42
0.000000001
43
0.0000000001
44
0.0000000001
40
-1
40
-1
40
-1
40
-1
40
0
40
0
40
0
40
0
41
1
41
1
41
1
41
1
10
12.11495157160442
20
-14.219125752001357
30
0
10
12.134051655836517
20
-14.1693523788039
30
0
10
12.134970637939604
20
-14.104831875479768
30
0
10
12.116994407312902
20
-14.075746453721067
30
0
0
SPLINE
5
518
100
AcDbEntity
8
0
100
AcDbSpline
70
4
71
3
72
8
73
4
74
0
42
0.000000001
43
0.0000000001
44
0.0000000001
40
-1
40
-1
40
-1
40
-1
40
0
40
0
40
0
40
0
41
1
41
1
41
1
41
1
10
12.116994407312902
20
-14.075746453721067
30
0
10
12.060033345845593
20
-13.983582317488942
30
0
10
12.210497670517093
20
-13.628451814262753
30
0
10
12.33466291631234
20
-13.562001086718155
30
0
0
SPLINE
5
519
100
AcDbEntity
8
0
100
AcDbSpline
70
4
71
3
72
8
73
4
74
0
42
0.000000001
43
0.0000000001
44
0.0000000001
40
-1
40
-1
40
-1
40
-1
40
0
40
0
40
0
40
0
41
1
41
1
41
1
41
1
10
12.33466291631234
20
-13.562001086718155
30
0
10
12.400295966867578
20
-13.52687715657343
30
0
10
12.595552528475025
20
-13.499408998594586
30
0
10
12.768566286050003
20
-13.500962946678342
30
0
0
SPLINE
5
520
100
AcDbEntity
8
0
100
AcDbSpline
70
4
71
3
72
8
73
4
74
0
42
0.000000001
43
0.0000000001
44
0.0000000001
40
-1
40
-1
40
-1
40
-1
40
0
40
0
40
0
40
0
41
1
41
1
41
1
41
1
10
12.768566286050003
20
-13.500962946678342
30
0
10
13.103334461417269
20
-13.503971346752031
30
0
10
13.364841853871694
20
-13.405377953838077
30
0
10
13.422817323241178
20
-13.254295848874836
30
0
0
SPLINE
5
521
100
AcDbEntity
8
0
100
AcDbSpline
70
4
71
3
72
8
73
4
74
0
42
0.000000001
43
0.0000000001
44
0.0000000001
40
-1
40
-1
40
-1
40
-1
40
0
40
0
40
0
40
0
41
1
41
1
41
1
41
1
10
13.422817323241178
20
-13.254295848874836
30
0
10
13.44225885997713
20
-13.203630628872617
30
0
10
13.458166476361948
20
-12.813810360274815
30
0
10
13.458166476361948
20
-12.388030394344053
30
0
0
SPLINE
5
522
100
AcDbEntity
8
0
100
AcDbSpline
70
4
71
3
72
8
73
4
74
0
42
0.000000001
43
0.0000000001
44
0.0000000001
40
-1
40
-1
40
-1
40
-1
40
0
40
0
40
0
40
0
41
1
41
1
41
1
41
1
10
13.458166476361948
20
-12.388030394344053
30
0
10
13.458166476361948
20
-11.322550242690962
30
0
10
13.486828587466857
20
-11.350465228582149
30
0
10
12.392883507876642
20
-11.350465228582149
30
0
0
SPLINE
5
523
100
AcDbEntity
8
0
100
AcDbSpline
70
4
71
3
72
8
73
4
74
0
42
0.000000001
43
0.0000000001
44
0.0000000001
40
-1
40
-1
40
-1
40
-1
40
0
40
0
40
0
40
0
41
1
41
1
41
1
41
1
10
12.392883507876642
20
-11.350465228582149
30
0
10
11.600460888407662
20
-11.350465228582149
30
0
10
11.57073055105891
20
-11.354803258273488
30
0
10
11.435387371375933
20
-11.490146890211438
30
0
0
SPLINE
5
524
100
AcDbEntity
8
0
100
AcDbSpline
70
4
71
3
72
8
73
4
74
0
42
0.000000001
43
0.0000000001
44
0.0000000001
40
-1
40
-1
40
-1
40
-1
40
0
40
0
40
0
40
0
41
1
41
1
41
1
41
1
10
11.435387371375933
20
-11.490146890211438
30
0
10
11.314189370451921
20
-11.611343986625503
30
0
10
11.295706614256586
20
-11.68156471161662
30
0
10
11.295706614256586
20
-12.020840964544689
30
0
0
SPLINE
5
525
100
AcDbEntity
8
0
100
AcDbSpline
70
4
71
3
72
8
73
4
74
0
42
0.000000001
43
0.0000000001
44
0.0000000001
40
-1
40
-1
40
-1
40
-1
40
0
40
0
40
0
40
0
41
1
41
1
41
1
41
1
10
11.295706614256586
20
-12.020840964544689
30
0
10
11.295706614256586
20
-12.363820281183425
30
0
10
11.278316506073587
20
-12.428194253896642
30
0
10
11.154154878318119
20
-12.544838047252703
30
0
0
SPLINE
5
526
100
AcDbEntity
8
0
100
AcDbSpline
70
4
71
3
72
8
73
4
74
0
42
0.000000001
43
0.0000000001
44
0.0000000001
40
-1
40
-1
40
-1
40
-1
40
0
40
0
40
0
40
0
41
1
41
1
41
1
41
1
10
10.839637323831699
20
-11.406933784384957
30
0
10
10.780461569766548
20
-11.375265082226246
30
0
10
10.259441681539151
20
-11.350463419562256
30
0
10
9.6532811767946551
20
-11.350463419562256
30
0
0
LINE
5
527
100
AcDbEntity
8
0
100
AcDbLine
10
9.6532811767946551
20
-11.350463419562253
30
0
11
8.5724401850178893
21
-11.350463419562256
31
0
0
LINE
5
528
100
AcDbEntity
8
0
100
AcDbLine
10
8.5724401850178893
20
-11.350463419562256
30
0
11
8.4544961586173528
21
-11.50040584199607
31
0
0
SPLINE
5
529
100
AcDbEntity
8
0
100
AcDbSpline
70
4
71
3
72
8
73
4
74
0
42
0.000000001
43
0.0000000001
44
0.0000000001
40
-1
40
-1
40
-1
40
-1
40
0
40
0
40
0
40
0
41
1
41
1
41
1
41
1
10
8.4544961586173528
20
-11.500405841996081
30
0
10
8.3486739222310966
20
-11.634937224004339
30
0
10
8.3365521322168163
20
-11.72772909013759
30
0
10
8.3365521322168163
20
-12.403242442581956
30
0
0
SPLINE
5
530
100
AcDbEntity
8
0
100
AcDbSpline
70
4
71
3
72
8
73
4
74
0
42
0.000000001
43
0.0000000001
44
0.0000000001
40
-1
40
-1
40
-1
40
-1
40
0
40
0
40
0
40
0
41
1
41
1
41
1
41
1
10
8.3365521322168163
20
-12.403242442581956
30
0
10
8.3365521322168163
20
-13.078755795026321
30
0
10
8.3486739222310966
20
-13.17154585213968
30
0
10
8.4544961586173528
20
-13.306077234147931
30
0
0
SPLINE
5
531
100
AcDbEntity
8
0
100
AcDbSpline
70
4
71
3
72
8
73
4
74
0
42
0.000000001
43
0.0000000001
44
0.0000000001
40
-0.99999506012719974
40
-0.99999506012719974
40
-0.99999506012719974
40
-0.99999506012719974
40
0
40
0
40
0
40
0
41
1
41
1
41
1
41
1
10
8.4544980564363836
20
-13.306075741326755
30
0
10
8.5672996891279602
20
-13.44948011426051
30
0
10
8.596287008446426
20
-13.456016038541975
30
0
10
9.1194841810985654
20
-13.456016038541975
30
0
0
SPLINE
5
532
100
AcDbEntity
8
0
100
AcDbSpline
70
4
71
3
72
8
73
4
74
0
42
0.000000001
43
0.0000000001
44
0.0000000001
40
-1
40
-1
40
-1
40
-1
40
0
40
0
40
0
40
0
41
1
41
1
41
1
41
1
10
9.1194841810985654
20
-13.456016038541975
30
0
10
9.6028258030994369
20
-13.456016038541975
30
0
10
9.6818650477894082
20
-13.441607195134345
30
0
10
9.7982361313973616
20
-13.332282696244985
30
0
0
SPLINE
5
533
100
AcDbEntity
8
0
100
AcDbSpline
70
4
71
3
72
8
73
4
74
0
42
0.000000001
43
0.0000000001
44
0.0000000001
40
-1
40
-1
40
-1
40
-1
40
0
40
0
40
0
40
0
41
1
41
1
41
1
41
1
10
9.7982361313973616
20
-13.332282696244985
30
0
10
9.8960267717360288
20
-13.240413430254602
30
0
10
9.9299440856154746
20
-13.1459753560233
30
0
10
9.9299440856154746
20
-12.965561802596607
30
0
0
SPLINE
5
534
100
AcDbEntity
8
0
100
AcDbSpline
70
4
71
3
72
8
73
4
74
0
42
0.000000001
43
0.0000000001
44
0.0000000001
40
-1
40
-1
40
-1
40
-1
40
0
40
0
40
0
40
0
41
1
41
1
41
1
41
1
10
9.9299440856154746
20
-12.965561802596607
30
0
10
9.9299440856154746
20
-12.602361261650202
30
0
10
10.10606302582814
20
-12.424950681237522
30
0
10
10.502360942389771
20
-12.388949376447144
30
0
0
SPLINE
5
535
100
AcDbEntity
8
0
100
AcDbSpline
70
4
71
3
72
8
73
4
74
0
42
0.000000001
43
0.0000000001
44
0.0000000001
40
-1
40
-1
40
-1
40
-1
40
0
40
0
40
0
40
0
41
1
41
1
41
1
41
1
10
10.502360942389771
20
-12.388949376447144
30
0
10
10.852644629081137
20
-12.357128716617844
30
0
10
10.988538203065026
20
-12.265955923284327
30
0
10
11.040879932248417
20
-12.027642879323434
30
0
0
SPLINE
5
536
100
AcDbEntity
8
0
100
AcDbSpline
70
4
71
3
72
8
73
4
74
0
42
0.000000001
43
0.0000000001
44
0.0000000001
40
-1
40
-1
40
-1
40
-1
40
0
40
0
40
0
40
0
41
1
41
1
41
1
41
1
10
11.040879932248417
20
-12.027642879323434
30
0
10
11.086782907395571
20
-11.818646811666905
30
0
10
10.977161276989618
20
-11.480535567546685
30
0
10
10.839637323831699
20
-11.406933784384957
30
0
0
SPLINE
5
537
100
AcDbEntity
8
0
100
AcDbSpline
70
4
71
3
72
8
73
4
74
0
42
0.000000001
43
0.0000000001
44
0.0000000001
40
-1
40
-1
40
-1
40
-1
40
0
40
0
40
0
40
0
41
1
41
1
41
1
41
1
10
8.9056200409235196
20
-11.065929917463876
30
0
10
9.2935164168704691
20
-11.065929917463876
30
0
10
9.3651409412946478
20
-11.050477269580888
30
0
10
9.4157794782535191
20
-10.955858293360791
30
0
0
SPLINE
5
538
100
AcDbEntity
8
0
100
AcDbSpline
70
4
71
3
72
8
73
4
74
0
42
0.000000001
43
0.0000000001
44
0.0000000001
40
-1
40
-1
40
-1
40
-1
40
0
40
0
40
0
40
0
41
1
41
1
41
1
41
1
10
9.4157794782535191
20
-10.955858293360791
30
0
10
9.4488809241634932
20
-10.894007903391291
30
0
10
9.4746884018851958
20
-10.471607186611248
30
0
10
9.4746884018851958
20
-9.991669687784551
30
0
0
SPLINE
5
539
100
AcDbEntity
8
0
100
AcDbSpline
70
4
71
3
72
8
73
4
74
0
42
0.000000001
43
0.0000000001
44
0.0000000001
40
-1
40
-1
40
-1
40
-1
40
0
40
0
40
0
40
0
41
1
41
1
41
1
41
1
10
9.4746884018851958
20
-9.991669687784551
30
0
10
9.4746884018851958
20
-8.9900171848385177
30
0
10
9.4583330530781069
20
-8.9603772984841612
30
0
10
8.9056200409235196
20
-8.9603772984841612
30
0
0
SPLINE
5
540
100
AcDbEntity
8
0
100
AcDbSpline
70
4
71
3
72
8
73
4
74
0
42
0.000000001
43
0.0000000001
44
0.0000000001
40
-1
40
-1
40
-1
40
-1
40
0
40
0
40
0
40
0
41
1
41
1
41
1
41
1
10
8.9056200409235196
20
-8.9603772984841612
30
0
10
8.3529068026414457
20
-8.9603772984841612
30
0
10
8.3365514538343568
20
-8.9900171848385177
30
0
10
8.3365514538343568
20
-9.991669687784551
30
0
0
SPLINE
5
541
100
AcDbEntity
8
0
100
AcDbSpline
70
4
71
3
72
8
73
4
74
0
42
0.000000001
43
0.0000000001
44
0.0000000001
40
-1
40
-1
40
-1
40
-1
40
0
40
0
40
0
40
0
41
1
41
1
41
1
41
1
10
8.3365514538343568
20
-9.991669687784551
30
0
10
8.3365514538343568
20
-10.471607186611248
30
0
10
8.3623587054285746
20
-10.894007903391291
30
0
10
8.39546060359352
20
-10.955858293360791
30
0
0
SPLINE
5
542
100
AcDbEntity
8
0
100
AcDbSpline
70
4
71
3
72
8
73
4
74
0
42
0.000000001
43
0.0000000001
44
0.0000000001
40
-1
40
-1
40
-1
40
-1
40
0
40
0
40
0
40
0
41
1
41
1
41
1
41
1
10
8.39546060359352
20
-10.955858293360791
30
0
10
8.4460991405523913
20
-11.050477269580888
30
0
10
8.5177236649765717
20
-11.065929917463876
30
0
10
8.9056200409235196
20
-11.065929917463876
30
0
0
SPLINE
5
543
100
AcDbEntity
8
0
100
AcDbSpline
70
4
71
3
72
8
73
4
74
0
42
0.000000001
43
0.0000000001
44
0.0000000001
40
-1
40
-1
40
-1
40
-1
40
0
40
0
40
0
40
0
41
1
41
1
41
1
41
1
10
9.6917667181461837
20
-8.90347005535852
30
0
10
9.6172984144581264
20
-9.2456877746244217
30
0
10
9.6790352884296631
20
-10.959275531929155
30
0
10
9.7678613307135205
20
-11.015566803782949
30
0
0
SPLINE
5
544
100
AcDbEntity
8
0
100
AcDbSpline
70
4
71
3
72
8
73
4
74
0
42
0.000000001
43
0.0000000001
44
0.0000000001
40
-1
40
-1
40
-1
40
-1
40
0
40
0
40
0
40
0
41
1
41
1
41
1
41
1
10
9.7678613307135205
20
-11.015566803782949
30
0
10
9.8860314846000534
20
-11.090454800085009
30
0
10
10.636646749948234
20
-11.076252184944607
30
0
10
10.715257709179728
20
-10.997641225713103
30
0
0
SPLINE
5
545
100
AcDbEntity
8
0
100
AcDbSpline
70
4
71
3
72
8
73
4
74
0
42
0.000000001
43
0.0000000001
44
0.0000000001
40
-1
40
-1
40
-1
40
-1
40
0
40
0
40
0
40
0
41
1
41
1
41
1
41
1
10
10.715257709179728
20
-10.997641225713103
30
0
10
10.821383408652192
20
-10.891516883005558
30
0
10
10.810713809352979
20
-8.826139882207702
30
0
10
10.70358048580292
20
-8.7372265547142458
30
0
0
SPLINE
5
546
100
AcDbEntity
8
0
100
AcDbSpline
70
4
71
3
72
8
73
4
74
0
42
0.000000001
43
0.0000000001
44
0.0000000001
40
-1
40
-1
40
-1
40
-1
40
0
40
0
40
0
40
0
41
1
41
1
41
1
41
1
10
10.70358048580292
20
-8.7372265547142458
30
0
10
10.653447117647758
20
-8.6956209063109533
30
0
10
10.457877143344723
20
-8.6770983516780831
30
0
10
10.179361345903658
20
-8.6875789083990043
30
0
0
LINE
5
547
100
AcDbEntity
8
0
100
AcDbLine
10
10.179361345903658
20
-8.6875789083990043
30
0
11
9.7351081211319812
21
-8.7042960611836904
31
0
0
LINE
5
548
100
AcDbEntity
8
0
100
AcDbLine
10
9.7351081211319812
20
-8.7042960611836904
30
0
11
9.6917667181461837
21
-8.90347005535852
31
0
0
SPLINE
5
549
100
AcDbEntity
8
0
100
AcDbSpline
70
4
71
3
72
8
73
4
74
0
42
0.000000001
43
0.0000000001
44
0.0000000001
40
-1
40
-1
40
-1
40
-1
40
0
40
0
40
0
40
0
41
1
41
1
41
1
41
1
10
11.0666715810461
20
-10.919958293684132
30
0
10
11.119853599967451
20
-11.059837138481207
30
0
10
11.141143502773934
20
-11.065928108443991
30
0
10
11.576831018376099
20
-11.065928108443991
30
0
0
SPLINE
5
550
100
AcDbEntity
8
0
100
AcDbSpline
70
4
71
3
72
8
73
4
74
0
42
0.000000001
43
0.0000000001
44
0.0000000001
40
-1
40
-1
40
-1
40
-1
40
0
40
0
40
0
40
0
41
1
41
1
41
1
41
1
10
11.576831018376099
20
-11.065928108443991
30
0
10
11.968098955139236
20
-11.065928108443991
30
0
10
12.039705389364535
20
-11.0505803837145
30
0
10
12.090400910449882
20
-10.955856484340906
30
0
0
SPLINE
5
551
100
AcDbEntity
8
0
100
AcDbSpline
70
4
71
3
72
8
73
4
74
0
42
0.000000001
43
0.0000000001
44
0.0000000001
40
-1
40
-1
40
-1
40
-1
40
0
40
0
40
0
40
0
41
1
41
1
41
1
41
1
10
12.090400910449882
20
-10.955856484340906
30
0
10
12.176909146002284
20
-10.794215130291608
30
0
10
12.168586297752737
20
-8.831694477773695
30
0
10
12.081021594585762
20
-8.7441297746067193
30
0
0
SPLINE
5
552
100
AcDbEntity
8
0
100
AcDbSpline
70
4
71
3
72
8
73
4
74
0
42
0.000000001
43
0.0000000001
44
0.0000000001
40
-1
40
-1
40
-1
40
-1
40
0
40
0
40
0
40
0
41
1
41
1
41
1
41
1
10
12.081021594585762
20
-8.7441297746067193
30
0
10
12.039545291104455
20
-8.7026534711254122
30
0
10
11.837906055077301
20
-8.6758419873658923
30
0
10
11.567451702511974
20
-8.6758419873658923
30
0
0
SPLINE
5
553
100
AcDbEntity
8
0
100
AcDbSpline
70
4
71
3
72
8
73
4
74
0
42
0.000000001
43
0.0000000001
44
0.0000000001
40
-1
40
-1
40
-1
40
-1
40
0
40
0
40
0
40
0
41
1
41
1
41
1
41
1
10
11.567451702511974
20
-8.6758419873658923
30
0
10
11.141833191606221
20
-8.6758419873658923
30
0
10
11.119718827985798
20
-8.6822875252267107
30
0
10
11.0666715810461
20
-8.8218136111456324
30
0
0
SPLINE
5
554
100
AcDbEntity
8
0
100
AcDbSpline
70
4
71
3
72
8
73
4
74
0
42
0.000000001
43
0.0000000001
44
0.0000000001
40
-1
40
-1
40
-1
40
-1
40
0
40
0
40
0
40
0
41
1
41
1
41
1
41
1
10
11.0666715810461
20
-8.8218136111456324
30
0
10
11.036147083966533
20
-8.902097913773499
30
0
10
11.011173112158211
20
-9.374180648246643
30
0
10
11.011173112158211
20
-9.8708850479049417
30
0
0
SPLINE
5
555
100
AcDbEntity
8
0
100
AcDbSpline
70
4
71
3
72
8
73
4
74
0
42
0.000000001
43
0.0000000001
44
0.0000000001
40
-1
40
-1
40
-1
40
-1
40
0
40
0
40
0
40
0
41
1
41
1
41
1
41
1
10
11.011173112158211
20
-9.8708850479049417
30
0
10
11.011173112158211
20
-10.367592161093068
30
0
10
11.036147083966533
20
-10.839673991056266
30
0
10
11.0666715810461
20
-10.919958293684132
30
0
0
SPLINE
5
556
100
AcDbEntity
8
0
100
AcDbSpline
70
4
71
3
72
8
73
4
74
0
42
0.000000001
43
0.0000000001
44
0.0000000001
40
-1
40
-1
40
-1
40
-1
40
0
40
0
40
0
40
0
41
1
41
1
41
1
41
1
10
12.898478335774339
20
-11.065929917463876
30
0
10
13.277101675775585
20
-11.065929917463876
30
0
10
13.348780470796397
20
-11.050175163259595
30
0
10
13.399258457240217
20
-10.955858293360791
30
0
0
SPLINE
5
557
100
AcDbEntity
8
0
100
AcDbSpline
70
4
71
3
72
8
73
4
74
0
42
0.000000001
43
0.0000000001
44
0.0000000001
40
-1
40
-1
40
-1
40
-1
40
0
40
0
40
0
40
0
41
1
41
1
41
1
41
1
10
13.399258457240217
20
-10.955858293360791
30
0
10
13.43213106213436
20
-10.894434832084844
30
0
10
13.45816738087189
20
-10.479443860765908
30
0
10
13.45816738087189
20
-10.016895565612266
30
0
0
SPLINE
5
558
100
AcDbEntity
8
0
100
AcDbSpline
70
4
71
3
72
8
73
4
74
0
42
0.000000001
43
0.0000000001
44
0.0000000001
40
-1
40
-1
40
-1
40
-1
40
0
40
0
40
0
40
0
41
1
41
1
41
1
41
1
10
13.45816738087189
20
-10.016895565612266
30
0
10
13.458167380871895
20
-9.0112795000917068
30
0
10
13.431360419662093
20
-8.9603772984841612
30
0
10
12.901761706871
20
-8.9603772984841612
30
0
0
SPLINE
5
559
100
AcDbEntity
8
0
100
AcDbSpline
70
4
71
3
72
8
73
4
74
0
42
0.000000001
43
0.0000000001
44
0.0000000001
40
-1
40
-1
40
-1
40
-1
40
0
40
0
40
0
40
0
41
1
41
1
41
1
41
1
10
12.901761706871
20
-8.9603772984841612
30
0
10
12.330950807502241
20
-8.9603772984841612
30
0
10
12.320030658948545
20
-8.9805198304267009
30
0
10
12.320030658948539
20
-10.03345262013687
30
0
0
SPLINE
5
560
100
AcDbEntity
8
0
100
AcDbSpline
70
4
71
3
72
8
73
4
74
0
42
0.000000001
43
0.0000000001
44
0.0000000001
40
-1
40
-1
40
-1
40
-1
40
0
40
0
40
0
40
0
41
1
41
1
41
1
41
1
10
12.320030658948539
20
-10.03345262013687
30
0
10
12.320030658948539
20
-10.654388747071287
30
0
10
12.340989058860552
20
-10.950311838384291
30
0
10
12.388318446189366
20
-10.997641225713103
30
0
0
SPLINE
5
561
100
AcDbEntity
8
0
100
AcDbSpline
70
4
71
3
72
8
73
4
74
0
42
0.000000001
43
0.0000000001
44
0.0000000001
40
-1
40
-1
40
-1
40
-1
40
0
40
0
40
0
40
0
41
1
41
1
41
1
41
1
10
12.388318446189366
20
-10.997641225713103
30
0
10
12.429706107696161
20
-11.039029791729845
30
0
10
12.630676458619742
20
-11.065929917463876
30
0
10
12.898478335774339
20
-11.065929917463876
30
0
0
SPLINE
5
562
100
AcDbEntity
8
0
100
AcDbSpline
70
4
71
3
72
8
73
4
74
0
42
0.000000001
43
0.0000000001
44
0.0000000001
40
-1
40
-1
40
-1
40
-1
40
0
40
0
40
0
40
0
41
1
41
1
41
1
41
1
10
5.3940169915575353
20
0.7478940336508999
30
0
10
5.5002193889209616
20
0.58379384062564599
30
0
10
5.5714683667065206
20
0.45274535998123699
30
0
10
5.5523480533032199
20
0.45668298823826614
30
0
0
SPLINE
5
563
100
AcDbEntity
8
0
100
AcDbSpline
70
4
71
3
72
8
73
4
74
0
42
0.000000001
43
0.0000000001
44
0.0000000001
40
-1
40
-1
40
-1
40
-1
40
0
40
0
40
0
40
0
41
1
41
1
41
1
41
1
10
5.5523480533032199
20
0.45668298823826614
30
0
10
5.5332298047285811
20
0.4606185516666339
30
0
10
5.4531392306154931
20
0.47238394537851391
30
0
10
5.3743722116742738
20
0.48283094599017584
30
0
0
SPLINE
5
564
100
AcDbEntity
8
0
100
AcDbSpline
70
4
71
3
72
8
73
4
74
0
42
0.000000001
43
0.0000000001
44
0.0000000001
40
-1
40
-1
40
-1
40
-1
40
0
40
0
40
0
40
0
41
1
41
1
41
1
41
1
10
5.3743722116742738
20
0.48283094599017584
30
0
10
4.8926724629454394
20
0.54671984201266177
30
0
10
4.0023637704391763
20
0.88832303090342846
30
0
10
3.8965123939481661
20
1.0498731605320222
30
0
0
SPLINE
5
565
100
AcDbEntity
8
0
100
AcDbSpline
70
4
71
3
72
8
73
4
74
0
42
0.000000001
43
0.0000000001
44
0.0000000001
40
-1
40
-1
40
-1
40
-1
40
0
40
0
40
0
40
0
41
1
41
1
41
1
41
1
10
3.8965123939481661
20
1.0498731605320222
30
0
10
3.817132120894553
20
1.1710218201600053
30
0
10
3.594980302472206
20
2.0154283391120509
30
0
10
3.4641682447095112
20
2.6932217685580873
30
0
0
SPLINE
5
566
100
AcDbEntity
8
0
100
AcDbSpline
70
4
71
3
72
8
73
4
74
0
42
0.000000001
43
0.0000000001
44
0.0000000001
40
-1
40
-1
40
-1
40
-1
40
0
40
0
40
0
40
0
41
1
41
1
41
1
41
1
10
3.4641682447095112
20
2.6932217685580873
30
0
10
3.3523350595868195
20
3.2726746357684555
30
0
10
3.3184212812398983
20
4.236585178319789
30
0
10
3.3922099982788101
20
4.7383932609663386
30
0
0
SPLINE
5
567
100
AcDbEntity
8
0
100
AcDbSpline
70
4
71
3
72
8
73
4
74
0
42
0.000000001
43
0.0000000001
44
0.0000000001
40
-1
40
-1
40
-1
40
-1
40
0
40
0
40
0
40
0
41
1
41
1
41
1
41
1
10
3.3922099982788101
20
4.7383932609663386
30
0
10
3.6119924258123559
20
6.2330411681228508
30
0
10
4.3713321335776705
20
7.2202636262598467
30
0
10
5.4553176248531265
20
7.420649053349484
30
0
0
SPLINE
5
568
100
AcDbEntity
8
0
100
AcDbSpline
70
4
71
3
72
8
73
4
74
0
42
0.000000001
43
0.0000000001
44
0.0000000001
40
-1
40
-1
40
-1
40
-1
40
0
40
0
40
0
40
0
41
1
41
1
41
1
41
1
10
5.4553176248531265
20
7.420649053349484
30
0
10
6.2244807549744019
20
7.5628362522070791
30
0
10
7.3488666838361372
20
7.068708299766099
30
0
10
8.2804657550816874
20
6.1790954545186816
30
0
0
SPLINE
5
569
100
AcDbEntity
8
0
100
AcDbSpline
70
4
71
3
72
8
73
4
74
0
42
0.000000001
43
0.0000000001
44
0.0000000001
40
-1
40
-1
40
-1
40
-1
40
0
40
0
40
0
40
0
41
1
41
1
41
1
41
1
10
8.2804657550816874
20
6.1790954545186816
30
0
10
9.3567287871640215
20
5.1513393773467513
30
0
10
9.8253251332084766
20
3.8568435716411531
30
0
10
9.6849766642737336
20
2.2991265054406784
30
0
0
LINE
5
570
100
AcDbEntity
8
0
100
AcDbLine
10
9.6849766642737336
20
2.2991265054406793
30
0
11
9.6323111444395497
21
1.7145900300662764
31
0
0
LINE
5
571
100
AcDbEntity
8
0
100
AcDbLine
10
9.6323111444395497
20
1.7145900300662764
30
0
11
9.4529394786355923
21
1.5475071920398276
31
0
0
SPLINE
5
572
100
AcDbEntity
8
0
100
AcDbSpline
70
4
71
3
72
8
73
4
74
0
42
0.000000001
43
0.0000000001
44
0.0000000001
40
-1
40
-1
40
-1
40
-1
40
0
40
0
40
0
40
0
41
1
41
1
41
1
41
1
10
9.4529394786355923
20
1.5475071920398276
30
0
10
9.3542860948577466
20
1.4556109600559664
30
0
10
9.1549681841859822
20
1.3088759760719371
30
0
10
9.0100110176793002
20
1.2214304822674293
30
0
0
SPLINE
5
573
100
AcDbEntity
8
0
100
AcDbSpline
70
4
71
3
72
8
73
4
74
0
42
0.000000001
43
0.0000000001
44
0.0000000001
40
-1
40
-1
40
-1
40
-1
40
0
40
0
40
0
40
0
41
1
41
1
41
1
41
1
10
9.0100110176793002
20
1.2214304822674293
30
0
10
8.7255333785310505
20
1.0498174101581692
30
0
10
7.9812638227499644
20
0.71488258542895089
30
0
10
7.9511999174419712
20
0.7449464907369463
30
0
0
SPLINE
5
574
100
AcDbEntity
8
0
100
AcDbSpline
70
4
71
3
72
8
73
4
74
0
42
0.000000001
43
0.0000000001
44
0.0000000001
40
-1
40
-1
40
-1
40
-1
40
0
40
0
40
0
40
0
41
1
41
1
41
1
41
1
10
7.9511999174419712
20
0.7449464907369463
30
0
10
7.9410884514877633
20
0.75505692427682236
30
0
10
7.9831510761463598
20
0.90217493397751536
30
0
10
8.0446705812800445
20
1.0718759747464457
30
0
0
SPLINE
5
575
100
AcDbEntity
8
0
100
AcDbSpline
70
4
71
3
72
8
73
4
74
0
42
0.000000001
43
0.0000000001
44
0.0000000001
40
-1
40
-1
40
-1
40
-1
40
0
40
0
40
0
40
0
41
1
41
1
41
1
41
1
10
8.0446705812800445
20
1.0718759747464457
30
0
10
8.2238419587038614
20
1.5661267844927718
30
0
10
8.2786714189750512
20
2.0370233496658763
30
0
10
8.2486942364708291
20
2.824175267084077
30
0
0
SPLINE
5
576
100
AcDbEntity
8
0
100
AcDbSpline
70
4
71
3
72
8
73
4
74
0
42
0.000000001
43
0.0000000001
44
0.0000000001
40
-1
40
-1
40
-1
40
-1
40
0
40
0
40
0
40
0
41
1
41
1
41
1
41
1
10
8.2486942364708291
20
2.824175267084077
30
0
10
8.2164333534672451
20
3.6713166515979667
30
0
10
8.0757524471180453
20
4.3340327021594565
30
0
10
7.7824579895861934
20
5.0205077037117736
30
0
0
SPLINE
5
577
100
AcDbEntity
8
0
100
AcDbSpline
70
4
71
3
72
8
73
4
74
0
42
0.000000001
43
0.0000000001
44
0.0000000001
40
-1
40
-1
40
-1
40
-1
40
0
40
0
40
0
40
0
41
1
41
1
41
1
41
1
10
7.7824579895861934
20
5.0205077037117736
30
0
10
7.4302312572332241
20
5.8449163570794838
30
0
10
6.9332476467537196
20
6.481561880963862
30
0
10
6.4730530885319437
20
6.6978795260038071
30
0
0
SPLINE
5
578
100
AcDbEntity
8
0
100
AcDbSpline
70
4
71
3
72
8
73
4
74
0
42
0.000000001
43
0.0000000001
44
0.0000000001
40
-1
40
-1
40
-1
40
-1
40
0
40
0
40
0
40
0
41
1
41
1
41
1
41
1
10
6.4730530885319437
20
6.6978795260038071
30
0
10
6.1598309695902405
20
6.8451111012808692
30
0
10
5.6882757240741944
20
6.837861487851173
30
0
10
5.4218384929393988
20
6.6817191444864292
30
0
0
SPLINE
5
579
100
AcDbEntity
8
0
100
AcDbSpline
70
4
71
3
72
8
73
4
74
0
42
0.000000001
43
0.0000000001
44
0.0000000001
40
-1
40
-1
40
-1
40
-1
40
0
40
0
40
0
40
0
41
1
41
1
41
1
41
1
10
5.4218384929393988
20
6.6817191444864292
30
0
10
5.0873094070421203
20
6.485670889999775
30
0
10
4.7894764561128138
20
5.9992406188079865
30
0
10
4.5873596701907076
20
5.3188176300618313
30
0
0
SPLINE
5
580
100
AcDbEntity
8
0
100
AcDbSpline
70
4
71
3
72
8
73
4
74
0
42
0.000000001
43
0.0000000001
44
0.0000000001
40
-1
40
-1
40
-1
40
-1
40
0
40
0
40
0
40
0
41
1
41
1
41
1
41
1
10
4.5873596701907076
20
5.3188176300618313
30
0
10
4.4379786082772714
20
4.8159255123681195
30
0
10
4.4003171659101543
20
3.7031790226699246
30
0
10
4.5107524620291723
20
3.0552997984539432
30
0
0
SPLINE
5
581
100
AcDbEntity
8
0
100
AcDbSpline
70
4
71
3
72
8
73
4
74
0
42
0.000000001
43
0.0000000001
44
0.0000000001
40
-1
40
-1
40
-1
40
-1
40
0
40
0
40
0
40
0
41
1
41
1
41
1
41
1
10
4.5107524620291723
20
3.0552997984539432
30
0
10
4.6518494313536207
20
2.2275368309260113
30
0
10
4.9637603840954192
20
1.4127151770325486
30
0
10
5.3940169915575353
20
0.7478940336508999
30
0
0
SPLINE
5
582
100
AcDbEntity
8
0
100
AcDbSpline
70
4
71
3
72
8
73
4
74
0
42
0.000000001
43
0.0000000001
44
0.0000000001
40
-1
40
-1
40
-1
40
-1
40
0
40
0
40
0
40
0
41
1
41
1
41
1
41
1
10
7.1645518182171148
20
0.16557208701570403
30
0
10
7.6683369743068219
20
0.24572460598863088
30
0
10
8.5426969302334896
20
0.53668683954758212
30
0
10
8.9785987792554991
20
0.76923919993671097
30
0
0
SPLINE
5
583
100
AcDbEntity
8
0
100
AcDbSpline
70
4
71
3
72
8
73
4
74
0
42
0.000000001
43
0.0000000001
44
0.0000000001
40
-1
40
-1
40
-1
40
-1
40
0
40
0
40
0
40
0
41
1
41
1
41
1
41
1
10
8.9785987792554991
20
0.76923919993671097
30
0
10
9.8081333697747972
20
1.2117939269053135
30
0
10
9.9899725058289626
20
1.4511158280603964
30
0
10
10.079135937079645
20
2.2176979223550908
30
0
0
SPLINE
5
584
100
AcDbEntity
8
0
100
AcDbSpline
70
4
71
3
72
8
73
4
74
0
42
0.000000001
43
0.0000000001
44
0.0000000001
40
-1
40
-1
40
-1
40
-1
40
0
40
0
40
0
40
0
41
1
41
1
41
1
41
1
10
10.079135937079645
20
2.2176979223550908
30
0
10
10.21715527928448
20
3.404295073952035
30
0
10
9.9950457898496872
20
4.4980750799821951
30
0
10
9.4161111946332952
20
5.4827639933518224
30
0
0
SPLINE
5
585
100
AcDbEntity
8
0
100
AcDbSpline
70
4
71
3
72
8
73
4
74
0
42
0.000000001
43
0.0000000001
44
0.0000000001
40
-1
40
-1
40
-1
40
-1
40
0
40
0
40
0
40
0
41
1
41
1
41
1
41
1
10
9.4161111946332952
20
5.4827639933518224
30
0
10
9.1579353429722197
20
5.9218859426710724
30
0
10
8.409150006908952
20
6.7094425665068824
30
0
10
7.9283608476197331
20
7.0475479356454702
30
0
0
SPLINE
5
586
100
AcDbEntity
8
0
100
AcDbSpline
70
4
71
3
72
8
73
4
74
0
42
0.000000001
43
0.0000000001
44
0.0000000001
40
-1
40
-1
40
-1
40
-1
40
0
40
0
40
0
40
0
41
1
41
1
41
1
41
1
10
7.9283608476197331
20
7.0475479356454702
30
0
10
6.1826493911258655
20
8.2751861379208549
30
0
10
4.4539913545453702
20
8.0728200239379007
30
0
10
3.5451890241344985
20
6.5344287215925201
30
0
0
SPLINE
5
587
100
AcDbEntity
8
0
100
AcDbSpline
70
4
71
3
72
8
73
4
74
0
42
0.000000001
43
0.0000000001
44
0.0000000001
40
-1
40
-1
40
-1
40
-1
40
0
40
0
40
0
40
0
41
1
41
1
41
1
41
1
10
3.5451890241344985
20
6.5344287215925201
30
0
10
3.1403731706078086
20
5.8491709365360194
30
0
10
2.9487787515435016
20
5.0343368936705879
30
0
10
2.9507000746128087
20
4.0060202155171254
30
0
0
SPLINE
5
588
100
AcDbEntity
8
0
100
AcDbSpline
70
4
71
3
72
8
73
4
74
0
42
0.000000001
43
0.0000000001
44
0.0000000001
40
-1
40
-1
40
-1
40
-1
40
0
40
0
40
0
40
0
41
1
41
1
41
1
41
1
10
2.9507000746128087
20
4.0060202155171254
30
0
10
2.9520876394731776
20
3.2606294577729766
30
0
10
3.0502681774875939
20
2.5171207913535687
30
0
10
3.2285485813440751
20
1.9019112862161003
30
0
0
SPLINE
5
589
100
AcDbEntity
8
0
100
AcDbSpline
70
4
71
3
72
8
73
4
74
0
42
0.000000001
43
0.0000000001
44
0.0000000001
40
-1
40
-1
40
-1
40
-1
40
0
40
0
40
0
40
0
41
1
41
1
41
1
41
1
10
3.2285485813440751
20
1.9019112862161003
30
0
10
3.3055274586646388
20
1.636272111358883
30
0
10
3.3455035739610306
20
1.3781933066448837
30
0
10
3.3455035739610306
20
1.1468571303372377
30
0
0
SPLINE
5
590
100
AcDbEntity
8
0
100
AcDbSpline
70
4
71
3
72
8
73
4
74
0
42
0.000000001
43
0.0000000001
44
0.0000000001
40
-1
40
-1
40
-1
40
-1
40
0
40
0
40
0
40
0
41
1
41
1
41
1
41
1
10
3.3455035739610306
20
1.1468571303372377
30
0
10
3.3455035739610306
20
0.74185853947402736
30
0
10
3.3608689964438221
20
0.72091807960582344
30
0
10
3.7301429542241826
20
0.62267662914589961
30
0
0
SPLINE
5
591
100
AcDbEntity
8
0
100
AcDbSpline
70
4
71
3
72
8
73
4
74
0
42
0.000000001
43
0.0000000001
44
0.0000000001
40
-1
40
-1
40
-1
40
-1
40
0
40
0
40
0
40
0
41
1
41
1
41
1
41
1
10
3.7301429542241826
20
0.62267662914589961
30
0
10
3.8730456162129046
20
0.58465797142038589
30
0
10
4.1117573604985846
20
0.49896138749196739
30
0
10
4.2606118911033981
20
0.43223851413189962
30
0
0
SPLINE
5
592
100
AcDbEntity
8
0
100
AcDbSpline
70
4
71
3
72
8
73
4
74
0
42
0.000000001
43
0.0000000001
44
0.0000000001
40
-1
40
-1
40
-1
40
-1
40
0
40
0
40
0
40
0
41
1
41
1
41
1
41
1
10
4.2606118911033981
20
0.43223851413189962
30
0
10
4.5730555696398056
20
0.29219047776737339
30
0
10
5.0088273344561562
20
0.17266993553879839
30
0
10
5.4207751061788496
20
0.11403912570222108
30
0
0
SPLINE
5
593
100
AcDbEntity
8
0
100
AcDbSpline
70
4
71
3
72
8
73
4
74
0
42
0.000000001
43
0.0000000001
44
0.0000000001
40
-1
40
-1
40
-1
40
-1
40
0
40
0
40
0
40
0
41
1
41
1
41
1
41
1
10
5.4207751061788496
20
0.11403912570222108
30
0
10
5.7569477956904951
20
0.066190851134761974
30
0
10
6.7185178549542846
20
0.094610120414062582
30
0
10
7.1645518182171148
20
0.16557208701570403
30
0
0
SPLINE
5
594
100
AcDbEntity
8
0
100
AcDbSpline
70
4
71
3
72
8
73
4
74
0
42
0.000000001
43
0.0000000001
44
0.0000000001
40
-1
40
-1
40
-1
40
-1
40
0
40
0
40
0
40
0
41
1
41
1
41
1
41
1
10
-0.74064987350176859
20
-1.9330082635447887
30
0
10
-0.58192649431044519
20
-1.9367249551350629
30
0
10
-0.52670058693629285
20
-1.9084223486751228
30
0
10
-0.36881965783876369
20
-1.7424555505400874
30
0
0
SPLINE
5
595
100
AcDbEntity
8
0
100
AcDbSpline
70
4
71
3
72
8
73
4
74
0
42
0.000000001
43
0.0000000001
44
0.0000000001
40
-1
40
-1
40
-1
40
-1
40
0
40
0
40
0
40
0
41
1
41
1
41
1
41
1
10
-0.36881965783876369
20
-1.7424555505400874
30
0
10
-0.045342567350896701
20
-1.4024113072885735
30
0
10
0.76192387847100473
20
-1.0797219489349774
30
0
10
1.2927613872662569
20
-1.0782745040434327
30
0
0
SPLINE
5
596
100
AcDbEntity
8
0
100
AcDbSpline
70
4
71
3
72
8
73
4
74
0
42
0.000000001
43
0.0000000001
44
0.0000000001
40
-1
40
-1
40
-1
40
-1
40
0
40
0
40
0
40
0
41
1
41
1
41
1
41
1
10
1.2927613872662569
20
-1.0782745040434327
30
0
10
1.6740660692414688
20
-1.0772338303981543
30
0
10
2.4694153564448862
20
-1.2527814335214527
30
0
10
2.6239316472388863
20
-1.3720872335692569
30
0
0
SPLINE
5
597
100
AcDbEntity
8
0
100
AcDbSpline
70
4
71
3
72
8
73
4
74
0
42
0.000000001
43
0.0000000001
44
0.0000000001
40
-1
40
-1
40
-1
40
-1
40
0
40
0
40
0
40
0
41
1
41
1
41
1
41
1
10
2.6239316472388863
20
-1.3720872335692569
30
0
10
2.8302637808729614
20
-1.5314032185863624
30
0
10
3.2291009230109635
20
-1.4626630076242408
30
0
10
3.3439952166239761
20
-1.2479827717126768
30
0
0
SPLINE
5
598
100
AcDbEntity
8
0
100
AcDbSpline
70
4
71
3
72
8
73
4
74
0
42
0.000000001
43
0.0000000001
44
0.0000000001
40
-1
40
-1
40
-1
40
-1
40
0
40
0
40
0
40
0
41
1
41
1
41
1
41
1
10
3.3439952166239761
20
-1.2479827717126768
30
0
10
3.3751927128670078
20
-1.1896885289478876
30
0
10
3.4639731184010225
20
-1.1046279122471381
30
0
10
3.5412813358930584
20
-1.0589600967459734
30
0
0
SPLINE
5
599
100
AcDbEntity
8
0
100
AcDbSpline
70
4
71
3
72
8
73
4
74
0
42
0.000000001
43
0.0000000001
44
0.0000000001
40
-1
40
-1
40
-1
40
-1
40
0
40
0
40
0
40
0
41
1
41
1
41
1
41
1
10
3.5412813358930584
20
-1.0589600967459734
30
0
10
3.7500489349330923
20
-0.93564026978067316
30
0
10
3.8310108667412335
20
-0.78309485794384903
30
0
10
3.8138810481673935
20
-0.54534635622865091
30
0
0
SPLINE
5
600
100
AcDbEntity
8
0
100
AcDbSpline
70
4
71
3
72
8
73
4
74
0
42
0.000000001
43
0.0000000001
44
0.0000000001
40
-1
40
-1
40
-1
40
-1
40
0
40
0
40
0
40
0
41
1
41
1
41
1
41
1
10
3.8138810481673935
20
-0.54534635622865091
30
0
10
3.8026452830071267
20
-0.38941565780168608
30
0
10
3.777426498152785
20
-0.33487424112874198
30
0
10
3.7107056896213786
20
-0.32220858212055115
30
0
0
SPLINE
5
601
100
AcDbEntity
8
0
100
AcDbSpline
70
4
71
3
72
8
73
4
74
0
42
0.000000001
43
0.0000000001
44
0.0000000001
40
-1
40
-1
40
-1
40
-1
40
0
40
0
40
0
40
0
41
1
41
1
41
1
41
1
10
3.7107056896213786
20
-0.32220858212055115
30
0
10
3.6352485910241672
20
-0.30788383328303581
30
0
10
3.627039864681314
20
-0.32656537059581714
30
0
10
3.6542852788666846
20
-0.45061201724988287
30
0
0
SPLINE
5
602
100
AcDbEntity
8
0
100
AcDbSpline
70
4
71
3
72
8
73
4
74
0
42
0.000000001
43
0.0000000001
44
0.0000000001
40
-1
40
-1
40
-1
40
-1
40
0
40
0
40
0
40
0
41
1
41
1
41
1
41
1
10
3.6542852788666846
20
-0.45061201724988287
30
0
10
3.696094962014278
20
-0.64096857153176146
30
0
10
3.5474964701634604
20
-0.84623525357662599
30
0
10
3.2812708839664451
20
-0.96587555586755469
30
0
0
SPLINE
5
603
100
AcDbEntity
8
0
100
AcDbSpline
70
4
71
3
72
8
73
4
74
0
42
0.000000001
43
0.0000000001
44
0.0000000001
40
-1
40
-1
40
-1
40
-1
40
0
40
0
40
0
40
0
41
1
41
1
41
1
41
1
10
3.2812708839664451
20
-0.96587555586755469
30
0
10
3.0367538738996247
20
-1.0757574779053525
30
0
10
2.2760761571618127
20
-1.0855819326756433
30
0
10
1.9849631911105892
20
-0.98261718665307862
30
0
0
SPLINE
5
604
100
AcDbEntity
8
0
100
AcDbSpline
70
4
71
3
72
8
73
4
74
0
42
0.000000001
43
0.0000000001
44
0.0000000001
40
-1
40
-1
40
-1
40
-1
40
0
40
0
40
0
40
0
41
1
41
1
41
1
41
1
10
1.9849631911105892
20
-0.98261718665307862
30
0
10
1.7426844553125775
20
-0.89692473238198289
30
0
10
0.90683974840445991
20
-0.89325140219359556
30
0
10
0.64829635724167556
20
-0.97674481394044443
30
0
0
SPLINE
5
605
100
AcDbEntity
8
0
100
AcDbSpline
70
4
71
3
72
8
73
4
74
0
42
0.000000001
43
0.0000000001
44
0.0000000001
40
-1
40
-1
40
-1
40
-1
40
0
40
0
40
0
40
0
41
1
41
1
41
1
41
1
10
0.64829635724167556
20
-0.97674481394044443
30
0
10
0.5432729770438316
20
-1.0106596247016975
30
0
10
0.18728102962704662
20
-1.1662176215553055
30
0
10
-0.14279835050521106
20
-1.3224281042658714
30
0
0
SPLINE
5
606
100
AcDbEntity
8
0
100
AcDbSpline
70
4
71
3
72
8
73
4
74
0
42
0.000000001
43
0.0000000001
44
0.0000000001
40
-1
40
-1
40
-1
40
-1
40
0
40
0
40
0
40
0
41
1
41
1
41
1
41
1
10
-0.14279835050521106
20
-1.3224281042658714
30
0
10
-0.79532860128068705
20
-1.6312397491871145
30
0
10
-0.99914783843400468
20
-1.6859742273398859
30
0
10
-1.2038632112263103
20
-1.6073723946915686
30
0
0
SPLINE
5
607
100
AcDbEntity
8
0
100
AcDbSpline
70
4
71
3
72
8
73
4
74
0
42
0.000000001
43
0.0000000001
44
0.0000000001
40
-1
40
-1
40
-1
40
-1
40
0
40
0
40
0
40
0
41
1
41
1
41
1
41
1
10
-1.2038632112263103
20
-1.6073723946915686
30
0
10
-1.3749528492699414
20
-1.5416798708334722
30
0
10
-1.4910271924628682
20
-1.2780900384225591
30
0
10
-1.448557796558001
20
-1.0517063536589544
30
0
0
SPLINE
5
608
100
AcDbEntity
8
0
100
AcDbSpline
70
4
71
3
72
8
73
4
74
0
42
0.000000001
43
0.0000000001
44
0.0000000001
40
-1
40
-1
40
-1
40
-1
40
0
40
0
40
0
40
0
41
1
41
1
41
1
41
1
10
-1.448557796558001
20
-1.0517063536589544
30
0
10
-1.4245510661278216
20
-0.92373859737715058
30
0
10
-1.4335537190909298
20
-0.8871374445275948
30
0
10
-1.4890366976334102
20
-0.8871374445275948
30
0
0
SPLINE
5
609
100
AcDbEntity
8
0
100
AcDbSpline
70
4
71
3
72
8
73
4
74
0
42
0.000000001
43
0.0000000001
44
0.0000000001
40
-1
40
-1
40
-1
40
-1
40
0
40
0
40
0
40
0
41
1
41
1
41
1
41
1
10
-1.4890366976334102
20
-0.8871374445275948
30
0
10
-1.5282797987550523
20
-0.8871374445275948
30
0
10
-1.5733426194584665
20
-0.93547301865910981
30
0
10
-1.5891736608043749
20
-0.99454776665785838
30
0
0
SPLINE
5
610
100
AcDbEntity
8
0
100
AcDbSpline
70
4
71
3
72
8
73
4
74
0
42
0.000000001
43
0.0000000001
44
0.0000000001
40
-1
40
-1
40
-1
40
-1
40
0
40
0
40
0
40
0
41
1
41
1
41
1
41
1
10
-1.5891736608043749
20
-0.99454776665785838
30
0
10
-1.6820888857325689
20
-1.3412593416565932
30
0
10
-1.5397127550524692
20
-1.7216276238339234
30
0
10
-1.2985108274013069
20
-1.7710782054425223
30
0
0
SPLINE
5
611
100
AcDbEntity
8
0
100
AcDbSpline
70
4
71
3
72
8
73
4
74
0
42
0.000000001
43
0.0000000001
44
0.0000000001
40
-1
40
-1
40
-1
40
-1
40
0
40
0
40
0
40
0
41
1
41
1
41
1
41
1
10
-1.2985108274013069
20
-1.7710782054425223
30
0
10
-1.2254933238673771
20
-1.7860482132366817
30
0
10
-1.1120454427315773
20
-1.8276235383312223
30
0
10
-1.046405572004343
20
-1.8634710287194167
30
0
0
SPLINE
5
612
100
AcDbEntity
8
0
100
AcDbSpline
70
4
71
3
72
8
73
4
74
0
42
0.000000001
43
0.0000000001
44
0.0000000001
40
-1
40
-1
40
-1
40
-1
40
0
40
0
40
0
40
0
41
1
41
1
41
1
41
1
10
-1.046405572004343
20
-1.8634710287194167
30
0
10
-0.98076570127710649
20
-1.8993143894502906
30
0
10
-0.84317584343381435
20
-1.9306130622977213
30
0
10
-0.74064987350176859
20
-1.9330082635447887
30
0
0
CIRCLE
5
613
100
AcDbEntity
8
0
100
AcDbCircle
10
0
20
0
30
0
40
20.284999999999997
210
0
220
0
230
1
0
CIRCLE
5
614
100
AcDbEntity
8
0
100
AcDbCircle
10
0
20
0
30
0
40
20.684999999999999
210
0
220
-0
230
1
0
ENDSEC
0
SECTION
2
OBJECTS
0
DICTIONARY
5
C
100
AcDbDictionary
3
ACAD_GROUP
350
D
3
ACAD_MLINESTYLE
350
17
0
DICTIONARY
5
D
100
AcDbDictionary
0
DICTIONARY
5
1A
330
C
100
AcDbDictionary
0
DICTIONARY
5
17
100
AcDbDictionary
0
ENDSEC
0
EOF
