0
SECTION
2
HEADER
9
$INSUNITS
70
4
9
$ACADVER
1
AC1014
9
$HANDSEED
5
FFFF
0
ENDSEC
0
SECTION
2
TABLES
0
TABLE
2
VPORT
5
8
100
AcDbSymbolTable
0
ENDTAB
0
TABLE
2
LTYPE
5
5
100
AcDbSymbolTable
0
LTYPE
5
14
100
AcDbSymbolTableRecord
100
AcDbLinetypeTableRecord
2
BYBLOCK
70
0
0
LTYPE
5
15
100
AcDbSymbolTableRecord
100
AcDbLinetypeTableRecord
2
BYLAYER
70
0
0
ENDTAB
0
TABLE
2
LAYER
5
2
100
AcDbSymbolTable
70
2
0
LAYER
5
50
100
AcDbSymbolTableRecord
100
AcDbLayerTableRecord
2
0
70
0
6
CONTINUOUS
0
ENDTAB
0
TABLE
2
STYLE
5
3
100
AcDbSymbolTable
70
1
0
STYLE
5
11
100
AcDbSymbolTableRecord
100
AcDbTextStyleTableRecord
2
STANDARD
70
0
0
ENDTAB
0
TABLE
2
VIEW
5
6
100
AcDbSymbolTable
70
0
0
ENDTAB
0
TABLE
2
UCS
5
7
100
AcDbSymbolTable
70
0
0
ENDTAB
0
TABLE
2
APPID
5
9
100
AcDbSymbolTable
70
2
0
APPID
5
12
100
AcDbSymbolTableRecord
100
AcDbRegAppTableRecord
2
ACAD
70
0
0
ENDTAB
0
TABLE
2
DIMSTYLE
5
A
100
AcDbSymbolTable
70
1
0
ENDTAB
0
TABLE
2
BLOCK_RECORD
5
1
100
AcDbSymbolTable
70
1
0
BLOCK_RECORD
5
1F
100
AcDbSymbolTableRecord
100
AcDbBlockTableRecord
2
*MODEL_SPACE
0
BLOCK_RECORD
5
1B
100
AcDbSymbolTableRecord
100
AcDbBlockTableRecord
2
*PAPER_SPACE
0
ENDTAB
0
ENDSEC
0
SECTION
2
BLOCKS
0
BLOCK
5
20
100
AcDbEntity
100
AcDbBlockBegin
2
*MODEL_SPACE
0
ENDBLK
5
21
100
AcDbEntity
100
AcDbBlockEnd
0
BLOCK
5
1C
100
AcDbEntity
100
AcDbBlockBegin
2
*PAPER_SPACE
0
ENDBLK
5
1D
100
AcDbEntity
100
AcDbBlockEnd
0
ENDSEC
0
SECTION
2
ENTITIES
0
CIRCLE
5
100
100
AcDbEntity
8
0
100
AcDbCircle
10
0
20
0
30
0
40
20.684999999999999
210
0
220
-0
230
1
0
CIRCLE
5
101
100
AcDbEntity
8
0
100
AcDbCircle
10
0
20
0
30
0
40
20.684999999999999
210
0
220
-0
230
1
0
LWPOLYLINE
5
102
100
AcDbEntity
8
0
100
AcDbPolyline
90
8
70
1
43
0.0
10
18.060822820097421
20
-7.8298086861077465
42
1.5234526665911519
10
-18.060822820097414
20
-7.8298086861077518
42
0.56502397880837518
10
-14.664806964496398
20
-8.2845694080185126
42
-0.45861202855152039
10
-7.0912547358069062
20
-8.0155486949308337
42
0.39342646008748006
10
-4.3733405668804384
20
-8.2192985209961584
42
-0.35082988103369223
10
4.3733405668804375
20
-8.2192985209961602
42
0.39342646008747967
10
7.0912547358069045
20
-8.0155486949308354
42
-0.45861202855152039
10
14.664806964496393
20
-8.2845694080185126
42
0.56502397880837762
0
CIRCLE
5
103
100
AcDbEntity
8
0
100
AcDbCircle
10
0
20
-13.684999985098836
30
0
40
6.0000000000000009
210
0
220
0
230
1
0
CIRCLE
5
104
100
AcDbEntity
8
0
100
AcDbCircle
10
7.6245580763737788
20
-16.799570721358347
30
0
40
1.2361663706911474
210
0
220
0
230
1
0
CIRCLE
5
105
100
AcDbEntity
8
0
100
AcDbCircle
10
-10.762225485084318
20
-11.410246605932821
30
0
40
4
210
0
220
0
230
1
0
CIRCLE
5
106
100
AcDbEntity
8
0
100
AcDbCircle
10
-7.6245580763737788
20
-16.799570721358347
30
0
40
1.2361663706911485
210
0
220
0
230
1
0
CIRCLE
5
107
100
AcDbEntity
8
0
100
AcDbCircle
10
10.762225485084315
20
-11.410246605932821
30
0
40
3.9999999999999991
210
0
220
0
230
1
0
CIRCLE
5
108
100
AcDbEntity
8
0
100
AcDbCircle
10
3.3306690738754696e-15
20
-3.3306690738754696e-15
30
0
40
20.284999999999997
210
0
220
0
230
1
0
SPLINE
5
109
100
AcDbEntity
8
0
100
AcDbSpline
70
4
71
3
72
8
73
4
74
0
42
0.000000001
43
0.0000000001
44
0.0000000001
40
-1
40
-1
40
-1
40
-1
40
0
40
0
40
0
40
0
41
1
41
1
41
1
41
1
10
-7.9247887757046964
20
-10.183390988228677
30
0
10
-7.9247887757046964
20
-10.17190778223485
30
0
10
-8.6482167334116298
20
-10.386048250197785
30
0
10
-9.5324068615023059
20
-10.659258644562426
30
0
0
SPLINE
5
110
100
AcDbEntity
8
0
100
AcDbSpline
70
4
71
3
72
8
73
4
74
0
42
0.000000001
43
0.0000000001
44
0.0000000001
40
-1
40
-1
40
-1
40
-1
40
0
40
0
40
0
40
0
41
1
41
1
41
1
41
1
10
-9.5324068615023059
20
-10.659258644562426
30
0
10
-10.416596989592978
20
-10.932469491182037
30
0
10
-11.154649064074221
20
-11.1477930581517
30
0
10
-11.172523085077255
20
-11.137756163558304
30
0
0
SPLINE
5
111
100
AcDbEntity
8
0
100
AcDbSpline
70
4
71
3
72
8
73
4
74
0
42
0.000000001
43
0.0000000001
44
0.0000000001
40
-1
40
-1
40
-1
40
-1
40
0
40
0
40
0
40
0
41
1
41
1
41
1
41
1
10
-11.172523085077255
20
-11.137756163558304
30
0
10
-11.197488464041108
20
-11.123737163936521
30
0
10
-10.859006370843854
20
-8.9151364405687374
30
0
10
-10.632464619293954
20
-7.6138672799534479
30
0
0
SPLINE
5
112
100
AcDbEntity
8
0
100
AcDbSpline
70
4
71
3
72
8
73
4
74
0
42
0.000000001
43
0.0000000001
44
0.0000000001
40
-1
40
-1
40
-1
40
-1
40
0
40
0
40
0
40
0
41
1
41
1
41
1
41
1
10
-10.632464619293954
20
-7.6138672799534479
30
0
10
-10.616118315586306
20
-7.5199710071785919
30
0
10
-11.191053780299621
20
-8.6317136766815707
30
0
10
-11.910100291837907
20
-10.084406847018933
30
0
0
SPLINE
5
113
100
AcDbEntity
8
0
100
AcDbSpline
70
4
71
3
72
8
73
4
74
0
42
0.000000001
43
0.0000000001
44
0.0000000001
40
-1
40
-1
40
-1
40
-1
40
0
40
0
40
0
40
0
41
1
41
1
41
1
41
1
10
-11.910100291837907
20
-10.084406847018933
30
0
10
-12.629146803376191
20
-11.537099565101316
30
0
10
-13.210980739304771
20
-12.731773585583221
30
0
10
-13.203064694402524
20
-12.73923760164096
30
0
0
SPLINE
5
114
100
AcDbEntity
8
0
100
AcDbSpline
70
4
71
3
72
8
73
4
74
0
42
0.000000001
43
0.0000000001
44
0.0000000001
40
-1
40
-1
40
-1
40
-1
40
0
40
0
40
0
40
0
41
1
41
1
41
1
41
1
10
-13.203064694402524
20
-12.73923760164096
30
0
10
-13.195148649500277
20
-12.746701617698708
30
0
10
-12.420610679026169
20
-12.527172531744499
30
0
10
-11.481869103958953
20
-12.25139649492375
30
0
0
SPLINE
5
115
100
AcDbEntity
8
0
100
AcDbSpline
70
4
71
3
72
8
73
4
74
0
42
0.000000001
43
0.0000000001
44
0.0000000001
40
-1
40
-1
40
-1
40
-1
40
0
40
0
40
0
40
0
41
1
41
1
41
1
41
1
10
-11.481869103958953
20
-12.25139649492375
30
0
10
-10.543127528891738
20
-11.975620005848038
30
0
10
-9.7598920169237822
20
-11.759362532361211
30
0
10
-9.7413459450323714
20
-11.770824934626326
30
0
0
SPLINE
5
116
100
AcDbEntity
8
0
100
AcDbSpline
70
4
71
3
72
8
73
4
74
0
42
0.000000001
43
0.0000000001
44
0.0000000001
40
-1
40
-1
40
-1
40
-1
40
0
40
0
40
0
40
0
41
1
41
1
41
1
41
1
10
-9.7413459450323714
20
-11.770824934626326
30
0
10
-9.7227989686310146
20
-11.782286884636468
30
0
10
-9.8402093341646015
20
-12.490577868430863
30
0
10
-10.002257265433709
20
-13.34480429560724
30
0
0
SPLINE
5
117
100
AcDbEntity
8
0
100
AcDbSpline
70
4
71
3
72
8
73
4
74
0
42
0.000000001
43
0.0000000001
44
0.0000000001
40
-1
40
-1
40
-1
40
-1
40
0
40
0
40
0
40
0
41
1
41
1
41
1
41
1
10
-10.002257265433709
20
-13.34480429560724
30
0
10
-10.164304744447847
20
-14.199030722783611
30
0
10
-10.312722615371083
20
-15.000375880595008
30
0
10
-10.332073701112641
20
-15.125570910961482
30
0
0
SPLINE
5
118
100
AcDbEntity
8
0
100
AcDbSpline
70
4
71
3
72
8
73
4
74
0
42
0.000000001
43
0.0000000001
44
0.0000000001
40
-1
40
-1
40
-1
40
-1
40
0
40
0
40
0
40
0
41
1
41
1
41
1
41
1
10
-10.332073701112641
20
-15.125570910961482
30
0
10
-10.361676954814264
20
-15.317090941990333
30
0
10
-10.328000692834889
20
-15.271955895785618
30
0
10
-10.119775719905599
20
-14.841036504353152
30
0
0
SPLINE
5
119
100
AcDbEntity
8
0
100
AcDbSpline
70
4
71
3
72
8
73
4
74
0
42
0.000000001
43
0.0000000001
44
0.0000000001
40
-1
40
-1
40
-1
40
-1
40
0
40
0
40
0
40
0
41
1
41
1
41
1
41
1
10
-10.119775719905599
20
-14.841036504353152
30
0
10
-9.6988244803107921
20
-13.969883078085093
30
0
10
-7.9247887757046964
20
-10.205473241746086
30
0
10
-7.9247887757046964
20
-10.183390988228677
30
0
0
SPLINE
5
120
100
AcDbEntity
8
0
100
AcDbSpline
70
4
71
3
72
8
73
4
74
0
42
0.000000001
43
0.0000000001
44
0.0000000001
40
-1
40
-1
40
-1
40
-1
40
0
40
0
40
0
40
0
41
1
41
1
41
1
41
1
10
-0.18980905278476179
20
-13.675815580352069
30
0
10
-0.26980482658471416
20
-13.633004764090462
30
0
10
-0.97413702787826573
20
-13.599477042683699
30
0
10
-1.793565176958003
20
-13.599477042683699
30
0
0
LINE
5
121
100
AcDbEntity
8
0
100
AcDbLine
10
-1.7935651769580028
20
-13.599477042683699
30
0
11
-3.254682366891819
21
-13.599477042683699
31
0
0
LINE
5
122
100
AcDbEntity
8
0
100
AcDbLine
10
-3.254682366891819
20
-13.599477042683699
30
0
11
-3.4141230669901113
21
-13.802174250307395
31
0
0
SPLINE
5
123
100
AcDbEntity
8
0
100
AcDbSpline
70
4
71
3
72
8
73
4
74
0
42
0.000000001
43
0.0000000001
44
0.0000000001
40
-1
40
-1
40
-1
40
-1
40
0
40
0
40
0
40
0
41
1
41
1
41
1
41
1
10
-3.4141230669901113
20
-13.802174250307395
30
0
10
-3.5571771238195371
20
-13.984038295373526
30
0
10
-3.5735637670884124
20
-14.109477459621402
30
0
10
-3.5735637670884124
20
-15.022659119824509
30
0
0
SPLINE
5
124
100
AcDbEntity
8
0
100
AcDbSpline
70
4
71
3
72
8
73
4
74
0
42
0.000000001
43
0.0000000001
44
0.0000000001
40
-1
40
-1
40
-1
40
-1
40
0
40
0
40
0
40
0
41
1
41
1
41
1
41
1
10
-3.5735637670884124
20
-15.022659119824509
30
0
10
-3.5735637670884124
20
-15.935840780027615
30
0
10
-3.5571771238195371
20
-16.061277498781592
30
0
10
-3.4141230669901113
20
-16.243141543847727
30
0
0
SPLINE
5
125
100
AcDbEntity
8
0
100
AcDbSpline
70
4
71
3
72
8
73
4
74
0
42
0.000000001
43
0.0000000001
44
0.0000000001
40
-0.99999506012721318
40
-0.99999506012721318
40
-0.99999506012721318
40
-0.99999506012721318
40
0
40
0
40
0
40
0
41
1
41
1
41
1
41
1
10
-3.4141205014545473
20
-16.243139525801872
30
0
10
-3.2616314620563331
20
-16.436998378305919
30
0
10
-3.2224454292646993
20
-16.445833860483621
30
0
10
-2.5151699016867202
20
-16.445833860483621
30
0
0
SPLINE
5
126
100
AcDbEntity
8
0
100
AcDbSpline
70
4
71
3
72
8
73
4
74
0
42
0.000000001
43
0.0000000001
44
0.0000000001
40
-1
40
-1
40
-1
40
-1
40
0
40
0
40
0
40
0
41
1
41
1
41
1
41
1
10
-2.5151699016867202
20
-16.445833860483621
30
0
10
-1.8617724473997299
20
-16.445833860483621
30
0
10
-1.7549245391740609
20
-16.42635550154818
30
0
10
-1.5976101960242062
20
-16.278566968523023
30
0
0
SPLINE
5
127
100
AcDbEntity
8
0
100
AcDbSpline
70
4
71
3
72
8
73
4
74
0
42
0.000000001
43
0.0000000001
44
0.0000000001
40
-1
40
-1
40
-1
40
-1
40
0
40
0
40
0
40
0
41
1
41
1
41
1
41
1
10
-1.5976101960242062
20
-16.278566968523023
30
0
10
-1.4654135207495411
20
-16.154375006165544
30
0
10
-1.4195629555667999
20
-16.026710442466161
30
0
10
-1.4195629555667999
20
-15.782821335544472
30
0
0
SPLINE
5
128
100
AcDbEntity
8
0
100
AcDbSpline
70
4
71
3
72
8
73
4
74
0
42
0.000000001
43
0.0000000001
44
0.0000000001
40
-1
40
-1
40
-1
40
-1
40
0
40
0
40
0
40
0
41
1
41
1
41
1
41
1
10
-1.4195629555667999
20
-15.782821335544472
30
0
10
-1.4195629555667999
20
-15.291834633700674
30
0
10
-1.181479451170242
20
-15.052005046657566
30
0
10
-0.64575060425513975
20
-15.003337272498847
30
0
0
SPLINE
5
129
100
AcDbEntity
8
0
100
AcDbSpline
70
4
71
3
72
8
73
4
74
0
42
0.000000001
43
0.0000000001
44
0.0000000001
40
-1
40
-1
40
-1
40
-1
40
0
40
0
40
0
40
0
41
1
41
1
41
1
41
1
10
-0.64575060425513975
20
-15.003337272498847
30
0
10
-0.17222534025048475
20
-14.960321034749402
30
0
10
0.01148016172441757
20
-14.837070587544483
30
0
10
0.082237470933241852
20
-14.514911002771242
30
0
0
SPLINE
5
130
100
AcDbEntity
8
0
100
AcDbSpline
70
4
71
3
72
8
73
4
74
0
42
0.000000001
43
0.0000000001
44
0.0000000001
40
-1
40
-1
40
-1
40
-1
40
0
40
0
40
0
40
0
41
1
41
1
41
1
41
1
10
0.082237470933241852
20
-14.514911002771242
30
0
10
0.14429065596868185
20
-14.232383092186032
30
0
10
-0.0038995494300042566
20
-13.775312945279534
30
0
10
-0.18980905278476179
20
-13.675815580352069
30
0
0
SPLINE
5
131
100
AcDbEntity
8
0
100
AcDbSpline
70
4
71
3
72
8
73
4
74
0
42
0.000000001
43
0.0000000001
44
0.0000000001
40
-1
40
-1
40
-1
40
-1
40
0
40
0
40
0
40
0
41
1
41
1
41
1
41
1
10
1.8312168050276423
20
-16.589108011764289
30
0
10
1.9199417693134713
20
-16.541626302148408
30
0
10
2.183896153707261
20
-16.504493922728987
30
0
10
2.4177819678197388
20
-16.506594601991456
30
0
0
SPLINE
5
132
100
AcDbEntity
8
0
100
AcDbSpline
70
4
71
3
72
8
73
4
74
0
42
0.000000001
43
0.0000000001
44
0.0000000001
40
-1
40
-1
40
-1
40
-1
40
0
40
0
40
0
40
0
41
1
41
1
41
1
41
1
10
2.4177819678197388
20
-16.506594601991456
30
0
10
2.8703328419939389
20
-16.510661458351734
30
0
10
3.2238473268413514
20
-16.377379595157713
30
0
10
3.3022205154368223
20
-16.173141726375285
30
0
0
SPLINE
5
133
100
AcDbEntity
8
0
100
AcDbSpline
70
4
71
3
72
8
73
4
74
0
42
0.000000001
43
0.0000000001
44
0.0000000001
40
-1
40
-1
40
-1
40
-1
40
0
40
0
40
0
40
0
41
1
41
1
41
1
41
1
10
3.3022205154368223
20
-16.173141726375285
30
0
10
3.3285022384097207
20
-16.104650778640845
30
0
10
3.3500066890435942
20
-15.577678634018017
30
0
10
3.3500066890435942
20
-15.002094961596253
30
0
0
SPLINE
5
134
100
AcDbEntity
8
0
100
AcDbSpline
70
4
71
3
72
8
73
4
74
0
42
0.000000001
43
0.0000000001
44
0.0000000001
40
-1
40
-1
40
-1
40
-1
40
0
40
0
40
0
40
0
41
1
41
1
41
1
41
1
10
3.3500066890435942
20
-15.002094961596253
30
0
10
3.3500066890435942
20
-13.561743071764196
30
0
10
3.3887530944388278
20
-13.599479488177604
30
0
10
1.9099213580469421
20
-13.599479488177604
30
0
0
SPLINE
5
135
100
AcDbEntity
8
0
100
AcDbSpline
70
4
71
3
72
8
73
4
74
0
42
0.000000001
43
0.0000000001
44
0.0000000001
40
-1
40
-1
40
-1
40
-1
40
0
40
0
40
0
40
0
41
1
41
1
41
1
41
1
10
1.9099213580469421
20
-13.599479488177604
30
0
10
0.83869782025790762
20
-13.599479488177604
30
0
10
0.79850735071309131
20
-13.605343782556405
30
0
10
0.6155458902580957
20
-13.788305854384877
30
0
0
SPLINE
5
136
100
AcDbEntity
8
0
100
AcDbSpline
70
4
71
3
72
8
73
4
74
0
42
0.000000001
43
0.0000000001
44
0.0000000001
40
-1
40
-1
40
-1
40
-1
40
0
40
0
40
0
40
0
41
1
41
1
41
1
41
1
10
0.6155458902580957
20
-13.788305854384877
30
0
10
0.45170635800221959
20
-13.9521441638938
30
0
10
0.42672074679777516
20
-14.047070900717014
30
0
10
0.42672074679777516
20
-14.505715945696878
30
0
0
SPLINE
5
137
100
AcDbEntity
8
0
100
AcDbSpline
70
4
71
3
72
8
73
4
74
0
42
0.000000001
43
0.0000000001
44
0.0000000001
40
-1
40
-1
40
-1
40
-1
40
0
40
0
40
0
40
0
41
1
41
1
41
1
41
1
10
0.42672074679777516
20
-14.505715945696878
30
0
10
0.42672074679777516
20
-14.969366916695686
30
0
10
0.40321221391059758
20
-15.056389817225195
30
0
10
0.23536635126853334
20
-15.214072818580897
30
0
0
SPLINE
5
138
100
AcDbEntity
8
0
100
AcDbSpline
70
4
71
3
72
8
73
4
74
0
42
0.000000001
43
0.0000000001
44
0.0000000001
40
-1
40
-1
40
-1
40
-1
40
0
40
0
40
0
40
0
41
1
41
1
41
1
41
1
10
0.23536635126853334
20
-15.214072818580897
30
0
10
0.10055911125267158
20
-15.340720056816739
30
0
10
-0.038444596300308831
20
-15.390745080091479
30
0
10
-0.23502073268541146
20
-15.383352352023456
30
0
0
SPLINE
5
139
100
AcDbEntity
8
0
100
AcDbSpline
70
4
71
3
72
8
73
4
74
0
42
0.000000001
43
0.0000000001
44
0.0000000001
40
-1
40
-1
40
-1
40
-1
40
0
40
0
40
0
40
0
41
1
41
1
41
1
41
1
10
-0.23502073268541146
20
-15.383352352023456
30
0
10
-0.76419626731461854
20
-15.363455813630651
30
0
10
-1.0288060440743418
20
-15.615835675382694
30
0
10
-1.0324761190488996
20
-16.143947420164206
30
0
0
SPLINE
5
140
100
AcDbEntity
8
0
100
AcDbSpline
70
4
71
3
72
8
73
4
74
0
42
0.000000001
43
0.0000000001
44
0.0000000001
40
-1
40
-1
40
-1
40
-1
40
0
40
0
40
0
40
0
41
1
41
1
41
1
41
1
10
-1.0324761190488996
20
-16.143947420164206
30
0
10
-1.0350909634044214
20
-16.520184211609052
30
0
10
-1.2274101062782972
20
-16.787611197344752
30
0
10
-1.5349584763560653
20
-16.842664156083558
30
0
0
SPLINE
5
141
100
AcDbEntity
8
0
100
AcDbSpline
70
4
71
3
72
8
73
4
74
0
42
0.000000001
43
0.0000000001
44
0.0000000001
40
-1
40
-1
40
-1
40
-1
40
0
40
0
40
0
40
0
41
1
41
1
41
1
41
1
10
-1.5349584763560653
20
-16.842664156083558
30
0
10
-1.6460334207926408
20
-16.862546021512959
30
0
10
-1.6956702219103192
20
-16.94158682994388
30
0
10
-1.7134679151610932
20
-17.126916139870207
30
0
0
SPLINE
5
142
100
AcDbEntity
8
0
100
AcDbSpline
70
4
71
3
72
8
73
4
74
0
42
0.000000001
43
0.0000000001
44
0.0000000001
40
-1
40
-1
40
-1
40
-1
40
0
40
0
40
0
40
0
41
1
41
1
41
1
41
1
10
-1.7134679151610932
20
-17.126916139870207
30
0
10
-1.7270269561049112
20
-17.268106730345735
30
0
10
-1.7194587638493619
20
-17.432258063074215
30
0
10
-1.6966502535918515
20
-17.491695792380657
30
0
0
SPLINE
5
143
100
AcDbEntity
8
0
100
AcDbSpline
70
4
71
3
72
8
73
4
74
0
42
0.000000001
43
0.0000000001
44
0.0000000001
40
-1
40
-1
40
-1
40
-1
40
0
40
0
40
0
40
0
41
1
41
1
41
1
41
1
10
-1.6966502535918515
20
-17.491695792380657
30
0
10
-1.662909774215553
20
-17.579623525654196
30
0
10
-1.362312109182886
20
-17.599767058931182
30
0
10
-0.083959517444895937
20
-17.599767058931182
30
0
0
SPLINE
5
144
100
AcDbEntity
8
0
100
AcDbSpline
70
4
71
3
72
8
73
4
74
0
42
0.000000001
43
0.0000000001
44
0.0000000001
40
-1
40
-1
40
-1
40
-1
40
0
40
0
40
0
40
0
41
1
41
1
41
1
41
1
10
-0.083959517444895937
20
-17.599767058931182
30
0
10
1.2813426100055292
20
-17.599767058931182
30
0
10
1.4934127843850042
20
-17.583734400904714
30
0
10
1.5342036226829503
20
-17.477431226445894
30
0
0
SPLINE
5
145
100
AcDbEntity
8
0
100
AcDbSpline
70
4
71
3
72
8
73
4
74
0
42
0.000000001
43
0.0000000001
44
0.0000000001
40
-1
40
-1
40
-1
40
-1
40
0
40
0
40
0
40
0
41
1
41
1
41
1
41
1
10
1.5342036226829503
20
-17.477431226445894
30
0
10
1.5600237586817034
20
-17.410145907205514
30
0
10
1.5612660695843061
20
-17.322924921669873
30
0
10
1.5369651966726305
20
-17.283606270701384
30
0
0
SPLINE
5
146
100
AcDbEntity
8
0
100
AcDbSpline
70
4
71
3
72
8
73
4
74
0
42
0.000000001
43
0.0000000001
44
0.0000000001
40
-1
40
-1
40
-1
40
-1
40
0
40
0
40
0
40
0
41
1
41
1
41
1
41
1
10
1.5369651966726305
20
-17.283606270701384
30
0
10
1.4599633187831351
20
-17.159015692837762
30
0
10
1.6633660513977677
20
-16.678938339294156
30
0
10
1.8312168050276423
20
-16.589108011764289
30
0
0
SPLINE
5
147
100
AcDbEntity
8
0
100
AcDbSpline
70
4
71
3
72
8
73
4
74
0
42
0.000000001
43
0.0000000001
44
0.0000000001
40
-1
40
-1
40
-1
40
-1
40
0
40
0
40
0
40
0
41
1
41
1
41
1
41
1
10
2.5978400156386794
20
-10.368478270895158
30
0
10
1.8261986515391904
20
-10.368478270895158
30
0
10
1.8114364275952166
20
-10.395707622755381
30
0
10
1.8114364275952166
20
-11.819097566877925
30
0
0
SPLINE
5
148
100
AcDbEntity
8
0
100
AcDbSpline
70
4
71
3
72
8
73
4
74
0
42
0.000000001
43
0.0000000001
44
0.0000000001
40
-1
40
-1
40
-1
40
-1
40
0
40
0
40
0
40
0
41
1
41
1
41
1
41
1
10
1.8114364275952166
20
-11.819097566877925
30
0
10
1.8114364275952166
20
-12.658499898781885
30
0
10
1.8397686972055727
20
-13.058538682382244
30
0
10
1.9037501541833368
20
-13.122520139359999
30
0
0
SPLINE
5
149
100
AcDbEntity
8
0
100
AcDbSpline
70
4
71
3
72
8
73
4
74
0
42
0.000000001
43
0.0000000001
44
0.0000000001
40
-1
40
-1
40
-1
40
-1
40
0
40
0
40
0
40
0
41
1
41
1
41
1
41
1
10
1.9037501541833368
20
-13.122520139359999
30
0
10
1.9596993864375012
20
-13.178470594361116
30
0
10
2.2313778633231429
20
-13.214835088695072
30
0
10
2.5934014442051811
20
-13.214835088695072
30
0
0
SPLINE
5
150
100
AcDbEntity
8
0
100
AcDbSpline
70
4
71
3
72
8
73
4
74
0
42
0.000000001
43
0.0000000001
44
0.0000000001
40
-1
40
-1
40
-1
40
-1
40
0
40
0
40
0
40
0
41
1
41
1
41
1
41
1
10
2.5934014442051811
20
-13.214835088695072
30
0
10
3.1052372043169107
20
-13.214835088695072
30
0
10
3.2021350092257439
20
-13.193537282295988
30
0
10
3.2703728483412497
20
-13.066036566688091
30
0
0
SPLINE
5
151
100
AcDbEntity
8
0
100
AcDbSpline
70
4
71
3
72
8
73
4
74
0
42
0.000000001
43
0.0000000001
44
0.0000000001
40
-1
40
-1
40
-1
40
-1
40
0
40
0
40
0
40
0
41
1
41
1
41
1
41
1
10
3.2703728483412497
20
-13.066036566688091
30
0
10
3.3148111407951486
20
-12.983002266713966
30
0
10
3.3500079117905379
20
-12.42200351992822
30
0
10
3.3500079117905379
20
-11.796715183932971
30
0
0
SPLINE
5
152
100
AcDbEntity
8
0
100
AcDbSpline
70
4
71
3
72
8
73
4
74
0
42
0.000000001
43
0.0000000001
44
0.0000000001
40
-1
40
-1
40
-1
40
-1
40
0
40
0
40
0
40
0
41
1
41
1
41
1
41
1
10
3.3500079117905379
20
-11.796715183932971
30
0
10
3.3500079117905379
20
-10.437289578330855
30
0
10
3.3137693603925733
20
-10.368478270895158
30
0
10
2.5978400156386794
20
-10.368478270895158
30
0
0
SPLINE
5
153
100
AcDbEntity
8
0
100
AcDbSpline
70
4
71
3
72
8
73
4
74
0
42
0.000000001
43
0.0000000001
44
0.0000000001
40
-1
40
-1
40
-1
40
-1
40
0
40
0
40
0
40
0
41
1
41
1
41
1
41
1
10
0.80675416752665541
20
-13.214832643201175
30
0
10
1.3356833186451578
20
-13.214832643201175
30
0
10
1.4324833037978824
20
-13.194085072930211
30
0
10
1.5010152135551902
20
-13.066034121194186
30
0
0
SPLINE
5
154
100
AcDbEntity
8
0
100
AcDbSpline
70
4
71
3
72
8
73
4
74
0
42
0.000000001
43
0.0000000001
44
0.0000000001
40
-1
40
-1
40
-1
40
-1
40
0
40
0
40
0
40
0
41
1
41
1
41
1
41
1
10
1.5010152135551902
20
-13.066034121194186
30
0
10
1.6179599547318535
20
-12.847521904501376
30
0
10
1.6067088486587622
20
-10.194520507616627
30
0
10
1.4883359390428907
20
-10.076147598000755
30
0
0
SPLINE
5
155
100
AcDbEntity
8
0
100
AcDbSpline
70
4
71
3
72
8
73
4
74
0
42
0.000000001
43
0.0000000001
44
0.0000000001
40
-1
40
-1
40
-1
40
-1
40
0
40
0
40
0
40
0
41
1
41
1
41
1
41
1
10
1.4883359390428907
20
-10.076147598000755
30
0
10
1.4322668775874892
20
-10.020078536545363
30
0
10
1.159684179331304
20
-9.9838338714126351
30
0
10
0.79407489301434708
20
-9.9838338714126351
30
0
0
SPLINE
5
156
100
AcDbEntity
8
0
100
AcDbSpline
70
4
71
3
72
8
73
4
74
0
42
0.000000001
43
0.0000000001
44
0.0000000001
40
-1
40
-1
40
-1
40
-1
40
0
40
0
40
0
40
0
41
1
41
1
41
1
41
1
10
0.79407489301434708
20
-9.9838338714126351
30
0
10
0.21870948092339582
20
-9.9838338714126351
30
0
10
0.18881454070917236
20
-9.992547166188146
30
0
10
0.11710348887828737
20
-10.181163219919789
30
0
0
SPLINE
5
157
100
AcDbEntity
8
0
100
AcDbSpline
70
4
71
3
72
8
73
4
74
0
42
0.000000001
43
0.0000000001
44
0.0000000001
40
-1
40
-1
40
-1
40
-1
40
0
40
0
40
0
40
0
41
1
41
1
41
1
41
1
10
0.11710348887828737
20
-10.181163219919789
30
0
10
0.075839447510155367
20
-10.289694239324021
30
0
10
0.042078792809157051
20
-10.927871550933741
30
0
10
0.042078792809157051
20
-11.59933325730691
30
0
0
SPLINE
5
158
100
AcDbEntity
8
0
100
AcDbSpline
70
4
71
3
72
8
73
4
74
0
42
0.000000001
43
0.0000000001
44
0.0000000001
40
-1
40
-1
40
-1
40
-1
40
0
40
0
40
0
40
0
41
1
41
1
41
1
41
1
10
0.042078792809157051
20
-11.59933325730691
30
0
10
0.042078792809157051
20
-12.270798631920918
30
0
10
0.075839447510155367
20
-12.908974720783686
30
0
10
0.11710348887828737
20
-13.017505740187927
30
0
0
SPLINE
5
159
100
AcDbEntity
8
0
100
AcDbSpline
70
4
71
3
72
8
73
4
74
0
42
0.000000001
43
0.0000000001
44
0.0000000001
40
-1
40
-1
40
-1
40
-1
40
0
40
0
40
0
40
0
41
1
41
1
41
1
41
1
10
0.11710348887828737
20
-13.017505740187927
30
0
10
0.18899673000492889
20
-13.206598665230604
30
0
10
0.21777713637296969
20
-13.214832643201175
30
0
10
0.80675416752665541
20
-13.214832643201175
30
0
0
SPLINE
5
160
100
AcDbEntity
8
0
100
AcDbSpline
70
4
71
3
72
8
73
4
74
0
42
0.000000001
43
0.0000000001
44
0.0000000001
40
-1
40
-1
40
-1
40
-1
40
0
40
0
40
0
40
0
41
1
41
1
41
1
41
1
10
-1.638671872771873
20
-13.146752538442392
30
0
10
-1.4789254859357293
20
-13.247988649534719
30
0
10
-0.46421853498630483
20
-13.228789076904199
30
0
10
-0.35794959744211319
20
-13.122520139359999
30
0
0
SPLINE
5
161
100
AcDbEntity
8
0
100
AcDbSpline
70
4
71
3
72
8
73
4
74
0
42
0.000000001
43
0.0000000001
44
0.0000000001
40
-1
40
-1
40
-1
40
-1
40
0
40
0
40
0
40
0
41
1
41
1
41
1
41
1
10
-0.35794959744211319
20
-13.122520139359999
30
0
10
-0.21448530901050589
20
-12.979057685048829
30
0
10
-0.22890883204895296
20
-10.187011618588224
30
0
10
-0.37373526058439133
20
-10.066815593267844
30
0
0
SPLINE
5
162
100
AcDbEntity
8
0
100
AcDbSpline
70
4
71
3
72
8
73
4
74
0
42
0.000000001
43
0.0000000001
44
0.0000000001
40
-1
40
-1
40
-1
40
-1
40
0
40
0
40
0
40
0
41
1
41
1
41
1
41
1
10
-0.37373526058439133
20
-10.066815593267844
30
0
10
-0.4415072331114267
20
-10.010571678998401
30
0
10
-0.70588529932386734
20
-9.9855322669280966
30
0
10
-1.0823923178449668
20
-9.9997002358537124
30
0
0
LINE
5
163
100
AcDbEntity
8
0
100
AcDbLine
10
-1.0823923178449666
20
-9.9997002358537124
30
0
11
-1.6829487626281914
21
-10.022299045009069
31
0
0
LINE
5
164
100
AcDbEntity
8
0
100
AcDbLine
10
-1.6829487626281914
20
-10.022299045009069
30
0
11
-1.7415391282973314
21
-10.29154914644927
31
0
0
SPLINE
5
165
100
AcDbEntity
8
0
100
AcDbSpline
70
4
71
3
72
8
73
4
74
0
42
0.000000001
43
0.0000000001
44
0.0000000001
40
-1
40
-1
40
-1
40
-1
40
0
40
0
40
0
40
0
41
1
41
1
41
1
41
1
10
-1.7415391282973314
20
-10.29154914644927
30
0
10
-1.8422078848042123
20
-10.754170564515011
30
0
10
-1.7587499030114451
20
-13.070656104670393
30
0
10
-1.638671872771873
20
-13.146752538442392
30
0
0
SPLINE
5
166
100
AcDbEntity
8
0
100
AcDbSpline
70
4
71
3
72
8
73
4
74
0
42
0.000000001
43
0.0000000001
44
0.0000000001
40
-1
40
-1
40
-1
40
-1
40
0
40
0
40
0
40
0
41
1
41
1
41
1
41
1
10
-2.8042786363642325
20
-10.368478270895158
30
0
10
-3.5514549737738221
20
-10.368478270895158
30
0
10
-3.5735646841486268
20
-10.408546465744841
30
0
10
-3.5735646841486268
20
-11.762613994206008
30
0
0
SPLINE
5
167
100
AcDbEntity
8
0
100
AcDbSpline
70
4
71
3
72
8
73
4
74
0
42
0.000000001
43
0.0000000001
44
0.0000000001
40
-1
40
-1
40
-1
40
-1
40
0
40
0
40
0
40
0
41
1
41
1
41
1
41
1
10
-3.5735646841486268
20
-11.762613994206008
30
0
10
-3.5735646841486268
20
-12.411409640341491
30
0
10
-3.538677573818676
20
-12.982425130152917
30
0
10
-3.4939293150126005
20
-13.066036566688091
30
0
0
SPLINE
5
168
100
AcDbEntity
8
0
100
AcDbSpline
70
4
71
3
72
8
73
4
74
0
42
0.000000001
43
0.0000000001
44
0.0000000001
40
-1
40
-1
40
-1
40
-1
40
0
40
0
40
0
40
0
41
1
41
1
41
1
41
1
10
-3.4939293150126005
20
-13.066036566688091
30
0
10
-3.4254744383132252
20
-13.19394567977775
30
0
10
-3.3286499982214757
20
-13.214835088695072
30
0
10
-2.8042786363642325
20
-13.214835088695072
30
0
0
SPLINE
5
169
100
AcDbEntity
8
0
100
AcDbSpline
70
4
71
3
72
8
73
4
74
0
42
0.000000001
43
0.0000000001
44
0.0000000001
40
-1
40
-1
40
-1
40
-1
40
0
40
0
40
0
40
0
41
1
41
1
41
1
41
1
10
-2.8042786363642325
20
-13.214835088695072
30
0
10
-2.2799072745069893
20
-13.214835088695072
30
0
10
-2.1830828344152398
20
-13.19394567977775
30
0
10
-2.1146279577158644
20
-13.066036566688091
30
0
0
SPLINE
5
170
100
AcDbEntity
8
0
100
AcDbSpline
70
4
71
3
72
8
73
4
74
0
42
0.000000001
43
0.0000000001
44
0.0000000001
40
-1
40
-1
40
-1
40
-1
40
0
40
0
40
0
40
0
41
1
41
1
41
1
41
1
10
-2.1146279577158644
20
-13.066036566688091
30
0
10
-2.0698803102832652
20
-12.982425130152917
30
0
10
-2.0349928942665763
20
-12.411409640341491
30
0
10
-2.0349928942665763
20
-11.762613994206008
30
0
0
SPLINE
5
171
100
AcDbEntity
8
0
100
AcDbSpline
70
4
71
3
72
8
73
4
74
0
42
0.000000001
43
0.0000000001
44
0.0000000001
40
-1
40
-1
40
-1
40
-1
40
0
40
0
40
0
40
0
41
1
41
1
41
1
41
1
10
-2.0349928942665763
20
-11.762613994206008
30
0
10
-2.0349928942665763
20
-10.408546465744841
30
0
10
-2.0571026046413721
20
-10.368478270895158
30
0
10
-2.8042786363642325
20
-10.368478270895158
30
0
0
SPLINE
5
172
100
AcDbEntity
8
0
100
AcDbSpline
70
4
71
3
72
8
73
4
74
0
42
0.000000001
43
0.0000000001
44
0.0000000001
40
-1
40
-1
40
-1
40
-1
40
0
40
0
40
0
40
0
41
1
41
1
41
1
41
1
10
8.9364180234262349
20
-13.292118189239268
30
0
10
8.9364180234262349
20
-13.112178599023219
30
0
10
9.0887519701519501
20
-13.051627085333273
30
0
10
9.4653862927863699
20
-13.081860330210876
30
0
0
SPLINE
5
173
100
AcDbEntity
8
0
100
AcDbSpline
70
4
71
3
72
8
73
4
74
0
42
0.000000001
43
0.0000000001
44
0.0000000001
40
-1
40
-1
40
-1
40
-1
40
0
40
0
40
0
40
0
41
1
41
1
41
1
41
1
10
9.4653862927863699
20
-13.081860330210876
30
0
10
9.8658634975441686
20
-13.114006613620003
30
0
10
10.236687248298452
20
-13.276213286384282
30
0
10
10.515583844425937
20
-13.541238318010853
30
0
0
SPLINE
5
174
100
AcDbEntity
8
0
100
AcDbSpline
70
4
71
3
72
8
73
4
74
0
42
0.000000001
43
0.0000000001
44
0.0000000001
40
-1
40
-1
40
-1
40
-1
40
0
40
0
40
0
40
0
41
1
41
1
41
1
41
1
10
10.515583844425937
20
-13.541238318010853
30
0
10
10.710393578121046
20
-13.726357132166145
30
0
10
10.745463237669131
20
-13.854595838494115
30
0
10
10.632243918960992
20
-13.967814252692317
30
0
0
SPLINE
5
175
100
AcDbEntity
8
0
100
AcDbSpline
70
4
71
3
72
8
73
4
74
0
42
0.000000001
43
0.0000000001
44
0.0000000001
40
-1
40
-1
40
-1
40
-1
40
0
40
0
40
0
40
0
41
1
41
1
41
1
41
1
10
10.632243918960992
20
-13.967814252692317
30
0
10
10.496003013158614
20
-14.104053349474803
30
0
10
9.8482834422729368
20
-14.01856087858949
30
0
10
9.4485804980271801
20
-13.811581868108043
30
0
0
SPLINE
5
176
100
AcDbEntity
8
0
100
AcDbSpline
70
4
71
3
72
8
73
4
74
0
42
0.000000001
43
0.0000000001
44
0.0000000001
40
-1
40
-1
40
-1
40
-1
40
0
40
0
40
0
40
0
41
1
41
1
41
1
41
1
10
9.4485804980271801
20
-13.811581868108043
30
0
10
9.2320408174378379
20
-13.699451579372454
30
0
10
8.9364180234262349
20
-13.399612864511949
30
0
10
8.9364180234262349
20
-13.292118189239268
30
0
0
SPLINE
5
177
100
AcDbEntity
8
0
100
AcDbSpline
70
4
71
3
72
8
73
4
74
0
42
0.000000001
43
0.0000000001
44
0.0000000001
40
-1
40
-1
40
-1
40
-1
40
0
40
0
40
0
40
0
41
1
41
1
41
1
41
1
10
11.366912221741789
20
-10.155417902550191
30
0
10
11.37071478154629
20
-9.8436419177039802
30
0
10
11.509774140334116
20
-9.5882910721832726
30
0
10
11.836515694458484
20
-9.2930988249050106
30
0
0
SPLINE
5
178
100
AcDbEntity
8
0
100
AcDbSpline
70
4
71
3
72
8
73
4
74
0
42
0.000000001
43
0.0000000001
44
0.0000000001
40
-1
40
-1
40
-1
40
-1
40
0
40
0
40
0
40
0
41
1
41
1
41
1
41
1
10
11.836515694458484
20
-9.2930988249050106
30
0
10
12.100621743981975
20
-9.0544940764871882
30
0
10
12.304035176264247
20
-8.9440118048695325
30
0
10
12.804529472587824
20
-8.7673370432962869
30
0
0
LINE
5
179
100
AcDbEntity
8
0
100
AcDbLine
10
12.804529472587827
20
-8.7673370432962869
30
0
11
13.175982762263118
21
-8.6362136286294735
31
0
0
LINE
5
180
100
AcDbEntity
8
0
100
AcDbLine
10
13.175982762263118
20
-8.6362136286294735
30
0
11
12.834541112529156
21
-8.6651179222718824
31
0
0
SPLINE
5
181
100
AcDbEntity
8
0
100
AcDbSpline
70
4
71
3
72
8
73
4
74
0
42
0.000000001
43
0.0000000001
44
0.0000000001
40
-1
40
-1
40
-1
40
-1
40
0
40
0
40
0
40
0
41
1
41
1
41
1
41
1
10
12.834541112529156
20
-8.6651179222718824
30
0
10
11.226901318492896
20
-8.8012109406984216
30
0
10
9.9571538771703985
20
-9.151903918139439
30
0
10
9.0121508320159869
20
-9.7208262007451616
30
0
0
SPLINE
5
182
100
AcDbEntity
8
0
100
AcDbSpline
70
4
71
3
72
8
73
4
74
0
42
0.000000001
43
0.0000000001
44
0.0000000001
40
-1
40
-1
40
-1
40
-1
40
0
40
0
40
0
40
0
41
1
41
1
41
1
41
1
10
9.0121508320159869
20
-9.7208262007451616
30
0
10
8.5985799413090938
20
-9.9698102007701763
30
0
10
8.047234095934833
20
-10.563305757279039
30
0
10
7.8613826287249156
20
-10.959574729522462
30
0
0
SPLINE
5
183
100
AcDbEntity
8
0
100
AcDbSpline
70
4
71
3
72
8
73
4
74
0
42
0.000000001
43
0.0000000001
44
0.0000000001
40
-1
40
-1
40
-1
40
-1
40
0
40
0
40
0
40
0
41
1
41
1
41
1
41
1
10
7.8613826287249156
20
-10.959574729522462
30
0
10
7.729497842812747
20
-11.240785062086651
30
0
10
7.7129236025992176
20
-11.346147355166391
30
0
10
7.7129236025992176
20
-11.903445328227026
30
0
0
SPLINE
5
184
100
AcDbEntity
8
0
100
AcDbSpline
70
4
71
3
72
8
73
4
74
0
42
0.000000001
43
0.0000000001
44
0.0000000001
40
-1
40
-1
40
-1
40
-1
40
0
40
0
40
0
40
0
41
1
41
1
41
1
41
1
10
7.7129236025992176
20
-11.903445328227026
30
0
10
7.7129236025992176
20
-12.497665397201017
30
0
10
7.7227936151079524
20
-12.550811235724609
30
0
10
7.8999617868556404
20
-12.910546146820643
30
0
0
SPLINE
5
185
100
AcDbEntity
8
0
100
AcDbSpline
70
4
71
3
72
8
73
4
74
0
42
0.000000001
43
0.0000000001
44
0.0000000001
40
-1
40
-1
40
-1
40
-1
40
0
40
0
40
0
40
0
41
1
41
1
41
1
41
1
10
7.8999617868556404
20
-12.910546146820643
30
0
10
8.2774029323601042
20
-13.676926568237464
30
0
10
9.2130099282164615
20
-14.242114129284481
30
0
10
10.32028567536107
20
-14.372630391651393
30
0
0
SPLINE
5
186
100
AcDbEntity
8
0
100
AcDbSpline
70
4
71
3
72
8
73
4
74
0
42
0.000000001
43
0.0000000001
44
0.0000000001
40
-1
40
-1
40
-1
40
-1
40
0
40
0
40
0
40
0
41
1
41
1
41
1
41
1
10
10.320289293400847
20
-14.372630391651393
30
0
10
11.105154280032888
20
-14.465142764211949
30
0
10
11.799658723261107
20
-14.34028511605459
30
0
10
12.268563914301055
20
-14.022370674473542
30
0
0
SPLINE
5
187
100
AcDbEntity
8
0
100
AcDbSpline
70
4
71
3
72
8
73
4
74
0
42
0.000000001
43
0.0000000001
44
0.0000000001
40
-1
40
-1
40
-1
40
-1
40
0
40
0
40
0
40
0
41
1
41
1
41
1
41
1
10
12.268563914301055
20
-14.022370674473542
30
0
10
12.634962802409365
20
-13.773955158948322
30
0
10
12.777676381370885
20
-13.490206771481322
30
0
10
12.777528041740073
20
-13.010364246198742
30
0
0
SPLINE
5
188
100
AcDbEntity
8
0
100
AcDbSpline
70
4
71
3
72
8
73
4
74
0
42
0.000000001
43
0.0000000001
44
0.0000000001
40
-1
40
-1
40
-1
40
-1
40
0
40
0
40
0
40
0
41
1
41
1
41
1
41
1
10
12.777528041740073
20
-13.010364246198742
30
0
10
12.777386938188812
20
-12.526569916970907
30
0
10
12.559935511575929
20
-12.081161180745795
30
0
10
12.000763846166333
20
-11.419312260025167
30
0
0
SPLINE
5
189
100
AcDbEntity
8
0
100
AcDbSpline
70
4
71
3
72
8
73
4
74
0
42
0.000000001
43
0.0000000001
44
0.0000000001
40
-1
40
-1
40
-1
40
-1
40
0
40
0
40
0
40
0
41
1
41
1
41
1
41
1
10
12.000763846166333
20
-11.419312260025167
30
0
10
11.526952593190231
20
-10.858498004557301
30
0
10
11.362342637504796
20
-10.530270340594976
30
0
10
11.366912221741789
20
-10.155417902550191
30
0
0
SPLINE
5
190
100
AcDbEntity
8
0
100
AcDbSpline
70
4
71
3
72
8
73
4
74
0
42
0.000000001
43
0.0000000001
44
0.0000000001
40
0
40
0
40
0
40
0
40
1
40
1
40
1
40
1
41
1
41
1
41
1
41
1
10
2.2598379135945179
20
8.8409489448092096
30
0
10
2.0917332314130554
20
9.0639090728428116
30
0
10
2.0875045944848738
20
9.4850595896976984
30
0
10
2.035627179879147
20
9.7528486064229902
30
0
0
SPLINE
5
191
100
AcDbEntity
8
0
100
AcDbSpline
70
4
71
3
72
8
73
4
74
0
42
0.000000001
43
0.0000000001
44
0.0000000001
40
0
40
0
40
0
40
0
40
1
40
1
40
1
40
1
41
1
41
1
41
1
41
1
10
2.035627179879147
20
9.7528486064229902
30
0
10
1.9131548750273186
20
10.384997487945808
30
0
10
1.4835392017362592
20
11.526254417026202
30
0
10
2.6387355154585479
20
11.377815124082955
30
0
0
SPLINE
5
192
100
AcDbEntity
8
0
100
AcDbSpline
70
4
71
3
72
8
73
4
74
0
42
0.000000001
43
0.0000000001
44
0.0000000001
40
0
40
0
40
0
40
0
40
1
40
1
40
1
40
1
41
1
41
1
41
1
41
1
10
2.6387355154585479
20
11.377815124082955
30
0
10
3.0418737226648496
20
11.325978281430363
30
0
10
3.9039133607437893
20
10.647236290765285
30
0
10
4.046201462116028
20
10.264193508598343
30
0
0
SPLINE
5
193
100
AcDbEntity
8
0
100
AcDbSpline
70
4
71
3
72
8
73
4
74
0
42
0.000000001
43
0.0000000001
44
0.0000000001
40
0
40
0
40
0
40
0
40
1
40
1
40
1
40
1
41
1
41
1
41
1
41
1
10
4.046201462116028
20
10.264193508598343
30
0
10
4.1209910685953721
20
10.062883025552239
30
0
10
4.0291237211884141
20
9.768626770453178
30
0
10
3.9978029114052371
20
9.563918204354021
30
0
0
SPLINE
5
194
100
AcDbEntity
8
0
100
AcDbSpline
70
4
71
3
72
8
73
4
74
0
42
0.000000001
43
0.0000000001
44
0.0000000001
40
0
40
0
40
0
40
0
40
1
40
1
40
1
40
1
41
1
41
1
41
1
41
1
10
3.9978029114052371
20
9.563918204354021
30
0
10
3.9505207097496897
20
9.2544263241997982
30
0
10
3.9392839884525332
20
8.4285725610314355
30
0
10
3.4970912431860879
20
8.4542381841974468
30
0
0
SPLINE
5
195
100
AcDbEntity
8
0
100
AcDbSpline
70
4
71
3
72
8
73
4
74
0
42
0.000000001
43
0.0000000001
44
0.0000000001
40
0
40
0
40
0
40
0
40
1
40
1
40
1
40
1
41
1
41
1
41
1
41
1
10
3.4970912431860879
20
8.4542381841974468
30
0
10
3.2094391803542699
20
8.4709277356763213
30
0
10
2.4398304268186966
20
8.6022228178675277
30
0
10
2.2598379135945179
20
8.8409489448092096
30
0
0
SPLINE
5
196
100
AcDbEntity
8
0
100
AcDbSpline
70
4
71
3
72
8
73
4
74
0
42
0.000000001
43
0.0000000001
44
0.0000000001
40
0
40
0
40
0
40
0
40
1
40
1
40
1
40
1
41
1
41
1
41
1
41
1
10
-6.1443002924868466
20
9.0533966145783147
30
0
10
-5.7404697424211237
20
10.162911932169829
30
0
10
-5.1822820629525719
20
11.149424869448804
30
0
10
-4.5818485671526608
20
12.161413645746762
30
0
0
SPLINE
5
197
100
AcDbEntity
8
0
100
AcDbSpline
70
4
71
3
72
8
73
4
74
0
42
0.000000001
43
0.0000000001
44
0.0000000001
40
0
40
0
40
0
40
0
40
1
40
1
40
1
40
1
41
1
41
1
41
1
41
1
10
-4.5818485671526608
20
12.161413645746762
30
0
10
-4.3348461474905289
20
12.577729799522491
30
0
10
-4.1690471724487157
20
13.124332025138896
30
0
10
-3.5896049319154772
20
13.025834147936322
30
0
0
SPLINE
5
198
100
AcDbEntity
8
0
100
AcDbSpline
70
4
71
3
72
8
73
4
74
0
42
0.000000001
43
0.0000000001
44
0.0000000001
40
0
40
0
40
0
40
0
40
1
40
1
40
1
40
1
41
1
41
1
41
1
41
1
10
-3.5896049319154772
20
13.025834147936322
30
0
10
-3.5394561493857317
20
12.231213145107223
30
0
10
-3.1264740516622815
20
11.388512630836967
30
0
10
-3.2746202957389023
20
10.576773862475155
30
0
0
SPLINE
5
199
100
AcDbEntity
8
0
100
AcDbSpline
70
4
71
3
72
8
73
4
74
0
42
0.000000001
43
0.0000000001
44
0.0000000001
40
0
40
0
40
0
40
0
40
1
40
1
40
1
40
1
41
1
41
1
41
1
41
1
10
-3.2746202957389023
20
10.576773862475155
30
0
10
-3.3540822206186345
20
10.141672088226173
30
0
10
-3.7301744066511278
20
9.9578675588199346
30
0
10
-4.0858331474006979
20
9.7631844324742048
30
0
0
SPLINE
5
200
100
AcDbEntity
8
0
100
AcDbSpline
70
4
71
3
72
8
73
4
74
0
42
0.000000001
43
0.0000000001
44
0.0000000001
40
0
40
0
40
0
40
0
40
1
40
1
40
1
40
1
41
1
41
1
41
1
41
1
10
-4.0858331474006979
20
9.7631844324742048
30
0
10
-4.7687929214191316
20
9.3893487812540606
30
0
10
-5.3409896505324372
20
9.0533418824824921
30
0
10
-6.1443002924868466
20
9.0533966145783147
30
0
0
SPLINE
5
201
100
AcDbEntity
8
0
100
AcDbSpline
70
4
71
3
72
8
73
4
74
0
42
0.000000001
43
0.0000000001
44
0.0000000001
40
0
40
0
40
0
40
0
40
1
40
1
40
1
40
1
41
1
41
1
41
1
41
1
10
5.3243707083555574
20
5.2876640133898034
30
0
10
6.1219536466210638
20
5.6595830455167739
30
0
10
7.0054845214133188
20
5.9204978686058229
30
0
10
7.7105255059176319
20
6.4617877241275856
30
0
0
SPLINE
5
202
100
AcDbEntity
8
0
100
AcDbSpline
70
4
71
3
72
8
73
4
74
0
42
0.000000001
43
0.0000000001
44
0.0000000001
40
0
40
0
40
0
40
0
40
1
40
1
40
1
40
1
41
1
41
1
41
1
41
1
10
7.7105255059176319
20
6.4617877241275856
30
0
10
8.2087865176389325
20
6.8443136075638522
30
0
10
8.5026407158487878
20
7.4329567886235974
30
0
10
8.9843876000417939
20
7.8073119343420654
30
0
0
SPLINE
5
203
100
AcDbEntity
8
0
100
AcDbSpline
70
4
71
3
72
8
73
4
74
0
42
0.000000001
43
0.0000000001
44
0.0000000001
40
0
40
0
40
0
40
0
40
1
40
1
40
1
40
1
41
1
41
1
41
1
41
1
10
8.9843876000417939
20
7.8073119343420654
30
0
10
8.6398059328647232
20
6.8355540585573404
30
0
10
8.5972851392998102
20
5.7696712945404034
30
0
10
7.9562988978859845
20
4.913557171644789
30
0
0
SPLINE
5
204
100
AcDbEntity
8
0
100
AcDbSpline
70
4
71
3
72
8
73
4
74
0
42
0.000000001
43
0.0000000001
44
0.0000000001
40
0
40
0
40
0
40
0
40
1
40
1
40
1
40
1
41
1
41
1
41
1
41
1
10
7.9562988978859845
20
4.913557171644789
30
0
10
7.6373812426263026
20
4.4875839099987935
30
0
10
6.8644249989350996
20
4.4690597847202795
30
0
10
6.4275575341917097
20
4.1835362975088364
30
0
0
SPLINE
5
205
100
AcDbEntity
8
0
100
AcDbSpline
70
4
71
3
72
8
73
4
74
0
42
0.000000001
43
0.0000000001
44
0.0000000001
40
0
40
0
40
0
40
0
40
1
40
1
40
1
40
1
41
1
41
1
41
1
41
1
10
6.4275575341917097
20
4.1835362975088364
30
0
10
5.6016916892424025
20
3.643796728596147
30
0
10
4.9057949752320802
20
2.6015392833878082
30
0
10
3.910551725580047
20
2.3652923028785899
30
0
0
SPLINE
5
206
100
AcDbEntity
8
0
100
AcDbSpline
70
4
71
3
72
8
73
4
74
0
42
0.000000001
43
0.0000000001
44
0.0000000001
40
0
40
0
40
0
40
0
40
1
40
1
40
1
40
1
41
1
41
1
41
1
41
1
10
3.910551725580047
20
2.3652923028785899
30
0
10
3.1227928882724254
20
2.1783021878045083
30
0
10
2.2489998778960185
20
2.5906455087026226
30
0
10
1.5097550673101257
20
2.8242845940333794
30
0
0
SPLINE
5
207
100
AcDbEntity
8
0
100
AcDbSpline
70
4
71
3
72
8
73
4
74
0
42
0.000000001
43
0.0000000001
44
0.0000000001
40
0
40
0
40
0
40
0
40
1
40
1
40
1
40
1
41
1
41
1
41
1
41
1
10
1.5097550673101257
20
2.8242845940333794
30
0
10
1.918368965599887
20
3.9469420528598231
30
0
10
1.9122688257712195
20
4.6786682984947925
30
0
10
1.6090316856225362
20
5.8228906056007279
30
0
0
SPLINE
5
208
100
AcDbEntity
8
0
100
AcDbSpline
70
4
71
3
72
8
73
4
74
0
42
0.000000001
43
0.0000000001
44
0.0000000001
40
0
40
0
40
0
40
0
40
1
40
1
40
1
40
1
41
1
41
1
41
1
41
1
10
1.6090316856225362
20
5.8228906056007279
30
0
10
2.2094041013996724
20
5.4668183277975668
30
0
10
3.2239767021763144
20
4.6955008087174166
30
0
10
3.9360156350670672
20
4.6802270678167845
30
0
0
SPLINE
5
209
100
AcDbEntity
8
0
100
AcDbSpline
70
4
71
3
72
8
73
4
74
0
42
0.000000001
43
0.0000000001
44
0.0000000001
40
0
40
0
40
0
40
0
40
1
40
1
40
1
40
1
41
1
41
1
41
1
41
1
10
3.9360156350670672
20
4.6802270678167845
30
0
10
4.3681773408219122
20
4.6709348008878759
30
0
10
4.9379861483506389
20
5.1074911678555956
30
0
10
5.3243707083555574
20
5.2876640133898034
30
0
0
SPLINE
5
210
100
AcDbEntity
8
0
100
AcDbSpline
70
4
71
3
72
8
73
4
74
0
42
0.000000001
43
0.0000000001
44
0.0000000001
40
0
40
0
40
0
40
0
40
1
40
1
40
1
40
1
41
1
41
1
41
1
41
1
10
-3.2448490805525698
20
13.192154660765279
30
0
10
-3.0644204549343113
20
14.062759412780736
30
0
10
-2.3488637362849745
20
14.628934664335322
30
0
10
-1.7756966127421614
20
15.283644368765128
30
0
0
LINE
5
211
100
AcDbEntity
8
0
100
AcDbLine
10
-1.7756966127421614
20
15.283644368765128
30
0
11
-1.6726299466954475
21
15.246132011604761
31
0
0
SPLINE
5
212
100
AcDbEntity
8
0
100
AcDbSpline
70
4
71
3
72
8
73
4
74
0
42
0.000000001
43
0.0000000001
44
0.0000000001
40
0
40
0
40
0
40
0
40
1
40
1
40
1
40
1
41
1
41
1
41
1
41
1
10
-1.6726299466954475
20
15.246132011604761
30
0
10
-1.645146881690851
20
14.564342295756237
30
0
10
-1.636720699078138
20
13.582455007772062
30
0
10
-1.1982705299258645
20
13.021703146388383
30
0
0
SPLINE
5
213
100
AcDbEntity
8
0
100
AcDbSpline
70
4
71
3
72
8
73
4
74
0
42
0.000000001
43
0.0000000001
44
0.0000000001
40
0
40
0
40
0
40
0
40
1
40
1
40
1
40
1
41
1
41
1
41
1
41
1
10
-1.1982705299258645
20
13.021703146388383
30
0
10
-0.72349257079001417
20
12.414521344483791
30
0
10
0.19126064665627274
20
11.956454194369936
30
0
10
0.82588063415105495
20
11.528038443472532
30
0
0
SPLINE
5
214
100
AcDbEntity
8
0
100
AcDbSpline
70
4
71
3
72
8
73
4
74
0
42
0.000000001
43
0.0000000001
44
0.0000000001
40
0
40
0
40
0
40
0
40
1
40
1
40
1
40
1
41
1
41
1
41
1
41
1
10
0.82588063415105495
20
11.528038443472532
30
0
10
1.0383008500098645
20
11.38466011110159
30
0
10
1.4038902480229332
20
11.243134234094988
30
0
10
1.5489797057604204
20
11.029251028868213
30
0
0
SPLINE
5
215
100
AcDbEntity
8
0
100
AcDbSpline
70
4
71
3
72
8
73
4
74
0
42
0.000000001
43
0.0000000001
44
0.0000000001
40
0
40
0
40
0
40
0
40
1
40
1
40
1
40
1
41
1
41
1
41
1
41
1
10
1.5489797057604204
20
11.029251028868213
30
0
10
1.6998409701307193
20
10.806847821238465
30
0
10
1.6257182679731108
20
10.383692142712974
30
0
10
1.6555577703845348
20
10.124625177651732
30
0
0
SPLINE
5
216
100
AcDbEntity
8
0
100
AcDbSpline
70
4
71
3
72
8
73
4
74
0
42
0.000000001
43
0.0000000001
44
0.0000000001
40
0
40
0
40
0
40
0
40
1
40
1
40
1
40
1
41
1
41
1
41
1
41
1
10
1.6555577703845348
20
10.124625177651732
30
0
10
1.7269026026058854
20
9.5044909211854129
30
0
10
1.8956929499112773
20
8.8577016490194378
30
0
10
2.3032204631821829
20
8.3715253628328572
30
0
0
LINE
5
217
100
AcDbEntity
8
0
100
AcDbLine
10
2.3032204631821829
20
8.3715253628328572
30
0
11
2.2939367510342779
21
8.6667065799580385
31
0
0
SPLINE
5
218
100
AcDbEntity
8
0
100
AcDbSpline
70
4
71
3
72
8
73
4
74
0
42
0.000000001
43
0.0000000001
44
0.0000000001
40
0
40
0
40
0
40
0
40
1
40
1
40
1
40
1
41
1
41
1
41
1
41
1
10
2.2939367510342779
20
8.6667065799580385
30
0
10
2.7290893782391024
20
8.4868465855498787
30
0
10
3.4634287316335732
20
7.8749512476747308
30
0
10
3.9464535311043392
20
8.1950918386046219
30
0
0
SPLINE
5
219
100
AcDbEntity
8
0
100
AcDbSpline
70
4
71
3
72
8
73
4
74
0
42
0.000000001
43
0.0000000001
44
0.0000000001
40
0
40
0
40
0
40
0
40
1
40
1
40
1
40
1
41
1
41
1
41
1
41
1
10
3.9464535311043392
20
8.1950918386046219
30
0
10
4.4278337633378655
20
8.5140799961957647
30
0
10
4.1002952085300626
20
9.7244584815004487
30
0
10
4.1404272901014449
20
10.212334192054907
30
0
0
SPLINE
5
220
100
AcDbEntity
8
0
100
AcDbSpline
70
4
71
3
72
8
73
4
74
0
42
0.000000001
43
0.0000000001
44
0.0000000001
40
0
40
0
40
0
40
0
40
1
40
1
40
1
40
1
41
1
41
1
41
1
41
1
10
4.1404272901014449
20
10.212334192054907
30
0
10
5.0019295868585782
20
9.8606639883475911
30
0
10
6.0510420883111511
20
10.719851320164526
30
0
10
6.7176715116235508
20
11.200186992917917
30
0
0
SPLINE
5
221
100
AcDbEntity
8
0
100
AcDbSpline
70
4
71
3
72
8
73
4
74
0
42
0.000000001
43
0.0000000001
44
0.0000000001
40
0
40
0
40
0
40
0
40
1
40
1
40
1
40
1
41
1
41
1
41
1
41
1
10
6.7176715116235508
20
11.200186992917917
30
0
10
7.3013155247661636
20
10.616002611976089
30
0
10
7.8723974888396437
20
10.020399147734185
30
0
10
8.4741703600923692
20
9.4520260924666708
30
0
0
SPLINE
5
222
100
AcDbEntity
8
0
100
AcDbSpline
70
4
71
3
72
8
73
4
74
0
42
0.000000001
43
0.0000000001
44
0.0000000001
40
0
40
0
40
0
40
0
40
1
40
1
40
1
40
1
41
1
41
1
41
1
41
1
10
8.4741703600923692
20
9.4520260924666708
30
0
10
8.661268901121236
20
9.2753190888410018
30
0
10
9.0798527537378639
20
8.9601418992039115
30
0
10
9.0896511124037609
20
8.6806477031367013
30
0
0
SPLINE
5
223
100
AcDbEntity
8
0
100
AcDbSpline
70
4
71
3
72
8
73
4
74
0
42
0.000000001
43
0.0000000001
44
0.0000000001
40
0
40
0
40
0
40
0
40
1
40
1
40
1
40
1
41
1
41
1
41
1
41
1
10
9.0896511124037609
20
8.6806477031367013
30
0
10
9.0999741520044957
20
8.3867222504454411
30
0
10
8.6829578568208969
20
7.9698985789704047
30
0
10
8.5187895902327444
20
7.7433348146799545
30
0
0
SPLINE
5
224
100
AcDbEntity
8
0
100
AcDbSpline
70
4
71
3
72
8
73
4
74
0
42
0.000000001
43
0.0000000001
44
0.0000000001
40
0
40
0
40
0
40
0
40
1
40
1
40
1
40
1
41
1
41
1
41
1
41
1
10
8.5187895902327444
20
7.7433348146799545
30
0
10
7.6708758521622293
20
6.5731563059610032
30
0
10
6.5820006224288381
20
6.1736136721705108
30
0
10
5.3150917246221496
20
5.5828443509385455
30
0
0
SPLINE
5
225
100
AcDbEntity
8
0
100
AcDbSpline
70
4
71
3
72
8
73
4
74
0
42
0.000000001
43
0.0000000001
44
0.0000000001
40
0
40
0
40
0
40
0
40
1
40
1
40
1
40
1
41
1
41
1
41
1
41
1
10
5.3150917246221496
20
5.5828443509385455
30
0
10
4.9026276448446655
20
5.3905104256133862
30
0
10
4.2351911694351045
20
4.8787778800301052
30
0
10
3.774081294988425
20
5.0368627567107938
30
0
0
SPLINE
5
226
100
AcDbEntity
8
0
100
AcDbSpline
70
4
71
3
72
8
73
4
74
0
42
0.000000001
43
0.0000000001
44
0.0000000001
40
0
40
0
40
0
40
0
40
1
40
1
40
1
40
1
41
1
41
1
41
1
41
1
10
3.774081294988425
20
5.0368627567107938
30
0
10
3.1455293827149866
20
5.2523356861584292
30
0
10
2.5296407276473429
20
5.6387377944079953
30
0
10
1.9527213047641168
20
5.9654384979520847
30
0
0
SPLINE
5
227
100
AcDbEntity
8
0
100
AcDbSpline
70
4
71
3
72
8
73
4
74
0
42
0.000000001
43
0.0000000001
44
0.0000000001
40
0
40
0
40
0
40
0
40
1
40
1
40
1
40
1
41
1
41
1
41
1
41
1
10
1.9527213047641168
20
5.9654384979520847
30
0
10
1.695072825413646
20
6.1113899995387699
30
0
10
1.3768828050766946
20
6.2447672984910119
30
0
10
1.2186684368506506
20
6.5078977696168483
30
0
0
SPLINE
5
228
100
AcDbEntity
8
0
100
AcDbSpline
70
4
71
3
72
8
73
4
74
0
42
0.000000001
43
0.0000000001
44
0.0000000001
40
0
40
0
40
0
40
0
40
1
40
1
40
1
40
1
41
1
41
1
41
1
41
1
10
1.2186684368506506
20
6.5078977696168483
30
0
10
0.59106358200709308
20
7.5517377463906543
30
0
10
0.7193506492930124
20
8.8646678225534217
30
0
10
0.056586416671781103
20
9.8954519619616121
30
0
0
SPLINE
5
229
100
AcDbEntity
8
0
100
AcDbSpline
70
4
71
3
72
8
73
4
74
0
42
0.000000001
43
0.0000000001
44
0.0000000001
40
0
40
0
40
0
40
0
40
1
40
1
40
1
40
1
41
1
41
1
41
1
41
1
10
0.056586416671781103
20
9.8954519619616121
30
0
10
-0.67094702625856595
20
11.026962170406902
30
0
10
-1.7315067570998077
20
11.385078558186624
30
0
10
-2.7464964132804242
20
12.135364139842881
30
0
0
LINE
5
230
100
AcDbEntity
8
0
100
AcDbLine
10
-2.7464964132804242
20
12.135364139842881
30
0
11
-1.542090395771355
21
13.039284738950407
31
0
0
SPLINE
5
231
100
AcDbEntity
8
0
100
AcDbSpline
70
4
71
3
72
8
73
4
74
0
42
0.000000001
43
0.0000000001
44
0.0000000001
40
0
40
0
40
0
40
0
40
1
40
1
40
1
40
1
41
1
41
1
41
1
41
1
10
-1.542090395771355
20
13.039284738950407
30
0
10
-1.8420038435000352
20
12.899946057687124
30
0
10
-2.1797589913932236
20
12.801109357373278
30
0
10
-2.4513518743470577
20
12.610667991775404
30
0
0
SPLINE
5
232
100
AcDbEntity
8
0
100
AcDbSpline
70
4
71
3
72
8
73
4
74
0
42
0.000000001
43
0.0000000001
44
0.0000000001
40
0
40
0
40
0
40
0
40
1
40
1
40
1
40
1
41
1
41
1
41
1
41
1
10
-2.4513518743470577
20
12.610667991775404
30
0
10
-2.5970263656839965
20
12.508509237595092
30
0
10
-2.8004411280362667
20
12.253801980558382
30
0
10
-2.9962434631303441
20
12.270150871808855
30
0
0
SPLINE
5
233
100
AcDbEntity
8
0
100
AcDbSpline
70
4
71
3
72
8
73
4
74
0
42
0.000000001
43
0.0000000001
44
0.0000000001
40
0
40
0
40
0
40
0
40
1
40
1
40
1
40
1
41
1
41
1
41
1
41
1
10
-2.9962434631303441
20
12.270150871808855
30
0
10
-3.33032944487812
20
12.297962917418726
30
0
10
-3.2890525956014143
20
12.978828710054508
30
0
10
-3.2448490805525698
20
13.192154660765279
30
0
0
SPLINE
5
234
100
AcDbEntity
8
0
100
AcDbSpline
70
4
71
3
72
8
73
4
74
0
42
0.000000001
43
0.0000000001
44
0.0000000001
40
0
40
0
40
0
40
0
40
1
40
1
40
1
40
1
41
1
41
1
41
1
41
1
10
-11.514955882745998
20
4.8803129280196433
30
0
10
-11.388249524799082
20
4.6504770171806697
30
0
10
-11.374867853304533
20
3.8734974452122373
30
0
10
-11.833143872651611
20
4.0234307387978063
30
0
0
SPLINE
5
235
100
AcDbEntity
8
0
100
AcDbSpline
70
4
71
3
72
8
73
4
74
0
42
0.000000001
43
0.0000000001
44
0.0000000001
40
0
40
0
40
0
40
0
40
1
40
1
40
1
40
1
41
1
41
1
41
1
41
1
10
-11.833143872651611
20
4.0234307387978063
30
0
10
-12.519313271466007
20
4.2479045964505158
30
0
10
-12.868863923785829
20
5.7872196368473894
30
0
10
-12.395383588611356
20
6.3096100094636487
30
0
0
LINE
5
236
100
AcDbEntity
8
0
100
AcDbLine
10
-12.395383588611356
20
6.3096100094636487
30
0
11
-11.714738987868609
21
5.2979368362716341
31
0
0
LINE
5
237
100
AcDbEntity
8
0
100
AcDbLine
10
-11.714738987868609
20
5.2979368362716341
30
0
11
-11.87114271357742
21
4.5430707766961342
31
0
0
LINE
5
238
100
AcDbEntity
8
0
100
AcDbLine
10
-11.87114271357742
20
4.5430707766961342
30
0
11
-11.768077060957294
21
4.5055579469671878
31
0
0
LINE
5
239
100
AcDbEntity
8
0
100
AcDbLine
10
-11.768077060957294
20
4.5055579469671878
30
0
11
-11.514955882745998
21
4.8803129280196433
31
0
0
SPLINE
5
240
100
AcDbEntity
8
0
100
AcDbSpline
70
4
71
3
72
8
73
4
74
0
42
0.000000001
43
0.0000000001
44
0.0000000001
40
0
40
0
40
0
40
0
40
1
40
1
40
1
40
1
41
1
41
1
41
1
41
1
10
-6.2422077053829996
20
-2.9915741121634065
30
0
10
-5.5704045161836575
20
-2.4013036347928907
30
0
10
-5.1806640049256654
20
-0.59853193590549747
30
0
10
-4.0816519778758877
20
-0.67253763143334311
30
0
0
SPLINE
5
241
100
AcDbEntity
8
0
100
AcDbSpline
70
4
71
3
72
8
73
4
74
0
42
0.000000001
43
0.0000000001
44
0.0000000001
40
0
40
0
40
0
40
0
40
1
40
1
40
1
40
1
41
1
41
1
41
1
41
1
10
-4.0816519778758877
20
-0.67253763143334311
30
0
10
-3.5742888051475608
20
-0.70674907945245113
30
0
10
-3.157216573053919
20
-1.0384174787176947
30
0
10
-2.7129596816191057
20
-1.241372230861848
30
0
0
SPLINE
5
242
100
AcDbEntity
8
0
100
AcDbSpline
70
4
71
3
72
8
73
4
74
0
42
0.000000001
43
0.0000000001
44
0.0000000001
40
0
40
0
40
0
40
0
40
1
40
1
40
1
40
1
41
1
41
1
41
1
41
1
10
-2.7129596816191057
20
-1.241372230861848
30
0
10
-3.2563162696972494
20
-1.8723823026022046
30
0
10
-3.994877940693482
20
-2.1013805192945334
30
0
10
-4.6351070859400965
20
-2.5843825040702173
30
0
0
SPLINE
5
243
100
AcDbEntity
8
0
100
AcDbSpline
70
4
71
3
72
8
73
4
74
0
42
0.000000001
43
0.0000000001
44
0.0000000001
40
0
40
0
40
0
40
0
40
1
40
1
40
1
40
1
41
1
41
1
41
1
41
1
10
-4.6351070859400965
20
-2.5843825040702173
30
0
10
-5.1822494783815065
20
-2.9971455983122874
30
0
10
-5.5130540853365586
20
-3.6600577172245563
30
0
10
-6.0530787047439087
20
-4.0523008709777031
30
0
0
SPLINE
5
244
100
AcDbEntity
8
0
100
AcDbSpline
70
4
71
3
72
8
73
4
74
0
42
0.000000001
43
0.0000000001
44
0.0000000001
40
0
40
0
40
0
40
0
40
1
40
1
40
1
40
1
41
1
41
1
41
1
41
1
10
-6.0530787047439087
20
-4.0523008709777031
30
0
10
-6.7526328816316017
20
-4.5603959730852983
30
0
10
-7.6041564731751823
20
-4.5590781152413573
30
0
10
-8.4090851704799938
20
-4.705211073711193
30
0
0
SPLINE
5
245
100
AcDbEntity
8
0
100
AcDbSpline
70
4
71
3
72
8
73
4
74
0
42
0.000000001
43
0.0000000001
44
0.0000000001
40
0
40
0
40
0
40
0
40
1
40
1
40
1
40
1
41
1
41
1
41
1
41
1
10
-8.4090851704799938
20
-4.705211073711193
30
0
10
-9.2364869949751895
20
-4.8553651553210386
30
0
10
-9.6009173404775403
20
-5.1540045088739994
30
0
10
-10.444881607183095
20
-4.8468266370088742
30
0
0
SPLINE
5
246
100
AcDbEntity
8
0
100
AcDbSpline
70
4
71
3
72
8
73
4
74
0
42
0.000000001
43
0.0000000001
44
0.0000000001
40
0
40
0
40
0
40
0
40
1
40
1
40
1
40
1
41
1
41
1
41
1
41
1
10
-10.444881607183095
20
-4.8468266370088742
30
0
10
-11.344760899938859
20
-4.5192973600132547
30
0
10
-12.818777014132275
20
-4.1425894738936631
30
0
10
-12.876051586799925
20
-3.0281860188192633
30
0
0
SPLINE
5
247
100
AcDbEntity
8
0
100
AcDbSpline
70
4
71
3
72
8
73
4
74
0
42
0.000000001
43
0.0000000001
44
0.0000000001
40
0
40
0
40
0
40
0
40
1
40
1
40
1
40
1
41
1
41
1
41
1
41
1
10
-12.876051586799925
20
-3.0281860188192633
30
0
10
-11.504000557121628
20
-3.0275999740904869
30
0
10
-10.744264342230583
20
-4.5647621398063265
30
0
10
-9.2883532765480954
20
-4.2347905929956209
30
0
0
SPLINE
5
248
100
AcDbEntity
8
0
100
AcDbSpline
70
4
71
3
72
8
73
4
74
0
42
0.000000001
43
0.0000000001
44
0.0000000001
40
0
40
0
40
0
40
0
40
1
40
1
40
1
40
1
41
1
41
1
41
1
41
1
10
-9.2883532765480954
20
-4.2347905929956209
30
0
10
-8.3931524660963746
20
-4.0319290863092272
30
0
10
-6.9368320509934804
20
-3.6018994622032796
30
0
10
-6.2422077053829996
20
-2.9915741121634065
30
0
0
SPLINE
5
249
100
AcDbEntity
8
0
100
AcDbSpline
70
4
71
3
72
8
73
4
74
0
42
0.000000001
43
0.0000000001
44
0.0000000001
40
0
40
0
40
0
40
0
40
1
40
1
40
1
40
1
41
1
41
1
41
1
41
1
10
-6.7410578667176431
20
-2.2847626606212801
30
0
10
-6.5653841091361969
20
-2.0491972048888085
30
0
10
-6.5471423034513334
20
-1.7133192063108904
30
0
10
-6.3054377940975703
20
-1.5173112827543234
30
0
0
SPLINE
5
250
100
AcDbEntity
8
0
100
AcDbSpline
70
4
71
3
72
8
73
4
74
0
42
0.000000001
43
0.0000000001
44
0.0000000001
40
0
40
0
40
0
40
0
40
1
40
1
40
1
40
1
41
1
41
1
41
1
41
1
10
-6.3054377940975703
20
-1.5173112827543234
30
0
10
-6.1071393132107428
20
-1.3565103993378358
30
0
10
-5.7184844444063287
20
-1.3447169763227462
30
0
10
-5.4726501422456408
20
-1.2874167303202411
30
0
0
SPLINE
5
251
100
AcDbEntity
8
0
100
AcDbSpline
70
4
71
3
72
8
73
4
74
0
42
0.000000001
43
0.0000000001
44
0.0000000001
40
0
40
0
40
0
40
0
40
1
40
1
40
1
40
1
41
1
41
1
41
1
41
1
10
-5.4726501422456408
20
-1.2874167303202411
30
0
10
-5.6897041481027752
20
-1.7599801700075002
30
0
10
-6.0985493884092516
20
-2.5088729124964582
30
0
10
-6.5042993777675298
20
-2.8378192588927265
30
0
0
SPLINE
5
252
100
AcDbEntity
8
0
100
AcDbSpline
70
4
71
3
72
8
73
4
74
0
42
0.000000001
43
0.0000000001
44
0.0000000001
40
0
40
0
40
0
40
0
40
1
40
1
40
1
40
1
41
1
41
1
41
1
41
1
10
-6.5042993777675298
20
-2.8378192588927265
30
0
10
-6.9766524873084528
20
-3.2206723044381258
30
0
10
-7.7370263140028195
20
-3.3972016153333318
30
0
10
-8.3018153040753742
20
-3.6087972630029297
30
0
0
SPLINE
5
253
100
AcDbEntity
8
0
100
AcDbSpline
70
4
71
3
72
8
73
4
74
0
42
0.000000001
43
0.0000000001
44
0.0000000001
40
0
40
0
40
0
40
0
40
1
40
1
40
1
40
1
41
1
41
1
41
1
41
1
10
-8.3018153040753742
20
-3.6087972630029297
30
0
10
-8.8881467173809003
20
-3.8284247640620706
30
0
10
-9.4819778144834004
20
-4.0888579686646898
30
0
10
-10.120385333504442
20
-3.9553035703604511
30
0
0
SPLINE
5
254
100
AcDbEntity
8
0
100
AcDbSpline
70
4
71
3
72
8
73
4
74
0
42
0.000000001
43
0.0000000001
44
0.0000000001
40
0
40
0
40
0
40
0
40
1
40
1
40
1
40
1
41
1
41
1
41
1
41
1
10
-10.120385333504442
20
-3.9553035703604511
30
0
10
-10.854340107996734
20
-3.8017347874080709
30
0
10
-11.374492746937399
20
-3.1415629904198195
30
0
10
-12.056056065410132
20
-2.8597631566585102
30
0
0
LINE
5
255
100
AcDbEntity
8
0
100
AcDbLine
10
-12.056056065410134
20
-2.8597631566585098
30
0
11
-12.037299109687652
21
-2.8082288443532821
31
0
0
SPLINE
5
256
100
AcDbEntity
8
0
100
AcDbSpline
70
4
71
3
72
8
73
4
74
0
42
0.000000001
43
0.0000000001
44
0.0000000001
40
0
40
0
40
0
40
0
40
1
40
1
40
1
40
1
41
1
41
1
41
1
41
1
10
-12.037299109687652
20
-2.8082288443532821
30
0
10
-11.605255974386735
20
-2.7054252959997038
30
0
10
-11.188540831160253
20
-2.6808488135258735
30
0
10
-10.773953392773482
20
-2.8647773074946059
30
0
0
SPLINE
5
257
100
AcDbEntity
8
0
100
AcDbSpline
70
4
71
3
72
8
73
4
74
0
42
0.000000001
43
0.0000000001
44
0.0000000001
40
0
40
0
40
0
40
0
40
1
40
1
40
1
40
1
41
1
41
1
41
1
41
1
10
-10.773953392773482
20
-2.8647773074946059
30
0
10
-10.540990909353232
20
-2.9680733509396307
30
0
10
-10.295928324016405
20
-3.2279671844581115
30
0
10
-10.038350927419636
20
-3.2488838820936694
30
0
0
SPLINE
5
258
100
AcDbEntity
8
0
100
AcDbSpline
70
4
71
3
72
8
73
4
74
0
42
0.000000001
43
0.0000000001
44
0.0000000001
40
0
40
0
40
0
40
0
40
1
40
1
40
1
40
1
41
1
41
1
41
1
41
1
10
-10.038350927419636
20
-3.2488838820936694
30
0
10
-9.7620803251747912
20
-3.2713538538611742
30
0
10
-9.4549080582556186
20
-3.0663721062550353
30
0
10
-9.1890274734218007
20
-2.9998542898569758
30
0
0
SPLINE
5
259
100
AcDbEntity
8
0
100
AcDbSpline
70
4
71
3
72
8
73
4
74
0
42
0.000000001
43
0.0000000001
44
0.0000000001
40
0
40
0
40
0
40
0
40
1
40
1
40
1
40
1
41
1
41
1
41
1
41
1
10
-9.1890274734218007
20
-2.9998542898569758
30
0
10
-8.6538051375872573
20
-2.8659714885931553
30
0
10
-8.1005511734132583
20
-2.8270114579016292
30
0
10
-7.5636970480175725
20
-2.7032374211716581
30
0
0
SPLINE
5
260
100
AcDbEntity
8
0
100
AcDbSpline
70
4
71
3
72
8
73
4
74
0
42
0.000000001
43
0.0000000001
44
0.0000000001
40
0
40
0
40
0
40
0
40
1
40
1
40
1
40
1
41
1
41
1
41
1
41
1
10
-7.5636970480175725
20
-2.7032374211716581
30
0
10
-7.2738827219517219
20
-2.6363837651554478
30
0
10
-6.9275348252519695
20
-2.5347795412520346
30
0
10
-6.7410578667176431
20
-2.2847626606212801
30
0
0
SPLINE
5
261
100
AcDbEntity
8
0
100
AcDbSpline
70
4
71
3
72
8
73
4
74
0
42
0.000000001
43
0.0000000001
44
0.0000000001
40
0
40
0
40
0
40
0
40
1
40
1
40
1
40
1
41
1
41
1
41
1
41
1
10
-13.747761608388483
20
3.8838181802940408
30
0
10
-13.572418247515493
20
4.426772358445672
30
0
10
-14.003408677487105
20
5.0467876717281124
30
0
10
-13.810714867462908
20
5.5408237372903368
30
0
0
SPLINE
5
262
100
AcDbEntity
8
0
100
AcDbSpline
70
4
71
3
72
8
73
4
74
0
42
0.000000001
43
0.0000000001
44
0.0000000001
40
0
40
0
40
0
40
0
40
1
40
1
40
1
40
1
41
1
41
1
41
1
41
1
10
-13.810714867462908
20
5.5408237372903368
30
0
10
-13.640520347586047
20
5.9771585118085628
30
0
10
-13.031076103381407
20
6.1682399964752133
30
0
10
-12.770146311726263
20
6.5627350573373437
30
0
0
LINE
5
263
100
AcDbEntity
8
0
100
AcDbLine
10
-12.770146311726263
20
6.5627350573373437
30
0
11
-12.718611535047547
21
6.543977932596734
31
0
0
SPLINE
5
264
100
AcDbEntity
8
0
100
AcDbSpline
70
4
71
3
72
8
73
4
74
0
42
0.000000001
43
0.0000000001
44
0.0000000001
40
0
40
0
40
0
40
0
40
1
40
1
40
1
40
1
41
1
41
1
41
1
41
1
10
-12.718611535047547
20
6.543977932596734
30
0
10
-13.034915332034
20
5.6157924607593035
30
0
10
-12.850738730381748
20
3.6757979247240069
30
0
10
-11.548119207690082
20
3.6668165820382947
30
0
0
LINE
5
265
100
AcDbEntity
8
0
100
AcDbLine
10
-11.548119207690082
20
3.6668165820382947
30
0
11
-12.753027906916207
21
1.3040695157652205
31
0
0
LINE
5
266
100
AcDbEntity
8
0
100
AcDbLine
10
-12.753027906916207
20
1.3040695157652205
30
0
11
-13.517379351186529
21
-1.1023080717572364
31
0
0
LINE
5
267
100
AcDbEntity
8
0
100
AcDbLine
10
-13.517379351186529
20
-1.1023080717572364
30
0
11
-14.271435272765505
21
-0.12752882795468157
31
0
0
SPLINE
5
268
100
AcDbEntity
8
0
100
AcDbSpline
70
4
71
3
72
8
73
4
74
0
42
0.000000001
43
0.0000000001
44
0.0000000001
40
0
40
0
40
0
40
0
40
1
40
1
40
1
40
1
41
1
41
1
41
1
41
1
10
-14.271435272765505
20
-0.12752882795468157
30
0
10
-14.166054872796849
20
-0.35327638943585704
30
0
10
-13.818767783452873
20
-1.3182030071421469
30
0
10
-13.454671930566944
20
-1.153958950477314
30
0
0
SPLINE
5
269
100
AcDbEntity
8
0
100
AcDbSpline
70
4
71
3
72
8
73
4
74
0
42
0.000000001
43
0.0000000001
44
0.0000000001
40
0
40
0
40
0
40
0
40
1
40
1
40
1
40
1
41
1
41
1
41
1
41
1
10
-13.454671930566944
20
-1.153958950477314
30
0
10
-13.287661304376908
20
-1.0785930734307669
30
0
10
-13.225591784685754
20
-0.8002772414198267
30
0
10
-13.179823592712056
20
-0.64156219291601868
30
0
0
SPLINE
5
270
100
AcDbEntity
8
0
100
AcDbSpline
70
4
71
3
72
8
73
4
74
0
42
0.000000001
43
0.0000000001
44
0.0000000001
40
0
40
0
40
0
40
0
40
1
40
1
40
1
40
1
41
1
41
1
41
1
41
1
10
-13.179823592712056
20
-0.64156219291601868
30
0
10
-13.03203537169761
20
-0.12908163107926196
30
0
10
-12.86573506254344
20
0.36738015633738907
30
0
10
-12.682801199306439
20
0.86998681483464679
30
0
0
SPLINE
5
271
100
AcDbEntity
8
0
100
AcDbSpline
70
4
71
3
72
8
73
4
74
0
42
0.000000001
43
0.0000000001
44
0.0000000001
40
0
40
0
40
0
40
0
40
1
40
1
40
1
40
1
41
1
41
1
41
1
41
1
10
-12.682801199306439
20
0.86998681483464679
30
0
10
-12.019039699106134
20
2.6936565485383124
30
0
10
-11.057791961583845
20
4.2768604879679772
30
0
10
-10.080929051219073
20
5.9341043705770247
30
0
0
LINE
5
272
100
AcDbEntity
8
0
100
AcDbLine
10
-10.080929051219073
20
5.9341043705770247
30
0
11
-10.132461877529135
21
5.9528607854414979
31
0
0
SPLINE
5
273
100
AcDbEntity
8
0
100
AcDbSpline
70
4
71
3
72
8
73
4
74
0
42
0.000000001
43
0.0000000001
44
0.0000000001
40
0
40
0
40
0
40
0
40
1
40
1
40
1
40
1
41
1
41
1
41
1
41
1
10
-10.132461877529135
20
5.9528607854414979
30
0
10
-10.482641299290234
20
5.4721399141295857
30
0
10
-10.962871821768909
20
5.230706532270939
30
0
10
-11.037141580260865
20
4.5896852212152073
30
0
0
SPLINE
5
274
100
AcDbEntity
8
0
100
AcDbSpline
70
4
71
3
72
8
73
4
74
0
42
0.000000001
43
0.0000000001
44
0.0000000001
40
0
40
0
40
0
40
0
40
1
40
1
40
1
40
1
41
1
41
1
41
1
41
1
10
-11.037141580260865
20
4.5896852212152073
30
0
10
-11.2896128114707
20
4.9172370102954277
30
0
10
-11.381925691911219
20
5.381711735611634
30
0
10
-11.61120843919992
20
5.7382906099009201
30
0
0
SPLINE
5
275
100
AcDbEntity
8
0
100
AcDbSpline
70
4
71
3
72
8
73
4
74
0
42
0.000000001
43
0.0000000001
44
0.0000000001
40
0
40
0
40
0
40
0
40
1
40
1
40
1
40
1
41
1
41
1
41
1
41
1
10
-11.61120843919992
20
5.7382906099009201
30
0
10
-12.058522187261257
20
6.4339289522023595
30
0
10
-12.812472152817357
20
6.8242473209158554
30
0
10
-12.780915148113969
20
7.7338634821995473
30
0
0
SPLINE
5
276
100
AcDbEntity
8
0
100
AcDbSpline
70
4
71
3
72
8
73
4
74
0
42
0.000000001
43
0.0000000001
44
0.0000000001
40
0
40
0
40
0
40
0
40
1
40
1
40
1
40
1
41
1
41
1
41
1
41
1
10
-12.780915148113969
20
7.7338634821995473
30
0
10
-12.766390071255742
20
8.1525661433204473
30
0
10
-12.069936432590998
20
8.7789767877797242
30
0
10
-11.82221172152904
20
9.1357356220213362
30
0
0
SPLINE
5
277
100
AcDbEntity
8
0
100
AcDbSpline
70
4
71
3
72
8
73
4
74
0
42
0.000000001
43
0.0000000001
44
0.0000000001
40
0
40
0
40
0
40
0
40
1
40
1
40
1
40
1
41
1
41
1
41
1
41
1
10
-11.82221172152904
20
9.1357356220213362
30
0
10
-10.750487586218071
20
10.679140056803798
30
0
10
-8.9714227124835801
20
12.390890256446539
30
0
10
-6.907073241326918
20
12.24904380300667
30
0
0
SPLINE
5
278
100
AcDbEntity
8
0
100
AcDbSpline
70
4
71
3
72
8
73
4
74
0
42
0.000000001
43
0.0000000001
44
0.0000000001
40
0
40
0
40
0
40
0
40
1
40
1
40
1
40
1
41
1
41
1
41
1
41
1
10
-6.907073241326918
20
12.24904380300667
30
0
10
-7.0590383098771436
20
11.700616486211892
30
0
10
-7.1912161060759736
20
11.088960020254898
30
0
10
-7.4724905670880029
20
10.587306340038447
30
0
0
SPLINE
5
279
100
AcDbEntity
8
0
100
AcDbSpline
70
4
71
3
72
8
73
4
74
0
42
0.000000001
43
0.0000000001
44
0.0000000001
40
0
40
0
40
0
40
0
40
1
40
1
40
1
40
1
41
1
41
1
41
1
41
1
10
-7.4724905670880029
20
10.587306340038447
30
0
10
-7.7200423189945511
20
10.145803472348781
30
0
10
-8.0738096803403607
20
9.7674117554672435
30
0
10
-8.3080035468743212
20
9.3156787192056107
30
0
0
SPLINE
5
280
100
AcDbEntity
8
0
100
AcDbSpline
70
4
71
3
72
8
73
4
74
0
42
0.000000001
43
0.0000000001
44
0.0000000001
40
0
40
0
40
0
40
0
40
1
40
1
40
1
40
1
41
1
41
1
41
1
41
1
10
-8.3080035468743212
20
9.3156787192056107
30
0
10
-8.4838656984128633
20
8.9764744340948432
30
0
10
-8.6886002984567519
20
8.4190069956192417
30
0
10
-8.4837902532278893
20
8.0559861689908132
30
0
0
SPLINE
5
281
100
AcDbEntity
8
0
100
AcDbSpline
70
4
71
3
72
8
73
4
74
0
42
0.000000001
43
0.0000000001
44
0.0000000001
40
0
40
0
40
0
40
0
40
1
40
1
40
1
40
1
41
1
41
1
41
1
41
1
10
-8.4837902532278893
20
8.0559861689908132
30
0
10
-8.091449518808
20
7.3605138667160031
30
0
10
-6.6661385059416904
20
8.463868771837701
30
0
10
-6.2211693544735782
20
8.6674251996654306
30
0
0
SPLINE
5
282
100
AcDbEntity
8
0
100
AcDbSpline
70
4
71
3
72
8
73
4
74
0
42
0.000000001
43
0.0000000001
44
0.0000000001
40
0
40
0
40
0
40
0
40
1
40
1
40
1
40
1
41
1
41
1
41
1
41
1
10
-6.2211693544735782
20
8.6674251996654306
30
0
10
-5.8547678229689613
20
8.8350287721374769
30
0
10
-5.4577685367229956
20
8.7998441431868777
30
0
10
-5.0828737542346385
20
8.9232712915066248
30
0
0
SPLINE
5
283
100
AcDbEntity
8
0
100
AcDbSpline
70
4
71
3
72
8
73
4
74
0
42
0.000000001
43
0.0000000001
44
0.0000000001
40
0
40
0
40
0
40
0
40
1
40
1
40
1
40
1
41
1
41
1
41
1
41
1
10
-5.0828737542346385
20
8.9232712915066248
30
0
10
-4.6561259192519078
20
9.0637762262029202
30
0
10
-4.2630899534206161
20
9.3508949863637199
30
0
10
-3.8722237371515122
20
9.5687160764884034
30
0
0
SPLINE
5
284
100
AcDbEntity
8
0
100
AcDbSpline
70
4
71
3
72
8
73
4
74
0
42
0.000000001
43
0.0000000001
44
0.0000000001
40
0
40
0
40
0
40
0
40
1
40
1
40
1
40
1
41
1
41
1
41
1
41
1
10
-3.8722237371515122
20
9.5687160764884034
30
0
10
-3.5549956731965153
20
9.7455237172328104
30
0
10
-3.1427117919120811
20
9.9370481467278733
30
0
10
-3.0184960047335068
20
10.308471752358436
30
0
0
SPLINE
5
285
100
AcDbEntity
8
0
100
AcDbSpline
70
4
71
3
72
8
73
4
74
0
42
0.000000001
43
0.0000000001
44
0.0000000001
40
0
40
0
40
0
40
0
40
1
40
1
40
1
40
1
41
1
41
1
41
1
41
1
10
-3.0184960047335068
20
10.308471752358436
30
0
10
-2.8535555875536494
20
10.801578136017111
30
0
10
-3.0422515950741706
20
11.397835980975852
30
0
10
-3.0651749898283596
20
11.901191830742523
30
0
0
SPLINE
5
286
100
AcDbEntity
8
0
100
AcDbSpline
70
4
71
3
72
8
73
4
74
0
42
0.000000001
43
0.0000000001
44
0.0000000001
40
0
40
0
40
0
40
0
40
1
40
1
40
1
40
1
41
1
41
1
41
1
41
1
10
-3.0651749898283596
20
11.901191830742523
30
0
10
-1.818516978807162
20
11.446519012736369
30
0
10
-0.4893965449130766
20
10.541272621724625
30
0
10
0.070911963353572638
20
9.2998641752223321
30
0
0
SPLINE
5
287
100
AcDbEntity
8
0
100
AcDbSpline
70
4
71
3
72
8
73
4
74
0
42
0.000000001
43
0.0000000001
44
0.0000000001
40
0
40
0
40
0
40
0
40
1
40
1
40
1
40
1
41
1
41
1
41
1
41
1
10
0.070911963353572638
20
9.2998641752223321
30
0
10
0.39372807343758254
20
8.5846417867457969
30
0
10
0.43528319179377384
20
7.761924997366469
30
0
10
0.71185824755947258
20
7.024840857323813
30
0
0
SPLINE
5
288
100
AcDbEntity
8
0
100
AcDbSpline
70
4
71
3
72
8
73
4
74
0
42
0.000000001
43
0.0000000001
44
0.0000000001
40
0
40
0
40
0
40
0
40
1
40
1
40
1
40
1
41
1
41
1
41
1
41
1
10
0.71185824755947258
20
7.024840857323813
30
0
10
1.0136786420170651
20
6.2204996957098713
30
0
10
1.6498852870916858
20
5.4247685373219712
30
0
10
1.6215863204019443
20
4.5343929972349839
30
0
0
SPLINE
5
289
100
AcDbEntity
8
0
100
AcDbSpline
70
4
71
3
72
8
73
4
74
0
42
0.000000001
43
0.0000000001
44
0.0000000001
40
0
40
0
40
0
40
0
40
1
40
1
40
1
40
1
41
1
41
1
41
1
41
1
10
1.6215863204019443
20
4.5343929972349839
30
0
10
1.5858850567301497
20
3.4125109291502032
30
0
10
1.0237042045942213
20
2.3502421665278517
30
0
10
0.53071617024903595
20
1.371454357142432
30
0
0
SPLINE
5
290
100
AcDbEntity
8
0
100
AcDbSpline
70
4
71
3
72
8
73
4
74
0
42
0.000000001
43
0.0000000001
44
0.0000000001
40
0
40
0
40
0
40
0
40
1
40
1
40
1
40
1
41
1
41
1
41
1
41
1
10
0.53071617024903595
20
1.371454357142432
30
0
10
0.22949108199514789
20
0.77329581242764789
30
0
10
0.029288880991635846
20
-0.079956780067296229
30
0
10
-0.49435764056115161
20
-0.53062901427276099
30
0
0
SPLINE
5
291
100
AcDbEntity
8
0
100
AcDbSpline
70
4
71
3
72
8
73
4
74
0
42
0.000000001
43
0.0000000001
44
0.0000000001
40
0
40
0
40
0
40
0
40
1
40
1
40
1
40
1
41
1
41
1
41
1
41
1
10
-0.49435764056115161
20
-0.53062901427276099
30
0
10
-0.85165622349769432
20
-0.83805364449479391
30
0
10
-1.4396836872643537
20
-0.72481848562999218
30
0
10
-1.8737571622347682
20
-0.86043910730440043
30
0
0
SPLINE
5
292
100
AcDbEntity
8
0
100
AcDbSpline
70
4
71
3
72
8
73
4
74
0
42
0.000000001
43
0.0000000001
44
0.0000000001
40
0
40
0
40
0
40
0
40
1
40
1
40
1
40
1
41
1
41
1
41
1
41
1
10
-1.8737571622347682
20
-0.86043910730440043
30
0
10
-2.0735506940944557
20
-0.92288178303135737
30
0
10
-2.2992584509276903
20
-1.0664685620732905
30
0
10
-2.5136770575863898
20
-1.0082707550548431
30
0
0
SPLINE
5
293
100
AcDbEntity
8
0
100
AcDbSpline
70
4
71
3
72
8
73
4
74
0
42
0.000000001
43
0.0000000001
44
0.0000000001
40
0
40
0
40
0
40
0
40
1
40
1
40
1
40
1
41
1
41
1
41
1
41
1
10
-2.5136770575863898
20
-1.0082707550548431
30
0
10
-3.2442263552410679
20
-0.81006861852541689
30
0
10
-3.6726529734161053
20
-0.17447095297555393
30
0
10
-4.5218783687699293
20
-0.43894442287919055
30
0
0
SPLINE
5
294
100
AcDbEntity
8
0
100
AcDbSpline
70
4
71
3
72
8
73
4
74
0
42
0.000000001
43
0.0000000001
44
0.0000000001
40
0
40
0
40
0
40
0
40
1
40
1
40
1
40
1
41
1
41
1
41
1
41
1
10
-4.5218783687699293
20
-0.43894442287919055
30
0
10
-4.9363103244961337
20
-0.56805931681336297
30
0
10
-5.2473481523701224
20
-0.85485111605596575
30
0
10
-5.6365637882828103
20
-1.0217995931261292
30
0
0
SPLINE
5
295
100
AcDbEntity
8
0
100
AcDbSpline
70
4
71
3
72
8
73
4
74
0
42
0.000000001
43
0.0000000001
44
0.0000000001
40
0
40
0
40
0
40
0
40
1
40
1
40
1
40
1
41
1
41
1
41
1
41
1
10
-5.6365637882828103
20
-1.0217995931261292
30
0
10
-5.9311093344574974
20
-1.148151676219995
30
0
10
-6.2676015479226708
20
-1.0979283847727528
30
0
10
-6.5272009220637734
20
-1.3129839398180154
30
0
0
SPLINE
5
296
100
AcDbEntity
8
0
100
AcDbSpline
70
4
71
3
72
8
73
4
74
0
42
0.000000001
43
0.0000000001
44
0.0000000001
40
0
40
0
40
0
40
0
40
1
40
1
40
1
40
1
41
1
41
1
41
1
41
1
10
-6.5272009220637734
20
-1.3129839398180154
30
0
10
-6.8317958142252344
20
-1.5652394050275475
30
0
10
-6.7938887523354019
20
-2.0420662731464834
30
0
10
-7.1335038882833146
20
-2.2533893342500111
30
0
0
SPLINE
5
297
100
AcDbEntity
8
0
100
AcDbSpline
70
4
71
3
72
8
73
4
74
0
42
0.000000001
43
0.0000000001
44
0.0000000001
40
0
40
0
40
0
40
0
40
1
40
1
40
1
40
1
41
1
41
1
41
1
41
1
10
-7.1335038882833146
20
-2.2533893342500111
30
0
10
-7.6519172562535864
20
-2.5759963027767085
30
0
10
-8.4259990893129384
20
-2.5506325987641665
30
0
10
-9.0117194612764067
20
-2.6730184801341572
30
0
0
SPLINE
5
298
100
AcDbEntity
8
0
100
AcDbSpline
70
4
71
3
72
8
73
4
74
0
42
0.000000001
43
0.0000000001
44
0.0000000001
40
0
40
0
40
0
40
0
40
1
40
1
40
1
40
1
41
1
41
1
41
1
41
1
10
-9.0117194612764067
20
-2.6730184801341572
30
0
10
-9.3104332707038946
20
-2.7354650902483613
30
0
10
-9.6221489544500223
20
-2.9117127249535812
30
0
10
-9.923063043922955
20
-2.9320983484785668
30
0
0
SPLINE
5
299
100
AcDbEntity
8
0
100
AcDbSpline
70
4
71
3
72
8
73
4
74
0
42
0.000000001
43
0.0000000001
44
0.0000000001
40
0
40
0
40
0
40
0
40
1
40
1
40
1
40
1
41
1
41
1
41
1
41
1
10
-9.923063043922955
20
-2.9320983484785668
30
0
10
-10.313608503520328
20
-2.958552940160839
30
0
10
-10.720935283563747
20
-2.492993123120808
30
0
10
-11.146775583864908
20
-2.4459683081264716
30
0
0
SPLINE
5
300
100
AcDbEntity
8
0
100
AcDbSpline
70
4
71
3
72
8
73
4
74
0
42
0.000000001
43
0.0000000001
44
0.0000000001
40
0
40
0
40
0
40
0
40
1
40
1
40
1
40
1
41
1
41
1
41
1
41
1
10
-11.146775583864908
20
-2.4459683081264716
30
0
10
-11.818300668069753
20
-2.3718476285050549
30
0
10
-12.547896169180264
20
-2.9103865325398637
30
0
10
-13.180244877918179
20
-2.58119125544094
30
0
0
SPLINE
5
301
100
AcDbEntity
8
0
100
AcDbSpline
70
4
71
3
72
8
73
4
74
0
42
0.000000001
43
0.0000000001
44
0.0000000001
40
0
40
0
40
0
40
0
40
1
40
1
40
1
40
1
41
1
41
1
41
1
41
1
10
-13.180244877918179
20
-2.58119125544094
30
0
10
-13.876199427505123
20
-2.2188660368614865
30
0
10
-14.014146710966058
20
-1.5642814527153481
30
0
10
-14.264527146725715
20
-0.88872643375426108
30
0
0
SPLINE
5
302
100
AcDbEntity
8
0
100
AcDbSpline
70
4
71
3
72
8
73
4
74
0
42
0.000000001
43
0.0000000001
44
0.0000000001
40
0
40
0
40
0
40
0
40
1
40
1
40
1
40
1
41
1
41
1
41
1
41
1
10
-14.264527146725715
20
-0.88872643375426108
30
0
10
-14.619988752792004
20
0.070303472240778042
30
0
10
-15.235640953678368
20
0.92642282093541528
30
0
10
-14.90599806610998
20
1.9709673629305602
30
0
0
SPLINE
5
303
100
AcDbEntity
8
0
100
AcDbSpline
70
4
71
3
72
8
73
4
74
0
42
0.000000001
43
0.0000000001
44
0.0000000001
40
0
40
0
40
0
40
0
40
1
40
1
40
1
40
1
41
1
41
1
41
1
41
1
10
-14.90599806610998
20
1.9709673629305602
30
0
10
-14.6710870908597
20
2.7153497728385867
30
0
10
-13.977185907376061
20
3.1733878547302963
30
0
10
-13.747761608388483
20
3.8838181802940408
30
0
0
SPLINE
5
304
100
AcDbEntity
8
0
100
AcDbSpline
70
4
71
3
72
8
73
4
74
0
42
0.000000001
43
0.0000000001
44
0.0000000001
40
0
40
0
40
0
40
0
40
1
40
1
40
1
40
1
41
1
41
1
41
1
41
1
10
14.680749770333071
20
9.7990400312715575
30
0
10
14.933518174512754
20
9.7907288965621575
30
0
10
14.949690765351693
20
9.0066651509482618
30
0
10
15.02640456942429
20
8.8205867126976827
30
0
0
SPLINE
5
305
100
AcDbEntity
8
0
100
AcDbSpline
70
4
71
3
72
8
73
4
74
0
42
0.000000001
43
0.0000000001
44
0.0000000001
40
0
40
0
40
0
40
0
40
1
40
1
40
1
40
1
41
1
41
1
41
1
41
1
10
15.02640456942429
20
8.8205867126976827
30
0
10
15.249578244257325
20
8.2789527187918956
30
0
10
15.642632487186583
20
8.400324159876293
30
0
10
16.115717344648179
20
8.4799008585260065
30
0
0
SPLINE
5
306
100
AcDbEntity
8
0
100
AcDbSpline
70
4
71
3
72
8
73
4
74
0
42
0.000000001
43
0.0000000001
44
0.0000000001
40
0
40
0
40
0
40
0
40
1
40
1
40
1
40
1
41
1
41
1
41
1
41
1
10
16.115717344648179
20
8.4799008585260065
30
0
10
15.658313811899085
20
7.590058842269749
30
0
10
14.700270302148574
20
7.3641418276940884
30
0
10
13.879175303940519
20
6.8427994464909192
30
0
0
SPLINE
5
307
100
AcDbEntity
8
0
100
AcDbSpline
70
4
71
3
72
8
73
4
74
0
42
0.000000001
43
0.0000000001
44
0.0000000001
40
0
40
0
40
0
40
0
40
1
40
1
40
1
40
1
41
1
41
1
41
1
41
1
10
13.879175303940519
20
6.8427994464909192
30
0
10
13.385207430423113
20
6.5291517816193023
30
0
10
12.799536693357048
20
5.7812395493457309
30
0
10
12.265360818276923
20
5.6189648062885489
30
0
0
SPLINE
5
308
100
AcDbEntity
8
0
100
AcDbSpline
70
4
71
3
72
8
73
4
74
0
42
0.000000001
43
0.0000000001
44
0.0000000001
40
0
40
0
40
0
40
0
40
1
40
1
40
1
40
1
41
1
41
1
41
1
41
1
10
12.265360818276923
20
5.6189648062885489
30
0
10
11.843252386955559
20
5.4907187389958567
30
0
10
11.356431861001905
20
5.4704158961212679
30
0
10
10.918894380325817
20
5.425813472067893
30
0
0
SPLINE
5
309
100
AcDbEntity
8
0
100
AcDbSpline
70
4
71
3
72
8
73
4
74
0
42
0.000000001
43
0.0000000001
44
0.0000000001
40
0
40
0
40
0
40
0
40
1
40
1
40
1
40
1
41
1
41
1
41
1
41
1
10
10.918894380325817
20
5.425813472067893
30
0
10
10.331967128675661
20
5.3660187675882964
30
0
10
9.1812195048329883
20
5.2767129440902005
30
0
10
8.8810953482221517
20
5.9614414630810852
30
0
0
SPLINE
5
310
100
AcDbEntity
8
0
100
AcDbSpline
70
4
71
3
72
8
73
4
74
0
42
0.000000001
43
0.0000000001
44
0.0000000001
40
0
40
0
40
0
40
0
40
1
40
1
40
1
40
1
41
1
41
1
41
1
41
1
10
8.8810953482221517
20
5.9614414630810852
30
0
10
8.7172647147544495
20
6.3351667330265338
30
0
10
9.1479857307975028
20
7.2123098593057788
30
0
10
9.2473169193720821
20
7.5948917580683384
30
0
0
SPLINE
5
311
100
AcDbEntity
8
0
100
AcDbSpline
70
4
71
3
72
8
73
4
74
0
42
0.000000001
43
0.0000000001
44
0.0000000001
40
0
40
0
40
0
40
0
40
1
40
1
40
1
40
1
41
1
41
1
41
1
41
1
10
9.2473169193720821
20
7.5948917580683384
30
0
10
9.5735969341420564
20
8.8509897825966419
30
0
10
9.7772696078184591
20
9.8014916632993945
30
0
10
9.5197298915767057
20
11.11408573482924
30
0
0
SPLINE
5
312
100
AcDbEntity
8
0
100
AcDbSpline
70
4
71
3
72
8
73
4
74
0
42
0.000000001
43
0.0000000001
44
0.0000000001
40
0
40
0
40
0
40
0
40
1
40
1
40
1
40
1
41
1
41
1
41
1
41
1
10
9.5197298915767057
20
11.11408573482924
30
0
10
9.4293966418409276
20
11.574454036516638
30
0
10
9.3554460002997999
20
12.464345312414732
30
0
10
8.8921196109720579
20
12.684806576566405
30
0
0
LINE
5
313
100
AcDbEntity
8
0
100
AcDbLine
10
8.8921196109720597
20
12.684806576566405
30
0
11
9.0514568054677813
21
12.801893913902386
31
0
0
LINE
5
314
100
AcDbEntity
8
0
100
AcDbLine
10
9.0514568054677813
20
12.801893913902386
30
0
11
8.7469926191922767
21
13.087791148450663
31
0
0
SPLINE
5
315
100
AcDbEntity
8
0
100
AcDbSpline
70
4
71
3
72
8
73
4
74
0
42
0.000000001
43
0.0000000001
44
0.0000000001
40
0
40
0
40
0
40
0
40
1
40
1
40
1
40
1
41
1
41
1
41
1
41
1
10
8.7469926191922767
20
13.087791148450663
30
0
10
9.1067340406466286
20
13.196366960304102
30
0
10
10.236079374268554
20
13.294694006885312
30
0
10
10.571058596923708
20
13.128709443047143
30
0
0
SPLINE
5
316
100
AcDbEntity
8
0
100
AcDbSpline
70
4
71
3
72
8
73
4
74
0
42
0.000000001
43
0.0000000001
44
0.0000000001
40
0
40
0
40
0
40
0
40
1
40
1
40
1
40
1
41
1
41
1
41
1
41
1
10
10.571058596923708
20
13.128709443047143
30
0
10
10.79587851729929
20
13.017316088770228
30
0
10
10.963469321069304
20
12.698336066614049
30
0
10
11.100223653786003
20
12.498108756707065
30
0
0
SPLINE
5
317
100
AcDbEntity
8
0
100
AcDbSpline
70
4
71
3
72
8
73
4
74
0
42
0.000000001
43
0.0000000001
44
0.0000000001
40
0
40
0
40
0
40
0
40
1
40
1
40
1
40
1
41
1
41
1
41
1
41
1
10
11.100223653786003
20
12.498108756707065
30
0
10
11.530999508392712
20
11.867199351469985
30
0
10
12.021260137227603
20
11.118811811439716
30
0
10
12.110419952780063
20
10.34623384111153
30
0
0
SPLINE
5
318
100
AcDbEntity
8
0
100
AcDbSpline
70
4
71
3
72
8
73
4
74
0
42
0.000000001
43
0.0000000001
44
0.0000000001
40
0
40
0
40
0
40
0
40
1
40
1
40
1
40
1
41
1
41
1
41
1
41
1
10
12.110419952780063
20
10.34623384111153
30
0
10
12.168181980345043
20
9.8456042703871294
30
0
10
11.776386779431409
20
8.8591078662757781
30
0
10
12.145596816575047
20
8.4684071016799027
30
0
0
SPLINE
5
319
100
AcDbEntity
8
0
100
AcDbSpline
70
4
71
3
72
8
73
4
74
0
42
0.000000001
43
0.0000000001
44
0.0000000001
40
0
40
0
40
0
40
0
40
1
40
1
40
1
40
1
41
1
41
1
41
1
41
1
10
12.145596816575047
20
8.4684071016799027
30
0
10
12.637082481310982
20
7.9483463916825947
30
0
10
13.890975152249572
20
8.6721891611807411
30
0
10
14.166155402704319
20
9.1311237722295058
30
0
0
SPLINE
5
320
100
AcDbEntity
8
0
100
AcDbSpline
70
4
71
3
72
8
73
4
74
0
42
0.000000001
43
0.0000000001
44
0.0000000001
40
0
40
0
40
0
40
0
40
1
40
1
40
1
40
1
41
1
41
1
41
1
41
1
10
14.166155402704319
20
9.1311237722295058
30
0
10
14.272744014486623
20
9.3088460316877821
30
0
10
14.415590339387181
20
9.8077760091698352
30
0
10
14.680749770333071
20
9.7990400312715575
30
0
0
LINE
5
321
100
AcDbEntity
8
0
100
AcDbLine
10
6.7879604823690816
20
11.232962661365928
30
0
11
8.5969391368444583
21
12.675522593989497
31
0
0
SPLINE
5
322
100
AcDbEntity
8
0
100
AcDbSpline
70
4
71
3
72
8
73
4
74
0
42
0.000000001
43
0.0000000001
44
0.0000000001
40
0
40
0
40
0
40
0
40
1
40
1
40
1
40
1
41
1
41
1
41
1
41
1
10
8.5969391368444583
20
12.675522593989497
30
0
10
7.6565025269180058
20
12.09776165480001
30
0
10
6.7696740834707576
20
11.437985314151893
30
0
10
5.8110056119082714
20
10.888220662485107
30
0
0
SPLINE
5
323
100
AcDbEntity
8
0
100
AcDbSpline
70
4
71
3
72
8
73
4
74
0
42
0.000000001
43
0.0000000001
44
0.0000000001
40
0
40
0
40
0
40
0
40
1
40
1
40
1
40
1
41
1
41
1
41
1
41
1
10
5.8110056119082714
20
10.888220662485107
30
0
10
5.490252046173298
20
10.704292881081237
30
0
10
4.9388554097427999
20
10.322489398596453
30
0
10
4.5532948265183943
20
10.384619029321714
30
0
0
SPLINE
5
324
100
AcDbEntity
8
0
100
AcDbSpline
70
4
71
3
72
8
73
4
74
0
42
0.000000001
43
0.0000000001
44
0.0000000001
40
0
40
0
40
0
40
0
40
1
40
1
40
1
40
1
41
1
41
1
41
1
41
1
10
4.5532948265183943
20
10.384619029321714
30
0
10
3.8354477606477322
20
10.500343336734018
30
0
10
3.5121995178780874
20
11.583977169098613
30
0
10
2.7658294415104514
20
11.72700743965656
30
0
0
SPLINE
5
325
100
AcDbEntity
8
0
100
AcDbSpline
70
4
71
3
72
8
73
4
74
0
42
0.000000001
43
0.0000000001
44
0.0000000001
40
0
40
0
40
0
40
0
40
1
40
1
40
1
40
1
41
1
41
1
41
1
41
1
10
2.7658294415104514
20
11.72700743965656
30
0
10
2.3212047976557781
20
11.812210620683919
30
0
10
1.7968432928107991
20
11.216714111627244
30
0
10
1.4575364492855158
20
11.353809983532912
30
0
0
SPLINE
5
326
100
AcDbEntity
8
0
100
AcDbSpline
70
4
71
3
72
8
73
4
74
0
42
0.000000001
43
0.0000000001
44
0.0000000001
40
0
40
0
40
0
40
0
40
1
40
1
40
1
40
1
41
1
41
1
41
1
41
1
10
1.4575364492855158
20
11.353809983532912
30
0
10
1.1817887965918605
20
11.465262229027894
30
0
10
0.92091930088492258
20
11.871096717387296
30
0
10
0.66626276333335177
20
12.05155827931835
30
0
0
SPLINE
5
327
100
AcDbEntity
8
0
100
AcDbSpline
70
4
71
3
72
8
73
4
74
0
42
0.000000001
43
0.0000000001
44
0.0000000001
40
0
40
0
40
0
40
0
40
1
40
1
40
1
40
1
41
1
41
1
41
1
41
1
10
0.66626276333335177
20
12.05155827931835
30
0
10
-0.31708428994788984
20
12.74848279580989
30
0
10
-1.1803556032645024
20
12.985301937223495
30
0
10
-1.4282883622906739
20
14.281793122594122
30
0
0
SPLINE
5
328
100
AcDbEntity
8
0
100
AcDbSpline
70
4
71
3
72
8
73
4
74
0
42
0.000000001
43
0.0000000001
44
0.0000000001
40
0
40
0
40
0
40
0
40
1
40
1
40
1
40
1
41
1
41
1
41
1
41
1
10
-1.4282883622906739
20
14.281793122594122
30
0
10
-1.4860065945966816
20
14.583397797451161
30
0
10
-1.7033123636652703
20
15.208977262133473
30
0
10
-1.5117523525552445
20
15.479379578217216
30
0
0
SPLINE
5
329
100
AcDbEntity
8
0
100
AcDbSpline
70
4
71
3
72
8
73
4
74
0
42
0.000000001
43
0.0000000001
44
0.0000000001
40
0
40
0
40
0
40
0
40
1
40
1
40
1
40
1
41
1
41
1
41
1
41
1
10
-1.5117523525552445
20
15.479379578217216
30
0
10
-1.1054594122700623
20
16.052893991368279
30
0
10
0.012680163548346446
20
16.306271983997249
30
0
10
0.64879209846146813
20
16.493190114763721
30
0
0
SPLINE
5
330
100
AcDbEntity
8
0
100
AcDbSpline
70
4
71
3
72
8
73
4
74
0
42
0.000000001
43
0.0000000001
44
0.0000000001
40
0
40
0
40
0
40
0
40
1
40
1
40
1
40
1
41
1
41
1
41
1
41
1
10
0.64879209846146813
20
16.493190114763721
30
0
10
1.2485046821790036
20
16.669411233619705
30
0
10
1.8737817318529548
20
16.899835513920536
30
0
10
2.5078371122240695
20
16.79055883611835
30
0
0
SPLINE
5
331
100
AcDbEntity
8
0
100
AcDbSpline
70
4
71
3
72
8
73
4
74
0
42
0.000000001
43
0.0000000001
44
0.0000000001
40
0
40
0
40
0
40
0
40
1
40
1
40
1
40
1
41
1
41
1
41
1
41
1
10
2.5078371122240695
20
16.79055883611835
30
0
10
3.1673166705282085
20
16.676895741222932
30
0
10
3.7587670343741375
20
16.24227204698942
30
0
10
4.3857926182708535
20
16.017473373045526
30
0
0
SPLINE
5
332
100
AcDbEntity
8
0
100
AcDbSpline
70
4
71
3
72
8
73
4
74
0
42
0.000000001
43
0.0000000001
44
0.0000000001
40
0
40
0
40
0
40
0
40
1
40
1
40
1
40
1
41
1
41
1
41
1
41
1
10
4.3857926182708535
20
16.017473373045526
30
0
10
4.9418326380464883
20
15.81811964784551
30
0
10
5.5279421065203511
20
15.772089710157431
30
0
10
6.0691642677147488
20
15.511500109710784
30
0
0
SPLINE
5
333
100
AcDbEntity
8
0
100
AcDbSpline
70
4
71
3
72
8
73
4
74
0
42
0.000000001
43
0.0000000001
44
0.0000000001
40
0
40
0
40
0
40
0
40
1
40
1
40
1
40
1
41
1
41
1
41
1
41
1
10
6.0691642677147488
20
15.511500109710784
30
0
10
6.7289212368165652
20
15.193836303021248
30
0
10
7.150358030688782
20
14.641978621715213
30
0
10
7.5910850966520282
20
14.08090541735705
30
0
0
SPLINE
5
334
100
AcDbEntity
8
0
100
AcDbSpline
70
4
71
3
72
8
73
4
74
0
42
0.000000001
43
0.0000000001
44
0.0000000001
40
0
40
0
40
0
40
0
40
1
40
1
40
1
40
1
41
1
41
1
41
1
41
1
10
7.5910850966520282
20
14.08090541735705
30
0
10
7.8882703920709645
20
13.702530101011217
30
0
10
8.5171075610863767
20
13.149518505615671
30
0
10
8.5969391368444583
20
12.675522593989497
30
0
0
SPLINE
5
335
100
AcDbEntity
8
0
100
AcDbSpline
70
4
71
3
72
8
73
4
74
0
42
0.000000001
43
0.0000000001
44
0.0000000001
40
0
40
0
40
0
40
0
40
1
40
1
40
1
40
1
41
1
41
1
41
1
41
1
10
8.5969391368444583
20
12.675522593989497
30
0
10
8.9249589685203379
20
12.539325660848322
30
0
10
8.9833595337746193
20
12.118533750092894
30
0
10
9.0713230516675338
20
11.802536477429278
30
0
0
SPLINE
5
336
100
AcDbEntity
8
0
100
AcDbSpline
70
4
71
3
72
8
73
4
74
0
42
0.000000001
43
0.0000000001
44
0.0000000001
40
0
40
0
40
0
40
0
40
1
40
1
40
1
40
1
41
1
41
1
41
1
41
1
10
9.0713230516675338
20
11.802536477429278
30
0
10
9.2804989951806895
20
11.050880873386607
30
0
10
9.7161427696926932
20
9.529488400467903
30
0
10
9.2376984271397298
20
8.8239610949211134
30
0
0
SPLINE
5
337
100
AcDbEntity
8
0
100
AcDbSpline
70
4
71
3
72
8
73
4
74
0
42
0.000000001
43
0.0000000001
44
0.0000000001
40
0
40
0
40
0
40
0
40
1
40
1
40
1
40
1
41
1
41
1
41
1
41
1
10
9.2376984271397298
20
8.8239610949211134
30
0
10
8.6526588839903322
20
9.872676956909137
30
0
10
7.6688756271704106
20
10.468505595220829
30
0
10
6.7879604823690816
20
11.232962661365926
30
0
0
LINE
5
338
100
AcDbEntity
8
0
100
AcDbLine
10
6.5080501250401888
20
15.595149937269808
30
0
11
5.4118249708589445
21
16.110864152341598
31
0
0
SPLINE
5
339
100
AcDbEntity
8
0
100
AcDbSpline
70
4
71
3
72
8
73
4
74
0
42
0.000000001
43
0.0000000001
44
0.0000000001
40
0
40
0
40
0
40
0
40
1
40
1
40
1
40
1
41
1
41
1
41
1
41
1
10
5.4118249708589445
20
16.110864152341598
30
0
10
5.7686183146702703
20
16.556394545865963
30
0
10
6.2537844759429913
20
17.154040884078455
30
0
10
6.7990620301203304
20
17.356762595130768
30
0
0
LINE
5
340
100
AcDbEntity
8
0
100
AcDbLine
10
6.7990620301203304
20
17.356762595130768
30
0
11
6.5080501250401888
21
15.595149937269808
31
0
0
ARC
5
341
100
AcDbEntity
8
0
100
AcDbCircle
10
4.9960036108132044e-15
20
-1.7763568394002505e-14
30
0
40
18.684999999999988
210
0
220
-0
230
1
100
AcDbArc
50
68.217555384466934
51
69.863168888684783
0
SPLINE
5
342
100
AcDbEntity
8
0
100
AcDbSpline
70
4
71
3
72
8
73
4
74
0
42
0.000000001
43
0.0000000001
44
0.0000000001
40
0.67900775821138382
40
0.67900775821138382
40
0.67900775821138382
40
0.67900775821138382
40
1
40
1
40
1
40
1
41
1
41
1
41
1
41
1
10
6.4325596860107677
20
17.542844720452493
30
0
10
6.2303200255670959
20
17.392838662130355
30
0
10
6.0391161631105206
20
17.227713451914141
30
0
10
5.8588406762309138
20
17.05702733151054
30
0
0
SPLINE
5
343
100
AcDbEntity
8
0
100
AcDbSpline
70
4
71
3
72
8
73
4
74
0
42
0.000000001
43
0.0000000001
44
0.0000000001
40
0
40
0
40
0
40
0
40
1
40
1
40
1
40
1
41
1
41
1
41
1
41
1
10
5.8588406762309138
20
17.05702733151054
30
0
10
5.6139364238688501
20
16.825101547572611
30
0
10
5.3473770402091798
20
16.350889528471217
30
0
10
5.024692985378838
20
16.236698737676893
30
0
0
SPLINE
5
344
100
AcDbEntity
8
0
100
AcDbSpline
70
4
71
3
72
8
73
4
74
0
42
0.000000001
43
0.0000000001
44
0.0000000001
40
0
40
0
40
0
40
0
40
1
40
1
40
1
40
1
41
1
41
1
41
1
41
1
10
5.024692985378838
20
16.236698737676893
30
0
10
4.3321631857899039
20
15.991621954793985
30
0
10
3.4220464203493473
20
16.895036739362308
30
0
10
2.780409443737283
20
17.058685944362519
30
0
0
SPLINE
5
345
100
AcDbEntity
8
0
100
AcDbSpline
70
4
71
3
72
8
73
4
74
0
42
0.000000001
43
0.0000000001
44
0.0000000001
40
0
40
0
40
0
40
0
40
1
40
1
40
1
40
1
41
1
41
1
41
1
41
1
10
2.780409443737283
20
17.058685944362519
30
0
10
1.5523536689973683
20
17.371899829699448
30
0
10
-0.68659609969917157
20
16.655288248616852
30
0
10
-1.5882140517951848
20
15.799025887278553
30
0
0
LINE
5
346
100
AcDbEntity
8
0
100
AcDbLine
10
-1.5882140517951853
20
15.79902588727855
30
0
11
-2.1960485867326049
21
15.221768266155832
31
0
0
SPLINE
5
347
100
AcDbEntity
8
0
100
AcDbSpline
70
4
71
3
72
8
73
4
74
0
42
0.000000001
43
0.0000000001
44
0.0000000001
40
0.50252247896657865
40
0.50252247896657865
40
0.50252247896657865
40
0.50252247896657865
40
1
40
1
40
1
40
1
41
1
41
1
41
1
41
1
10
-2.1960485868014326
20
15.221768266212299
30
0
10
-2.4259168780872118
20
14.941638534055933
30
0
10
-2.7008773637586869
20
14.679682722546987
30
0
10
-2.9098138616452731
20
14.412501194529776
30
0
0
SPLINE
5
348
100
AcDbEntity
8
0
100
AcDbSpline
70
4
71
3
72
8
73
4
74
0
42
0.000000001
43
0.0000000001
44
0.0000000001
40
0
40
0
40
0
40
0
40
1
40
1
40
1
40
1
41
1
41
1
41
1
41
1
10
-2.9098138616452731
20
14.412501194529776
30
0
10
-2.9839888505735224
20
15.155055503846686
30
0
10
-2.5333675659000421
20
16.063298451968194
30
0
10
-2.290860607580151
20
16.755077665081469
30
0
0
SPLINE
5
349
100
AcDbEntity
8
0
100
AcDbSpline
70
4
71
3
72
8
73
4
74
0
42
0.000000001
43
0.0000000001
44
0.0000000001
40
0
40
0
40
0
40
0
40
0.50029612059273465
40
0.50029612059273465
40
0.50029612059273465
40
0.50029612059273465
41
1
41
1
41
1
41
1
10
-2.290860607580151
20
16.755077665081469
30
0
10
-2.0769245958032201
20
17.365328663329937
30
0
10
-1.8729619860666209
20
17.985135915716889
30
0
10
-1.6825807893950855
20
18.609087749998853
30
0
0
ARC
5
350
100
AcDbEntity
8
0
100
AcDbCircle
10
4.9960036108132044e-15
20
-1.7763568394002505e-14
30
0
40
18.684999999999988
210
0
220
0
230
1
100
AcDbArc
50
95.16647290480249
51
96.260484017553722
0
SPLINE
5
351
100
AcDbEntity
8
0
100
AcDbSpline
70
4
71
3
72
8
73
4
74
0
42
0.000000001
43
0.0000000001
44
0.0000000001
40
0.96626924657242297
40
0.96626924657242297
40
0.96626924657242297
40
0.96626924657242297
40
1
40
1
40
1
40
1
41
1
41
1
41
1
41
1
10
-2.0375761941789325
20
18.573570153659581
30
0
10
-2.0483339749068041
20
18.543602675543369
30
0
10
-2.0591443717933715
20
18.513697754748218
30
0
10
-2.0700050843683599
20
18.483858192189253
30
0
0
SPLINE
5
352
100
AcDbEntity
8
0
100
AcDbSpline
70
4
71
3
72
8
73
4
74
0
42
0.000000001
43
0.0000000001
44
0.0000000001
40
0
40
0
40
0
40
0
40
1
40
1
40
1
40
1
41
1
41
1
41
1
41
1
10
-2.0700050843683599
20
18.483858192189253
30
0
10
-2.4380108225485579
20
17.472770736309428
30
0
10
-2.8306169744452889
20
16.396519275424335
30
0
10
-3.0776518914348334
20
15.348988335439397
30
0
0
SPLINE
5
353
100
AcDbEntity
8
0
100
AcDbSpline
70
4
71
3
72
8
73
4
74
0
42
0.000000001
43
0.0000000001
44
0.0000000001
40
0
40
0
40
0
40
0
40
1
40
1
40
1
40
1
41
1
41
1
41
1
41
1
10
-3.0776518914348334
20
15.348988335439397
30
0
10
-3.2163102338407255
20
14.760700994888353
30
0
10
-3.1764249188017946
20
14.046443384908917
30
0
10
-3.4789373145213149
20
13.514175912059958
30
0
0
SPLINE
5
354
100
AcDbEntity
8
0
100
AcDbSpline
70
4
71
3
72
8
73
4
74
0
42
0.000000001
43
0.0000000001
44
0.0000000001
40
0
40
0
40
0
40
0
40
1
40
1
40
1
40
1
41
1
41
1
41
1
41
1
10
-3.4789373145213149
20
13.514175912059958
30
0
10
-3.6286700706227863
20
13.250785235461793
30
0
10
-4.1254741397460242
20
13.310801118263022
30
0
10
-4.3649111528681068
20
13.074340950690901
30
0
0
SPLINE
5
355
100
AcDbEntity
8
0
100
AcDbSpline
70
4
71
3
72
8
73
4
74
0
42
0.000000001
43
0.0000000001
44
0.0000000001
40
0
40
0
40
0
40
0
40
1
40
1
40
1
40
1
41
1
41
1
41
1
41
1
10
-4.3649111528681068
20
13.074340950690901
30
0
10
-4.8331010313731024
20
12.612004425662882
30
0
10
-5.1820517151319407
20
11.789080347675604
30
0
10
-5.5075321661764001
20
11.214399254304643
30
0
0
SPLINE
5
356
100
AcDbEntity
8
0
100
AcDbSpline
70
4
71
3
72
8
73
4
74
0
42
0.000000001
43
0.0000000001
44
0.0000000001
40
0
40
0
40
0
40
0
40
1
40
1
40
1
40
1
41
1
41
1
41
1
41
1
10
-5.5075321661764001
20
11.214399254304643
30
0
10
-6.0860910286541134
20
10.192756655528887
30
0
10
-6.191160824721079
20
8.7289211315159054
30
0
10
-7.4471076506072382
20
8.3603640935522066
30
0
0
SPLINE
5
357
100
AcDbEntity
8
0
100
AcDbSpline
70
4
71
3
72
8
73
4
74
0
42
0.000000001
43
0.0000000001
44
0.0000000001
40
0
40
0
40
0
40
0
40
0.94995660662236692
40
0.94995660662236692
40
0.94995660662236692
40
0.94995660662236692
41
1
41
1
41
1
41
1
10
-7.4471076506072382
20
8.3603640935522066
30
0
10
-6.1543082032299417
20
11.696432764593485
30
0
10
-4.7640985964823521
20
14.986778029759286
30
0
10
-3.5207975590360538
20
18.350291810984494
30
0
0
ARC
5
358
100
AcDbEntity
8
0
100
AcDbCircle
10
4.9960036108132044e-15
20
-1.7763568394002505e-14
30
0
40
18.684999999999988
210
0
220
0
230
1
100
AcDbArc
50
100.86112190441291
51
101.98835653805257
0
SPLINE
5
359
100
AcDbEntity
8
0
100
AcDbSpline
70
4
71
3
72
8
73
4
74
0
42
0.000000001
43
0.0000000001
44
0.0000000001
40
0.24238286455832211
40
0.24238286455832211
40
0.24238286455832211
40
0.24238286455832211
40
1
40
1
40
1
40
1
41
1
41
1
41
1
41
1
10
-3.881115733668683
20
18.277477004823947
30
0
10
-4.3113709216740546
20
17.166561535573408
30
0
10
-4.6978671332890363
20
16.037671488415111
30
0
10
-5.169509947152954
20
14.943155195922749
30
0
0
SPLINE
5
360
100
AcDbEntity
8
0
100
AcDbSpline
70
4
71
3
72
8
73
4
74
0
42
0.000000001
43
0.0000000001
44
0.0000000001
40
0
40
0
40
0
40
0
40
1
40
1
40
1
40
1
41
1
41
1
41
1
41
1
10
-5.169509947152954
20
14.943155195922749
30
0
10
-5.7322185300021218
20
13.637305709155321
30
0
10
-6.362703162569181
20
12.221020329705487
30
0
10
-6.7158515494946913
20
10.837147003899197
30
0
0
SPLINE
5
361
100
AcDbEntity
8
0
100
AcDbSpline
70
4
71
3
72
8
73
4
74
0
42
0.000000001
43
0.0000000001
44
0.0000000001
40
0
40
0
40
0
40
0
40
1
40
1
40
1
40
1
41
1
41
1
41
1
41
1
10
-6.7158515494946913
20
10.837147003899197
30
0
10
-6.905757297947388
20
10.092956751445021
30
0
10
-7.1055295902832016
20
9.0389046806044817
30
0
10
-7.5043658469269436
20
8.3812060555317309
30
0
0
SPLINE
5
362
100
AcDbEntity
8
0
100
AcDbSpline
70
4
71
3
72
8
73
4
74
0
42
0.000000001
43
0.0000000001
44
0.0000000001
40
0
40
0
40
0
40
0
40
1
40
1
40
1
40
1
41
1
41
1
41
1
41
1
10
-7.5043658469269436
20
8.3812060555317309
30
0
10
-7.606410190624576
20
8.2129198083512058
30
0
10
-7.866347219535017
20
8.1222926496590233
30
0
10
-8.0583544964110061
20
8.1240709049866044
30
0
0
SPLINE
5
363
100
AcDbEntity
8
0
100
AcDbSpline
70
4
71
3
72
8
73
4
74
0
42
0.000000001
43
0.0000000001
44
0.0000000001
40
0
40
0
40
0
40
0
40
1
40
1
40
1
40
1
41
1
41
1
41
1
41
1
10
-8.0583544964110061
20
8.1240709049866044
30
0
10
-8.5210404717711778
20
8.1283076271140686
30
0
10
-8.1120552794921963
20
8.9447310598378991
30
0
10
-8.0325426819327657
20
9.1570511463824804
30
0
0
SPLINE
5
364
100
AcDbEntity
8
0
100
AcDbSpline
70
4
71
3
72
8
73
4
74
0
42
0.000000001
43
0.0000000001
44
0.0000000001
40
0
40
0
40
0
40
0
40
1
40
1
40
1
40
1
41
1
41
1
41
1
41
1
10
-8.0325426819327657
20
9.1570511463824804
30
0
10
-7.8340274376858021
20
9.6871354524752569
30
0
10
-7.3868749228203434
20
10.083945110842926
30
0
10
-7.1205595005682376
20
10.575928064802111
30
0
0
SPLINE
5
365
100
AcDbEntity
8
0
100
AcDbSpline
70
4
71
3
72
8
73
4
74
0
42
0.000000001
43
0.0000000001
44
0.0000000001
40
0
40
0
40
0
40
0
40
1
40
1
40
1
40
1
41
1
41
1
41
1
41
1
10
-7.1205595005682376
20
10.575928064802111
30
0
10
-6.8747297148748929
20
11.03007996719966
30
0
10
-6.8094982115791236
20
11.555275347706196
30
0
10
-6.6354549722800176
20
12.033455217689228
30
0
0
SPLINE
5
366
100
AcDbEntity
8
0
100
AcDbSpline
70
4
71
3
72
8
73
4
74
0
42
0.000000001
43
0.0000000001
44
0.0000000001
40
0
40
0
40
0
40
0
40
0.8126727255580497
40
0.8126727255580497
40
0.8126727255580497
40
0.8126727255580497
41
1
41
1
41
1
41
1
10
-6.6354549722800176
20
12.033455217689228
30
0
10
-5.8794157742777013
20
14.110655842423178
30
0
10
-5.0491798527681642
20
16.169060551822184
30
0
10
-4.1860706730938837
20
18.210053193768058
30
0
0
ARC
5
367
100
AcDbEntity
8
0
100
AcDbCircle
10
4.9960036108132044e-15
20
-1.7763568394002505e-14
30
0
40
18.684999999999988
210
0
220
0
230
1
100
AcDbArc
50
102.94606587363145
51
104.02659166730274
0
SPLINE
5
368
100
AcDbEntity
8
0
100
AcDbSpline
70
4
71
3
72
8
73
4
74
0
42
0.000000001
43
0.0000000001
44
0.0000000001
40
0.78761498635784388
40
0.78761498635784388
40
0.78761498635784388
40
0.78761498635784388
40
1
40
1
40
1
40
1
41
1
41
1
41
1
41
1
10
-4.5287244740805672
20
18.127875761871895
30
0
10
-4.6799353959684282
20
17.782123510312154
30
0
10
-4.8374996748760282
20
17.439249462440234
30
0
10
-5.0074064080120095
20
17.101855428957546
30
0
0
SPLINE
5
369
100
AcDbEntity
8
0
100
AcDbSpline
70
4
71
3
72
8
73
4
74
0
42
0.000000001
43
0.0000000001
44
0.0000000001
40
0
40
0
40
0
40
0
40
1
40
1
40
1
40
1
41
1
41
1
41
1
41
1
10
-5.0074064080120095
20
17.101855428957546
30
0
10
-5.5381730799587281
20
16.047876699416889
30
0
10
-5.860973050927627
20
14.872917908928438
30
0
10
-6.3397584326168621
20
13.79336638406274
30
0
0
SPLINE
5
370
100
AcDbEntity
8
0
100
AcDbSpline
70
4
71
3
72
8
73
4
74
0
42
0.000000001
43
0.0000000001
44
0.0000000001
40
0
40
0
40
0
40
0
40
1
40
1
40
1
40
1
41
1
41
1
41
1
41
1
10
-6.3397584326168621
20
13.79336638406274
30
0
10
-6.4765891050094631
20
13.484835765808423
30
0
10
-6.5276058166176201
20
13.034420576177386
30
0
10
-6.7503180722697724
20
12.776465748897269
30
0
0
SPLINE
5
371
100
AcDbEntity
8
0
100
AcDbSpline
70
4
71
3
72
8
73
4
74
0
42
0.000000001
43
0.0000000001
44
0.0000000001
40
0
40
0
40
0
40
0
40
1
40
1
40
1
40
1
41
1
41
1
41
1
41
1
10
-6.7503180722697724
20
12.776465748897269
30
0
10
-7.0178427935297671
20
12.466597688833756
30
0
10
-7.7024324496074614
20
12.519677054929561
30
0
10
-8.0765682213166414
20
12.403092952043657
30
0
0
SPLINE
5
372
100
AcDbEntity
8
0
100
AcDbSpline
70
4
71
3
72
8
73
4
74
0
42
0.000000001
43
0.0000000001
44
0.0000000001
40
0
40
0
40
0
40
0
40
1
40
1
40
1
40
1
41
1
41
1
41
1
41
1
10
-8.0765682213166414
20
12.403092952043657
30
0
10
-8.9374242579062173
20
12.134741345701546
30
0
10
-9.7716862780730889
20
11.709524761535937
30
0
10
-10.487967702987762
20
11.15960541815884
30
0
0
SPLINE
5
373
100
AcDbEntity
8
0
100
AcDbSpline
70
4
71
3
72
8
73
4
74
0
42
0.000000001
43
0.0000000001
44
0.0000000001
40
0
40
0
40
0
40
0
40
1
40
1
40
1
40
1
41
1
41
1
41
1
41
1
10
-10.487967702987762
20
11.15960541815884
30
0
10
-11.322856576243208
20
10.518624698030635
30
0
10
-11.825626669324997
20
9.6781515911439193
30
0
10
-12.408017183915145
20
8.8237048490916301
30
0
0
SPLINE
5
374
100
AcDbEntity
8
0
100
AcDbSpline
70
4
71
3
72
8
73
4
74
0
42
0.000000001
43
0.0000000001
44
0.0000000001
40
0
40
0
40
0
40
0
40
1
40
1
40
1
40
1
41
1
41
1
41
1
41
1
10
-12.408017183915145
20
8.8237048490916301
30
0
10
-12.594980415797894
20
8.5494131269276252
30
0
10
-12.949993175531533
20
8.3263054392464468
30
0
10
-13.052533940746889
20
8.0078034468520958
30
0
0
SPLINE
5
375
100
AcDbEntity
8
0
100
AcDbSpline
70
4
71
3
72
8
73
4
74
0
42
0.000000001
43
0.0000000001
44
0.0000000001
40
0
40
0
40
0
40
0
40
1
40
1
40
1
40
1
41
1
41
1
41
1
41
1
10
-13.052533940746889
20
8.0078034468520958
30
0
10
-13.184748751606623
20
7.5971551734555165
30
0
10
-12.869025142700554
20
7.1136378254439219
30
0
10
-13.047306098000798
20
6.7219725726991353
30
0
0
SPLINE
5
376
100
AcDbEntity
8
0
100
AcDbSpline
70
4
71
3
72
8
73
4
74
0
42
0.000000001
43
0.0000000001
44
0.0000000001
40
0
40
0
40
0
40
0
40
1
40
1
40
1
40
1
41
1
41
1
41
1
41
1
10
-13.047306098000798
20
6.7219725726991353
30
0
10
-13.268998198385439
20
6.2349317910030937
30
0
10
-13.959434888880139
20
6.1369426110184389
30
0
10
-14.127058668045089
20
5.5975988129204746
30
0
0
SPLINE
5
377
100
AcDbEntity
8
0
100
AcDbSpline
70
4
71
3
72
8
73
4
74
0
42
0.000000001
43
0.0000000001
44
0.0000000001
40
0
40
0
40
0
40
0
40
1
40
1
40
1
40
1
41
1
41
1
41
1
41
1
10
-14.127058668045089
20
5.5975988129204746
30
0
10
-14.294176432277386
20
5.0598815885342807
30
0
10
-13.845981316109771
20
4.4878207045102414
30
0
10
-14.040362101747593
20
3.9319530816833259
30
0
0
SPLINE
5
378
100
AcDbEntity
8
0
100
AcDbSpline
70
4
71
3
72
8
73
4
74
0
42
0.000000001
43
0.0000000001
44
0.0000000001
40
0
40
0
40
0
40
0
40
1
40
1
40
1
40
1
41
1
41
1
41
1
41
1
10
-14.040362101747593
20
3.9319530816833259
30
0
10
-14.152564998258448
20
3.6110727890944228
30
0
10
-14.467167356130568
20
3.3751265658645835
30
0
10
-14.666706577275189
20
3.1094375099603688
30
0
0
SPLINE
5
379
100
AcDbEntity
8
0
100
AcDbSpline
70
4
71
3
72
8
73
4
74
0
42
0.000000001
43
0.0000000001
44
0.0000000001
40
0
40
0
40
0
40
0
40
1
40
1
40
1
40
1
41
1
41
1
41
1
41
1
10
-14.666706577275189
20
3.1094375099603688
30
0
10
-15.018277039062188
20
2.641305808724117
30
0
10
-15.40032028613798
20
1.8000198385922994
30
0
10
-15.359144963042151
20
1.2021305511450642
30
0
0
SPLINE
5
380
100
AcDbEntity
8
0
100
AcDbSpline
70
4
71
3
72
8
73
4
74
0
42
0.000000001
43
0.0000000001
44
0.0000000001
40
0
40
0
40
0
40
0
40
1
40
1
40
1
40
1
41
1
41
1
41
1
41
1
10
-15.359144963042151
20
1.2021305511450642
30
0
10
-15.302978053166388
20
0.38816077642102709
30
0
10
-14.759935382083682
20
-0.39484351885346491
30
0
10
-14.496982222388123
20
-1.1542840549482491
30
0
0
SPLINE
5
381
100
AcDbEntity
8
0
100
AcDbSpline
70
4
71
3
72
8
73
4
74
0
42
0.000000001
43
0.0000000001
44
0.0000000001
40
0
40
0
40
0
40
0
40
1
40
1
40
1
40
1
41
1
41
1
41
1
41
1
10
-14.496982222388123
20
-1.1542840549482491
30
0
10
-14.361298704970205
20
-1.5461290724884558
30
0
10
-14.275970730783145
20
-1.9655139683876
30
0
10
-14.010156804334491
20
-2.2956468863132784
30
0
0
SPLINE
5
382
100
AcDbEntity
8
0
100
AcDbSpline
70
4
71
3
72
8
73
4
74
0
42
0.000000001
43
0.0000000001
44
0.0000000001
40
0
40
0
40
0
40
0
40
1
40
1
40
1
40
1
41
1
41
1
41
1
41
1
10
-14.010156804334491
20
-2.2956468863132784
30
0
10
-13.824221488163722
20
-2.5265550250982338
30
0
10
-13.54048694225385
20
-2.6487950550027861
30
0
10
-13.355107631155711
20
-2.8715039147313481
30
0
0
SPLINE
5
383
100
AcDbEntity
8
0
100
AcDbSpline
70
4
71
3
72
8
73
4
74
0
42
0.000000001
43
0.0000000001
44
0.0000000001
40
0
40
0
40
0
40
0
40
1
40
1
40
1
40
1
41
1
41
1
41
1
41
1
10
-13.355107631155711
20
-2.8715039147313481
30
0
10
-13.07954068216976
20
-3.2026758282951207
30
0
10
-13.15412186121698
20
-3.7362565790480673
30
0
10
-12.83872884099412
20
-4.0541468522042967
30
0
0
SPLINE
5
384
100
AcDbEntity
8
0
100
AcDbSpline
70
4
71
3
72
8
73
4
74
0
42
0.000000001
43
0.0000000001
44
0.0000000001
40
0
40
0
40
0
40
0
40
1
40
1
40
1
40
1
41
1
41
1
41
1
41
1
10
-12.83872884099412
20
-4.0541468522042967
30
0
10
-12.577716753490556
20
-4.3172845299618023
30
0
10
-12.138942877205317
20
-4.4342642953593803
30
0
10
-11.813679827832061
20
-4.5987537600564377
30
0
0
SPLINE
5
385
100
AcDbEntity
8
0
100
AcDbSpline
70
4
71
3
72
8
73
4
74
0
42
0.000000001
43
0.0000000001
44
0.0000000001
40
0
40
0
40
0
40
0
40
1
40
1
40
1
40
1
41
1
41
1
41
1
41
1
10
-11.813679827832061
20
-4.5987537600564377
30
0
10
-11.187147602410352
20
-4.9155026685870151
30
0
10
-10.467747988445172
20
-5.3027588965916106
30
0
10
-9.7565435759558774
20
-5.3605692444980857
30
0
0
SPLINE
5
386
100
AcDbEntity
8
0
100
AcDbSpline
70
4
71
3
72
8
73
4
74
0
42
0.000000001
43
0.0000000001
44
0.0000000001
40
0
40
0
40
0
40
0
40
1
40
1
40
1
40
1
41
1
41
1
41
1
41
1
10
-9.7565435759558774
20
-5.3605692444980857
30
0
10
-9.2653307850735676
20
-5.400514108778256
30
0
10
-8.869078740845378
20
-5.1398372846050577
30
0
10
-8.4089316851678415
20
-5.025257762084121
30
0
0
SPLINE
5
387
100
AcDbEntity
8
0
100
AcDbSpline
70
4
71
3
72
8
73
4
74
0
42
0.000000001
43
0.0000000001
44
0.0000000001
40
0
40
0
40
0
40
0
40
1
40
1
40
1
40
1
41
1
41
1
41
1
41
1
10
-8.4089316851678415
20
-5.025257762084121
30
0
10
-7.5592234778835401
20
-4.8136601951817903
30
0
10
-6.7903252432113161
20
-4.8045168325165832
30
0
10
-5.9756401662728216
20
-4.388340294098434
30
0
0
SPLINE
5
388
100
AcDbEntity
8
0
100
AcDbSpline
70
4
71
3
72
8
73
4
74
0
42
0.000000001
43
0.0000000001
44
0.0000000001
40
0
40
0
40
0
40
0
40
1
40
1
40
1
40
1
41
1
41
1
41
1
41
1
10
-5.9756401662728216
20
-4.388340294098434
30
0
10
-5.4962510021313395
20
-4.1434436536589914
30
0
10
-5.1774053489962721
20
-3.4826022752424191
30
0
10
-4.7805378029875891
20
-3.1150544963966409
30
0
0
SPLINE
5
389
100
AcDbEntity
8
0
100
AcDbSpline
70
4
71
3
72
8
73
4
74
0
42
0.000000001
43
0.0000000001
44
0.0000000001
40
0
40
0
40
0
40
0
40
1
40
1
40
1
40
1
41
1
41
1
41
1
41
1
10
-4.7805378029875891
20
-3.1150544963966409
30
0
10
-4.3733157703460757
20
-2.7379708194625563
30
0
10
-3.8834049791085823
20
-2.5671106148426848
30
0
10
-3.4311177049304185
20
-2.2639138647324142
30
0
0
SPLINE
5
390
100
AcDbEntity
8
0
100
AcDbSpline
70
4
71
3
72
8
73
4
74
0
42
0.000000001
43
0.0000000001
44
0.0000000001
40
0
40
0
40
0
40
0
40
1
40
1
40
1
40
1
41
1
41
1
41
1
41
1
10
-3.4311177049304185
20
-2.2639138647324142
30
0
10
-3.0732163114113598
20
-2.0239419179706575
30
0
10
-2.7775630057318459
20
-1.7034183840540384
30
0
10
-2.4167107040020088
20
-1.465922295244968
30
0
0
SPLINE
5
391
100
AcDbEntity
8
0
100
AcDbSpline
70
4
71
3
72
8
73
4
74
0
42
0.000000001
43
0.0000000001
44
0.0000000001
40
0
40
0
40
0
40
0
40
1
40
1
40
1
40
1
41
1
41
1
41
1
41
1
10
-2.4167107040020088
20
-1.465922295244968
30
0
10
-1.7816580347671895
20
-1.047976689493737
30
0
10
-0.90436426612031218
20
-1.2502734858036701
30
0
10
-0.34157105762829376
20
-0.81968560900158582
30
0
0
SPLINE
5
392
100
AcDbEntity
8
0
100
AcDbSpline
70
4
71
3
72
8
73
4
74
0
42
0.000000001
43
0.0000000001
44
0.0000000001
40
0
40
0
40
0
40
0
40
1
40
1
40
1
40
1
41
1
41
1
41
1
41
1
10
-0.34157105762829376
20
-0.81968560900158582
30
0
10
0.34319973680562166
20
-0.2957626543492653
30
0
10
0.61878025332810171
20
0.86866268409736325
30
0
10
0.99330532111500891
20
1.611604579540078
30
0
0
SPLINE
5
393
100
AcDbEntity
8
0
100
AcDbSpline
70
4
71
3
72
8
73
4
74
0
42
0.000000001
43
0.0000000001
44
0.0000000001
40
0
40
0
40
0
40
0
40
1
40
1
40
1
40
1
41
1
41
1
41
1
41
1
10
0.99330532111500891
20
1.611604579540078
30
0
10
1.1126271487897088
20
1.8483630094059889
30
0
10
1.2039473903313413
20
2.2743635214612556
30
0
10
1.4528551205057527
20
2.4111402494616385
30
0
0
SPLINE
5
394
100
AcDbEntity
8
0
100
AcDbSpline
70
4
71
3
72
8
73
4
74
0
42
0.000000001
43
0.0000000001
44
0.0000000001
40
0
40
0
40
0
40
0
40
1
40
1
40
1
40
1
41
1
41
1
41
1
41
1
10
1.4528551205057527
20
2.4111402494616385
30
0
10
1.6964461527085017
20
2.5450071681440045
30
0
10
2.0597225425774024
20
2.3321902571080066
30
0
10
2.2919703821573778
20
2.2477750732735124
30
0
0
SPLINE
5
395
100
AcDbEntity
8
0
100
AcDbSpline
70
4
71
3
72
8
73
4
74
0
42
0.000000001
43
0.0000000001
44
0.0000000001
40
0
40
0
40
0
40
0
40
1
40
1
40
1
40
1
41
1
41
1
41
1
41
1
10
2.2919703821573778
20
2.2477750732735124
30
0
10
2.7756836227642179
20
2.071938305303016
30
0
10
3.3287301838528149
20
1.9456521877810706
30
0
10
3.8456688482534851
20
2.0268944328301242
30
0
0
SPLINE
5
396
100
AcDbEntity
8
0
100
AcDbSpline
70
4
71
3
72
8
73
4
74
0
42
0.000000001
43
0.0000000001
44
0.0000000001
40
0
40
0
40
0
40
0
40
1
40
1
40
1
40
1
41
1
41
1
41
1
41
1
10
3.8456688482534851
20
2.0268944328301242
30
0
10
4.909146491143435
20
2.1940690110099004
30
0
10
5.6772079518919334
20
3.270404321242002
30
0
10
6.5050393795977417
20
3.8649289150652555
30
0
0
SPLINE
5
397
100
AcDbEntity
8
0
100
AcDbSpline
70
4
71
3
72
8
73
4
74
0
42
0.000000001
43
0.0000000001
44
0.0000000001
40
0
40
0
40
0
40
0
40
1
40
1
40
1
40
1
41
1
41
1
41
1
41
1
10
6.5050393795977417
20
3.8649289150652555
30
0
10
6.9603380752826975
20
4.1919509434771607
30
0
10
7.6006928744521041
20
4.2032359262040186
30
0
10
8.0415637156389366
20
4.5343985822864807
30
0
0
SPLINE
5
398
100
AcDbEntity
8
0
100
AcDbSpline
70
4
71
3
72
8
73
4
74
0
42
0.000000001
43
0.0000000001
44
0.0000000001
40
0
40
0
40
0
40
0
40
1
40
1
40
1
40
1
41
1
41
1
41
1
41
1
10
8.0415637156389366
20
4.5343985822864807
30
0
10
8.3344200932918984
20
4.754393496753635
30
0
10
8.5660928145722259
20
5.2991954135853625
30
0
10
8.71660935773183
20
5.6287162276048086
30
0
0
SPLINE
5
399
100
AcDbEntity
8
0
100
AcDbSpline
70
4
71
3
72
8
73
4
74
0
42
0.000000001
43
0.0000000001
44
0.0000000001
40
0
40
0
40
0
40
0
40
1
40
1
40
1
40
1
41
1
41
1
41
1
41
1
10
8.71660935773183
20
5.6287162276048086
30
0
10
9.5015924559896643
20
5.0600746742490355
30
0
10
10.268953653951215
20
5.0306764207013854
30
0
10
11.223511694906804
20
5.140558886697284
30
0
0
SPLINE
5
400
100
AcDbEntity
8
0
100
AcDbSpline
70
4
71
3
72
8
73
4
74
0
42
0.000000001
43
0.0000000001
44
0.0000000001
40
0
40
0
40
0
40
0
40
1
40
1
40
1
40
1
41
1
41
1
41
1
41
1
10
11.223511694906804
20
5.140558886697284
30
0
10
11.556944233373983
20
5.1789322548880179
30
0
10
11.99404793961374
20
5.3474157934145516
30
0
10
12.32633920006716
20
5.2843651186926044
30
0
0
SPLINE
5
401
100
AcDbEntity
8
0
100
AcDbSpline
70
4
71
3
72
8
73
4
74
0
42
0.000000001
43
0.0000000001
44
0.0000000001
40
0
40
0
40
0
40
0
40
1
40
1
40
1
40
1
41
1
41
1
41
1
41
1
10
12.32633920006716
20
5.2843651186926044
30
0
10
12.694166481392511
20
5.21456655180351
30
0
10
12.842728539864311
20
4.5206894353975891
30
0
10
13.133693830233899
20
4.295673668365203
30
0
0
SPLINE
5
402
100
AcDbEntity
8
0
100
AcDbSpline
70
4
71
3
72
8
73
4
74
0
42
0.000000001
43
0.0000000001
44
0.0000000001
40
0
40
0
40
0
40
0
40
1
40
1
40
1
40
1
41
1
41
1
41
1
41
1
10
13.133693830233899
20
4.295673668365203
30
0
10
13.440221135948674
20
4.0585737129455923
30
0
10
14.086452425617269
20
4.2259928418048753
30
0
10
14.455776296188551
20
4.2401556258975148
30
0
0
SPLINE
5
403
100
AcDbEntity
8
0
100
AcDbSpline
70
4
71
3
72
8
73
4
74
0
42
0.000000001
43
0.0000000001
44
0.0000000001
40
0
40
0
40
0
40
0
40
1
40
1
40
1
40
1
41
1
41
1
41
1
41
1
10
14.455776296188551
20
4.2401556258975148
30
0
10
14.394846615715176
20
3.8248632196681243
30
0
10
14.254580077205528
20
3.3060840757670151
30
0
10
14.32231355853691
20
2.8889581886043203
30
0
0
SPLINE
5
404
100
AcDbEntity
8
0
100
AcDbSpline
70
4
71
3
72
8
73
4
74
0
42
0.000000001
43
0.0000000001
44
0.0000000001
40
0
40
0
40
0
40
0
40
1
40
1
40
1
40
1
41
1
41
1
41
1
41
1
10
14.32231355853691
20
2.8889581886043203
30
0
10
14.370120524440278
20
2.5941129003372909
30
0
10
14.596188243948031
20
2.3634792160653362
30
0
10
14.716448869545255
20
2.0974116748944915
30
0
0
SPLINE
5
405
100
AcDbEntity
8
0
100
AcDbSpline
70
4
71
3
72
8
73
4
74
0
42
0.000000001
43
0.0000000001
44
0.0000000001
40
0
40
0
40
0
40
0
40
1
40
1
40
1
40
1
41
1
41
1
41
1
41
1
10
14.716448869545255
20
2.0974116748944915
30
0
10
14.998081670338543
20
1.4742735725890777
30
0
10
15.312686695576316
20
0.65728227615521551
30
0
10
15.764692630197128
20
0.13986153865501283
30
0
0
SPLINE
5
406
100
AcDbEntity
8
0
100
AcDbSpline
70
4
71
3
72
8
73
4
74
0
42
0.000000001
43
0.0000000001
44
0.0000000001
40
0
40
0
40
0
40
0
40
1
40
1
40
1
40
1
41
1
41
1
41
1
41
1
10
15.764692630197128
20
0.13986153865501283
30
0
10
16.047058047501068
20
-0.18333767364533404
30
0
10
17.089163108650713
20
-0.13228572761893265
30
0
10
17.162479779636598
20
-0.4986274390530232
30
0
0
SPLINE
5
407
100
AcDbEntity
8
0
100
AcDbSpline
70
4
71
3
72
8
73
4
74
0
42
0.000000001
43
0.0000000001
44
0.0000000001
40
0
40
0
40
0
40
0
40
1
40
1
40
1
40
1
41
1
41
1
41
1
41
1
10
17.162479779636598
20
-0.4986274390530232
30
0
10
17.245333494004228
20
-0.91267914748997203
30
0
10
16.536458781884377
20
-1.5506165616978329
30
0
10
16.4231601179407
20
-1.9617902541521781
30
0
0
SPLINE
5
408
100
AcDbEntity
8
0
100
AcDbSpline
70
4
71
3
72
8
73
4
74
0
42
0.000000001
43
0.0000000001
44
0.0000000001
40
0
40
0
40
0
40
0
40
1
40
1
40
1
40
1
41
1
41
1
41
1
41
1
10
16.4231601179407
20
-1.9617902541521781
30
0
10
16.29702970516481
20
-2.4197686300029186
30
0
10
16.556976056067704
20
-2.9464803817877527
30
0
10
16.657467600368829
20
-3.3893605842994834
30
0
0
SPLINE
5
409
100
AcDbEntity
8
0
100
AcDbSpline
70
4
71
3
72
8
73
4
74
0
42
0.000000001
43
0.0000000001
44
0.0000000001
40
0
40
0
40
0
40
0
40
0.96059688770070606
40
0.96059688770070606
40
0.96059688770070606
40
0.96059688770070606
41
1
41
1
41
1
41
1
10
16.657467600368829
20
-3.3893605842994834
30
0
10
16.892417043421968
20
-4.4248812391950807
30
0
10
16.723737200701091
20
-5.3112862556166887
30
0
10
17.725097206998935
20
-5.9118655264170563
30
0
0
ARC
5
410
100
AcDbEntity
8
0
100
AcDbCircle
10
4.9960036108132044e-15
20
-1.7763568394002505e-14
30
0
40
18.684999999999988
210
-0
220
0
230
1
100
AcDbArc
50
341.55487012013941
51
342.50792722160031
0
SPLINE
5
411
100
AcDbEntity
8
0
100
AcDbSpline
70
4
71
3
72
8
73
4
74
0
42
0.000000001
43
0.0000000001
44
0.0000000001
40
0.56083592077233491
40
0.56083592077233491
40
0.56083592077233491
40
0.56083592077233491
40
1
40
1
40
1
40
1
41
1
41
1
41
1
41
1
10
17.820978434005337
20
-5.6162222761137759
30
0
10
17.613987201579707
20
-5.4831958048063587
30
0
10
17.426172700886696
20
-5.3289878872738372
30
0
10
17.29525945936993
20
-5.1161037788058161
30
0
0
SPLINE
5
412
100
AcDbEntity
8
0
100
AcDbSpline
70
4
71
3
72
8
73
4
74
0
42
0.000000001
43
0.0000000001
44
0.0000000001
40
0
40
0
40
0
40
0
40
1
40
1
40
1
40
1
41
1
41
1
41
1
41
1
10
17.29525945936993
20
-5.1161037788058161
30
0
10
17.033778413269246
20
-4.6907873116828913
30
0
10
17.128474624537862
20
-4.2891850499259343
30
0
10
17.060598796210471
20
-3.827888038052758
30
0
0
SPLINE
5
413
100
AcDbEntity
8
0
100
AcDbSpline
70
4
71
3
72
8
73
4
74
0
42
0.000000001
43
0.0000000001
44
0.0000000001
40
0
40
0
40
0
40
0
40
1
40
1
40
1
40
1
41
1
41
1
41
1
41
1
10
17.060598796210471
20
-3.827888038052758
30
0
10
16.975476593444078
20
-3.2491345999346288
30
0
10
16.676608329699281
20
-2.6529882253782278
30
0
10
16.712344774641462
20
-2.0670414956949879
30
0
0
SPLINE
5
414
100
AcDbEntity
8
0
100
AcDbSpline
70
4
71
3
72
8
73
4
74
0
42
0.000000001
43
0.0000000001
44
0.0000000001
40
0
40
0
40
0
40
0
40
1
40
1
40
1
40
1
41
1
41
1
41
1
41
1
10
16.712344774641462
20
-2.0670414956949879
30
0
10
16.884263298221395
20
-2.3066220777458968
30
0
10
17.011402680566508
20
-2.6028559926134021
30
0
10
17.279520531537674
20
-2.7535503335062606
30
0
0
SPLINE
5
415
100
AcDbEntity
8
0
100
AcDbSpline
70
4
71
3
72
8
73
4
74
0
42
0.000000001
43
0.0000000001
44
0.0000000001
40
0
40
0
40
0
40
0
40
0.68655931551426408
40
0.68655931551426408
40
0.68655931551426408
40
0.68655931551426408
41
1
41
1
41
1
41
1
10
17.279520531537674
20
-2.7535503335062606
30
0
10
17.669590340364742
20
-2.9728154078992519
30
0
10
18.151342517385686
20
-2.7720187405285439
30
0
10
18.519512867598465
20
-2.4813037191876686
30
0
0
ARC
5
416
100
AcDbEntity
8
0
100
AcDbCircle
10
4.9960036108132044e-15
20
-1.7763568394002505e-14
30
0
40
18.684999999999981
210
-0
220
0
230
1
100
AcDbArc
50
352.36877514675297
51
353.14368325297579
0
SPLINE
5
417
100
AcDbEntity
8
0
100
AcDbSpline
70
4
71
3
72
8
73
4
74
0
42
0.000000001
43
0.0000000001
44
0.0000000001
40
0.22331238010426727
40
0.22331238010426727
40
0.22331238010426727
40
0.22331238010426727
40
1
40
1
40
1
40
1
41
1
41
1
41
1
41
1
10
18.551376982374371
20
-2.2306136056767052
30
0
10
18.130597945749919
20
-2.4832956844438225
30
0
10
17.65986363079222
20
-2.6092965382884783
30
0
10
17.202703251537482
20
-2.3231910737208361
30
0
0
SPLINE
5
418
100
AcDbEntity
8
0
100
AcDbSpline
70
4
71
3
72
8
73
4
74
0
42
0.000000001
43
0.0000000001
44
0.0000000001
40
0
40
0
40
0
40
0
40
1
40
1
40
1
40
1
41
1
41
1
41
1
41
1
10
17.202703251537482
20
-2.3231910737208361
30
0
10
17.063620517500528
20
-2.2361521945583007
30
0
10
16.815177679674289
20
-2.0929690058961326
30
0
10
16.811705473464407
20
-1.9051274936391138
30
0
0
SPLINE
5
419
100
AcDbEntity
8
0
100
AcDbSpline
70
4
71
3
72
8
73
4
74
0
42
0.000000001
43
0.0000000001
44
0.0000000001
40
0
40
0
40
0
40
0
40
1
40
1
40
1
40
1
41
1
41
1
41
1
41
1
10
16.811705473464407
20
-1.9051274936391138
30
0
10
16.805001442678805
20
-1.5472136803390635
30
0
10
17.331313166148636
20
-0.97057738637587931
30
0
10
17.513942648165475
20
-0.66634553109199413
30
0
0
LINE
5
420
100
AcDbEntity
8
0
100
AcDbLine
10
17.513942648165472
20
-0.66634553109199413
30
0
11
18.606763454879264
21
-1.708092132810507
31
0
0
ARC
5
421
100
AcDbEntity
8
0
100
AcDbCircle
10
4.9960036108132044e-15
20
-1.7763568394002505e-14
30
0
40
18.684999999999988
210
-0
220
0
230
1
100
AcDbArc
50
354.75497497124309
51
355.71565040865806
0
SPLINE
5
422
100
AcDbEntity
8
0
100
AcDbSpline
70
4
71
3
72
8
73
4
74
0
42
0.000000001
43
0.0000000001
44
0.0000000001
40
0.21239760580164496
40
0.21239760580164496
40
0.21239760580164496
40
0.21239760580164496
40
1
40
1
40
1
40
1
41
1
41
1
41
1
41
1
10
18.63278620344839
20
-1.3958879957156216
30
0
10
18.257905475283774
20
-1.0295013462557203
30
0
10
17.970152950322749
20
-0.56349250688293318
30
0
10
17.541373046861196
20
-0.2703162414294269
30
0
0
SPLINE
5
423
100
AcDbEntity
8
0
100
AcDbSpline
70
4
71
3
72
8
73
4
74
0
42
0.000000001
43
0.0000000001
44
0.0000000001
40
0
40
0
40
0
40
0
40
1
40
1
40
1
40
1
41
1
41
1
41
1
41
1
10
17.541373046861196
20
-0.2703162414294269
30
0
10
17.100740013047112
20
0.03094265327823198
30
0
10
16.477948251534301
20
-0.058927393748420265
30
0
10
16.093747112464555
20
0.24199628468261736
30
0
0
SPLINE
5
424
100
AcDbEntity
8
0
100
AcDbSpline
70
4
71
3
72
8
73
4
74
0
42
0.000000001
43
0.0000000001
44
0.0000000001
40
0
40
0
40
0
40
0
40
1
40
1
40
1
40
1
41
1
41
1
41
1
41
1
10
16.093747112464555
20
0.24199628468261736
30
0
10
15.800600284400772
20
0.47160173778920456
30
0
10
15.728997672035765
20
0.86766644184897324
30
0
10
15.552942925587764
20
1.1755751485206645
30
0
0
SPLINE
5
425
100
AcDbEntity
8
0
100
AcDbSpline
70
4
71
3
72
8
73
4
74
0
42
0.000000001
43
0.0000000001
44
0.0000000001
40
0
40
0
40
0
40
0
40
1
40
1
40
1
40
1
41
1
41
1
41
1
41
1
10
15.552942925587764
20
1.1755751485206645
30
0
10
15.138959156828172
20
1.8995869203233706
30
0
10
14.5548272453086
20
2.6596116402476122
30
0
10
14.672622307976743
20
3.5192829131990999
30
0
0
SPLINE
5
426
100
AcDbEntity
8
0
100
AcDbSpline
70
4
71
3
72
8
73
4
74
0
42
0.000000001
43
0.0000000001
44
0.0000000001
40
0
40
0
40
0
40
0
40
1
40
1
40
1
40
1
41
1
41
1
41
1
41
1
10
14.672622307976743
20
3.5192829131990999
30
0
10
14.697439400305658
20
3.7005049931059864
30
0
10
14.680536043952229
20
4.004411779250292
30
0
10
14.809822885008288
20
4.1474938634939784
30
0
0
SPLINE
5
427
100
AcDbEntity
8
0
100
AcDbSpline
70
4
71
3
72
8
73
4
74
0
42
0.000000001
43
0.0000000001
44
0.0000000001
40
0
40
0
40
0
40
0
40
1
40
1
40
1
40
1
41
1
41
1
41
1
41
1
10
14.809822885008288
20
4.1474938634939784
30
0
10
15.036897944797165
20
4.3989005554865512
30
0
10
15.69095016192424
20
4.2454671984619052
30
0
10
16.001412916738118
20
4.317586697263911
30
0
0
SPLINE
5
428
100
AcDbEntity
8
0
100
AcDbSpline
70
4
71
3
72
8
73
4
74
0
42
0.000000001
43
0.0000000001
44
0.0000000001
40
0
40
0
40
0
40
0
40
0.69552498008189578
40
0.69552498008189578
40
0.69552498008189578
40
0.69552498008189578
41
1
41
1
41
1
41
1
10
16.001412916738118
20
4.317586697263911
30
0
10
16.67297254162396
20
4.4735493686725478
30
0
10
17.332555138812122
20
4.7692732482132341
30
0
10
17.997219713698847
20
5.0228784154953328
30
0
0
ARC
5
429
100
AcDbEntity
8
0
100
AcDbCircle
10
4.9960036108132044e-15
20
-1.7763568394002505e-14
30
0
40
18.684999999999988
210
0
220
-0
230
1
100
AcDbArc
50
15.593987915360128
51
16.456163956953279
0
SPLINE
5
430
100
AcDbEntity
8
0
100
AcDbSpline
70
4
71
3
72
8
73
4
74
0
42
0.000000001
43
0.0000000001
44
0.0000000001
40
0.57576013290809314
40
0.57576013290809314
40
0.57576013290809314
40
0.57576013290809314
40
1
40
1
40
1
40
1
41
1
41
1
41
1
41
1
10
17.919601666563771
20
5.293118278641078
30
0
10
17.731967546453756
20
5.2432727840188695
30
0
10
17.542087549348771
20
5.1982745114221807
30
0
10
17.351408207485555
20
5.1404900861686853
30
0
0
SPLINE
5
431
100
AcDbEntity
8
0
100
AcDbSpline
70
4
71
3
72
8
73
4
74
0
42
0.000000001
43
0.0000000001
44
0.0000000001
40
0
40
0
40
0
40
0
40
1
40
1
40
1
40
1
41
1
41
1
41
1
41
1
10
17.351408207485555
20
5.1404900861686853
30
0
10
16.887920014870939
20
5.0000512421815513
30
0
10
16.461255638092659
20
4.7217265844296774
30
0
10
15.992123121301979
20
4.6127558242882039
30
0
0
SPLINE
5
432
100
AcDbEntity
8
0
100
AcDbSpline
70
4
71
3
72
8
73
4
74
0
42
0.000000001
43
0.0000000001
44
0.0000000001
40
0
40
0
40
0
40
0
40
1
40
1
40
1
40
1
41
1
41
1
41
1
41
1
10
15.992123121301979
20
4.6127558242882039
30
0
10
15.361522096806899
20
4.4663184142549772
30
0
10
14.67650238951671
20
4.5644914866032327
30
0
10
14.037983611099182
20
4.5351468193820388
30
0
0
SPLINE
5
433
100
AcDbEntity
8
0
100
AcDbSpline
70
4
71
3
72
8
73
4
74
0
42
0.000000001
43
0.0000000001
44
0.0000000001
40
0
40
0
40
0
40
0
40
1
40
1
40
1
40
1
41
1
41
1
41
1
41
1
10
14.037983611099182
20
4.5351468193820388
30
0
10
13.844076714222727
20
4.5262361973859822
30
0
10
13.58092219082957
20
4.4656107207641238
30
0
10
13.396124454175158
20
4.5354396274726438
30
0
0
SPLINE
5
434
100
AcDbEntity
8
0
100
AcDbSpline
70
4
71
3
72
8
73
4
74
0
42
0.000000001
43
0.0000000001
44
0.0000000001
40
0
40
0
40
0
40
0
40
1
40
1
40
1
40
1
41
1
41
1
41
1
41
1
10
13.396124454175158
20
4.5354396274726438
30
0
10
13.105345719468231
20
4.6453595533895742
30
0
10
12.653436152733704
20
5.3567367501535434
30
0
10
12.824740045106417
20
5.6508521774235021
30
0
0
SPLINE
5
435
100
AcDbEntity
8
0
100
AcDbSpline
70
4
71
3
72
8
73
4
74
0
42
0.000000001
43
0.0000000001
44
0.0000000001
40
0
40
0
40
0
40
0
40
1
40
1
40
1
40
1
41
1
41
1
41
1
41
1
10
12.824740045106417
20
5.6508521774235021
30
0
10
13.23895878620873
20
6.3620722878705127
30
0
10
14.448339497456601
20
6.8975621347696929
30
0
10
15.15012379271951
20
7.2556178525836135
30
0
0
SPLINE
5
436
100
AcDbEntity
8
0
100
AcDbSpline
70
4
71
3
72
8
73
4
74
0
42
0.000000001
43
0.0000000001
44
0.0000000001
40
0
40
0
40
0
40
0
40
1
40
1
40
1
40
1
41
1
41
1
41
1
41
1
10
15.15012379271951
20
7.2556178525836135
30
0
10
15.387501105318357
20
7.3767496501690815
30
0
10
15.749181756801047
20
7.6216491793698999
30
0
10
16.025705628077059
20
7.5912104393276403
30
0
0
SPLINE
5
437
100
AcDbEntity
8
0
100
AcDbSpline
70
4
71
3
72
8
73
4
74
0
42
0.000000001
43
0.0000000001
44
0.0000000001
40
0
40
0
40
0
40
0
40
1
40
1
40
1
40
1
41
1
41
1
41
1
41
1
10
16.025705628077059
20
7.5912104393276403
30
0
10
16.353805508293256
20
7.5551308565504804
30
0
10
16.611960662525473
20
7.1128164631337061
30
0
10
16.910928117390377
20
6.9768054888149544
30
0
0
SPLINE
5
438
100
AcDbEntity
8
0
100
AcDbSpline
70
4
71
3
72
8
73
4
74
0
42
0.000000001
43
0.0000000001
44
0.0000000001
40
0
40
0
40
0
40
0
40
0.29315179273139746
40
0.29315179273139746
40
0.29315179273139746
40
0.29315179273139746
41
1
41
1
41
1
41
1
10
16.910928117390377
20
6.9768054888149544
30
0
10
17.004979896817357
20
6.9340020629177603
30
0
10
17.15756700124189
20
6.9412623135325955
30
0
10
17.332821018276857
20
6.9787205523920681
30
0
0
ARC
5
439
100
AcDbEntity
8
0
100
AcDbCircle
10
4.9960036108132044e-15
20
-1.7763568394002505e-14
30
0
40
18.684999999999985
210
0
220
-0
230
1
100
AcDbArc
50
21.931214340365536
51
22.755693196425828
0
SPLINE
5
440
100
AcDbEntity
8
0
100
AcDbSpline
70
4
71
3
72
8
73
4
74
0
42
0.000000001
43
0.0000000001
44
0.0000000001
40
0.93014524126304199
40
0.93014524126304199
40
0.93014524126304199
40
0.93014524126304199
40
1
40
1
40
1
40
1
41
1
41
1
41
1
41
1
10
17.230607089318436
20
7.2274064735234429
30
0
10
17.204135481371537
20
7.2091252529187742
30
0
10
17.178982983775715
20
7.1893250494282608
30
0
10
17.155410368188264
20
7.1677164340156674
30
0
0
SPLINE
5
441
100
AcDbEntity
8
0
100
AcDbSpline
70
4
71
3
72
8
73
4
74
0
42
0.000000001
43
0.0000000001
44
0.0000000001
40
0
40
0
40
0
40
0
40
1
40
1
40
1
40
1
41
1
41
1
41
1
41
1
10
17.155410368188264
20
7.1677164340156674
30
0
10
16.902370188901628
20
7.3045196328450839
30
0
10
16.291551463800904
20
7.6674879785629058
30
0
10
16.261723296352482
20
7.9828691223328141
30
0
0
SPLINE
5
442
100
AcDbEntity
8
0
100
AcDbSpline
70
4
71
3
72
8
73
4
74
0
42
0.000000001
43
0.0000000001
44
0.0000000001
40
0
40
0
40
0
40
0
40
0.50944672715525718
40
0.50944672715525718
40
0.50944672715525718
40
0.50944672715525718
41
1
41
1
41
1
41
1
10
16.261723296352482
20
7.9828691223328141
30
0
10
16.241559665872607
20
8.1958906186014566
30
0
10
16.35966931741298
20
8.4825295133630245
30
0
10
16.502751707390576
20
8.7628996961177759
30
0
0
ARC
5
443
100
AcDbEntity
8
0
100
AcDbCircle
10
4.9960036108132044e-15
20
-1.7763568394002505e-14
30
0
40
18.685000000000102
210
0
220
-0
230
1
100
AcDbArc
50
27.968135629990062
51
29.063538303477607
0
SPLINE
5
444
100
AcDbEntity
8
0
100
AcDbSpline
70
4
71
3
72
8
73
4
74
0
42
0.000000001
43
0.0000000001
44
0.0000000001
40
0.57258289636234971
40
0.57258289636234971
40
0.57258289636234971
40
0.57258289636234971
40
1
40
1
40
1
40
1
41
1
41
1
41
1
41
1
10
16.332213548165665
20
9.0767849824215361
30
0
10
16.190846220962097
20
8.8653281189736184
30
0
10
15.99216153596311
20
8.7105644755147456
30
0
10
15.664800921723414
20
8.686733465499362
30
0
0
SPLINE
5
445
100
AcDbEntity
8
0
100
AcDbSpline
70
4
71
3
72
8
73
4
74
0
42
0.000000001
43
0.0000000001
44
0.0000000001
40
0
40
0
40
0
40
0
40
1
40
1
40
1
40
1
41
1
41
1
41
1
41
1
10
15.664800921723414
20
8.686733465499362
30
0
10
14.899973931801441
20
8.6310524694944348
30
0
10
15.447580582102319
20
10.173914364576301
30
0
10
14.734948595471648
20
10.13576980303958
30
0
0
SPLINE
5
446
100
AcDbEntity
8
0
100
AcDbSpline
70
4
71
3
72
8
73
4
74
0
42
0.000000001
43
0.0000000001
44
0.0000000001
40
0
40
0
40
0
40
0
40
1
40
1
40
1
40
1
41
1
41
1
41
1
41
1
10
14.734948595471648
20
10.13576980303958
30
0
10
14.235165824593643
20
10.109037623942685
30
0
10
14.081735464343776
20
9.5242597345803013
30
0
10
13.849256345279544
20
9.1880967376942646
30
0
0
SPLINE
5
447
100
AcDbEntity
8
0
100
AcDbSpline
70
4
71
3
72
8
73
4
74
0
42
0.000000001
43
0.0000000001
44
0.0000000001
40
0
40
0
40
0
40
0
40
1
40
1
40
1
40
1
41
1
41
1
41
1
41
1
10
13.849256345279544
20
9.1880967376942646
30
0
10
13.644104795689136
20
8.8914185539682737
30
0
10
13.326654850587689
20
8.7433472646628516
30
0
10
12.978888747981443
20
8.6806610525714145
30
0
0
SPLINE
5
448
100
AcDbEntity
8
0
100
AcDbSpline
70
4
71
3
72
8
73
4
74
0
42
0.000000001
43
0.0000000001
44
0.0000000001
40
0
40
0
40
0
40
0
40
1
40
1
40
1
40
1
41
1
41
1
41
1
41
1
10
12.978888747981443
20
8.6806610525714145
30
0
10
12.805919915458066
20
8.6494231601740186
30
0
10
12.514571548198742
20
8.5823680420921011
30
0
10
12.367049640435038
20
8.7148485199240042
30
0
0
SPLINE
5
449
100
AcDbEntity
8
0
100
AcDbSpline
70
4
71
3
72
8
73
4
74
0
42
0.000000001
43
0.0000000001
44
0.0000000001
40
0
40
0
40
0
40
0
40
1
40
1
40
1
40
1
41
1
41
1
41
1
41
1
10
12.367049640435038
20
8.7148485199240042
30
0
10
12.235258144139937
20
8.8331413780420309
30
0
10
12.314671845814962
20
9.0652827434246657
30
0
10
12.340625655899228
20
9.2119502445231642
30
0
0
SPLINE
5
450
100
AcDbEntity
8
0
100
AcDbSpline
70
4
71
3
72
8
73
4
74
0
42
0.000000001
43
0.0000000001
44
0.0000000001
40
0
40
0
40
0
40
0
40
1
40
1
40
1
40
1
41
1
41
1
41
1
41
1
10
12.340625655899228
20
9.2119502445231642
30
0
10
12.411026420964895
20
9.6101399603481585
30
0
10
12.452373380967039
20
10.016043549061704
30
0
10
12.391817057788977
20
10.418886589966615
30
0
0
SPLINE
5
451
100
AcDbEntity
8
0
100
AcDbSpline
70
4
71
3
72
8
73
4
74
0
42
0.000000001
43
0.0000000001
44
0.0000000001
40
0
40
0
40
0
40
0
40
1
40
1
40
1
40
1
41
1
41
1
41
1
41
1
10
12.391817057788977
20
10.418886589966615
30
0
10
12.249449768495895
20
11.365485380265014
30
0
10
11.520548477924207
20
12.672341702964482
30
0
10
10.819615669226241
20
13.330806621127858
30
0
0
SPLINE
5
452
100
AcDbEntity
8
0
100
AcDbSpline
70
4
71
3
72
8
73
4
74
0
42
0.000000001
43
0.0000000001
44
0.0000000001
40
0
40
0
40
0
40
0
40
1
40
1
40
1
40
1
41
1
41
1
41
1
41
1
10
10.819615669226241
20
13.330806621127858
30
0
10
10.367140708062072
20
13.755863121472672
30
0
10
9.1808092965557435
20
13.290437284764469
30
0
10
8.5801825615049836
20
13.431428542581711
30
0
0
SPLINE
5
453
100
AcDbEntity
8
0
100
AcDbSpline
70
4
71
3
72
8
73
4
74
0
42
0.000000001
43
0.0000000001
44
0.0000000001
40
0
40
0
40
0
40
0
40
1
40
1
40
1
40
1
41
1
41
1
41
1
41
1
10
8.5801825615049836
20
13.431428542581711
30
0
10
8.0496106017467461
20
13.555967273594137
30
0
10
7.5394907860927223
20
14.645363916428227
30
0
10
7.1812640742033889
20
15.039618452415148
30
0
0
SPLINE
5
454
100
AcDbEntity
8
0
100
AcDbSpline
70
4
71
3
72
8
73
4
74
0
42
0.000000001
43
0.0000000001
44
0.0000000001
40
0
40
0
40
0
40
0
40
1
40
1
40
1
40
1
41
1
41
1
41
1
41
1
10
7.1812640742033889
20
15.039618452415148
30
0
10
7.0307928589379483
20
15.205205887128903
30
0
10
6.7445196940137482
20
15.362625600778204
30
0
10
6.6598630835257051
20
15.572580982280321
30
0
0
SPLINE
5
455
100
AcDbEntity
8
0
100
AcDbSpline
70
4
71
3
72
8
73
4
74
0
42
0.000000001
43
0.0000000001
44
0.0000000001
40
0
40
0
40
0
40
0
40
1
40
1
40
1
40
1
41
1
41
1
41
1
41
1
10
6.6598630835257051
20
15.572580982280321
30
0
10
6.5657035276654945
20
15.806135518356871
30
0
10
6.7705868024506
20
16.127247480651988
30
0
10
6.8188784934355358
20
16.357416336383864
30
0
0
SPLINE
5
456
100
AcDbEntity
8
0
100
AcDbSpline
70
4
71
3
72
8
73
4
74
0
42
0.000000001
43
0.0000000001
44
0.0000000001
40
0
40
0
40
0
40
0
40
0.87623907080252617
40
0.87623907080252617
40
0.87623907080252617
40
0.87623907080252617
41
1
41
1
41
1
41
1
10
6.8188784934355358
20
16.357416336383864
30
0
10
6.8780343027532691
20
16.639372036947368
30
0
10
6.8334052049071135
20
17.063005024450895
30
0
10
6.9336920350999325
20
17.350882967802839
30
0
0
LINE
5
457
100
AcDbEntity
8
0
100
AcDbLine
10
-0.90030497202841619
20
7.3198239497725552
30
0
11
0.035552803231807539
21
8.5549290518893564
31
0
0
LINE
5
458
100
AcDbEntity
8
0
100
AcDbLine
10
0.035552803231807539
20
8.5549290518893564
30
0
11
-2.6640814709074778
21
5.6273700001953735
31
0
0
SPLINE
5
459
100
AcDbEntity
8
0
100
AcDbSpline
70
4
71
3
72
8
73
4
74
0
42
0.000000001
43
0.0000000001
44
0.0000000001
40
0
40
0
40
0
40
0
40
1
40
1
40
1
40
1
41
1
41
1
41
1
41
1
10
-2.6640814709074778
20
5.6273700001953735
30
0
10
-2.7347485186480958
20
6.4265426593777057
30
0
10
-3.2890192327719339
20
8.664880904463816
30
0
10
-1.7647073106354605
20
8.5794122071140997
30
0
0
SPLINE
5
460
100
AcDbEntity
8
0
100
AcDbSpline
70
4
71
3
72
8
73
4
74
0
42
0.000000001
43
0.0000000001
44
0.0000000001
40
0
40
0
40
0
40
0
40
1
40
1
40
1
40
1
41
1
41
1
41
1
41
1
10
-1.7647073106354605
20
8.5794122071140997
30
0
10
-1.5263708800882581
20
8.5660825978281192
30
0
10
-1.3165627445206185
20
8.4102359280250472
30
0
10
-1.0983734282494662
20
8.3256820833515928
30
0
0
LINE
5
461
100
AcDbEntity
8
0
100
AcDbLine
10
-1.0983734282494664
20
8.3256820833515928
30
0
11
-1.0796170133849925
21
8.3772149096616548
31
0
0
SPLINE
5
462
100
AcDbEntity
8
0
100
AcDbSpline
70
4
71
3
72
8
73
4
74
0
42
0.000000001
43
0.0000000001
44
0.0000000001
40
0
40
0
40
0
40
0
40
1
40
1
40
1
40
1
41
1
41
1
41
1
41
1
10
-1.0796170133849925
20
8.3772149096616548
30
0
10
-1.3103414674667491
20
8.4957995819034835
30
0
10
-1.5336052590703864
20
8.6124277610479467
30
0
10
-1.7830779690340992
20
8.689280929495375
30
0
0
SPLINE
5
463
100
AcDbEntity
8
0
100
AcDbSpline
70
4
71
3
72
8
73
4
74
0
42
0.000000001
43
0.0000000001
44
0.0000000001
40
0
40
0
40
0
40
0
40
1
40
1
40
1
40
1
41
1
41
1
41
1
41
1
10
-1.7830779690340992
20
8.689280929495375
30
0
10
-3.1465516447604562
20
9.1093839577407252
30
0
10
-3.0915617033759979
20
7.1254850606219877
30
0
10
-2.9043980278640991
20
6.3568038040822783
30
0
0
SPLINE
5
464
100
AcDbEntity
8
0
100
AcDbSpline
70
4
71
3
72
8
73
4
74
0
42
0.000000001
43
0.0000000001
44
0.0000000001
40
0
40
0
40
0
40
0
40
1
40
1
40
1
40
1
41
1
41
1
41
1
41
1
10
-2.9043980278640991
20
6.3568038040822783
30
0
10
-2.8457153546078851
20
6.1158935352521215
30
0
10
-2.68895883122795
20
5.7886301119630357
30
0
10
-2.7448315589406072
20
5.5400414226092476
30
0
0
SPLINE
5
465
100
AcDbEntity
8
0
100
AcDbSpline
70
4
71
3
72
8
73
4
74
0
42
0.000000001
43
0.0000000001
44
0.0000000001
40
0
40
0
40
0
40
0
40
1
40
1
40
1
40
1
41
1
41
1
41
1
41
1
10
-2.7448315589406072
20
5.5400414226092476
30
0
10
-2.8446671088098197
20
5.0957797967488938
30
0
10
-3.4317422176205392
20
4.5574250367435498
30
0
10
-3.7093392844894888
20
4.1986414778634007
30
0
0
LINE
5
466
100
AcDbEntity
8
0
100
AcDbLine
10
-3.7093392844894888
20
4.1986414778634007
30
0
11
-3.6578064581794258
21
4.1798850629989275
31
0
0
LINE
5
467
100
AcDbEntity
8
0
100
AcDbLine
10
-3.6578064581794258
20
4.1798850629989275
30
0
11
-0.90030497202841619
21
7.3198239497725552
31
0
0
LWPOLYLINE
5
468
100
AcDbEntity
8
0
100
AcDbPolyline
90
3
70
1
43
0.0
10
-8.8583306868506231
20
4.9638684331755645
10
-9.9460300169420073
20
2.6168185655312239
0
LINE
5
469
100
AcDbEntity
8
0
100
AcDbLine
10
-6.5290282233365096
20
3.32762550679249
30
0
11
-5.9924421002799058
21
3.3775525987400674
31
0
0
LINE
5
470
100
AcDbEntity
8
0
100
AcDbLine
10
-5.9924421002799058
20
3.3775525987400674
30
0
11
-4.5670286935808493
21
3.2852413524822088
31
0
0
SPLINE
5
471
100
AcDbEntity
8
0
100
AcDbSpline
70
4
71
3
72
8
73
4
74
0
42
0.000000001
43
0.0000000001
44
0.0000000001
40
0
40
0
40
0
40
0
40
1
40
1
40
1
40
1
41
1
41
1
41
1
41
1
10
-4.5670286935808493
20
3.2852413524822088
30
0
10
-4.9306387581770945
20
2.7570031605510659
30
0
10
-5.3843697982067109
20
2.2314533785591095
30
0
10
-6.0172188144846563
20
2.0268889353190556
30
0
0
SPLINE
5
472
100
AcDbEntity
8
0
100
AcDbSpline
70
4
71
3
72
8
73
4
74
0
42
0.000000001
43
0.0000000001
44
0.0000000001
40
0
40
0
40
0
40
0
40
1
40
1
40
1
40
1
41
1
41
1
41
1
41
1
10
-6.0172188144846563
20
2.0268889353190556
30
0
10
-6.8159609354067019
20
1.7686695861467028
30
0
10
-8.3121507521322382
20
2.4491603673937634
30
0
10
-8.6105152805904623
20
3.2395802400125051
30
0
0
SPLINE
5
473
100
AcDbEntity
8
0
100
AcDbSpline
70
4
71
3
72
8
73
4
74
0
42
0.000000001
43
0.0000000001
44
0.0000000001
40
0
40
0
40
0
40
0
40
1
40
1
40
1
40
1
41
1
41
1
41
1
41
1
10
-8.6105152805904623
20
3.2395802400125051
30
0
10
-8.0978262468250595
20
3.3615863926891931
30
0
10
-7.4627758147084506
20
3.4384743719652189
30
0
10
-6.9424973454474062
20
3.3327966947738963
30
0
0
LINE
5
474
100
AcDbEntity
8
0
100
AcDbLine
10
-6.9424973454474053
20
3.3327966947738967
30
0
11
-6.8723950679883616
21
2.7236787907962152
31
0
0
LINE
5
475
100
AcDbEntity
8
0
100
AcDbLine
10
-6.8723950679883616
20
2.7236787907962152
30
0
11
-6.5290282233365096
21
3.32762550679249
31
0
0
SPLINE
5
476
100
AcDbEntity
8
0
100
AcDbSpline
70
4
71
3
72
8
73
4
74
0
42
0.000000001
43
0.0000000001
44
0.0000000001
40
0
40
0
40
0
40
0
40
1
40
1
40
1
40
1
41
1
41
1
41
1
41
1
10
-8.863864464937274
20
3.4377171992807831
30
0
10
-9.2077903228977949
20
3.0977642670761574
30
0
10
-8.5495782555716318
20
2.6172827116649611
30
0
10
-8.320251638062329
20
2.4336075806669433
30
0
0
SPLINE
5
477
100
AcDbEntity
8
0
100
AcDbSpline
70
4
71
3
72
8
73
4
74
0
42
0.000000001
43
0.0000000001
44
0.0000000001
40
0
40
0
40
0
40
0
40
1
40
1
40
1
40
1
41
1
41
1
41
1
41
1
10
-8.320251638062329
20
2.4336075806669433
30
0
10
-8.9690625649407831
20
2.0447175173998522
30
0
10
-9.3000177241350315
20
1.7040101176303679
30
0
10
-9.6934672823546855
20
1.0658863437857713
30
0
0
LINE
5
478
100
AcDbEntity
8
0
100
AcDbLine
10
-9.6934672823546855
20
1.0658863437857711
30
0
11
-9.6419325985506674
21
1.0471292528487881
31
0
0
LINE
5
479
100
AcDbEntity
8
0
100
AcDbLine
10
-9.6419325985506674
20
1.0471292528487881
30
0
11
-8.2687173257571018
21
2.4148506249444601
31
0
0
SPLINE
5
480
100
AcDbEntity
8
0
100
AcDbSpline
70
4
71
3
72
8
73
4
74
0
42
0.000000001
43
0.0000000001
44
0.0000000001
40
0
40
0
40
0
40
0
40
1
40
1
40
1
40
1
41
1
41
1
41
1
41
1
10
-8.2687173257571018
20
2.4148506249444601
30
0
10
-7.4920368393438324
20
1.7499612550859966
30
0
10
-6.3460585691413476
20
1.3961227075613047
30
0
10
-5.4281009740947699
20
1.9645569533005958
30
0
0
SPLINE
5
481
100
AcDbEntity
8
0
100
AcDbSpline
70
4
71
3
72
8
73
4
74
0
42
0.000000001
43
0.0000000001
44
0.0000000001
40
0
40
0
40
0
40
0
40
1
40
1
40
1
40
1
41
1
41
1
41
1
41
1
10
-5.4281009740947699
20
1.9645569533005958
30
0
10
-5.0237711507110347
20
2.2148841116741202
30
0
10
-4.6403718482824701
20
2.5791064698919408
30
0
10
-4.3978793425942708
20
2.9902376114885287
30
0
0
SPLINE
5
482
100
AcDbEntity
8
0
100
AcDbSpline
70
4
71
3
72
8
73
4
74
0
42
0.000000001
43
0.0000000001
44
0.0000000001
40
0
40
0
40
0
40
0
40
1
40
1
40
1
40
1
41
1
41
1
41
1
41
1
10
-4.3978793425942708
20
2.9902376114885287
30
0
10
-4.3103413195546727
20
3.138709047812176
30
0
10
-4.1655168954379622
20
3.3595918799681268
30
0
10
-4.3232190522355838
20
3.5112422281863465
30
0
0
SPLINE
5
483
100
AcDbEntity
8
0
100
AcDbSpline
70
4
71
3
72
8
73
4
74
0
42
0.000000001
43
0.0000000001
44
0.0000000001
40
0
40
0
40
0
40
0
40
1
40
1
40
1
40
1
41
1
41
1
41
1
41
1
10
-4.3232190522355838
20
3.5112422281863465
30
0
10
-4.5687425945002555
20
3.7472659871876379
30
0
10
-5.1643956102167285
20
3.6659017129757254
30
0
10
-5.4758663264274174
20
3.6743924844929721
30
0
0
SPLINE
5
484
100
AcDbEntity
8
0
100
AcDbSpline
70
4
71
3
72
8
73
4
74
0
42
0.000000001
43
0.0000000001
44
0.0000000001
40
0
40
0
40
0
40
0
40
1
40
1
40
1
40
1
41
1
41
1
41
1
41
1
10
-5.4758663264274174
20
3.6743924844929721
30
0
10
-6.3116216876172349
20
3.6972283196500788
30
0
10
-7.1634688965447877
20
3.7279624071225381
30
0
10
-7.9967523151023485
20
3.6430980487324405
30
0
0
SPLINE
5
485
100
AcDbEntity
8
0
100
AcDbSpline
70
4
71
3
72
8
73
4
74
0
42
0.000000001
43
0.0000000001
44
0.0000000001
40
0
40
0
40
0
40
0
40
1
40
1
40
1
40
1
41
1
41
1
41
1
41
1
10
-7.9967523151023485
20
3.6430980487324405
30
0
10
-8.2532568085971008
20
3.6169352128756849
30
0
10
-8.6672312158351783
20
3.6320979674484111
30
0
10
-8.863864464937274
20
3.4377171992807831
30
0
0
SPLINE
5
486
100
AcDbEntity
8
0
100
AcDbSpline
70
4
71
3
72
8
73
4
74
0
42
0.000000001
43
0.0000000001
44
0.0000000001
40
0
40
0
40
0
40
0
40
1
40
1
40
1
40
1
41
1
41
1
41
1
41
1
10
-3.9052788004950969
20
0.76144136897625447
30
0
10
-3.6974144680979313
20
1.1523184617146986
30
0
10
-4.5880848785004584
20
1.1063730127316607
30
0
10
-4.7504300170657441
20
1.0175778800883206
30
0
0
LINE
5
487
100
AcDbEntity
8
0
100
AcDbLine
10
-4.750430017065745
20
1.0175778800883206
30
0
11
-4.1975807512627608
21
0.93307640934466995
31
0
0
LINE
5
488
100
AcDbEntity
8
0
100
AcDbLine
10
-4.1975807512627608
20
0.93307640934466995
30
0
11
-5.1301109485104082
21
0.4554451042770058
31
0
0
SPLINE
5
489
100
AcDbEntity
8
0
100
AcDbSpline
70
4
71
3
72
8
73
4
74
0
42
0.000000001
43
0.0000000001
44
0.0000000001
40
0
40
0
40
0
40
0
40
1
40
1
40
1
40
1
41
1
41
1
41
1
41
1
10
-5.1301109485104082
20
0.4554451042770058
30
0
10
-4.8444296671787965
20
0.45546247099370607
30
0
10
-4.0585332040302564
20
0.4733021220668876
30
0
10
-3.9052788004950969
20
0.76144136897625447
30
0
0
SPLINE
5
490
100
AcDbEntity
8
0
100
AcDbSpline
70
4
71
3
72
8
73
4
74
0
42
0.000000001
43
0.0000000001
44
0.0000000001
40
0
40
0
40
0
40
0
40
1
40
1
40
1
40
1
41
1
41
1
41
1
41
1
10
-2.9985404065223289
20
2.2529036261672619
30
0
10
-3.0968799966952751
20
2.9104678236282311
30
0
10
-2.6640090525052718
20
3.5887526254499358
30
0
10
-2.7019610712493058
20
4.2405030147516598
30
0
0
SPLINE
5
491
100
AcDbEntity
8
0
100
AcDbSpline
70
4
71
3
72
8
73
4
74
0
42
0.000000001
43
0.0000000001
44
0.0000000001
40
0
40
0
40
0
40
0
40
1
40
1
40
1
40
1
41
1
41
1
41
1
41
1
10
-2.7019610712493058
20
4.2405030147516598
30
0
10
-2.9090775537056657
20
3.6712979537362278
30
0
10
-3.2822338408357021
20
2.7043953937713017
30
0
10
-3.1727527505266426
20
2.0949494632434984
30
0
0
SPLINE
5
492
100
AcDbEntity
8
0
100
AcDbSpline
70
4
71
3
72
8
73
4
74
0
42
0.000000001
43
0.0000000001
44
0.0000000001
40
0
40
0
40
0
40
0
40
1
40
1
40
1
40
1
41
1
41
1
41
1
41
1
10
-3.1727527505266426
20
2.0949494632434984
30
0
10
-3.051454078733018
20
1.4198085007530814
30
0
10
-2.2116533052600507
20
0.59771426771713099
30
0
10
-1.7520852023818956
20
0.11582431211837108
30
0
0
SPLINE
5
493
100
AcDbEntity
8
0
100
AcDbSpline
70
4
71
3
72
8
73
4
74
0
42
0.000000001
43
0.0000000001
44
0.0000000001
40
0
40
0
40
0
40
0
40
1
40
1
40
1
40
1
41
1
41
1
41
1
41
1
10
-1.7520852023818956
20
0.11582431211837108
30
0
10
-1.5966875525927604
20
-0.047125671151215798
30
0
10
-1.3586585153501229
20
-0.3402991883713602
30
0
10
-1.1016209317338588
20
-0.29775597820506761
30
0
0
SPLINE
5
494
100
AcDbEntity
8
0
100
AcDbSpline
70
4
71
3
72
8
73
4
74
0
42
0.000000001
43
0.0000000001
44
0.0000000001
40
0
40
0
40
0
40
0
40
1
40
1
40
1
40
1
41
1
41
1
41
1
41
1
10
-1.1016209317338588
20
-0.29775597820506761
30
0
10
-0.71328313713912461
20
-0.2334381090745552
30
0
10
-0.10493500470600936
20
0.51456464486463904
30
0
10
0.1363617795524108
20
0.81466228373255234
30
0
0
LINE
5
495
100
AcDbEntity
8
0
100
AcDbLine
10
0.13636177955241058
20
0.81466228373255234
30
0
11
0.084828953242347405
21
0.83341869859702378
31
0
0
SPLINE
5
496
100
AcDbEntity
8
0
100
AcDbSpline
70
4
71
3
72
8
73
4
74
0
42
0.000000001
43
0.0000000001
44
0.0000000001
40
0
40
0
40
0
40
0
40
1
40
1
40
1
40
1
41
1
41
1
41
1
41
1
10
0.084828953242347405
20
0.83341869859702378
30
0
10
-0.22685920278251892
20
0.57434792818919167
30
0
10
-0.72844781751757237
20
-0.15356687711403527
30
0
10
-1.1562881998086538
20
-0.16446651097175913
30
0
0
SPLINE
5
497
100
AcDbEntity
8
0
100
AcDbSpline
70
4
71
3
72
8
73
4
74
0
42
0.000000001
43
0.0000000001
44
0.0000000001
40
0
40
0
40
0
40
0
40
1
40
1
40
1
40
1
41
1
41
1
41
1
41
1
10
-1.1562881998086538
20
-0.16446651097175913
30
0
10
-1.3931395143593095
20
-0.17046815821695205
30
0
10
-1.5585415481937515
20
0.1647852198105193
30
0
10
-1.673757604784275
20
0.33102761783796009
30
0
0
SPLINE
5
498
100
AcDbEntity
8
0
100
AcDbSpline
70
4
71
3
72
8
73
4
74
0
42
0.000000001
43
0.0000000001
44
0.0000000001
40
0
40
0
40
0
40
0
40
1
40
1
40
1
40
1
41
1
41
1
41
1
41
1
10
-1.673757604784275
20
0.33102761783796009
30
0
10
-2.023558531510071
20
0.83582008767724592
30
0
10
-2.908413086559305
20
1.6503857752209905
30
0
10
-2.9985404065223289
20
2.2529036261672619
30
0
0
SPLINE
5
499
100
AcDbEntity
8
0
100
AcDbSpline
70
4
71
3
72
8
73
4
74
0
42
0.000000001
43
0.0000000001
44
0.0000000001
40
0
40
0
40
0
40
0
40
1
40
1
40
1
40
1
41
1
41
1
41
1
41
1
10
-11.468934916945855
20
-1.8880370720091744
30
0
10
-12.587172077212019
20
-1.9651311560275841
30
0
10
-11.669349657389878
20
-0.9459313081583165
30
0
10
-11.69456238091156
20
-0.4234748591291515
30
0
0
SPLINE
5
500
100
AcDbEntity
8
0
100
AcDbSpline
70
4
71
3
72
8
73
4
74
0
42
0.000000001
43
0.0000000001
44
0.0000000001
40
0
40
0
40
0
40
0
40
1
40
1
40
1
40
1
41
1
41
1
41
1
41
1
10
-11.69456238091156
20
-0.4234748591291515
30
0
10
-11.881722776200096
20
-0.83320979279485563
30
0
10
-12.281214268315328
20
-1.2491168102139483
30
0
10
-12.314135402389574
20
-1.7142295950929043
30
0
0
SPLINE
5
501
100
AcDbEntity
8
0
100
AcDbSpline
70
4
71
3
72
8
73
4
74
0
42
0.000000001
43
0.0000000001
44
0.0000000001
40
0
40
0
40
0
40
0
40
1
40
1
40
1
40
1
41
1
41
1
41
1
41
1
10
-12.314135402389574
20
-1.7142295950929043
30
0
10
-12.362632470490539
20
-2.3995859043310341
30
0
10
-11.23467457962532
20
-2.0649859707721374
30
0
10
-10.935958507150062
20
-1.8667912948853882
30
0
0
SPLINE
5
502
100
AcDbEntity
8
0
100
AcDbSpline
70
4
71
3
72
8
73
4
74
0
42
0.000000001
43
0.0000000001
44
0.0000000001
40
0
40
0
40
0
40
0
40
1
40
1
40
1
40
1
41
1
41
1
41
1
41
1
10
-10.935958507150062
20
-1.8667912948853882
30
0
10
-11.117020893359694
20
-1.8543474327109299
30
0
10
-11.288269779961475
20
-1.8755311179423684
30
0
10
-11.468934916945855
20
-1.8880370720091744
30
0
0
SPLINE
5
503
100
AcDbEntity
8
0
100
AcDbSpline
70
4
71
3
72
8
73
4
74
0
42
0.000000001
43
0.0000000001
44
0.0000000001
40
0
40
0
40
0
40
0
40
1
40
1
40
1
40
1
41
1
41
1
41
1
41
1
10
-9.2023873448366782
20
-1.9141568353214078
30
0
10
-8.4548090296444975
20
-1.9760986094448896
30
0
10
-7.4553891986767322
20
-1.9533353258389052
30
0
10
-7.1499509782495876
20
-1.0854497389637086
30
0
0
SPLINE
5
504
100
AcDbEntity
8
0
100
AcDbSpline
70
4
71
3
72
8
73
4
74
0
42
0.000000001
43
0.0000000001
44
0.0000000001
40
0
40
0
40
0
40
0
40
1
40
1
40
1
40
1
41
1
41
1
41
1
41
1
10
-7.1499509782495876
20
-1.0854497389637086
30
0
10
-7.8254926428538631
20
-1.5134621020814132
30
0
10
-8.386983179316303
20
-1.7541515503149929
30
0
10
-9.1836303891141959
20
-1.8626225230161797
30
0
0
LINE
5
505
100
AcDbEntity
8
0
100
AcDbLine
10
-9.1836303891141977
20
-1.8626225230161797
30
0
11
-9.2023873448366782
21
-1.9141568353214078
31
0
0
SPLINE
5
506
100
AcDbEntity
8
0
100
AcDbSpline
70
4
71
3
72
8
73
4
74
0
42
0.000000001
43
0.0000000001
44
0.0000000001
40
0
40
0
40
0
40
0
40
1
40
1
40
1
40
1
41
1
41
1
41
1
41
1
10
-10.060847118272589
20
10.478904763125485
30
0
10
-10.625413969434078
20
10.427661217007255
30
0
10
-11.327098633763445
20
9.7518561515546303
30
0
10
-11.654218691731026
20
9.3080312545511639
30
0
0
LINE
5
507
100
AcDbEntity
8
0
100
AcDbLine
10
-11.654218691731025
20
9.3080312545511621
30
0
11
-11.602685865420963
21
9.2892748396866907
31
0
0
LINE
5
508
100
AcDbEntity
8
0
100
AcDbLine
10
-11.602685865420963
20
9.2892748396866907
30
0
11
-10.346745248787485
21
10.174437537252398
31
0
0
LINE
5
509
100
AcDbEntity
8
0
100
AcDbLine
10
-10.346745248787485
20
10.174437537252398
30
0
11
-11.504733279195396
21
7.7946127441576349
31
0
0
LINE
5
510
100
AcDbEntity
8
0
100
AcDbLine
10
-11.504733279195396
20
7.7946127441576349
30
0
11
-11.453200452885334
21
7.7758563292931608
31
0
0
SPLINE
5
511
100
AcDbEntity
8
0
100
AcDbSpline
70
4
71
3
72
8
73
4
74
0
42
0.000000001
43
0.0000000001
44
0.0000000001
40
0
40
0
40
0
40
0
40
1
40
1
40
1
40
1
41
1
41
1
41
1
41
1
10
-11.453200452885334
20
7.7758563292931608
30
0
10
-11.02023350394855
20
8.6126139597683338
30
0
10
-10.121071311467553
20
9.5035618002282476
30
0
10
-10.060847118272589
20
10.478904763125485
30
0
0
LWPOLYLINE
5
512
100
AcDbEntity
8
0
100
AcDbPolyline
90
5
70
1
43
0.0
10
10.866590369790385
20
15.200211799023663
42
0.0051747447148589509
10
10.549659023055558
20
15.421864981164298
10
10.479506957370489
20
15.200137449434992
10
10.654036674090809
20
13.67760439920602
10
10.705572472391204
20
13.65884690262553
0
ARC
5
513
100
AcDbEntity
8
0
100
AcDbCircle
10
4.9960036108132044e-15
20
-1.7763568394002505e-14
30
0
40
18.684999999999988
210
-0
220
0
230
1
100
AcDbArc
50
340.0634174410684
51
341.15342413211613
0
SPLINE
5
514
100
AcDbEntity
8
0
100
AcDbSpline
70
4
71
3
72
8
73
4
74
0
42
0.000000001
43
0.0000000001
44
0.0000000001
40
0.043248344951157182
40
0.043248344951157182
40
0.043248344951157182
40
0.043248344951157182
40
0.99770190574251805
40
0.99770190574251805
40
0.99770190574251805
40
0.99770190574251805
41
1
41
1
41
1
41
1
10
17.683240662615063
20
-6.0359112541551694
30
0
10
16.59552582973749
20
-6.0819225172182589
30
0
10
16.218248320172979
20
-7.1117219183713249
30
0
10
15.435889674440855
20
-7.6476858789889723
30
0
0
ARC
5
515
100
AcDbEntity
8
0
100
AcDbCircle
10
10.762225484249644
20
-11.410246606603131
30
0
40
6.000000015971672
210
0
220
-0
230
1
100
AcDbArc
50
38.692128912342447
51
38.836006826146068
0
ARC
5
516
100
AcDbEntity
8
0
100
AcDbCircle
10
16.225839551608985
20
-7.0342985325788865
30
0
40
0.99999999999999867
210
0
220
0
230
1
100
AcDbArc
50
218.69212891232931
51
237.01697437664822
0
SPLINE
5
517
100
AcDbEntity
8
0
100
AcDbSpline
70
4
71
3
72
8
73
4
74
0
42
0.000000001
43
0.0000000001
44
0.0000000001
40
0.65186006392814755
40
0.65186006392814755
40
0.65186006392814755
40
0.65186006392814755
40
1
40
1
40
1
40
1
41
1
41
1
41
1
41
1
10
15.681449003994938
20
-7.8731304178029031
30
0
10
15.875789254254336
20
-7.6073533564757598
30
0
10
16.080452062228762
20
-7.3622704446100196
30
0
10
16.261038496224703
20
-7.155214395576972
30
0
0
SPLINE
5
518
100
AcDbEntity
8
0
100
AcDbSpline
70
4
71
3
72
8
73
4
74
0
42
0.000000001
43
0.0000000001
44
0.0000000001
40
0
40
0
40
0
40
0
40
0.55868544557577993
40
0.55868544557577993
40
0.55868544557577993
40
0.55868544557577993
41
1
41
1
41
1
41
1
10
16.261038496224703
20
-7.155214395576972
30
0
10
16.271748423251147
20
-7.3772418925277723
30
0
10
16.112278245462434
20
-7.713148514533704
30
0
10
16.056510506877252
20
-8.0198581069376562
30
0
0
ARC
5
519
100
AcDbEntity
8
0
100
AcDbCircle
10
16.225839551608985
20
-7.0342985325788865
30
0
40
1.0000000000000011
210
0
220
0
230
1
100
AcDbArc
50
260.25118939858578
51
275.57366822411882
0
SPLINE
5
520
100
AcDbEntity
8
0
100
AcDbSpline
70
4
71
3
72
8
73
4
74
0
42
0.000000001
43
0.0000000001
44
0.0000000001
40
0.10982759567900967
40
0.10982759567900967
40
0.10982759567900967
40
0.10982759567900967
40
0.98830000059991685
40
0.98830000059991685
40
0.98830000059991685
40
0.98830000059991685
41
1
41
1
41
1
41
1
10
16.322965058265275
20
-8.0295706742350053
30
0
10
16.302204461991131
20
-7.1952141710831263
30
0
10
16.689122717972392
20
-6.6231489417209888
30
0
10
17.565219305843772
20
-6.3712083420347474
30
0
0
ENDSEC
0
SECTION
2
OBJECTS
0
DICTIONARY
5
C
100
AcDbDictionary
3
ACAD_GROUP
350
D
3
ACAD_MLINESTYLE
350
17
0
DICTIONARY
5
D
100
AcDbDictionary
0
DICTIONARY
5
1A
330
C
100
AcDbDictionary
0
DICTIONARY
5
17
100
AcDbDictionary
0
ENDSEC
0
EOF
