0
SECTION
2
HEADER
9
$INSUNITS
70
4
9
$ACADVER
1
AC1014
9
$HANDSEED
5
FFFF
0
ENDSEC
0
SECTION
2
TABLES
0
TABLE
2
VPORT
5
8
100
AcDbSymbolTable
0
ENDTAB
0
TABLE
2
LTYPE
5
5
100
AcDbSymbolTable
0
LTYPE
5
14
100
AcDbSymbolTableRecord
100
AcDbLinetypeTableRecord
2
BYBLOCK
70
0
0
LTYPE
5
15
100
AcDbSymbolTableRecord
100
AcDbLinetypeTableRecord
2
BYLAYER
70
0
0
ENDTAB
0
TABLE
2
LAYER
5
2
100
AcDbSymbolTable
70
2
0
LAYER
5
50
100
AcDbSymbolTableRecord
100
AcDbLayerTableRecord
2
0
70
0
6
CONTINUOUS
0
ENDTAB
0
TABLE
2
STYLE
5
3
100
AcDbSymbolTable
70
1
0
STYLE
5
11
100
AcDbSymbolTableRecord
100
AcDbTextStyleTableRecord
2
STANDARD
70
0
0
ENDTAB
0
TABLE
2
VIEW
5
6
100
AcDbSymbolTable
70
0
0
ENDTAB
0
TABLE
2
UCS
5
7
100
AcDbSymbolTable
70
0
0
ENDTAB
0
TABLE
2
APPID
5
9
100
AcDbSymbolTable
70
2
0
APPID
5
12
100
AcDbSymbolTableRecord
100
AcDbRegAppTableRecord
2
ACAD
70
0
0
ENDTAB
0
TABLE
2
DIMSTYLE
5
A
100
AcDbSymbolTable
70
1
0
ENDTAB
0
TABLE
2
BLOCK_RECORD
5
1
100
AcDbSymbolTable
70
1
0
BLOCK_RECORD
5
1F
100
AcDbSymbolTableRecord
100
AcDbBlockTableRecord
2
*MODEL_SPACE
0
BLOCK_RECORD
5
1B
100
AcDbSymbolTableRecord
100
AcDbBlockTableRecord
2
*PAPER_SPACE
0
ENDTAB
0
ENDSEC
0
SECTION
2
BLOCKS
0
BLOCK
5
20
100
AcDbEntity
100
AcDbBlockBegin
2
*MODEL_SPACE
0
ENDBLK
5
21
100
AcDbEntity
100
AcDbBlockEnd
0
BLOCK
5
1C
100
AcDbEntity
100
AcDbBlockBegin
2
*PAPER_SPACE
0
ENDBLK
5
1D
100
AcDbEntity
100
AcDbBlockEnd
0
ENDSEC
0
SECTION
2
ENTITIES
0
LWPOLYLINE
5
100
100
AcDbEntity
8
0
100
AcDbPolyline
90
8
70
1
43
0.0
10
-7.0912547358069054
20
-8.0155486949308337
42
0.39342646008748006
10
-4.3733405668804366
20
-8.2192985209961602
42
-0.35082988103369217
10
4.3733405668804366
20
-8.2192985209961584
42
0.39342646008747961
10
7.0912547358069027
20
-8.0155486949308372
42
-0.45861202855152045
10
14.664806964496393
20
-8.2845694080185126
42
0.5650239788083784
10
18.060822820097421
20
-7.8298086861077394
42
1.5234526665911512
10
-18.060822820097421
20
-7.8298086861077376
42
0.56502397880837807
10
-14.664806964496398
20
-8.2845694080185108
42
-0.45861202855152028
0
CIRCLE
5
101
100
AcDbEntity
8
0
100
AcDbCircle
10
-7.6245580763737788
20
-16.799570721358347
30
0
40
1.2361663706911485
210
0
220
0
230
1
0
CIRCLE
5
102
100
AcDbEntity
8
0
100
AcDbCircle
10
-10.762225485084318
20
-11.410246605932821
30
0
40
4
210
0
220
0
230
1
0
CIRCLE
5
103
100
AcDbEntity
8
0
100
AcDbCircle
10
10.762225485084315
20
-11.410246605932821
30
0
40
3.9999999999999991
210
0
220
0
230
1
0
CIRCLE
5
104
100
AcDbEntity
8
0
100
AcDbCircle
10
0
20
-13.684999985098836
30
0
40
6.0000000000000009
210
0
220
0
230
1
0
CIRCLE
5
105
100
AcDbEntity
8
0
100
AcDbCircle
10
7.6245580763737788
20
-16.799570721358347
30
0
40
1.2361663706911474
210
0
220
0
230
1
0
CIRCLE
5
106
100
AcDbEntity
8
0
100
AcDbCircle
10
0
20
-1.1102230246251565e-15
30
0
40
20.284999999999997
210
0
220
0
230
1
0
CIRCLE
5
107
100
AcDbEntity
8
0
100
AcDbCircle
10
0
20
0
30
0
40
20.684999999999999
210
0
220
-0
230
1
0
SPLINE
5
108
100
AcDbEntity
8
0
100
AcDbSpline
70
4
71
3
72
8
73
4
74
0
42
0.000000001
43
0.0000000001
44
0.0000000001
40
-1
40
-1
40
-1
40
-1
40
0
40
0
40
0
40
0
41
1
41
1
41
1
41
1
10
-11.858754035445411
20
-13.390224813755545
30
0
10
-11.458276830687613
20
-13.422371097164669
30
0
10
-11.087453079933329
20
-13.584577769928948
30
0
10
-10.808556483805845
20
-13.84960280155552
30
0
0
SPLINE
5
109
100
AcDbEntity
8
0
100
AcDbSpline
70
4
71
3
72
8
73
4
74
0
42
0.000000001
43
0.0000000001
44
0.0000000001
40
-1
40
-1
40
-1
40
-1
40
0
40
0
40
0
40
0
41
1
41
1
41
1
41
1
10
-10.808556483805845
20
-13.84960280155552
30
0
10
-10.613746750110735
20
-14.034721615710811
30
0
10
-10.578677090562651
20
-14.162960322038781
30
0
10
-10.6918964092708
20
-14.276178736236984
30
0
0
SPLINE
5
110
100
AcDbEntity
8
0
100
AcDbSpline
70
4
71
3
72
8
73
4
74
0
42
0.000000001
43
0.0000000001
44
0.0000000001
40
-1
40
-1
40
-1
40
-1
40
0
40
0
40
0
40
0
41
1
41
1
41
1
41
1
10
-10.6918964092708
20
-14.276178736236984
30
0
10
-10.828137315073176
20
-14.412417833019475
30
0
10
-11.475856885958855
20
-14.326925362134162
30
0
10
-11.875559830204612
20
-14.119946351652706
30
0
0
SPLINE
5
111
100
AcDbEntity
8
0
100
AcDbSpline
70
4
71
3
72
8
73
4
74
0
42
0.000000001
43
0.0000000001
44
0.0000000001
40
-1
40
-1
40
-1
40
-1
40
0
40
0
40
0
40
0
41
1
41
1
41
1
41
1
10
-11.875559830204612
20
-14.119946351652706
30
0
10
-12.092099510793952
20
-14.007816062917119
30
0
10
-12.387722304805555
20
-13.707977348056612
30
0
10
-12.387722304805555
20
-13.600482672783931
30
0
0
SPLINE
5
112
100
AcDbEntity
8
0
100
AcDbSpline
70
4
71
3
72
8
73
4
74
0
42
0.000000001
43
0.0000000001
44
0.0000000001
40
-1
40
-1
40
-1
40
-1
40
0
40
0
40
0
40
0
41
1
41
1
41
1
41
1
10
-12.387722304805555
20
-13.600482672783931
30
0
10
-12.387722304805555
20
-13.420543082567882
30
0
10
-12.235388358079842
20
-13.359991568877936
30
0
10
-11.858754035445411
20
-13.390224813755545
30
0
0
SPLINE
5
113
100
AcDbEntity
8
0
100
AcDbSpline
70
4
71
3
72
8
73
4
74
0
42
0.000000001
43
0.0000000001
44
0.0000000001
40
-1
40
-1
40
-1
40
-1
40
0
40
0
40
0
40
0
41
1
41
1
41
1
41
1
10
-11.003851034830943
20
-14.680994875196065
30
0
10
-10.218986048198904
20
-14.773507247756621
30
0
10
-9.5244816049706849
20
-14.648649599599262
30
0
10
-9.0555764139307371
20
-14.330735158018214
30
0
0
SPLINE
5
114
100
AcDbEntity
8
0
100
AcDbSpline
70
4
71
3
72
8
73
4
74
0
42
0.000000001
43
0.0000000001
44
0.0000000001
40
-1
40
-1
40
-1
40
-1
40
0
40
0
40
0
40
0
41
1
41
1
41
1
41
1
10
-9.0555764139307371
20
-14.330735158018214
30
0
10
-8.6891775258224158
20
-14.082319642492989
30
0
10
-8.5464639468608983
20
-13.798571255025989
30
0
10
-8.5466122864917082
20
-13.318728729743409
30
0
0
SPLINE
5
115
100
AcDbEntity
8
0
100
AcDbSpline
70
4
71
3
72
8
73
4
74
0
42
0.000000001
43
0.0000000001
44
0.0000000001
40
-1
40
-1
40
-1
40
-1
40
0
40
0
40
0
40
0
41
1
41
1
41
1
41
1
10
-8.5466122864917082
20
-13.318728729743409
30
0
10
-8.5467533900429693
20
-12.834934400515575
30
0
10
-8.7642048166558517
20
-12.389525664290462
30
0
10
-9.3233764820654486
20
-11.727676743569834
30
0
0
SPLINE
5
116
100
AcDbEntity
8
0
100
AcDbSpline
70
4
71
3
72
8
73
4
74
0
42
0.000000001
43
0.0000000001
44
0.0000000001
40
-1
40
-1
40
-1
40
-1
40
0
40
0
40
0
40
0
41
1
41
1
41
1
41
1
10
-9.3233764820654486
20
-11.727676743569834
30
0
10
-9.7971877350415504
20
-11.16686248810197
30
0
10
-9.9617976907269856
20
-10.838634824139643
30
0
10
-9.9572281064899926
20
-10.463782386094858
30
0
0
SPLINE
5
117
100
AcDbEntity
8
0
100
AcDbSpline
70
4
71
3
72
8
73
4
74
0
42
0.000000001
43
0.0000000001
44
0.0000000001
40
-1
40
-1
40
-1
40
-1
40
0
40
0
40
0
40
0
41
1
41
1
41
1
41
1
10
-9.9572281064899926
20
-10.463782386094858
30
0
10
-9.9534255466854926
20
-10.152006401248649
30
0
10
-9.8143661878976651
20
-9.8966555557279392
30
0
10
-9.4876246337732972
20
-9.6014633084496737
30
0
0
SPLINE
5
118
100
AcDbEntity
8
0
100
AcDbSpline
70
4
71
3
72
8
73
4
74
0
42
0.000000001
43
0.0000000001
44
0.0000000001
40
-1
40
-1
40
-1
40
-1
40
0
40
0
40
0
40
0
41
1
41
1
41
1
41
1
10
-9.4876246337732972
20
-9.6014633084496737
30
0
10
-9.223518584249808
20
-9.3628585600318495
30
0
10
-9.0201051519675346
20
-9.2523762884141938
30
0
10
-8.5196108556439576
20
-9.0757015268409482
30
0
0
LINE
5
119
100
AcDbEntity
8
0
100
AcDbLine
10
-8.5196108556439594
20
-9.07570152684095
30
0
11
-8.1481575659686634
21
-8.9445781121741383
31
0
0
LINE
5
120
100
AcDbEntity
8
0
100
AcDbLine
10
-8.1481575659686634
20
-8.9445781121741383
30
0
11
-8.4895992157026257
21
-8.9734824058165472
31
0
0
SPLINE
5
121
100
AcDbEntity
8
0
100
AcDbSpline
70
4
71
3
72
8
73
4
74
0
42
0.000000001
43
0.0000000001
44
0.0000000001
40
-1
40
-1
40
-1
40
-1
40
0
40
0
40
0
40
0
41
1
41
1
41
1
41
1
10
-8.4895992157026257
20
-8.9734824058165472
30
0
10
-10.097239009738885
20
-9.1095754242430829
30
0
10
-11.366986451061383
20
-9.4602684016841021
30
0
10
-12.311989496215805
20
-10.029190684289823
30
0
0
SPLINE
5
122
100
AcDbEntity
8
0
100
AcDbSpline
70
4
71
3
72
8
73
4
74
0
42
0.000000001
43
0.0000000001
44
0.0000000001
40
-1
40
-1
40
-1
40
-1
40
0
40
0
40
0
40
0
41
1
41
1
41
1
41
1
10
-12.311989496215805
20
-10.029190684289823
30
0
10
-12.725560386922696
20
-10.278174684314841
30
0
10
-13.276906232296959
20
-10.871670240823704
30
0
10
-13.462757699506875
20
-11.267939213067123
30
0
0
SPLINE
5
123
100
AcDbEntity
8
0
100
AcDbSpline
70
4
71
3
72
8
73
4
74
0
42
0.000000001
43
0.0000000001
44
0.0000000001
40
-1
40
-1
40
-1
40
-1
40
0
40
0
40
0
40
0
41
1
41
1
41
1
41
1
10
-13.462757699506875
20
-11.267939213067123
30
0
10
-13.594642485419035
20
-11.549149545631314
30
0
10
-13.611216725632564
20
-11.654511838711056
30
0
10
-13.611216725632564
20
-12.211809811771692
30
0
0
SPLINE
5
124
100
AcDbEntity
8
0
100
AcDbSpline
70
4
71
3
72
8
73
4
74
0
42
0.000000001
43
0.0000000001
44
0.0000000001
40
-1
40
-1
40
-1
40
-1
40
0
40
0
40
0
40
0
41
1
41
1
41
1
41
1
10
-13.611216725632564
20
-12.211809811771692
30
0
10
-13.611216725632564
20
-12.80602988074568
30
0
10
-13.60134671312383
20
-12.85917571926927
30
0
10
-13.424178541376151
20
-13.218910630365306
30
0
0
SPLINE
5
125
100
AcDbEntity
8
0
100
AcDbSpline
70
4
71
3
72
8
73
4
74
0
42
0.000000001
43
0.0000000001
44
0.0000000001
40
-1
40
-1
40
-1
40
-1
40
0
40
0
40
0
40
0
41
1
41
1
41
1
41
1
10
-13.424178541376151
20
-13.218910630365306
30
0
10
-13.046737395871686
20
-13.985291051782127
30
0
10
-12.111130400015337
20
-14.550478612829147
30
0
10
-11.003854652870722
20
-14.680994875196065
30
0
0
SPLINE
5
126
100
AcDbEntity
8
0
100
AcDbSpline
70
4
71
3
72
8
73
4
74
0
42
0.000000001
43
0.0000000001
44
0.0000000001
40
-1
40
-1
40
-1
40
-1
40
0
40
0
40
0
40
0
41
1
41
1
41
1
41
1
10
3.3045598621504979
20
-12.082375265193257
30
0
10
3.3045598621504979
20
-12.066851881272049
30
0
10
2.326605627692091
20
-12.356334165143219
30
0
10
1.1313276865776167
20
-12.725669161421019
30
0
0
SPLINE
5
127
100
AcDbEntity
8
0
100
AcDbSpline
70
4
71
3
72
8
73
4
74
0
42
0.000000001
43
0.0000000001
44
0.0000000001
40
-1
40
-1
40
-1
40
-1
40
0
40
0
40
0
40
0
41
1
41
1
41
1
41
1
10
1.1313276865776167
20
-12.725669161421019
30
0
10
-0.063950254536848661
20
-13.095004769072293
30
0
10
-1.0616738617051258
20
-13.386086405955854
30
0
10
-1.0858365642112933
20
-13.372518194409901
30
0
0
SPLINE
5
128
100
AcDbEntity
8
0
100
AcDbSpline
70
4
71
3
72
8
73
4
74
0
42
0.000000001
43
0.0000000001
44
0.0000000001
40
-1
40
-1
40
-1
40
-1
40
0
40
0
40
0
40
0
41
1
41
1
41
1
41
1
10
-1.0858365642112933
20
-13.372518194409901
30
0
10
-1.119585602816251
20
-13.353566839410512
30
0
10
-0.66201412965969375
20
-10.367906129681057
30
0
10
-0.35576737371167511
20
-8.6088067304435896
30
0
0
SPLINE
5
129
100
AcDbEntity
8
0
100
AcDbSpline
70
4
71
3
72
8
73
4
74
0
42
0.000000001
43
0.0000000001
44
0.0000000001
40
-1
40
-1
40
-1
40
-1
40
0
40
0
40
0
40
0
41
1
41
1
41
1
41
1
10
-0.35576737371167511
20
-8.6088067304435896
30
0
10
-0.33366989080638731
20
-8.4818745921680723
30
0
10
-1.1108869810041533
20
-9.9847657089487303
30
0
10
-2.0829182292300796
20
-11.948565175316251
30
0
0
SPLINE
5
130
100
AcDbEntity
8
0
100
AcDbSpline
70
4
71
3
72
8
73
4
74
0
42
0.000000001
43
0.0000000001
44
0.0000000001
40
-1
40
-1
40
-1
40
-1
40
0
40
0
40
0
40
0
41
1
41
1
41
1
41
1
10
-2.0829182292300796
20
-11.948565175316251
30
0
10
-3.0549494774560237
20
-13.912364030310293
30
0
10
-3.8414921529652091
20
-15.527364535448395
30
0
10
-3.8307909773334892
20
-15.537454643291159
30
0
0
SPLINE
5
131
100
AcDbEntity
8
0
100
AcDbSpline
70
4
71
3
72
8
73
4
74
0
42
0.000000001
43
0.0000000001
44
0.0000000001
40
-1
40
-1
40
-1
40
-1
40
0
40
0
40
0
40
0
41
1
41
1
41
1
41
1
10
-3.8307909773334892
20
-15.537454643291159
30
0
10
-3.8200898017017781
20
-15.547544751133923
30
0
10
-2.7730433336955951
20
-15.250777952299927
30
0
10
-1.5040209125700876
20
-14.877974634294551
30
0
0
SPLINE
5
132
100
AcDbEntity
8
0
100
AcDbSpline
70
4
71
3
72
8
73
4
74
0
42
0.000000001
43
0.0000000001
44
0.0000000001
40
-1
40
-1
40
-1
40
-1
40
0
40
0
40
0
40
0
41
1
41
1
41
1
41
1
10
-1.5040209125700876
20
-14.877974634294551
30
0
10
-0.23499849144458906
20
-14.505170704915688
30
0
10
0.82380560555930238
20
-14.21282658180483
30
0
10
0.84887680905033847
20
-14.228321842546158
30
0
0
SPLINE
5
133
100
AcDbEntity
8
0
100
AcDbSpline
70
4
71
3
72
8
73
4
74
0
42
0.000000001
43
0.0000000001
44
0.0000000001
40
-1
40
-1
40
-1
40
-1
40
0
40
0
40
0
40
0
41
1
41
1
41
1
41
1
10
0.84887680905033847
20
-14.228321842546158
30
0
10
0.87394923528832713
20
-14.243816491914007
30
0
10
0.71522995589133664
20
-15.201308056141116
30
0
10
0.49616811444388453
20
-16.356080058997314
30
0
0
SPLINE
5
134
100
AcDbEntity
8
0
100
AcDbSpline
70
4
71
3
72
8
73
4
74
0
42
0.000000001
43
0.0000000001
44
0.0000000001
40
-1
40
-1
40
-1
40
-1
40
0
40
0
40
0
40
0
41
1
41
1
41
1
41
1
10
0.49616811444388453
20
-16.356080058997314
30
0
10
0.27710688436991759
20
-17.510852061853516
30
0
10
0.076470616732766672
20
-18.594137386944404
30
0
10
0.050311168455010602
20
-18.763380237978417
30
0
0
SPLINE
5
135
100
AcDbEntity
8
0
100
AcDbSpline
70
4
71
3
72
8
73
4
74
0
42
0.000000001
43
0.0000000001
44
0.0000000001
40
-1
40
-1
40
-1
40
-1
40
0
40
0
40
0
40
0
41
1
41
1
41
1
41
1
10
0.050311168455010602
20
-18.763380237978417
30
0
10
0.010292494856862788
20
-19.022283454716067
30
0
10
0.055817197977052757
20
-18.961268381842345
30
0
10
0.33730271678621193
20
-18.378737061242852
30
0
0
SPLINE
5
136
100
AcDbEntity
8
0
100
AcDbSpline
70
4
71
3
72
8
73
4
74
0
42
0.000000001
43
0.0000000001
44
0.0000000001
40
-1
40
-1
40
-1
40
-1
40
0
40
0
40
0
40
0
41
1
41
1
41
1
41
1
10
0.33730271678621193
20
-18.378737061242852
30
0
10
0.90635875460804982
20
-17.201082571938578
30
0
10
3.3045598621504979
20
-12.112226797890708
30
0
10
3.3045598621504979
20
-12.082375265193257
30
0
0
SPLINE
5
137
100
AcDbEntity
8
0
100
AcDbSpline
70
4
71
3
72
8
73
4
74
0
42
0.000000001
43
0.0000000001
44
0.0000000001
40
-1
40
-1
40
-1
40
-1
40
0
40
0
40
0
40
0
41
1
41
1
41
1
41
1
10
9.6871752974352461
20
-13.385358960202446
30
0
10
9.7849659377739115
20
-13.293489694212063
30
0
10
9.8188832516533573
20
-13.199051619980761
30
0
10
9.8188832516533573
20
-13.018638066554068
30
0
0
SPLINE
5
138
100
AcDbEntity
8
0
100
AcDbSpline
70
4
71
3
72
8
73
4
74
0
42
0.000000001
43
0.0000000001
44
0.0000000001
40
-1
40
-1
40
-1
40
-1
40
0
40
0
40
0
40
0
41
1
41
1
41
1
41
1
10
9.8188832516533573
20
-13.018638066554068
30
0
10
9.8188832516533573
20
-12.655437525607663
30
0
10
9.9950021918660266
20
-12.478026945194994
30
0
10
10.391300108427654
20
-12.442025640404616
30
0
0
SPLINE
5
139
100
AcDbEntity
8
0
100
AcDbSpline
70
4
71
3
72
8
73
4
74
0
42
0.000000001
43
0.0000000001
44
0.0000000001
40
-1
40
-1
40
-1
40
-1
40
0
40
0
40
0
40
0
41
1
41
1
41
1
41
1
10
10.391300108427654
20
-12.442025640404616
30
0
10
10.741583795119016
20
-12.410204980575315
30
0
10
10.877477369102909
20
-12.319032187241795
30
0
10
10.929819098286298
20
-12.080719143280906
30
0
0
SPLINE
5
140
100
AcDbEntity
8
0
100
AcDbSpline
70
4
71
3
72
8
73
4
74
0
42
0.000000001
43
0.0000000001
44
0.0000000001
40
-1
40
-1
40
-1
40
-1
40
0
40
0
40
0
40
0
41
1
41
1
41
1
41
1
10
10.929819098286298
20
-12.080719143280906
30
0
10
10.975722073433452
20
-11.871723075624377
30
0
10
10.866100443027499
20
-11.533611831504157
30
0
10
10.728576489869578
20
-11.460010048342429
30
0
0
SPLINE
5
141
100
AcDbEntity
8
0
100
AcDbSpline
70
4
71
3
72
8
73
4
74
0
42
0.000000001
43
0.0000000001
44
0.0000000001
40
-1
40
-1
40
-1
40
-1
40
0
40
0
40
0
40
0
41
1
41
1
41
1
41
1
10
10.728576489869578
20
-11.460010048342429
30
0
10
10.669400735804428
20
-11.428341346183718
30
0
10
10.148380847577037
20
-11.403539683519725
30
0
10
9.5422203428325378
20
-11.403539683519725
30
0
0
LINE
5
142
100
AcDbEntity
8
0
100
AcDbLine
10
9.5422203428325378
20
-11.403539683519723
30
0
11
8.4613793510557738
21
-11.403539683519725
31
0
0
LINE
5
143
100
AcDbEntity
8
0
100
AcDbLine
10
8.4613793510557738
20
-11.403539683519725
30
0
11
8.3434353246552408
21
-11.553482105953549
31
0
0
SPLINE
5
144
100
AcDbEntity
8
0
100
AcDbSpline
70
4
71
3
72
8
73
4
74
0
42
0.000000001
43
0.0000000001
44
0.0000000001
40
-1
40
-1
40
-1
40
-1
40
0
40
0
40
0
40
0
41
1
41
1
41
1
41
1
10
8.3434353246552408
20
-11.553482105953549
30
0
10
8.2376130882689829
20
-11.688013487961811
30
0
10
8.2254912982547044
20
-11.780805354095062
30
0
10
8.2254912982547044
20
-12.456318706539427
30
0
0
SPLINE
5
145
100
AcDbEntity
8
0
100
AcDbSpline
70
4
71
3
72
8
73
4
74
0
42
0.000000001
43
0.0000000001
44
0.0000000001
40
-1
40
-1
40
-1
40
-1
40
0
40
0
40
0
40
0
41
1
41
1
41
1
41
1
10
8.2254912982547044
20
-12.456318706539427
30
0
10
8.2254912982547044
20
-13.131832058983782
30
0
10
8.2376130882689829
20
-13.224622116097141
30
0
10
8.3434353246552408
20
-13.359153498105393
30
0
0
SPLINE
5
146
100
AcDbEntity
8
0
100
AcDbSpline
70
4
71
3
72
8
73
4
74
0
42
0.000000001
43
0.0000000001
44
0.0000000001
40
-0.99999506012888517
40
-0.99999506012888517
40
-0.99999506012888517
40
-0.99999506012888517
40
0
40
0
40
0
40
0
41
1
41
1
41
1
41
1
10
8.3434372224737015
20
-13.359152005283493
30
0
10
8.456238855165747
20
-13.502556378217946
30
0
10
8.4852261744834294
20
-13.509092302499436
30
0
10
9.0084233471364499
20
-13.509092302499436
30
0
0
SPLINE
5
147
100
AcDbEntity
8
0
100
AcDbSpline
70
4
71
3
72
8
73
4
74
0
42
0.000000001
43
0.0000000001
44
0.0000000001
40
-1
40
-1
40
-1
40
-1
40
0
40
0
40
0
40
0
41
1
41
1
41
1
41
1
10
9.0084233471364499
20
-13.509092302499436
30
0
10
9.4917649691373214
20
-13.509092302499436
30
0
10
9.5708042138272926
20
-13.494683459091807
30
0
10
9.6871752974352461
20
-13.385358960202446
30
0
0
SPLINE
5
148
100
AcDbEntity
8
0
100
AcDbSpline
70
4
71
3
72
8
73
4
74
0
42
0.000000001
43
0.0000000001
44
0.0000000001
40
-1
40
-1
40
-1
40
-1
40
0
40
0
40
0
40
0
41
1
41
1
41
1
41
1
10
13.347105642399825
20
-12.441106658301525
30
0
10
13.347105642399825
20
-11.375626506648434
30
0
10
13.375767753504736
20
-11.40354149253962
30
0
10
12.281822673914524
20
-11.40354149253962
30
0
0
SPLINE
5
149
100
AcDbEntity
8
0
100
AcDbSpline
70
4
71
3
72
8
73
4
74
0
42
0.000000001
43
0.0000000001
44
0.0000000001
40
-1
40
-1
40
-1
40
-1
40
0
40
0
40
0
40
0
41
1
41
1
41
1
41
1
10
12.281822673914524
20
-11.40354149253962
30
0
10
11.489400054445543
20
-11.40354149253962
30
0
10
11.459669717096791
20
-11.40787952223096
30
0
10
11.324326537413816
20
-11.54322315416891
30
0
0
SPLINE
5
150
100
AcDbEntity
8
0
100
AcDbSpline
70
4
71
3
72
8
73
4
74
0
42
0.000000001
43
0.0000000001
44
0.0000000001
40
-1
40
-1
40
-1
40
-1
40
0
40
0
40
0
40
0
41
1
41
1
41
1
41
1
10
11.324326537413816
20
-11.54322315416891
30
0
10
11.203128536489801
20
-11.664420250582971
30
0
10
11.184645780294469
20
-11.734640975574088
30
0
10
11.184645780294469
20
-12.073917228502161
30
0
0
SPLINE
5
151
100
AcDbEntity
8
0
100
AcDbSpline
70
4
71
3
72
8
73
4
74
0
42
0.000000001
43
0.0000000001
44
0.0000000001
40
-1
40
-1
40
-1
40
-1
40
0
40
0
40
0
40
0
41
1
41
1
41
1
41
1
10
11.184645780294469
20
-12.073917228502161
30
0
10
11.184645780294469
20
-12.416896545140897
30
0
10
11.167255672111466
20
-12.481270517854114
30
0
10
11.043094044356
20
-12.597914311210165
30
0
0
SPLINE
5
152
100
AcDbEntity
8
0
100
AcDbSpline
70
4
71
3
72
8
73
4
74
0
42
0.000000001
43
0.0000000001
44
0.0000000001
40
-1
40
-1
40
-1
40
-1
40
0
40
0
40
0
40
0
41
1
41
1
41
1
41
1
10
11.043094044356
20
-12.597914311210165
30
0
10
10.943372275286931
20
-12.691599833168073
30
0
10
10.840546228090112
20
-12.728605143996269
30
0
10
10.695131782435862
20
-12.723136476874956
30
0
0
SPLINE
5
153
100
AcDbEntity
8
0
100
AcDbSpline
70
4
71
3
72
8
73
4
74
0
42
0.000000001
43
0.0000000001
44
0.0000000001
40
-1
40
-1
40
-1
40
-1
40
0
40
0
40
0
40
0
41
1
41
1
41
1
41
1
10
10.695131782435862
20
-12.723136476874956
30
0
10
10.303681586919012
20
-12.708418291066476
30
0
10
10.107940207981589
20
-12.89511276154418
30
0
10
10.105225321384728
20
-13.285776033409778
30
0
0
SPLINE
5
154
100
AcDbEntity
8
0
100
AcDbSpline
70
4
71
3
72
8
73
4
74
0
42
0.000000001
43
0.0000000001
44
0.0000000001
40
-1
40
-1
40
-1
40
-1
40
0
40
0
40
0
40
0
41
1
41
1
41
1
41
1
10
10.105225321384728
20
-13.285776033409778
30
0
10
10.103291026869524
20
-13.564091934153225
30
0
10
9.9610256325852493
20
-13.761917304001582
30
0
10
9.7335210301999773
20
-13.802641959719434
30
0
0
SPLINE
5
155
100
AcDbEntity
8
0
100
AcDbSpline
70
4
71
3
72
8
73
4
74
0
42
0.000000001
43
0.0000000001
44
0.0000000001
40
-1
40
-1
40
-1
40
-1
40
0
40
0
40
0
40
0
41
1
41
1
41
1
41
1
10
9.7335210301999773
20
-13.802641959719434
30
0
10
9.6513548946336609
20
-13.817349291408586
30
0
10
9.6146367657126728
20
-13.875818623207486
30
0
10
9.6014711712230412
20
-14.012913386396985
30
0
0
SPLINE
5
156
100
AcDbEntity
8
0
100
AcDbSpline
70
4
71
3
72
8
73
4
74
0
42
0.000000001
43
0.0000000001
44
0.0000000001
40
-1
40
-1
40
-1
40
-1
40
0
40
0
40
0
40
0
41
1
41
1
41
1
41
1
10
9.6014711712230412
20
-14.012913386396985
30
0
10
9.5914410604542208
20
-14.11735714962861
30
0
10
9.597039524752498
20
-14.238785800588335
30
0
10
9.6139118009925699
20
-14.282754028965318
30
0
0
SPLINE
5
157
100
AcDbEntity
8
0
100
AcDbSpline
70
4
71
3
72
8
73
4
74
0
42
0.000000001
43
0.0000000001
44
0.0000000001
40
-1
40
-1
40
-1
40
-1
40
0
40
0
40
0
40
0
41
1
41
1
41
1
41
1
10
9.6139118009925699
20
-14.282754028965318
30
0
10
9.6388708483868175
20
-14.347797339037086
30
0
10
9.8612337639955214
20
-14.362698235854246
30
0
10
10.806877202190289
20
-14.362698235854246
30
0
0
SPLINE
5
158
100
AcDbEntity
8
0
100
AcDbSpline
70
4
71
3
72
8
73
4
74
0
42
0.000000001
43
0.0000000001
44
0.0000000001
40
-1
40
-1
40
-1
40
-1
40
0
40
0
40
0
40
0
41
1
41
1
41
1
41
1
10
10.806877202190289
20
-14.362698235854246
30
0
10
11.816840342501633
20
-14.362698235854246
30
0
10
11.973716285911053
20
-14.350838301468748
30
0
10
12.003890737642301
20
-14.272202015958818
30
0
0
SPLINE
5
159
100
AcDbEntity
8
0
100
AcDbSpline
70
4
71
3
72
8
73
4
74
0
42
0.000000001
43
0.0000000001
44
0.0000000001
40
-1
40
-1
40
-1
40
-1
40
0
40
0
40
0
40
0
41
1
41
1
41
1
41
1
10
12.003890737642301
20
-14.272202015958818
30
0
10
12.0229908218744
20
-14.222428642761361
30
0
10
12.023909803977485
20
-14.157908139437229
30
0
10
12.005933573350784
20
-14.128822717678528
30
0
0
SPLINE
5
160
100
AcDbEntity
8
0
100
AcDbSpline
70
4
71
3
72
8
73
4
74
0
42
0.000000001
43
0.0000000001
44
0.0000000001
40
-1
40
-1
40
-1
40
-1
40
0
40
0
40
0
40
0
41
1
41
1
41
1
41
1
10
12.005933573350784
20
-14.128822717678528
30
0
10
11.948972511883476
20
-14.036658581446403
30
0
10
12.099436836554975
20
-13.681528078220214
30
0
10
12.223602082350222
20
-13.615077350675616
30
0
0
SPLINE
5
161
100
AcDbEntity
8
0
100
AcDbSpline
70
4
71
3
72
8
73
4
74
0
42
0.000000001
43
0.0000000001
44
0.0000000001
40
-1
40
-1
40
-1
40
-1
40
0
40
0
40
0
40
0
41
1
41
1
41
1
41
1
10
12.223602082350222
20
-13.615077350675616
30
0
10
12.289235132905461
20
-13.579953420530892
30
0
10
12.484491694512903
20
-13.552485262552047
30
0
10
12.65750545208788
20
-13.554039210635803
30
0
0
SPLINE
5
162
100
AcDbEntity
8
0
100
AcDbSpline
70
4
71
3
72
8
73
4
74
0
42
0.000000001
43
0.0000000001
44
0.0000000001
40
-1
40
-1
40
-1
40
-1
40
0
40
0
40
0
40
0
41
1
41
1
41
1
41
1
10
12.65750545208788
20
-13.554039210635803
30
0
10
12.992273627455146
20
-13.557047610709493
30
0
10
13.253781019909571
20
-13.458454217795538
30
0
10
13.311756489279055
20
-13.307372112832297
30
0
0
SPLINE
5
163
100
AcDbEntity
8
0
100
AcDbSpline
70
4
71
3
72
8
73
4
74
0
42
0.000000001
43
0.0000000001
44
0.0000000001
40
-1
40
-1
40
-1
40
-1
40
0
40
0
40
0
40
0
41
1
41
1
41
1
41
1
10
13.311756489279055
20
-13.307372112832297
30
0
10
13.331198026015008
20
-13.256706892830078
30
0
10
13.347105642399825
20
-12.866886624232276
30
0
10
13.347105642399825
20
-12.441106658301525
30
0
0
SPLINE
5
164
100
AcDbEntity
8
0
100
AcDbSpline
70
4
71
3
72
8
73
4
74
0
42
0.000000001
43
0.0000000001
44
0.0000000001
40
-1
40
-1
40
-1
40
-1
40
0
40
0
40
0
40
0
41
1
41
1
41
1
41
1
10
8.284399769631408
20
-11.008934557318263
30
0
10
8.3350383065902793
20
-11.103553533538356
30
0
10
8.406662831014458
20
-11.119006181421348
30
0
10
8.7945592069614058
20
-11.119006181421348
30
0
0
SPLINE
5
165
100
AcDbEntity
8
0
100
AcDbSpline
70
4
71
3
72
8
73
4
74
0
42
0.000000001
43
0.0000000001
44
0.0000000001
40
-1
40
-1
40
-1
40
-1
40
0
40
0
40
0
40
0
41
1
41
1
41
1
41
1
10
8.7945592069614058
20
-11.119006181421348
30
0
10
9.1824555829083536
20
-11.119006181421348
30
0
10
9.2540801073325323
20
-11.103553533538356
30
0
10
9.3047186442914036
20
-11.008934557318263
30
0
0
SPLINE
5
166
100
AcDbEntity
8
0
100
AcDbSpline
70
4
71
3
72
8
73
4
74
0
42
0.000000001
43
0.0000000001
44
0.0000000001
40
-1
40
-1
40
-1
40
-1
40
0
40
0
40
0
40
0
41
1
41
1
41
1
41
1
10
9.3047186442914036
20
-11.008934557318263
30
0
10
9.3378200902013795
20
-10.947084167348763
30
0
10
9.363627567923082
20
-10.524683450568716
30
0
10
9.363627567923082
20
-10.04474595174203
30
0
0
SPLINE
5
167
100
AcDbEntity
8
0
100
AcDbSpline
70
4
71
3
72
8
73
4
74
0
42
0.000000001
43
0.0000000001
44
0.0000000001
40
-1
40
-1
40
-1
40
-1
40
0
40
0
40
0
40
0
41
1
41
1
41
1
41
1
10
9.363627567923082
20
-10.04474595174203
30
0
10
9.363627567923082
20
-9.0430934487959966
30
0
10
9.3472722191159932
20
-9.0134535624416401
30
0
10
8.7945592069614058
20
-9.0134535624416401
30
0
0
SPLINE
5
168
100
AcDbEntity
8
0
100
AcDbSpline
70
4
71
3
72
8
73
4
74
0
42
0.000000001
43
0.0000000001
44
0.0000000001
40
-1
40
-1
40
-1
40
-1
40
0
40
0
40
0
40
0
41
1
41
1
41
1
41
1
10
8.7945592069614058
20
-9.0134535624416401
30
0
10
8.2418459686793337
20
-9.0134535624416401
30
0
10
8.2254906198722448
20
-9.0430934487959966
30
0
10
8.2254906198722448
20
-10.04474595174203
30
0
0
SPLINE
5
169
100
AcDbEntity
8
0
100
AcDbSpline
70
4
71
3
72
8
73
4
74
0
42
0.000000001
43
0.0000000001
44
0.0000000001
40
-1
40
-1
40
-1
40
-1
40
0
40
0
40
0
40
0
41
1
41
1
41
1
41
1
10
8.2254906198722448
20
-10.04474595174203
30
0
10
8.2254906198722448
20
-10.524683450568716
30
0
10
8.2512978714664627
20
-10.947084167348763
30
0
10
8.284399769631408
20
-11.008934557318263
30
0
0
LINE
5
170
100
AcDbEntity
8
0
100
AcDbLine
10
10.068300511941541
20
-8.7406551723564885
30
0
11
9.6240472871698639
21
-8.7573723251411728
31
0
0
LINE
5
171
100
AcDbEntity
8
0
100
AcDbLine
10
9.6240472871698639
20
-8.7573723251411728
30
0
11
9.5807058841840647
21
-8.9565463193159989
31
0
0
SPLINE
5
172
100
AcDbEntity
8
0
100
AcDbSpline
70
4
71
3
72
8
73
4
74
0
42
0.000000001
43
0.0000000001
44
0.0000000001
40
-1
40
-1
40
-1
40
-1
40
0
40
0
40
0
40
0
41
1
41
1
41
1
41
1
10
9.5807058841840682
20
-8.9565463193159989
30
0
10
9.5062375804960091
20
-9.2987640385819006
30
0
10
9.5679744544675458
20
-11.012351795886627
30
0
10
9.6568004967514049
20
-11.068643067740421
30
0
0
SPLINE
5
173
100
AcDbEntity
8
0
100
AcDbSpline
70
4
71
3
72
8
73
4
74
0
42
0.000000001
43
0.0000000001
44
0.0000000001
40
-1
40
-1
40
-1
40
-1
40
0
40
0
40
0
40
0
41
1
41
1
41
1
41
1
10
9.6568004967514049
20
-11.068643067740421
30
0
10
9.7749706506379361
20
-11.143531064042481
30
0
10
10.525585915986117
20
-11.129328448902079
30
0
10
10.604196875217609
20
-11.050717489670575
30
0
0
SPLINE
5
174
100
AcDbEntity
8
0
100
AcDbSpline
70
4
71
3
72
8
73
4
74
0
42
0.000000001
43
0.0000000001
44
0.0000000001
40
-1
40
-1
40
-1
40
-1
40
0
40
0
40
0
40
0
41
1
41
1
41
1
41
1
10
10.604196875217609
20
-11.050717489670575
30
0
10
10.710322574690071
20
-10.94459314696303
30
0
10
10.699652975390862
20
-8.8792161461651808
30
0
10
10.592519651840799
20
-8.79030281867173
30
0
0
SPLINE
5
175
100
AcDbEntity
8
0
100
AcDbSpline
70
4
71
3
72
8
73
4
74
0
42
0.000000001
43
0.0000000001
44
0.0000000001
40
-1
40
-1
40
-1
40
-1
40
0
40
0
40
0
40
0
41
1
41
1
41
1
41
1
10
10.592519651840799
20
-8.79030281867173
30
0
10
10.542386283685641
20
-8.7486971702684357
30
0
10
10.346816309382607
20
-8.7301746156355655
30
0
10
10.068300511941541
20
-8.7406551723564885
30
0
0
SPLINE
5
176
100
AcDbEntity
8
0
100
AcDbSpline
70
4
71
3
72
8
73
4
74
0
42
0.000000001
43
0.0000000001
44
0.0000000001
40
-1
40
-1
40
-1
40
-1
40
0
40
0
40
0
40
0
41
1
41
1
41
1
41
1
10
11.456390868549855
20
-8.7289182513233765
30
0
10
11.0307723576441
20
-8.7289182513233765
30
0
10
11.008657994023681
20
-8.7353637891841949
30
0
10
10.955610747083981
20
-8.8748898751031113
30
0
0
SPLINE
5
177
100
AcDbEntity
8
0
100
AcDbSpline
70
4
71
3
72
8
73
4
74
0
42
0.000000001
43
0.0000000001
44
0.0000000001
40
-1
40
-1
40
-1
40
-1
40
0
40
0
40
0
40
0
41
1
41
1
41
1
41
1
10
10.955610747083981
20
-8.8748898751031113
30
0
10
10.925086250004412
20
-8.9551741777309779
30
0
10
10.90011227819609
20
-9.4272569122041219
30
0
10
10.90011227819609
20
-9.9239613118624206
30
0
0
SPLINE
5
178
100
AcDbEntity
8
0
100
AcDbSpline
70
4
71
3
72
8
73
4
74
0
42
0.000000001
43
0.0000000001
44
0.0000000001
40
-1
40
-1
40
-1
40
-1
40
0
40
0
40
0
40
0
41
1
41
1
41
1
41
1
10
10.90011227819609
20
-9.9239613118624206
30
0
10
10.90011227819609
20
-10.420668425050547
30
0
10
10.925086250004412
20
-10.892750255013738
30
0
10
10.955610747083981
20
-10.973034557641604
30
0
0
SPLINE
5
179
100
AcDbEntity
8
0
100
AcDbSpline
70
4
71
3
72
8
73
4
74
0
42
0.000000001
43
0.0000000001
44
0.0000000001
40
-1
40
-1
40
-1
40
-1
40
0
40
0
40
0
40
0
41
1
41
1
41
1
41
1
10
10.955610747083981
20
-10.973034557641604
30
0
10
11.008792766005332
20
-11.112913402438679
30
0
10
11.030082668811815
20
-11.119004372401463
30
0
10
11.46577018441398
20
-11.119004372401463
30
0
0
SPLINE
5
180
100
AcDbEntity
8
0
100
AcDbSpline
70
4
71
3
72
8
73
4
74
0
42
0.000000001
43
0.0000000001
44
0.0000000001
40
-1
40
-1
40
-1
40
-1
40
0
40
0
40
0
40
0
41
1
41
1
41
1
41
1
10
11.46577018441398
20
-11.119004372401463
30
0
10
11.857038121177119
20
-11.119004372401463
30
0
10
11.928644555402418
20
-11.103656647671972
30
0
10
11.979340076487762
20
-11.008932748298378
30
0
0
SPLINE
5
181
100
AcDbEntity
8
0
100
AcDbSpline
70
4
71
3
72
8
73
4
74
0
42
0.000000001
43
0.0000000001
44
0.0000000001
40
-1
40
-1
40
-1
40
-1
40
0
40
0
40
0
40
0
41
1
41
1
41
1
41
1
10
11.979340076487762
20
-11.008932748298378
30
0
10
12.065848312040167
20
-10.84729139424908
30
0
10
12.057525463790615
20
-8.8847707417311739
30
0
10
11.969960760623639
20
-8.7972060385642017
30
0
0
SPLINE
5
182
100
AcDbEntity
8
0
100
AcDbSpline
70
4
71
3
72
8
73
4
74
0
42
0.000000001
43
0.0000000001
44
0.0000000001
40
-1
40
-1
40
-1
40
-1
40
0
40
0
40
0
40
0
41
1
41
1
41
1
41
1
10
11.969960760623639
20
-8.7972060385642017
30
0
10
11.928484457142332
20
-8.7557297350828946
30
0
10
11.726845221115179
20
-8.7289182513233765
30
0
10
11.456390868549855
20
-8.7289182513233765
30
0
0
SPLINE
5
183
100
AcDbEntity
8
0
100
AcDbSpline
70
4
71
3
72
8
73
4
74
0
42
0.000000001
43
0.0000000001
44
0.0000000001
40
-1
40
-1
40
-1
40
-1
40
0
40
0
40
0
40
0
41
1
41
1
41
1
41
1
10
12.790700872908873
20
-9.0134535624416401
30
0
10
12.21988997354012
20
-9.0134535624416401
30
0
10
12.208969824986422
20
-9.0335960943841798
30
0
10
12.208969824986422
20
-10.086528884094349
30
0
0
SPLINE
5
184
100
AcDbEntity
8
0
100
AcDbSpline
70
4
71
3
72
8
73
4
74
0
42
0.000000001
43
0.0000000001
44
0.0000000001
40
-1
40
-1
40
-1
40
-1
40
0
40
0
40
0
40
0
41
1
41
1
41
1
41
1
10
12.208969824986422
20
-10.086528884094349
30
0
10
12.208969824986422
20
-10.707465011028759
30
0
10
12.229928224898433
20
-11.003388102341759
30
0
10
12.277257612227249
20
-11.050717489670575
30
0
0
SPLINE
5
185
100
AcDbEntity
8
0
100
AcDbSpline
70
4
71
3
72
8
73
4
74
0
42
0.000000001
43
0.0000000001
44
0.0000000001
40
-1
40
-1
40
-1
40
-1
40
0
40
0
40
0
40
0
41
1
41
1
41
1
41
1
10
12.277257612227249
20
-11.050717489670575
30
0
10
12.318645273734043
20
-11.092106055687317
30
0
10
12.519615624657622
20
-11.119006181421348
30
0
10
12.787417501812218
20
-11.119006181421348
30
0
0
SPLINE
5
186
100
AcDbEntity
8
0
100
AcDbSpline
70
4
71
3
72
8
73
4
74
0
42
0.000000001
43
0.0000000001
44
0.0000000001
40
-1
40
-1
40
-1
40
-1
40
0
40
0
40
0
40
0
41
1
41
1
41
1
41
1
10
12.787417501812218
20
-11.119006181421348
30
0
10
13.166040841813462
20
-11.119006181421348
30
0
10
13.237719636834274
20
-11.103251427217064
30
0
10
13.288197623278094
20
-11.008934557318263
30
0
0
SPLINE
5
187
100
AcDbEntity
8
0
100
AcDbSpline
70
4
71
3
72
8
73
4
74
0
42
0.000000001
43
0.0000000001
44
0.0000000001
40
-1
40
-1
40
-1
40
-1
40
0
40
0
40
0
40
0
41
1
41
1
41
1
41
1
10
13.288197623278094
20
-11.008934557318263
30
0
10
13.321070228172239
20
-10.947511096042316
30
0
10
13.347106546909767
20
-10.53252012472338
30
0
10
13.347106546909767
20
-10.069971829569745
30
0
0
SPLINE
5
188
100
AcDbEntity
8
0
100
AcDbSpline
70
4
71
3
72
8
73
4
74
0
42
0.000000001
43
0.0000000001
44
0.0000000001
40
-1
40
-1
40
-1
40
-1
40
0
40
0
40
0
40
0
41
1
41
1
41
1
41
1
10
13.347106546909767
20
-10.069971829569745
30
0
10
13.347106546909767
20
-9.0643557640491856
30
0
10
13.320299585699967
20
-9.0134535624416401
30
0
10
12.790700872908873
20
-9.0134535624416401
30
0
0
ARC
5
189
100
AcDbEntity
8
0
100
AcDbCircle
10
4.9960036108132044e-15
20
-1.7763568394002505e-14
30
0
40
18.684999999999985
210
0
220
-0
230
1
100
AcDbArc
50
14.251429373795748
51
15.410354014963955
0
SPLINE
5
190
100
AcDbEntity
8
0
100
AcDbSpline
70
4
71
3
72
8
73
4
74
0
42
0.000000001
43
0.0000000001
44
0.0000000001
40
-0.94569753672278678
40
-0.94569753672278678
40
-0.94569753672278678
40
-0.94569753672278678
40
0
40
0
40
0
40
0
41
1
41
1
41
1
41
1
10
18.013225657931265
20
4.965171336061438
30
0
10
16.951530759688534
20
4.2476960600003784
30
0
10
15.950352420673777
20
3.4942302015737603
30
0
10
14.997005044586917
20
2.6952873647821884
30
0
0
SPLINE
5
191
100
AcDbEntity
8
0
100
AcDbSpline
70
4
71
3
72
8
73
4
74
0
42
0.000000001
43
0.0000000001
44
0.0000000001
40
-1
40
-1
40
-1
40
-1
40
0
40
0
40
0
40
0
41
1
41
1
41
1
41
1
10
14.997005044586917
20
2.6952873647821884
30
0
10
13.941835558775406
20
1.8110155988113164
30
0
10
12.970237658392884
20
0.88642991098198287
30
0
10
12.971355257603674
20
0.76770629983150762
30
0
0
SPLINE
5
192
100
AcDbEntity
8
0
100
AcDbSpline
70
4
71
3
72
8
73
4
74
0
42
0.000000001
43
0.0000000001
44
0.0000000001
40
-1
40
-1
40
-1
40
-1
40
0
40
0
40
0
40
0
41
1
41
1
41
1
41
1
10
12.971355257603674
20
0.76770629983150762
30
0
10
12.972000494620797
20
0.70066008661084922
30
0
10
13.364954707761518
20
0.49491469813227607
30
0
10
14.364607026677174
20
0.038220807126565504
30
0
0
SPLINE
5
193
100
AcDbEntity
8
0
100
AcDbSpline
70
4
71
3
72
8
73
4
74
0
42
0.000000001
43
0.0000000001
44
0.0000000001
40
-1
40
-1
40
-1
40
-1
40
0
40
0
40
0
40
0
41
1
41
1
41
1
41
1
10
14.364607026677174
20
0.038220807126565504
30
0
10
15.91323186947368
20
-0.66927062529285486
30
0
10
17.98947797802597
20
-1.7154822734213759
30
0
10
18.018340768973012
20
-1.8028790186764043
30
0
0
SPLINE
5
194
100
AcDbEntity
8
0
100
AcDbSpline
70
4
71
3
72
8
73
4
74
0
42
0.000000001
43
0.0000000001
44
0.0000000001
40
-1
40
-1
40
-1
40
-1
40
0
40
0
40
0
40
0
41
1
41
1
41
1
41
1
10
18.018340768973012
20
-1.8028790186764043
30
0
10
18.028620733826937
20
-1.8340086611817119
30
0
10
17.397357359124658
20
-2.236439336475784
30
0
10
16.615532187476102
20
-2.6971702198376812
30
0
0
SPLINE
5
195
100
AcDbEntity
8
0
100
AcDbSpline
70
4
71
3
72
8
73
4
74
0
42
0.000000001
43
0.0000000001
44
0.0000000001
40
-1
40
-1
40
-1
40
-1
40
0
40
0
40
0
40
0
41
1
41
1
41
1
41
1
10
16.615532187476102
20
-2.6971702198376812
30
0
10
15.038913797563167
20
-3.62627256678687
30
0
10
13.424503997300221
20
-4.6270863123333461
30
0
10
13.172079971632035
20
-4.8318577581445599
30
0
0
SPLINE
5
196
100
AcDbEntity
8
0
100
AcDbSpline
70
4
71
3
72
8
73
4
74
0
42
0.000000001
43
0.0000000001
44
0.0000000001
40
-1
40
-1
40
-1
40
-1
40
0
40
0
40
0
40
0
41
1
41
1
41
1
41
1
10
13.172079971632035
20
-4.8318577581445599
30
0
10
13.077816930572162
20
-4.9083268666718727
30
0
10
13.02082667539193
20
-4.9989546667258455
30
0
10
13.03836738283098
20
-5.0444937909946619
30
0
0
SPLINE
5
197
100
AcDbEntity
8
0
100
AcDbSpline
70
4
71
3
72
8
73
4
74
0
42
0.000000001
43
0.0000000001
44
0.0000000001
40
-1
40
-1
40
-1
40
-1
40
0
40
0
40
0
40
0
41
1
41
1
41
1
41
1
10
13.03836738283098
20
-5.0444937909946619
30
0
10
13.05518006812618
20
-5.0881459013454755
30
0
10
13.534418297024475
20
-5.3828390387768321
30
0
10
14.103337166732743
20
-5.6993679708102674
30
0
0
SPLINE
5
198
100
AcDbEntity
8
0
100
AcDbSpline
70
4
71
3
72
8
73
4
74
0
42
0.000000001
43
0.0000000001
44
0.0000000001
40
-1
40
-1
40
-1
40
-1
40
0
40
0
40
0
40
0
41
1
41
1
41
1
41
1
10
14.103337166732743
20
-5.6993679708102674
30
0
10
15.775837777390029
20
-6.6298947089104621
30
0
10
16.481330192484702
20
-7.0436499025692001
30
0
10
16.502194479276099
20
-7.1062451978000496
30
0
0
SPLINE
5
199
100
AcDbEntity
8
0
100
AcDbSpline
70
4
71
3
72
8
73
4
74
0
42
0.000000001
43
0.0000000001
44
0.0000000001
40
-1
40
-1
40
-1
40
-1
40
0
40
0
40
0
40
0
41
1
41
1
41
1
41
1
10
16.502194479276099
20
-7.1062451978000496
30
0
10
16.512958980607028
20
-7.1385460063628514
30
0
10
16.197696174041148
20
-7.3631177066013764
30
0
10
15.801605865511553
20
-7.6052958554089978
30
0
0
SPLINE
5
200
100
AcDbEntity
8
0
100
AcDbSpline
70
4
71
3
72
8
73
4
74
0
42
0.000000001
43
0.0000000001
44
0.0000000001
40
-1
40
-1
40
-1
40
-1
40
-0.82750042538768176
40
-0.82750042538768176
40
-0.82750042538768176
40
-0.82750042538768176
41
1
41
1
41
1
41
1
10
15.801605865511553
20
-7.6052958554089978
30
0
10
15.733280455782134
20
-7.6470719030704508
30
0
10
15.645615329788786
20
-7.7010643463612265
30
0
10
15.542786527577936
20
-7.7646673204949916
30
0
0
ARC
5
201
100
AcDbEntity
8
0
100
AcDbCircle
10
16.225839551608985
20
-7.0342985325788865
30
0
40
1.0000000000000013
210
0
220
0
230
1
100
AcDbArc
50
226.91731975918958
51
251.94049424414831
0
SPLINE
5
202
100
AcDbEntity
8
0
100
AcDbSpline
70
4
71
3
72
8
73
4
74
0
42
0.000000001
43
0.0000000001
44
0.0000000001
40
-0.94346044225495584
40
-0.94346044225495584
40
-0.94346044225495584
40
-0.94346044225495584
40
0
40
0
40
0
40
0
41
1
41
1
41
1
41
1
10
15.915834984006271
20
-7.9850335998113149
30
0
10
17.045726493586976
20
-7.3264140546289198
30
0
10
17.08015429836637
20
-7.2996415731037709
30
0
10
17.076706214751646
20
-7.2216014021781483
30
0
0
SPLINE
5
203
100
AcDbEntity
8
0
100
AcDbSpline
70
4
71
3
72
8
73
4
74
0
42
0.000000001
43
0.0000000001
44
0.0000000001
40
-1
40
-1
40
-1
40
-1
40
0
40
0
40
0
40
0
41
1
41
1
41
1
41
1
10
17.076706214751646
20
-7.2216014021781483
30
0
10
17.068335177525736
20
-7.031940676850934
30
0
10
15.277707495601732
20
-5.8180234059740288
30
0
10
14.328907158205306
20
-5.358789959463186
30
0
0
SPLINE
5
204
100
AcDbEntity
8
0
100
AcDbSpline
70
4
71
3
72
8
73
4
74
0
42
0.000000001
43
0.0000000001
44
0.0000000001
40
-1
40
-1
40
-1
40
-1
40
0
40
0
40
0
40
0
41
1
41
1
41
1
41
1
10
14.328907158205306
20
-5.358789959463186
30
0
10
13.641737039540233
20
-5.0261909734184052
30
0
10
13.63430585698832
20
-5.0205591499444324
30
0
10
13.758619899049405
20
-4.9267879499315725
30
0
0
SPLINE
5
205
100
AcDbEntity
8
0
100
AcDbSpline
70
4
71
3
72
8
73
4
74
0
42
0.000000001
43
0.0000000001
44
0.0000000001
40
-1
40
-1
40
-1
40
-1
40
0
40
0
40
0
40
0
41
1
41
1
41
1
41
1
10
13.758619899049405
20
-4.9267879499315725
30
0
10
14.031124187661767
20
-4.7212373499864713
30
0
10
15.605300416336314
20
-3.738575460902811
30
0
10
17.023553293680791
20
-2.8886911756595435
30
0
0
SPLINE
5
206
100
AcDbEntity
8
0
100
AcDbSpline
70
4
71
3
72
8
73
4
74
0
42
0.000000001
43
0.0000000001
44
0.0000000001
40
-1
40
-1
40
-1
40
-1
40
0
40
0
40
0
40
0
41
1
41
1
41
1
41
1
10
17.023553293680791
20
-2.8886911756595435
30
0
10
17.844022075513294
20
-2.3970278731824779
30
0
10
18.539801847357779
20
-1.9589849842565998
30
0
10
18.569726235812237
20
-1.9152671327757353
30
0
0
SPLINE
5
207
100
AcDbEntity
8
0
100
AcDbSpline
70
4
71
3
72
8
73
4
74
0
42
0.000000001
43
0.0000000001
44
0.0000000001
40
-1
40
-1
40
-1
40
-1
40
0
40
0
40
0
40
0
41
1
41
1
41
1
41
1
10
18.569726235812237
20
-1.9152671327757353
30
0
10
18.648459761041146
20
-1.800244503761208
30
0
10
18.444435816227124
20
-1.603135551885404
30
0
10
17.811655525820445
20
-1.1828841606354157
30
0
0
SPLINE
5
208
100
AcDbEntity
8
0
100
AcDbSpline
70
4
71
3
72
8
73
4
74
0
42
0.000000001
43
0.0000000001
44
0.0000000001
40
-1
40
-1
40
-1
40
-1
40
0
40
0
40
0
40
0
41
1
41
1
41
1
41
1
10
17.811655525820445
20
-1.1828841606354157
30
0
10
16.960315196289486
20
-0.61748122395629768
30
0
10
15.706760893707933
20
-0.014586364297377585
30
0
10
14.190339465207488
20
0.55878098854402758
30
0
0
LINE
5
209
100
AcDbEntity
8
0
100
AcDbLine
10
14.190339465207488
20
0.55878098854402747
30
0
11
13.411818394057935
21
0.85314298546848577
31
0
0
LINE
5
210
100
AcDbEntity
8
0
100
AcDbLine
10
13.411818394057935
20
0.85314298546848577
30
0
11
13.796287131709331
21
1.2071078387783496
31
0
0
SPLINE
5
211
100
AcDbEntity
8
0
100
AcDbSpline
70
4
71
3
72
8
73
4
74
0
42
0.000000001
43
0.0000000001
44
0.0000000001
40
-1
40
-1
40
-1
40
-1
40
0
40
0
40
0
40
0
41
1
41
1
41
1
41
1
10
13.796287131709331
20
1.2071078387783496
30
0
10
14.372551963986114
20
1.7376484976795226
30
0
10
15.936871892867035
20
2.981260063055724
30
0
10
17.361311741005881
20
4.0412420430722999
30
0
0
SPLINE
5
212
100
AcDbEntity
8
0
100
AcDbSpline
70
4
71
3
72
8
73
4
74
0
42
0.000000001
43
0.0000000001
44
0.0000000001
40
-1
40
-1
40
-1
40
-1
40
-0.84944007891108131
40
-0.84944007891108131
40
-0.84944007891108131
40
-0.84944007891108131
41
1
41
1
41
1
41
1
10
17.361311741005881
20
4.0412420430722999
30
0
10
17.645940967989016
20
4.2530459704929076
30
0
10
17.893944425728151
20
4.4379907686529663
30
0
10
18.109964800361858
20
4.5998260760222074
30
0
0
ARC
5
213
100
AcDbEntity
8
0
100
AcDbCircle
10
10.762225485084711
20
-11.410246605933626
30
0
40
6.0000000149020574
210
0
220
0
230
1
100
AcDbArc
50
113.8603563537977
51
117.47852964685642
0
SPLINE
5
214
100
AcDbEntity
8
0
100
AcDbSpline
70
4
71
3
72
8
73
4
74
0
42
0.000000001
43
0.0000000001
44
0.0000000001
40
-0.068247332961460641
40
-0.068247332961460641
40
-0.068247332961460641
40
-0.068247332961460641
40
0
40
0
40
0
40
0
41
1
41
1
41
1
41
1
10
8.3351720404893648
20
-5.9230422397829932
30
0
10
8.3114642977494135
20
-5.8601918902696752
30
0
10
8.2886075112753623
20
-5.8017123387880742
30
0
10
8.2667860743660508
20
-5.7482355441447641
30
0
0
SPLINE
5
215
100
AcDbEntity
8
0
100
AcDbSpline
70
4
71
3
72
8
73
4
74
0
42
0.000000001
43
0.0000000001
44
0.0000000001
40
-1
40
-1
40
-1
40
-1
40
0
40
0
40
0
40
0
41
1
41
1
41
1
41
1
10
8.2667860743660508
20
-5.7482355441447641
30
0
10
8.22739739804158
20
-5.6517056515266262
30
0
10
8.2417508781017119
20
-5.6445569123482464
30
0
10
8.4081587222458438
20
-5.6778389681484054
30
0
0
SPLINE
5
216
100
AcDbEntity
8
0
100
AcDbSpline
70
4
71
3
72
8
73
4
74
0
42
0.000000001
43
0.0000000001
44
0.0000000001
40
-1
40
-1
40
-1
40
-1
40
-0.87574411659173668
40
-0.87574411659173668
40
-0.87574411659173668
40
-0.87574411659173668
41
1
41
1
41
1
41
1
10
8.4081587222458438
20
-5.6778389681484054
30
0
10
8.4782272982857592
20
-5.6918525623382816
30
0
10
8.5870810538073918
20
-5.7230162092900718
30
0
10
8.7239829371628606
20
-5.7670588990904745
30
0
0
ARC
5
217
100
AcDbEntity
8
0
100
AcDbCircle
10
10.762225485084711
20
-11.410246605933626
30
0
40
6.0000000149020414
210
0
220
0
230
1
100
AcDbArc
50
105.18191981161377
51
109.85902944965082
0
SPLINE
5
218
100
AcDbEntity
8
0
100
AcDbSpline
70
4
71
3
72
8
73
4
74
0
42
0.000000001
43
0.0000000001
44
0.0000000001
40
-0.81751351773694281
40
-0.81751351773694281
40
-0.81751351773694281
40
-0.81751351773694281
40
0
40
0
40
0
40
0
41
1
41
1
41
1
41
1
10
9.1909176044095773
20
-5.6196514963656359
30
0
10
8.8186620604018788
20
-5.4964672776554577
30
0
10
8.5394007454794973
20
-5.4018425054779247
30
0
10
8.529565545444882
20
-5.3951642832321989
30
0
0
SPLINE
5
219
100
AcDbEntity
8
0
100
AcDbSpline
70
4
71
3
72
8
73
4
74
0
42
0.000000001
43
0.0000000001
44
0.0000000001
40
-1
40
-1
40
-1
40
-1
40
0
40
0
40
0
40
0
41
1
41
1
41
1
41
1
10
8.529565545444882
20
-5.3951642832321989
30
0
10
8.5037049327699581
20
-5.3776211409364816
30
0
10
8.9067978890778381
20
-4.9119888911011245
30
0
10
10.290015613820918
20
-3.3615792983666903
30
0
0
SPLINE
5
220
100
AcDbEntity
8
0
100
AcDbSpline
70
4
71
3
72
8
73
4
74
0
42
0.000000001
43
0.0000000001
44
0.0000000001
40
-1
40
-1
40
-1
40
-1
40
0
40
0
40
0
40
0
41
1
41
1
41
1
41
1
10
10.290015613820918
20
-3.3615792983666903
30
0
10
10.850901891380181
20
-2.732894436876232
30
0
10
11.309809067097454
20
-2.1757797522962985
30
0
10
11.309809067097454
20
-2.1235423373327578
30
0
0
SPLINE
5
221
100
AcDbEntity
8
0
100
AcDbSpline
70
4
71
3
72
8
73
4
74
0
42
0.000000001
43
0.0000000001
44
0.0000000001
40
-1
40
-1
40
-1
40
-1
40
0
40
0
40
0
40
0
41
1
41
1
41
1
41
1
10
11.309809067097454
20
-2.1235423373327578
30
0
10
11.309809067097454
20
-2.0120161624940325
30
0
10
10.464955195731072
20
-1.7163539521086557
30
0
10
8.1433291018522365
20
-1.0154147189838625
30
0
0
SPLINE
5
222
100
AcDbEntity
8
0
100
AcDbSpline
70
4
71
3
72
8
73
4
74
0
42
0.000000001
43
0.0000000001
44
0.0000000001
40
-1
40
-1
40
-1
40
-1
40
0
40
0
40
0
40
0
41
1
41
1
41
1
41
1
10
8.1433291018522365
20
-1.0154147189838625
30
0
10
6.424220464848716
20
-0.49638606241081629
30
0
10
6.6026004992313041
20
-0.69241150306918797
30
0
10
6.7749907862096599
20
0.48828214856759811
30
0
0
SPLINE
5
223
100
AcDbEntity
8
0
100
AcDbSpline
70
4
71
3
72
8
73
4
74
0
42
0.000000001
43
0.0000000001
44
0.0000000001
40
-1
40
-1
40
-1
40
-1
40
0
40
0
40
0
40
0
41
1
41
1
41
1
41
1
10
6.7749907862096599
20
0.48828214856759811
30
0
10
7.0860778135892559
20
2.6188754753865839
30
0
10
7.1928146253612653
20
4.065834095422991
30
0
10
7.1001683291292021
20
4.896297963879217
30
0
0
LINE
5
224
100
AcDbEntity
8
0
100
AcDbLine
10
7.1001683291292004
20
4.8962979638792161
30
0
11
7.0562069919815027
21
5.2903478625207097
31
0
0
LINE
5
225
100
AcDbEntity
8
0
100
AcDbLine
10
7.0562069919815027
20
5.2903478625207097
30
0
11
7.789627213062559
21
6.0901361892402806
31
0
0
SPLINE
5
226
100
AcDbEntity
8
0
100
AcDbSpline
70
4
71
3
72
8
73
4
74
0
42
0.000000001
43
0.0000000001
44
0.0000000001
40
-1
40
-1
40
-1
40
-1
40
0
40
0
40
0
40
0
41
1
41
1
41
1
41
1
10
7.7896272130625572
20
6.0901361892402806
30
0
10
8.1930099173139741
20
6.5300186123791271
30
0
10
9.3217680762140969
20
7.7130387695625551
30
0
10
10.297984899696544
20
8.7190704129493781
30
0
0
LINE
5
227
100
AcDbEntity
8
0
100
AcDbLine
10
10.297984899696544
20
8.7190704129493781
30
0
11
12.072922365249472
21
10.548218744795577
31
0
0
LINE
5
228
100
AcDbEntity
8
0
100
AcDbLine
10
12.072922365249472
20
10.548218744795577
30
0
11
12.760932509465139
21
10.133540740459521
31
0
0
SPLINE
5
229
100
AcDbEntity
8
0
100
AcDbSpline
70
4
71
3
72
8
73
4
74
0
42
0.000000001
43
0.0000000001
44
0.0000000001
40
-1
40
-1
40
-1
40
-1
40
-0.13458829816984957
40
-0.13458829816984957
40
-0.13458829816984957
40
-0.13458829816984957
41
1
41
1
41
1
41
1
10
12.760932509465139
20
10.133540740459521
30
0
10
13.986212742294404
20
9.3950382411377777
30
0
10
15.71559476649959
20
8.2068032503937083
30
0
10
17.322150646408204
20
7.0051639511962227
30
0
0
ARC
5
230
100
AcDbEntity
8
0
100
AcDbCircle
10
4.9960036108132044e-15
20
-1.7763568394002505e-14
30
0
40
18.684999999999981
210
0
220
-0
230
1
100
AcDbArc
50
22.018653156825625
51
25.093485002266181
0
SPLINE
5
231
100
AcDbEntity
8
0
100
AcDbSpline
70
4
71
3
72
8
73
4
74
0
42
0.000000001
43
0.0000000001
44
0.0000000001
40
-0.96143931237197067
40
-0.96143931237197067
40
-0.96143931237197067
40
-0.96143931237197067
40
0
40
0
40
0
40
0
41
1
41
1
41
1
41
1
10
16.921454169919336
20
7.9242421577914222
30
0
10
15.201015051918001
20
9.1083456116518153
30
0
10
12.260009845353411
20
10.947795768074304
30
0
10
12.077711728316187
20
10.947795768074304
30
0
0
SPLINE
5
232
100
AcDbEntity
8
0
100
AcDbSpline
70
4
71
3
72
8
73
4
74
0
42
0.000000001
43
0.0000000001
44
0.0000000001
40
-1
40
-1
40
-1
40
-1
40
0
40
0
40
0
40
0
41
1
41
1
41
1
41
1
10
12.077711728316187
20
10.947795768074304
30
0
10
12.019331169978306
20
10.947795768074304
30
0
10
11.417868006040404
20
10.371218056715632
30
0
10
10.657988197544002
20
9.5868107195702521
30
0
0
SPLINE
5
233
100
AcDbEntity
8
0
100
AcDbSpline
70
4
71
3
72
8
73
4
74
0
42
0.000000001
43
0.0000000001
44
0.0000000001
40
-1
40
-1
40
-1
40
-1
40
0
40
0
40
0
40
0
41
1
41
1
41
1
41
1
10
10.657988197544002
20
9.5868107195702521
30
0
10
9.3597104476775446
20
8.2466278690125492
30
0
10
7.0080163088008192
20
5.9706261193859174
30
0
10
6.9654866673741296
20
6.0131569782409411
30
0
0
SPLINE
5
234
100
AcDbEntity
8
0
100
AcDbSpline
70
4
71
3
72
8
73
4
74
0
42
0.000000001
43
0.0000000001
44
0.0000000001
40
-1
40
-1
40
-1
40
-1
40
0
40
0
40
0
40
0
41
1
41
1
41
1
41
1
10
6.9654866673741296
20
6.0131569782409411
30
0
10
6.9535096074223439
20
6.0251340381927303
30
0
10
6.880286162833988
20
6.2980425130120405
30
0
10
6.8027700659392671
20
6.619622555204046
30
0
0
SPLINE
5
235
100
AcDbEntity
8
0
100
AcDbSpline
70
4
71
3
72
8
73
4
74
0
42
0.000000001
43
0.0000000001
44
0.0000000001
40
-1
40
-1
40
-1
40
-1
40
0
40
0
40
0
40
0
41
1
41
1
41
1
41
1
10
6.8027700659392671
20
6.619622555204046
30
0
10
6.6465204438156373
20
7.2678142708932718
30
0
10
6.5115952963937289
20
7.658762162139241
30
0
10
6.3000768627544161
20
8.0761732930855583
30
0
0
SPLINE
5
236
100
AcDbEntity
8
0
100
AcDbSpline
70
4
71
3
72
8
73
4
74
0
42
0.000000001
43
0.0000000001
44
0.0000000001
40
-1
40
-1
40
-1
40
-1
40
0
40
0
40
0
40
0
41
1
41
1
41
1
41
1
10
6.3000768627544161
20
8.0761732930855583
30
0
10
6.2224852853029784
20
8.2292941243903144
30
0
10
6.1590012673881649
20
8.382116685753191
30
0
10
6.1590012673881649
20
8.4157785791936206
30
0
0
SPLINE
5
237
100
AcDbEntity
8
0
100
AcDbSpline
70
4
71
3
72
8
73
4
74
0
42
0.000000001
43
0.0000000001
44
0.0000000001
40
-1
40
-1
40
-1
40
-1
40
0
40
0
40
0
40
0
41
1
41
1
41
1
41
1
10
6.1590012673881649
20
8.4157785791936206
30
0
10
6.1590012673881649
20
8.4494416900623825
30
0
10
6.4926180235203308
20
8.8365948571906738
30
0
10
6.900371295491496
20
9.2761193563992688
30
0
0
SPLINE
5
238
100
AcDbEntity
8
0
100
AcDbSpline
70
4
71
3
72
8
73
4
74
0
42
0.000000001
43
0.0000000001
44
0.0000000001
40
-1
40
-1
40
-1
40
-1
40
0
40
0
40
0
40
0
41
1
41
1
41
1
41
1
10
6.900371295491496
20
9.2761193563992688
30
0
10
7.9128187861995176
20
10.367452550877974
30
0
10
8.8943606412157212
20
11.552575206794554
30
0
10
9.8803582839350739
20
12.87418497068581
30
0
0
SPLINE
5
239
100
AcDbEntity
8
0
100
AcDbSpline
70
4
71
3
72
8
73
4
74
0
42
0.000000001
43
0.0000000001
44
0.0000000001
40
-1
40
-1
40
-1
40
-1
40
-0.42094276860814545
40
-0.42094276860814545
40
-0.42094276860814545
40
-0.42094276860814545
41
1
41
1
41
1
41
1
10
9.8803582839350739
20
12.87418497068581
30
0
10
10.471022279481129
20
13.665898112658002
30
0
10
10.903601054887721
20
14.286902468668124
30
0
10
11.279739233121289
20
14.89619776428815
30
0
0
ARC
5
240
100
AcDbEntity
8
0
100
AcDbCircle
10
4.9960036108132044e-15
20
-1.7763568394002505e-14
30
0
40
18.684999999999985
210
0
220
-0
230
1
100
AcDbArc
50
52.866167567813015
51
57.027791791182139
0
SPLINE
5
241
100
AcDbEntity
8
0
100
AcDbSpline
70
4
71
3
72
8
73
4
74
0
42
0.000000001
43
0.0000000001
44
0.0000000001
40
-0.38547511030997844
40
-0.38547511030997844
40
-0.38547511030997844
40
-0.38547511030997844
40
0
40
0
40
0
40
0
41
1
41
1
41
1
41
1
10
10.168978038000729
20
15.675493952748592
30
0
10
10.168185738445224
20
15.148542140152813
30
0
10
10.139996175803013
20
14.669663261064795
30
0
10
10.080143143289433
20
14.391884698937156
30
0
0
SPLINE
5
242
100
AcDbEntity
8
0
100
AcDbSpline
70
4
71
3
72
8
73
4
74
0
42
0.000000001
43
0.0000000001
44
0.0000000001
40
-1
40
-1
40
-1
40
-1
40
0
40
0
40
0
40
0
41
1
41
1
41
1
41
1
10
10.080143143289433
20
14.391884698937156
30
0
10
10.01423644298958
20
14.08601800425458
30
0
10
9.9033482005979696
20
13.832257242275448
30
0
10
9.6496604843188898
20
13.406756908762587
30
0
0
SPLINE
5
243
100
AcDbEntity
8
0
100
AcDbSpline
70
4
71
3
72
8
73
4
74
0
42
0.000000001
43
0.0000000001
44
0.0000000001
40
-1
40
-1
40
-1
40
-1
40
0
40
0
40
0
40
0
41
1
41
1
41
1
41
1
10
9.6496604843188898
20
13.406756908762587
30
0
10
8.8938712350253795
20
12.139104177356916
30
0
10
7.5889609355942405
20
10.475561404382621
30
0
10
6.443019993185322
20
9.3188267423627487
30
0
0
SPLINE
5
244
100
AcDbEntity
8
0
100
AcDbSpline
70
4
71
3
72
8
73
4
74
0
42
0.000000001
43
0.0000000001
44
0.0000000001
40
-1
40
-1
40
-1
40
-1
40
0
40
0
40
0
40
0
41
1
41
1
41
1
41
1
10
6.443019993185322
20
9.3188267423627487
30
0
10
6.0883709451516417
20
8.960838288408377
30
0
10
5.6896680354168634
20
8.5159473651026634
30
0
10
5.5570121744098859
20
8.3301799755881945
30
0
0
SPLINE
5
245
100
AcDbEntity
8
0
100
AcDbSpline
70
4
71
3
72
8
73
4
74
0
42
0.000000001
43
0.0000000001
44
0.0000000001
40
-1
40
-1
40
-1
40
-1
40
0
40
0
40
0
40
0
41
1
41
1
41
1
41
1
10
5.5570121744098859
20
8.3301799755881945
30
0
10
5.2234246365577413
20
7.8630393320467746
30
0
10
5.2376685480677949
20
7.7507924396342069
30
0
10
5.6063350659413729
20
7.9414380644837834
30
0
0
SPLINE
5
246
100
AcDbEntity
8
0
100
AcDbSpline
70
4
71
3
72
8
73
4
74
0
42
0.000000001
43
0.0000000001
44
0.0000000001
40
-1
40
-1
40
-1
40
-1
40
0
40
0
40
0
40
0
41
1
41
1
41
1
41
1
10
5.6063350659413729
20
7.9414380644837834
30
0
10
5.8025017282865115
20
8.042880280430392
30
0
10
5.7940162527971868
20
8.0494434365800238
30
0
10
6.0135477997321569
20
7.6265173552798142
30
0
0
SPLINE
5
247
100
AcDbEntity
8
0
100
AcDbSpline
70
4
71
3
72
8
73
4
74
0
42
0.000000001
43
0.0000000001
44
0.0000000001
40
-1
40
-1
40
-1
40
-1
40
0
40
0
40
0
40
0
41
1
41
1
41
1
41
1
10
6.0135477997321569
20
7.6265173552798142
30
0
10
6.7403549501018762
20
6.2263311144147533
30
0
10
6.9124798377033798
20
3.8963327658816738
30
0
10
6.485542330042005
20
1.2372586689029674
30
0
0
SPLINE
5
248
100
AcDbEntity
8
0
100
AcDbSpline
70
4
71
3
72
8
73
4
74
0
42
0.000000001
43
0.0000000001
44
0.0000000001
40
-1
40
-1
40
-1
40
-1
40
0
40
0
40
0
40
0
41
1
41
1
41
1
41
1
10
6.485542330042005
20
1.2372586689029674
30
0
10
6.3980043631002097
20
0.69205286828810664
30
0
10
6.3665192315213197
20
0.22554163519545867
30
0
10
6.362034225538153
20
-0.5922658482984966
30
0
0
SPLINE
5
249
100
AcDbEntity
8
0
100
AcDbSpline
70
4
71
3
72
8
73
4
74
0
42
0.000000001
43
0.0000000001
44
0.0000000001
40
-1
40
-1
40
-1
40
-1
40
0
40
0
40
0
40
0
41
1
41
1
41
1
41
1
10
6.362034225538153
20
-0.5922658482984966
30
0
10
6.3552239314366794
20
-1.8363096007333324
30
0
10
6.3154359386185916
20
-1.6625825774440317
30
0
10
7.0127228867408071
20
-3.4335098340641323
30
0
0
SPLINE
5
250
100
AcDbEntity
8
0
100
AcDbSpline
70
4
71
3
72
8
73
4
74
0
42
0.000000001
43
0.0000000001
44
0.0000000001
40
-1
40
-1
40
-1
40
-1
40
0
40
0
40
0
40
0
41
1
41
1
41
1
41
1
10
7.0127228867408071
20
-3.4335098340641323
30
0
10
7.1952470471729839
20
-3.8970724557313607
30
0
10
7.3374743297433813
20
-4.3050375602326785
30
0
10
7.3287940657205901
20
-4.3400946265440909
30
0
0
SPLINE
5
251
100
AcDbEntity
8
0
100
AcDbSpline
70
4
71
3
72
8
73
4
74
0
42
0.000000001
43
0.0000000001
44
0.0000000001
40
-1
40
-1
40
-1
40
-1
40
0
40
0
40
0
40
0
41
1
41
1
41
1
41
1
10
7.3287940657205901
20
-4.3400946265440909
30
0
10
7.3201113668411271
20
-4.3751541277121708
30
0
10
7.1533967307567732
20
-4.5361687643358328
30
0
10
6.95832088419907
20
-4.6979065533900055
30
0
0
SPLINE
5
252
100
AcDbEntity
8
0
100
AcDbSpline
70
4
71
3
72
8
73
4
74
0
42
0.000000001
43
0.0000000001
44
0.0000000001
40
-1
40
-1
40
-1
40
-1
40
0
40
0
40
0
40
0
41
1
41
1
41
1
41
1
10
6.95832088419907
20
-4.6979065533900055
30
0
10
6.7632426027846986
20
-4.8596443424441738
30
0
10
6.5289241713026254
20
-5.0951095914170574
30
0
10
6.437609741668167
20
-5.2211645559960385
30
0
0
SPLINE
5
253
100
AcDbEntity
8
0
100
AcDbSpline
70
4
71
3
72
8
73
4
74
0
42
0.000000001
43
0.0000000001
44
0.0000000001
40
-1
40
-1
40
-1
40
-1
40
0
40
0
40
0
40
0
41
1
41
1
41
1
41
1
10
6.437609741668167
20
-5.2211645559960385
30
0
10
6.2393856254382403
20
-5.4948034878158669
30
0
10
6.2136345813133982
20
-5.7925377612260398
30
0
10
6.3804709602311664
20
-5.8818263901124013
30
0
0
SPLINE
5
254
100
AcDbEntity
8
0
100
AcDbSpline
70
4
71
3
72
8
73
4
74
0
42
0.000000001
43
0.0000000001
44
0.0000000001
40
-1
40
-1
40
-1
40
-1
40
0
40
0
40
0
40
0
41
1
41
1
41
1
41
1
10
6.3804709602311664
20
-5.8818263901124013
30
0
10
6.5084835495715314
20
-5.9503432567607639
30
0
10
7.3223782183993951
20
-5.9551837518175166
30
0
10
7.6619189808057424
20
-5.8894547960544497
30
0
0
SPLINE
5
255
100
AcDbEntity
8
0
100
AcDbSpline
70
4
71
3
72
8
73
4
74
0
42
0.000000001
43
0.0000000001
44
0.0000000001
40
-1
40
-1
40
-1
40
-1
40
0
40
0
40
0
40
0
41
1
41
1
41
1
41
1
10
7.6619189808057424
20
-5.8894547960544497
30
0
10
7.8547158015218361
20
-5.8521308781847692
30
0
10
7.9050759419940526
20
-5.8603606937239139
30
0
10
7.9353241663854064
20
-5.9341246764926492
30
0
0
SPLINE
5
256
100
AcDbEntity
8
0
100
AcDbSpline
70
4
71
3
72
8
73
4
74
0
42
0.000000001
43
0.0000000001
44
0.0000000001
40
-1
40
-1
40
-1
40
-1
40
-0.85421111870022359
40
-0.85421111870022359
40
-0.85421111870022359
40
-0.85421111870022359
41
1
41
1
41
1
41
1
10
7.9353241663854064
20
-5.9341246764926492
30
0
10
7.951332120329683
20
-5.9731619904708291
30
0
10
7.9710768367638689
20
-6.025011660395041
30
0
10
7.9937283219264286
20
-6.0871437855468882
30
0
0
SPLINE
5
257
100
AcDbEntity
8
0
100
AcDbSpline
70
4
71
3
72
8
73
4
74
0
42
0.000000001
43
0.0000000001
44
0.0000000001
40
-1
40
-1
40
-1
40
-1
40
0
40
0
40
0
40
0
41
1
41
1
41
1
41
1
10
7.4350560804422656
20
-5.6528695130141138
30
0
10
6.9983182746906376
20
-5.7289198261944652
30
0
10
6.7805593034102589
20
-5.7292753152680476
30
0
10
6.6515581622625302
20
-5.6541380733383395
30
0
0
SPLINE
5
258
100
AcDbEntity
8
0
100
AcDbSpline
70
4
71
3
72
8
73
4
74
0
42
0.000000001
43
0.0000000001
44
0.0000000001
40
-1
40
-1
40
-1
40
-1
40
0
40
0
40
0
40
0
41
1
41
1
41
1
41
1
10
6.6515581622625302
20
-5.6541380733383395
30
0
10
6.5623011865128529
20
-5.6021490137549756
30
0
10
6.5608037496617992
20
-5.5817716982972598
30
0
10
6.6356171556546091
20
-5.4370973847751314
30
0
0
SPLINE
5
259
100
AcDbEntity
8
0
100
AcDbSpline
70
4
71
3
72
8
73
4
74
0
42
0.000000001
43
0.0000000001
44
0.0000000001
40
-1
40
-1
40
-1
40
-1
40
0
40
0
40
0
40
0
41
1
41
1
41
1
41
1
10
6.6356171556546091
20
-5.4370973847751314
30
0
10
6.7116577294082873
20
-5.290056390571336
30
0
10
7.3744987602428509
20
-4.6452016459461332
30
0
10
7.4492585993889566
20
-4.6455206121696913
30
0
0
SPLINE
5
260
100
AcDbEntity
8
0
100
AcDbSpline
70
4
71
3
72
8
73
4
74
0
42
0.000000001
43
0.0000000001
44
0.0000000001
40
-1
40
-1
40
-1
40
-1
40
0
40
0
40
0
40
0
41
1
41
1
41
1
41
1
10
7.4492585993889566
20
-4.6455206121696913
30
0
10
7.4790758541500075
20
-4.6456545292864515
30
0
10
7.7914971829838802
20
-5.4773480003602115
30
0
10
7.7914971829838802
20
-5.5565904106328157
30
0
0
SPLINE
5
261
100
AcDbEntity
8
0
100
AcDbSpline
70
4
71
3
72
8
73
4
74
0
42
0.000000001
43
0.0000000001
44
0.0000000001
40
-1
40
-1
40
-1
40
-1
40
0
40
0
40
0
40
0
41
1
41
1
41
1
41
1
10
7.7914971829838802
20
-5.5565904106328157
30
0
10
7.7914971829838802
20
-5.5754045481094305
30
0
10
7.631098565097318
20
-5.6187303876666794
30
0
10
7.4350560804422656
20
-5.6528695130141138
30
0
0
LINE
5
262
100
AcDbEntity
8
0
100
AcDbLine
10
9.6121271687757286
20
-3.5666672755447948
30
0
11
9.6121490824857432
21
-3.5666672755447952
31
0
0
SPLINE
5
263
100
AcDbEntity
8
0
100
AcDbSpline
70
4
71
3
72
8
73
4
74
0
42
0.000000001
43
0.0000000001
44
0.0000000001
40
-1
40
-1
40
-1
40
-1
40
0
40
0
40
0
40
0
41
1
41
1
41
1
41
1
10
9.6121490824857432
20
-3.5666672755447948
30
0
10
8.9756775493697898
20
-4.2683199216734247
30
0
10
8.3831064819848304
20
-4.9559112705421304
30
0
10
8.2953250293761975
20
-5.0946445337933932
30
0
0
SPLINE
5
264
100
AcDbEntity
8
0
100
AcDbSpline
70
4
71
3
72
8
73
4
74
0
42
0.000000001
43
0.0000000001
44
0.0000000001
40
-1
40
-1
40
-1
40
-1
40
0
40
0
40
0
40
0
41
1
41
1
41
1
41
1
10
8.2953250293761975
20
-5.0946445337933932
30
0
10
8.1838110288208128
20
-5.2708794594511321
30
0
10
8.126173101766792
20
-5.3217703986770548
30
0
10
8.1040353849378306
20
-5.263523757455939
30
0
0
SPLINE
5
265
100
AcDbEntity
8
0
100
AcDbSpline
70
4
71
3
72
8
73
4
74
0
42
0.000000001
43
0.0000000001
44
0.0000000001
40
-1
40
-1
40
-1
40
-1
40
0
40
0
40
0
40
0
41
1
41
1
41
1
41
1
10
8.1040353849378306
20
-5.263523757455939
30
0
10
8.0866115506188656
20
-5.2176729715335757
30
0
10
7.8796852566561277
20
-4.6861875882450654
30
0
10
7.6442029636865687
20
-4.0824453984655484
30
0
0
SPLINE
5
266
100
AcDbEntity
8
0
100
AcDbSpline
70
4
71
3
72
8
73
4
74
0
42
0.000000001
43
0.0000000001
44
0.0000000001
40
-1
40
-1
40
-1
40
-1
40
0
40
0
40
0
40
0
41
1
41
1
41
1
41
1
10
7.6442029636865687
20
-4.0824453984655484
30
0
10
7.0057299783892031
20
-2.4454985648800287
30
0
10
6.7687648577085984
20
-1.7294607855545774
30
0
10
6.7359989915221359
20
-1.3381598400916905
30
0
0
SPLINE
5
267
100
AcDbEntity
8
0
100
AcDbSpline
70
4
71
3
72
8
73
4
74
0
42
0.000000001
43
0.0000000001
44
0.0000000001
40
-1
40
-1
40
-1
40
-1
40
0
40
0
40
0
40
0
41
1
41
1
41
1
41
1
10
6.7359989915221359
20
-1.3381598400916905
30
0
10
6.7197731066840145
20
-1.1446520412284267
30
0
10
6.7202138157409923
20
-0.98632792122333335
30
0
10
6.7369558901928102
20
-0.98632792122333335
30
0
0
SPLINE
5
268
100
AcDbEntity
8
0
100
AcDbSpline
70
4
71
3
72
8
73
4
74
0
42
0.000000001
43
0.0000000001
44
0.0000000001
40
-1
40
-1
40
-1
40
-1
40
0
40
0
40
0
40
0
41
1
41
1
41
1
41
1
10
6.7369558901928102
20
-0.98632792122333335
30
0
10
6.8672548099447877
20
-0.98632792122333335
30
0
10
10.122621652726085
20
-2.0336644731326459
30
0
10
10.673675979058411
20
-2.2528746189873861
30
0
0
SPLINE
5
269
100
AcDbEntity
8
0
100
AcDbSpline
70
4
71
3
72
8
73
4
74
0
42
0.000000001
43
0.0000000001
44
0.0000000001
40
-1
40
-1
40
-1
40
-1
40
0
40
0
40
0
40
0
41
1
41
1
41
1
41
1
10
10.673675979058411
20
-2.2528746189873861
30
0
10
10.749891862492211
20
-2.2831934542221211
30
0
10
10.534010165703151
20
-2.5503727113007235
30
0
10
9.6121271687757286
20
-3.5666672755447948
30
0
0
ARC
5
270
100
AcDbEntity
8
0
100
AcDbCircle
10
8.7430063189231078e-13
20
-13.684999985097651
30
0
40
8.0000000148996868
210
0
220
-0
230
1
100
AcDbArc
50
52.57818579550559
51
54.723410157747622
0
SPLINE
5
271
100
AcDbEntity
8
0
100
AcDbSpline
70
4
71
3
72
8
73
4
74
0
42
0.000000001
43
0.0000000001
44
0.0000000001
40
-0.16002917034501526
40
-0.16002917034501526
40
-0.16002917034501526
40
-0.16002917034501526
40
0
40
0
40
0
40
0
41
1
41
1
41
1
41
1
10
4.8614260324852419
20
-7.3315334376860459
30
0
10
4.9044088859656378
20
-7.1077467611803424
30
0
10
4.9362763469993718
20
-6.8883143670832165
30
0
10
4.9560116332389743
20
-6.675967066789652
30
0
0
SPLINE
5
272
100
AcDbEntity
8
0
100
AcDbSpline
70
4
71
3
72
8
73
4
74
0
42
0.000000001
43
0.0000000001
44
0.0000000001
40
-1
40
-1
40
-1
40
-1
40
0
40
0
40
0
40
0
41
1
41
1
41
1
41
1
10
4.9560116332389743
20
-6.675967066789652
30
0
10
4.9863572518970596
20
-6.3494625269858362
30
0
10
4.9783977054481081
20
-6.2778655666519656
30
0
10
4.9117508087210631
20
-6.2778655666519656
30
0
0
SPLINE
5
273
100
AcDbEntity
8
0
100
AcDbSpline
70
4
71
3
72
8
73
4
74
0
42
0.000000001
43
0.0000000001
44
0.0000000001
40
-1
40
-1
40
-1
40
-1
40
0
40
0
40
0
40
0
41
1
41
1
41
1
41
1
10
4.9117508087210631
20
-6.2778655666519656
30
0
10
4.8572708907659408
20
-6.2778655666519656
30
0
10
4.8067987468869795
20
-6.3938110063438103
30
0
10
4.7585934545662827
20
-6.6296974855203228
30
0
0
SPLINE
5
274
100
AcDbEntity
8
0
100
AcDbSpline
70
4
71
3
72
8
73
4
74
0
42
0.000000001
43
0.0000000001
44
0.0000000001
40
-1
40
-1
40
-1
40
-1
40
-0.7606065700344018
40
-0.7606065700344018
40
-0.7606065700344018
40
-0.7606065700344018
41
1
41
1
41
1
41
1
10
4.7585934545662827
20
-6.6296974855203228
30
0
10
4.7313469056727362
20
-6.7630274443152416
30
0
10
4.6826179374017309
20
-6.9452918907386705
30
0
10
4.6201929296245199
20
-7.1540109687655375
30
0
0
ARC
5
275
100
AcDbEntity
8
0
100
AcDbCircle
10
-4.7156722970953524e-13
20
-13.684999985104005
30
0
40
8.0000000149063553
210
0
220
-0
230
1
100
AcDbArc
50
83.875091287239741
51
85.715614480134917
0
SPLINE
5
276
100
AcDbEntity
8
0
100
AcDbSpline
70
4
71
3
72
8
73
4
74
0
42
0.000000001
43
0.0000000001
44
0.0000000001
40
-0.76003200062663456
40
-0.76003200062663456
40
-0.76003200062663456
40
-0.76003200062663456
40
0
40
0
40
0
40
0
41
1
41
1
41
1
41
1
10
0.85357071210260049
20
-5.7306667460486107
30
0
10
0.94520918908053697
20
-5.3704127721964321
30
0
10
0.92453559987979061
20
-5.3771779970228328
30
0
10
0.84220563631003609
20
-5.3771779970228328
30
0
0
SPLINE
5
277
100
AcDbEntity
8
0
100
AcDbSpline
70
4
71
3
72
8
73
4
74
0
42
0.000000001
43
0.0000000001
44
0.0000000001
40
-1
40
-1
40
-1
40
-1
40
-0.55477111175320648
40
-0.55477111175320648
40
-0.55477111175320648
40
-0.55477111175320648
41
1
41
1
41
1
41
1
10
0.84220563631003609
20
-5.3771779970228328
30
0
10
0.78748239907582041
20
-5.3771779970228328
30
0
10
0.69751711832850904
20
-5.5054131538815803
30
0
10
0.59765573771278313
20
-5.7073557302076967
30
0
0
ARC
5
278
100
AcDbEntity
8
0
100
AcDbCircle
10
-3.6415315207705135e-13
20
-13.684999985098166
30
0
40
8.0000000149003974
210
0
220
0
230
1
100
AcDbArc
50
114.97294040049171
51
117.35241814379779
0
SPLINE
5
279
100
AcDbEntity
8
0
100
AcDbSpline
70
4
71
3
72
8
73
4
74
0
42
0.000000001
43
0.0000000001
44
0.0000000001
40
-0.5728201430474118
40
-0.5728201430474118
40
-0.5728201430474118
40
-0.5728201430474118
40
0
40
0
40
0
40
0
41
1
41
1
41
1
41
1
10
-3.3775214814390511
20
-6.4329417337582999
30
0
10
-3.4534093879982217
20
-5.874849449889366
30
0
10
-3.5635744419536728
20
-5.4897608996556402
30
0
10
-3.6731155298056639
20
-5.4897608996556402
30
0
0
SPLINE
5
280
100
AcDbEntity
8
0
100
AcDbSpline
70
4
71
3
72
8
73
4
74
0
42
0.000000001
43
0.0000000001
44
0.0000000001
40
-1
40
-1
40
-1
40
-1
40
0
40
0
40
0
40
0
41
1
41
1
41
1
41
1
10
-3.6731155298056639
20
-5.4897608996556402
30
0
10
-3.7369331230840475
20
-5.4897608996556402
30
0
10
-3.7434743655236646
20
-5.5611728108827174
30
0
10
-3.7079157187385636
20
-5.8697397616105329
30
0
0
SPLINE
5
281
100
AcDbEntity
8
0
100
AcDbSpline
70
4
71
3
72
8
73
4
74
0
42
0.000000001
43
0.0000000001
44
0.0000000001
40
-1
40
-1
40
-1
40
-1
40
-0.72287690180523423
40
-0.72287690180523423
40
-0.72287690180523423
40
-0.72287690180523423
41
1
41
1
41
1
41
1
10
-3.7079157187385636
20
-5.8697397616105329
30
0
10
-3.6909597997504395
20
-6.0168808905875792
30
0
10
-3.6804661686712614
20
-6.2744885386802522
30
0
10
-3.6756986545545733
20
-6.5794219199922201
30
0
0
ARC
5
282
100
AcDbEntity
8
0
100
AcDbCircle
10
-10.762225485084151
20
-11.410246605932644
30
0
40
6.0000000149009169
210
0
220
-0
230
1
100
AcDbArc
50
53.061802212977199
51
57.535170966529499
0
SPLINE
5
283
100
AcDbEntity
8
0
100
AcDbSpline
70
4
71
3
72
8
73
4
74
0
42
0.000000001
43
0.0000000001
44
0.0000000001
40
-0.80522170909419655
40
-0.80522170909419655
40
-0.80522170909419655
40
-0.80522170909419655
40
0
40
0
40
0
40
0
41
1
41
1
41
1
41
1
10
-7.1565061360598703
20
-6.6145414278714556
30
0
10
-7.1397090807009933
20
-5.9614091867775896
30
0
10
-7.0515192079864271
20
-5.0578516845813954
30
0
10
-6.9319696960502579
20
-4.3797097445387223
30
0
0
SPLINE
5
284
100
AcDbEntity
8
0
100
AcDbSpline
70
4
71
3
72
8
73
4
74
0
42
0.000000001
43
0.0000000001
44
0.0000000001
40
-1
40
-1
40
-1
40
-1
40
0
40
0
40
0
40
0
41
1
41
1
41
1
41
1
10
-6.9319696960502579
20
-4.3797097445387223
30
0
10
-6.7848361772930632
20
-3.5450993151762367
30
0
10
-6.6229529055529559
20
-2.7733227969981078
30
0
10
-6.5874533040420635
20
-2.7372333514592961
30
0
0
SPLINE
5
285
100
AcDbEntity
8
0
100
AcDbSpline
70
4
71
3
72
8
73
4
74
0
42
0.000000001
43
0.0000000001
44
0.0000000001
40
-1
40
-1
40
-1
40
-1
40
0
40
0
40
0
40
0
41
1
41
1
41
1
41
1
10
-6.5874533040420635
20
-2.7372333514592961
30
0
10
-6.5753837195368767
20
-2.7249616738506344
30
0
10
-6.4694315403262515
20
-2.7785017371317622
30
0
10
-6.3520050990658605
20
-2.8562101877032831
30
0
0
SPLINE
5
286
100
AcDbEntity
8
0
100
AcDbSpline
70
4
71
3
72
8
73
4
74
0
42
0.000000001
43
0.0000000001
44
0.0000000001
40
-1
40
-1
40
-1
40
-1
40
0
40
0
40
0
40
0
41
1
41
1
41
1
41
1
10
-6.3520050990658605
20
-2.8562101877032831
30
0
10
-6.0500238269118594
20
-3.0560534836176867
30
0
10
-5.6822362922955705
20
-3.2380346710128149
30
0
10
-5.5803338884386378
20
-3.2380346710128149
30
0
0
SPLINE
5
287
100
AcDbEntity
8
0
100
AcDbSpline
70
4
71
3
72
8
73
4
74
0
42
0.000000001
43
0.0000000001
44
0.0000000001
40
-1
40
-1
40
-1
40
-1
40
0
40
0
40
0
40
0
41
1
41
1
41
1
41
1
10
-5.5803338884386378
20
-3.2380346710128149
30
0
10
-5.3910992630283889
20
-3.2380346710128149
30
0
10
-5.5294380794993758
20
-3.0744317817506595
30
0
10
-6.1515403059868508
20
-2.5625177763626317
30
0
0
SPLINE
5
288
100
AcDbEntity
8
0
100
AcDbSpline
70
4
71
3
72
8
73
4
74
0
42
0.000000001
43
0.0000000001
44
0.0000000001
40
-1
40
-1
40
-1
40
-1
40
0
40
0
40
0
40
0
41
1
41
1
41
1
41
1
10
-6.1515403059868508
20
-2.5625177763626317
30
0
10
-7.3607936089154649
20
-1.5674478576968776
30
0
10
-7.6037594338553083
20
-1.3568205815981971
30
0
10
-8.000075575340901
20
-0.96002659949143254
30
0
0
SPLINE
5
289
100
AcDbEntity
8
0
100
AcDbSpline
70
4
71
3
72
8
73
4
74
0
42
0.000000001
43
0.0000000001
44
0.0000000001
40
-1
40
-1
40
-1
40
-1
40
0
40
0
40
0
40
0
41
1
41
1
41
1
41
1
10
-8.000075575340901
20
-0.96002659949143254
30
0
10
-8.3896337721433909
20
-0.56999908406611066
30
0
10
-9.0401130356725634
20
0.20136837819173081
30
0
10
-9.0401130356725634
20
0.27329647903250542
30
0
0
SPLINE
5
290
100
AcDbEntity
8
0
100
AcDbSpline
70
4
71
3
72
8
73
4
74
0
42
0.000000001
43
0.0000000001
44
0.0000000001
40
-1
40
-1
40
-1
40
-1
40
0
40
0
40
0
40
0
41
1
41
1
41
1
41
1
10
-9.0401130356725634
20
0.27329647903250542
30
0
10
-9.0401130356725634
20
0.2935715305101505
30
0
10
-8.9532519588845823
20
0.44276250315212984
30
0
10
-8.8470897732863083
20
0.60483143271320206
30
0
0
SPLINE
5
291
100
AcDbEntity
8
0
100
AcDbSpline
70
4
71
3
72
8
73
4
74
0
42
0.000000001
43
0.0000000001
44
0.0000000001
40
-1
40
-1
40
-1
40
-1
40
0
40
0
40
0
40
0
41
1
41
1
41
1
41
1
10
-8.8470897732863083
20
0.60483143271320206
30
0
10
-8.4957947403133289
20
1.141125657921771
30
0
10
-8.4251765923601454
20
1.784202957179053
30
0
10
-8.6428022552379353
20
2.4651909747630962
30
0
0
SPLINE
5
292
100
AcDbEntity
8
0
100
AcDbSpline
70
4
71
3
72
8
73
4
74
0
42
0.000000001
43
0.0000000001
44
0.0000000001
40
-1
40
-1
40
-1
40
-1
40
0
40
0
40
0
40
0
41
1
41
1
41
1
41
1
10
-8.6428022552379353
20
2.4651909747630962
30
0
10
-8.7666895886678873
20
2.8528603315050871
30
0
10
-9.0858219911939955
20
3.2919562959400439
30
0
10
-9.2436883581454339
20
3.2919562959400439
30
0
0
SPLINE
5
293
100
AcDbEntity
8
0
100
AcDbSpline
70
4
71
3
72
8
73
4
74
0
42
0.000000001
43
0.0000000001
44
0.0000000001
40
-1
40
-1
40
-1
40
-1
40
0
40
0
40
0
40
0
41
1
41
1
41
1
41
1
10
-9.2436883581454339
20
3.2919562959400439
30
0
10
-9.3478813534131504
20
3.2919562959400439
30
0
10
-9.3472288118260245
20
3.2949243862188071
30
0
10
-9.1474622138966755
20
3.7294647338272147
30
0
0
SPLINE
5
294
100
AcDbEntity
8
0
100
AcDbSpline
70
4
71
3
72
8
73
4
74
0
42
0.000000001
43
0.0000000001
44
0.0000000001
40
-1
40
-1
40
-1
40
-1
40
0
40
0
40
0
40
0
41
1
41
1
41
1
41
1
10
-9.1474622138966755
20
3.7294647338272147
30
0
10
-8.8766897170897039
20
4.3184541270529824
30
0
10
-8.813307963154962
20
4.5243005620832903
30
0
10
-8.7535218838052593
20
5.008893040795364
30
0
0
SPLINE
5
295
100
AcDbEntity
8
0
100
AcDbSpline
70
4
71
3
72
8
73
4
74
0
42
0.000000001
43
0.0000000001
44
0.0000000001
40
-1
40
-1
40
-1
40
-1
40
0
40
0
40
0
40
0
41
1
41
1
41
1
41
1
10
-8.7535218838052593
20
5.008893040795364
30
0
10
-8.6812936868801067
20
5.5943019772902698
30
0
10
-8.4658989614247258
20
6.4049193290424871
30
0
10
-8.2266225530516532
20
6.9918208326751135
30
0
0
SPLINE
5
296
100
AcDbEntity
8
0
100
AcDbSpline
70
4
71
3
72
8
73
4
74
0
42
0.000000001
43
0.0000000001
44
0.0000000001
40
-1
40
-1
40
-1
40
-1
40
0
40
0
40
0
40
0
41
1
41
1
41
1
41
1
10
-8.2266225530516532
20
6.9918208326751135
30
0
10
-8.027899291204708
20
7.4792499194058575
30
0
10
-7.524037356819032
20
8.2875383307547619
30
0
10
-7.2721660436145701
20
8.5229463605959346
30
0
0
SPLINE
5
297
100
AcDbEntity
8
0
100
AcDbSpline
70
4
71
3
72
8
73
4
74
0
42
0.000000001
43
0.0000000001
44
0.0000000001
40
-1
40
-1
40
-1
40
-1
40
0
40
0
40
0
40
0
41
1
41
1
41
1
41
1
10
-7.2721660436145701
20
8.5229463605959346
30
0
10
-6.8866113598890717
20
8.8832978429469751
30
0
10
-7.3882636618481889
20
8.9118477548121273
30
0
10
-7.8138133012085849
20
8.5537704285893632
30
0
0
SPLINE
5
298
100
AcDbEntity
8
0
100
AcDbSpline
70
4
71
3
72
8
73
4
74
0
42
0.000000001
43
0.0000000001
44
0.0000000001
40
-1
40
-1
40
-1
40
-1
40
0
40
0
40
0
40
0
41
1
41
1
41
1
41
1
10
-7.8138133012085849
20
8.5537704285893632
30
0
10
-7.9582885651980693
20
8.4322016874218786
30
0
10
-8.0338038186255432
20
8.4146195874194678
30
0
10
-8.4114805236004777
20
8.4146195874194678
30
0
0
SPLINE
5
299
100
AcDbEntity
8
0
100
AcDbSpline
70
4
71
3
72
8
73
4
74
0
42
0.000000001
43
0.0000000001
44
0.0000000001
40
-1
40
-1
40
-1
40
-1
40
0
40
0
40
0
40
0
41
1
41
1
41
1
41
1
10
-8.4114805236004777
20
8.4146195874194678
30
0
10
-9.2546713878623539
20
8.4146195874194678
30
0
10
-10.91464587838913
20
8.6491181982949996
30
0
10
-12.023642131854473
20
8.9248985865546757
30
0
0
SPLINE
5
300
100
AcDbEntity
8
0
100
AcDbSpline
70
4
71
3
72
8
73
4
74
0
42
0.000000001
43
0.0000000001
44
0.0000000001
40
-1
40
-1
40
-1
40
-1
40
0
40
0
40
0
40
0
41
1
41
1
41
1
41
1
10
-12.023642131854473
20
8.9248985865546757
30
0
10
-12.650492024488216
20
9.0807805453213781
30
0
10
-12.678660881284767
20
9.0944266995193441
30
0
10
-12.912345945675977
20
9.3554019418068997
30
0
0
SPLINE
5
301
100
AcDbEntity
8
0
100
AcDbSpline
70
4
71
3
72
8
73
4
74
0
42
0.000000001
43
0.0000000001
44
0.0000000001
40
-1
40
-1
40
-1
40
-1
40
0
40
0
40
0
40
0
41
1
41
1
41
1
41
1
10
-12.912345945675977
20
9.3554019418068997
30
0
10
-13.252665557859125
20
9.7354672411735201
30
0
10
-13.671272507786703
20
10.352962718844411
30
0
10
-13.906944110862229
20
10.822554045622564
30
0
0
SPLINE
5
302
100
AcDbEntity
8
0
100
AcDbSpline
70
4
71
3
72
8
73
4
74
0
42
0.000000001
43
0.0000000001
44
0.0000000001
40
-1
40
-1
40
-1
40
-1
40
0
40
0
40
0
40
0
41
1
41
1
41
1
41
1
10
-13.906944110862229
20
10.822554045622564
30
0
10
-14.12455714292105
20
11.256163060555316
30
0
10
-14.32576152371308
20
11.929447191640588
30
0
10
-14.257982266456693
20
11.997225079290097
30
0
0
SPLINE
5
303
100
AcDbEntity
8
0
100
AcDbSpline
70
4
71
3
72
8
73
4
74
0
42
0.000000001
43
0.0000000001
44
0.0000000001
40
-1
40
-1
40
-1
40
-1
40
0
40
0
40
0
40
0
41
1
41
1
41
1
41
1
10
-14.257982266456693
20
11.997225079290097
30
0
10
-14.234881259458303
20
12.020328216788073
30
0
10
-13.85827193477537
20
12.007226253055492
30
0
10
-13.421075158541754
20
11.96811028067788
30
0
0
SPLINE
5
304
100
AcDbEntity
8
0
100
AcDbSpline
70
4
71
3
72
8
73
4
74
0
42
0.000000001
43
0.0000000001
44
0.0000000001
40
-1
40
-1
40
-1
40
-1
40
0
40
0
40
0
40
0
41
1
41
1
41
1
41
1
10
-13.421075158541754
20
11.96811028067788
30
0
10
-11.321794088478203
20
11.780287872135295
30
0
10
-8.9289758291866121
20
11.301959062202641
30
0
10
-6.8819303479441016
20
10.660919737976799
30
0
0
SPLINE
5
305
100
AcDbEntity
8
0
100
AcDbSpline
70
4
71
3
72
8
73
4
74
0
42
0.000000001
43
0.0000000001
44
0.0000000001
40
-1
40
-1
40
-1
40
-1
40
0
40
0
40
0
40
0
41
1
41
1
41
1
41
1
10
-6.8819303479441016
20
10.660919737976799
30
0
10
-5.8160048827999962
20
10.327122802451171
30
0
10
-5.8548420640890786
20
10.345614321419225
30
0
10
-5.9647125363933036
20
10.22420749822019
30
0
0
SPLINE
5
306
100
AcDbEntity
8
0
100
AcDbSpline
70
4
71
3
72
8
73
4
74
0
42
0.000000001
43
0.0000000001
44
0.0000000001
40
-1
40
-1
40
-1
40
-1
40
0
40
0
40
0
40
0
41
1
41
1
41
1
41
1
10
-5.9647125363933036
20
10.22420749822019
30
0
10
-6.0682085539396962
20
10.109844715362794
30
0
10
-6.0857151733853865
20
9.9908252691271127
30
0
10
-5.9990391457042014
20
9.9908252691271127
30
0
0
SPLINE
5
307
100
AcDbEntity
8
0
100
AcDbSpline
70
4
71
3
72
8
73
4
74
0
42
0.000000001
43
0.0000000001
44
0.0000000001
40
-1
40
-1
40
-1
40
-1
40
0
40
0
40
0
40
0
41
1
41
1
41
1
41
1
10
-5.9990391457042014
20
9.9908252691271127
30
0
10
-5.9673908787285264
20
9.9908252691271127
30
0
10
-5.7457373542070638
20
10.089074170553134
30
0
10
-5.5064749462598339
20
10.209156431724566
30
0
0
SPLINE
5
308
100
AcDbEntity
8
0
100
AcDbSpline
70
4
71
3
72
8
73
4
74
0
42
0.000000001
43
0.0000000001
44
0.0000000001
40
-1
40
-1
40
-1
40
-1
40
0
40
0
40
0
40
0
41
1
41
1
41
1
41
1
10
-5.5064749462598339
20
10.209156431724566
30
0
10
-3.7995649411649257
20
11.065831532215959
30
0
10
-2.3393083514341284
20
11.377916850829594
30
0
10
-0.28654887030508558
20
11.324754190332067
30
0
0
SPLINE
5
309
100
AcDbEntity
8
0
100
AcDbSpline
70
4
71
3
72
8
73
4
74
0
42
0.000000001
43
0.0000000001
44
0.0000000001
40
-1
40
-1
40
-1
40
-1
40
0
40
0
40
0
40
0
41
1
41
1
41
1
41
1
10
-0.28654887030508558
20
11.324754190332067
30
0
10
0.67777976549396879
20
11.299779865484439
30
0
10
0.95238290055447816
20
11.271492918139469
30
0
10
1.6274140412993154
20
11.127600193607897
30
0
0
SPLINE
5
310
100
AcDbEntity
8
0
100
AcDbSpline
70
4
71
3
72
8
73
4
74
0
42
0.000000001
43
0.0000000001
44
0.0000000001
40
-1
40
-1
40
-1
40
-1
40
0
40
0
40
0
40
0
41
1
41
1
41
1
41
1
10
1.6274140412993154
20
11.127600193607897
30
0
10
2.0608708776902929
20
11.035202252756005
30
0
10
2.5634325986150519
20
10.903620163539788
30
0
10
2.7442182713860008
20
10.83519582144482
30
0
0
SPLINE
5
311
100
AcDbEntity
8
0
100
AcDbSpline
70
4
71
3
72
8
73
4
74
0
42
0.000000001
43
0.0000000001
44
0.0000000001
40
-1
40
-1
40
-1
40
-1
40
0
40
0
40
0
40
0
41
1
41
1
41
1
41
1
10
2.7442182713860008
20
10.83519582144482
30
0
10
3.0332053222149979
20
10.72582571218595
30
0
10
3.0684084799265143
20
10.69619959367337
30
0
10
3.0355829597516748
20
10.590053234643442
30
0
0
SPLINE
5
312
100
AcDbEntity
8
0
100
AcDbSpline
70
4
71
3
72
8
73
4
74
0
42
0.000000001
43
0.0000000001
44
0.0000000001
40
-1
40
-1
40
-1
40
-1
40
0
40
0
40
0
40
0
41
1
41
1
41
1
41
1
10
3.0355829597516748
20
10.590053234643442
30
0
10
3.015049813467181
20
10.523648606154898
30
0
10
2.9842367023287641
20
10.348990250189942
30
0
10
2.9671111379516746
20
10.201924907419462
30
0
0
SPLINE
5
313
100
AcDbEntity
8
0
100
AcDbSpline
70
4
71
3
72
8
73
4
74
0
42
0.000000001
43
0.0000000001
44
0.0000000001
40
-1
40
-1
40
-1
40
-1
40
0
40
0
40
0
40
0
41
1
41
1
41
1
41
1
10
2.9671111379516746
20
10.201924907419462
30
0
10
2.9189496730510101
20
9.7883170225891618
30
0
10
3.0558129663809552
20
9.8591640470691733
30
0
10
3.4021055863287386
20
10.427096799826742
30
0
0
SPLINE
5
314
100
AcDbEntity
8
0
100
AcDbSpline
70
4
71
3
72
8
73
4
74
0
42
0.000000001
43
0.0000000001
44
0.0000000001
40
-1
40
-1
40
-1
40
-1
40
0
40
0
40
0
40
0
41
1
41
1
41
1
41
1
10
3.4021055863287386
20
10.427096799826742
30
0
10
3.9609563237132295
20
11.343630416653724
30
0
10
5.610503540557648
20
13.843760113891069
30
0
10
5.9927078615074443
20
14.353534488981751
30
0
0
SPLINE
5
315
100
AcDbEntity
8
0
100
AcDbSpline
70
4
71
3
72
8
73
4
74
0
42
0.000000001
43
0.0000000001
44
0.0000000001
40
-1
40
-1
40
-1
40
-1
40
0
40
0
40
0
40
0
41
1
41
1
41
1
41
1
10
5.9927078615074443
20
14.353534488981751
30
0
10
6.4624988465324034
20
14.980127808594064
30
0
10
7.3225267446561642
20
15.934787019848793
30
0
10
8.0223337694301584
20
16.606487276671277
30
0
0
SPLINE
5
316
100
AcDbEntity
8
0
100
AcDbSpline
70
4
71
3
72
8
73
4
74
0
42
0.000000001
43
0.0000000001
44
0.0000000001
40
-1
40
-1
40
-1
40
-1
40
-0.9291440771756978
40
-0.9291440771756978
40
-0.9291440771756978
40
-0.9291440771756978
41
1
41
1
41
1
41
1
10
8.0223337694301584
20
16.606487276671277
30
0
10
8.0851794378533022
20
16.666808659951634
30
0
10
8.1476437677288551
20
16.726347724665057
30
0
10
8.2095028954717897
20
16.784912487386975
30
0
0
ARC
5
317
100
AcDbEntity
8
0
100
AcDbCircle
10
4.9960036108132044e-15
20
-1.7763568394002505e-14
30
0
40
18.684999999999985
210
0
220
-0
230
1
100
AcDbArc
50
63.93673701494361
51
65.439970950131951
0
SPLINE
5
318
100
AcDbEntity
8
0
100
AcDbSpline
70
4
71
3
72
8
73
4
74
0
42
0.000000001
43
0.0000000001
44
0.0000000001
40
-0.60373935371730236
40
-0.60373935371730236
40
-0.60373935371730236
40
-0.60373935371730236
40
0
40
0
40
0
40
0
41
1
41
1
41
1
41
1
10
7.7663527123186702
20
16.994498831912029
30
0
10
6.436622181876519
20
15.680104339079403
30
0
10
5.2453473140902815
20
14.100501458695568
30
0
10
3.9393664496346559
20
11.978166238718311
30
0
0
SPLINE
5
319
100
AcDbEntity
8
0
100
AcDbSpline
70
4
71
3
72
8
73
4
74
0
42
0.000000001
43
0.0000000001
44
0.0000000001
40
-1
40
-1
40
-1
40
-1
40
0
40
0
40
0
40
0
41
1
41
1
41
1
41
1
10
3.9393664496346559
20
11.978166238718311
30
0
10
3.6688964837687332
20
11.538632000083043
30
0
10
3.4116928344605046
20
11.149207111683149
30
0
10
3.3677996732995208
20
11.112779221067433
30
0
0
SPLINE
5
320
100
AcDbEntity
8
0
100
AcDbSpline
70
4
71
3
72
8
73
4
74
0
42
0.000000001
43
0.0000000001
44
0.0000000001
40
-1
40
-1
40
-1
40
-1
40
0
40
0
40
0
40
0
41
1
41
1
41
1
41
1
10
3.3677996732995208
20
11.112779221067433
30
0
10
3.3054709948738559
20
11.061050691147585
30
0
10
3.2283907373227794
20
11.072185290692111
30
0
10
3.0158277501727304
20
11.16362755030166
30
0
0
SPLINE
5
321
100
AcDbEntity
8
0
100
AcDbSpline
70
4
71
3
72
8
73
4
74
0
42
0.000000001
43
0.0000000001
44
0.0000000001
40
-1
40
-1
40
-1
40
-1
40
0
40
0
40
0
40
0
41
1
41
1
41
1
41
1
10
3.0158277501727304
20
11.16362755030166
30
0
10
2.0615733338391218
20
11.574138297449775
30
0
10
-0.1180592237094813
20
11.816570888779241
30
0
10
-1.6581486764549647
20
11.683499884710306
30
0
0
SPLINE
5
322
100
AcDbEntity
8
0
100
AcDbSpline
70
4
71
3
72
8
73
4
74
0
42
0.000000001
43
0.0000000001
44
0.0000000001
40
-1
40
-1
40
-1
40
-1
40
0
40
0
40
0
40
0
41
1
41
1
41
1
41
1
10
-1.6581486764549647
20
11.683499884710306
30
0
10
-3.0037454308148215
20
11.567233043938232
30
0
10
-3.7377147120745979
20
11.388769007000587
30
0
10
-4.7281243150770624
20
10.93703370160004
30
0
0
SPLINE
5
323
100
AcDbEntity
8
0
100
AcDbSpline
70
4
71
3
72
8
73
4
74
0
42
0.000000001
43
0.0000000001
44
0.0000000001
40
-1
40
-1
40
-1
40
-1
40
0
40
0
40
0
40
0
41
1
41
1
41
1
41
1
10
-4.7281243150770624
20
10.93703370160004
30
0
10
-5.0656307547369739
20
10.783093541026375
30
0
10
-5.4202761504856518
20
10.65623385631849
30
0
10
-5.5162265472167178
20
10.655116257107702
30
0
0
SPLINE
5
324
100
AcDbEntity
8
0
100
AcDbSpline
70
4
71
3
72
8
73
4
74
0
42
0.000000001
43
0.0000000001
44
0.0000000001
40
-1
40
-1
40
-1
40
-1
40
0
40
0
40
0
40
0
41
1
41
1
41
1
41
1
10
-5.5162265472167178
20
10.655116257107702
30
0
10
-5.6121757265194478
20
10.654002310181916
30
0
10
-6.1339886416927953
20
10.783906783153617
30
0
10
-6.6758075566819333
20
10.943795298568148
30
0
0
SPLINE
5
325
100
AcDbEntity
8
0
100
AcDbSpline
70
4
71
3
72
8
73
4
74
0
42
0.000000001
43
0.0000000001
44
0.0000000001
40
-1
40
-1
40
-1
40
-1
40
0
40
0
40
0
40
0
41
1
41
1
41
1
41
1
10
-6.6758075566819333
20
10.943795298568148
30
0
10
-8.846484711404214
20
11.584348868888647
30
0
10
-11.490348563132603
20
12.183385698156508
30
0
10
-12.642869096973667
20
12.29578903011002
30
0
0
SPLINE
5
326
100
AcDbEntity
8
0
100
AcDbSpline
70
4
71
3
72
8
73
4
74
0
42
0.000000001
43
0.0000000001
44
0.0000000001
40
-1
40
-1
40
-1
40
-1
40
-0.8444421134732123
40
-0.8444421134732123
40
-0.8444421134732123
40
-0.8444421134732123
41
1
41
1
41
1
41
1
10
-12.642869096973667
20
12.29578903011002
30
0
10
-13.10442448422409
20
12.340803657375181
30
0
10
-13.5510823217164
20
12.375607587256676
30
0
10
-13.976982871489092
20
12.400531230963432
30
0
0
ARC
5
327
100
AcDbEntity
8
0
100
AcDbCircle
10
4.9960036108132044e-15
20
-1.7763568394002505e-14
30
0
40
18.684999999999988
210
0
220
0
230
1
100
AcDbArc
50
138.42021290422696
51
147.9563269988283
0
SPLINE
5
328
100
AcDbEntity
8
0
100
AcDbSpline
70
4
71
3
72
8
73
4
74
0
42
0.000000001
43
0.0000000001
44
0.0000000001
40
-0.083998050129167903
40
-0.083998050129167903
40
-0.083998050129167903
40
-0.083998050129167903
40
0
40
0
40
0
40
0
41
1
41
1
41
1
41
1
10
-15.838226746332387
20
9.9136168239326423
30
0
10
-15.71043538756097
20
9.8497609081882924
30
0
10
-15.579950747583627
20
9.7880130479303915
30
0
10
-15.447480359806359
20
9.7289661738689333
30
0
0
SPLINE
5
329
100
AcDbEntity
8
0
100
AcDbSpline
70
4
71
3
72
8
73
4
74
0
42
0.000000001
43
0.0000000001
44
0.0000000001
40
-1
40
-1
40
-1
40
-1
40
0
40
0
40
0
40
0
41
1
41
1
41
1
41
1
10
-15.447480359806359
20
9.7289661738689333
30
0
10
-13.438000760314953
20
8.8332664081249916
30
0
10
-11.325768991989342
20
8.3003128062654454
30
0
10
-8.9046686550661196
20
8.0780992647102519
30
0
0
SPLINE
5
330
100
AcDbEntity
8
0
100
AcDbSpline
70
4
71
3
72
8
73
4
74
0
42
0.000000001
43
0.0000000001
44
0.0000000001
40
-1
40
-1
40
-1
40
-1
40
0
40
0
40
0
40
0
41
1
41
1
41
1
41
1
10
-8.9046686550661196
20
8.0780992647102519
30
0
10
-8.5670039497227624
20
8.047108409035042
30
0
10
-8.2827399121162664
20
8.0137740038165113
30
0
10
-8.2729901373018837
20
8.0040077937196159
30
0
0
SPLINE
5
331
100
AcDbEntity
8
0
100
AcDbSpline
70
4
71
3
72
8
73
4
74
0
42
0.000000001
43
0.0000000001
44
0.0000000001
40
-1
40
-1
40
-1
40
-1
40
0
40
0
40
0
40
0
41
1
41
1
41
1
41
1
10
-8.2729901373018837
20
8.0040077937196159
30
0
10
-8.2632306230608279
20
7.9942476707643939
30
0
10
-8.3539929489457307
20
7.7572180263820751
30
0
10
-8.4746827068559263
20
7.4772752506477964
30
0
0
SPLINE
5
332
100
AcDbEntity
8
0
100
AcDbSpline
70
4
71
3
72
8
73
4
74
0
42
0.000000001
43
0.0000000001
44
0.0000000001
40
-1
40
-1
40
-1
40
-1
40
0
40
0
40
0
40
0
41
1
41
1
41
1
41
1
10
-8.4746827068559263
20
7.4772752506477964
30
0
10
-8.7448038795041043
20
6.8507233235988458
30
0
10
-8.9483317222719414
20
6.112654961137844
30
0
10
-9.0855450262479671
20
5.2620548280340707
30
0
0
SPLINE
5
333
100
AcDbEntity
8
0
100
AcDbSpline
70
4
71
3
72
8
73
4
74
0
42
0.000000001
43
0.0000000001
44
0.0000000001
40
-1
40
-1
40
-1
40
-1
40
0
40
0
40
0
40
0
41
1
41
1
41
1
41
1
10
-9.0855450262479671
20
5.2620548280340707
30
0
10
-9.1617554312542655
20
4.7896135015255741
30
0
10
-9.2293208776594593
20
4.5522466294946824
30
0
10
-9.3354325399818645
20
4.3841550819643604
30
0
0
SPLINE
5
334
100
AcDbEntity
8
0
100
AcDbSpline
70
4
71
3
72
8
73
4
74
0
42
0.000000001
43
0.0000000001
44
0.0000000001
40
-1
40
-1
40
-1
40
-1
40
0
40
0
40
0
40
0
41
1
41
1
41
1
41
1
10
-9.3354325399818645
20
4.3841550819643604
30
0
10
-9.5645683790452765
20
4.0211800415531362
30
0
10
-9.8728206245487051
20
3.0410917959679584
30
0
10
-9.9442702760541426
20
2.4483551583295449
30
0
0
SPLINE
5
335
100
AcDbEntity
8
0
100
AcDbSpline
70
4
71
3
72
8
73
4
74
0
42
0.000000001
43
0.0000000001
44
0.0000000001
40
-1
40
-1
40
-1
40
-1
40
0
40
0
40
0
40
0
41
1
41
1
41
1
41
1
10
-9.9442702760541426
20
2.4483551583295449
30
0
10
-10.0914470135172
20
1.2273950645393361
30
0
10
-9.8227587540183663
20
0.41633456887347542
30
0
10
-8.9500854277873465
20
-0.55267507887054812
30
0
0
SPLINE
5
336
100
AcDbEntity
8
0
100
AcDbSpline
70
4
71
3
72
8
73
4
74
0
42
0.000000001
43
0.0000000001
44
0.0000000001
40
-1
40
-1
40
-1
40
-1
40
0
40
0
40
0
40
0
41
1
41
1
41
1
41
1
10
-8.9500854277873465
20
-0.55267507887054812
30
0
10
-8.5385569105518488
20
-1.0096343692531162
30
0
10
-7.559896708402678
20
-1.9296400916892154
30
0
10
-7.1120790873815647
20
-2.2805272861702397
30
0
0
SPLINE
5
337
100
AcDbEntity
8
0
100
AcDbSpline
70
4
71
3
72
8
73
4
74
0
42
0.000000001
43
0.0000000001
44
0.0000000001
40
-1
40
-1
40
-1
40
-1
40
0
40
0
40
0
40
0
41
1
41
1
41
1
41
1
10
-7.1120790873815647
20
-2.2805272861702397
30
0
10
-6.9227799382696045
20
-2.4288490149816067
30
0
10
-6.9108430534528438
20
-2.6341196064098416
30
0
10
-7.0667146640787069
20
-3.0605652730242028
30
0
0
SPLINE
5
338
100
AcDbEntity
8
0
100
AcDbSpline
70
4
71
3
72
8
73
4
74
0
42
0.000000001
43
0.0000000001
44
0.0000000001
40
-1
40
-1
40
-1
40
-1
40
0
40
0
40
0
40
0
41
1
41
1
41
1
41
1
10
-7.0667146640787069
20
-3.0605652730242028
30
0
10
-7.2100315450082082
20
-3.4526672863309882
30
0
10
-7.3294557861650098
20
-4.221524411363724
30
0
10
-7.4593608678508776
20
-5.5884602495653146
30
0
0
SPLINE
5
339
100
AcDbEntity
8
0
100
AcDbSpline
70
4
71
3
72
8
73
4
74
0
42
0.000000001
43
0.0000000001
44
0.0000000001
40
-1
40
-1
40
-1
40
-1
40
-0.64030342915150107
40
-0.64030342915150107
40
-0.64030342915150107
40
-0.64030342915150107
41
1
41
1
41
1
41
1
10
-7.4593608678508776
20
-5.5884602495653146
30
0
10
-7.4905125393043388
20
-5.9162626435027033
30
0
10
-7.516160475374595
20
-6.1592856340033117
30
0
10
-7.5415347250095008
20
-6.3479199465021452
30
0
0
SPLINE
5
340
100
AcDbEntity
8
0
100
AcDbSpline
70
4
71
3
72
8
73
4
74
0
42
0.000000001
43
0.0000000001
44
0.0000000001
40
-1
40
-1
40
-1
40
-1
40
0
40
0
40
0
40
0
41
1
41
1
41
1
41
1
10
-8.9708091016061413
20
0.95201521020161106
30
0
10
-9.2111306722041189
20
0.48325416954738021
30
0
10
-9.2908777065212451
20
0.50535049381297714
30
0
10
-9.4923152248392739
20
1.0965142140436157
30
0
0
SPLINE
5
341
100
AcDbEntity
8
0
100
AcDbSpline
70
4
71
3
72
8
73
4
74
0
42
0.000000001
43
0.0000000001
44
0.0000000001
40
-1
40
-1
40
-1
40
-1
40
0
40
0
40
0
40
0
41
1
41
1
41
1
41
1
10
-9.4923152248392739
20
1.0965142140436157
30
0
10
-9.6502455067782567
20
1.5600013551541236
30
0
10
-9.6600464135826751
20
2.2159164361954664
30
0
10
-9.516616311818094
20
2.7229729025300653
30
0
0
LINE
5
342
100
AcDbEntity
8
0
100
AcDbLine
10
-9.516616311818094
20
2.7229729025300653
30
0
11
-9.4148210416545712
21
3.0828386309757612
31
0
0
LINE
5
343
100
AcDbEntity
8
0
100
AcDbLine
10
-9.4148210416545712
20
3.0828386309757612
30
0
11
-9.2025264974522099
21
2.855247708468438
31
0
0
SPLINE
5
344
100
AcDbEntity
8
0
100
AcDbSpline
70
4
71
3
72
8
73
4
74
0
42
0.000000001
43
0.0000000001
44
0.0000000001
40
-1
40
-1
40
-1
40
-1
40
0
40
0
40
0
40
0
41
1
41
1
41
1
41
1
10
-9.2025264974522116
20
2.855247708468438
30
0
10
-8.8035119260638801
20
2.4274811321114775
30
0
10
-8.6904530089524066
20
1.4988669739242999
30
0
10
-8.9708091016061413
20
0.95201521020161106
30
0
0
SPLINE
5
345
100
AcDbEntity
8
0
100
AcDbSpline
70
4
71
3
72
8
73
4
74
0
42
0.000000001
43
0.0000000001
44
0.0000000001
40
-1
40
-1
40
-1
40
-1
40
0
40
0
40
0
40
0
41
1
41
1
41
1
41
1
10
-6.4222208869545927
20
5.3980866178117637
30
0
10
-6.6250401864319297
20
5.1952667096202587
30
0
10
-6.8182612809224903
20
5.2215071599354479
30
0
10
-6.9488475137613381
20
5.4695995755905784
30
0
0
SPLINE
5
346
100
AcDbEntity
8
0
100
AcDbSpline
70
4
71
3
72
8
73
4
74
0
42
0.000000001
43
0.0000000001
44
0.0000000001
40
-1
40
-1
40
-1
40
-1
40
0
40
0
40
0
40
0
41
1
41
1
41
1
41
1
10
-6.9488475137613381
20
5.4695995755905784
30
0
10
-7.0605952605568874
20
5.6819032505054423
30
0
10
-7.0267531877229983
20
5.9697020912802667
30
0
10
-6.8678319191199835
20
6.1585702707619223
30
0
0
SPLINE
5
347
100
AcDbEntity
8
0
100
AcDbSpline
70
4
71
3
72
8
73
4
74
0
42
0.000000001
43
0.0000000001
44
0.0000000001
40
-1
40
-1
40
-1
40
-1
40
0
40
0
40
0
40
0
41
1
41
1
41
1
41
1
10
-6.8678319191199835
20
6.1585702707619223
30
0
10
-6.6978984025200274
20
6.3605245874078147
30
0
10
-6.5757739053179858
20
6.376128366367162
30
0
10
-6.4056413391853884
20
6.2176240669686074
30
0
0
SPLINE
5
348
100
AcDbEntity
8
0
100
AcDbSpline
70
4
71
3
72
8
73
4
74
0
42
0.000000001
43
0.0000000001
44
0.0000000001
40
-1
40
-1
40
-1
40
-1
40
0
40
0
40
0
40
0
41
1
41
1
41
1
41
1
10
-6.4056413391853884
20
6.2176240669686074
30
0
10
-6.1687510903473353
20
5.9969286585461523
30
0
10
-6.1758815681007011
20
5.6444259366656535
30
0
10
-6.4222208869545927
20
5.3980866178117637
30
0
0
SPLINE
5
349
100
AcDbEntity
8
0
100
AcDbSpline
70
4
71
3
72
8
73
4
74
0
42
0.000000001
43
0.0000000001
44
0.0000000001
40
-1
40
-1
40
-1
40
-1
40
0
40
0
40
0
40
0
41
1
41
1
41
1
41
1
10
-6.4070060763480186
20
4.1021317212069475
30
0
10
-6.2153043324185298
20
4.2018683200573514
30
0
10
-6.044081559212664
20
4.387975372077058
30
0
10
-5.909413289169267
20
4.6429791283853987
30
0
0
SPLINE
5
350
100
AcDbEntity
8
0
100
AcDbSpline
70
4
71
3
72
8
73
4
74
0
42
0.000000001
43
0.0000000001
44
0.0000000001
40
-1
40
-1
40
-1
40
-1
40
0
40
0
40
0
40
0
41
1
41
1
41
1
41
1
10
-5.909413289169267
20
4.6429791283853987
30
0
10
-5.8285565689255243
20
4.7960902202634799
30
0
10
-5.8051137689223093
20
4.9654746766847158
30
0
10
-5.8043163533634123
20
5.4029344174385185
30
0
0
SPLINE
5
351
100
AcDbEntity
8
0
100
AcDbSpline
70
4
71
3
72
8
73
4
74
0
42
0.000000001
43
0.0000000001
44
0.0000000001
40
-1
40
-1
40
-1
40
-1
40
0
40
0
40
0
40
0
41
1
41
1
41
1
41
1
10
-5.8043163533634123
20
5.4029344174385185
30
0
10
-5.8033789335460835
20
5.9066259118574083
30
0
10
-5.8198446517660418
20
5.9996179577363851
30
0
10
-5.9607887648722002
20
6.2866352095206572
30
0
0
SPLINE
5
352
100
AcDbEntity
8
0
100
AcDbSpline
70
4
71
3
72
8
73
4
74
0
42
0.000000001
43
0.0000000001
44
0.0000000001
40
-1
40
-1
40
-1
40
-1
40
0
40
0
40
0
40
0
41
1
41
1
41
1
41
1
10
-5.9607887648722002
20
6.2866352095206572
30
0
10
-6.162943957193237
20
6.6982988613012502
30
0
10
-6.4166803706056807
20
6.8677186231441762
30
0
10
-6.8249918334680748
20
6.863681630787994
30
0
0
SPLINE
5
353
100
AcDbEntity
8
0
100
AcDbSpline
70
4
71
3
72
8
73
4
74
0
42
0.000000001
43
0.0000000001
44
0.0000000001
40
-1
40
-1
40
-1
40
-1
40
0
40
0
40
0
40
0
41
1
41
1
41
1
41
1
10
-6.8249918334680748
20
6.863681630787994
30
0
10
-7.3686928926618744
20
6.8582981626941937
30
0
10
-7.7547345477210481
20
6.4623369015680172
30
0
10
-7.9466548200365237
20
5.713202115549203
30
0
0
SPLINE
5
354
100
AcDbEntity
8
0
100
AcDbSpline
70
4
71
3
72
8
73
4
74
0
42
0.000000001
43
0.0000000001
44
0.0000000001
40
-1
40
-1
40
-1
40
-1
40
0
40
0
40
0
40
0
41
1
41
1
41
1
41
1
10
-7.9466548200365237
20
5.713202115549203
30
0
10
-8.1409691651711906
20
4.9547174799237892
30
0
10
-7.8790607640654766
20
4.1846648402668745
30
0
10
-7.3714485416963189
20
4.0220005882503829
30
0
0
SPLINE
5
355
100
AcDbEntity
8
0
100
AcDbSpline
70
4
71
3
72
8
73
4
74
0
42
0.000000001
43
0.0000000001
44
0.0000000001
40
-1
40
-1
40
-1
40
-1
40
0
40
0
40
0
40
0
41
1
41
1
41
1
41
1
10
-7.3714485416963189
20
4.0220005882503829
30
0
10
-7.1607707423217679
20
3.9544893174060602
30
0
10
-6.601467121596956
20
4.0009585569221962
30
0
10
-6.4070060763480186
20
4.1021317212069475
30
0
0
SPLINE
5
356
100
AcDbEntity
8
0
100
AcDbSpline
70
4
71
3
72
8
73
4
74
0
42
0.000000001
43
0.0000000001
44
0.0000000001
40
-1
40
-1
40
-1
40
-1
40
0
40
0
40
0
40
0
41
1
41
1
41
1
41
1
10
-2.6163086028846649
20
1.6627060442832908
30
0
10
-2.3533136469906824
20
1.7968763861379999
30
0
10
-2.1054099327273534
20
2.0913479516125344
30
0
10
-2.127251814471105
20
2.2436299747950317
30
0
0
SPLINE
5
357
100
AcDbEntity
8
0
100
AcDbSpline
70
4
71
3
72
8
73
4
74
0
42
0.000000001
43
0.0000000001
44
0.0000000001
40
-1
40
-1
40
-1
40
-1
40
0
40
0
40
0
40
0
41
1
41
1
41
1
41
1
10
-2.127251814471105
20
2.2436299747950317
30
0
10
-2.1526717180890498
20
2.4208607568301366
30
0
10
-2.3281116630445586
20
2.4231385652434123
30
0
10
-2.4658502873467891
20
2.2480346305081378
30
0
0
SPLINE
5
358
100
AcDbEntity
8
0
100
AcDbSpline
70
4
71
3
72
8
73
4
74
0
42
0.000000001
43
0.0000000001
44
0.0000000001
40
-1
40
-1
40
-1
40
-1
40
0
40
0
40
0
40
0
41
1
41
1
41
1
41
1
10
-2.4658502873467891
20
2.2480346305081378
30
0
10
-2.7389438112728981
20
1.9008496355913929
30
0
10
-3.2940217382497283
20
1.7978941562253858
30
0
10
-3.8183364686498433
20
1.9971762176777252
30
0
0
SPLINE
5
359
100
AcDbEntity
8
0
100
AcDbSpline
70
4
71
3
72
8
73
4
74
0
42
0.000000001
43
0.0000000001
44
0.0000000001
40
-1
40
-1
40
-1
40
-1
40
0
40
0
40
0
40
0
41
1
41
1
41
1
41
1
10
-3.8183364686498433
20
1.9971762176777252
30
0
10
-4.1759767381006352
20
2.1331057434753431
30
0
10
-4.6228228513110636
20
2.1419795786032747
30
0
10
-4.9295733989642638
20
2.019244541091636
30
0
0
SPLINE
5
360
100
AcDbEntity
8
0
100
AcDbSpline
70
4
71
3
72
8
73
4
74
0
42
0.000000001
43
0.0000000001
44
0.0000000001
40
-1
40
-1
40
-1
40
-1
40
0
40
0
40
0
40
0
41
1
41
1
41
1
41
1
10
-4.9295733989642638
20
2.019244541091636
30
0
10
-5.2049142955952954
20
1.9090745814172028
30
0
10
-5.3738154329678567
20
1.9448474955891193
30
0
10
-5.6267154731147118
20
2.1668954668908613
30
0
0
SPLINE
5
361
100
AcDbEntity
8
0
100
AcDbSpline
70
4
71
3
72
8
73
4
74
0
42
0.000000001
43
0.0000000001
44
0.0000000001
40
-1
40
-1
40
-1
40
-1
40
0
40
0
40
0
40
0
41
1
41
1
41
1
41
1
10
-5.6267154731147118
20
2.1668954668908613
30
0
10
-5.8663418921338639
20
2.3772926490343815
30
0
10
-5.9440016455720173
20
2.3789532212822229
30
0
10
-5.9440016455720173
20
2.1736777601406532
30
0
0
SPLINE
5
362
100
AcDbEntity
8
0
100
AcDbSpline
70
4
71
3
72
8
73
4
74
0
42
0.000000001
43
0.0000000001
44
0.0000000001
40
-1
40
-1
40
-1
40
-1
40
0
40
0
40
0
40
0
41
1
41
1
41
1
41
1
10
-5.9440016455720173
20
2.1736777601406532
30
0
10
-5.9440016455720173
20
1.6993847251358485
30
0
10
-5.2087455425630003
20
1.4625535215720031
30
0
10
-4.6360903852970958
20
1.7523915548065983
30
0
0
SPLINE
5
363
100
AcDbEntity
8
0
100
AcDbSpline
70
4
71
3
72
8
73
4
74
0
42
0.000000001
43
0.0000000001
44
0.0000000001
40
-1
40
-1
40
-1
40
-1
40
0
40
0
40
0
40
0
41
1
41
1
41
1
41
1
10
-4.6360903852970958
20
1.7523915548065983
30
0
10
-4.4998905904092856
20
1.8213247819452594
30
0
10
-4.4448445682787607
20
1.8167740348320471
30
0
10
-4.1575996573959966
20
1.7128300036586719
30
0
0
SPLINE
5
364
100
AcDbEntity
8
0
100
AcDbSpline
70
4
71
3
72
8
73
4
74
0
42
0.000000001
43
0.0000000001
44
0.0000000001
40
-1
40
-1
40
-1
40
-1
40
0
40
0
40
0
40
0
41
1
41
1
41
1
41
1
10
-4.1575996573959966
20
1.7128300036586719
30
0
10
-3.979075966469976
20
1.6482283865330682
30
0
10
-3.7443509139242837
20
1.5736584662070952
30
0
10
-3.6359864004694553
20
1.547118528521696
30
0
0
SPLINE
5
365
100
AcDbEntity
8
0
100
AcDbSpline
70
4
71
3
72
8
73
4
74
0
42
0.000000001
43
0.0000000001
44
0.0000000001
40
-1
40
-1
40
-1
40
-1
40
0
40
0
40
0
40
0
41
1
41
1
41
1
41
1
10
-3.6359864004694553
20
1.547118528521696
30
0
10
-3.364008040897466
20
1.4804984152180012
30
0
10
-2.8618845941730164
20
1.5374229292681862
30
0
10
-2.6163086028846649
20
1.6627060442832908
30
0
0
SPLINE
5
366
100
AcDbEntity
8
0
100
AcDbSpline
70
4
71
3
72
8
73
4
74
0
42
0.000000001
43
0.0000000001
44
0.0000000001
40
-1
40
-1
40
-1
40
-1
40
0
40
0
40
0
40
0
41
1
41
1
41
1
41
1
10
-4.5397552812124253
20
3.2371634989030329
30
0
10
-4.3807542710535197
20
3.2354152718151319
30
0
10
-4.0863314027123536
20
3.4929902367652876
30
0
10
-4.0863314027123536
20
3.6338406078897134
30
0
0
SPLINE
5
367
100
AcDbEntity
8
0
100
AcDbSpline
70
4
71
3
72
8
73
4
74
0
42
0.000000001
43
0.0000000001
44
0.0000000001
40
-1
40
-1
40
-1
40
-1
40
0
40
0
40
0
40
0
41
1
41
1
41
1
41
1
10
-4.0863314027123536
20
3.6338406078897134
30
0
10
-4.0863314027123536
20
3.8284428748254173
30
0
10
-4.9543748489884383
20
3.8365667740994858
30
0
10
-5.0287816339176299
20
3.6426645284559434
30
0
0
SPLINE
5
368
100
AcDbEntity
8
0
100
AcDbSpline
70
4
71
3
72
8
73
4
74
0
42
0.000000001
43
0.0000000001
44
0.0000000001
40
-1
40
-1
40
-1
40
-1
40
0
40
0
40
0
40
0
41
1
41
1
41
1
41
1
10
-5.0287816339176299
20
3.6426645284559434
30
0
10
-5.0495034815939244
20
3.5886642772644906
30
0
10
-4.9909208301525698
20
3.4986756270859676
30
0
10
-4.8694823538168475
20
3.3979675204248783
30
0
0
SPLINE
5
369
100
AcDbEntity
8
0
100
AcDbSpline
70
4
71
3
72
8
73
4
74
0
42
0.000000001
43
0.0000000001
44
0.0000000001
40
-1
40
-1
40
-1
40
-1
40
0
40
0
40
0
40
0
41
1
41
1
41
1
41
1
10
-4.8694823538168475
20
3.3979675204248783
30
0
10
-4.7638400101172724
20
3.3103565077830321
30
0
10
-4.6154634970308672
20
3.2379609144619281
30
0
10
-4.5397552812124253
20
3.2371634989030329
30
0
0
SPLINE
5
370
100
AcDbEntity
8
0
100
AcDbSpline
70
4
71
3
72
8
73
4
74
0
42
0.000000001
43
0.0000000001
44
0.0000000001
40
-1
40
-1
40
-1
40
-1
40
0
40
0
40
0
40
0
41
1
41
1
41
1
41
1
10
0.90123143166503494
20
5.3973038113928773
30
0
10
0.7413015236871412
20
5.2373751208433177
30
0
10
0.66957429852150918
20
5.2061821720646311
30
0
10
0.46495990096540485
20
5.2076187374989775
30
0
0
SPLINE
5
371
100
AcDbEntity
8
0
100
AcDbSpline
70
4
71
3
72
8
73
4
74
0
42
0.000000001
43
0.0000000001
44
0.0000000001
40
-1
40
-1
40
-1
40
-1
40
0
40
0
40
0
40
0
41
1
41
1
41
1
41
1
10
0.46495990096540485
20
5.2076187374989775
30
0
10
0.33027945663866687
20
5.2085598096013097
30
0
10
0.1757537130362552
20
5.2351508792767465
30
0
10
0.12157206502300788
20
5.2667090565556895
30
0
0
SPLINE
5
372
100
AcDbEntity
8
0
100
AcDbSpline
70
4
71
3
72
8
73
4
74
0
42
0.000000001
43
0.0000000001
44
0.0000000001
40
-1
40
-1
40
-1
40
-1
40
0
40
0
40
0
40
0
41
1
41
1
41
1
41
1
10
0.12157206502300788
20
5.2667090565556895
30
0
10
-0.032734541479251256
20
5.3565857033274682
30
0
10
-0.14581902458574492
20
5.6269047080799517
30
0
10
-0.14581902458574492
20
5.9058857154302196
30
0
0
SPLINE
5
373
100
AcDbEntity
8
0
100
AcDbSpline
70
4
71
3
72
8
73
4
74
0
42
0.000000001
43
0.0000000001
44
0.0000000001
40
-1
40
-1
40
-1
40
-1
40
0
40
0
40
0
40
0
41
1
41
1
41
1
41
1
10
-0.14581902458574492
20
5.9058857154302196
30
0
10
-0.14581902458574492
20
6.6000523947318968
30
0
10
0.7437193363588479
20
6.7763859320847057
30
0
10
1.0115742661629268
20
6.1353186070071741
30
0
0
SPLINE
5
374
100
AcDbEntity
8
0
100
AcDbSpline
70
4
71
3
72
8
73
4
74
0
42
0.000000001
43
0.0000000001
44
0.0000000001
40
-1
40
-1
40
-1
40
-1
40
0
40
0
40
0
40
0
41
1
41
1
41
1
41
1
10
1.0115742661629268
20
6.1353186070071741
30
0
10
1.1462912333396913
20
5.8128997566929126
30
0
10
1.1163084083251928
20
5.6123832229097008
30
0
10
0.90123143166503494
20
5.3973038113928773
30
0
0
SPLINE
5
375
100
AcDbEntity
8
0
100
AcDbSpline
70
4
71
3
72
8
73
4
74
0
42
0.000000001
43
0.0000000001
44
0.0000000001
40
-1
40
-1
40
-1
40
-1
40
0
40
0
40
0
40
0
41
1
41
1
41
1
41
1
10
1.6067177596180393
20
4.0330377935281732
30
0
10
2.1367020537704895
20
4.2595878148097626
30
0
10
2.412699144273649
20
4.7437614981748748
30
0
10
2.4058693713188273
20
5.4349503477711192
30
0
0
SPLINE
5
376
100
AcDbEntity
8
0
100
AcDbSpline
70
4
71
3
72
8
73
4
74
0
42
0.000000001
43
0.0000000001
44
0.0000000001
40
-1
40
-1
40
-1
40
-1
40
0
40
0
40
0
40
0
41
1
41
1
41
1
41
1
10
2.4058693713188273
20
5.4349503477711192
30
0
10
2.3986926312887613
20
6.1611220005503897
30
0
10
2.097314594874351
20
6.643198054895687
30
0
10
1.4741203351711052
20
6.9253589850548654
30
0
0
SPLINE
5
377
100
AcDbEntity
8
0
100
AcDbSpline
70
4
71
3
72
8
73
4
74
0
42
0.000000001
43
0.0000000001
44
0.0000000001
40
-1
40
-1
40
-1
40
-1
40
0
40
0
40
0
40
0
41
1
41
1
41
1
41
1
10
1.4741203351711052
20
6.9253589850548654
30
0
10
0.67582092330425114
20
7.2868012831933404
30
0
10
-0.22240257137647212
20
6.978127198772115
30
0
10
-0.55405318074891685
20
6.2283812637295348
30
0
0
SPLINE
5
378
100
AcDbEntity
8
0
100
AcDbSpline
70
4
71
3
72
8
73
4
74
0
42
0.000000001
43
0.0000000001
44
0.0000000001
40
-1
40
-1
40
-1
40
-1
40
0
40
0
40
0
40
0
41
1
41
1
41
1
41
1
10
-0.55405318074891685
20
6.2283812637295348
30
0
10
-0.68593597476368062
20
5.9302354995424071
30
0
10
-0.71175519487523875
20
5.3458869431265814
30
0
10
-0.60832613588722717
20
5.0000252928091049
30
0
0
SPLINE
5
379
100
AcDbEntity
8
0
100
AcDbSpline
70
4
71
3
72
8
73
4
74
0
42
0.000000001
43
0.0000000001
44
0.0000000001
40
-1
40
-1
40
-1
40
-1
40
0
40
0
40
0
40
0
41
1
41
1
41
1
41
1
10
-0.60832613588722717
20
5.0000252928091049
30
0
10
-0.44325137576903595
20
4.4480213723761119
30
0
10
0.0085825413265805395
20
4.0122465524368316
30
0
10
0.52755763105292619
20
3.9045151017157842
30
0
0
SPLINE
5
380
100
AcDbEntity
8
0
100
AcDbSpline
70
4
71
3
72
8
73
4
74
0
42
0.000000001
43
0.0000000001
44
0.0000000001
40
-1
40
-1
40
-1
40
-1
40
0
40
0
40
0
40
0
41
1
41
1
41
1
41
1
10
0.52755763105292619
20
3.9045151017157842
30
0
10
0.81330267022796665
20
3.8451959061322438
30
0
10
1.3039993346076839
20
3.9036373358868293
30
0
10
1.6067177596180393
20
4.0330377935281732
30
0
0
SPLINE
5
381
100
AcDbEntity
8
0
100
AcDbSpline
70
4
71
3
72
8
73
4
74
0
42
0.000000001
43
0.0000000001
44
0.0000000001
40
-1
40
-1
40
-1
40
-1
40
0
40
0
40
0
40
0
41
1
41
1
41
1
41
1
10
2.8940045664834013
20
3.8734098077771595
30
0
10
2.2831270292371841
20
3.8772130538931782
30
0
10
1.6681309319363913
20
3.4869140519493325
30
0
10
1.4267477638309978
20
2.9422366152315105
30
0
0
SPLINE
5
382
100
AcDbEntity
8
0
100
AcDbSpline
70
4
71
3
72
8
73
4
74
0
42
0.000000001
43
0.0000000001
44
0.0000000001
40
-1
40
-1
40
-1
40
-1
40
0
40
0
40
0
40
0
41
1
41
1
41
1
41
1
10
3.7221711476730035
20
1.0169917952541452
30
0
10
3.5000428261012062
20
0.88141897595844565
30
0
10
3.3762498433671517
20
0.84866528405532549
30
0
10
3.0185060925079554
20
0.83080074067937826
30
0
0
SPLINE
5
383
100
AcDbEntity
8
0
100
AcDbSpline
70
4
71
3
72
8
73
4
74
0
42
0.000000001
43
0.0000000001
44
0.0000000001
40
-1
40
-1
40
-1
40
-1
40
0
40
0
40
0
40
0
41
1
41
1
41
1
41
1
10
3.0185060925079554
20
0.83080074067937826
30
0
10
2.64696522633735
20
0.81224956772295354
30
0
10
2.5438173932945385
20
0.82876520050461089
30
0
10
2.3029248488078258
20
0.94537048635358722
30
0
0
SPLINE
5
384
100
AcDbEntity
8
0
100
AcDbSpline
70
4
71
3
72
8
73
4
74
0
42
0.000000001
43
0.0000000001
44
0.0000000001
40
-1
40
-1
40
-1
40
-1
40
0
40
0
40
0
40
0
41
1
41
1
41
1
41
1
10
2.3029248488078258
20
0.94537048635358722
30
0
10
1.9662840006935234
20
1.1083257037419525
30
0
10
1.8139143226709664
20
1.2642855779220419
30
0
10
1.6602858237508533
20
1.6031543198879161
30
0
0
SPLINE
5
385
100
AcDbEntity
8
0
100
AcDbSpline
70
4
71
3
72
8
73
4
74
0
42
0.000000001
43
0.0000000001
44
0.0000000001
40
-1
40
-1
40
-1
40
-1
40
0
40
0
40
0
40
0
41
1
41
1
41
1
41
1
10
1.6602858237508533
20
1.6031543198879161
30
0
10
1.5155384645286762
20
1.9224395096699665
30
0
10
1.5126422025216302
20
2.2539379405006388
30
0
10
1.6514132060512554
20
2.6191518316184448
30
0
0
SPLINE
5
386
100
AcDbEntity
8
0
100
AcDbSpline
70
4
71
3
72
8
73
4
74
0
42
0.000000001
43
0.0000000001
44
0.0000000001
40
-1
40
-1
40
-1
40
-1
40
0
40
0
40
0
40
0
41
1
41
1
41
1
41
1
10
1.6514132060512554
20
2.6191518316184448
30
0
10
1.8066779286525247
20
3.0277767822768942
30
0
10
2.0041484567435863
20
3.2592208654619359
30
0
10
2.3405519063327196
20
3.42685952965194
30
0
0
SPLINE
5
387
100
AcDbEntity
8
0
100
AcDbSpline
70
4
71
3
72
8
73
4
74
0
42
0.000000001
43
0.0000000001
44
0.0000000001
40
-1
40
-1
40
-1
40
-1
40
0
40
0
40
0
40
0
41
1
41
1
41
1
41
1
10
2.3405519063327196
20
3.42685952965194
30
0
10
2.6822657783156023
20
3.5971424481838077
30
0
10
2.9338302995798493
20
3.6105487689999394
30
0
10
3.3197684732306154
20
3.479047030053779
30
0
0
SPLINE
5
388
100
AcDbEntity
8
0
100
AcDbSpline
70
4
71
3
72
8
73
4
74
0
42
0.000000001
43
0.0000000001
44
0.0000000001
40
-1
40
-1
40
-1
40
-1
40
0
40
0
40
0
40
0
41
1
41
1
41
1
41
1
10
3.3197684732306154
20
3.479047030053779
30
0
10
3.6769327282027375
20
3.3573492414828721
30
0
10
4.1374079516144562
20
2.9048433039467803
30
0
10
4.2328689421551751
20
2.5817524331920438
30
0
0
SPLINE
5
389
100
AcDbEntity
8
0
100
AcDbSpline
70
4
71
3
72
8
73
4
74
0
42
0.000000001
43
0.0000000001
44
0.0000000001
40
-1
40
-1
40
-1
40
-1
40
0
40
0
40
0
40
0
41
1
41
1
41
1
41
1
10
4.2328689421551751
20
2.5817524331920438
30
0
10
4.4184220642828205
20
1.9537395921420631
30
0
10
4.2098327632155801
20
1.3146286743975821
30
0
10
3.7221711476730035
20
1.0169917952541452
30
0
0
SPLINE
5
390
100
AcDbEntity
8
0
100
AcDbSpline
70
4
71
3
72
8
73
4
74
0
42
0.000000001
43
0.0000000001
44
0.0000000001
40
-1
40
-1
40
-1
40
-1
40
0
40
0
40
0
40
0
41
1
41
1
41
1
41
1
10
4.5578979588179465
20
1.7111718662675024
30
0
10
4.8417024172282837
20
2.8189744312511666
30
0
10
4.0357599902793666
20
3.8662927217354692
30
0
10
2.8940045664834013
20
3.8734098077771595
30
0
0
SPLINE
5
391
100
AcDbEntity
8
0
100
AcDbSpline
70
4
71
3
72
8
73
4
74
0
42
0.000000001
43
0.0000000001
44
0.0000000001
40
-1
40
-1
40
-1
40
-1
40
0
40
0
40
0
40
0
41
1
41
1
41
1
41
1
10
2.8940045664834013
20
3.8734098077771595
30
0
10
2.2831270292371841
20
3.8772130538931782
30
0
10
1.6681309319363913
20
3.4869140519493325
30
0
10
1.4267477638309978
20
2.9422366152315105
30
0
0
SPLINE
5
392
100
AcDbEntity
8
0
100
AcDbSpline
70
4
71
3
72
8
73
4
74
0
42
0.000000001
43
0.0000000001
44
0.0000000001
40
-1
40
-1
40
-1
40
-1
40
0
40
0
40
0
40
0
41
1
41
1
41
1
41
1
10
1.4267477638309978
20
2.9422366152315105
30
0
10
1.2552522866782723
20
2.5552624100683441
30
0
10
1.2382642917029485
20
1.821621834458802
30
0
10
1.3915859986828449
20
1.4237832988413013
30
0
0
SPLINE
5
393
100
AcDbEntity
8
0
100
AcDbSpline
70
4
71
3
72
8
73
4
74
0
42
0.000000001
43
0.0000000001
44
0.0000000001
40
-1
40
-1
40
-1
40
-1
40
0
40
0
40
0
40
0
41
1
41
1
41
1
41
1
10
1.3915859986828449
20
1.4237832988413013
30
0
10
1.567582308387081
20
0.96710645183226696
30
0
10
2.0229845079302144
20
0.64306598697685846
30
0
10
2.6387889776449125
20
0.53634134948818968
30
0
0
SPLINE
5
394
100
AcDbEntity
8
0
100
AcDbSpline
70
4
71
3
72
8
73
4
74
0
42
0.000000001
43
0.0000000001
44
0.0000000001
40
-1
40
-1
40
-1
40
-1
40
0
40
0
40
0
40
0
41
1
41
1
41
1
41
1
10
2.6387889776449125
20
0.53634134948818968
30
0
10
3.5813195591202462
20
0.37299168531954585
30
0
10
4.3329537255091584
20
0.83312359394101865
30
0
10
4.5578979588179465
20
1.7111718662675024
30
0
0
ENDSEC
0
SECTION
2
OBJECTS
0
DICTIONARY
5
C
100
AcDbDictionary
3
ACAD_GROUP
350
D
3
ACAD_MLINESTYLE
350
17
0
DICTIONARY
5
D
100
AcDbDictionary
0
DICTIONARY
5
1A
330
C
100
AcDbDictionary
0
DICTIONARY
5
17
100
AcDbDictionary
0
ENDSEC
0
EOF
