0
SECTION
2
HEADER
9
$INSUNITS
70
4
9
$ACADVER
1
AC1014
9
$HANDSEED
5
FFFF
0
ENDSEC
0
SECTION
2
TABLES
0
TABLE
2
VPORT
5
8
100
AcDbSymbolTable
0
ENDTAB
0
TABLE
2
LTYPE
5
5
100
AcDbSymbolTable
0
LTYPE
5
14
100
AcDbSymbolTableRecord
100
AcDbLinetypeTableRecord
2
BYBLOCK
70
0
0
LTYPE
5
15
100
AcDbSymbolTableRecord
100
AcDbLinetypeTableRecord
2
BYLAYER
70
0
0
ENDTAB
0
TABLE
2
LAYER
5
2
100
AcDbSymbolTable
70
2
0
LAYER
5
50
100
AcDbSymbolTableRecord
100
AcDbLayerTableRecord
2
0
70
0
6
CONTINUOUS
0
ENDTAB
0
TABLE
2
STYLE
5
3
100
AcDbSymbolTable
70
1
0
STYLE
5
11
100
AcDbSymbolTableRecord
100
AcDbTextStyleTableRecord
2
STANDARD
70
0
0
ENDTAB
0
TABLE
2
VIEW
5
6
100
AcDbSymbolTable
70
0
0
ENDTAB
0
TABLE
2
UCS
5
7
100
AcDbSymbolTable
70
0
0
ENDTAB
0
TABLE
2
APPID
5
9
100
AcDbSymbolTable
70
2
0
APPID
5
12
100
AcDbSymbolTableRecord
100
AcDbRegAppTableRecord
2
ACAD
70
0
0
ENDTAB
0
TABLE
2
DIMSTYLE
5
A
100
AcDbSymbolTable
70
1
0
ENDTAB
0
TABLE
2
BLOCK_RECORD
5
1
100
AcDbSymbolTable
70
1
0
BLOCK_RECORD
5
1F
100
AcDbSymbolTableRecord
100
AcDbBlockTableRecord
2
*MODEL_SPACE
0
BLOCK_RECORD
5
1B
100
AcDbSymbolTableRecord
100
AcDbBlockTableRecord
2
*PAPER_SPACE
0
ENDTAB
0
ENDSEC
0
SECTION
2
BLOCKS
0
BLOCK
5
20
100
AcDbEntity
100
AcDbBlockBegin
2
*MODEL_SPACE
0
ENDBLK
5
21
100
AcDbEntity
100
AcDbBlockEnd
0
BLOCK
5
1C
100
AcDbEntity
100
AcDbBlockBegin
2
*PAPER_SPACE
0
ENDBLK
5
1D
100
AcDbEntity
100
AcDbBlockEnd
0
ENDSEC
0
SECTION
2
ENTITIES
0
CIRCLE
5
100
100
AcDbEntity
8
0
100
AcDbCircle
10
0
20
0
30
0
40
20.684999999999999
210
0
220
-0
230
1
0
LWPOLYLINE
5
101
100
AcDbEntity
8
0
100
AcDbPolyline
90
8
70
1
43
0.0
10
-18.060822820097421
20
-7.8298086861077376
42
0.56502397880837807
10
-14.664806964496398
20
-8.2845694080185126
42
-0.45861202855152028
10
-7.0912547358069062
20
-8.0155486949308337
42
0.39342646008748006
10
-4.3733405668804384
20
-8.2192985209961584
42
-0.35082988103369223
10
4.3733405668804375
20
-8.2192985209961602
42
0.39342646008747967
10
7.0912547358069045
20
-8.0155486949308354
42
-0.45861202855152039
10
14.664806964496393
20
-8.2845694080185126
42
0.56502397880837807
10
18.060822820097417
20
-7.8298086861077412
42
1.5234526665911516
0
CIRCLE
5
102
100
AcDbEntity
8
0
100
AcDbCircle
10
0
20
-13.684999985098836
30
0
40
6.0000000000000009
210
0
220
0
230
1
0
CIRCLE
5
103
100
AcDbEntity
8
0
100
AcDbCircle
10
7.6245580763737788
20
-16.799570721358347
30
0
40
1.2361663706911474
210
0
220
0
230
1
0
CIRCLE
5
104
100
AcDbEntity
8
0
100
AcDbCircle
10
-10.762225485084318
20
-11.410246605932821
30
0
40
4
210
0
220
0
230
1
0
CIRCLE
5
105
100
AcDbEntity
8
0
100
AcDbCircle
10
-7.6245580763737788
20
-16.799570721358347
30
0
40
1.2361663706911485
210
0
220
0
230
1
0
CIRCLE
5
106
100
AcDbEntity
8
0
100
AcDbCircle
10
10.762225485084315
20
-11.410246605932821
30
0
40
3.9999999999999991
210
0
220
0
230
1
0
CIRCLE
5
107
100
AcDbEntity
8
0
100
AcDbCircle
10
-1.1102230246251565e-15
20
2.2204460492503131e-15
30
0
40
20.284999999999997
210
0
220
0
230
1
0
SPLINE
5
108
100
AcDbEntity
8
0
100
AcDbSpline
70
4
71
3
72
8
73
4
74
0
42
0.000000001
43
0.0000000001
44
0.0000000001
40
-0.99999506012720296
40
-0.99999506012720296
40
-0.99999506012720296
40
-0.99999506012720296
40
0
40
0
40
0
40
0
41
1
41
1
41
1
41
1
10
8.4053655177805435
20
-13.267672254077594
30
0
10
8.5181671504721219
20
-13.411076627011349
30
0
10
8.5471544697905859
20
-13.417612551292816
30
0
10
9.0703516424427271
20
-13.417612551292816
30
0
0
SPLINE
5
109
100
AcDbEntity
8
0
100
AcDbSpline
70
4
71
3
72
8
73
4
74
0
42
0.000000001
43
0.0000000001
44
0.0000000001
40
-1
40
-1
40
-1
40
-1
40
0
40
0
40
0
40
0
41
1
41
1
41
1
41
1
10
9.0703516424427271
20
-13.417612551292816
30
0
10
9.5536932644436003
20
-13.417612551292816
30
0
10
9.6327325091335716
20
-13.403203707885186
30
0
10
9.749103592741525
20
-13.293879208995826
30
0
0
SPLINE
5
110
100
AcDbEntity
8
0
100
AcDbSpline
70
4
71
3
72
8
73
4
74
0
42
0.000000001
43
0.0000000001
44
0.0000000001
40
-1
40
-1
40
-1
40
-1
40
0
40
0
40
0
40
0
41
1
41
1
41
1
41
1
10
9.749103592741525
20
-13.293879208995826
30
0
10
9.8468942330801905
20
-13.202009943005443
30
0
10
9.8808115469596363
20
-13.107571868774141
30
0
10
9.8808115469596363
20
-12.927158315347448
30
0
0
SPLINE
5
111
100
AcDbEntity
8
0
100
AcDbSpline
70
4
71
3
72
8
73
4
74
0
42
0.000000001
43
0.0000000001
44
0.0000000001
40
-1
40
-1
40
-1
40
-1
40
0
40
0
40
0
40
0
41
1
41
1
41
1
41
1
10
9.8808115469596363
20
-12.927158315347448
30
0
10
9.8808115469596363
20
-12.563957774401043
30
0
10
10.056930487172306
20
-12.386547193988363
30
0
10
10.453228403733936
20
-12.350545889197985
30
0
0
SPLINE
5
112
100
AcDbEntity
8
0
100
AcDbSpline
70
4
71
3
72
8
73
4
74
0
42
0.000000001
43
0.0000000001
44
0.0000000001
40
-1
40
-1
40
-1
40
-1
40
0
40
0
40
0
40
0
41
1
41
1
41
1
41
1
10
10.453228403733936
20
-12.350545889197985
30
0
10
10.803512090425302
20
-12.318725229368685
30
0
10
10.93940566440919
20
-12.227552436035168
30
0
10
10.991747393592583
20
-11.989239392074275
30
0
0
SPLINE
5
113
100
AcDbEntity
8
0
100
AcDbSpline
70
4
71
3
72
8
73
4
74
0
42
0.000000001
43
0.0000000001
44
0.0000000001
40
-1
40
-1
40
-1
40
-1
40
0
40
0
40
0
40
0
41
1
41
1
41
1
41
1
10
10.991747393592583
20
-11.989239392074275
30
0
10
11.037650368739737
20
-11.780243324417746
30
0
10
10.928028738333783
20
-11.442132080297526
30
0
10
10.790504785175866
20
-11.368530297135798
30
0
0
SPLINE
5
114
100
AcDbEntity
8
0
100
AcDbSpline
70
4
71
3
72
8
73
4
74
0
42
0.000000001
43
0.0000000001
44
0.0000000001
40
-1
40
-1
40
-1
40
-1
40
0
40
0
40
0
40
0
41
1
41
1
41
1
41
1
10
10.790504785175866
20
-11.368530297135798
30
0
10
10.731329031110715
20
-11.336861594977087
30
0
10
10.210309142883318
20
-11.312059932313097
30
0
10
9.6041486381388168
20
-11.312059932313097
30
0
0
LINE
5
115
100
AcDbEntity
8
0
100
AcDbLine
10
9.6041486381388168
20
-11.312059932313094
30
0
11
8.523307646362051
21
-11.312059932313097
31
0
0
LINE
5
116
100
AcDbEntity
8
0
100
AcDbLine
10
8.523307646362051
20
-11.312059932313097
30
0
11
8.4053636199615163
21
-11.462002354746922
31
0
0
SPLINE
5
117
100
AcDbEntity
8
0
100
AcDbSpline
70
4
71
3
72
8
73
4
74
0
42
0.000000001
43
0.0000000001
44
0.0000000001
40
-1
40
-1
40
-1
40
-1
40
0
40
0
40
0
40
0
41
1
41
1
41
1
41
1
10
8.4053636199615163
20
-11.462002354746922
30
0
10
8.2995413835752583
20
-11.59653373675518
30
0
10
8.2874195935609798
20
-11.689325602888431
30
0
10
8.2874195935609798
20
-12.364838955332797
30
0
0
SPLINE
5
118
100
AcDbEntity
8
0
100
AcDbSpline
70
4
71
3
72
8
73
4
74
0
42
0.000000001
43
0.0000000001
44
0.0000000001
40
-1
40
-1
40
-1
40
-1
40
0
40
0
40
0
40
0
41
1
41
1
41
1
41
1
10
8.2874195935609798
20
-12.364838955332797
30
0
10
8.2874195935609798
20
-13.040352307777162
30
0
10
8.2995413835752583
20
-13.133142364890521
30
0
10
8.4053636199615163
20
-13.267673746898772
30
0
0
SPLINE
5
119
100
AcDbEntity
8
0
100
AcDbSpline
70
4
71
3
72
8
73
4
74
0
42
0.000000001
43
0.0000000001
44
0.0000000001
40
-1
40
-1
40
-1
40
-1
40
0
40
0
40
0
40
0
41
1
41
1
41
1
41
1
10
8.2874189151785203
20
-9.953266200535392
30
0
10
8.2874189151785203
20
-10.433203699362089
30
0
10
8.3132261667727363
20
-10.855604416142132
30
0
10
8.3463280649376834
20
-10.917454806111632
30
0
0
SPLINE
5
120
100
AcDbEntity
8
0
100
AcDbSpline
70
4
71
3
72
8
73
4
74
0
42
0.000000001
43
0.0000000001
44
0.0000000001
40
-1
40
-1
40
-1
40
-1
40
0
40
0
40
0
40
0
41
1
41
1
41
1
41
1
10
8.3463280649376834
20
-10.917454806111632
30
0
10
8.3969666018965547
20
-11.012073782331729
30
0
10
8.4685911263207334
20
-11.027526430214717
30
0
10
8.8564875022676812
20
-11.027526430214717
30
0
0
SPLINE
5
121
100
AcDbEntity
8
0
100
AcDbSpline
70
4
71
3
72
8
73
4
74
0
42
0.000000001
43
0.0000000001
44
0.0000000001
40
-1
40
-1
40
-1
40
-1
40
0
40
0
40
0
40
0
41
1
41
1
41
1
41
1
10
8.8564875022676812
20
-11.027526430214717
30
0
10
9.2443838782146308
20
-11.027526430214717
30
0
10
9.3160084026388095
20
-11.012073782331729
30
0
10
9.3666469395976808
20
-10.917454806111632
30
0
0
SPLINE
5
122
100
AcDbEntity
8
0
100
AcDbSpline
70
4
71
3
72
8
73
4
74
0
42
0.000000001
43
0.0000000001
44
0.0000000001
40
-1
40
-1
40
-1
40
-1
40
0
40
0
40
0
40
0
41
1
41
1
41
1
41
1
10
9.3666469395976808
20
-10.917454806111632
30
0
10
9.3997483855076567
20
-10.855604416142132
30
0
10
9.4255558632293592
20
-10.433203699362089
30
0
10
9.4255558632293592
20
-9.953266200535392
30
0
0
SPLINE
5
123
100
AcDbEntity
8
0
100
AcDbSpline
70
4
71
3
72
8
73
4
74
0
42
0.000000001
43
0.0000000001
44
0.0000000001
40
-1
40
-1
40
-1
40
-1
40
0
40
0
40
0
40
0
41
1
41
1
41
1
41
1
10
9.4255558632293592
20
-9.953266200535392
30
0
10
9.4255558632293592
20
-8.9516136975893588
30
0
10
9.4092005144222703
20
-8.9219738112350022
30
0
10
8.8564875022676812
20
-8.9219738112350022
30
0
0
SPLINE
5
124
100
AcDbEntity
8
0
100
AcDbSpline
70
4
71
3
72
8
73
4
74
0
42
0.000000001
43
0.0000000001
44
0.0000000001
40
-1
40
-1
40
-1
40
-1
40
0
40
0
40
0
40
0
41
1
41
1
41
1
41
1
10
8.8564875022676812
20
-8.9219738112350022
30
0
10
8.3037742639856091
20
-8.9219738112350022
30
0
10
8.2874189151785203
20
-8.9516136975893588
30
0
10
8.2874189151785203
20
-9.953266200535392
30
0
0
SPLINE
5
125
100
AcDbEntity
8
0
100
AcDbSpline
70
4
71
3
72
8
73
4
74
0
42
0.000000001
43
0.0000000001
44
0.0000000001
40
-1
40
-1
40
-1
40
-1
40
0
40
0
40
0
40
0
41
1
41
1
41
1
41
1
10
9.7187287920576839
20
-10.97716331653379
30
0
10
9.8368989459442151
20
-11.05205131283585
30
0
10
10.587514211292399
20
-11.037848697695448
30
0
10
10.666125170523895
20
-10.959237738463944
30
0
0
SPLINE
5
126
100
AcDbEntity
8
0
100
AcDbSpline
70
4
71
3
72
8
73
4
74
0
42
0.000000001
43
0.0000000001
44
0.0000000001
40
-1
40
-1
40
-1
40
-1
40
0
40
0
40
0
40
0
41
1
41
1
41
1
41
1
10
10.666125170523895
20
-10.959237738463944
30
0
10
10.772250869996359
20
-10.853113395756399
30
0
10
10.761581270697143
20
-8.787736394958543
30
0
10
10.654447947147085
20
-8.6988230674650868
30
0
0
SPLINE
5
127
100
AcDbEntity
8
0
100
AcDbSpline
70
4
71
3
72
8
73
4
74
0
42
0.000000001
43
0.0000000001
44
0.0000000001
40
-1
40
-1
40
-1
40
-1
40
0
40
0
40
0
40
0
41
1
41
1
41
1
41
1
10
10.654447947147085
20
-8.6988230674650868
30
0
10
10.604314578991922
20
-8.6572174190617943
30
0
10
10.408744604688888
20
-8.6386948644289241
30
0
10
10.130228807247823
20
-8.6491754211498453
30
0
0
LINE
5
128
100
AcDbEntity
8
0
100
AcDbLine
10
10.130228807247823
20
-8.6491754211498453
30
0
11
9.6859755824761447
21
-8.6658925739345314
31
0
0
LINE
5
129
100
AcDbEntity
8
0
100
AcDbLine
10
9.6859755824761447
20
-8.6658925739345314
30
0
11
9.6426341794903472
21
-8.865066568109361
31
0
0
SPLINE
5
130
100
AcDbEntity
8
0
100
AcDbSpline
70
4
71
3
72
8
73
4
74
0
42
0.000000001
43
0.0000000001
44
0.0000000001
40
-1
40
-1
40
-1
40
-1
40
0
40
0
40
0
40
0
41
1
41
1
41
1
41
1
10
9.6426341794903472
20
-8.865066568109361
30
0
10
9.5681658758022898
20
-9.2072842873752627
30
0
10
9.6299027497738248
20
-10.920872044679996
30
0
10
9.7187287920576839
20
-10.97716331653379
30
0
0
SPLINE
5
131
100
AcDbEntity
8
0
100
AcDbSpline
70
4
71
3
72
8
73
4
74
0
42
0.000000001
43
0.0000000001
44
0.0000000001
40
-1
40
-1
40
-1
40
-1
40
0
40
0
40
0
40
0
41
1
41
1
41
1
41
1
10
12.065819032948589
20
-14.180722264752198
30
0
10
12.084919117180686
20
-14.130948891554741
30
0
10
12.085838099283773
20
-14.066428388230609
30
0
10
12.06786186865707
20
-14.037342966471908
30
0
0
SPLINE
5
132
100
AcDbEntity
8
0
100
AcDbSpline
70
4
71
3
72
8
73
4
74
0
42
0.000000001
43
0.0000000001
44
0.0000000001
40
-1
40
-1
40
-1
40
-1
40
0
40
0
40
0
40
0
41
1
41
1
41
1
41
1
10
12.06786186865707
20
-14.037342966471908
30
0
10
12.010900807189762
20
-13.945178830239783
30
0
10
12.161365131861261
20
-13.590048327013594
30
0
10
12.285530377656508
20
-13.523597599468996
30
0
0
SPLINE
5
133
100
AcDbEntity
8
0
100
AcDbSpline
70
4
71
3
72
8
73
4
74
0
42
0.000000001
43
0.0000000001
44
0.0000000001
40
-1
40
-1
40
-1
40
-1
40
0
40
0
40
0
40
0
41
1
41
1
41
1
41
1
10
12.285530377656508
20
-13.523597599468996
30
0
10
12.351163428211747
20
-13.488473669324271
30
0
10
12.546419989819192
20
-13.461005511345427
30
0
10
12.71943374739417
20
-13.462559459429183
30
0
0
SPLINE
5
134
100
AcDbEntity
8
0
100
AcDbSpline
70
4
71
3
72
8
73
4
74
0
42
0.000000001
43
0.0000000001
44
0.0000000001
40
-1
40
-1
40
-1
40
-1
40
0
40
0
40
0
40
0
41
1
41
1
41
1
41
1
10
12.71943374739417
20
-13.462559459429183
30
0
10
13.054201922761436
20
-13.465567859502872
30
0
10
13.315709315215862
20
-13.366974466588918
30
0
10
13.373684784585347
20
-13.215892361625677
30
0
0
SPLINE
5
135
100
AcDbEntity
8
0
100
AcDbSpline
70
4
71
3
72
8
73
4
74
0
42
0.000000001
43
0.0000000001
44
0.0000000001
40
-1
40
-1
40
-1
40
-1
40
0
40
0
40
0
40
0
41
1
41
1
41
1
41
1
10
13.373684784585347
20
-13.215892361625677
30
0
10
13.393126321321297
20
-13.165227141623458
30
0
10
13.409033937706116
20
-12.775406873025656
30
0
10
13.409033937706116
20
-12.349626907094894
30
0
0
SPLINE
5
136
100
AcDbEntity
8
0
100
AcDbSpline
70
4
71
3
72
8
73
4
74
0
42
0.000000001
43
0.0000000001
44
0.0000000001
40
-1
40
-1
40
-1
40
-1
40
0
40
0
40
0
40
0
41
1
41
1
41
1
41
1
10
13.409033937706116
20
-12.349626907094894
30
0
10
13.409033937706116
20
-11.284146755441803
30
0
10
13.437696048811025
20
-11.31206174133299
30
0
10
12.34375096922081
20
-11.31206174133299
30
0
0
SPLINE
5
137
100
AcDbEntity
8
0
100
AcDbSpline
70
4
71
3
72
8
73
4
74
0
42
0.000000001
43
0.0000000001
44
0.0000000001
40
-1
40
-1
40
-1
40
-1
40
0
40
0
40
0
40
0
41
1
41
1
41
1
41
1
10
12.34375096922081
20
-11.31206174133299
30
0
10
11.551328349751827
20
-11.31206174133299
30
0
10
11.521598012403075
20
-11.316399771024329
30
0
10
11.386254832720102
20
-11.451743402962279
30
0
0
SPLINE
5
138
100
AcDbEntity
8
0
100
AcDbSpline
70
4
71
3
72
8
73
4
74
0
42
0.000000001
43
0.0000000001
44
0.0000000001
40
-1
40
-1
40
-1
40
-1
40
0
40
0
40
0
40
0
41
1
41
1
41
1
41
1
10
11.386254832720102
20
-11.451743402962279
30
0
10
11.265056831796088
20
-11.572940499376344
30
0
10
11.246574075600755
20
-11.643161224367461
30
0
10
11.246574075600755
20
-11.98243747729553
30
0
0
SPLINE
5
139
100
AcDbEntity
8
0
100
AcDbSpline
70
4
71
3
72
8
73
4
74
0
42
0.000000001
43
0.0000000001
44
0.0000000001
40
-1
40
-1
40
-1
40
-1
40
0
40
0
40
0
40
0
41
1
41
1
41
1
41
1
10
11.246574075600755
20
-11.98243747729553
30
0
10
11.246574075600755
20
-12.325416793934266
30
0
10
11.229183967417754
20
-12.389790766647483
30
0
10
11.105022339662284
20
-12.506434560003544
30
0
0
SPLINE
5
140
100
AcDbEntity
8
0
100
AcDbSpline
70
4
71
3
72
8
73
4
74
0
42
0.000000001
43
0.0000000001
44
0.0000000001
40
-1
40
-1
40
-1
40
-1
40
0
40
0
40
0
40
0
41
1
41
1
41
1
41
1
10
11.105022339662284
20
-12.506434560003544
30
0
10
11.005300570593214
20
-12.600120081961453
30
0
10
10.902474523396396
20
-12.637125392789649
30
0
10
10.75706007774215
20
-12.631656725668336
30
0
0
SPLINE
5
141
100
AcDbEntity
8
0
100
AcDbSpline
70
4
71
3
72
8
73
4
74
0
42
0.000000001
43
0.0000000001
44
0.0000000001
40
-1
40
-1
40
-1
40
-1
40
0
40
0
40
0
40
0
41
1
41
1
41
1
41
1
10
10.75706007774215
20
-12.631656725668336
30
0
10
10.365609882225293
20
-12.616938539859856
30
0
10
10.169868503287871
20
-12.80363301033756
30
0
10
10.16715361669101
20
-13.194296282203158
30
0
0
SPLINE
5
142
100
AcDbEntity
8
0
100
AcDbSpline
70
4
71
3
72
8
73
4
74
0
42
0.000000001
43
0.0000000001
44
0.0000000001
40
-1
40
-1
40
-1
40
-1
40
0
40
0
40
0
40
0
41
1
41
1
41
1
41
1
10
10.16715361669101
20
-13.194296282203158
30
0
10
10.165219322175805
20
-13.472612182946605
30
0
10
10.022953927891528
20
-13.670437552794962
30
0
10
9.7954493255062562
20
-13.711162208512814
30
0
0
SPLINE
5
143
100
AcDbEntity
8
0
100
AcDbSpline
70
4
71
3
72
8
73
4
74
0
42
0.000000001
43
0.0000000001
44
0.0000000001
40
-1
40
-1
40
-1
40
-1
40
0
40
0
40
0
40
0
41
1
41
1
41
1
41
1
10
9.7954493255062562
20
-13.711162208512814
30
0
10
9.7132831899399399
20
-13.725869540201966
30
0
10
9.6765650610189518
20
-13.784338872000866
30
0
10
9.6633994665293201
20
-13.921433635190365
30
0
0
SPLINE
5
144
100
AcDbEntity
8
0
100
AcDbSpline
70
4
71
3
72
8
73
4
74
0
42
0.000000001
43
0.0000000001
44
0.0000000001
40
-1
40
-1
40
-1
40
-1
40
0
40
0
40
0
40
0
41
1
41
1
41
1
41
1
10
9.6633994665293201
20
-13.921433635190365
30
0
10
9.6533693557604998
20
-14.02587739842199
30
0
10
9.6589678200587787
20
-14.147306049381715
30
0
10
9.6758400962988507
20
-14.191274277758698
30
0
0
SPLINE
5
145
100
AcDbEntity
8
0
100
AcDbSpline
70
4
71
3
72
8
73
4
74
0
42
0.000000001
43
0.0000000001
44
0.0000000001
40
-1
40
-1
40
-1
40
-1
40
0
40
0
40
0
40
0
41
1
41
1
41
1
41
1
10
9.6758400962988507
20
-14.191274277758698
30
0
10
9.7007991436930965
20
-14.256317587830466
30
0
10
9.9231620593018004
20
-14.271218484647626
30
0
10
10.868805497496572
20
-14.271218484647626
30
0
0
SPLINE
5
146
100
AcDbEntity
8
0
100
AcDbSpline
70
4
71
3
72
8
73
4
74
0
42
0.000000001
43
0.0000000001
44
0.0000000001
40
-1
40
-1
40
-1
40
-1
40
0
40
0
40
0
40
0
41
1
41
1
41
1
41
1
10
10.868805497496572
20
-14.271218484647626
30
0
10
11.878768637807923
20
-14.271218484647626
30
0
10
12.03564458121734
20
-14.259358550262128
30
0
10
12.065819032948589
20
-14.180722264752198
30
0
0
SPLINE
5
147
100
AcDbEntity
8
0
100
AcDbSpline
70
4
71
3
72
8
73
4
74
0
42
0.000000001
43
0.0000000001
44
0.0000000001
40
-1
40
-1
40
-1
40
-1
40
0
40
0
40
0
40
0
41
1
41
1
41
1
41
1
10
11.017539042390263
20
-10.881554806434973
30
0
10
11.070721061311616
20
-11.021433651232048
30
0
10
11.092010964118098
20
-11.027524621194832
30
0
10
11.527698479720264
20
-11.027524621194832
30
0
0
SPLINE
5
148
100
AcDbEntity
8
0
100
AcDbSpline
70
4
71
3
72
8
73
4
74
0
42
0.000000001
43
0.0000000001
44
0.0000000001
40
-1
40
-1
40
-1
40
-1
40
0
40
0
40
0
40
0
41
1
41
1
41
1
41
1
10
11.527698479720264
20
-11.027524621194832
30
0
10
11.918966416483405
20
-11.027524621194832
30
0
10
11.990572850708702
20
-11.012176896465341
30
0
10
12.04126837179405
20
-10.917452997091747
30
0
0
SPLINE
5
149
100
AcDbEntity
8
0
100
AcDbSpline
70
4
71
3
72
8
73
4
74
0
42
0.000000001
43
0.0000000001
44
0.0000000001
40
-1
40
-1
40
-1
40
-1
40
0
40
0
40
0
40
0
41
1
41
1
41
1
41
1
10
12.04126837179405
20
-10.917452997091747
30
0
10
12.127776607346451
20
-10.755811643042449
30
0
10
12.119453759096906
20
-8.793290990524536
30
0
10
12.031889055929931
20
-8.7057262873575603
30
0
0
SPLINE
5
150
100
AcDbEntity
8
0
100
AcDbSpline
70
4
71
3
72
8
73
4
74
0
42
0.000000001
43
0.0000000001
44
0.0000000001
40
-1
40
-1
40
-1
40
-1
40
0
40
0
40
0
40
0
41
1
41
1
41
1
41
1
10
12.031889055929931
20
-8.7057262873575603
30
0
10
11.990412752448623
20
-8.6642499838762532
30
0
10
11.788773516421468
20
-8.6374385001167333
30
0
10
11.518319163856141
20
-8.6374385001167333
30
0
0
SPLINE
5
151
100
AcDbEntity
8
0
100
AcDbSpline
70
4
71
3
72
8
73
4
74
0
42
0.000000001
43
0.0000000001
44
0.0000000001
40
-1
40
-1
40
-1
40
-1
40
0
40
0
40
0
40
0
41
1
41
1
41
1
41
1
10
11.518319163856141
20
-8.6374385001167333
30
0
10
11.092700652950388
20
-8.6374385001167333
30
0
10
11.070586289329963
20
-8.6438840379775517
30
0
10
11.017539042390263
20
-8.7834101238964735
30
0
0
SPLINE
5
152
100
AcDbEntity
8
0
100
AcDbSpline
70
4
71
3
72
8
73
4
74
0
42
0.000000001
43
0.0000000001
44
0.0000000001
40
-1
40
-1
40
-1
40
-1
40
0
40
0
40
0
40
0
41
1
41
1
41
1
41
1
10
11.017539042390263
20
-8.7834101238964735
30
0
10
10.987014545310698
20
-8.86369442652434
30
0
10
10.962040573502376
20
-9.335777160997484
30
0
10
10.962040573502376
20
-9.8324815606557827
30
0
0
SPLINE
5
153
100
AcDbEntity
8
0
100
AcDbSpline
70
4
71
3
72
8
73
4
74
0
42
0.000000001
43
0.0000000001
44
0.0000000001
40
-1
40
-1
40
-1
40
-1
40
0
40
0
40
0
40
0
41
1
41
1
41
1
41
1
10
10.962040573502376
20
-9.8324815606557827
30
0
10
10.962040573502376
20
-10.329188673843909
30
0
10
10.987014545310698
20
-10.801270503807107
30
0
10
11.017539042390263
20
-10.881554806434973
30
0
0
SPLINE
5
154
100
AcDbEntity
8
0
100
AcDbSpline
70
4
71
3
72
8
73
4
74
0
42
0.000000001
43
0.0000000001
44
0.0000000001
40
-1
40
-1
40
-1
40
-1
40
0
40
0
40
0
40
0
41
1
41
1
41
1
41
1
10
12.339185907533533
20
-10.959237738463944
30
0
10
12.38057356904033
20
-11.000626304480686
30
0
10
12.581543919963911
20
-11.027526430214717
30
0
10
12.849345797118508
20
-11.027526430214717
30
0
0
SPLINE
5
155
100
AcDbEntity
8
0
100
AcDbSpline
70
4
71
3
72
8
73
4
74
0
42
0.000000001
43
0.0000000001
44
0.0000000001
40
-1
40
-1
40
-1
40
-1
40
0
40
0
40
0
40
0
41
1
41
1
41
1
41
1
10
12.849345797118508
20
-11.027526430214717
30
0
10
13.227969137119754
20
-11.027526430214717
30
0
10
13.299647932140566
20
-11.011771676010436
30
0
10
13.350125918584386
20
-10.917454806111632
30
0
0
SPLINE
5
156
100
AcDbEntity
8
0
100
AcDbSpline
70
4
71
3
72
8
73
4
74
0
42
0.000000001
43
0.0000000001
44
0.0000000001
40
-1
40
-1
40
-1
40
-1
40
0
40
0
40
0
40
0
41
1
41
1
41
1
41
1
10
13.350125918584386
20
-10.917454806111632
30
0
10
13.382998523478529
20
-10.856031344835685
30
0
10
13.409034842216059
20
-10.441040373516749
30
0
10
13.409034842216059
20
-9.9784920783631073
30
0
0
SPLINE
5
157
100
AcDbEntity
8
0
100
AcDbSpline
70
4
71
3
72
8
73
4
74
0
42
0.000000001
43
0.0000000001
44
0.0000000001
40
-1
40
-1
40
-1
40
-1
40
0
40
0
40
0
40
0
41
1
41
1
41
1
41
1
10
13.409034842216059
20
-9.9784920783631073
30
0
10
13.409034842216062
20
-8.9728760128425478
30
0
10
13.382227881006262
20
-8.9219738112350022
30
0
10
12.852629168215168
20
-8.9219738112350022
30
0
0
SPLINE
5
158
100
AcDbEntity
8
0
100
AcDbSpline
70
4
71
3
72
8
73
4
74
0
42
0.000000001
43
0.0000000001
44
0.0000000001
40
-1
40
-1
40
-1
40
-1
40
0
40
0
40
0
40
0
41
1
41
1
41
1
41
1
10
12.852629168215168
20
-8.9219738112350022
30
0
10
12.281818268846409
20
-8.9219738112350022
30
0
10
12.270898120292713
20
-8.9421163431775419
30
0
10
12.270898120292708
20
-9.9950491328877114
30
0
0
SPLINE
5
159
100
AcDbEntity
8
0
100
AcDbSpline
70
4
71
3
72
8
73
4
74
0
42
0.000000001
43
0.0000000001
44
0.0000000001
40
-1
40
-1
40
-1
40
-1
40
0
40
0
40
0
40
0
41
1
41
1
41
1
41
1
10
12.270898120292708
20
-9.9950491328877114
30
0
10
12.270898120292708
20
-10.615985259822128
30
0
10
12.291856520204721
20
-10.911908351135132
30
0
10
12.339185907533533
20
-10.959237738463944
30
0
0
SPLINE
5
160
100
AcDbEntity
8
0
100
AcDbSpline
70
4
71
3
72
8
73
4
74
0
42
0.000000001
43
0.0000000001
44
0.0000000001
40
-1
40
-1
40
-1
40
-1
40
0
40
0
40
0
40
0
41
1
41
1
41
1
41
1
10
2.0969282881959472
20
-13.557029101967441
30
0
10
2.0969282881959472
20
-13.235515127584524
30
0
10
2.4863658557278701
20
-12.716419307448991
30
0
10
3.3480772057597008
20
-11.889328814598453
30
0
0
SPLINE
5
161
100
AcDbEntity
8
0
100
AcDbSpline
70
4
71
3
72
8
73
4
74
0
42
0.000000001
43
0.0000000001
44
0.0000000001
40
-1
40
-1
40
-1
40
-1
40
0
40
0
40
0
40
0
41
1
41
1
41
1
41
1
10
3.3480772057597008
20
-11.889328814598453
30
0
10
3.779320491559206
20
-11.475411853099962
30
0
10
4.0808327713114867
20
-11.156446083363715
30
0
10
4.0181082981997385
20
-11.180516468475052
30
0
0
SPLINE
5
162
100
AcDbEntity
8
0
100
AcDbSpline
70
4
71
3
72
8
73
4
74
0
42
0.000000001
43
0.0000000001
44
0.0000000001
40
-1
40
-1
40
-1
40
-1
40
0
40
0
40
0
40
0
41
1
41
1
41
1
41
1
10
4.0181082981997385
20
-11.180516468475052
30
0
10
3.5407723433211391
20
-11.36368640728525
30
0
10
2.3381102333672921
20
-11.7136164094447
30
0
10
1.9230976906003683
20
-11.790085169663399
30
0
0
SPLINE
5
163
100
AcDbEntity
8
0
100
AcDbSpline
70
4
71
3
72
8
73
4
74
0
42
0.000000001
43
0.0000000001
44
0.0000000001
40
-1
40
-1
40
-1
40
-1
40
0
40
0
40
0
40
0
41
1
41
1
41
1
41
1
10
1.9230976906003683
20
-11.790085169663399
30
0
10
0.98471521572937704
20
-11.96298892506984
30
0
10
0.80832418601761269
20
-11.754117456715164
30
0
10
0.32468863884549393
20
-9.897354201603811
30
0
0
LINE
5
164
100
AcDbEntity
8
0
100
AcDbLine
10
0.32468863884549415
20
-9.8973542016038127
30
0
11
0.044158696778833217
21
-8.8203541015297393
31
0
0
LINE
5
165
100
AcDbEntity
8
0
100
AcDbLine
10
0.044158696778833217
20
-8.8203541015297393
30
0
11
-0.013552513832264523
21
-9.2016399208235633
31
0
0
SPLINE
5
166
100
AcDbEntity
8
0
100
AcDbSpline
70
4
71
3
72
8
73
4
74
0
42
0.000000001
43
0.0000000001
44
0.0000000001
40
-1
40
-1
40
-1
40
-1
40
0
40
0
40
0
40
0
41
1
41
1
41
1
41
1
10
-0.013552513832264523
20
-9.2016399208235633
30
0
10
-0.093260942098636335
20
-9.7282767270949719
30
0
10
-0.41421000739001457
20
-10.818259954298771
30
0
10
-0.62777009892974966
20
-11.287608926090993
30
0
0
SPLINE
5
167
100
AcDbEntity
8
0
100
AcDbSpline
70
4
71
3
72
8
73
4
74
0
42
0.000000001
43
0.0000000001
44
0.0000000001
40
-1
40
-1
40
-1
40
-1
40
0
40
0
40
0
40
0
41
1
41
1
41
1
41
1
10
-0.62777009892974966
20
-11.287608926090993
30
0
10
-0.93802135114352758
20
-11.9694578678161
30
0
10
-1.3939910257937793
20
-11.996379698818046
30
0
10
-3.125323675885916
20
-11.435070985680124
30
0
0
LINE
5
168
100
AcDbEntity
8
0
100
AcDbLine
10
-3.1253236758859155
20
-11.435070985680122
30
0
11
-3.9241809416291584
21
-11.176076674294597
31
0
0
LINE
5
169
100
AcDbEntity
8
0
100
AcDbLine
10
-3.9241809416291584
20
-11.176076674294597
30
0
11
-3.0813231268406049
21
-12.036823276981799
31
0
0
SPLINE
5
170
100
AcDbEntity
8
0
100
AcDbSpline
70
4
71
3
72
8
73
4
74
0
42
0.000000001
43
0.0000000001
44
0.0000000001
40
-1
40
-1
40
-1
40
-1
40
0
40
0
40
0
40
0
41
1
41
1
41
1
41
1
10
-3.0813231268406049
20
-12.036823276981799
30
0
10
-2.1434933335916373
20
-12.994556333731811
30
0
10
-1.8647229243880137
20
-13.387055048256503
30
0
10
-1.9319850114363213
20
-13.655049388577641
30
0
0
SPLINE
5
171
100
AcDbEntity
8
0
100
AcDbSpline
70
4
71
3
72
8
73
4
74
0
42
0.000000001
43
0.0000000001
44
0.0000000001
40
-1
40
-1
40
-1
40
-1
40
0
40
0
40
0
40
0
41
1
41
1
41
1
41
1
10
-1.9319850114363213
20
-13.655049388577641
30
0
10
-1.9802810705218121
20
-13.84747552180977
30
0
10
-3.3496683955367956
20
-15.404791105396228
30
0
10
-3.7618038147271271
20
-15.735982510525819
30
0
0
LINE
5
172
100
AcDbEntity
8
0
100
AcDbLine
10
-3.7618038147271271
20
-15.735982510525819
30
0
11
-4.0188949204828361
21
-15.942580280924407
31
0
0
LINE
5
173
100
AcDbEntity
8
0
100
AcDbLine
10
-4.0188949204828361
20
-15.942580280924407
30
0
11
-3.5957877928977933
21
-15.782883415339789
31
0
0
SPLINE
5
174
100
AcDbEntity
8
0
100
AcDbSpline
70
4
71
3
72
8
73
4
74
0
42
0.000000001
43
0.0000000001
44
0.0000000001
40
-1
40
-1
40
-1
40
-1
40
0
40
0
40
0
40
0
41
1
41
1
41
1
41
1
10
-3.5957877928977933
20
-15.782883415339795
30
0
10
-2.900455620539848
20
-15.520437900684003
30
0
10
-1.7576066232065202
20
-15.243891668184935
30
0
10
-1.368359804199013
20
-15.243891668184935
30
0
0
SPLINE
5
175
100
AcDbEntity
8
0
100
AcDbSpline
70
4
71
3
72
8
73
4
74
0
42
0.000000001
43
0.0000000001
44
0.0000000001
40
-1
40
-1
40
-1
40
-1
40
0
40
0
40
0
40
0
41
1
41
1
41
1
41
1
10
-1.368359804199013
20
-15.243891668184935
30
0
10
-0.93771810989959015
20
-15.243891668184935
30
0
10
-0.83815227114285129
20
-15.331842633650542
30
0
10
-0.56206456875054656
20
-15.956129539892618
30
0
0
SPLINE
5
176
100
AcDbEntity
8
0
100
AcDbSpline
70
4
71
3
72
8
73
4
74
0
42
0.000000001
43
0.0000000001
44
0.0000000001
40
-1
40
-1
40
-1
40
-1
40
0
40
0
40
0
40
0
41
1
41
1
41
1
41
1
10
-0.56206456875054656
20
-15.956129539892618
30
0
10
-0.36392820725548169
20
-16.404151359358924
30
0
10
0.014296770732302733
20
-17.783762071634357
30
0
10
0.026834817971730374
20
-18.10419024672445
30
0
0
SPLINE
5
177
100
AcDbEntity
8
0
100
AcDbSpline
70
4
71
3
72
8
73
4
74
0
42
0.000000001
43
0.0000000001
44
0.0000000001
40
-0.99999617656284701
40
-0.99999617656284701
40
-0.99999617656284701
40
-0.99999617656284701
40
0
40
0
40
0
40
0
41
1
41
1
41
1
41
1
10
0.026837307479592107
20
-18.104190149312394
30
0
10
0.030674727926163315
20
-18.202297199552131
30
0
10
0.094037271841501138
20
-18.02293505301656
30
0
10
0.16764146590451112
20
-17.705605309249279
30
0
0
SPLINE
5
178
100
AcDbEntity
8
0
100
AcDbSpline
70
4
71
3
72
8
73
4
74
0
42
0.000000001
43
0.0000000001
44
0.0000000001
40
-1
40
-1
40
-1
40
-1
40
0
40
0
40
0
40
0
41
1
41
1
41
1
41
1
10
0.16764146590451112
20
-17.705605309249279
30
0
10
0.36609818710083175
20
-16.850023589684699
30
0
10
0.77757943667218221
20
-15.663981667667453
30
0
10
0.95359141482902032
20
-15.440218364191956
30
0
0
SPLINE
5
179
100
AcDbEntity
8
0
100
AcDbSpline
70
4
71
3
72
8
73
4
74
0
42
0.000000001
43
0.0000000001
44
0.0000000001
40
-1
40
-1
40
-1
40
-1
40
0
40
0
40
0
40
0
41
1
41
1
41
1
41
1
10
0.95359141482902032
20
-15.440218364191956
30
0
10
1.0765606302351216
20
-15.28388894371143
30
0
10
1.1756985075588755
20
-15.243890445437982
30
0
10
1.4401957915990771
20
-15.243890445437982
30
0
0
SPLINE
5
180
100
AcDbEntity
8
0
100
AcDbSpline
70
4
71
3
72
8
73
4
74
0
42
0.000000001
43
0.0000000001
44
0.0000000001
40
-1
40
-1
40
-1
40
-1
40
0
40
0
40
0
40
0
41
1
41
1
41
1
41
1
10
1.4401957915990771
20
-15.243890445437982
30
0
10
1.7763167010631431
20
-15.243890445437982
30
0
10
2.9117326196790572
20
-15.512201477219527
30
0
10
3.6959242584874819
20
-15.776942087903052
30
0
0
LINE
5
181
100
AcDbEntity
8
0
100
AcDbLine
10
3.6959242584874814
20
-15.776942087903052
30
0
11
4.123687606463351
21
-15.921354616595455
31
0
0
LINE
5
182
100
AcDbEntity
8
0
100
AcDbLine
10
4.123687606463351
20
-15.921354616595455
30
0
11
3.4621032499634286
21
-15.312169857949836
31
0
0
SPLINE
5
183
100
AcDbEntity
8
0
100
AcDbSpline
70
4
71
3
72
8
73
4
74
0
42
0.000000001
43
0.0000000001
44
0.0000000001
40
-1
40
-1
40
-1
40
-1
40
0
40
0
40
0
40
0
41
1
41
1
41
1
41
1
10
3.4621032499634286
20
-15.312169857949836
30
0
10
2.6607589169210843
20
-14.574294039539147
30
0
10
2.0969282881959472
20
-13.849405627872514
30
0
10
2.0969282881959472
20
-13.557029101967441
30
0
0
SPLINE
5
184
100
AcDbEntity
8
0
100
AcDbSpline
70
4
71
3
72
8
73
4
74
0
42
0.000000001
43
0.0000000001
44
0.0000000001
40
-1
40
-1
40
-1
40
-1
40
0
40
0
40
0
40
0
41
1
41
1
41
1
41
1
10
-10.896478903871722
20
-10.50502285124562
30
0
10
-11.040122319055659
20
-10.346297637255732
30
0
10
-11.022339653556958
20
-10.318581643552225
30
0
10
-10.776855654760187
20
-10.318581643552225
30
0
0
SPLINE
5
185
100
AcDbEntity
8
0
100
AcDbSpline
70
4
71
3
72
8
73
4
74
0
42
0.000000001
43
0.0000000001
44
0.0000000001
40
-1
40
-1
40
-1
40
-1
40
0
40
0
40
0
40
0
41
1
41
1
41
1
41
1
10
-10.776855654760187
20
-10.318581643552225
30
0
10
-10.384352609668532
20
-10.318581643552225
30
0
10
-9.9865129559073829
20
-10.684208080168389
30
0
10
-9.9355709558623051
20
-11.091751316608578
30
0
0
SPLINE
5
186
100
AcDbEntity
8
0
100
AcDbSpline
70
4
71
3
72
8
73
4
74
0
42
0.000000001
43
0.0000000001
44
0.0000000001
40
-1
40
-1
40
-1
40
-1
40
0
40
0
40
0
40
0
41
1
41
1
41
1
41
1
10
-9.9355709558623051
20
-11.091751316608578
30
0
10
-9.902292226003313
20
-11.357981155480532
30
0
10
-10.087705910400349
20
-11.75936106116243
30
0
10
-10.323171557057575
20
-11.930814539084036
30
0
0
SPLINE
5
187
100
AcDbEntity
8
0
100
AcDbSpline
70
4
71
3
72
8
73
4
74
0
42
0.000000001
43
0.0000000001
44
0.0000000001
40
-1
40
-1
40
-1
40
-1
40
0
40
0
40
0
40
0
41
1
41
1
41
1
41
1
10
-10.323175175097354
20
-11.930816348103921
30
0
10
-10.545807634669364
20
-12.092928047324083
30
0
10
-10.980761140451989
20
-12.116557465100675
30
0
10
-11.200289321896255
20
-11.978467740972798
30
0
0
SPLINE
5
188
100
AcDbEntity
8
0
100
AcDbSpline
70
4
71
3
72
8
73
4
74
0
42
0.000000001
43
0.0000000001
44
0.0000000001
40
-1
40
-1
40
-1
40
-1
40
0
40
0
40
0
40
0
41
1
41
1
41
1
41
1
10
-11.200289321896255
20
-11.978467740972798
30
0
10
-11.401101383579633
20
-11.85215292729568
30
0
10
-11.633773903529852
20
-11.577266928259817
30
0
10
-11.607242817852965
20
-11.497679098288813
30
0
0
SPLINE
5
189
100
AcDbEntity
8
0
100
AcDbSpline
70
4
71
3
72
8
73
4
74
0
42
0.000000001
43
0.0000000001
44
0.0000000001
40
-1
40
-1
40
-1
40
-1
40
0
40
0
40
0
40
0
41
1
41
1
41
1
41
1
10
-11.607242817852965
20
-11.497679098288813
30
0
10
-11.597412603781763
20
-11.468195692154772
30
0
10
-11.480340072712263
20
-11.438786455836132
30
0
10
-11.347073195605688
20
-11.432322827776433
30
0
0
SPLINE
5
190
100
AcDbEntity
8
0
100
AcDbSpline
70
4
71
3
72
8
73
4
74
0
42
0.000000001
43
0.0000000001
44
0.0000000001
40
-1
40
-1
40
-1
40
-1
40
0
40
0
40
0
40
0
41
1
41
1
41
1
41
1
10
-11.347073195605688
20
-11.432322827776433
30
0
10
-11.00351861064258
20
-11.415661754608282
30
0
10
-10.796892359039276
20
-11.202175699589816
30
0
10
-10.796892359039276
20
-10.863878126421138
30
0
0
SPLINE
5
191
100
AcDbEntity
8
0
100
AcDbSpline
70
4
71
3
72
8
73
4
74
0
42
0.000000001
43
0.0000000001
44
0.0000000001
40
-1
40
-1
40
-1
40
-1
40
0
40
0
40
0
40
0
41
1
41
1
41
1
41
1
10
-10.796892359039276
20
-10.863878126421138
30
0
10
-10.796892359039276
20
-10.706771985230965
30
0
10
-10.833597372566075
20
-10.574507305142333
30
0
10
-10.896478903871722
20
-10.50502285124562
30
0
0
SPLINE
5
192
100
AcDbEntity
8
0
100
AcDbSpline
70
4
71
3
72
8
73
4
74
0
42
0.000000001
43
0.0000000001
44
0.0000000001
40
-1
40
-1
40
-1
40
-1
40
0
40
0
40
0
40
0
41
1
41
1
41
1
41
1
10
-9.9012538485876256
20
-9.6031486492401541
30
0
10
-9.8786555721471636
20
-9.580552181819586
30
0
10
-9.6906586073501266
20
-9.6455131814864448
30
0
10
-9.4834787956611066
20
-9.7475075317897719
30
0
0
SPLINE
5
193
100
AcDbEntity
8
0
100
AcDbSpline
70
4
71
3
72
8
73
4
74
0
42
0.000000001
43
0.0000000001
44
0.0000000001
40
-1
40
-1
40
-1
40
-1
40
0
40
0
40
0
40
0
41
1
41
1
41
1
41
1
10
-9.4834787956611066
20
-9.7475075317897719
30
0
10
-9.0159086612984751
20
-9.977691744884094
30
0
10
-8.4096590623244971
20
-10.540470595950282
30
0
10
-8.0556881408464953
20
-11.07292303761465
30
0
0
LINE
5
194
100
AcDbEntity
8
0
100
AcDbLine
10
-8.0556881408464953
20
-11.07292303761465
30
0
11
-7.7910719477146007
21
-11.470963492583355
31
0
0
LINE
5
195
100
AcDbEntity
8
0
100
AcDbLine
10
-7.7910719477146007
20
-11.470963492583355
30
0
11
-7.894023269538657
21
-11.662128051204226
31
0
0
SPLINE
5
196
100
AcDbEntity
8
0
100
AcDbSpline
70
4
71
3
72
8
73
4
74
0
42
0.000000001
43
0.0000000001
44
0.0000000001
40
-1
40
-1
40
-1
40
-1
40
0
40
0
40
0
40
0
41
1
41
1
41
1
41
1
10
-7.894023269538657
20
-11.662128051204226
30
0
10
-7.9506455920319397
20
-11.767270096112608
30
0
10
-8.1074297276820495
20
-11.982697229470851
30
0
10
-8.2424296458412805
20
-12.140854411215933
30
0
0
SPLINE
5
197
100
AcDbEntity
8
0
100
AcDbSpline
70
4
71
3
72
8
73
4
74
0
42
0.000000001
43
0.0000000001
44
0.0000000001
40
-1
40
-1
40
-1
40
-1
40
0
40
0
40
0
40
0
41
1
41
1
41
1
41
1
10
-8.2424296458412805
20
-12.140854411215933
30
0
10
-8.8380241176751539
20
-12.838615090242484
30
0
10
-9.5700946678968446
20
-13.285347124515638
30
0
10
-10.287939085719575
20
-13.389096224110295
30
0
0
SPLINE
5
198
100
AcDbEntity
8
0
100
AcDbSpline
70
4
71
3
72
8
73
4
74
0
42
0.000000001
43
0.0000000001
44
0.0000000001
40
-1
40
-1
40
-1
40
-1
40
0
40
0
40
0
40
0
41
1
41
1
41
1
41
1
10
-10.287939085719575
20
-13.389092606070516
30
0
10
-10.505263880940303
20
-13.420502618385246
30
0
10
-10.708684549302134
20
-13.443511542340261
30
0
10
-10.739984211403693
20
-13.440228171243609
30
0
0
SPLINE
5
199
100
AcDbEntity
8
0
100
AcDbSpline
70
4
71
3
72
8
73
4
74
0
42
0.000000001
43
0.0000000001
44
0.0000000001
40
-1
40
-1
40
-1
40
-1
40
0
40
0
40
0
40
0
41
1
41
1
41
1
41
1
10
-10.739984211403693
20
-13.440228171243609
30
0
10
-11.444894137027486
20
-13.366250111945188
30
0
10
-11.870552898625748
20
-13.219697792781417
30
0
10
-12.390410943830101
20
-12.871995125215197
30
0
0
SPLINE
5
200
100
AcDbEntity
8
0
100
AcDbSpline
70
4
71
3
72
8
73
4
74
0
42
0.000000001
43
0.0000000001
44
0.0000000001
40
-1
40
-1
40
-1
40
-1
40
0
40
0
40
0
40
0
41
1
41
1
41
1
41
1
10
-12.390410943830101
20
-12.871995125215197
30
0
10
-12.808124490080424
20
-12.592608284698077
30
0
10
-13.456350586534729
20
-11.9500444204931
30
0
10
-13.609878486386497
20
-11.663173664699471
30
0
0
SPLINE
5
201
100
AcDbEntity
8
0
100
AcDbSpline
70
4
71
3
72
8
73
4
74
0
42
0.000000001
43
0.0000000001
44
0.0000000001
40
-1
40
-1
40
-1
40
-1
40
0
40
0
40
0
40
0
41
1
41
1
41
1
41
1
10
-13.609878486386497
20
-11.663173664699471
30
0
10
-13.680650962443437
20
-11.530937928929044
30
0
10
-13.679728362300576
20
-11.488525457655712
30
0
10
-13.602584518198215
20
-11.327763287271981
30
0
0
SPLINE
5
202
100
AcDbEntity
8
0
100
AcDbSpline
70
4
71
3
72
8
73
4
74
0
42
0.000000001
43
0.0000000001
44
0.0000000001
40
-1
40
-1
40
-1
40
-1
40
0
40
0
40
0
40
0
41
1
41
1
41
1
41
1
10
-13.602584518198215
20
-11.327763287271981
30
0
10
-13.44099200768591
20
-10.991006999047839
30
0
10
-12.977398099037032
20
-10.429156175184167
30
0
10
-12.624780324435223
20
-10.142714157103985
30
0
0
SPLINE
5
203
100
AcDbEntity
8
0
100
AcDbSpline
70
4
71
3
72
8
73
4
74
0
42
0.000000001
43
0.0000000001
44
0.0000000001
40
-1
40
-1
40
-1
40
-1
40
0
40
0
40
0
40
0
41
1
41
1
41
1
41
1
10
-12.624780324435223
20
-10.142714157103985
30
0
10
-12.324269558686343
20
-9.8986022998922252
30
0
10
-11.769399742570323
20
-9.5787901964487077
30
0
10
-11.646375536069407
20
-9.5787901964487077
30
0
0
SPLINE
5
204
100
AcDbEntity
8
0
100
AcDbSpline
70
4
71
3
72
8
73
4
74
0
42
0.000000001
43
0.0000000001
44
0.0000000001
40
-1
40
-1
40
-1
40
-1
40
0
40
0
40
0
40
0
41
1
41
1
41
1
41
1
10
-11.646375536069407
20
-9.5787901964487077
30
0
10
-11.624584082498988
20
-9.5787901964487077
30
0
10
-11.745752234594855
20
-9.7132329364824521
30
0
10
-11.915637292273598
20
-9.8775516399659224
30
0
0
SPLINE
5
205
100
AcDbEntity
8
0
100
AcDbSpline
70
4
71
3
72
8
73
4
74
0
42
0.000000001
43
0.0000000001
44
0.0000000001
40
-1
40
-1
40
-1
40
-1
40
0
40
0
40
0
40
0
41
1
41
1
41
1
41
1
10
-11.915637292273598
20
-9.8775516399659224
30
0
10
-12.363673629885987
20
-10.310909590207373
30
0
10
-12.501083162535984
20
-10.627565858456336
30
0
10
-12.502136012110778
20
-11.229088488463059
30
0
0
SPLINE
5
206
100
AcDbEntity
8
0
100
AcDbSpline
70
4
71
3
72
8
73
4
74
0
42
0.000000001
43
0.0000000001
44
0.0000000001
40
-1
40
-1
40
-1
40
-1
40
0
40
0
40
0
40
0
41
1
41
1
41
1
41
1
10
-12.502136012110778
20
-11.229088488463059
30
0
10
-12.502790877310224
20
-11.603394602501682
30
0
10
-12.475597690354343
20
-11.772293744341482
30
0
10
-12.381908550356666
20
-11.975844662135247
30
0
0
SPLINE
5
207
100
AcDbEntity
8
0
100
AcDbSpline
70
4
71
3
72
8
73
4
74
0
42
0.000000001
43
0.0000000001
44
0.0000000001
40
-1
40
-1
40
-1
40
-1
40
0
40
0
40
0
40
0
41
1
41
1
41
1
41
1
10
-12.381908550356666
20
-11.975844662135247
30
0
10
-12.215999718391668
20
-12.336306346971275
30
0
10
-11.884840537700896
20
-12.687815192381766
30
0
10
-11.540287373759623
20
-12.869191144388861
30
0
0
SPLINE
5
208
100
AcDbEntity
8
0
100
AcDbSpline
70
4
71
3
72
8
73
4
74
0
42
0.000000001
43
0.0000000001
44
0.0000000001
40
-1
40
-1
40
-1
40
-1
40
0
40
0
40
0
40
0
41
1
41
1
41
1
41
1
10
-11.540287373759623
20
-12.869191144388861
30
0
10
-11.291706332914648
20
-13.000044788964882
30
0
10
-11.185723093758364
20
-13.020472241539771
30
0
10
-10.768432858161816
20
-13.017957703895497
30
0
0
SPLINE
5
209
100
AcDbEntity
8
0
100
AcDbSpline
70
4
71
3
72
8
73
4
74
0
42
0.000000001
43
0.0000000001
44
0.0000000001
40
-1
40
-1
40
-1
40
-1
40
0
40
0
40
0
40
0
41
1
41
1
41
1
41
1
10
-10.768432858161816
20
-13.017957703895497
30
0
10
-10.186623117874243
20
-13.014451823352626
30
0
10
-9.868387575263089
20
-12.88467092757017
30
0
10
-9.5231216574859623
20
-12.510104314667689
30
0
0
SPLINE
5
210
100
AcDbEntity
8
0
100
AcDbSpline
70
4
71
3
72
8
73
4
74
0
42
0.000000001
43
0.0000000001
44
0.0000000001
40
-1
40
-1
40
-1
40
-1
40
0
40
0
40
0
40
0
41
1
41
1
41
1
41
1
10
-9.5231216574859623
20
-12.510104314667689
30
0
10
-9.1269282118228645
20
-12.080282998307208
30
0
10
-9.0336442922800853
20
-11.841810760596179
30
0
10
-9.0331848012285398
20
-11.257542562280864
30
0
0
SPLINE
5
211
100
AcDbEntity
8
0
100
AcDbSpline
70
4
71
3
72
8
73
4
74
0
42
0.000000001
43
0.0000000001
44
0.0000000001
40
-1
40
-1
40
-1
40
-1
40
0
40
0
40
0
40
0
41
1
41
1
41
1
41
1
10
-9.0331848012285398
20
-11.257542562280864
30
0
10
-9.0328302333304933
20
-10.81174760030966
30
0
10
-9.0533481368997926
20
-10.703484996094534
30
0
10
-9.1915500202607259
20
-10.422059390163678
30
0
0
SPLINE
5
212
100
AcDbEntity
8
0
100
AcDbSpline
70
4
71
3
72
8
73
4
74
0
42
0.000000001
43
0.0000000001
44
0.0000000001
40
-1
40
-1
40
-1
40
-1
40
0
40
0
40
0
40
0
41
1
41
1
41
1
41
1
10
-9.1915500202607259
20
-10.422059390163678
30
0
10
-9.3386812257886476
20
-10.122450420828955
30
0
10
-9.5931379632297364
20
-9.8396553868429049
30
0
10
-9.8398050610332444
20
-9.7016145062520032
30
0
0
SPLINE
5
213
100
AcDbEntity
8
0
100
AcDbSpline
70
4
71
3
72
8
73
4
74
0
42
0.000000001
43
0.0000000001
44
0.0000000001
40
-1
40
-1
40
-1
40
-1
40
0
40
0
40
0
40
0
41
1
41
1
41
1
41
1
10
-9.8398050610332444
20
-9.7016145062520032
30
0
10
-9.8961994470206527
20
-9.670055249796512
30
0
10
-9.9238521250280698
20
-9.6257460211706558
30
0
10
-9.9012538485876256
20
-9.6031486492401541
30
0
0
SPLINE
5
214
100
AcDbEntity
8
0
100
AcDbSpline
70
4
71
3
72
8
73
4
74
0
42
0.000000001
43
0.0000000001
44
0.0000000001
40
-1
40
-1
40
-1
40
-1
40
0
40
0
40
0
40
0
41
1
41
1
41
1
41
1
10
-13.272344319610543
20
-9.9166156154266361
30
0
10
-13.814829585573536
20
-10.462737011364451
30
0
10
-14.353562944288916
20
-11.27287581485124
30
0
10
-14.353570180368456
20
-11.54255545464955
30
0
0
SPLINE
5
215
100
AcDbEntity
8
0
100
AcDbSpline
70
4
71
3
72
8
73
4
74
0
42
0.000000001
43
0.0000000001
44
0.0000000001
40
-1
40
-1
40
-1
40
-1
40
0
40
0
40
0
40
0
41
1
41
1
41
1
41
1
10
-14.353570180368456
20
-11.54255545464955
30
0
10
-14.353573798408243
20
-11.74177015177186
30
0
10
-13.89517539487759
20
-12.378628367250197
30
0
10
-13.390238145709183
20
-12.88091540228276
30
0
0
SPLINE
5
216
100
AcDbEntity
8
0
100
AcDbSpline
70
4
71
3
72
8
73
4
74
0
42
0.000000001
43
0.0000000001
44
0.0000000001
40
-1
40
-1
40
-1
40
-1
40
0
40
0
40
0
40
0
41
1
41
1
41
1
41
1
10
-13.390238145709183
20
-12.88091540228276
30
0
10
-12.851124892817332
20
-13.417195730030045
30
0
10
-12.240888214010281
20
-13.782444081489622
30
0
10
-11.641596105525416
20
-13.927536521603816
30
0
0
SPLINE
5
217
100
AcDbEntity
8
0
100
AcDbSpline
70
4
71
3
72
8
73
4
74
0
42
0.000000001
43
0.0000000001
44
0.0000000001
40
-0.99999752196234759
40
-0.99999752196234759
40
-0.99999752196234759
40
-0.99999752196234759
40
0
40
0
40
0
40
0
41
1
41
1
41
1
41
1
10
-11.64159630584637
20
-13.92753734904505
30
0
10
-11.181861740840933
20
-14.038840087541633
30
0
10
-10.269344909665543
20
-14.038696899519852
30
0
10
-9.8376957438438772
20
-13.927254314501294
30
0
0
SPLINE
5
218
100
AcDbEntity
8
0
100
AcDbSpline
70
4
71
3
72
8
73
4
74
0
42
0.000000001
43
0.0000000001
44
0.0000000001
40
-1
40
-1
40
-1
40
-1
40
0
40
0
40
0
40
0
41
1
41
1
41
1
41
1
10
-9.8376957438438772
20
-13.927254314501294
30
0
10
-9.2885171042953996
20
-13.785465144702531
30
0
10
-8.6499620281621503
20
-13.421857574281333
30
0
10
-8.1809736222073592
20
-12.98387215116648
30
0
0
SPLINE
5
219
100
AcDbEntity
8
0
100
AcDbSpline
70
4
71
3
72
8
73
4
74
0
42
0.000000001
43
0.0000000001
44
0.0000000001
40
-1
40
-1
40
-1
40
-1
40
0
40
0
40
0
40
0
41
1
41
1
41
1
41
1
10
-8.1809736222073592
20
-12.98387215116648
30
0
10
-7.7329372845949784
20
-12.565456705199622
30
0
10
-7.1257614674383518
20
-11.733320219875178
30
0
10
-7.1261630698534795
20
-11.538255414375858
30
0
0
SPLINE
5
220
100
AcDbEntity
8
0
100
AcDbSpline
70
4
71
3
72
8
73
4
74
0
42
0.000000001
43
0.0000000001
44
0.0000000001
40
-1
40
-1
40
-1
40
-1
40
0
40
0
40
0
40
0
41
1
41
1
41
1
41
1
10
-7.1261630698534795
20
-11.538255414375858
30
0
10
-7.1265574361890582
20
-11.347883206465923
30
0
10
-7.6824801018798716
20
-10.470608056896982
30
0
10
-8.0758442404381903
20
-10.039609068589446
30
0
0
SPLINE
5
221
100
AcDbEntity
8
0
100
AcDbSpline
70
4
71
3
72
8
73
4
74
0
42
0.000000001
43
0.0000000001
44
0.0000000001
40
-1
40
-1
40
-1
40
-1
40
0
40
0
40
0
40
0
41
1
41
1
41
1
41
1
10
-8.0758442404381903
20
-10.039609068589446
30
0
10
-8.8330348408241477
20
-9.209977171299899
30
0
10
-9.7364629909133882
20
-8.7820987422991017
30
0
10
-10.730971674321861
20
-8.7820987422991017
30
0
0
SPLINE
5
222
100
AcDbEntity
8
0
100
AcDbSpline
70
4
71
3
72
8
73
4
74
0
42
0.000000001
43
0.0000000001
44
0.0000000001
40
-1
40
-1
40
-1
40
-1
40
0
40
0
40
0
40
0
41
1
41
1
41
1
41
1
10
-10.730971674321861
20
-8.7820987422991017
30
0
10
-11.767945290580402
20
-8.7820987422991017
30
0
10
-12.446103430100965
20
-9.0848418385897354
30
0
10
-13.272344319610543
20
-9.9166156154266361
30
0
0
LWPOLYLINE
5
223
100
AcDbEntity
8
0
100
AcDbPolyline
90
3
70
1
43
0.0
10
-0.14951728347330967
20
-2.2624668843430191
10
-0.28521909625055603
20
-2.1267650715657735
10
-0.14951728347330967
20
-2.1267650715657731
0
SPLINE
5
224
100
AcDbEntity
8
0
100
AcDbSpline
70
4
71
3
72
8
73
4
74
0
42
0.000000001
43
0.0000000001
44
0.0000000001
40
0
40
0
40
0
40
0
40
1
40
1
40
1
40
1
41
1
41
1
41
1
41
1
10
-0.89858809478042034
20
-2.2408906292304613
30
0
10
-2.1614949996818571
20
-2.5715945397106954
30
0
10
-3.5803220025766831
20
-2.1537698070902671
30
0
10
-4.8312196267671839
20
-2.5338688103106577
30
0
0
LINE
5
225
100
AcDbEntity
8
0
100
AcDbLine
10
-4.831219626767183
20
-2.5338688103106577
30
0
11
-4.8312196267671839
21
-2.6695706230879046
31
0
0
SPLINE
5
226
100
AcDbEntity
8
0
100
AcDbSpline
70
4
71
3
72
8
73
4
74
0
42
0.000000001
43
0.0000000001
44
0.0000000001
40
0
40
0
40
0
40
0
40
1
40
1
40
1
40
1
41
1
41
1
41
1
41
1
10
-4.8312196267671839
20
-2.6695706230879046
30
0
10
-3.7063225735908385
20
-2.9989862467327444
30
0
10
-2.132386175632011
20
-2.5635198025669559
30
0
10
-0.96372646054993294
20
-2.534886862836252
30
0
0
SPLINE
5
227
100
AcDbEntity
8
0
100
AcDbSpline
70
4
71
3
72
8
73
4
74
0
42
0.000000001
43
0.0000000001
44
0.0000000001
40
0
40
0
40
0
40
0
40
1
40
1
40
1
40
1
41
1
41
1
41
1
41
1
10
-0.96372646054993294
20
-2.534886862836252
30
0
10
-0.70874084400586068
20
-2.5286493790817755
30
0
10
0.18566673795428493
20
-2.6787993797055654
30
0
10
0.16076609095514297
20
-2.2553422162507109
30
0
0
SPLINE
5
228
100
AcDbEntity
8
0
100
AcDbSpline
70
4
71
3
72
8
73
4
74
0
42
0.000000001
43
0.0000000001
44
0.0000000001
40
0
40
0
40
0
40
0
40
1
40
1
40
1
40
1
41
1
41
1
41
1
41
1
10
0.16076609095514297
20
-2.2553422162507109
30
0
10
0.14699943743708602
20
-2.0209861849414783
30
0
10
-0.095439828950155958
20
-1.7694626268191695
30
0
10
-0.34078708844473515
20
-1.8452523034032067
30
0
0
SPLINE
5
229
100
AcDbEntity
8
0
100
AcDbSpline
70
4
71
3
72
8
73
4
74
0
42
0.000000001
43
0.0000000001
44
0.0000000001
40
0
40
0
40
0
40
0
40
1
40
1
40
1
40
1
41
1
41
1
41
1
41
1
10
-0.34078708844473515
20
-1.8452523034032067
30
0
10
-0.56754256734251951
20
-1.9153415656786545
30
0
10
-0.65798948095614596
20
-2.17792603504732
30
0
10
-0.89858809478042034
20
-2.2408906292304613
30
0
0
SPLINE
5
230
100
AcDbEntity
8
0
100
AcDbSpline
70
4
71
3
72
8
73
4
74
0
42
0.000000001
43
0.0000000001
44
0.0000000001
40
0
40
0
40
0
40
0
40
1
40
1
40
1
40
1
41
1
41
1
41
1
41
1
10
-6.3917853749449547
20
0.5204332313555623
30
0
10
-7.5879953929316857
20
0.49112215647008151
30
0
10
-9.1123990316151744
20
0.79054687048780781
30
0
10
-10.25928024074906
20
0.45156427244134573
30
0
0
LINE
5
231
100
AcDbEntity
8
0
100
AcDbLine
10
-10.259280240749058
20
0.4515642724413455
30
0
11
-10.25928024074906
21
0.31586245966409887
31
0
0
SPLINE
5
232
100
AcDbEntity
8
0
100
AcDbSpline
70
4
71
3
72
8
73
4
74
0
42
0.000000001
43
0.0000000001
44
0.0000000001
40
0
40
0
40
0
40
0
40
1
40
1
40
1
40
1
41
1
41
1
41
1
41
1
10
-10.25928024074906
20
0.31586245966409887
30
0
10
-9.6974750077851564
20
0.14976353600161346
30
0
10
-9.0112991076001627
20
0.24801155327547653
30
0
10
-8.4273074678430859
20
0.24801155327547653
30
0
0
SPLINE
5
233
100
AcDbEntity
8
0
100
AcDbSpline
70
4
71
3
72
8
73
4
74
0
42
0.000000001
43
0.0000000001
44
0.0000000001
40
0
40
0
40
0
40
0
40
1
40
1
40
1
40
1
41
1
41
1
41
1
41
1
10
-8.4273074678430859
20
0.24801155327547653
30
0
10
-7.2173256975777349
20
0.24801155327547653
30
0
10
-5.792392079116194
20
0.083270599509400606
30
0
10
-4.6276652080144567
20
0.45156427244134573
30
0
0
LINE
5
234
100
AcDbEntity
8
0
100
AcDbLine
10
-4.6276652080144567
20
0.45156427244134556
30
0
11
-4.6276652080144567
21
0.58726608521859258
31
0
0
SPLINE
5
235
100
AcDbEntity
8
0
100
AcDbSpline
70
4
71
3
72
8
73
4
74
0
42
0.000000001
43
0.0000000001
44
0.0000000001
40
0
40
0
40
0
40
0
40
1
40
1
40
1
40
1
41
1
41
1
41
1
41
1
10
-4.6276652080144567
20
0.58726608521859258
30
0
10
-5.1709449442688795
20
0.73667506597400245
30
0
10
-5.8314043957647712
20
0.53414039933372759
30
0
10
-6.3917853749449547
20
0.5204332313555623
30
0
0
LINE
5
236
100
AcDbEntity
8
0
100
AcDbLine
10
3.107324523593749
20
1.2266897502215217
30
0
11
-0.3530632042917603
21
0.92651891757485294
31
0
0
LINE
5
237
100
AcDbEntity
8
0
100
AcDbLine
10
-0.3530632042917603
20
0.92651891757485294
30
0
11
-0.3530632042917603
21
0.72296619840898368
31
0
0
SPLINE
5
238
100
AcDbEntity
8
0
100
AcDbSpline
70
4
71
3
72
8
73
4
74
0
42
0.000000001
43
0.0000000001
44
0.0000000001
40
0
40
0
40
0
40
0
40
1
40
1
40
1
40
1
41
1
41
1
41
1
41
1
10
-0.35306320429176041
20
0.72296619840898368
30
0
10
0.97376006343109989
20
0.72296619840898368
30
0
10
2.2736431799299184
20
0.78715279554020756
30
0
10
3.5822808683141112
20
1.0231370310556527
30
0
0
SPLINE
5
239
100
AcDbEntity
8
0
100
AcDbSpline
70
4
71
3
72
8
73
4
74
0
42
0.000000001
43
0.0000000001
44
0.0000000001
40
0
40
0
40
0
40
0
40
1
40
1
40
1
40
1
41
1
41
1
41
1
41
1
10
3.5822808683141112
20
1.0231370310556527
30
0
10
3.9828700906473067
20
1.0953983653306159
30
0
10
4.6615831049560272
20
1.0886136146091245
30
0
10
4.8714446905242434
20
1.4693244690969847
30
0
0
LINE
5
240
100
AcDbEntity
8
0
100
AcDbLine
10
4.8714446905242434
20
1.4693244690969847
30
0
11
3.107324523593749
21
1.2266897502215217
31
0
0
ARC
5
241
100
AcDbEntity
8
0
100
AcDbCircle
10
-16.225839551608988
20
-7.0342985325788838
30
0
40
0.99999999999999756
210
0
220
0
230
1
100
AcDbArc
50
253.38883012946079
51
264.16703934503334
0
SPLINE
5
242
100
AcDbEntity
8
0
100
AcDbSpline
70
4
71
3
72
8
73
4
74
0
42
0.000000001
43
0.0000000001
44
0.0000000001
40
0.35573902627313464
40
0.35573902627313464
40
0.35573902627313464
40
0.35573902627313464
40
1
40
1
40
1
40
1
41
1
41
1
41
1
41
1
10
-16.327468159006848
20
-8.0291209419356342
30
0
10
-15.648542016050214
20
-6.8455364169160386
30
0
10
-14.534709360243099
20
-5.8487986760383226
30
0
10
-13.4482524459721
20
-5.2020995005512463
30
0
0
SPLINE
5
243
100
AcDbEntity
8
0
100
AcDbSpline
70
4
71
3
72
8
73
4
74
0
42
0.000000001
43
0.0000000001
44
0.0000000001
40
0
40
0
40
0
40
0
40
1
40
1
40
1
40
1
41
1
41
1
41
1
41
1
10
-13.4482524459721
20
-5.2020995005512463
30
0
10
-13.02913857672285
20
-4.9526120474801285
30
0
10
-12.496849218860346
20
-4.7033302444183569
30
0
10
-12.023386810984722
20
-4.5855420770831214
30
0
0
SPLINE
5
244
100
AcDbEntity
8
0
100
AcDbSpline
70
4
71
3
72
8
73
4
74
0
42
0.000000001
43
0.0000000001
44
0.0000000001
40
0
40
0
40
0
40
0
40
1
40
1
40
1
40
1
41
1
41
1
41
1
41
1
10
-12.023386810984722
20
-4.5855420770831214
30
0
10
-11.829400216427048
20
-4.5373655881173427
30
0
10
-11.382671459972691
20
-4.5225774828999823
30
0
10
-11.271666343772095
20
-4.3275719860232877
30
0
0
SPLINE
5
245
100
AcDbEntity
8
0
100
AcDbSpline
70
4
71
3
72
8
73
4
74
0
42
0.000000001
43
0.0000000001
44
0.0000000001
40
0
40
0
40
0
40
0
40
1
40
1
40
1
40
1
41
1
41
1
41
1
41
1
10
-11.271666343772095
20
-4.3275719860232877
30
0
10
-11.151638120963183
20
-4.1168962983519632
30
0
10
-11.555216916572705
20
-3.7683450263170255
30
0
10
-11.667915671073391
20
-3.6194816129417746
30
0
0
SPLINE
5
246
100
AcDbEntity
8
0
100
AcDbSpline
70
4
71
3
72
8
73
4
74
0
42
0.000000001
43
0.0000000001
44
0.0000000001
40
0
40
0
40
0
40
0
40
1
40
1
40
1
40
1
41
1
41
1
41
1
41
1
10
-11.667915671073391
20
-3.6194816129417746
30
0
10
-12.121295760681194
20
-3.0205642014321588
30
0
10
-12.327696987414505
20
-2.3683154540283313
30
0
10
-12.516322235240979
20
-1.6518104264322655
30
0
0
SPLINE
5
247
100
AcDbEntity
8
0
100
AcDbSpline
70
4
71
3
72
8
73
4
74
0
42
0.000000001
43
0.0000000001
44
0.0000000001
40
0
40
0
40
0
40
0
40
1
40
1
40
1
40
1
41
1
41
1
41
1
41
1
10
-12.516322235240979
20
-1.6518104264322655
30
0
10
-13.007833405713518
20
0.21523841996823201
30
0
10
-12.270295141004773
20
2.3574231846547811
30
0
10
-10.936757655414864
20
3.7081290468511892
30
0
0
SPLINE
5
248
100
AcDbEntity
8
0
100
AcDbSpline
70
4
71
3
72
8
73
4
74
0
42
0.000000001
43
0.0000000001
44
0.0000000001
40
0
40
0
40
0
40
0
40
1
40
1
40
1
40
1
41
1
41
1
41
1
41
1
10
-10.936757655414864
20
3.7081290468511892
30
0
10
-9.281740766995247
20
5.3845870732284649
30
0
10
-6.7894479087154185
20
6.0636357559408669
30
0
10
-4.4919514981292332
20
5.5736193721064922
30
0
0
SPLINE
5
249
100
AcDbEntity
8
0
100
AcDbSpline
70
4
71
3
72
8
73
4
74
0
42
0.000000001
43
0.0000000001
44
0.0000000001
40
0
40
0
40
0
40
0
40
1
40
1
40
1
40
1
41
1
41
1
41
1
41
1
10
-4.4919514981292332
20
5.5736193721064922
30
0
10
-3.9296737800198973
20
5.4536582829783189
30
0
10
-3.3292607320786871
20
5.3182292538911522
30
0
10
-2.7956822375873625
20
5.102531287066018
30
0
0
SPLINE
5
250
100
AcDbEntity
8
0
100
AcDbSpline
70
4
71
3
72
8
73
4
74
0
42
0.000000001
43
0.0000000001
44
0.0000000001
40
0
40
0
40
0
40
0
40
1
40
1
40
1
40
1
41
1
41
1
41
1
41
1
10
-2.7956822375873625
20
5.102531287066018
30
0
10
-2.5321493987541204
20
4.9960054320193539
30
0
10
-2.199681317119349
20
4.7020074988267089
30
0
10
-1.9138940880187687
20
4.6987502406208623
30
0
0
SPLINE
5
251
100
AcDbEntity
8
0
100
AcDbSpline
70
4
71
3
72
8
73
4
74
0
42
0.000000001
43
0.0000000001
44
0.0000000001
40
0
40
0
40
0
40
0
40
1
40
1
40
1
40
1
41
1
41
1
41
1
41
1
10
-1.9138940880187687
20
4.6987502406208623
30
0
10
-1.5770818623849663
20
4.6949406166874388
30
0
10
-1.109860337437528
20
5.2736507902954601
30
0
10
-0.81647595509920401
20
5.4517581448754546
30
0
0
SPLINE
5
252
100
AcDbEntity
8
0
100
AcDbSpline
70
4
71
3
72
8
73
4
74
0
42
0.000000001
43
0.0000000001
44
0.0000000001
40
0
40
0
40
0
40
0
40
1
40
1
40
1
40
1
41
1
41
1
41
1
41
1
10
-0.81647595509920401
20
5.4517581448754546
30
0
10
-0.024723419125553328
20
5.9326171547400417
30
0
10
0.94995225077912959
20
6.3306298034024451
30
0
10
1.8860218052933653
20
6.3535614790311348
30
0
0
SPLINE
5
253
100
AcDbEntity
8
0
100
AcDbSpline
70
4
71
3
72
8
73
4
74
0
42
0.000000001
43
0.0000000001
44
0.0000000001
40
0
40
0
40
0
40
0
40
1
40
1
40
1
40
1
41
1
41
1
41
1
41
1
10
1.8860218052933653
20
6.3535614790311348
30
0
10
5.5236373515618862
20
6.4427175564290904
30
0
10
7.1880835478479455
20
2.5036403412982278
30
0
10
6.3445649954726901
20
-0.63405022977662462
30
0
0
SPLINE
5
254
100
AcDbEntity
8
0
100
AcDbSpline
70
4
71
3
72
8
73
4
74
0
42
0.000000001
43
0.0000000001
44
0.0000000001
40
0
40
0
40
0
40
0
40
1
40
1
40
1
40
1
41
1
41
1
41
1
41
1
10
6.3445649954726901
20
-0.63405022977662462
30
0
10
6.1258825541317918
20
-1.4473110373886726
30
0
10
5.7926003703939175
20
-2.2569058361564664
30
0
10
5.4163662276797062
20
-3.0088268546178742
30
0
0
SPLINE
5
255
100
AcDbEntity
8
0
100
AcDbSpline
70
4
71
3
72
8
73
4
74
0
42
0.000000001
43
0.0000000001
44
0.0000000001
40
0
40
0
40
0
40
0
40
1
40
1
40
1
40
1
41
1
41
1
41
1
41
1
10
5.4163662276797062
20
-3.0088268546178742
30
0
10
5.202908316328255
20
-3.4354724430109824
30
0
10
4.888692097919459
20
-3.8211375931784892
30
0
10
4.8036039816567486
20
-4.2979940760017135
30
0
0
SPLINE
5
256
100
AcDbEntity
8
0
100
AcDbSpline
70
4
71
3
72
8
73
4
74
0
42
0.000000001
43
0.0000000001
44
0.0000000001
40
0
40
0
40
0
40
0
40
1
40
1
40
1
40
1
41
1
41
1
41
1
41
1
10
4.8036039816567486
20
-4.2979940760017135
30
0
10
5.552064641283244
20
-4.4676876258605827
30
0
10
6.1909495372534318
20
-5.0949677427911046
30
0
10
6.7361294116107162
20
-5.6037118741705951
30
0
0
SPLINE
5
257
100
AcDbEntity
8
0
100
AcDbSpline
70
4
71
3
72
8
73
4
74
0
42
0.000000001
43
0.0000000001
44
0.0000000001
40
0
40
0
40
0
40
0
40
0.21187374937443162
40
0.21187374937443162
40
0.21187374937443162
40
0.21187374937443162
41
1
41
1
41
1
41
1
10
6.7361294116107162
20
-5.6037118741705951
30
0
10
7.0035769575387832
20
-5.8532470732852451
30
0
10
7.2635803730631281
20
-6.106358003256009
30
0
10
7.5147134878149036
20
-6.3650839716458796
30
0
0
ARC
5
258
100
AcDbEntity
8
0
100
AcDbCircle
10
10.762225485087853
20
-11.410246605938445
30
0
40
6.0000000149078057
210
0
220
0
230
1
100
AcDbArc
50
120.73101558825448
51
122.76890852163707
0
SPLINE
5
259
100
AcDbEntity
8
0
100
AcDbSpline
70
4
71
3
72
8
73
4
74
0
42
0.000000001
43
0.0000000001
44
0.0000000001
40
0.97206915440788788
40
0.97206915440788788
40
0.97206915440788788
40
0.97206915440788788
40
1
40
1
40
1
40
1
41
1
41
1
41
1
41
1
10
7.6961756662323193
20
-6.2527919345729703
30
0
10
7.6563373201367089
20
-6.2117366952330331
30
0
10
7.6161837757181781
20
-6.1707943271291565
30
0
10
7.5757151200056239
20
-6.1299600505602694
30
0
0
SPLINE
5
260
100
AcDbEntity
8
0
100
AcDbSpline
70
4
71
3
72
8
73
4
74
0
42
0.000000001
43
0.0000000001
44
0.0000000001
40
0
40
0
40
0
40
0
40
1
40
1
40
1
40
1
41
1
41
1
41
1
41
1
10
7.5757151200056239
20
-6.1299600505602694
30
0
10
7.0616784751625206
20
-5.611309027408339
30
0
10
6.5135821097636359
20
-5.1208830431421317
30
0
10
5.9377314910376056
20
-4.6717111305850336
30
0
0
SPLINE
5
261
100
AcDbEntity
8
0
100
AcDbSpline
70
4
71
3
72
8
73
4
74
0
42
0.000000001
43
0.0000000001
44
0.0000000001
40
0
40
0
40
0
40
0
40
1
40
1
40
1
40
1
41
1
41
1
41
1
41
1
10
5.9377314910376056
20
-4.6717111305850336
30
0
10
5.7384515332228956
20
-4.5162652173239239
30
0
10
5.2699434210269178
20
-4.3237054259302523
30
0
10
5.1927957745464735
20
-4.068721508973038
30
0
0
SPLINE
5
262
100
AcDbEntity
8
0
100
AcDbSpline
70
4
71
3
72
8
73
4
74
0
42
0.000000001
43
0.0000000001
44
0.0000000001
40
0
40
0
40
0
40
0
40
1
40
1
40
1
40
1
41
1
41
1
41
1
41
1
10
5.1927957745464735
20
-4.068721508973038
30
0
10
5.117347714920105
20
-3.8192340559019207
30
0
10
5.4205030220825421
20
-3.4883261949991957
30
0
10
5.5248576549231174
20
-3.2802270809986585
30
0
0
SPLINE
5
263
100
AcDbEntity
8
0
100
AcDbSpline
70
4
71
3
72
8
73
4
74
0
42
0.000000001
43
0.0000000001
44
0.0000000001
40
0
40
0
40
0
40
0
40
1
40
1
40
1
40
1
41
1
41
1
41
1
41
1
10
5.5248576549231174
20
-3.2802270809986585
30
0
10
5.8721852244231165
20
-2.5872681296790301
30
0
10
6.2072995627896921
20
-1.846134388980474
30
0
10
6.4490521960878855
20
-1.1090031753232805
30
0
0
SPLINE
5
264
100
AcDbEntity
8
0
100
AcDbSpline
70
4
71
3
72
8
73
4
74
0
42
0.000000001
43
0.0000000001
44
0.0000000001
40
0
40
0
40
0
40
0
40
1
40
1
40
1
40
1
41
1
41
1
41
1
41
1
10
6.4490521960878855
20
-1.1090031753232805
30
0
10
7.319713150522813
20
1.5461338977934693
30
0
10
6.5384096745280518
20
4.7744064996368527
30
0
10
3.9893931049932672
20
6.1890941587485671
30
0
0
SPLINE
5
265
100
AcDbEntity
8
0
100
AcDbSpline
70
4
71
3
72
8
73
4
74
0
42
0.000000001
43
0.0000000001
44
0.0000000001
40
0
40
0
40
0
40
0
40
1
40
1
40
1
40
1
41
1
41
1
41
1
41
1
10
3.9893931049932672
20
6.1890941587485671
30
0
10
2.6289163179727493
20
6.9441381680543488
30
0
10
0.96589607505726693
20
6.6444415201399689
30
0
10
-0.35305810553119998
20
5.9586046875323682
30
0
0
SPLINE
5
266
100
AcDbEntity
8
0
100
AcDbSpline
70
4
71
3
72
8
73
4
74
0
42
0.000000001
43
0.0000000001
44
0.0000000001
40
0
40
0
40
0
40
0
40
1
40
1
40
1
40
1
41
1
41
1
41
1
41
1
10
-0.35305810553119998
20
5.9586046875323682
30
0
10
-0.75439514608018787
20
5.7498979712314977
30
0
10
-1.4905083072117895
20
4.9772793840610898
30
0
10
-1.9197321688625384
20
4.9831828989987406
30
0
0
SPLINE
5
267
100
AcDbEntity
8
0
100
AcDbSpline
70
4
71
3
72
8
73
4
74
0
42
0.000000001
43
0.0000000001
44
0.0000000001
40
0
40
0
40
0
40
0
40
1
40
1
40
1
40
1
41
1
41
1
41
1
41
1
10
-1.9197321688625384
20
4.9831828989987406
30
0
10
-2.3256156042461922
20
4.9887524451195633
30
0
10
-2.8665210176654599
20
5.3902203538563151
30
0
10
-3.270640281894579
20
5.5106556277167797
30
0
0
SPLINE
5
268
100
AcDbEntity
8
0
100
AcDbSpline
70
4
71
3
72
8
73
4
74
0
42
0.000000001
43
0.0000000001
44
0.0000000001
40
0
40
0
40
0
40
0
40
1
40
1
40
1
40
1
41
1
41
1
41
1
41
1
10
-3.270640281894579
20
5.5106556277167797
30
0
10
-4.3927551113907928
20
5.845090981135149
30
0
10
-5.556533613027951
20
6.052036075661765
30
0
10
-6.7310297093669451
20
5.9360112296876419
30
0
0
SPLINE
5
269
100
AcDbEntity
8
0
100
AcDbSpline
70
4
71
3
72
8
73
4
74
0
42
0.000000001
43
0.0000000001
44
0.0000000001
40
0
40
0
40
0
40
0
40
1
40
1
40
1
40
1
41
1
41
1
41
1
41
1
10
-6.7310297093669451
20
5.9360112296876419
30
0
10
-10.028848555485899
20
5.6103261991875089
30
0
10
-13.138246104200864
20
2.7185276051939633
30
0
10
-12.899344527850392
20
-0.76975034296701805
30
0
0
SPLINE
5
270
100
AcDbEntity
8
0
100
AcDbSpline
70
4
71
3
72
8
73
4
74
0
42
0.000000001
43
0.0000000001
44
0.0000000001
40
0
40
0
40
0
40
0
40
1
40
1
40
1
40
1
41
1
41
1
41
1
41
1
10
-12.899344527850392
20
-0.76975034296701805
30
0
10
-12.804828803308091
20
-2.1509195999359725
30
0
10
-12.089748879289171
20
-2.9789719119390878
30
0
10
-11.548435565024921
20
-4.1622905636376153
30
0
0
SPLINE
5
271
100
AcDbEntity
8
0
100
AcDbSpline
70
4
71
3
72
8
73
4
74
0
42
0.000000001
43
0.0000000001
44
0.0000000001
40
0
40
0
40
0
40
0
40
1
40
1
40
1
40
1
41
1
41
1
41
1
41
1
10
-11.548435565024921
20
-4.1622905636376153
30
0
10
-13.472683157206086
20
-4.9000982128627326
30
0
10
-15.131497772451148
20
-5.8450566066238121
30
0
10
-16.291136080511762
20
-7.6226782915231244
30
0
0
SPLINE
5
272
100
AcDbEntity
8
0
100
AcDbSpline
70
4
71
3
72
8
73
4
74
0
42
0.000000001
43
0.0000000001
44
0.0000000001
40
0
40
0
40
0
40
0
40
0.23168509773290255
40
0.23168509773290255
40
0.23168509773290255
40
0.23168509773290255
41
1
41
1
41
1
41
1
10
-16.291136080511762
20
-7.6226782915231244
30
0
10
-16.36891863868415
20
-7.7419146786425932
30
0
10
-16.442407164538572
20
-7.8656125970886031
30
0
10
-16.511714739545251
20
-7.992565393595374
30
0
0
ARC
5
273
100
AcDbEntity
8
0
100
AcDbCircle
10
4.9960036108132044e-15
20
-1.7763568394002505e-14
30
0
40
18.684999999999985
210
0
220
0
230
1
100
AcDbArc
50
136.39140643893177
51
137.93275953869002
0
LINE
5
274
100
AcDbEntity
8
0
100
AcDbLine
10
-13.87097873737682
20
12.518992526047736
30
0
11
-13.855361283477547
21
12.517487539360626
31
0
0
SPLINE
5
275
100
AcDbEntity
8
0
100
AcDbSpline
70
4
71
3
72
8
73
4
74
0
42
0.000000001
43
0.0000000001
44
0.0000000001
40
0
40
0
40
0
40
0
40
1
40
1
40
1
40
1
41
1
41
1
41
1
41
1
10
-13.855361283477547
20
12.517487539360626
30
0
10
-12.975676372640876
20
12.43342724824792
30
0
10
-12.107592841670167
20
12.185025406279848
30
0
10
-11.277031939470429
20
11.895044871513536
30
0
0
SPLINE
5
276
100
AcDbEntity
8
0
100
AcDbSpline
70
4
71
3
72
8
73
4
74
0
42
0.000000001
43
0.0000000001
44
0.0000000001
40
0
40
0
40
0
40
0
40
1
40
1
40
1
40
1
41
1
41
1
41
1
41
1
10
-11.277031939470429
20
11.895044871513536
30
0
10
-10.865788007149002
20
11.751465898564337
30
0
10
-10.349987191151364
20
11.460636845061124
30
0
10
-9.9200172108716718
20
11.421928329562716
30
0
0
SPLINE
5
277
100
AcDbEntity
8
0
100
AcDbSpline
70
4
71
3
72
8
73
4
74
0
42
0.000000001
43
0.0000000001
44
0.0000000001
40
0
40
0
40
0
40
0
40
1
40
1
40
1
40
1
41
1
41
1
41
1
41
1
10
-9.9200172108716718
20
11.421928329562716
30
0
10
-9.4810207248099552
20
11.382405287064488
30
0
10
-8.7990547012625235
20
11.81365123217488
30
0
10
-8.359448063520194
20
11.938028272846672
30
0
0
SPLINE
5
278
100
AcDbEntity
8
0
100
AcDbSpline
70
4
71
3
72
8
73
4
74
0
42
0.000000001
43
0.0000000001
44
0.0000000001
40
0
40
0
40
0
40
0
40
1
40
1
40
1
40
1
41
1
41
1
41
1
41
1
10
-8.359448063520194
20
11.938028272846672
30
0
10
-7.3313050907729727
20
12.228911288232499
30
0
10
-6.2339566409144256
20
12.382254387658396
30
0
10
-5.170462261602319
20
12.455078285182058
30
0
0
SPLINE
5
279
100
AcDbEntity
8
0
100
AcDbSpline
70
4
71
3
72
8
73
4
74
0
42
0.000000001
43
0.0000000001
44
0.0000000001
40
0
40
0
40
0
40
0
40
1
40
1
40
1
40
1
41
1
41
1
41
1
41
1
10
-5.170462261602319
20
12.455078285182058
30
0
10
-3.5961876458595294
20
12.562886478510125
30
0
10
-2.0396924081972849
20
12.548454436738696
30
0
10
-0.48875991830844467
20
12.212681508466169
30
0
0
SPLINE
5
280
100
AcDbEntity
8
0
100
AcDbSpline
70
4
71
3
72
8
73
4
74
0
42
0.000000001
43
0.0000000001
44
0.0000000001
40
0
40
0
40
0
40
0
40
1
40
1
40
1
40
1
41
1
41
1
41
1
41
1
10
-0.48875991830844467
20
12.212681508466169
30
0
10
0.15283751828085571
20
12.073777674055833
30
0
10
0.78317179278815807
20
11.637503926134354
30
0
10
1.4084175042543445
20
11.548415407313847
30
0
0
SPLINE
5
281
100
AcDbEntity
8
0
100
AcDbSpline
70
4
71
3
72
8
73
4
74
0
42
0.000000001
43
0.0000000001
44
0.0000000001
40
0
40
0
40
0
40
0
40
1
40
1
40
1
40
1
41
1
41
1
41
1
41
1
10
1.4084175042543445
20
11.548415407313847
30
0
10
1.7617174219595877
20
11.498063447174845
30
0
10
2.3073034975749951
20
11.953762623045041
30
0
10
2.6323783763945152
20
12.092890802920115
30
0
0
SPLINE
5
282
100
AcDbEntity
8
0
100
AcDbSpline
70
4
71
3
72
8
73
4
74
0
42
0.000000001
43
0.0000000001
44
0.0000000001
40
0
40
0
40
0
40
0
40
1
40
1
40
1
40
1
41
1
41
1
41
1
41
1
10
2.6323783763945152
20
12.092890802920115
30
0
10
3.8260764050109115
20
12.603766216214623
30
0
10
5.0459650670487042
20
12.962642690836461
30
0
10
6.2963205230327501
20
13.304105198551387
30
0
0
SPLINE
5
283
100
AcDbEntity
8
0
100
AcDbSpline
70
4
71
3
72
8
73
4
74
0
42
0.000000001
43
0.0000000001
44
0.0000000001
40
0
40
0
40
0
40
0
40
1
40
1
40
1
40
1
41
1
41
1
41
1
41
1
10
6.2963205230327501
20
13.304105198551387
30
0
10
6.6719428144794879
20
13.406679939059025
30
0
10
7.4793655412477689
20
13.589650448973616
30
0
10
7.8275089124377306
20
13.34226644708278
30
0
0
SPLINE
5
284
100
AcDbEntity
8
0
100
AcDbSpline
70
4
71
3
72
8
73
4
74
0
42
0.000000001
43
0.0000000001
44
0.0000000001
40
0
40
0
40
0
40
0
40
1
40
1
40
1
40
1
41
1
41
1
41
1
41
1
10
7.8275089124377306
20
13.34226644708278
30
0
10
8.1042050514558284
20
13.145646980039778
30
0
10
8.0445631495724168
20
12.620186349708613
30
0
10
8.0797785891889795
20
12.325449096234443
30
0
0
SPLINE
5
285
100
AcDbEntity
8
0
100
AcDbSpline
70
4
71
3
72
8
73
4
74
0
42
0.000000001
43
0.0000000001
44
0.0000000001
40
0
40
0
40
0
40
0
40
1
40
1
40
1
40
1
41
1
41
1
41
1
41
1
10
8.0797785891889795
20
12.325449096234443
30
0
10
8.2017069501007498
20
11.30615417264957
30
0
10
8.092185573223766
20
10.287754931336794
30
0
10
7.9976783466157375
20
9.2721642573003908
30
0
0
SPLINE
5
286
100
AcDbEntity
8
0
100
AcDbSpline
70
4
71
3
72
8
73
4
74
0
42
0.000000001
43
0.0000000001
44
0.0000000001
40
0
40
0
40
0
40
0
40
1
40
1
40
1
40
1
41
1
41
1
41
1
41
1
10
7.9976783466157375
20
9.2721642573003908
30
0
10
7.9249428276084855
20
8.490896472629565
30
0
10
7.7439164326066079
20
7.6458219484894032
30
0
10
7.5055561746691568
20
6.8973859328722877
30
0
0
SPLINE
5
287
100
AcDbEntity
8
0
100
AcDbSpline
70
4
71
3
72
8
73
4
74
0
42
0.000000001
43
0.0000000001
44
0.0000000001
40
0
40
0
40
0
40
0
40
1
40
1
40
1
40
1
41
1
41
1
41
1
41
1
10
7.5055561746691568
20
6.8973859328722877
30
0
10
7.3879039742822528
20
6.5281430406823384
30
0
10
7.0793847710083391
20
6.0976300424027698
30
0
10
7.0540099392769084
20
5.7151550167603729
30
0
0
SPLINE
5
288
100
AcDbEntity
8
0
100
AcDbSpline
70
4
71
3
72
8
73
4
74
0
42
0.000000001
43
0.0000000001
44
0.0000000001
40
0
40
0
40
0
40
0
40
1
40
1
40
1
40
1
41
1
41
1
41
1
41
1
10
7.0540099392769084
20
5.7151550167603729
30
0
10
7.0059048329589979
20
4.98854084655623
30
0
10
7.3464476517375088
20
4.1191698785435529
30
0
10
7.3792836697583519
20
3.3691464488047247
30
0
0
SPLINE
5
289
100
AcDbEntity
8
0
100
AcDbSpline
70
4
71
3
72
8
73
4
74
0
42
0.000000001
43
0.0000000001
44
0.0000000001
40
0
40
0
40
0
40
0
40
1
40
1
40
1
40
1
41
1
41
1
41
1
41
1
10
7.3792836697583519
20
3.3691464488047247
30
0
10
7.472648774000441
20
1.2369348597779233
30
0
10
7.2446695925677185
20
-1.16328458026892
30
0
10
6.4320257349837018
20
-3.144525268221412
30
0
0
SPLINE
5
290
100
AcDbEntity
8
0
100
AcDbSpline
70
4
71
3
72
8
73
4
74
0
42
0.000000001
43
0.0000000001
44
0.0000000001
40
0
40
0
40
0
40
0
40
1
40
1
40
1
40
1
41
1
41
1
41
1
41
1
10
6.4320257349837018
20
-3.144525268221412
30
0
10
7.109039162438342
20
-3.1141281573361734
30
0
10
7.1904629694436561
20
-1.6193092270216729
30
0
10
7.381935025250721
20
-1.1090031753232805
30
0
0
SPLINE
5
291
100
AcDbEntity
8
0
100
AcDbSpline
70
4
71
3
72
8
73
4
74
0
42
0.000000001
43
0.0000000001
44
0.0000000001
40
0
40
0
40
0
40
0
40
1
40
1
40
1
40
1
41
1
41
1
41
1
41
1
10
7.381935025250721
20
-1.1090031753232805
30
0
10
8.1223226473203347
20
-1.4389609671745722
30
0
10
8.7733527909497813
20
-2.2502536532095934
30
0
10
9.2989908156588399
20
-2.8537871426148942
30
0
0
SPLINE
5
292
100
AcDbEntity
8
0
100
AcDbSpline
70
4
71
3
72
8
73
4
74
0
42
0.000000001
43
0.0000000001
44
0.0000000001
40
0
40
0
40
0
40
0
40
1
40
1
40
1
40
1
41
1
41
1
41
1
41
1
10
9.2989908156588399
20
-2.8537871426148942
30
0
10
9.4478542290340908
20
-3.0246347119476824
30
0
10
9.8077349470383339
20
-3.3349843702634425
30
0
10
9.6795657031983744
20
-3.5930207452105862
30
0
0
SPLINE
5
293
100
AcDbEntity
8
0
100
AcDbSpline
70
4
71
3
72
8
73
4
74
0
42
0.000000001
43
0.0000000001
44
0.0000000001
40
0
40
0
40
0
40
0
40
1
40
1
40
1
40
1
41
1
41
1
41
1
41
1
10
9.6795657031983744
20
-3.5930207452105862
30
0
10
9.4198314409840016
20
-4.1160142127746937
30
0
10
8.5165350197770131
20
-3.7811021252437578
30
0
10
8.3318443155177349
20
-4.3658415832166311
30
0
0
LINE
5
294
100
AcDbEntity
8
0
100
AcDbLine
10
8.3318443155177331
20
-4.3658415832166311
30
0
11
10.692373303761222
21
-4.7748437604775242
31
0
0
LINE
5
295
100
AcDbEntity
8
0
100
AcDbLine
10
10.692373303761222
20
-4.7748437604775242
30
0
11
11.158547400498014
21
-5.4233501546672125
31
0
0
ARC
5
296
100
AcDbEntity
8
0
100
AcDbCircle
10
10.762225485084185
20
-11.410246605934272
30
0
40
6.0000000149026187
210
0
220
-0
230
1
100
AcDbArc
50
83.395758209330722
51
86.212646992977639
0
LINE
5
297
100
AcDbEntity
8
0
100
AcDbLine
10
11.452289643332465
20
-5.4500610688614115
30
0
11
11.113731477451287
21
-4.7729453219615161
31
0
0
SPLINE
5
298
100
AcDbEntity
8
0
100
AcDbSpline
70
4
71
3
72
8
73
4
74
0
42
0.000000001
43
0.0000000001
44
0.0000000001
40
0
40
0
40
0
40
0
40
1
40
1
40
1
40
1
41
1
41
1
41
1
41
1
10
11.113731477451287
20
-4.7729453219615161
30
0
10
11.755668831411404
20
-4.6200776819580494
30
0
10
12.429085933082806
20
-4.755703013326861
30
0
10
13.081404363547646
20
-4.693559319594244
30
0
0
SPLINE
5
299
100
AcDbEntity
8
0
100
AcDbSpline
70
4
71
3
72
8
73
4
74
0
42
0.000000001
43
0.0000000001
44
0.0000000001
40
0
40
0
40
0
40
0
40
1
40
1
40
1
40
1
41
1
41
1
41
1
41
1
10
13.081404363547646
20
-4.693559319594244
30
0
10
14.728888683029982
20
-4.5366874529625658
30
0
10
16.402087751614559
20
-3.9870274676579238
30
0
10
17.482882225514349
20
-2.6634640075211924
30
0
0
SPLINE
5
300
100
AcDbEntity
8
0
100
AcDbSpline
70
4
71
3
72
8
73
4
74
0
42
0.000000001
43
0.0000000001
44
0.0000000001
40
0
40
0
40
0
40
0
40
1
40
1
40
1
40
1
41
1
41
1
41
1
41
1
10
17.482882225514349
20
-2.6634640075211924
30
0
10
19.382364287851274
20
-0.33733635679115687
30
0
10
18.630511252864032
20
3.8854928321825239
30
0
10
15.049073850470304
20
3.6344434587925063
30
0
0
SPLINE
5
301
100
AcDbEntity
8
0
100
AcDbSpline
70
4
71
3
72
8
73
4
74
0
42
0.000000001
43
0.0000000001
44
0.0000000001
40
0
40
0
40
0
40
0
40
1
40
1
40
1
40
1
41
1
41
1
41
1
41
1
10
15.049073850470304
20
3.6344434587925063
30
0
10
13.384627654184245
20
3.5178084611377676
30
0
10
11.746844576465014
20
2.4008484785699791
30
0
10
11.232196080354441
20
0.79081710479760825
30
0
0
SPLINE
5
302
100
AcDbEntity
8
0
100
AcDbSpline
70
4
71
3
72
8
73
4
74
0
42
0.000000001
43
0.0000000001
44
0.0000000001
40
0
40
0
40
0
40
0
40
1
40
1
40
1
40
1
41
1
41
1
41
1
41
1
10
11.232196080354441
20
0.79081710479760825
30
0
10
10.959980052283697
20
-0.06091215166971093
30
0
10
11.019618554993402
20
-0.91644338392960667
30
0
10
10.889889090421397
20
-1.7875122392095102
30
0
0
SPLINE
5
303
100
AcDbEntity
8
0
100
AcDbSpline
70
4
71
3
72
8
73
4
74
0
42
0.000000001
43
0.0000000001
44
0.0000000001
40
0
40
0
40
0
40
0
40
1
40
1
40
1
40
1
41
1
41
1
41
1
41
1
10
10.889889090421397
20
-1.7875122392095102
30
0
10
10.839815862526462
20
-2.1237805970500072
30
0
10
10.451980339946292
20
-3.5497339676239976
30
0
10
9.9117530616818019
20
-3.1244446495404454
30
0
0
SPLINE
5
304
100
AcDbEntity
8
0
100
AcDbSpline
70
4
71
3
72
8
73
4
74
0
42
0.000000001
43
0.0000000001
44
0.0000000001
40
0
40
0
40
0
40
0
40
1
40
1
40
1
40
1
41
1
41
1
41
1
41
1
10
9.9117530616818019
20
-3.1244446495404454
30
0
10
9.2943101534626997
20
-2.6382931262122522
30
0
10
8.8004238103615844
20
-1.9152072983171811
30
0
10
8.2222685518614256
20
-1.3722657798467246
30
0
0
SPLINE
5
305
100
AcDbEntity
8
0
100
AcDbSpline
70
4
71
3
72
8
73
4
74
0
42
0.000000001
43
0.0000000001
44
0.0000000001
40
0
40
0
40
0
40
0
40
1
40
1
40
1
40
1
41
1
41
1
41
1
41
1
10
8.2222685518614256
20
-1.3722657798467246
30
0
10
7.9928651166449827
20
-1.1569060308055541
30
0
10
7.5990572458595729
20
-0.92764026212429251
30
0
10
7.4804532768343801
20
-0.6279436142099124
30
0
0
SPLINE
5
306
100
AcDbEntity
8
0
100
AcDbSpline
70
4
71
3
72
8
73
4
74
0
42
0.000000001
43
0.0000000001
44
0.0000000001
40
0
40
0
40
0
40
0
40
1
40
1
40
1
40
1
41
1
41
1
41
1
41
1
10
7.4804532768343801
20
-0.6279436142099124
30
0
10
7.2577020245648116
20
-0.06518831219457849
30
0
10
7.5850118600974481
20
1.0080056092937679
30
0
10
7.6418018552397093
20
1.6050245822873779
30
0
0
SPLINE
5
307
100
AcDbEntity
8
0
100
AcDbSpline
70
4
71
3
72
8
73
4
74
0
42
0.000000001
43
0.0000000001
44
0.0000000001
40
0
40
0
40
0
40
0
40
1
40
1
40
1
40
1
41
1
41
1
41
1
41
1
10
7.6418018552397093
20
1.6050245822873779
30
0
10
7.7351669594817984
20
2.5858757010263655
30
0
10
7.6483078737171306
20
3.6123896197739498
30
0
10
7.5793794292630201
20
4.5904602144196618
30
0
0
SPLINE
5
308
100
AcDbEntity
8
0
100
AcDbSpline
70
4
71
3
72
8
73
4
74
0
42
0.000000001
43
0.0000000001
44
0.0000000001
40
0
40
0
40
0
40
0
40
1
40
1
40
1
40
1
41
1
41
1
41
1
41
1
10
7.5793794292630201
20
4.5904602144196618
30
0
10
7.5517645420579127
20
4.9824342309895178
30
0
10
7.3475319881504131
20
5.4200718973613951
30
0
10
7.4312604349298583
20
5.8117739800345989
30
0
0
SPLINE
5
309
100
AcDbEntity
8
0
100
AcDbSpline
70
4
71
3
72
8
73
4
74
0
42
0.000000001
43
0.0000000001
44
0.0000000001
40
0
40
0
40
0
40
0
40
1
40
1
40
1
40
1
41
1
41
1
41
1
41
1
10
7.4312604349298583
20
5.8117739800345989
30
0
10
7.5382596249153844
20
6.3124459236506327
30
0
10
7.8051185552220659
20
6.7999537172883837
30
0
10
7.9318635452783059
20
7.3044913712040271
30
0
0
SPLINE
5
310
100
AcDbEntity
8
0
100
AcDbSpline
70
4
71
3
72
8
73
4
74
0
42
0.000000001
43
0.0000000001
44
0.0000000001
40
0
40
0
40
0
40
0
40
1
40
1
40
1
40
1
41
1
41
1
41
1
41
1
10
7.9318635452783059
20
7.3044913712040271
30
0
10
8.267997635757327
20
8.642766455149685
30
0
10
8.3996952219063594
20
10.000182286246002
30
0
10
8.3996952219063594
20
11.375537681483861
30
0
0
SPLINE
5
311
100
AcDbEntity
8
0
100
AcDbSpline
70
4
71
3
72
8
73
4
74
0
42
0.000000001
43
0.0000000001
44
0.0000000001
40
0
40
0
40
0
40
0
40
1
40
1
40
1
40
1
41
1
41
1
41
1
41
1
10
8.3996952219063594
20
11.375537681483861
30
0
10
8.3996952219063594
20
11.980325465987473
30
0
10
8.5138870634583554
20
12.862243209053689
30
0
10
8.1866452113998847
20
13.403941904637101
30
0
0
SPLINE
5
312
100
AcDbEntity
8
0
100
AcDbSpline
70
4
71
3
72
8
73
4
74
0
42
0.000000001
43
0.0000000001
44
0.0000000001
40
0
40
0
40
0
40
0
40
1
40
1
40
1
40
1
41
1
41
1
41
1
41
1
10
8.1866452113998847
20
13.403941904637101
30
0
10
7.8451540231567973
20
13.969243187759851
30
0
10
6.8856080754271431
20
13.742160538392653
30
0
10
6.3641748285950772
20
13.622257872562589
30
0
0
SPLINE
5
313
100
AcDbEntity
8
0
100
AcDbSpline
70
4
71
3
72
8
73
4
74
0
42
0.000000001
43
0.0000000001
44
0.0000000001
40
0
40
0
40
0
40
0
40
1
40
1
40
1
40
1
41
1
41
1
41
1
41
1
10
6.3641748285950772
20
13.622257872562589
30
0
10
4.6981004281028103
20
13.239164197305307
30
0
10
3.226482557933374
20
12.417901947232604
30
0
10
1.6146215789125828
20
11.938237322029723
30
0
0
SPLINE
5
314
100
AcDbEntity
8
0
100
AcDbSpline
70
4
71
3
72
8
73
4
74
0
42
0.000000001
43
0.0000000001
44
0.0000000001
40
0
40
0
40
0
40
0
40
1
40
1
40
1
40
1
41
1
41
1
41
1
41
1
10
1.6146215789125828
20
11.938237322029723
30
0
10
1.2295002965383819
20
11.823637579632747
30
0
10
0.69076355594491812
20
12.201919299609411
30
0
10
0.32545435752873897
20
12.325190334135911
30
0
0
SPLINE
5
315
100
AcDbEntity
8
0
100
AcDbSpline
70
4
71
3
72
8
73
4
74
0
42
0.000000001
43
0.0000000001
44
0.0000000001
40
0
40
0
40
0
40
0
40
1
40
1
40
1
40
1
41
1
41
1
41
1
41
1
10
0.32545435752873897
20
12.325190334135911
30
0
10
-0.48705693228065738
20
12.59936853522969
30
0
10
-1.398428090631386
20
12.735823052534936
30
0
10
-2.2528749864783753
20
12.794330905089964
30
0
0
SPLINE
5
316
100
AcDbEntity
8
0
100
AcDbSpline
70
4
71
3
72
8
73
4
74
0
42
0.000000001
43
0.0000000001
44
0.0000000001
40
0
40
0
40
0
40
0
40
1
40
1
40
1
40
1
41
1
41
1
41
1
41
1
10
-2.2528749864783753
20
12.794330905089964
30
0
10
-4.0415575826240504
20
12.916821829250438
30
0
10
-5.8559532282851166
20
12.749943007670286
30
0
10
-7.6130846940716301
20
12.432353534252856
30
0
0
SPLINE
5
317
100
AcDbEntity
8
0
100
AcDbSpline
70
4
71
3
72
8
73
4
74
0
42
0.000000001
43
0.0000000001
44
0.0000000001
40
0
40
0
40
0
40
0
40
1
40
1
40
1
40
1
41
1
41
1
41
1
41
1
10
-7.6130846940716301
20
12.432353534252856
30
0
10
-8.3080117669682849
20
12.306748542078992
30
0
10
-9.3113900596646886
20
11.700841154735253
30
0
10
-9.9878630184997323
20
11.782485908031596
30
0
0
SPLINE
5
318
100
AcDbEntity
8
0
100
AcDbSpline
70
4
71
3
72
8
73
4
74
0
42
0.000000001
43
0.0000000001
44
0.0000000001
40
0
40
0
40
0
40
0
40
0.68788032578873959
40
0.68788032578873959
40
0.68788032578873959
40
0.68788032578873959
41
1
41
1
41
1
41
1
10
-9.9878630184997323
20
11.782485908031596
30
0
10
-11.082116528495254
20
11.914552347429058
30
0
10
-12.318950733928414
20
12.653551190547827
30
0
10
-13.529218428826898
20
12.887570512128711
30
0
0
SPLINE
5
319
100
AcDbEntity
8
0
100
AcDbSpline
70
4
71
3
72
8
73
4
74
0
42
0.000000001
43
0.0000000001
44
0.0000000001
40
0
40
0
40
0
40
0
40
1
40
1
40
1
40
1
41
1
41
1
41
1
41
1
10
17.968076881443697
20
-1.312557594076003
30
0
10
16.796429292672141
20
-4.9805039673424547
30
0
10
12.216433625900187
20
-4.4239912478421575
30
0
10
9.281757004958461
20
-4.2979940760017135
30
0
0
SPLINE
5
320
100
AcDbEntity
8
0
100
AcDbSpline
70
4
71
3
72
8
73
4
74
0
42
0.000000001
43
0.0000000001
44
0.0000000001
40
0
40
0
40
0
40
0
40
1
40
1
40
1
40
1
41
1
41
1
41
1
41
1
10
9.281757004958461
20
-4.2979940760017135
30
0
10
9.3952724109425336
20
-3.97156292687264
30
0
10
9.8251081238607512
20
-3.8661919410933261
30
0
10
10.095695947725282
20
-3.6731562653805079
30
0
0
SPLINE
5
321
100
AcDbEntity
8
0
100
AcDbSpline
70
4
71
3
72
8
73
4
74
0
42
0.000000001
43
0.0000000001
44
0.0000000001
40
0
40
0
40
0
40
0
40
1
40
1
40
1
40
1
41
1
41
1
41
1
41
1
10
10.095695947725282
20
-3.6731562653805079
30
0
10
10.469822602740438
20
-3.4062973350738286
30
0
10
10.737901836408346
20
-3.0219918543895874
30
0
10
10.918384363616919
20
-2.6017231158729892
30
0
0
SPLINE
5
322
100
AcDbEntity
8
0
100
AcDbSpline
70
4
71
3
72
8
73
4
74
0
42
0.000000001
43
0.0000000001
44
0.0000000001
40
0
40
0
40
0
40
0
40
1
40
1
40
1
40
1
41
1
41
1
41
1
41
1
10
10.918384363616919
20
-2.6017231158729892
30
0
10
11.469536586179442
20
-1.3185979257554075
30
0
10
11.040785209674128
20
0.13279656043732141
30
0
10
11.748064879826241
20
1.4014718631215066
30
0
0
SPLINE
5
323
100
AcDbEntity
8
0
100
AcDbSpline
70
4
71
3
72
8
73
4
74
0
42
0.000000001
43
0.0000000001
44
0.0000000001
40
0
40
0
40
0
40
0
40
1
40
1
40
1
40
1
41
1
41
1
41
1
41
1
10
11.748064879826241
20
1.4014718631215066
30
0
10
12.951804067576553
20
3.560755321353541
30
0
10
16.848610008266146
20
4.3006696084842924
30
0
10
18.031655026481161
20
1.7407263950646226
30
0
0
SPLINE
5
324
100
AcDbEntity
8
0
100
AcDbSpline
70
4
71
3
72
8
73
4
74
0
42
0.000000001
43
0.0000000001
44
0.0000000001
40
0
40
0
40
0
40
0
40
1
40
1
40
1
40
1
41
1
41
1
41
1
41
1
10
18.031655026481161
20
1.7407263950646226
30
0
10
18.281348129561625
20
1.2004311333259703
30
0
10
18.240772193007288
20
0.62478446502243068
30
0
10
18.23798826974031
20
0.044457134522751685
30
0
0
SPLINE
5
325
100
AcDbEntity
8
0
100
AcDbSpline
70
4
71
3
72
8
73
4
74
0
42
0.000000001
43
0.0000000001
44
0.0000000001
40
0
40
0
40
0
40
0
40
1
40
1
40
1
40
1
41
1
41
1
41
1
41
1
10
18.23798826974031
20
0.044457134522751685
30
0
10
18.235738016745508
20
-0.42757931998229964
30
0
10
18.110835378839084
20
-0.86555775351842068
30
0
10
17.968076881443697
20
-1.312557594076003
30
0
0
SPLINE
5
326
100
AcDbEntity
8
0
100
AcDbSpline
70
4
71
3
72
8
73
4
74
0
42
0.000000001
43
0.0000000001
44
0.0000000001
40
0
40
0
40
0
40
0
40
1
40
1
40
1
40
1
41
1
41
1
41
1
41
1
10
13.284950284366101
20
7.6214422248610365
30
0
10
15.011886890103007
20
7.9248031820328162
30
0
10
15.684219655361517
20
5.2559393956890812
30
0
10
13.963459348252334
20
4.936837714868231
30
0
0
SPLINE
5
327
100
AcDbEntity
8
0
100
AcDbSpline
70
4
71
3
72
8
73
4
74
0
42
0.000000001
43
0.0000000001
44
0.0000000001
40
0
40
0
40
0
40
0
40
1
40
1
40
1
40
1
41
1
41
1
41
1
41
1
10
13.963459348252334
20
4.936837714868231
30
0
10
12.120835264531834
20
4.5951425762026545
30
0
10
11.394156510027241
20
7.2892860174139908
30
0
10
13.284950284366101
20
7.6214422248610365
30
0
0
SPLINE
5
328
100
AcDbEntity
8
0
100
AcDbSpline
70
4
71
3
72
8
73
4
74
0
42
0.000000001
43
0.0000000001
44
0.0000000001
40
0
40
0
40
0
40
0
40
1
40
1
40
1
40
1
41
1
41
1
41
1
41
1
10
13.82775753547509
20
4.6327297892740846
30
0
10
15.986226041810593
20
5.0142564454519043
30
0
10
15.376924154622532
20
8.2917261381669434
30
0
10
13.217099377977476
20
7.8834207915162233
30
0
0
SPLINE
5
329
100
AcDbEntity
8
0
100
AcDbSpline
70
4
71
3
72
8
73
4
74
0
42
0.000000001
43
0.0000000001
44
0.0000000001
40
0
40
0
40
0
40
0
40
1
40
1
40
1
40
1
41
1
41
1
41
1
41
1
10
13.217099377977476
20
7.8834207915162233
30
0
10
11.159525145647644
20
7.4944388976029774
30
0
10
11.772012058600245
20
4.2693207289607695
30
0
10
13.82775753547509
20
4.6327297892740846
30
0
0
SPLINE
5
330
100
AcDbEntity
8
0
100
AcDbSpline
70
4
71
3
72
8
73
4
74
0
42
0.000000001
43
0.0000000001
44
0.0000000001
40
0
40
0
40
0
40
0
40
1
40
1
40
1
40
1
41
1
41
1
41
1
41
1
10
16.603668950029689
20
-0.004462073898262673
30
0
10
16.53093343102244
20
0.19542633601020803
30
0
10
16.630063533873564
20
0.44416597086552961
30
0
10
16.590969637055991
20
0.65511529202036156
30
0
0
SPLINE
5
331
100
AcDbEntity
8
0
100
AcDbSpline
70
4
71
3
72
8
73
4
74
0
42
0.000000001
43
0.0000000001
44
0.0000000001
40
0
40
0
40
0
40
0
40
1
40
1
40
1
40
1
41
1
41
1
41
1
41
1
10
16.590969637055991
20
0.65511529202036156
30
0
10
16.520814090893236
20
1.0344698761986653
30
0
10
15.934106511343341
20
1.9182244477574308
30
0
10
16.678508557562296
20
2.043206116452561
30
0
0
SPLINE
5
332
100
AcDbEntity
8
0
100
AcDbSpline
70
4
71
3
72
8
73
4
74
0
42
0.000000001
43
0.0000000001
44
0.0000000001
40
0
40
0
40
0
40
0
40
1
40
1
40
1
40
1
41
1
41
1
41
1
41
1
10
16.678508557562296
20
2.043206116452561
30
0
10
17.479149932782793
20
2.1775508091268225
30
0
10
17.916922716309564
20
-0.10094422043073542
30
0
10
16.949912183116783
20
-0.18134827532359954
30
0
0
SPLINE
5
333
100
AcDbEntity
8
0
100
AcDbSpline
70
4
71
3
72
8
73
4
74
0
42
0.000000001
43
0.0000000001
44
0.0000000001
40
0
40
0
40
0
40
0
40
1
40
1
40
1
40
1
41
1
41
1
41
1
41
1
10
16.949912183116783
20
-0.18134827532359954
30
0
10
16.808649322152988
20
-0.19308732172473753
30
0
10
16.656322150769117
20
-0.14905102633549941
30
0
10
16.603668950029689
20
-0.004462073898262673
30
0
0
SPLINE
5
334
100
AcDbEntity
8
0
100
AcDbSpline
70
4
71
3
72
8
73
4
74
0
42
0.000000001
43
0.0000000001
44
0.0000000001
40
0
40
0
40
0
40
0
40
1
40
1
40
1
40
1
41
1
41
1
41
1
41
1
10
17.152173216273553
20
-0.38591904701506524
30
0
10
18.197415732359687
20
-0.066680549452461435
30
0
10
17.622448898797781
20
2.541162120275775
30
0
10
16.609909832957875
20
2.2389551825779175
30
0
0
SPLINE
5
335
100
AcDbEntity
8
0
100
AcDbSpline
70
4
71
3
72
8
73
4
74
0
42
0.000000001
43
0.0000000001
44
0.0000000001
40
0
40
0
40
0
40
0
40
1
40
1
40
1
40
1
41
1
41
1
41
1
41
1
10
16.609909832957875
20
2.2389551825779175
30
0
10
15.726627746544541
20
1.9752880763832017
30
0
10
16.273711158178394
20
1.2127123479335604
30
0
10
16.378674243112737
20
0.65511529202036156
30
0
0
SPLINE
5
336
100
AcDbEntity
8
0
100
AcDbSpline
70
4
71
3
72
8
73
4
74
0
42
0.000000001
43
0.0000000001
44
0.0000000001
40
0
40
0
40
0
40
0
40
1
40
1
40
1
40
1
41
1
41
1
41
1
41
1
10
16.378674243112737
20
0.65511529202036156
30
0
10
16.469595341458657
20
0.17167970848498731
30
0
10
16.284836653725211
20
-0.65087613963202706
30
0
10
17.152173216273553
20
-0.38591904701506524
30
0
0
ARC
5
337
100
AcDbEntity
8
0
100
AcDbCircle
10
4.9960036108132044e-15
20
-1.7763568394002505e-14
30
0
40
18.684999999999985
210
0
220
0
230
1
100
AcDbArc
50
183.66602828703282
51
184.64667677971579
0
SPLINE
5
338
100
AcDbEntity
8
0
100
AcDbSpline
70
4
71
3
72
8
73
4
74
0
42
0.000000001
43
0.0000000001
44
0.0000000001
40
0.12586212255404189
40
0.12586212255404189
40
0.12586212255404189
40
0.12586212255404189
40
1
40
1
40
1
40
1
41
1
41
1
41
1
41
1
10
-18.623586376655044
20
-1.513689357585575
30
0
10
-17.673872021564041
20
-0.74084097784791914
30
0
10
-16.397050581376899
20
0.28561266208785707
30
0
10
-15.280226918464926
20
0.38371166646586768
30
0
0
SPLINE
5
339
100
AcDbEntity
8
0
100
AcDbSpline
70
4
71
3
72
8
73
4
74
0
42
0.000000001
43
0.0000000001
44
0.0000000001
40
0
40
0
40
0
40
0
40
1
40
1
40
1
40
1
41
1
41
1
41
1
41
1
10
-15.280226918464926
20
0.38371166646586768
30
0
10
-15.271939732964427
20
-0.6162725512829379
30
0
10
-15.033452855806349
20
-2.2915774079797191
30
0
10
-14.194614965627235
20
-2.9409759482292519
30
0
0
SPLINE
5
340
100
AcDbEntity
8
0
100
AcDbSpline
70
4
71
3
72
8
73
4
74
0
42
0.000000001
43
0.0000000001
44
0.0000000001
40
0
40
0
40
0
40
0
40
1
40
1
40
1
40
1
41
1
41
1
41
1
41
1
10
-14.194614965627235
20
-2.9409759482292519
30
0
10
-14.191027987571697
20
-2.5557866823808872
30
0
10
-14.44776672795575
20
-2.2127352734057553
30
0
10
-14.580006482311237
20
-1.8553631455981348
30
0
0
SPLINE
5
341
100
AcDbEntity
8
0
100
AcDbSpline
70
4
71
3
72
8
73
4
74
0
42
0.000000001
43
0.0000000001
44
0.0000000001
40
0
40
0
40
0
40
0
40
1
40
1
40
1
40
1
41
1
41
1
41
1
41
1
10
-14.580006482311237
20
-1.8553631455981348
30
0
10
-14.793601210404443
20
-1.2780882730883851
30
0
10
-14.91546243763548
20
-0.70169718574275874
30
0
10
-14.989487943064981
20
-0.091242978667639474
30
0
0
SPLINE
5
342
100
AcDbEntity
8
0
100
AcDbSpline
70
4
71
3
72
8
73
4
74
0
42
0.000000001
43
0.0000000001
44
0.0000000001
40
0
40
0
40
0
40
0
40
1
40
1
40
1
40
1
41
1
41
1
41
1
41
1
10
-14.989487943064981
20
-0.091242978667639474
30
0
10
-15.092687706638209
20
0.76021774307673273
30
0
10
-15.090312534009628
20
1.6348812245530178
30
0
10
-14.989487943064981
20
2.4870855155460525
30
0
0
SPLINE
5
343
100
AcDbEntity
8
0
100
AcDbSpline
70
4
71
3
72
8
73
4
74
0
42
0.000000001
43
0.0000000001
44
0.0000000001
40
0
40
0
40
0
40
0
40
1
40
1
40
1
40
1
41
1
41
1
41
1
41
1
10
-14.989487943064981
20
2.4870855155460525
30
0
10
-14.936359707799834
20
2.9357161096901252
30
0
10
-14.746512457025274
20
3.4647482093467836
30
0
10
-14.783492067796368
20
3.9119536999137123
30
0
0
SPLINE
5
344
100
AcDbEntity
8
0
100
AcDbSpline
70
4
71
3
72
8
73
4
74
0
42
0.000000001
43
0.0000000001
44
0.0000000001
40
0
40
0
40
0
40
0
40
1
40
1
40
1
40
1
41
1
41
1
41
1
41
1
10
-14.783492067796368
20
3.9119536999137123
30
0
10
-14.822777168135024
20
4.387045161788973
30
0
10
-15.12145576352381
20
4.9369082477226769
30
0
10
-15.251458861579323
20
5.4046702412897139
30
0
0
SPLINE
5
345
100
AcDbEntity
8
0
100
AcDbSpline
70
4
71
3
72
8
73
4
74
0
42
0.000000001
43
0.0000000001
44
0.0000000001
40
0
40
0
40
0
40
0
40
1
40
1
40
1
40
1
41
1
41
1
41
1
41
1
10
-15.251458861579323
20
5.4046702412897139
30
0
10
-15.499725161495784
20
6.2980623201045454
30
0
10
-15.628777340706439
20
7.1962506330215952
30
0
10
-15.693438122569951
20
8.1187013980740783
30
0
0
SPLINE
5
346
100
AcDbEntity
8
0
100
AcDbSpline
70
4
71
3
72
8
73
4
74
0
42
0.000000001
43
0.0000000001
44
0.0000000001
40
0
40
0
40
0
40
0
40
0.64961552366786846
40
0.64961552366786846
40
0.64961552366786846
40
0.64961552366786846
41
1
41
1
41
1
41
1
10
-15.693438122569951
20
8.1187013980740783
30
0
10
-15.740513248475432
20
8.7905306554937752
30
0
10
-15.740056358932812
20
9.4726705776146751
30
0
10
-15.687716215102803
20
10.150112558705914
30
0
0
ARC
5
347
100
AcDbEntity
8
0
100
AcDbCircle
10
4.9960036108132044e-15
20
-1.7763568394002505e-14
30
0
40
18.684999999999981
210
0
220
0
230
1
100
AcDbArc
50
147.09672046308359
51
149.08896411633998
0
SPLINE
5
348
100
AcDbEntity
8
0
100
AcDbSpline
70
4
71
3
72
8
73
4
74
0
42
0.000000001
43
0.0000000001
44
0.0000000001
40
0.09466635466523099
40
0.09466635466523099
40
0.09466635466523099
40
0.09466635466523099
40
1
40
1
40
1
40
1
41
1
41
1
41
1
41
1
10
-16.031094249227444
20
9.5986062619729164
30
0
10
-16.134815830308675
20
8.251965600884354
30
0
10
-15.90998829763045
20
6.8352037308421103
30
0
10
-15.603463694101755
20
5.5403703544801051
30
0
0
SPLINE
5
349
100
AcDbEntity
8
0
100
AcDbSpline
70
4
71
3
72
8
73
4
74
0
42
0.000000001
43
0.0000000001
44
0.0000000001
40
0
40
0
40
0
40
0
40
1
40
1
40
1
40
1
41
1
41
1
41
1
41
1
10
-15.603463694101755
20
5.5403703544801051
30
0
10
-15.48031502982875
20
5.020159960389555
30
0
10
-15.175596952553988
20
4.51311031710358
30
0
10
-15.123351652659538
20
3.9798029067154812
30
0
0
SPLINE
5
350
100
AcDbEntity
8
0
100
AcDbSpline
70
4
71
3
72
8
73
4
74
0
42
0.000000001
43
0.0000000001
44
0.0000000001
40
0
40
0
40
0
40
0
40
1
40
1
40
1
40
1
41
1
41
1
41
1
41
1
10
-15.123351652659538
20
3.9798029067154812
30
0
10
-15.085558789578764
20
3.5940017895996474
30
0
10
-15.231710512128329
20
3.1467988484130012
30
0
10
-15.268687573519141
20
2.7584874415136906
30
0
0
SPLINE
5
351
100
AcDbEntity
8
0
100
AcDbSpline
70
4
71
3
72
8
73
4
74
0
42
0.000000001
43
0.0000000001
44
0.0000000001
40
0
40
0
40
0
40
0
40
1
40
1
40
1
40
1
41
1
41
1
41
1
41
1
10
-15.268687573519141
20
2.7584874415136906
30
0
10
-15.315845160165901
20
2.263585595267259
30
0
10
-15.162569619317459
20
1.3025457106928666
30
0
10
-15.4178246203779
20
0.88099038492773185
30
0
0
SPLINE
5
352
100
AcDbEntity
8
0
100
AcDbSpline
70
4
71
3
72
8
73
4
74
0
42
0.000000001
43
0.0000000001
44
0.0000000001
40
0
40
0
40
0
40
0
40
1
40
1
40
1
40
1
41
1
41
1
41
1
41
1
10
-15.4178246203779
20
0.88099038492773185
30
0
10
-15.673689773118957
20
0.45834732357598357
30
0
10
-16.489799088298444
20
0.22032698300934994
30
0
10
-16.90864102365104
20
-0.014030747886738613
30
0
0
SPLINE
5
353
100
AcDbEntity
8
0
100
AcDbSpline
70
4
71
3
72
8
73
4
74
0
42
0.000000001
43
0.0000000001
44
0.0000000001
40
0
40
0
40
0
40
0
40
0.6279921637591761
40
0.6279921637591761
40
0.6279921637591761
40
0.6279921637591761
41
1
41
1
41
1
41
1
10
-16.90864102365104
20
-0.014030747886738613
30
0
10
-17.520687547132479
20
-0.3564421299113637
30
0
10
-18.091464851043199
20
-0.76567035958080143
30
0
10
-18.646764982468866
20
-1.1947303832129583
30
0
0
ENDSEC
0
SECTION
2
OBJECTS
0
DICTIONARY
5
C
100
AcDbDictionary
3
ACAD_GROUP
350
D
3
ACAD_MLINESTYLE
350
17
0
DICTIONARY
5
D
100
AcDbDictionary
0
DICTIONARY
5
1A
330
C
100
AcDbDictionary
0
DICTIONARY
5
17
100
AcDbDictionary
0
ENDSEC
0
EOF
