0
SECTION
2
HEADER
9
$INSUNITS
70
4
9
$ACADVER
1
AC1014
9
$HANDSEED
5
FFFF
0
ENDSEC
0
SECTION
2
TABLES
0
TABLE
2
VPORT
5
8
100
AcDbSymbolTable
0
ENDTAB
0
TABLE
2
LTYPE
5
5
100
AcDbSymbolTable
0
LTYPE
5
14
100
AcDbSymbolTableRecord
100
AcDbLinetypeTableRecord
2
BYBLOCK
70
0
0
LTYPE
5
15
100
AcDbSymbolTableRecord
100
AcDbLinetypeTableRecord
2
BYLAYER
70
0
0
ENDTAB
0
TABLE
2
LAYER
5
2
100
AcDbSymbolTable
70
2
0
LAYER
5
50
100
AcDbSymbolTableRecord
100
AcDbLayerTableRecord
2
0
70
0
6
CONTINUOUS
0
ENDTAB
0
TABLE
2
STYLE
5
3
100
AcDbSymbolTable
70
1
0
STYLE
5
11
100
AcDbSymbolTableRecord
100
AcDbTextStyleTableRecord
2
STANDARD
70
0
0
ENDTAB
0
TABLE
2
VIEW
5
6
100
AcDbSymbolTable
70
0
0
ENDTAB
0
TABLE
2
UCS
5
7
100
AcDbSymbolTable
70
0
0
ENDTAB
0
TABLE
2
APPID
5
9
100
AcDbSymbolTable
70
2
0
APPID
5
12
100
AcDbSymbolTableRecord
100
AcDbRegAppTableRecord
2
ACAD
70
0
0
ENDTAB
0
TABLE
2
DIMSTYLE
5
A
100
AcDbSymbolTable
70
1
0
ENDTAB
0
TABLE
2
BLOCK_RECORD
5
1
100
AcDbSymbolTable
70
1
0
BLOCK_RECORD
5
1F
100
AcDbSymbolTableRecord
100
AcDbBlockTableRecord
2
*MODEL_SPACE
0
BLOCK_RECORD
5
1B
100
AcDbSymbolTableRecord
100
AcDbBlockTableRecord
2
*PAPER_SPACE
0
ENDTAB
0
ENDSEC
0
SECTION
2
BLOCKS
0
BLOCK
5
20
100
AcDbEntity
100
AcDbBlockBegin
2
*MODEL_SPACE
0
ENDBLK
5
21
100
AcDbEntity
100
AcDbBlockEnd
0
BLOCK
5
1C
100
AcDbEntity
100
AcDbBlockBegin
2
*PAPER_SPACE
0
ENDBLK
5
1D
100
AcDbEntity
100
AcDbBlockEnd
0
ENDSEC
0
SECTION
2
ENTITIES
0
LWPOLYLINE
5
100
100
AcDbEntity
8
0
100
AcDbPolyline
90
8
70
1
43
0.0
10
-7.0912547358069045
20
-8.0155486949308354
42
0.4586120285515205
10
-14.664806964496396
20
-8.2845694080185126
42
-0.56502397880837807
10
-18.060822820097421
20
-7.8298086861077367
42
-1.5234526665911512
10
18.060822820097421
20
-7.8298086861077394
42
-0.5650239788083784
10
14.664806964496393
20
-8.2845694080185126
42
0.45861202855152045
10
7.0912547358069045
20
-8.0155486949308372
42
-0.39342646008747939
10
4.3733405668804375
20
-8.2192985209961584
42
0.35082988103369217
10
-4.3733405668804357
20
-8.2192985209961567
42
-0.39342646008747978
0
CIRCLE
5
101
100
AcDbEntity
8
0
100
AcDbCircle
10
-7.6245580763737788
20
-16.799570721358347
30
0
40
1.2361663706911485
210
0
220
0
230
1
0
CIRCLE
5
102
100
AcDbEntity
8
0
100
AcDbCircle
10
-10.762225485084318
20
-11.410246605932821
30
0
40
4
210
0
220
0
230
1
0
CIRCLE
5
103
100
AcDbEntity
8
0
100
AcDbCircle
10
10.762225485084315
20
-11.410246605932821
30
0
40
3.9999999999999991
210
0
220
0
230
1
0
CIRCLE
5
104
100
AcDbEntity
8
0
100
AcDbCircle
10
0
20
-13.684999985098836
30
0
40
6.0000000000000009
210
0
220
0
230
1
0
CIRCLE
5
105
100
AcDbEntity
8
0
100
AcDbCircle
10
7.6245580763737788
20
-16.799570721358347
30
0
40
1.2361663706911474
210
0
220
0
230
1
0
CIRCLE
5
106
100
AcDbEntity
8
0
100
AcDbCircle
10
0
20
-1.1102230246251565e-15
30
0
40
20.284999999999997
210
0
220
0
230
1
0
ARC
5
107
100
AcDbEntity
8
0
100
AcDbCircle
10
1.8873791418627661e-14
20
-13.684999985098894
30
0
40
8.0000000149012234
210
0
220
0
230
1
100
AcDbArc
50
105.47506016592672
51
113.92332114164036
0
SPLINE
5
108
100
AcDbEntity
8
0
100
AcDbSpline
70
4
71
3
72
8
73
4
74
0
42
0.000000001
43
0.0000000001
44
0.0000000001
40
0.30352517058947792
40
0.30352517058947792
40
0.30352517058947792
40
0.30352517058947792
40
1
40
1
40
1
40
1
41
1
41
1
41
1
41
1
10
-2.1345512005532132
20
-5.9750264825091275
30
0
10
-3.6413232906087205
20
-5.5859480455902695
30
0
10
-5.0115502633977655
20
-4.9443244482338038
30
0
10
-6.3996155033251885
20
-4.035709920932975
30
0
0
SPLINE
5
109
100
AcDbEntity
8
0
100
AcDbSpline
70
4
71
3
72
8
73
4
74
0
42
0.000000001
43
0.0000000001
44
0.0000000001
40
0
40
0
40
0
40
0
40
1
40
1
40
1
40
1
41
1
41
1
41
1
41
1
10
-6.3996155033251885
20
-4.035709920932975
30
0
10
-5.9927522008508465
20
-3.3026980522431248
30
0
10
-5.4814746622597816
20
-2.6530986463025208
30
0
10
-4.9445577778861978
20
-2.0115978918949695
30
0
0
SPLINE
5
110
100
AcDbEntity
8
0
100
AcDbSpline
70
4
71
3
72
8
73
4
74
0
42
0.000000001
43
0.0000000001
44
0.0000000001
40
0
40
0
40
0
40
0
40
1
40
1
40
1
40
1
41
1
41
1
41
1
41
1
10
-4.9445577778861978
20
-2.0115978918949695
30
0
10
-4.7206327990281327
20
-1.7439830592428684
30
0
10
-4.4701382238736143
20
-1.3618325000783482
30
0
10
-4.1192769143482888
20
-1.2537063820089767
30
0
0
SPLINE
5
111
100
AcDbEntity
8
0
100
AcDbSpline
70
4
71
3
72
8
73
4
74
0
42
0.000000001
43
0.0000000001
44
0.0000000001
40
0
40
0
40
0
40
0
40
1
40
1
40
1
40
1
41
1
41
1
41
1
41
1
10
-4.1192769143482888
20
-1.2537063820089767
30
0
10
-3.7880685149452398
20
-1.1515703476410843
30
0
10
-3.4111474228855077
20
-1.3708577540841027
30
0
10
-3.1103007586386489
20
-1.4868271608003525
30
0
0
SPLINE
5
112
100
AcDbEntity
8
0
100
AcDbSpline
70
4
71
3
72
8
73
4
74
0
42
0.000000001
43
0.0000000001
44
0.0000000001
40
0
40
0
40
0
40
0
40
1
40
1
40
1
40
1
41
1
41
1
41
1
41
1
10
-3.1103007586386489
20
-1.4868271608003525
30
0
10
-2.4789214946268001
20
-1.7303211448323763
30
0
10
-1.8306736879623187
20
-1.9111490765964634
30
0
10
-1.1704475379154999
20
-2.0578185742930843
30
0
0
SPLINE
5
113
100
AcDbEntity
8
0
100
AcDbSpline
70
4
71
3
72
8
73
4
74
0
42
0.000000001
43
0.0000000001
44
0.0000000001
40
0
40
0
40
0
40
0
40
1
40
1
40
1
40
1
41
1
41
1
41
1
41
1
10
-1.1704475379154999
20
-2.0578185742930843
30
0
10
0.78332113608370335
20
-2.4917567267743879
30
0
10
2.7555598428359973
20
-2.5362044611341883
30
0
10
4.7334493654552734
20
-2.2645384786949441
30
0
0
SPLINE
5
114
100
AcDbEntity
8
0
100
AcDbSpline
70
4
71
3
72
8
73
4
74
0
42
0.000000001
43
0.0000000001
44
0.0000000001
40
0
40
0
40
0
40
0
40
1
40
1
40
1
40
1
41
1
41
1
41
1
41
1
10
4.7334493654552734
20
-2.2645384786949441
30
0
10
4.1914708238735265
20
-3.0780954497263835
30
0
10
3.6052999108181627
20
-3.8356513398191172
30
0
10
3.1566875124847327
20
-4.7104406829146717
30
0
0
SPLINE
5
115
100
AcDbEntity
8
0
100
AcDbSpline
70
4
71
3
72
8
73
4
74
0
42
0.000000001
43
0.0000000001
44
0.0000000001
40
0
40
0
40
0
40
0
40
0.89534236463264183
40
0.89534236463264183
40
0.89534236463264183
40
0.89534236463264183
41
1
41
1
41
1
41
1
10
3.1566875124847327
20
-4.7104406829146717
30
0
10
2.956197175852175
20
-5.101377650153724
30
0
10
2.8093902022666306
20
-5.7349059829864037
30
0
10
2.4936770166128039
20
-6.0835806982001284
30
0
0
ARC
5
116
100
AcDbEntity
8
0
100
AcDbCircle
10
1.8873791418627661e-14
20
-13.684999985098894
30
0
40
8.0000000149012092
210
0
220
-0
230
1
100
AcDbArc
50
66.600337432170804
51
71.83770923597659
0
SPLINE
5
117
100
AcDbEntity
8
0
100
AcDbSpline
70
4
71
3
72
8
73
4
74
0
42
0.000000001
43
0.0000000001
44
0.0000000001
40
0.14370255811420796
40
0.14370255811420796
40
0.14370255811420796
40
0.14370255811420796
40
1
40
1
40
1
40
1
41
1
41
1
41
1
41
1
10
3.1771398914650373
20
-6.3429442546865342
30
0
10
4.014861161924733
20
-4.0405509975432388
30
0
10
5.5097545116704278
20
-1.7391960367245198
30
0
10
8.022767758183047
20
-1.2327064326621162
30
0
0
SPLINE
5
118
100
AcDbEntity
8
0
100
AcDbSpline
70
4
71
3
72
8
73
4
74
0
42
0.000000001
43
0.0000000001
44
0.0000000001
40
0
40
0
40
0
40
0
40
1
40
1
40
1
40
1
41
1
41
1
41
1
41
1
10
8.022767758183047
20
-1.2327064326621162
30
0
10
10.267597225826668
20
-0.78021616650001846
30
0
10
11.821250561618761
20
-2.9479588748891361
30
0
10
12.046951224546071
20
-4.9634651746629643
30
0
0
SPLINE
5
119
100
AcDbEntity
8
0
100
AcDbSpline
70
4
71
3
72
8
73
4
74
0
42
0.000000001
43
0.0000000001
44
0.0000000001
40
0
40
0
40
0
40
0
40
0.081227431550528972
40
0.081227431550528972
40
0.081227431550528972
40
0.081227431550528972
41
1
41
1
41
1
41
1
10
12.046951224546071
20
-4.9634651746629643
30
0
10
12.068942392679315
20
-5.1598581530072014
30
0
10
12.079416174631598
20
-5.357824836556234
30
0
10
12.07903919822235
20
-5.5565296821564782
30
0
0
ARC
5
120
100
AcDbEntity
8
0
100
AcDbCircle
10
10.762225485084194
20
-11.410246605933247
30
0
40
6.0000000149016035
210
0
220
-0
230
1
100
AcDbArc
50
69.223171995817339
51
77.322156105978479
0
LINE
5
121
100
AcDbEntity
8
0
100
AcDbLine
10
12.890598674687542
20
-5.8004313019685156
30
0
11
12.753813933691349
21
-5.2164860183700235
31
0
0
LINE
5
122
100
AcDbEntity
8
0
100
AcDbLine
10
12.753813933691349
20
-5.2164860183700235
30
0
11
12.1554950433364
21
-2.9392692406766407
31
0
0
SPLINE
5
123
100
AcDbEntity
8
0
100
AcDbSpline
70
4
71
3
72
8
73
4
74
0
42
0.000000001
43
0.0000000001
44
0.0000000001
40
0
40
0
40
0
40
0
40
1
40
1
40
1
40
1
41
1
41
1
41
1
41
1
10
12.1554950433364
20
-2.9392692406766407
30
0
10
13.575889080997424
20
-3.3697454020296247
30
0
10
15.167412732809634
20
-4.924748513077235
30
0
10
15.681221100004773
20
-6.3129266986263577
30
0
0
SPLINE
5
124
100
AcDbEntity
8
0
100
AcDbSpline
70
4
71
3
72
8
73
4
74
0
42
0.000000001
43
0.0000000001
44
0.0000000001
40
0
40
0
40
0
40
0
40
0.52559880672906345
40
0.52559880672906345
40
0.52559880672906345
40
0.52559880672906345
41
1
41
1
41
1
41
1
10
15.681221100004773
20
-6.3129266986263577
30
0
10
15.883896678892327
20
-6.8604420156120653
30
0
10
15.999082292061413
20
-7.4395756220954468
30
0
10
16.084898318749573
20
-8.0243164964967466
30
0
0
ARC
5
125
100
AcDbEntity
8
0
100
AcDbCircle
10
16.225839551608985
20
-7.0342985325788865
30
0
40
0.99999999999999845
210
0
220
0
230
1
100
AcDbArc
50
261.89768501432303
51
298.77866797629247
0
SPLINE
5
126
100
AcDbEntity
8
0
100
AcDbSpline
70
4
71
3
72
8
73
4
74
0
42
0.000000001
43
0.0000000001
44
0.0000000001
40
0.6164673989772953
40
0.6164673989772953
40
0.6164673989772953
40
0.6164673989772953
40
1
40
1
40
1
40
1
41
1
41
1
41
1
41
1
10
16.707266931039513
20
-7.9107845155441892
30
0
10
16.391113183987059
20
-6.2405978135653974
30
0
10
15.858634163442744
20
-4.6154613149441728
30
0
10
15.126412397413231
20
-3.1079619632854527
30
0
0
SPLINE
5
127
100
AcDbEntity
8
0
100
AcDbSpline
70
4
71
3
72
8
73
4
74
0
42
0.000000001
43
0.0000000001
44
0.0000000001
40
0
40
0
40
0
40
0
40
1
40
1
40
1
40
1
41
1
41
1
41
1
41
1
10
15.126412397413231
20
-3.1079619632854527
30
0
10
14.558456154224778
20
-1.9387355643860849
30
0
10
13.864664376810554
20
-0.82770819126717576
30
0
10
13.044865607232691
20
0.18135278140109179
30
0
0
SPLINE
5
128
100
AcDbEntity
8
0
100
AcDbSpline
70
4
71
3
72
8
73
4
74
0
42
0.000000001
43
0.0000000001
44
0.0000000001
40
0
40
0
40
0
40
0
40
1
40
1
40
1
40
1
41
1
41
1
41
1
41
1
10
13.044865607232691
20
0.18135278140109179
30
0
10
12.626869394931317
20
0.69575030725505638
30
0
10
11.833467851701741
20
1.2333439032770155
30
0
10
11.629279687914265
20
1.8697848244970228
30
0
0
SPLINE
5
129
100
AcDbEntity
8
0
100
AcDbSpline
70
4
71
3
72
8
73
4
74
0
42
0.000000001
43
0.0000000001
44
0.0000000001
40
0
40
0
40
0
40
0
40
1
40
1
40
1
40
1
41
1
41
1
41
1
41
1
10
11.629279687914265
20
1.8697848244970228
30
0
10
11.368495812467412
20
2.6823294640868278
30
0
10
11.990516026700856
20
3.490153538323586
30
0
10
12.236707737223288
20
4.22974282535312
30
0
0
SPLINE
5
130
100
AcDbEntity
8
0
100
AcDbSpline
70
4
71
3
72
8
73
4
74
0
42
0.000000001
43
0.0000000001
44
0.0000000001
40
0
40
0
40
0
40
0
40
1
40
1
40
1
40
1
41
1
41
1
41
1
41
1
10
12.236707737223288
20
4.22974282535312
30
0
10
12.595831860137068
20
5.3088917901740107
30
0
10
12.735081241969617
20
6.5543604267828792
30
0
10
12.640534957383043
20
7.6877411725453948
30
0
0
SPLINE
5
131
100
AcDbEntity
8
0
100
AcDbSpline
70
4
71
3
72
8
73
4
74
0
42
0.000000001
43
0.0000000001
44
0.0000000001
40
0
40
0
40
0
40
0
40
1
40
1
40
1
40
1
41
1
41
1
41
1
41
1
10
12.640534957383043
20
7.6877411725453948
30
0
10
12.307045620200242
20
11.685447155653048
30
0
10
10.149761846020709
20
15.616178749798827
30
0
10
6.3359280850844923
20
17.262691151108115
30
0
0
SPLINE
5
132
100
AcDbEntity
8
0
100
AcDbSpline
70
4
71
3
72
8
73
4
74
0
42
0.000000001
43
0.0000000001
44
0.0000000001
40
0
40
0
40
0
40
0
40
1
40
1
40
1
40
1
41
1
41
1
41
1
41
1
10
6.3359280850844923
20
17.262691151108115
30
0
10
4.7687806447785341
20
17.939277854066138
30
0
10
3.1278315063466833
20
18.061741686184064
30
0
10
1.4441255006656517
20
18.061741686184064
30
0
0
SPLINE
5
133
100
AcDbEntity
8
0
100
AcDbSpline
70
4
71
3
72
8
73
4
74
0
42
0.000000001
43
0.0000000001
44
0.0000000001
40
0
40
0
40
0
40
0
40
1
40
1
40
1
40
1
41
1
41
1
41
1
41
1
10
1.4441255006656517
20
18.061741686184064
30
0
10
0.80329780986523991
20
18.061741686184064
30
0
10
0.14130235982133366
20
18.107960544561561
30
0
10
-0.49572772005749499
20
18.029607914999865
30
0
0
SPLINE
5
134
100
AcDbEntity
8
0
100
AcDbSpline
70
4
71
3
72
8
73
4
74
0
42
0.000000001
43
0.0000000001
44
0.0000000001
40
0
40
0
40
0
40
0
40
1
40
1
40
1
40
1
41
1
41
1
41
1
41
1
10
-0.49572772005749499
20
18.029607914999865
30
0
10
-2.2948139737959528
20
17.808464567580518
30
0
10
-4.0473439253430321
20
16.903818743039281
30
0
10
-5.5562139069820704
20
15.945784747091112
30
0
0
SPLINE
5
135
100
AcDbEntity
8
0
100
AcDbSpline
70
4
71
3
72
8
73
4
74
0
42
0.000000001
43
0.0000000001
44
0.0000000001
40
0
40
0
40
0
40
0
40
1
40
1
40
1
40
1
41
1
41
1
41
1
41
1
10
-5.5562139069820704
20
15.945784747091112
30
0
10
-6.2597897309781221
20
15.499112194682322
30
0
10
-7.0001378105837269
20
14.993148028144365
30
0
10
-7.4407372863530323
20
14.266377045990632
30
0
0
SPLINE
5
136
100
AcDbEntity
8
0
100
AcDbSpline
70
4
71
3
72
8
73
4
74
0
42
0.000000001
43
0.0000000001
44
0.0000000001
40
0
40
0
40
0
40
0
40
1
40
1
40
1
40
1
41
1
41
1
41
1
41
1
10
-7.4407372863530323
20
14.266377045990632
30
0
10
-7.7885625135637682
20
13.692687906007496
30
0
10
-7.6101787694245253
20
13.12279364091502
30
0
10
-7.8118388406388402
20
12.532825116938076
30
0
0
SPLINE
5
137
100
AcDbEntity
8
0
100
AcDbSpline
70
4
71
3
72
8
73
4
74
0
42
0.000000001
43
0.0000000001
44
0.0000000001
40
0
40
0
40
0
40
0
40
1
40
1
40
1
40
1
41
1
41
1
41
1
41
1
10
-7.8118388406388402
20
12.532825116938076
30
0
10
-8.0054039083613322
20
11.96655609281901
30
0
10
-8.3755779481641355
20
11.474086942805222
30
0
10
-8.5606221035810712
20
10.892720500051226
30
0
0
SPLINE
5
138
100
AcDbEntity
8
0
100
AcDbSpline
70
4
71
3
72
8
73
4
74
0
42
0.000000001
43
0.0000000001
44
0.0000000001
40
0
40
0
40
0
40
0
40
1
40
1
40
1
40
1
41
1
41
1
41
1
41
1
10
-8.5606221035810712
20
10.892720500051226
30
0
10
-8.782271616721232
20
10.196145267177663
30
0
10
-8.7887669541332158
20
9.4896163538050295
30
0
10
-8.9445456107839085
20
8.784185500842959
30
0
0
SPLINE
5
139
100
AcDbEntity
8
0
100
AcDbSpline
70
4
71
3
72
8
73
4
74
0
42
0.000000001
43
0.0000000001
44
0.0000000001
40
0
40
0
40
0
40
0
40
1
40
1
40
1
40
1
41
1
41
1
41
1
41
1
10
-8.9445456107839085
20
8.784185500842959
30
0
10
-9.1467127597293505
20
7.8689138442058182
30
0
10
-9.8903504605151031
20
7.2163613488886291
30
0
10
-10.001849192702629
20
6.2539405833600581
30
0
0
SPLINE
5
140
100
AcDbEntity
8
0
100
AcDbSpline
70
4
71
3
72
8
73
4
74
0
42
0.000000001
43
0.0000000001
44
0.0000000001
40
0
40
0
40
0
40
0
40
1
40
1
40
1
40
1
41
1
41
1
41
1
41
1
10
-10.001849192702629
20
6.2539405833600581
30
0
10
-10.309949074927239
20
3.5930538373293963
30
0
10
-7.9814508696378894
20
1.0382667224642272
30
0
10
-5.7248801812919536
20
-0.071660766223504702
30
0
0
LINE
5
141
100
AcDbEntity
8
0
100
AcDbLine
10
-5.7248801812919528
20
-0.071660766223505049
30
0
11
-5.7248801812919536
21
-0.15600347948667714
31
0
0
SPLINE
5
142
100
AcDbEntity
8
0
100
AcDbSpline
70
4
71
3
72
8
73
4
74
0
42
0.000000001
43
0.0000000001
44
0.0000000001
40
0
40
0
40
0
40
0
40
1
40
1
40
1
40
1
41
1
41
1
41
1
41
1
10
-5.7248801812919536
20
-0.15600347948667714
30
0
10
-6.4783876576284634
20
-0.25468299478809797
30
0
10
-7.2000103415948002
20
-0.53477960051242945
30
0
10
-7.9177569817530857
20
-0.77456352661241734
30
0
0
SPLINE
5
143
100
AcDbEntity
8
0
100
AcDbSpline
70
4
71
3
72
8
73
4
74
0
42
0.000000001
43
0.0000000001
44
0.0000000001
40
0
40
0
40
0
40
0
40
1
40
1
40
1
40
1
41
1
41
1
41
1
41
1
10
-7.9177569817530857
20
-0.77456352661241734
30
0
10
-9.6574677164140574
20
-1.3556764305008562
30
0
10
-11.32152537202435
20
-2.1138196552317945
30
0
10
-12.893900911419639
20
-3.0577722120278938
30
0
0
SPLINE
5
144
100
AcDbEntity
8
0
100
AcDbSpline
70
4
71
3
72
8
73
4
74
0
42
0.000000001
43
0.0000000001
44
0.0000000001
40
0
40
0
40
0
40
0
40
1
40
1
40
1
40
1
41
1
41
1
41
1
41
1
10
-12.893900911419639
20
-3.0577722120278938
30
0
10
-13.555982090432474
20
-3.4551898237445933
30
0
10
-14.164672362007458
20
-3.9533079656047487
30
0
10
-14.833753676137633
20
-4.3334338618860091
30
0
0
SPLINE
5
145
100
AcDbEntity
8
0
100
AcDbSpline
70
4
71
3
72
8
73
4
74
0
42
0.000000001
43
0.0000000001
44
0.0000000001
40
0
40
0
40
0
40
0
40
1
40
1
40
1
40
1
41
1
41
1
41
1
41
1
10
-14.833753676137633
20
-4.3334338618860091
30
0
10
-15.532774920656651
20
-4.7305122057682203
30
0
10
-16.792582183324381
20
-4.2756598329089801
30
0
10
-17.360124829838256
20
-4.8909311708648806
30
0
0
SPLINE
5
146
100
AcDbEntity
8
0
100
AcDbSpline
70
4
71
3
72
8
73
4
74
0
42
0.000000001
43
0.0000000001
44
0.0000000001
40
0
40
0
40
0
40
0
40
1
40
1
40
1
40
1
41
1
41
1
41
1
41
1
10
-17.360124829838256
20
-4.8909311708648806
30
0
10
-17.524785098871231
20
-5.0694809008801389
30
0
10
-17.4879622266896
20
-5.334398007041834
30
0
10
-17.4568223187383
20
-5.5542763961642949
30
0
0
SPLINE
5
147
100
AcDbEntity
8
0
100
AcDbSpline
70
4
71
3
72
8
73
4
74
0
42
0.000000001
43
0.0000000001
44
0.0000000001
40
0
40
0
40
0
40
0
40
1
40
1
40
1
40
1
41
1
41
1
41
1
41
1
10
-17.4568223187383
20
-5.5542763961642949
30
0
10
-17.372783988915344
20
-6.1478710731249597
30
0
10
-17.099173600499924
20
-6.6420274422081338
30
0
10
-16.689264639602762
20
-7.0720001738712268
30
0
0
LINE
5
148
100
AcDbEntity
8
0
100
AcDbLine
10
-16.689264639602758
20
-7.0720001738712268
30
0
11
-16.689264639602762
21
-7.1563392390931702
31
0
0
SPLINE
5
149
100
AcDbEntity
8
0
100
AcDbSpline
70
4
71
3
72
8
73
4
74
0
42
0.000000001
43
0.0000000001
44
0.0000000001
40
0
40
0
40
0
40
0
40
0.4673358327501308
40
0.4673358327501308
40
0.4673358327501308
40
0.4673358327501308
41
1
41
1
41
1
41
1
10
-16.689264639602762
20
-7.1563392390931702
30
0
10
-16.823968216042225
20
-7.2819175503131115
30
0
10
-16.95732310687124
20
-7.4100749165152004
30
0
10
-17.087950560473296
20
-7.5410179898675906
30
0
0
ARC
5
150
100
AcDbEntity
8
0
100
AcDbCircle
10
-16.225839551608988
20
-7.0342985325788838
30
0
40
0.99999999999999822
210
0
220
0
230
1
100
AcDbArc
50
210.44556043175149
51
257.07467521077797
0
SPLINE
5
151
100
AcDbEntity
8
0
100
AcDbSpline
70
4
71
3
72
8
73
4
74
0
42
0.000000001
43
0.0000000001
44
0.0000000001
40
0.6433208854309358
40
0.6433208854309358
40
0.6433208854309358
40
0.6433208854309358
40
1
40
1
40
1
40
1
41
1
41
1
41
1
41
1
10
-16.449520491176347
20
-8.0089609547919576
30
0
10
-16.291917764010918
20
-7.8282882650325707
30
0
10
-16.157207679538018
20
-7.6361194286912575
30
0
10
-16.087325524331092
20
-7.4090244630069657
30
0
0
SPLINE
5
152
100
AcDbEntity
8
0
100
AcDbSpline
70
4
71
3
72
8
73
4
74
0
42
0.000000001
43
0.0000000001
44
0.0000000001
40
0
40
0
40
0
40
0
40
1
40
1
40
1
40
1
41
1
41
1
41
1
41
1
10
-16.087325524331092
20
-7.4090244630069657
30
0
10
-15.872423063447862
20
-6.7110155499295843
30
0
10
-16.587637050981453
20
-5.9835705921584026
30
0
10
-16.857953030162609
20
-5.3851677968551392
30
0
0
SPLINE
5
153
100
AcDbEntity
8
0
100
AcDbSpline
70
4
71
3
72
8
73
4
74
0
42
0.000000001
43
0.0000000001
44
0.0000000001
40
0
40
0
40
0
40
0
40
1
40
1
40
1
40
1
41
1
41
1
41
1
41
1
10
-16.857953030162609
20
-5.3851677968551392
30
0
10
-16.086058514011015
20
-5.1095400416389136
30
0
10
-15.250236863338404
20
-5.3515146164981831
30
0
10
-14.496392855198323
20
-5.0099339238647911
30
0
0
SPLINE
5
154
100
AcDbEntity
8
0
100
AcDbSpline
70
4
71
3
72
8
73
4
74
0
42
0.000000001
43
0.0000000001
44
0.0000000001
40
0
40
0
40
0
40
0
40
1
40
1
40
1
40
1
41
1
41
1
41
1
41
1
10
-14.496392855198323
20
-5.0099339238647911
30
0
10
-13.697427593086154
20
-4.6479424405433623
30
0
10
-13.056430724373648
20
-4.0002837925377044
30
0
10
-12.303516510742348
20
-3.5560581637846811
30
0
0
SPLINE
5
155
100
AcDbEntity
8
0
100
AcDbSpline
70
4
71
3
72
8
73
4
74
0
42
0.000000001
43
0.0000000001
44
0.0000000001
40
0
40
0
40
0
40
0
40
1
40
1
40
1
40
1
41
1
41
1
41
1
41
1
10
-12.303516510742348
20
-3.5560581637846811
30
0
10
-10.740080496383884
20
-2.6335342011800966
30
0
10
-9.0473474126764799
20
-1.910470540927478
30
0
10
-7.3273725810757924
20
-1.3367832249649547
30
0
0
SPLINE
5
156
100
AcDbEntity
8
0
100
AcDbSpline
70
4
71
3
72
8
73
4
74
0
42
0.000000001
43
0.0000000001
44
0.0000000001
40
0
40
0
40
0
40
0
40
1
40
1
40
1
40
1
41
1
41
1
41
1
41
1
10
-7.3273725810757924
20
-1.3367832249649547
30
0
10
-6.5109473376263942
20
-1.0644441789185732
30
0
10
-5.6588469869677027
20
-0.73778944698225324
30
0
10
-4.7971313116341214
20
-0.66205063896264349
30
0
0
SPLINE
5
157
100
AcDbEntity
8
0
100
AcDbSpline
70
4
71
3
72
8
73
4
74
0
42
0.000000001
43
0.0000000001
44
0.0000000001
40
0
40
0
40
0
40
0
40
1
40
1
40
1
40
1
41
1
41
1
41
1
41
1
10
-4.7971313116341214
20
-0.66205063896264349
30
0
10
-5.258647743812281
20
-1.3808916914902625
30
0
10
-5.923088293491336
20
-1.9805603571007202
30
0
10
-6.4199423890649143
20
-2.686241100887119
30
0
0
SPLINE
5
158
100
AcDbEntity
8
0
100
AcDbSpline
70
4
71
3
72
8
73
4
74
0
42
0.000000001
43
0.0000000001
44
0.0000000001
40
0
40
0
40
0
40
0
40
0.51356525212652848
40
0.51356525212652848
40
0.51356525212652848
40
0.51356525212652848
41
1
41
1
41
1
41
1
10
-6.4199423890649143
20
-2.686241100887119
30
0
10
-7.1206036428409281
20
-3.6814425127721471
30
0
10
-7.7836700983415046
20
-4.7811950461529813
30
0
10
-8.2983387638426116
20
-5.9394822714268471
30
0
0
ARC
5
159
100
AcDbEntity
8
0
100
AcDbCircle
10
-10.762225485084739
20
-11.410246605933663
30
0
40
6.0000000149020938
210
0
220
-0
230
1
100
AcDbArc
50
59.04669568468298
51
65.754465807659457
0
SPLINE
5
160
100
AcDbEntity
8
0
100
AcDbSpline
70
4
71
3
72
8
73
4
74
0
42
0.000000001
43
0.0000000001
44
0.0000000001
40
0.39374540449894485
40
0.39374540449894485
40
0.39374540449894485
40
0.39374540449894485
40
1
40
1
40
1
40
1
41
1
41
1
41
1
41
1
10
-7.6761895681664862
20
-6.264725981320872
30
0
10
-7.4275374238159264
20
-5.6687976955409543
30
0
10
-7.1291138436182102
20
-5.0845514019175635
30
0
10
-6.7369781482851154
20
-4.6260979696514992
30
0
0
SPLINE
5
161
100
AcDbEntity
8
0
100
AcDbSpline
70
4
71
3
72
8
73
4
74
0
42
0.000000001
43
0.0000000001
44
0.0000000001
40
0
40
0
40
0
40
0
40
0.65740178964235529
40
0.65740178964235529
40
0.65740178964235529
40
0.65740178964235529
41
1
41
1
41
1
41
1
10
-6.7369781482851154
20
-4.6260979696514992
30
0
10
-5.6805625438005256
20
-5.4812440179127293
30
0
10
-4.4920865937424619
20
-5.9885448241794528
30
0
10
-3.244109467183466
20
-6.3722881759715824
30
0
0
LWPOLYLINE
5
162
100
AcDbEntity
8
0
100
AcDbPolyline
90
3
70
1
43
0.0
10
10.637353564908505
20
-1.0837550851754352
10
8.7818430574485298
20
-0.57770792569947238
10
10.890376232636179
20
1.6995106760145262
0
LWPOLYLINE
5
163
100
AcDbEntity
8
0
100
AcDbPolyline
90
4
70
1
43
0.0
10
-8.1707832975219912
20
7.9407766084173792
10
-8.2551250987748563
20
7.9407766084173792
10
-8.2551250987748563
20
8.6155073703990759
10
-8.0021015190368736
20
8.4468255919139583
0
LWPOLYLINE
5
164
100
AcDbEntity
8
0
100
AcDbPolyline
90
3
70
1
43
0.0
10
-7.3273680210242542
20
11.314432242346477
10
-7.4117098222771203
20
11.314432242346477
10
-7.3273680210242542
20
11.651797623337325
0
SPLINE
5
165
100
AcDbEntity
8
0
100
AcDbSpline
70
4
71
3
72
8
73
4
74
0
42
0.000000001
43
0.0000000001
44
0.0000000001
40
0
40
0
40
0
40
0
40
1
40
1
40
1
40
1
41
1
41
1
41
1
41
1
10
5.3238447102562558
20
-1.4725706156691887
30
0
10
4.2669615650894199
20
-1.7912963299897022
30
0
10
3.2134510340407463
20
-1.8440944307275009
30
0
10
2.1188690307916591
20
-1.8428285604203065
30
0
0
SPLINE
5
166
100
AcDbEntity
8
0
100
AcDbSpline
70
4
71
3
72
8
73
4
74
0
42
0.000000001
43
0.0000000001
44
0.0000000001
40
0
40
0
40
0
40
0
40
1
40
1
40
1
40
1
41
1
41
1
41
1
41
1
10
2.1188690307916591
20
-1.8428285604203065
30
0
10
-2.3316591902301242
20
-1.8375936212536681
30
0
10
-7.6686988228333153
20
0.69095678107738312
30
0
10
-9.2672203297370928
20
5.0731663099436286
30
0
0
SPLINE
5
167
100
AcDbEntity
8
0
100
AcDbSpline
70
4
71
3
72
8
73
4
74
0
42
0.000000001
43
0.0000000001
44
0.0000000001
40
0
40
0
40
0
40
0
40
1
40
1
40
1
40
1
41
1
41
1
41
1
41
1
10
-9.2672203297370928
20
5.0731663099436286
30
0
10
-8.4187443080415054
20
4.6169641618288804
30
0
10
-7.8553453803610136
20
3.5795652048773841
30
0
10
-6.821318125517366
20
3.5610094431553607
30
0
0
SPLINE
5
168
100
AcDbEntity
8
0
100
AcDbSpline
70
4
71
3
72
8
73
4
74
0
42
0.000000001
43
0.0000000001
44
0.0000000001
40
0
40
0
40
0
40
0
40
1
40
1
40
1
40
1
41
1
41
1
41
1
41
1
10
-6.821318125517366
20
3.5610094431553607
30
0
10
-5.6181029264677846
20
3.5394203351496767
30
0
10
-4.8528733816454235
20
4.7097393223977546
30
0
10
-3.7006851593159396
20
4.7698736340513115
30
0
0
SPLINE
5
169
100
AcDbEntity
8
0
100
AcDbSpline
70
4
71
3
72
8
73
4
74
0
42
0.000000001
43
0.0000000001
44
0.0000000001
40
0
40
0
40
0
40
0
40
1
40
1
40
1
40
1
41
1
41
1
41
1
41
1
10
-3.7006851593159396
20
4.7698736340513115
30
0
10
-2.9912907095562735
20
4.806899428526421
30
0
10
-2.2087712733190834
20
4.5634911734633254
30
0
10
-1.507809270865117
20
4.4578967960083427
30
0
0
SPLINE
5
170
100
AcDbEntity
8
0
100
AcDbSpline
70
4
71
3
72
8
73
4
74
0
42
0.000000001
43
0.0000000001
44
0.0000000001
40
0
40
0
40
0
40
0
40
1
40
1
40
1
40
1
41
1
41
1
41
1
41
1
10
-1.507809270865117
20
4.4578967960083427
30
0
10
0.5819164277555644
20
4.1431346784854295
30
0
10
2.7763117253791414
20
3.593061133411859
30
0
10
4.9021384400228518
20
3.7381254929667973
30
0
0
SPLINE
5
171
100
AcDbEntity
8
0
100
AcDbSpline
70
4
71
3
72
8
73
4
74
0
42
0.000000001
43
0.0000000001
44
0.0000000001
40
0
40
0
40
0
40
0
40
1
40
1
40
1
40
1
41
1
41
1
41
1
41
1
10
4.9021384400228518
20
3.7381254929667973
30
0
10
5.9358273390423122
20
3.8086366579022313
30
0
10
7.426898527514787
20
3.7662956673533987
30
0
10
7.7697469144759879
20
4.9888272447216853
30
0
0
SPLINE
5
172
100
AcDbEntity
8
0
100
AcDbSpline
70
4
71
3
72
8
73
4
74
0
42
0.000000001
43
0.0000000001
44
0.0000000001
40
0
40
0
40
0
40
0
40
1
40
1
40
1
40
1
41
1
41
1
41
1
41
1
10
7.7697469144759879
20
4.9888272447216853
30
0
10
7.1477285242631572
20
4.9511247385982005
30
0
10
6.6765128624617942
20
4.6100492996753184
30
0
10
6.0829181855011294
20
4.4759454799992415
30
0
0
SPLINE
5
173
100
AcDbEntity
8
0
100
AcDbSpline
70
4
71
3
72
8
73
4
74
0
42
0.000000001
43
0.0000000001
44
0.0000000001
40
0
40
0
40
0
40
0
40
1
40
1
40
1
40
1
41
1
41
1
41
1
41
1
10
6.0829181855011294
20
4.4759454799992415
30
0
10
5.3938506214811843
20
4.3202525523174806
30
0
10
4.5922665217702319
20
4.3702653735753261
30
0
10
3.89004047302969
20
4.4077143408332464
30
0
0
SPLINE
5
174
100
AcDbEntity
8
0
100
AcDbSpline
70
4
71
3
72
8
73
4
74
0
42
0.000000001
43
0.0000000001
44
0.0000000001
40
0
40
0
40
0
40
0
40
1
40
1
40
1
40
1
41
1
41
1
41
1
41
1
10
3.89004047302969
20
4.4077143408332464
30
0
10
2.1124594223486026
20
4.5025980692337031
30
0
10
0.33547117836757456
20
4.8264693457106889
30
0
10
-1.4234683816225591
20
5.0855660020881555
30
0
0
SPLINE
5
175
100
AcDbEntity
8
0
100
AcDbSpline
70
4
71
3
72
8
73
4
74
0
42
0.000000001
43
0.0000000001
44
0.0000000001
40
0
40
0
40
0
40
0
40
1
40
1
40
1
40
1
41
1
41
1
41
1
41
1
10
-1.4234683816225591
20
5.0855660020881555
30
0
10
-2.175119916982744
20
5.1963077657202295
30
0
10
-2.9371446575835791
20
5.4088481199063176
30
0
10
-3.7006869833365563
20
5.4039560966154054
30
0
0
SPLINE
5
176
100
AcDbEntity
8
0
100
AcDbSpline
70
4
71
3
72
8
73
4
74
0
42
0.000000001
43
0.0000000001
44
0.0000000001
40
0
40
0
40
0
40
0
40
1
40
1
40
1
40
1
41
1
41
1
41
1
41
1
10
-3.7006869833365563
20
5.4039560966154054
30
0
10
-4.4478678441680213
20
5.399054953221416
30
0
10
-5.0167516018394798
20
4.9778612327809801
30
0
10
-5.640540204059703
20
4.6208456776987772
30
0
0
SPLINE
5
177
100
AcDbEntity
8
0
100
AcDbSpline
70
4
71
3
72
8
73
4
74
0
42
0.000000001
43
0.0000000001
44
0.0000000001
40
0
40
0
40
0
40
0
40
1
40
1
40
1
40
1
41
1
41
1
41
1
41
1
10
-5.640540204059703
20
4.6208456776987772
30
0
10
-5.9865933952424317
20
4.4228099354475647
30
0
10
-6.4056858439337505
20
4.1706299652442747
30
0
10
-6.8213199495379806
20
4.212885226824179
30
0
0
SPLINE
5
178
100
AcDbEntity
8
0
100
AcDbSpline
70
4
71
3
72
8
73
4
74
0
42
0.000000001
43
0.0000000001
44
0.0000000001
40
0
40
0
40
0
40
0
40
1
40
1
40
1
40
1
41
1
41
1
41
1
41
1
10
-6.8213199495379806
20
4.212885226824179
30
0
10
-7.4116250053184967
20
4.2728499045604851
30
0
10
-7.7884621924299129
20
4.838278055175782
30
0
10
-8.1917841588791607
20
5.2049919278708767
30
0
0
SPLINE
5
179
100
AcDbEntity
8
0
100
AcDbSpline
70
4
71
3
72
8
73
4
74
0
42
0.000000001
43
0.0000000001
44
0.0000000001
40
0
40
0
40
0
40
0
40
1
40
1
40
1
40
1
41
1
41
1
41
1
41
1
10
-8.1917841588791607
20
5.2049919278708767
30
0
10
-8.5600192647676288
20
5.5397434873196394
30
0
10
-8.9458789698538794
20
5.7017657665373722
30
0
10
-9.4359030202325194
20
5.7479007199665544
30
0
0
LINE
5
180
100
AcDbEntity
8
0
100
AcDbLine
10
-9.4359030202325194
20
5.7479007199665544
30
0
11
-8.845514059503687
21
7.3503849116576241
31
0
0
LINE
5
181
100
AcDbEntity
8
0
100
AcDbLine
10
-8.845514059503687
20
7.3503849116576241
30
0
11
-8.7611722582508218
21
7.3503849116576214
31
0
0
SPLINE
5
182
100
AcDbEntity
8
0
100
AcDbSpline
70
4
71
3
72
8
73
4
74
0
42
0.000000001
43
0.0000000001
44
0.0000000001
40
0
40
0
40
0
40
0
40
1
40
1
40
1
40
1
41
1
41
1
41
1
41
1
10
-8.7611722582508218
20
7.3503849116576214
30
0
10
-8.0055562140827323
20
6.7848765041352443
30
0
10
-7.4564950004507935
20
7.6948366127398948
30
0
10
-7.2628460277799878
20
8.3624828786507841
30
0
0
SPLINE
5
183
100
AcDbEntity
8
0
100
AcDbSpline
70
4
71
3
72
8
73
4
74
0
42
0.000000001
43
0.0000000001
44
0.0000000001
40
0
40
0
40
0
40
0
40
1
40
1
40
1
40
1
41
1
41
1
41
1
41
1
10
-7.2628460277799878
20
8.3624828786507841
30
0
10
-6.7740030307499204
20
10.047286944742378
30
0
10
-6.4841232904540718
20
12.009405985119583
30
0
10
-6.4839536565368245
20
13.760334446566207
30
0
0
LINE
5
184
100
AcDbEntity
8
0
100
AcDbLine
10
-6.4839536565368245
20
13.760334446566207
30
0
11
-6.8213190375276733
21
13.760334446566207
31
0
0
SPLINE
5
185
100
AcDbEntity
8
0
100
AcDbSpline
70
4
71
3
72
8
73
4
74
0
42
0.000000001
43
0.0000000001
44
0.0000000001
40
0
40
0
40
0
40
0
40
1
40
1
40
1
40
1
41
1
41
1
41
1
41
1
10
-6.8213190375276733
20
13.760334446566207
30
0
10
-3.7749921111523399
20
17.685245590927753
30
0
10
2.6246662994432901
20
18.662678958132638
30
0
10
6.8419916607459985
20
16.201933786153845
30
0
0
SPLINE
5
186
100
AcDbEntity
8
0
100
AcDbSpline
70
4
71
3
72
8
73
4
74
0
42
0.000000001
43
0.0000000001
44
0.0000000001
40
0
40
0
40
0
40
0
40
1
40
1
40
1
40
1
41
1
41
1
41
1
41
1
10
6.8419916607459985
20
16.201933786153845
30
0
10
8.7579757476940188
20
15.083903997891825
30
0
10
10.111318787527313
20
13.274612348809349
30
0
10
11.079642083767812
20
11.314432242346477
30
0
0
SPLINE
5
187
100
AcDbEntity
8
0
100
AcDbSpline
70
4
71
3
72
8
73
4
74
0
42
0.000000001
43
0.0000000001
44
0.0000000001
40
0
40
0
40
0
40
0
40
1
40
1
40
1
40
1
41
1
41
1
41
1
41
1
10
11.079642083767812
20
11.314432242346477
30
0
10
11.836098089429363
20
9.7829608212601205
30
0
10
12.248698848749932
20
8.0503364066905725
30
0
10
12.030338044779612
20
6.3382887686850786
30
0
0
SPLINE
5
188
100
AcDbEntity
8
0
100
AcDbSpline
70
4
71
3
72
8
73
4
74
0
42
0.000000001
43
0.0000000001
44
0.0000000001
40
0
40
0
40
0
40
0
40
1
40
1
40
1
40
1
41
1
41
1
41
1
41
1
10
12.030338044779612
20
6.3382887686850786
30
0
10
11.895645066444711
20
5.2815752574354891
30
0
10
11.535590693016999
20
4.2373453432787445
30
0
10
11.028529378078783
20
3.3019966917262122
30
0
0
SPLINE
5
189
100
AcDbEntity
8
0
100
AcDbSpline
70
4
71
3
72
8
73
4
74
0
42
0.000000001
43
0.0000000001
44
0.0000000001
40
0
40
0
40
0
40
0
40
1
40
1
40
1
40
1
41
1
41
1
41
1
41
1
10
11.028529378078783
20
3.3019966917262122
30
0
10
9.8270013980985915
20
1.0855872892935237
30
0
10
7.7516143255367709
20
-0.74031753955540847
30
0
10
5.3238447102562558
20
-1.4725706156691887
30
0
0
SPLINE
5
190
100
AcDbEntity
8
0
100
AcDbSpline
70
4
71
3
72
8
73
4
74
0
42
0.000000001
43
0.0000000001
44
0.0000000001
40
0
40
0
40
0
40
0
40
1
40
1
40
1
40
1
41
1
41
1
41
1
41
1
10
12.914568518581273
20
-2.4597852934249742
30
0
10
12.525924446025378
20
-2.2573664296345886
30
0
10
11.960328485513454
20
-2.1603723093819394
30
0
10
11.648942630149929
20
-1.8443461455724464
30
0
0
SPLINE
5
191
100
AcDbEntity
8
0
100
AcDbSpline
70
4
71
3
72
8
73
4
74
0
42
0.000000001
43
0.0000000001
44
0.0000000001
40
0
40
0
40
0
40
0
40
1
40
1
40
1
40
1
41
1
41
1
41
1
41
1
10
11.648942630149929
20
-1.8443461455724464
30
0
10
11.087312090456214
20
-1.2741992536247171
30
0
10
11.141204603563345
20
0.11406101285210912
30
0
10
11.480767929395936
20
0.77175724630515585
30
0
0
SPLINE
5
192
100
AcDbEntity
8
0
100
AcDbSpline
70
4
71
3
72
8
73
4
74
0
42
0.000000001
43
0.0000000001
44
0.0000000001
40
0
40
0
40
0
40
0
40
1
40
1
40
1
40
1
41
1
41
1
41
1
41
1
10
11.480767929395936
20
0.77175724630515585
30
0
10
12.666187983320182
20
-0.44916919292144364
30
0
10
13.709235932118045
20
-1.9006864943456492
30
0
10
14.432715469071011
20
-3.4453145761319881
30
0
0
SPLINE
5
193
100
AcDbEntity
8
0
100
AcDbSpline
70
4
71
3
72
8
73
4
74
0
42
0.000000001
43
0.0000000001
44
0.0000000001
40
0
40
0
40
0
40
0
40
1
40
1
40
1
40
1
41
1
41
1
41
1
41
1
10
14.432715469071011
20
-3.4453145761319881
30
0
10
13.901702939429974
20
-3.1538324337253787
30
0
10
13.454186777486491
20
-2.7408121496632365
30
0
10
12.914568518581273
20
-2.4597852934249742
30
0
0
CIRCLE
5
194
100
AcDbEntity
8
0
100
AcDbCircle
10
0
20
0
30
0
40
20.684999999999999
210
0
220
-0
230
1
0
SPLINE
5
195
100
AcDbEntity
8
0
100
AcDbSpline
70
4
71
3
72
8
73
4
74
0
42
0.000000001
43
0.0000000001
44
0.0000000001
40
-1
40
-1
40
-1
40
-1
40
0
40
0
40
0
40
0
41
1
41
1
41
1
41
1
10
-12.027849726671329
20
-13.117641801588515
30
0
10
-12.207545099202504
20
-12.937946429057341
30
0
10
-12.206012859357397
20
-12.923641152038288
30
0
10
-12.007071324238169
20
-12.923641152038288
30
0
0
SPLINE
5
196
100
AcDbEntity
8
0
100
AcDbSpline
70
4
71
3
72
8
73
4
74
0
42
0.000000001
43
0.0000000001
44
0.0000000001
40
-1
40
-1
40
-1
40
-1
40
0
40
0
40
0
40
0
41
1
41
1
41
1
41
1
10
-12.007071324238169
20
-12.923641152038288
30
0
10
-11.816304749992653
20
-12.923641152038288
30
0
10
-11.567631449133394
20
-13.10142846084263
30
0
10
-11.511636856541227
20
-13.277845889336817
30
0
0
LINE
5
197
100
AcDbEntity
8
0
100
AcDbLine
10
-11.511636856541227
20
-13.277845889336815
30
0
11
-11.472404642230941
21
-13.401454409261543
31
0
0
LINE
5
198
100
AcDbEntity
8
0
100
AcDbLine
10
-11.472404642230941
20
-13.401454409261543
30
0
11
-11.366005328500425
21
-13.270057154209187
31
0
0
SPLINE
5
199
100
AcDbEntity
8
0
100
AcDbSpline
70
4
71
3
72
8
73
4
74
0
42
0.000000001
43
0.0000000001
44
0.0000000001
40
-1
40
-1
40
-1
40
-1
40
0
40
0
40
0
40
0
41
1
41
1
41
1
41
1
10
-11.366005328500425
20
-13.270057154209187
30
0
10
-11.209919474527069
20
-13.07729930132199
30
0
10
-11.234959927816277
20
-12.907001787108792
30
0
10
-11.458780913454682
20
-12.639106745429967
30
0
0
SPLINE
5
200
100
AcDbEntity
8
0
100
AcDbSpline
70
4
71
3
72
8
73
4
74
0
42
0.000000001
43
0.0000000001
44
0.0000000001
40
-1
40
-1
40
-1
40
-1
40
0
40
0
40
0
40
0
41
1
41
1
41
1
41
1
10
-11.458780913454682
20
-12.639106745429967
30
0
10
-11.568326112770372
20
-12.507989436205271
30
0
10
-11.657954003119567
20
-12.376253894433864
30
0
10
-11.657954003119567
20
-12.346362554315089
30
0
0
SPLINE
5
201
100
AcDbEntity
8
0
100
AcDbSpline
70
4
71
3
72
8
73
4
74
0
42
0.000000001
43
0.0000000001
44
0.0000000001
40
-1
40
-1
40
-1
40
-1
40
0
40
0
40
0
40
0
41
1
41
1
41
1
41
1
10
-11.657954003119567
20
-12.346362554315089
30
0
10
-11.657954003119567
20
-12.104265945258522
30
0
10
-11.160408409213375
20
-11.664533461186863
30
0
10
-10.795898137868086
20
-11.584488853694159
30
0
0
SPLINE
5
202
100
AcDbEntity
8
0
100
AcDbSpline
70
4
71
3
72
8
73
4
74
0
42
0.000000001
43
0.0000000001
44
0.0000000001
40
-1
40
-1
40
-1
40
-1
40
0
40
0
40
0
40
0
41
1
41
1
41
1
41
1
10
-10.795898137868086
20
-11.584488853694159
30
0
10
-10.569099505494087
20
-11.534675229804193
30
0
10
-10.544203773795925
20
-11.574090155123162
30
0
10
-10.680723268661051
20
-11.76681906369215
30
0
0
SPLINE
5
203
100
AcDbEntity
8
0
100
AcDbSpline
70
4
71
3
72
8
73
4
74
0
42
0.000000001
43
0.0000000001
44
0.0000000001
40
-1
40
-1
40
-1
40
-1
40
0
40
0
40
0
40
0
41
1
41
1
41
1
41
1
10
-10.680723268661051
20
-11.76681906369215
30
0
10
-10.877389056761221
20
-12.044455225212696
30
0
10
-10.882461548527068
20
-12.155870046582598
30
0
10
-10.705239106182741
20
-12.305368354633925
30
0
0
SPLINE
5
204
100
AcDbEntity
8
0
100
AcDbSpline
70
4
71
3
72
8
73
4
74
0
42
0.000000001
43
0.0000000001
44
0.0000000001
40
-1
40
-1
40
-1
40
-1
40
0
40
0
40
0
40
0
41
1
41
1
41
1
41
1
10
-10.705239106182741
20
-12.305368354633925
30
0
10
-10.459020645311451
20
-12.51306961630565
30
0
10
-10.349207711052344
20
-12.702544550351158
30
0
10
-10.347829237897713
20
-12.922091726504249
30
0
0
SPLINE
5
205
100
AcDbEntity
8
0
100
AcDbSpline
70
4
71
3
72
8
73
4
74
0
42
0.000000001
43
0.0000000001
44
0.0000000001
40
-1
40
-1
40
-1
40
-1
40
0
40
0
40
0
40
0
41
1
41
1
41
1
41
1
10
-10.347829237897713
20
-12.922091726504249
30
0
10
-10.34657196907558
20
-13.121743754184472
30
0
10
-10.346032881148965
20
-13.122166160328312
30
0
10
-10.24824269306527
20
-13.000118824566904
30
0
0
SPLINE
5
206
100
AcDbEntity
8
0
100
AcDbSpline
70
4
71
3
72
8
73
4
74
0
42
0.000000001
43
0.0000000001
44
0.0000000001
40
-1
40
-1
40
-1
40
-1
40
0
40
0
40
0
40
0
41
1
41
1
41
1
41
1
10
-10.24824269306527
20
-13.000118824566904
30
0
10
-10.103741802454449
20
-12.819772657131034
30
0
10
-9.7749904272345525
20
-12.639562618441733
30
0
10
-9.590021761729961
20
-12.639334229680879
30
0
0
LINE
5
207
100
AcDbEntity
8
0
100
AcDbLine
10
-9.590021761729961
20
-12.639334229680879
30
0
11
-9.4284690496551846
21
-12.639105840920021
31
0
0
LINE
5
208
100
AcDbEntity
8
0
100
AcDbLine
10
-9.4284690496551846
20
-12.639105840920021
30
0
11
-9.5757956293310098
21
-12.814192735286607
31
0
0
SPLINE
5
209
100
AcDbEntity
8
0
100
AcDbSpline
70
4
71
3
72
8
73
4
74
0
42
0.000000001
43
0.0000000001
44
0.0000000001
40
-1
40
-1
40
-1
40
-1
40
0
40
0
40
0
40
0
41
1
41
1
41
1
41
1
10
-9.5757956293310098
20
-12.814192735286607
30
0
10
-9.7843919035923044
20
-13.062097202693481
30
0
10
-9.7940810141122405
20
-13.358145568633727
30
0
10
-9.6056842559199573
20
-13.72743617503296
30
0
0
SPLINE
5
210
100
AcDbEntity
8
0
100
AcDbSpline
70
4
71
3
72
8
73
4
74
0
42
0.000000001
43
0.0000000001
44
0.0000000001
40
-1
40
-1
40
-1
40
-1
40
0
40
0
40
0
40
0
41
1
41
1
41
1
41
1
10
-9.6056842559199573
20
-13.72743617503296
30
0
10
-9.3898917005443394
20
-14.150423014256699
30
0
10
-9.4978757156967131
20
-14.404191419630411
30
0
10
-9.9799777068193585
20
-14.607056718886632
30
0
0
SPLINE
5
211
100
AcDbEntity
8
0
100
AcDbSpline
70
4
71
3
72
8
73
4
74
0
42
0.000000001
43
0.0000000001
44
0.0000000001
40
-1
40
-1
40
-1
40
-1
40
0
40
0
40
0
40
0
41
1
41
1
41
1
41
1
10
-9.979979515839247
20
-14.607058527906528
30
0
10
-10.307238449651571
20
-14.744766548838047
30
0
10
-11.095848107451696
20
-14.766811265192779
30
0
10
-11.480476488971036
20
-14.649003367538814
30
0
0
SPLINE
5
212
100
AcDbEntity
8
0
100
AcDbSpline
70
4
71
3
72
8
73
4
74
0
42
0.000000001
43
0.0000000001
44
0.0000000001
40
-1
40
-1
40
-1
40
-1
40
0
40
0
40
0
40
0
41
1
41
1
41
1
41
1
10
-11.480476488971036
20
-14.649003367538814
30
0
10
-11.853943217781641
20
-14.534615421983045
30
0
10
-12.170116477720519
20
-14.243503419062083
30
0
10
-12.170116477720519
20
-14.014031055293671
30
0
0
SPLINE
5
213
100
AcDbEntity
8
0
100
AcDbSpline
70
4
71
3
72
8
73
4
74
0
42
0.000000001
43
0.0000000001
44
0.0000000001
40
-1
40
-1
40
-1
40
-1
40
0
40
0
40
0
40
0
41
1
41
1
41
1
41
1
10
-12.170116477720519
20
-14.014031055293671
30
0
10
-12.170116477720519
20
-13.92725779832768
30
0
10
-12.106097072905344
20
-13.769488651348581
30
0
10
-12.027849726671329
20
-13.663430337866945
30
0
0
SPLINE
5
214
100
AcDbEntity
8
0
100
AcDbSpline
70
4
71
3
72
8
73
4
74
0
42
0.000000001
43
0.0000000001
44
0.0000000001
40
-1
40
-1
40
-1
40
-1
40
0
40
0
40
0
40
0
41
1
41
1
41
1
41
1
10
-12.027849726671329
20
-13.663430337866945
30
0
10
-11.949602380437314
20
-13.557372928895255
30
0
10
-11.885582975622139
20
-13.423193401255213
30
0
10
-11.885582975622139
20
-13.365254112283482
30
0
0
SPLINE
5
215
100
AcDbEntity
8
0
100
AcDbSpline
70
4
71
3
72
8
73
4
74
0
42
0.000000001
43
0.0000000001
44
0.0000000001
40
-1
40
-1
40
-1
40
-1
40
0
40
0
40
0
40
0
41
1
41
1
41
1
41
1
10
-11.885582975622139
20
-13.365254112283482
30
0
10
-11.885582975622139
20
-13.307313918801814
30
0
10
-11.949602380437314
20
-13.19588914782253
30
0
10
-12.027849726671329
20
-13.117641801588515
30
0
0
SPLINE
5
216
100
AcDbEntity
8
0
100
AcDbSpline
70
4
71
3
72
8
73
4
74
0
42
0.000000001
43
0.0000000001
44
0.0000000001
40
-1
40
-1
40
-1
40
-1
40
0
40
0
40
0
40
0
41
1
41
1
41
1
41
1
10
-12.348386342579975
20
-10.334378323255526
30
0
10
-12.475283660661024
20
-10.612749399105557
30
0
10
-12.484006754560784
20
-11.036017993176849
30
0
10
-12.368544251191565
20
-11.312360253222522
30
0
0
SPLINE
5
217
100
AcDbEntity
8
0
100
AcDbSpline
70
4
71
3
72
8
73
4
74
0
42
0.000000001
43
0.0000000001
44
0.0000000001
40
-1
40
-1
40
-1
40
-1
40
0
40
0
40
0
40
0
41
1
41
1
41
1
41
1
10
-12.368544251191565
20
-11.312360253222522
30
0
10
-12.321185919544547
20
-11.425706203322825
30
0
10
-12.292887421437118
20
-11.528894506752202
30
0
10
-12.305660910866031
20
-11.541667996181122
30
0
0
SPLINE
5
218
100
AcDbEntity
8
0
100
AcDbSpline
70
4
71
3
72
8
73
4
74
0
42
0.000000001
43
0.0000000001
44
0.0000000001
40
-1
40
-1
40
-1
40
-1
40
0
40
0
40
0
40
0
41
1
41
1
41
1
41
1
10
-12.305660910866031
20
-11.541667996181122
30
0
10
-12.365430927964379
20
-11.601438013279468
30
0
10
-12.771498004175985
20
-11.158151257382931
30
0
10
-12.889914637022253
20
-10.903860949771547
30
0
0
SPLINE
5
219
100
AcDbEntity
8
0
100
AcDbSpline
70
4
71
3
72
8
73
4
74
0
42
0.000000001
43
0.0000000001
44
0.0000000001
40
-1
40
-1
40
-1
40
-1
40
0
40
0
40
0
40
0
41
1
41
1
41
1
41
1
10
-12.889914637022253
20
-10.903860949771547
30
0
10
-13.073897386687898
20
-10.508768744965247
30
0
10
-13.066905524820918
20
-10.388034305387524
30
0
10
-12.823968626026399
20
-9.7653095100388789
30
0
0
SPLINE
5
220
100
AcDbEntity
8
0
100
AcDbSpline
70
4
71
3
72
8
73
4
74
0
42
0.000000001
43
0.0000000001
44
0.0000000001
40
-1
40
-1
40
-1
40
-1
40
0
40
0
40
0
40
0
41
1
41
1
41
1
41
1
10
-12.823968626026399
20
-9.7653095100388789
30
0
10
-12.744265018782572
20
-9.5610051354617767
30
0
10
-13.29025073822879
20
-10.135360357046036
30
0
10
-13.443630298449744
20
-10.417171284213026
30
0
0
SPLINE
5
221
100
AcDbEntity
8
0
100
AcDbSpline
70
4
71
3
72
8
73
4
74
0
42
0.000000001
43
0.0000000001
44
0.0000000001
40
-1
40
-1
40
-1
40
-1
40
0
40
0
40
0
40
0
41
1
41
1
41
1
41
1
10
-13.443630298449744
20
-10.417171284213026
30
0
10
-13.524218516418784
20
-10.565235039493196
30
0
10
-13.617934791714784
20
-10.815929920077259
30
0
10
-13.651893713051653
20
-10.974272074105876
30
0
0
SPLINE
5
222
100
AcDbEntity
8
0
100
AcDbSpline
70
4
71
3
72
8
73
4
74
0
42
0.000000001
43
0.0000000001
44
0.0000000001
40
-1
40
-1
40
-1
40
-1
40
0
40
0
40
0
40
0
41
1
41
1
41
1
41
1
10
-13.651893713051653
20
-10.974272074105876
30
0
10
-13.760675505974621
20
-11.481509039806861
30
0
10
-13.556648815950325
20
-12.206605366105476
30
0
10
-13.157911888324749
20
-12.729837233400879
30
0
0
SPLINE
5
223
100
AcDbEntity
8
0
100
AcDbSpline
70
4
71
3
72
8
73
4
74
0
42
0.000000001
43
0.0000000001
44
0.0000000001
40
-1
40
-1
40
-1
40
-1
40
0
40
0
40
0
40
0
41
1
41
1
41
1
41
1
10
-13.157911888324749
20
-12.729837233400879
30
0
10
-13.084107494935573
20
-12.826688087907749
30
0
10
-13.023718793035544
20
-12.933462321010047
30
0
10
-13.023718793035544
20
-12.967113708965963
30
0
0
SPLINE
5
224
100
AcDbEntity
8
0
100
AcDbSpline
70
4
71
3
72
8
73
4
74
0
42
0.000000001
43
0.0000000001
44
0.0000000001
40
-1
40
-1
40
-1
40
-1
40
0
40
0
40
0
40
0
41
1
41
1
41
1
41
1
10
-13.023718793035544
20
-12.967113708965963
30
0
10
-13.023718793035544
20
-13.066264280005409
30
0
10
-13.43205438018666
20
-12.879448152940235
30
0
10
-13.763255168334858
20
-12.628771814810023
30
0
0
LINE
5
225
100
AcDbEntity
8
0
100
AcDbLine
10
-13.763255168334858
20
-12.628771814810024
30
0
11
-14.06273117470783
21
-12.402106597652764
31
0
0
LINE
5
226
100
AcDbEntity
8
0
100
AcDbLine
10
-14.06273117470783
20
-12.402106597652764
30
0
11
-14.024796027657214
21
-12.563286199375652
31
0
0
SPLINE
5
227
100
AcDbEntity
8
0
100
AcDbSpline
70
4
71
3
72
8
73
4
74
0
42
0.000000001
43
0.0000000001
44
0.0000000001
40
-1
40
-1
40
-1
40
-1
40
0
40
0
40
0
40
0
41
1
41
1
41
1
41
1
10
-14.024796027657214
20
-12.563286199375652
30
0
10
-13.876867044358692
20
-13.191817948564664
30
0
10
-13.179005060218412
20
-14.075412004602249
30
0
10
-12.583868270416204
20
-14.387704916881447
30
0
0
SPLINE
5
228
100
AcDbEntity
8
0
100
AcDbSpline
70
4
71
3
72
8
73
4
74
0
42
0.000000001
43
0.0000000001
44
0.0000000001
40
-1
40
-1
40
-1
40
-1
40
0
40
0
40
0
40
0
41
1
41
1
41
1
41
1
10
-12.583868270416204
20
-14.387704916881447
30
0
10
-12.259538139802491
20
-14.557894794411311
30
0
10
-11.820821872652898
20
-14.715936198883558
30
0
10
-11.544139516868285
20
-14.762251630565167
30
0
0
SPLINE
5
229
100
AcDbEntity
8
0
100
AcDbSpline
70
4
71
3
72
8
73
4
74
0
42
0.000000001
43
0.0000000001
44
0.0000000001
40
-1
40
-1
40
-1
40
-1
40
0
40
0
40
0
40
0
41
1
41
1
41
1
41
1
10
-11.544139516868285
20
-14.762251630565167
30
0
10
-11.190834314709047
20
-14.821393013252443
30
0
10
-10.23635924142123
20
-14.793430088334233
30
0
10
-9.8997078763505986
20
-14.714074717418839
30
0
0
SPLINE
5
230
100
AcDbEntity
8
0
100
AcDbSpline
70
4
71
3
72
8
73
4
74
0
42
0.000000001
43
0.0000000001
44
0.0000000001
40
-1
40
-1
40
-1
40
-1
40
0
40
0
40
0
40
0
41
1
41
1
41
1
41
1
10
-9.8997078763505986
20
-14.714074717418839
30
0
10
-8.7289065868202123
20
-14.438092452330862
30
0
10
-7.7164741343617882
20
-13.386257737692691
30
0
10
-7.3035834351327944
20
-12.016912445163456
30
0
0
SPLINE
5
231
100
AcDbEntity
8
0
100
AcDbSpline
70
4
71
3
72
8
73
4
74
0
42
0.000000001
43
0.0000000001
44
0.0000000001
40
-1
40
-1
40
-1
40
-1
40
0
40
0
40
0
40
0
41
1
41
1
41
1
41
1
10
-7.3035834351327944
20
-12.016912445163456
30
0
10
-7.262873251574038
20
-11.88189805484512
30
0
10
-7.2674989154275638
20
-11.882920603336791
30
0
10
-7.4882047688188935
20
-12.057722577071019
30
0
0
SPLINE
5
232
100
AcDbEntity
8
0
100
AcDbSpline
70
4
71
3
72
8
73
4
74
0
42
0.000000001
43
0.0000000001
44
0.0000000001
40
-1
40
-1
40
-1
40
-1
40
0
40
0
40
0
40
0
41
1
41
1
41
1
41
1
10
-7.4882047688188935
20
-12.057722577071019
30
0
10
-7.7970098907540875
20
-12.302301161413872
30
0
10
-8.2120515146298914
20
-12.500520897597806
30
0
10
-8.5735570039412714
20
-12.576077779003448
30
0
0
SPLINE
5
233
100
AcDbEntity
8
0
100
AcDbSpline
70
4
71
3
72
8
73
4
74
0
42
0.000000001
43
0.0000000001
44
0.0000000001
40
-1
40
-1
40
-1
40
-1
40
0
40
0
40
0
40
0
41
1
41
1
41
1
41
1
10
-8.5735570039412714
20
-12.576077779003448
30
0
10
-9.1008374577459339
20
-12.686281913813332
30
0
10
-9.1188426326908445
20
-12.637540586461959
30
0
10
-8.6660521908128949
20
-12.325692693075197
30
0
0
SPLINE
5
234
100
AcDbEntity
8
0
100
AcDbSpline
70
4
71
3
72
8
73
4
74
0
42
0.000000001
43
0.0000000001
44
0.0000000001
40
-1
40
-1
40
-1
40
-1
40
0
40
0
40
0
40
0
41
1
41
1
41
1
41
1
10
-8.6660521908128949
20
-12.325692693075197
30
0
10
-8.1670720441355407
20
-11.9820313759387
30
0
10
-7.8276800139346436
20
-11.511279175593145
30
0
10
-7.7560808157888994
20
-11.063523236063402
30
0
0
SPLINE
5
235
100
AcDbEntity
8
0
100
AcDbSpline
70
4
71
3
72
8
73
4
74
0
42
0.000000001
43
0.0000000001
44
0.0000000001
40
-1
40
-1
40
-1
40
-1
40
0
40
0
40
0
40
0
41
1
41
1
41
1
41
1
10
-7.7560808157888994
20
-11.063523236063402
30
0
10
-7.7206873416808675
20
-10.842186034731167
30
0
10
-7.7934117501969302
20
-10.467496408476302
30
0
10
-7.9031251883621989
20
-10.30592424943773
30
0
0
SPLINE
5
236
100
AcDbEntity
8
0
100
AcDbSpline
70
4
71
3
72
8
73
4
74
0
42
0.000000001
43
0.0000000001
44
0.0000000001
40
-1
40
-1
40
-1
40
-1
40
0
40
0
40
0
40
0
41
1
41
1
41
1
41
1
10
-7.9031251883621989
20
-10.30592424943773
30
0
10
-7.9529853945142781
20
-10.232501106989943
30
0
10
-7.9700372159782296
20
-10.23648004623352
30
0
10
-8.0250784550894352
20
-10.334377871000552
30
0
0
SPLINE
5
237
100
AcDbEntity
8
0
100
AcDbSpline
70
4
71
3
72
8
73
4
74
0
42
0.000000001
43
0.0000000001
44
0.0000000001
40
-1
40
-1
40
-1
40
-1
40
0
40
0
40
0
40
0
41
1
41
1
41
1
41
1
10
-8.0250784550894352
20
-10.334377871000552
30
0
10
-8.0602729370097883
20
-10.396975386183787
30
0
10
-8.2079287583052221
20
-10.56458650586336
30
0
10
-8.3532021004082111
20
-10.70684737759791
30
0
0
SPLINE
5
238
100
AcDbEntity
8
0
100
AcDbSpline
70
4
71
3
72
8
73
4
74
0
42
0.000000001
43
0.0000000001
44
0.0000000001
40
-1
40
-1
40
-1
40
-1
40
0
40
0
40
0
40
0
41
1
41
1
41
1
41
1
10
-8.3532021004082111
20
-10.70684737759791
30
0
10
-8.6417606717573072
20
-10.989422163412597
30
0
10
-9.1150382638664595
20
-11.181687510635294
30
0
10
-9.4421615211871845
20
-11.149230075805434
30
0
0
LINE
5
239
100
AcDbEntity
8
0
100
AcDbLine
10
-9.4421615211871828
20
-11.149230075805432
30
0
11
-9.6251511189343439
21
-11.131073847699881
31
0
0
LINE
5
240
100
AcDbEntity
8
0
100
AcDbLine
10
-9.6251511189343439
20
-11.131073847699881
30
0
11
-9.6141830313536136
21
-10.558740658095406
31
0
0
SPLINE
5
241
100
AcDbEntity
8
0
100
AcDbSpline
70
4
71
3
72
8
73
4
74
0
42
0.000000001
43
0.0000000001
44
0.0000000001
40
-1
40
-1
40
-1
40
-1
40
0
40
0
40
0
40
0
41
1
41
1
41
1
41
1
10
-9.6141830313536136
20
-10.558740658095406
30
0
10
-9.5943163749439933
20
-9.5219384464712462
30
0
10
-9.8535308346904227
20
-8.7511046703452244
30
0
10
-10.391160691274131
20
-8.2482143271800403
30
0
0
SPLINE
5
242
100
AcDbEntity
8
0
100
AcDbSpline
70
4
71
3
72
8
73
4
74
0
42
0.000000001
43
0.0000000001
44
0.0000000001
40
-1
40
-1
40
-1
40
-1
40
0
40
0
40
0
40
0
41
1
41
1
41
1
41
1
10
-10.391160691274131
20
-8.2482143271800403
30
0
10
-10.663855967225672
20
-7.9931407139571631
30
0
10
-11.017152124285472
20
-7.768228437071345
30
0
10
-11.066934542582363
20
-7.8180104031132647
30
0
0
SPLINE
5
243
100
AcDbEntity
8
0
100
AcDbSpline
70
4
71
3
72
8
73
4
74
0
42
0.000000001
43
0.0000000001
44
0.0000000001
40
-1
40
-1
40
-1
40
-1
40
0
40
0
40
0
40
0
41
1
41
1
41
1
41
1
10
-11.066934542582363
20
-7.8180104031132647
30
0
10
-11.080341188972067
20
-7.8314186323953727
30
0
10
-11.026996810515772
20
-7.9805535535767058
30
0
10
-10.948387660304162
20
-8.149420811440983
30
0
0
SPLINE
5
244
100
AcDbEntity
8
0
100
AcDbSpline
70
4
71
3
72
8
73
4
74
0
42
0.000000001
43
0.0000000001
44
0.0000000001
40
-1
40
-1
40
-1
40
-1
40
0
40
0
40
0
40
0
41
1
41
1
41
1
41
1
10
-10.948387660304162
20
-8.149420811440983
30
0
10
-10.869778510092555
20
-8.318288069305261
30
0
10
-10.805189264012673
20
-8.4952640326898532
30
0
10
-10.804907056910151
20
-8.5427003783195445
30
0
0
SPLINE
5
245
100
AcDbEntity
8
0
100
AcDbSpline
70
4
71
3
72
8
73
4
74
0
42
0.000000001
43
0.0000000001
44
0.0000000001
40
-1
40
-1
40
-1
40
-1
40
0
40
0
40
0
40
0
41
1
41
1
41
1
41
1
10
-10.804907056910151
20
-8.5427003783195445
30
0
10
-10.803691395545441
20
-8.7313551479733462
30
0
10
-11.025202262786911
20
-9.0052685726919446
30
0
10
-11.463171404722772
20
-9.3566894545103807
30
0
0
SPLINE
5
246
100
AcDbEntity
8
0
100
AcDbSpline
70
4
71
3
72
8
73
4
74
0
42
0.000000001
43
0.0000000001
44
0.0000000001
40
-1
40
-1
40
-1
40
-1
40
0
40
0
40
0
40
0
41
1
41
1
41
1
41
1
10
-11.463171404722772
20
-9.3566894545103807
30
0
10
-11.991222500999719
20
-9.7803885953150083
30
0
10
-12.201938946569705
20
-10.013119456156613
30
0
10
-12.348386342579975
20
-10.334378323255526
30
0
0
SPLINE
5
247
100
AcDbEntity
8
0
100
AcDbSpline
70
4
71
3
72
8
73
4
74
0
42
0.000000001
43
0.0000000001
44
0.0000000001
40
-1
40
-1
40
-1
40
-1
40
0
40
0
40
0
40
0
41
1
41
1
41
1
41
1
10
-2.1794644102501293
20
-16.341163836008587
30
0
10
-2.1794644102501293
20
-16.097915448489417
30
0
10
-1.9735342596869954
20
-16.016059876576428
30
0
10
-1.464387320121352
20
-16.056930193426211
30
0
0
SPLINE
5
248
100
AcDbEntity
8
0
100
AcDbSpline
70
4
71
3
72
8
73
4
74
0
42
0.000000001
43
0.0000000001
44
0.0000000001
40
-1
40
-1
40
-1
40
-1
40
0
40
0
40
0
40
0
41
1
41
1
41
1
41
1
10
-1.464387320121352
20
-16.056930193426211
30
0
10
-0.92300877091739952
20
-16.100386620078154
30
0
10
-0.42171675776740081
20
-16.319663053615574
30
0
10
-0.0446949627797677
20
-16.677932801356889
30
0
0
SPLINE
5
249
100
AcDbEntity
8
0
100
AcDbSpline
70
4
71
3
72
8
73
4
74
0
42
0.000000001
43
0.0000000001
44
0.0000000001
40
-1
40
-1
40
-1
40
-1
40
0
40
0
40
0
40
0
41
1
41
1
41
1
41
1
10
-0.0446949627797677
20
-16.677932801356889
30
0
10
0.21865538462004341
20
-16.92818263791964
30
0
10
0.26606372941883727
20
-17.10154003244504
30
0
10
0.11301004802105385
20
-17.254592491095874
30
0
0
SPLINE
5
250
100
AcDbEntity
8
0
100
AcDbSpline
70
4
71
3
72
8
73
4
74
0
42
0.000000001
43
0.0000000001
44
0.0000000001
40
-1
40
-1
40
-1
40
-1
40
0
40
0
40
0
40
0
41
1
41
1
41
1
41
1
10
0.11301004802105385
20
-17.254592491095874
30
0
10
-0.071164988783181116
20
-17.438765082406203
30
0
10
-0.94677408066436985
20
-17.323193486055938
30
0
10
-1.4871059584779367
20
-17.0433923011723
30
0
0
SPLINE
5
251
100
AcDbEntity
8
0
100
AcDbSpline
70
4
71
3
72
8
73
4
74
0
42
0.000000001
43
0.0000000001
44
0.0000000001
40
-1
40
-1
40
-1
40
-1
40
0
40
0
40
0
40
0
41
1
41
1
41
1
41
1
10
-1.4871059584779367
20
-17.0433923011723
30
0
10
-1.7798315786376318
20
-16.891810807103976
30
0
10
-2.1794644102501293
20
-16.4864787519511
30
0
10
-2.1794644102501293
20
-16.341163836008587
30
0
0
SPLINE
5
252
100
AcDbEntity
8
0
100
AcDbSpline
70
4
71
3
72
8
73
4
74
0
42
0.000000001
43
0.0000000001
44
0.0000000001
40
-1
40
-1
40
-1
40
-1
40
0
40
0
40
0
40
0
41
1
41
1
41
1
41
1
10
3.0901494342463698
20
-10.08622931804511
30
0
10
0.91688791274665338
20
-10.270204435722794
30
0
10
-0.79959936660880526
20
-10.744282992722944
30
0
10
-2.077086253505227
20
-11.51337126118796
30
0
0
SPLINE
5
253
100
AcDbEntity
8
0
100
AcDbSpline
70
4
71
3
72
8
73
4
74
0
42
0.000000001
43
0.0000000001
44
0.0000000001
40
-1
40
-1
40
-1
40
-1
40
0
40
0
40
0
40
0
41
1
41
1
41
1
41
1
10
-2.077086253505227
20
-11.51337126118796
30
0
10
-2.6361652875773078
20
-11.849956203120067
30
0
10
-3.381493137283158
20
-12.65226344938662
30
0
10
-3.6327333988765309
20
-13.187953168399289
30
0
0
SPLINE
5
254
100
AcDbEntity
8
0
100
AcDbSpline
70
4
71
3
72
8
73
4
74
0
42
0.000000001
43
0.0000000001
44
0.0000000001
40
-1
40
-1
40
-1
40
-1
40
0
40
0
40
0
40
0
41
1
41
1
41
1
41
1
10
-3.6327333988765309
20
-13.187953168399289
30
0
10
-3.8110196863629309
20
-13.568102750088549
30
0
10
-3.8334253014999664
20
-13.710535040093193
30
0
10
-3.8334253014999664
20
-14.463909176112583
30
0
0
SPLINE
5
255
100
AcDbEntity
8
0
100
AcDbSpline
70
4
71
3
72
8
73
4
74
0
42
0.000000001
43
0.0000000001
44
0.0000000001
40
-1
40
-1
40
-1
40
-1
40
0
40
0
40
0
40
0
41
1
41
1
41
1
41
1
10
-3.8334253014999664
20
-14.463909176112583
30
0
10
-3.8334253014999664
20
-15.267195842687189
30
0
10
-3.8200826867665372
20
-15.33904017393578
30
0
10
-3.5805807959063918
20
-15.825341920835372
30
0
0
SPLINE
5
256
100
AcDbEntity
8
0
100
AcDbSpline
70
4
71
3
72
8
73
4
74
0
42
0.000000001
43
0.0000000001
44
0.0000000001
40
-1
40
-1
40
-1
40
-1
40
0
40
0
40
0
40
0
41
1
41
1
41
1
41
1
10
-3.5805807959063918
20
-15.825341920835372
30
0
10
-3.0703431660601144
20
-16.861360739773826
30
0
10
-1.8055581744946059
20
-17.625400286076609
30
0
10
-0.30870559353331828
20
-17.801836557425577
30
0
0
SPLINE
5
257
100
AcDbEntity
8
0
100
AcDbSpline
70
4
71
3
72
8
73
4
74
0
42
0.000000001
43
0.0000000001
44
0.0000000001
40
-1
40
-1
40
-1
40
-1
40
0
40
0
40
0
40
0
41
1
41
1
41
1
41
1
10
-0.30870070254551241
20
-17.801836557425577
30
0
10
0.75230617309128611
20
-17.92689789286548
30
0
10
1.6911606282855063
20
-17.75811112644433
30
0
10
2.3250424298550376
20
-17.328343696215136
30
0
0
SPLINE
5
258
100
AcDbEntity
8
0
100
AcDbSpline
70
4
71
3
72
8
73
4
74
0
42
0.000000001
43
0.0000000001
44
0.0000000001
40
-1
40
-1
40
-1
40
-1
40
0
40
0
40
0
40
0
41
1
41
1
41
1
41
1
10
2.3250424298550376
20
-17.328343696215136
30
0
10
2.8203527649188986
20
-16.992527250741961
30
0
10
3.0132777789071907
20
-16.608946641107142
30
0
10
3.0130772484071633
20
-15.960279383401554
30
0
0
SPLINE
5
259
100
AcDbEntity
8
0
100
AcDbSpline
70
4
71
3
72
8
73
4
74
0
42
0.000000001
43
0.0000000001
44
0.0000000001
40
-1
40
-1
40
-1
40
-1
40
0
40
0
40
0
40
0
41
1
41
1
41
1
41
1
10
3.0130772484071633
20
-15.960279383401554
30
0
10
3.0128864998827476
20
-15.306269944265402
30
0
10
2.718928350796066
20
-14.704151440251795
30
0
10
1.9630212944668957
20
-13.809441818243144
30
0
0
SPLINE
5
260
100
AcDbEntity
8
0
100
AcDbSpline
70
4
71
3
72
8
73
4
74
0
42
0.000000001
43
0.0000000001
44
0.0000000001
40
-1
40
-1
40
-1
40
-1
40
0
40
0
40
0
40
0
41
1
41
1
41
1
41
1
10
1.9630212944668957
20
-13.809441818243144
30
0
10
1.3225073134330989
20
-13.051314253450272
30
0
10
1.0999820412458705
20
-12.607605062481479
30
0
10
1.1061593588442298
20
-12.100866934410044
30
0
0
SPLINE
5
261
100
AcDbEntity
8
0
100
AcDbSpline
70
4
71
3
72
8
73
4
74
0
42
0.000000001
43
0.0000000001
44
0.0000000001
40
-1
40
-1
40
-1
40
-1
40
0
40
0
40
0
40
0
41
1
41
1
41
1
41
1
10
1.1061593588442298
20
-12.100866934410044
30
0
10
1.1112997870278152
20
-11.679397676366376
30
0
10
1.2992849033325449
20
-11.334205818643516
30
0
10
1.7409851210602234
20
-10.93515501457987
30
0
0
SPLINE
5
262
100
AcDbEntity
8
0
100
AcDbSpline
70
4
71
3
72
8
73
4
74
0
42
0.000000001
43
0.0000000001
44
0.0000000001
40
-1
40
-1
40
-1
40
-1
40
0
40
0
40
0
40
0
41
1
41
1
41
1
41
1
10
1.7409851210602234
20
-10.93515501457987
30
0
10
2.0980125578989384
20
-10.612601093914805
30
0
10
2.3729936743002433
20
-10.463247444791895
30
0
10
3.0495786903996747
20
-10.224412562393718
30
0
0
LINE
5
263
100
AcDbEntity
8
0
100
AcDbLine
10
3.0495786903996747
20
-10.224412562393718
30
0
11
3.551721735427833
21
-10.047155522153639
31
0
0
LINE
5
264
100
AcDbEntity
8
0
100
AcDbLine
10
3.551721735427833
20
-10.047155522153639
30
0
11
3.0901494342463698
21
-10.08622931804511
31
0
0
SPLINE
5
265
100
AcDbEntity
8
0
100
AcDbSpline
70
4
71
3
72
8
73
4
74
0
42
0.000000001
43
0.0000000001
44
0.0000000001
40
-1
40
-1
40
-1
40
-1
40
0
40
0
40
0
40
0
41
1
41
1
41
1
41
1
10
11.984880720429313
20
-10.657306180649382
30
0
10
11.100690592338637
20
-10.930517027268989
30
0
10
10.362638517857397
20
-11.145840594238656
30
0
10
10.344764496854362
20
-11.135803699645255
30
0
0
SPLINE
5
266
100
AcDbEntity
8
0
100
AcDbSpline
70
4
71
3
72
8
73
4
74
0
42
0.000000001
43
0.0000000001
44
0.0000000001
40
-1
40
-1
40
-1
40
-1
40
0
40
0
40
0
40
0
41
1
41
1
41
1
41
1
10
10.344764496854362
20
-11.135803699645255
30
0
10
10.31979911789051
20
-11.121784700023474
30
0
10
10.658281211087765
20
-8.9131839766556951
30
0
10
10.884822962637667
20
-7.6119148160404038
30
0
0
SPLINE
5
267
100
AcDbEntity
8
0
100
AcDbSpline
70
4
71
3
72
8
73
4
74
0
42
0.000000001
43
0.0000000001
44
0.0000000001
40
-1
40
-1
40
-1
40
-1
40
0
40
0
40
0
40
0
41
1
41
1
41
1
41
1
10
10.884822962637667
20
-7.6119148160404038
30
0
10
10.901169266345319
20
-7.5180185432655477
30
0
10
10.326233801631998
20
-8.629761212768523
30
0
10
9.6071872900937123
20
-10.082454383105883
30
0
0
SPLINE
5
268
100
AcDbEntity
8
0
100
AcDbSpline
70
4
71
3
72
8
73
4
74
0
42
0.000000001
43
0.0000000001
44
0.0000000001
40
-1
40
-1
40
-1
40
-1
40
0
40
0
40
0
40
0
41
1
41
1
41
1
41
1
10
9.6071872900937123
20
-10.082454383105883
30
0
10
8.8881407785554281
20
-11.535147101188272
30
0
10
8.3063068426268458
20
-12.729821121670174
30
0
10
8.3142228875290929
20
-12.737285137727913
30
0
0
SPLINE
5
269
100
AcDbEntity
8
0
100
AcDbSpline
70
4
71
3
72
8
73
4
74
0
42
0.000000001
43
0.0000000001
44
0.0000000001
40
-1
40
-1
40
-1
40
-1
40
0
40
0
40
0
40
0
41
1
41
1
41
1
41
1
10
8.3142228875290929
20
-12.737285137727913
30
0
10
8.32213893243134
20
-12.744749153785659
30
0
10
9.0966769029054504
20
-12.525220067831452
30
0
10
10.035418477972664
20
-12.2494440310107
30
0
0
SPLINE
5
270
100
AcDbEntity
8
0
100
AcDbSpline
70
4
71
3
72
8
73
4
74
0
42
0.000000001
43
0.0000000001
44
0.0000000001
40
-1
40
-1
40
-1
40
-1
40
0
40
0
40
0
40
0
41
1
41
1
41
1
41
1
10
10.035418477972664
20
-12.2494440310107
30
0
10
10.974160053039878
20
-11.973667541934994
30
0
10
11.757395565007835
20
-11.757410068448166
30
0
10
11.775941636899246
20
-11.76887247071328
30
0
0
SPLINE
5
271
100
AcDbEntity
8
0
100
AcDbSpline
70
4
71
3
72
8
73
4
74
0
42
0.000000001
43
0.0000000001
44
0.0000000001
40
-1
40
-1
40
-1
40
-1
40
0
40
0
40
0
40
0
41
1
41
1
41
1
41
1
10
11.775941636899246
20
-11.76887247071328
30
0
10
11.794488613300603
20
-11.780334420723424
30
0
10
11.677078247767014
20
-12.488625404517816
30
0
10
11.515030316497905
20
-13.34285183169419
30
0
0
SPLINE
5
272
100
AcDbEntity
8
0
100
AcDbSpline
70
4
71
3
72
8
73
4
74
0
42
0.000000001
43
0.0000000001
44
0.0000000001
40
-1
40
-1
40
-1
40
-1
40
0
40
0
40
0
40
0
41
1
41
1
41
1
41
1
10
11.515030316497905
20
-13.34285183169419
30
0
10
11.352982837483767
20
-14.197078258870569
30
0
10
11.204564966560529
20
-14.998423416681961
30
0
10
11.185213880818971
20
-15.123618447048433
30
0
0
SPLINE
5
273
100
AcDbEntity
8
0
100
AcDbSpline
70
4
71
3
72
8
73
4
74
0
42
0.000000001
43
0.0000000001
44
0.0000000001
40
-1
40
-1
40
-1
40
-1
40
0
40
0
40
0
40
0
41
1
41
1
41
1
41
1
10
11.185213880818971
20
-15.123618447048433
30
0
10
11.155610627117348
20
-15.315138478077284
30
0
10
11.189286889096724
20
-15.270003431872571
30
0
10
11.397511862026013
20
-14.839084040440103
30
0
0
SPLINE
5
274
100
AcDbEntity
8
0
100
AcDbSpline
70
4
71
3
72
8
73
4
74
0
42
0.000000001
43
0.0000000001
44
0.0000000001
40
-1
40
-1
40
-1
40
-1
40
0
40
0
40
0
40
0
41
1
41
1
41
1
41
1
10
11.397511862026013
20
-14.839084040440103
30
0
10
11.81846310162082
20
-13.967930614172047
30
0
10
13.592498806226923
20
-10.203520777833042
30
0
10
13.592498806226923
20
-10.181438524315634
30
0
0
SPLINE
5
275
100
AcDbEntity
8
0
100
AcDbSpline
70
4
71
3
72
8
73
4
74
0
42
0.000000001
43
0.0000000001
44
0.0000000001
40
-1
40
-1
40
-1
40
-1
40
0
40
0
40
0
40
0
41
1
41
1
41
1
41
1
10
13.592498806226923
20
-10.181438524315634
30
0
10
13.592498806226923
20
-10.169955318321806
30
0
10
12.869070848519989
20
-10.384095786284743
30
0
10
11.984880720429313
20
-10.657306180649382
30
0
0
ARC
5
276
100
AcDbEntity
8
0
100
AcDbCircle
10
-10.762225485084285
20
-11.410246605932837
30
0
40
6.000000014901163
210
0
220
0
230
1
100
AcDbArc
50
117.86808010321127
51
135.48615345385548
0
SPLINE
5
277
100
AcDbEntity
8
0
100
AcDbSpline
70
4
71
3
72
8
73
4
74
0
42
0.000000001
43
0.0000000001
44
0.0000000001
40
0.83751955057088878
40
0.83751955057088878
40
0.83751955057088878
40
0.83751955057088878
40
1
40
1
40
1
40
1
41
1
41
1
41
1
41
1
10
-13.566849828391712
20
-6.1060895125068404
30
0
10
-13.523036630327923
20
-6.0343836092949532
30
0
10
-13.491797417180631
20
-5.9634786097215953
30
0
10
-13.481341342823431
20
-5.8934931580799299
30
0
0
SPLINE
5
278
100
AcDbEntity
8
0
100
AcDbSpline
70
4
71
3
72
8
73
4
74
0
42
0.000000001
43
0.0000000001
44
0.0000000001
40
0
40
0
40
0
40
0
40
1
40
1
40
1
40
1
41
1
41
1
41
1
41
1
10
-13.481341342823431
20
-5.8934931580799299
30
0
10
-13.429050319816753
20
-5.5435620990685353
30
0
10
-13.794416241276956
20
-5.4605691610608709
30
0
10
-14.047526005989024
20
-5.5950906814579104
30
0
0
SPLINE
5
279
100
AcDbEntity
8
0
100
AcDbSpline
70
4
71
3
72
8
73
4
74
0
42
0.000000001
43
0.0000000001
44
0.0000000001
40
0
40
0
40
0
40
0
40
0.86037472218548905
40
0.86037472218548905
40
0.86037472218548905
40
0.86037472218548905
41
1
41
1
41
1
41
1
10
-14.047526005989024
20
-5.5950906814579104
30
0
10
-14.523263168598035
20
-5.8479084149875842
30
0
10
-15.048884940562306
20
-6.590203054907259
30
0
10
-15.040711742391808
20
-7.2037569144151412
30
0
0
LWPOLYLINE
5
280
100
AcDbEntity
8
0
100
AcDbPolyline
90
3
70
1
43
0.0
10
-8.6768313690082639
20
5.7479007199665544
10
-8.0864424082794315
20
5.7479007199665544
0
SPLINE
5
281
100
AcDbEntity
8
0
100
AcDbSpline
70
4
71
3
72
8
73
4
74
0
42
0.000000001
43
0.0000000001
44
0.0000000001
40
0
40
0
40
0
40
0
40
1
40
1
40
1
40
1
41
1
41
1
41
1
41
1
10
-5.1344939565940457
20
6.506972371190809
30
0
10
-5.8343588106477569
20
6.4627763516759584
30
0
10
-6.0511163004970054
20
6.1792195788439264
30
0
10
-6.062248298313726
20
5.4948744041976472
30
0
0
SPLINE
5
282
100
AcDbEntity
8
0
100
AcDbSpline
70
4
71
3
72
8
73
4
74
0
42
0.000000001
43
0.0000000001
44
0.0000000001
40
0
40
0
40
0
40
0
40
1
40
1
40
1
40
1
41
1
41
1
41
1
41
1
10
-6.062248298313726
20
5.4948744041976472
30
0
10
-5.4547363440563901
20
5.5612523384182388
30
0
10
-5.171519751069158
20
5.9084838469186174
30
0
10
-5.1344939565940457
20
6.506972371190809
30
0
0
SPLINE
5
283
100
AcDbEntity
8
0
100
AcDbSpline
70
4
71
3
72
8
73
4
74
0
42
0.000000001
43
0.0000000001
44
0.0000000001
40
0
40
0
40
0
40
0
40
1
40
1
40
1
40
1
41
1
41
1
41
1
41
1
10
4.2285878193794169
20
12.764094514804665
30
0
10
5.2085501911677623
20
12.928896601440499
30
0
10
5.6191262876050674
20
11.411172823733565
30
0
10
4.5639285374870031
20
11.234224583818763
30
0
0
SPLINE
5
284
100
AcDbEntity
8
0
100
AcDbSpline
70
4
71
3
72
8
73
4
74
0
42
0.000000001
43
0.0000000001
44
0.0000000001
40
0
40
0
40
0
40
0
40
1
40
1
40
1
40
1
41
1
41
1
41
1
41
1
10
4.5639285374870031
20
11.234224583818763
30
0
10
3.6740417757565114
20
11.084939440559438
30
0
10
3.1906817846967961
20
12.589508381587002
30
0
10
4.2285878193794169
20
12.764094514804665
30
0
0
LWPOLYLINE
5
285
100
AcDbEntity
8
0
100
AcDbPolyline
90
3
70
1
43
0.0
10
5.4081874235194292
20
6.6756541496759265
10
5.3238447102562594
20
6.6756541496759247
10
5.9985754722379525
20
8.5311683051771325
0
LWPOLYLINE
5
286
100
AcDbEntity
8
0
100
AcDbPolyline
90
3
70
1
43
0.0
10
6.0829163614805104
20
8.699848259641632
10
5.9985736482173371
20
8.6998482596416338
10
6.0829163614805104
20
8.9528745754105383
0
SPLINE
5
287
100
AcDbEntity
8
0
100
AcDbSpline
70
4
71
3
72
8
73
4
74
0
42
0.000000001
43
0.0000000001
44
0.0000000001
40
0
40
0
40
0
40
0
40
1
40
1
40
1
40
1
41
1
41
1
41
1
41
1
10
3.3843289333469873
20
8.291805727839332
30
0
10
3.0168544440552036
20
8.3194688244948125
30
0
10
2.8402418239336624
20
8.718657560229218
30
0
10
2.8119877445987473
20
9.0373850985703434
30
0
0
SPLINE
5
288
100
AcDbEntity
8
0
100
AcDbSpline
70
4
71
3
72
8
73
4
74
0
42
0.000000001
43
0.0000000001
44
0.0000000001
40
0
40
0
40
0
40
0
40
1
40
1
40
1
40
1
41
1
41
1
41
1
41
1
10
2.8119877445987473
20
9.0373850985703434
30
0
10
2.7558170297427909
20
9.6725601494831555
30
0
10
2.9910445523451257
20
10.429355422979201
30
0
10
3.2996506002905512
20
10.977066861355629
30
0
0
LINE
5
289
100
AcDbEntity
8
0
100
AcDbLine
10
3.2996506002905517
20
10.977066861355629
30
0
11
4.3117467432630985
21
10.639701480364781
31
0
0
SPLINE
5
290
100
AcDbEntity
8
0
100
AcDbSpline
70
4
71
3
72
8
73
4
74
0
42
0.000000001
43
0.0000000001
44
0.0000000001
40
0
40
0
40
0
40
0
40
1
40
1
40
1
40
1
41
1
41
1
41
1
41
1
10
4.3117467432630985
20
10.639701480364781
30
0
10
4.3112688498618201
20
10.014058761188849
30
0
10
4.3112688498618201
20
9.3601583146367666
30
0
10
4.0177328602420959
20
8.7885759184645948
30
0
0
SPLINE
5
291
100
AcDbEntity
8
0
100
AcDbSpline
70
4
71
3
72
8
73
4
74
0
42
0.000000001
43
0.0000000001
44
0.0000000001
40
0
40
0
40
0
40
0
40
1
40
1
40
1
40
1
41
1
41
1
41
1
41
1
10
4.0177328602420959
20
8.7885759184645948
30
0
10
3.895100306217234
20
8.5498900527751687
30
0
10
3.6871984364564936
20
8.2691185594230845
30
0
10
3.3843289333469873
20
8.291805727839332
30
0
0
SPLINE
5
292
100
AcDbEntity
8
0
100
AcDbSpline
70
4
71
3
72
8
73
4
74
0
42
0.000000001
43
0.0000000001
44
0.0000000001
40
0
40
0
40
0
40
0
40
1
40
1
40
1
40
1
41
1
41
1
41
1
41
1
10
2.427642888633712
20
8.033553593006868
30
0
10
2.8917740543642667
20
7.2573580362438017
30
0
10
3.9982486720267607
20
7.4311853768853942
30
0
10
4.4510763820027321
20
8.1138451564828973
30
0
0
SPLINE
5
293
100
AcDbEntity
8
0
100
AcDbSpline
70
4
71
3
72
8
73
4
74
0
42
0.000000001
43
0.0000000001
44
0.0000000001
40
0
40
0
40
0
40
0
40
1
40
1
40
1
40
1
41
1
41
1
41
1
41
1
10
4.4510763820027321
20
8.1138451564828973
30
0
10
5.0702292358285295
20
9.0472512260798688
30
0
10
4.5531321594635443
20
10.333289729219867
30
0
10
5.5768673779839339
20
10.977068685376246
30
0
0
SPLINE
5
294
100
AcDbEntity
8
0
100
AcDbSpline
70
4
71
3
72
8
73
4
74
0
42
0.000000001
43
0.0000000001
44
0.0000000001
40
0
40
0
40
0
40
0
40
1
40
1
40
1
40
1
41
1
41
1
41
1
41
1
10
5.5768673779839339
20
10.977068685376246
30
0
10
5.5767834730356158
20
9.942958437594589
30
0
10
5.4259807446241526
20
8.99504410802151
30
0
10
5.0520966468893169
20
8.0251193216805525
30
0
0
SPLINE
5
295
100
AcDbEntity
8
0
100
AcDbSpline
70
4
71
3
72
8
73
4
74
0
42
0.000000001
43
0.0000000001
44
0.0000000001
40
0
40
0
40
0
40
0
40
1
40
1
40
1
40
1
41
1
41
1
41
1
41
1
10
5.0520966468893169
20
8.0251193216805525
30
0
10
4.9278626027639971
20
7.7028513593246339
30
0
10
4.8150961762486588
20
7.2525499179012032
30
0
10
4.5495041824592075
20
7.0145389398395297
30
0
0
SPLINE
5
296
100
AcDbEntity
8
0
100
AcDbSpline
70
4
71
3
72
8
73
4
74
0
42
0.000000001
43
0.0000000001
44
0.0000000001
40
0
40
0
40
0
40
0
40
1
40
1
40
1
40
1
41
1
41
1
41
1
41
1
10
4.5495041824592075
20
7.0145389398395297
30
0
10
4.3649661927630889
20
6.8491440465036391
30
0
10
4.1182674045095347
20
6.8703993587366785
30
0
10
3.8891102225157592
20
6.895448633850072
30
0
0
SPLINE
5
297
100
AcDbEntity
8
0
100
AcDbSpline
70
4
71
3
72
8
73
4
74
0
42
0.000000001
43
0.0000000001
44
0.0000000001
40
0
40
0
40
0
40
0
40
1
40
1
40
1
40
1
41
1
41
1
41
1
41
1
10
3.8891102225157592
20
6.895448633850072
30
0
10
3.3691457857431217
20
6.9523781412820984
30
0
10
2.2145954567164994
20
7.0143711299428979
30
0
10
1.9525475349830668
20
7.5574440838939783
30
0
0
SPLINE
5
298
100
AcDbEntity
8
0
100
AcDbSpline
70
4
71
3
72
8
73
4
74
0
42
0.000000001
43
0.0000000001
44
0.0000000001
40
0
40
0
40
0
40
0
40
1
40
1
40
1
40
1
41
1
41
1
41
1
41
1
10
1.9525475349830668
20
7.5574440838939783
30
0
10
1.8350605431146771
20
7.8009398919466166
30
0
10
1.9067518493883773
20
8.1061715017532663
30
0
10
1.9300263524428329
20
8.3624847026713987
30
0
0
SPLINE
5
299
100
AcDbEntity
8
0
100
AcDbSpline
70
4
71
3
72
8
73
4
74
0
42
0.000000001
43
0.0000000001
44
0.0000000001
40
0
40
0
40
0
40
0
40
1
40
1
40
1
40
1
41
1
41
1
41
1
41
1
10
1.9300263524428329
20
8.3624847026713987
30
0
10
1.9763309397892614
20
8.8727508218311399
30
0
10
2.046924185652399
20
9.3734864332746142
30
0
10
2.1188672067710446
20
9.8806298291405259
30
0
0
LINE
5
300
100
AcDbEntity
8
0
100
AcDbLine
10
2.1188672067710446
20
9.8806298291405259
30
0
11
2.203209920034217
21
9.8806298291405259
31
0
0
SPLINE
5
301
100
AcDbEntity
8
0
100
AcDbSpline
70
4
71
3
72
8
73
4
74
0
42
0.000000001
43
0.0000000001
44
0.0000000001
40
0
40
0
40
0
40
0
40
1
40
1
40
1
40
1
41
1
41
1
41
1
41
1
10
2.203209920034217
20
9.8806298291405259
30
0
10
2.203209920034217
20
9.2825644776511407
30
0
10
2.1069764163782523
20
8.5697955897527009
30
0
10
2.427642888633712
20
8.033553593006868
30
0
0
SPLINE
5
302
100
AcDbEntity
8
0
100
AcDbSpline
70
4
71
3
72
8
73
4
74
0
42
0.000000001
43
0.0000000001
44
0.0000000001
40
0
40
0
40
0
40
0
40
1
40
1
40
1
40
1
41
1
41
1
41
1
41
1
10
6.3544127100025083
20
12.242189320097081
30
0
10
6.0322286525949087
20
13.148942800459588
30
0
10
5.4106334351648888
20
13.766744055009259
30
0
10
4.3960858084850374
20
13.630278128636043
30
0
0
SPLINE
5
303
100
AcDbEntity
8
0
100
AcDbSpline
70
4
71
3
72
8
73
4
74
0
42
0.000000001
43
0.0000000001
44
0.0000000001
40
0
40
0
40
0
40
0
40
1
40
1
40
1
40
1
41
1
41
1
41
1
41
1
10
4.3960858084850374
20
13.630278128636043
30
0
10
2.2020279546753363
20
13.335169833245711
30
0
10
1.5268740199108333
20
10.821963092332689
30
0
10
1.3484939238128213
20
8.9528745754105383
30
0
0
SPLINE
5
304
100
AcDbEntity
8
0
100
AcDbSpline
70
4
71
3
72
8
73
4
74
0
42
0.000000001
43
0.0000000001
44
0.0000000001
40
0
40
0
40
0
40
0
40
1
40
1
40
1
40
1
41
1
41
1
41
1
41
1
10
1.3484939238128213
20
8.9528745754105383
30
0
10
1.2967938834855852
20
8.4108103048598615
30
0
10
1.0812165349745984
20
7.4669453010533093
30
0
10
1.3981711252774076
20
6.9800430619581899
30
0
0
SPLINE
5
305
100
AcDbEntity
8
0
100
AcDbSpline
70
4
71
3
72
8
73
4
74
0
42
0.000000001
43
0.0000000001
44
0.0000000001
40
0
40
0
40
0
40
0
40
1
40
1
40
1
40
1
41
1
41
1
41
1
41
1
10
1.3981711252774076
20
6.9800430619581899
30
0
10
1.5981439774223372
20
6.6729545991649086
30
0
10
2.0389112630882744
20
6.5644928613022779
30
0
10
2.3718935225399473
20
6.4821748109223654
30
0
0
SPLINE
5
306
100
AcDbEntity
8
0
100
AcDbSpline
70
4
71
3
72
8
73
4
74
0
42
0.000000001
43
0.0000000001
44
0.0000000001
40
0
40
0
40
0
40
0
40
1
40
1
40
1
40
1
41
1
41
1
41
1
41
1
10
2.3718935225399473
20
6.4821748109223654
30
0
10
3.2723212994077189
20
6.2595147903611892
30
0
10
4.3993763416754961
20
6.0597079240922724
30
0
10
5.3236769003596285
20
6.2044384878745618
30
0
0
SPLINE
5
307
100
AcDbEntity
8
0
100
AcDbSpline
70
4
71
3
72
8
73
4
74
0
42
0.000000001
43
0.0000000001
44
0.0000000001
40
0
40
0
40
0
40
0
40
1
40
1
40
1
40
1
41
1
41
1
41
1
41
1
10
5.3236769003596285
20
6.2044384878745618
30
0
10
6.2390324619450821
20
6.3477353714530294
30
0
10
6.5279865117785363
20
7.3055176525562482
30
0
10
6.642606143239278
20
8.1094602109231104
30
0
0
SPLINE
5
308
100
AcDbEntity
8
0
100
AcDbSpline
70
4
71
3
72
8
73
4
74
0
42
0.000000001
43
0.0000000001
44
0.0000000001
40
0
40
0
40
0
40
0
40
1
40
1
40
1
40
1
41
1
41
1
41
1
41
1
10
6.642606143239278
20
8.1094602109231104
30
0
10
6.8347357067373293
20
9.4571506108688013
30
0
10
6.8153372474909224
20
10.945186629036993
30
0
10
6.3544127100025083
20
12.242189320097081
30
0
0
SPLINE
5
309
100
AcDbEntity
8
0
100
AcDbSpline
70
4
71
3
72
8
73
4
74
0
42
0.000000001
43
0.0000000001
44
0.0000000001
40
0
40
0
40
0
40
0
40
1
40
1
40
1
40
1
41
1
41
1
41
1
41
1
10
3.89004047302969
20
14.688088788285887
30
0
10
2.9535955850872098
20
14.612941874956022
30
0
10
2.3115895769691486
20
14.257611714922591
30
0
10
2.2875526332973894
20
13.254285463069627
30
0
0
SPLINE
5
310
100
AcDbEntity
8
0
100
AcDbSpline
70
4
71
3
72
8
73
4
74
0
42
0.000000001
43
0.0000000001
44
0.0000000001
40
0
40
0
40
0
40
0
40
1
40
1
40
1
40
1
41
1
41
1
41
1
41
1
10
2.2875526332973894
20
13.254285463069627
30
0
10
3.0228390556948348
20
13.333652248093571
30
0
10
3.8069636300737075
20
13.929101954020254
30
0
10
3.89004047302969
20
14.688088788285887
30
0
0
SPLINE
5
311
100
AcDbEntity
8
0
100
AcDbSpline
70
4
71
3
72
8
73
4
74
0
42
0.000000001
43
0.0000000001
44
0.0000000001
40
0
40
0
40
0
40
0
40
1
40
1
40
1
40
1
41
1
41
1
41
1
41
1
10
-5.4718593375848945
20
14.266380694031863
30
0
10
-6.2842343432574577
20
14.15665308586204
30
0
10
-6.3137561169201835
20
13.530165845141104
30
0
10
-6.3152737020723233
20
12.832577368815603
30
0
0
SPLINE
5
312
100
AcDbEntity
8
0
100
AcDbSpline
70
4
71
3
72
8
73
4
74
0
42
0.000000001
43
0.0000000001
44
0.0000000001
40
0
40
0
40
0
40
0
40
1
40
1
40
1
40
1
41
1
41
1
41
1
41
1
10
-6.3152737020723233
20
12.832577368815603
30
0
10
-5.5886705298152206
20
12.917593145685917
30
0
10
-5.4854364350367639
20
13.639977358259245
30
0
10
-5.4718593375848945
20
14.266380694031863
30
0
0
ENDSEC
0
SECTION
2
OBJECTS
0
DICTIONARY
5
C
100
AcDbDictionary
3
ACAD_GROUP
350
D
3
ACAD_MLINESTYLE
350
17
0
DICTIONARY
5
D
100
AcDbDictionary
0
DICTIONARY
5
1A
330
C
100
AcDbDictionary
0
DICTIONARY
5
17
100
AcDbDictionary
0
ENDSEC
0
EOF
